<?xml version="1.0" encoding="utf-8"?>
<!-- Generator: Adobe Illustrator 21.0.0, SVG Export Plug-In . SVG Version: 6.00 Build 0)  -->
<svg version="1.1" id="Layer_1" xmlns="http://www.w3.org/2000/svg" xmlns:xlink="http://www.w3.org/1999/xlink" x="0px" y="0px"
	 viewBox="0 0 720 720" style="enable-background:new 0 0 720 720;" xml:space="preserve">
<style type="text/css">
	.st0{fill:#11161C;}
	.st1{fill:#A486BB;}
	.st2{fill:#FDE591;}
	.st3{fill:#DAC57E;}
	.st4{fill:#8E76A2;}
	.st5{fill:#8E75A2;}
	.st6{fill:#A485BA;}
	.st7{fill:#FFFFFF;}
	.st8{fill:#FDFEFF;}
</style>
<path class="st0" d="M655.3,285.1c21.9-32.1,31.5-67.5,28-106.2c-1.2-13.4-4.9-26.1-12.7-37.3c-9.1-13.1-22.7-17.3-37.6-11.7
	c-8.5,3.1-15.8,8.1-22.2,14.5c-13.9,13.8-22,30.9-27.7,49.3c-0.7,2.1-0.9,3.4-3.8,2.5c-16.5-5.1-33.5-6.8-50.8-6.1
	c-2.6,0.1-3.5-0.7-4.2-3.1c-1.9-7.6-4.8-14.8-8.7-21.6c-2.3-3.9-4.6-7.8-7.9-11c-0.9-0.8-1.9-1.9-3.3-1.2c-1.2,0.6-1.6,1.9-1.5,3.2
	c0.1,2.6,0.2,5.2,0.5,7.8c0.4,4.2,0.8,8.5,1.2,12.7c-5.8-11.3-12.1-21.9-19.8-31.8c-6.9-9-14.8-17-25-22.2c-1.9-1-4.2-2.4-6.2-0.8
	s-1.1,4.1-0.5,6.2c2.7,10.5,5.5,20.9,8.1,31.4c1.8,7.3,3.7,14.5,4.8,22.3c-6.8-2.2-13.1-4.7-19.8-5.1c-1.5-0.1-3.3-0.5-4.1,1.2
	c-0.6,1.4,0.5,2.6,1.3,3.7c0.9,1.4,1.9,2.7,2.9,4c4.2,5.8,8.4,11.5,12.7,17.2c1.7,2.2,1.7,3.2-1.2,4.6
	c-13.5,6.5-25.2,15.4-35.6,26.2c-6.8,7-12.5,14.9-17.6,23.6c-4.1-7.8-8.3-15-13.6-21.5c-15.6-19.3-34.1-34-59.5-38
	c-21-3.3-40,8.1-47,28.1c-4.8,13.9-4.1,28.2-1.3,42.3c9.5,47.6,51.4,90.3,98.8,100.8c12.1,2.7,24,2.8,34.5-5.4
	c1.8-1.4,2.4,0.1,3.4,0.9c5.3,4.4,10.9,8.4,17,11.5c4.8,2.5,9.8,4.7,15.4,7.4c-14.5-0.7-28,0.1-41.4,3.5
	c-19.3,4.9-36,13.8-47.8,30.5c-2.7,3.8-4.9,7.9-5.8,12.6c-2,11.4,7.2,19.4,18,15.5c1.8-0.6,3.6-1.4,5.3-2.2
	c16.8-7.4,33.7-14.4,51.3-19.7c6.8-2.1,13.6-4.1,21.6-5.5c-1.9,1.4-3,2.2-4.1,3.1c-14.6,11.7-24.4,25.9-24.1,45.4c0,2.5-1.5,3.7-3,5
	c-40.5,35.8-87.5,50.9-141,42c-44.6-7.4-70.8-37.9-73.6-83c-1.5-24.1,2.2-47.5,7.6-70.9c0.5-2,1.7-2.4,3.4-3
	c31.5-10.1,50.6-31.5,54.4-64.3c2.7-23.2-4-44.1-23.1-59.4c-1.4-1.2-2.1-2.3-2-4.1c0.4-8.1,2.3-15.7,6.5-22.7c1.8-3,4-4.7,7.5-5.5
	c18-4.3,29.4-22.8,25.4-40.7c-3.5-15.8-14.4-25.3-31-27.1c-14.9-1.6-28.9,6.1-35.1,19.3c-6.5,13.9-3.5,31,7.5,41.3
	c1.3,1.2,1.7,2.2,1.1,3.9c-2,5.5-4.3,10.9-7.8,15.8c-1.1,1.6-2.2,2.1-4.1,1.5c-9.9-3.1-20.1-4.4-30.4-3.3c-1.9,0.2-3-0.4-3.9-2
	c-3.8-6.4-5.8-13.3-6.9-20.5c-0.3-1.6,0.3-2.7,1.5-3.9c9.4-8.7,12.8-19.7,11.4-32.1c-2.4-20.8-21.2-35.2-43.5-33.7
	c-20,1.3-35.8,18.9-35.3,40c0.6,23.1,19.1,38,37,37.5c1.6-0.1,2.5,0.4,3.2,1.8c3,6.5,5.2,13.2,5.2,20.5c0,1.8-0.5,2.9-2.2,3.9
	c-7.5,4.5-13.7,10.5-19.5,16.9c-5.9,6.6-7.3,7-15.7,3.9c-3.7-1.3-6.9-3.3-10-5.6c-1.5-1.2-2-2.3-1.7-4.4
	c1.6-14.1-2.1-26.5-13.7-35.4c-13.8-10.5-35-8.8-47.2,3.4c-12.8,12.9-14,34.5-2.7,49.4c9.4,12.4,31.2,16.7,45.7,8.6
	c2.4-1.4,4.4-1.5,6.9-0.6c7.3,2.7,13.7,6.8,19.8,11.6c1.6,1.2,2,2.5,1.7,4.5c-0.9,6.8-1.1,13.7,0,20.5c5,31.6,28.8,56.1,60.4,62.1
	c2.5,0.5,3.1,1.2,2.6,3.7c-1.3,5.9-2.5,11.8-3.5,17.7c-4.8,28.6-5.3,57.1,2.1,85.3c10.2,39.1,33.5,65.9,73.2,76.9
	c26.7,7.4,53.8,8,81.2,4.3c38-5.1,72.6-18.4,102.6-42.5c3.1-2.5,3.9-1.6,5.3,1.4c7.3,15.1,13.4,30.6,18.9,46.4
	c2.1,5.9,4.2,11.8,4,18.3c-0.2,5.7,0.8,11.5,3,16.9c3.2,8,8.7,13.3,17.5,14.3c8.1,1,15-2.4,21.6-6.5c7-4.4,12.6-10.2,17.5-17
	c7.4,10.2,16.2,12.3,27.4,6.9c6.4-3.1,11.7-7.6,16.1-13.2c11.3-14.3,15.5-31.2,16.8-49c0.7-9.6-0.3-18.9-5.3-27.5
	c-3.1-5.4-7.3-9.3-14.2-8.3c-0.6,0.1-1.4-0.1-1.9-0.4c-6.4-3.6-11.9-1.3-17.1,2.6c-4.8,3.7-8,8.6-10.9,13.8c-1,1.9-1.4,2.5-3.7,0.9
	c-5.9-4.1-9.2-10.4-13.9-15.5c-1.8-2-1.2-3,0.6-4.5c11.5-9.7,19.5-21.8,24.7-35.8c4.1-10.9,5.7-22.2,6.4-33.9
	c9.1,1.6,18.1,2.8,27.2,2.3c33.4-1.9,58.5-16.8,73.4-47.3c4.3-8.9,6.5-18.3,4.7-28.3c-1.3-7.7-5.2-10.7-12.9-9.6
	c7.3-12.7,11.3-26.2,11.6-40.7C653.3,287.7,654.3,286.4,655.3,285.1z M128,313.9c-3.7-7.4-6.2-15.2-6.5-23.6
	c-1.3-4.5-0.6-9.1-0.7-13.8c0.6,0.2,0.8,0.2,1,0.3c1.2,0.8,1.4,3.9,3.1,2.8c1.8-1.2-0.3-3.2-1.2-4.5c-3.7-6.1-9.3-10.3-15.1-14.2
	c-1.2-0.8-2.5-1.7-3.7-2.5c-2.9-1.2-5.8-2.4-8.7-3.6c0.1-1.7,2.2-2.5,1.7-4.7c-2.1,0.2-3.2,1.9-4.4,3.1c-14.8,13.5-43.2,7.2-49.8-12
	c-0.2-0.6-0.3-1.3-0.4-2c-5-11.6-2.8-24.7,5.8-33.5c8.9-9.2,24-12.4,35.6-7.7c11.8,4.8,19.4,16.1,19.4,28.8c1,5.5-1,10.7-1.7,16.3
	c2.1-1.4,3.8-4.3,5.8-0.6c8.5,5.6,17.6,8.1,27.6,4.8c1.6-0.5,3.4-0.9,4.6-2.7c-1.9-1-3.7-0.2-5.5,0.1c3.6-5.7,12.6-13.8,20-17.9
	c0.8,2.6-1.7,4.8-0.8,7.4c5.9-4.1,6.9-17.5,2.7-33.7c-0.6-1.9-3.3-3.4-0.4-6.1c1.3-1.2-1.4-1.3-2.3-1.3c-4.3,0.3-8.5,0.4-12.6-0.9
	c-10.3-3.4-18.3-9.5-22.7-19.8c-5.9-10.6-3.8-25.2,5.5-36.8c9.2-11.5,27.3-14.9,42.1-8c13.6,6.4,21.4,22.1,18.2,36.5
	c-1.3,10.6-7.3,18.3-15.6,24.2c0.6,1.5,1.3,1.2,1.9,1.1c0.6-0.1,1.3-0.3,2-0.5c0.4,2.3,0.7,4.4,1.1,6.6c2.3,6.3,4.4,12.7,8.9,17.9
	c2,2.3,3.9,4.8,7.3,5.3c0.9-1.7-1.1-2.1-1.1-3.7c6.6-1.2,13.2-0.3,19.7,0.5c1.8,0.2,3.4,0.8,5.2,1.1c2.5,0.4,4.7,0.8,1.8,4.5
	c9.4-4.9,13.5-13.2,17.6-21.6c-0.1-2.5,1.5-2.9,3.9-2.8c-4-3.9-8.9-6.8-11.1-12.1c-7.9-13.7-4.7-32,7.1-40.9
	c12.8-9.7,31.4-8.8,41.7,2.2c5.4,5.7,8.6,12.6,8.6,20.7c0.6,9.9-3.5,17.8-10.6,24.2c-6.9,6.2-15.2,9.2-25.2,7.8
	c1.5,2.9,3.3,2.4,4.8,2.8c-1.7,3.3-3.4,6.5-5,9.8c-2.1,8.1-3.4,16.3-1.9,24.7c0.3,1.3,0.1,2.8,1.4,3.7c0.7-0.2,1.1-0.8,1.1-1.5
	c0.1-0.7,0.1-1.3,0.2-2.7c11.3,10,17.7,22.1,19.7,36.5l0,0c3.3,14.2,1.5,27.8-4.7,40.8c-14,29.1-43.4,44.7-75.7,41.3
	C160.6,351.2,140.4,338.5,128,313.9z M431,502.5c-30.3,22.2-64.2,34.8-101.5,39.1c-25.4,2.9-50.6,2.3-75.3-5
	c-0.6-0.2-1.2-0.5-1.8-0.8c-28.3-8-48.3-25.7-60.7-52c-11.6-24.7-14.4-51-12.9-77.9c0.7-13.1,2.3-26.2,5.5-39c0-0.1,0-0.3,0-0.4
	c1.1-7.3,1.1-7.3,8.2-7.1c5.5,0.2,10.9-0.1,16.4-0.8c1.7-0.2,2.5,0,2,2.1c-1.7,7-3.2,14-4.7,21c0,0.5-0.1,1.1-0.4,1.7
	c-1.1,9.1-2.4,18.2-2.9,27.4c-0.9,16.1,0.4,32,5,47.6c7.9,26.9,26.3,43.7,51.7,53.5c30.4,11.8,61.4,11,92.5,2.8
	c28.1-7.4,52.8-21,74.2-41.5c1.3,5.3,3.3,10,5.3,14.7l0,0l0,0c0.6,0.9,1.3,1.8,1.8,2.7C437.7,497.7,437.6,497.7,431,502.5z
	 M536.3,506.1c3.3-6.1,7-11.8,12.9-15.7c7.8-5.2,14.1-2.6,16.3,6.5c2.3,9.6,0.3,18.8-2.9,27.8c-0.5,1.3-0.9,2.6-1.2,3.9
	c-0.1,0.3,0.1,0.8,0.2,1.2c6.2-4.6,11.9-27.2,4.9-40.7c4.1-0.6,6.4,1.9,8.4,4.6c3.6,4.9,5,10.7,5.5,16.6c0.8,8.9,0.3,17.7-2.4,26.4
	c-2.8,16.1-9,30.4-22,40.9c-4.9,4-10.5,6.4-17,6c-3.3-0.2-6.1-1.3-8.5-3.6c-4.4-4.2-4.6-5.3-1.8-10.8c1.6-3.2,3.1-6.4,4.6-9.5
	c2.4-8,5.2-15.8,6.3-24.2c1.1-8.9,0.6-17.5-3-25.8C536,508.4,535.6,507.3,536.3,506.1z M522.7,503.2c0.7-0.8,1.8-0.3,2.7,0
	c4.3,1.6,6.7,5.2,8.2,9.2c3.5,9.5,3.4,19.3,1,29c-4.4,20.6-12.6,38.9-31.2,50.7c-17.8,11.3-32.1,4.4-34.8-16.6
	c-0.4-3.4-0.7-6.8-0.1-10.2c2-26.6,13.1-48,36.3-62.1c0.9-0.6,2-1,3-1.3c7.6-2.8,12,0.1,12.6,8c0.5,6.9-1.4,13.3-3.8,19.6
	c-0.5,1.4-1.6,2.8-0.7,5.3c4.5-6.4,6.9-12.9,7.7-20c0.3-3.1,0.3-6.3-0.7-9.4C522.7,504.7,522.3,503.6,522.7,503.2z M485.8,514.5
	c-2.6-4.9-5-9.4-7.5-14c9.3-1.9,9.3-1.9,13.2,5.9C492.6,508.5,492.6,508.5,485.8,514.5z M522,498.3c-1.2,0.9-2.2,1.3-3.3,0.6
	c-5.3-3.5-10.2-1.4-15.1,0.8c-1.6,0.7-3,1.9-4.6,2.7c-1.7,0.8-3.3,3.5-4.7,2.5c-1.8-1.3-2.6-4-3.8-6.2c-0.8-1.4,0.3-1.5,1.3-1.8
	c7-2.1,13.6-5,19.7-9c1.2-0.8,1.9-0.5,2.7,0.5C516.7,491.7,519.3,495,522,498.3z M541.4,438c-2.1,7.5-4.9,14.8-9.3,21.3l0,0
	c-11.9,20.9-29.3,33.8-53.5,37.1c-2.4,0.3-3.5-0.3-4.4-2.4c-1.3-3.2-2.8-6.2-4.1-9.4c-0.9-2.4-1.6-5-0.3-7.5
	c1.1-8.2,4.5-15.5,9.3-22c10-13.8,22.9-24.2,38.6-30.8c4.6-1.9,9.4-2.8,14.4-1.4C538.8,424.5,543.3,431.5,541.4,438z M628.9,340.4
	c-21.5,25.7-49.4,39.8-82,45.4c-3.1,0.5-6.3,0.8-9.3,1.4c-1.3,0.3-3.8-0.3-3.4,1.7c0.3,1.7,2.6,1,4,0.9c6.4-0.8,12.8-1.5,19.1-2.8
	c29.9-6,55.2-19.9,75-43.5c2.8-3.3,6.2-5.8,10.2-7.4c3.8-1.5,6.1-0.4,7.2,3.5c1.3,4.7,1,9.5,0.1,14.3c-1.7,8.3-4.8,16-9.8,22.8l0,0
	c-9.4,14.9-23,24.5-39.3,30.3c-15.9,5.6-32.3,5.6-48.8,3.4c-2.1-0.3-2.8-1.2-2.7-3.3c0.1-2.2,0.1-4.4,0.1-6.6
	c-0.3-1.9-0.5-3.8-0.8-5.7c-0.1-0.8-0.4-1.8-1.5-1.5c-0.4,0.1-0.9,1-1,1.6c-0.1,1.4-0.1,2.7,0,4.1c0.2,9.7-0.2,19.4-2.4,30.3
	c-2.4-6.7-6.7-9.6-12.4-10.4c-5.4-0.7-10.8,0-15.7,2.2c-23,10.3-40.7,25.6-48,50.8c-1.8,6.1-1.5,11.8,1.1,17.6
	c3.8,8.5,7.9,16.9,12.6,24.9c0.9,1.5,1.4,2.7,0,4.3c-5.4,6.5-9,14-12,21.9l0,0l0,0c-1.1,3.9-2.2,7.8-3.6,12.5
	c-5-16.3-11.7-31.1-17.9-46.2c-4.3-8.7-10.2-16.5-14-25.5c-5.9-14-4.7-27.6,3-40.5c6.1-10.2,14.5-18.2,24.9-23.9
	c6-3.3,13-3,19.6-3.9c2.5-0.4,5.1-0.5,7.4-2c-7.3-2-14.5,0.4-21.7,0.4l0,0c-10.4,2.2-20.9,4-31.1,6.8c-18.5,5.1-36.2,12.2-53.9,19.6
	c-1.6,0.7-3.3,1.4-4.9,2.1c-4.1,1.6-8.5,3.6-12.1-0.4s-3.5-8.7-1.1-13.3c5.3-11.9,14.5-20.1,25.4-26.5c14.4-8.4,30.3-11.6,46.7-13
	c16.3-1.3,32.2,0.5,48.1,3.6c7.7,1.5,15.5,1.6,23.4,1.2c1.5-0.1,3-0.1,4.5-1.4c-1.5-2-3.6-1.4-5.5-1.4c-22-0.2-42.9-4.9-62.7-14.4
	c-7.3-3.5-14-8-20.2-13.2c-1.7-1.5-2.4-2.6-1-4.8c1.1-1.5,1.6-3.5,2.3-5.2c0.4-1.1,1.3-2.6-0.2-3.2s-1.9,1-2.4,2.1
	c-0.2,0.5-0.5,1-0.8,1.4l0,0l0,0c-3.5,9.3-11.1,12.8-20.1,14c-13.6,1.7-26.5-1.7-38.6-7.4c-36.1-17.2-61.5-43.8-72.6-83
	c-1.1-3.8-2.1-7.7-2-11.7c-1.9-11.8-1.9-23.5,1.9-35c6-18.3,23.5-28.1,43.4-24.8c20.5,3.4,36.4,14.7,49.8,29.8
	c17.5,19.7,27.4,43.1,31.7,68.9c0.3,1.8,0,5.2,2.3,4.8c2.1-0.4,0.9-3.5,0.6-5.5c-1.5-12.6-4.6-24.8-9.6-36.4
	c-0.7-1.6-0.5-2.8,0.3-4.2c12.2-21.7,29-38.6,51-50.5c3-1.6,4.2,0.8,6.3,1c0.1-3.1-2-5.3-3.3-7.8c-3.6-6.8-7.8-13.2-12.5-19.3
	c-0.8-1.1-1.9-2-2-4c6.5,0.8,12.5,2.8,18.3,5.1c1.3,0.5,1.1,2.1,1.4,3.2c0.4,1.4,0.4,2.9,2,3.9c-1.4-20.5-5.8-40.4-11-60.3
	c-0.6-1.8-1.6-3.5-0.8-5.7c5.5,2.3,9.9,6.1,14,10.1c14.1,13.8,24.2,30.4,32.5,48.2c0.9,1.9,0.9,4,0.9,6.1c0,2.6,0,5.3,0,9.1
	c2.8-3.9,3.3-8.4,2.7-20.5c-0.4-6.5-1.1-13-1.1-19.7c11.3,13.7,15.3,30.7,20.4,47.2c1.3-4.3-0.7-8.3-0.7-12.7
	c15.1-0.9,30,0,44.7,3.9c19.7,5.2,37.5,14.1,52.1,28.5C654.7,257.1,657,306.8,628.9,340.4z M648.7,257.5c-3.2-9.7-7.6-19-14.6-26.4
	c-4.6-4.8-5.2-9.4-3-15.1l0,0c2.5-9.6,5.9-18.9,12.1-26.7c3-3.8,6.5-7.7,11.9-6.5s6.5,6.2,7.6,10.8c1.3,5.8,2.2,11.6,1.3,17.5
	c0,0.7-0.1,1.4-0.4,2c-0.9,16.6-5.8,31.9-13.5,46.6C648.8,259.4,649,258.3,648.7,257.5z M652.1,270.5c-1.6-3.6-1.2-6.8,0.9-10.4
	c11.3-19.3,16.6-40.1,14.7-62.6c-0.4-4.8-1.7-9.4-4-13.7c-3.8-6.9-9.6-8.3-16.2-4c-4.1,2.7-7.1,6.4-9.7,10.5
	c-5.3,8.5-8.5,17.8-10.4,27.5c-0.3,1.3-0.2,2.7-1.3,4c-2-1.7-4-3.4-6-5c-9.4-7.4-19.8-13.3-31-17.6c-1.8-0.7-3.5-1.1-2.5-4
	c6.3-18.8,15.1-36.2,30-49.8c5.1-4.7,10.9-8.3,17.4-10.7c12.6-4.6,24.5-1.1,32.4,9.7c5.8,8,9,17.2,10.4,26.9l0,0
	c2.6,9.9,2.8,20.1,2.2,30.2c-1.5,24.4-7.3,47.6-19,69.2c-1.8,3.3-3.7,6.4-5.6,9.6c-0.2,0.3-0.6,0.5-1.2,1.1
	C652.8,277.7,652.5,274.1,652.1,270.5z"/>
<path class="st1" d="M571.3,198c-14.7-3.9-29.6-4.9-44.7-3.9c0,4.4,2,8.4,0.7,12.7c-5.2-16.5-9.1-33.5-20.4-47.2
	c0.1,6.7,0.8,13.2,1.1,19.7c0.7,12.1,0.1,16.6-2.7,20.5c0-3.8,0-6.4,0-9.1c0-2.1,0-4.1-0.9-6.1c-8.3-17.7-18.4-34.4-32.5-48.2
	c-4.1-4-8.5-7.7-14-10.1c-0.9,2.2,0.2,3.9,0.8,5.7c4,5.6,6,12.2,8.5,18.5c5.1,13.1,9.9,26.4,12.3,40.3c1,5.7,1.6,11.8-3,16.7
	c-2.2,2.4-4.6,3.7-7.9,2.9c-1-0.3-1.9,0.3-2.7,0.6c-2.1-0.2-3.3-2.6-6.3-1c-22,11.8-38.9,28.7-51,50.5c-0.8,1.4-1,2.6-0.3,4.2
	c5,11.6,8.1,23.8,9.6,36.4c0.2,1.9,1.4,5.1-0.6,5.5c-2.3,0.4-2-3-2.3-4.8c-4.4-25.8-14.3-49.2-31.7-68.9
	c-13.4-15.1-29.2-26.4-49.8-29.8c-19.9-3.3-37.4,6.6-43.4,24.8c-3.8,11.4-3.8,23.2-1.9,35c5.2,12.9,10.9,25.6,19.2,37
	c15.4,21.2,33.9,39,57.7,50.5c12,5.8,24.6,9.1,38.1,8c6.8-0.6,13-2.9,18.4-7.3l0,0c0.3-0.5,0.6-0.9,0.8-1.4c0.5-1.1,0.9-2.7,2.4-2.1
	s0.7,2.1,0.2,3.2c-0.7,1.8-1.3,3.7-2.3,5.2c-1.4,2.1-0.8,3.3,1,4.8c6.2,5.2,12.9,9.7,20.2,13.2c19.8,9.5,40.7,14.2,62.7,14.4
	c1.8,0,4-0.6,5.5,1.4c-1.5,1.3-3,1.4-4.5,1.4c-7.8,0.4-15.7,0.3-23.4-1.2c-15.9-3-31.9-4.9-48.1-3.6c-16.4,1.3-32.3,4.6-46.7,13
	c-11,6.4-20.1,14.6-25.4,26.5c0.6,7.7,5.3,11,12.6,8.5c8.1-2.8,16-6.2,24.1-9.1c14.5-5.1,29.3-9.3,44.5-11.7
	c7.2-1.2,14.4-2.9,21.9-2.4l0,0l0,0c7.2-0.1,14.4-2.4,21.7-0.4c-2.3,1.5-4.9,1.7-7.4,2c-6.6,1-13.5,0.6-19.6,3.9
	c-10.4,5.7-18.9,13.7-24.9,23.9c-7.7,12.9-8.9,26.5-3,40.5c3.8,9,9.7,16.8,14,25.5c5.4,5.5,8.8,12.4,12.5,19c2.5,4.4,4.5,9,6.6,13.6
	c0.6,1.2,1.1,1.9,2.4,1.1l0,0c3-7.8,6.6-15.4,12-21.9c1.4-1.7,0.9-2.8,0-4.3c-4.8-8-8.8-16.4-12.6-24.9c-2.6-5.8-2.9-11.5-1.1-17.6
	c7.3-25.1,25-40.5,48-50.8c4.9-2.2,10.3-2.9,15.7-2.2c5.8,0.8,10,3.7,12.4,10.4c2.3-10.9,2.7-20.6,2.4-30.3c0-1.4-0.1-2.8,0-4.1
	c0.1-0.6,0.5-1.5,1-1.6c1-0.2,1.3,0.7,1.5,1.5c0.3,1.9,0.5,3.8,0.8,5.7c7.6,1.5,15.2,3.6,22.9,3.2c24.8-1.1,47.4-7.9,65.8-25.7
	c0.6-0.5,1.3-0.9,2-1.4l0,0l0,0c5.1-6.8,8.2-14.5,9.8-22.8c1-4.8,1.3-9.5-0.1-14.3c-1.1-4-3.4-5-7.2-3.5c-4,1.6-7.5,4.1-10.2,7.4
	c-19.7,23.5-45.1,37.5-75,43.5c-6.3,1.3-12.7,2-19.1,2.8c-1.4,0.2-3.7,0.9-4-0.9c-0.3-2.1,2.1-1.5,3.4-1.7c3.1-0.6,6.2-0.9,9.3-1.4
	c32.6-5.6,60.5-19.7,82-45.4c28.1-33.6,25.8-83.3-5.5-114C608.8,212.1,591,203.2,571.3,198z M395.9,352.8
	c-10.7-0.7-20.4-4.5-28.8-10.9c-15.6-11.9-28-26.2-33.2-45.6c-1.8-6.9-1.9-13.8-0.5-20.8c2.5-11.7,12.3-17.9,24-15.2
	c12.4,2.9,22.1,10,30.1,19.6c14.2,17.3,21.9,37.1,22.3,54.8C410.1,351.2,407.7,353.5,395.9,352.8z M638.8,257
	c9.6,27.1,5.6,52.7-11.6,75.9c-15.7,21.2-37.7,33-62.7,39.6c-17,4.5-34.4,7-52,7c-18.8,0.1-36.9-2.8-53.5-12.1
	c-24-13.4-37.9-42.7-33.2-69.4c4.5-25.7,26.9-41.9,53.1-38.7c9.6,1.2,19.1,3.4,28.9,3.8c23.6,1,44.4-6.8,63.6-19.9
	c6.9-4.8,13.8-9.5,22.2-11.3C613.1,227.7,631.9,237.5,638.8,257z"/>
<path class="st2" d="M132.1,307.2c11.9,14.4,26.8,23.8,45.2,26.6c23.7,3.7,45.3-1.9,64.5-16.4c15.1-11.4,24-26.6,26.5-45.4l0,0l0,0
	c-2-14.4-8.5-26.4-19.7-36.5c-0.1,1.3-0.2,2-0.2,2.7c-0.1,0.8-0.4,1.3-1.1,1.5c-1.2-0.9-1.1-2.4-1.4-3.7c-1.6-8.4-0.2-16.6,1.9-24.7
	c-3.3-5.6-7.7-9.8-14.1-11.6c-4.1,8.3-8.1,16.7-17.6,21.6c2.9-3.7,0.7-4.1-1.8-4.5c-1.8-0.3-3.4-0.9-5.2-1.1
	c-6.6-0.9-13.2-1.8-19.7-0.5c-0.1,1.6,2,2,1.1,3.7c-3.4-0.5-5.3-3-7.3-5.3c-4.4-5.2-6.6-11.6-8.9-17.9c-6.3-0.3-12.1,1.2-17.2,4.9
	c4.2,16.2,3.2,29.6-2.7,33.7c-0.9-2.6,1.6-4.8,0.8-7.4c-7.4,4.1-16.4,12.2-20,17.9c1.8-0.3,3.6-1.1,5.5-0.1c-1.2,1.8-3,2.2-4.6,2.7
	c-10,3.3-19.1,0.8-27.6-4.8c-3.1,2.4-2.5,6.2-3.2,9.4c-0.4,2.1-0.2,4.3-0.2,6.4c1.2,0.8,2.5,1.7,3.7,2.5c5.8,3.9,11.4,8.1,15.1,14.2
	c0.8,1.4,2.9,3.4,1.2,4.5c-1.7,1.1-1.9-2-3.1-2.8c-0.2-0.1-0.4-0.1-1-0.3c0.1,4.7-0.6,9.3,0.7,13.8c0.2,0.3,0.3,0.5,0.5,0.8
	C125.2,296.6,128,302.3,132.1,307.2z"/>
<path class="st1" d="M206.1,381.7c-0.1,0.6-0.3,1.1-0.4,1.7C205.9,382.9,206.1,382.3,206.1,381.7z"/>
<path class="st1" d="M310.6,539.2c10.6-0.8,21.1-2.6,31.4-5.1c27.6-6.6,53-17.9,75.8-34.9c4.7-3.5,9-7.5,13.5-11.2l0,0
	c-2-4.7-4-9.4-5.3-14.7c-21.4,20.5-46.1,34.1-74.2,41.5c-31,8.2-62,9-92.5-2.8c-25.4-9.9-43.8-26.7-51.6-53.5
	c-4.6-15.5-5.9-31.4-5-47.6c0.5-9.2,1.9-18.3,2.9-27.4c-0.1-4.7-3.4-7-6.6-9.6c-4.4-3.5-9-6.5-14.8-7c-3.2,12.8-4.7,25.9-5.5,39
	c-1.5,26.9,1.3,53.2,12.9,77.9c12.4,26.4,32.4,44,60.7,52c6.1-0.2,11.8,2,17.7,2.7C283.6,540.2,297.1,540.2,310.6,539.2z"/>
<path class="st1" d="M655.5,266c9.7-17.7,16.6-36.4,19-56.6c1.5-12.6,2.3-25.2,2.4-37.9l0,0l0,0c-1.4-9.8-4.5-18.9-10.4-26.9
	c-7.9-10.9-19.8-14.4-32.4-9.7c-6.5,2.4-12.3,6.1-17.4,10.7c-15,13.6-23.7,30.9-30,49.8c-1,2.9,0.7,3.3,2.5,4
	c11.2,4.3,21.5,10.2,31,17.6c2,1.6,4,3.3,6,5c1.2-1.3,1.1-2.7,1.3-4c1.9-9.8,5.1-19,10.4-27.5c2.6-4.1,5.6-7.8,9.7-10.5
	c6.6-4.3,12.4-2.9,16.2,4c2.4,4.3,3.6,8.9,4,13.7c1.9,22.4-3.4,43.3-14.7,62.6c-2.1,3.6-2.5,6.7-0.9,10.4
	C653.8,269.5,654.6,267.7,655.5,266z"/>
<path class="st2" d="M523.5,514.8c-0.7,7.1-3.1,13.6-7.7,20c-1-2.5,0.1-3.9,0.7-5.3c2.4-6.3,4.2-12.7,3.8-19.6c-0.5-8-5-10.9-12.6-8
	c-1,0.4-2.1,0.8-3,1.3c-23.3,14.2-34.3,35.5-36.3,62.1c4.1,4.7,8.9,8.4,15.2,9.8c12,2.8,22.6-0.5,32.4-7.6
	c8.5-6.1,12.9-15,17.2-24.1c0.3-0.7,0.3-1.7,1.2-2c2.5-9.8,2.5-19.5-1-29c-1.5-4.1-3.8-7.6-8.2-9.2c-0.9-0.3-2-0.9-2.7,0
	c-0.3,0.4,0,1.5,0.2,2.2C523.9,508.5,523.9,511.7,523.5,514.8z"/>
<path class="st2" d="M162.3,178.1c9.1-1.9,16.3-7.3,22.7-13.8c3.2-14.4-4.6-30.1-18.2-36.5c-14.7-7-32.9-3.5-42.1,8
	c-9.2,11.6-11.4,26.1-5.5,36.8C132.6,181.9,147.3,181.3,162.3,178.1z"/>
<path class="st3" d="M263.6,312.8c6.3-13,8-26.6,4.7-40.8l0,0c-2.5,18.8-11.4,34-26.5,45.4c-19.1,14.5-40.8,20.1-64.5,16.4
	c-18.4-2.9-33.4-12.3-45.2-26.6c-4.1-4.9-6.9-10.6-10.1-16.1c-0.2-0.3-0.3-0.5-0.5-0.8c0.3,8.4,2.8,16.2,6.5,23.6
	c12.4,24.6,32.6,37.4,59.9,40.3C220.1,357.5,249.6,341.9,263.6,312.8z"/>
<path class="st2" d="M532.3,422.7c-5-1.4-9.9-0.5-14.4,1.4c-15.8,6.6-28.6,17-38.6,30.8c-4.8,6.6-8.2,13.9-9.3,22
	c0,0.3-0.1,0.5-0.1,0.8c-0.3,3.7,1.8,4.6,5.6,4.5c20.8-0.5,38.5-8.3,54.3-21.5c0.7-0.6,1.3-1.5,2.3-1.5l0,0l0,0
	c4.4-6.5,7.2-13.8,9.3-21.3C543.3,431.5,538.8,424.5,532.3,422.7z"/>
<path class="st2" d="M104.2,226.9c0-12.7-7.6-24-19.4-28.8c-11.6-4.7-26.7-1.5-35.6,7.7c-8.6,8.8-10.9,21.9-5.8,33.5
	c6.6,4.9,14,8,22.2,8.2C82.3,247.9,96.1,242.6,104.2,226.9z"/>
<path class="st2" d="M539.6,535.4c-1,8.4-3.9,16.2-6.3,24.2c14.7,7.2,29-1.8,37.2-11.4c3-3.6,4.8-7.9,7.5-11.6
	c2.7-8.6,3.1-17.5,2.4-26.4c-0.5-5.9-1.9-11.7-5.5-16.6c-2-2.7-4.3-5.1-8.4-4.6c7.1,13.5,1.3,36.1-4.9,40.7
	c-0.1-0.4-0.3-0.9-0.2-1.2c0.3-1.3,0.8-2.6,1.2-3.9c3.2-9,5.2-18.2,2.9-27.8c-2.2-9.1-8.5-11.7-16.3-6.5c-5.9,3.9-9.6,9.7-12.9,15.7
	c-0.7,1.3-0.3,2.3,0.2,3.5C540.2,517.8,540.7,526.5,539.6,535.4z"/>
<path class="st2" d="M272,180c5.1-3.2,8.9-7.9,11.8-13.3c0-8.1-3.2-15-8.6-20.7c-10.4-11-28.9-11.8-41.7-2.2
	c-11.8,8.9-14.9,27.3-7.1,40.9C242.6,192.4,257.7,189.1,272,180z"/>
<path class="st4" d="M431.4,488L431.4,488c-4.5,3.8-8.9,7.7-13.5,11.2c-22.8,17-48.2,28.3-75.8,34.9c-10.3,2.5-20.8,4.3-31.4,5.1
	c-13.5,1-27,1-40.5-0.7c-6-0.7-11.7-2.9-17.7-2.7c0.6,0.3,1.2,0.6,1.8,0.8c24.7,7.3,49.9,8,75.3,5c37.2-4.3,71.2-16.9,101.5-39.1
	c6.6-4.9,6.7-4.8,2.2-11.9C432.6,489.7,432,488.9,431.4,488z"/>
<path class="st2" d="M664.1,211c-0.1,0.7-0.2,1.3-0.4,2C664,212.4,664.1,211.7,664.1,211z"/>
<path class="st2" d="M663.6,206.5c0.3-3.3-1.4-4.4-4.4-4.3c-8.4,0.2-15.6,3.3-22,8.6c-2.1,1.7-3.4,4.3-6.1,5.2l0,0l0,0
	c-2.3,5.7-1.6,10.3,3,15.1c7,7.4,11.4,16.7,14.6,26.4c0.3,0.8,0.1,1.9,1.5,2.1c7.6-14.6,12.5-30,13.5-46.6
	C663.7,210.9,663.5,208.7,663.6,206.5z"/>
<path class="st4" d="M365,350.5c-23.9-11.5-42.3-29.2-57.7-50.5c-8.3-11.4-14-24-19.2-37c-0.1,4,1,7.9,2,11.7
	c11.1,39.1,36.5,65.8,72.6,83c12.1,5.8,25,9.2,38.6,7.4c9-1.1,16.6-4.7,20.1-14l0,0c-5.3,4.5-11.6,6.8-18.4,7.3
	C389.6,359.7,377,356.3,365,350.5z"/>
<path class="st3" d="M533.2,543.5c-4.3,9-8.7,18-17.2,24.1c-9.8,7-20.4,10.4-32.4,7.6c-6.2-1.5-11-5.2-15.2-9.8
	c-0.6,3.4-0.3,6.9,0.1,10.2c2.6,20.9,17,27.9,34.8,16.6c18.5-11.8,26.8-30.1,31.2-50.7C533.5,541.9,533.6,542.8,533.2,543.5z"/>
<path class="st3" d="M533.3,559.6c-1.5,3.2-3,6.4-4.6,9.5c-2.8,5.5-2.6,6.6,1.8,10.8c2.4,2.3,5.2,3.4,8.5,3.6c6.5,0.4,12.1-2.1,17-6
	c13-10.5,19.2-24.8,22-40.9c-2.7,3.8-4.4,8.1-7.5,11.6C562.3,557.8,548,566.8,533.3,559.6z"/>
<path class="st3" d="M174.3,195.6c-0.3-2.1-0.7-4.3-1.1-6.6c-0.8,0.2-1.4,0.4-2,0.5s-1.3,0.4-1.9-1.1c8.3-5.9,14.3-13.6,15.6-24.2
	c-6.4,6.5-13.5,11.9-22.7,13.8c-15,3.2-29.7,3.8-43.1-5.6c4.4,10.2,12.4,16.4,22.7,19.8c4.1,1.4,8.3,1.2,12.6,0.9
	c0.9-0.1,3.5,0,2.3,1.3c-2.8,2.7-0.1,4.1,0.4,6.1C162.2,196.8,168,195.3,174.3,195.6z"/>
<path class="st3" d="M105.2,251.9c0.7-3.2,0-7,3.2-9.4c-2.1-3.7-3.8-0.9-5.8,0.6c0.7-5.6,2.7-10.8,1.7-16.3
	c-8.1,15.8-22,21-38.7,20.6c-8.3-0.2-15.6-3.3-22.2-8.2c0.1,0.7,0.2,1.4,0.4,2c6.6,19.1,35,25.5,49.8,12c1.3-1.2,2.4-2.9,4.4-3.1
	c0.6,2.2-1.5,3-1.7,4.7c2.9,1.2,5.8,2.4,8.7,3.6C105.1,256.2,104.8,254,105.2,251.9z"/>
<path class="st5" d="M468.6,210.6c3.3,0.8,5.7-0.6,7.9-2.9c4.6-4.9,4-11,3-16.7c-2.4-13.9-7.1-27.2-12.3-40.3
	c-2.5-6.3-4.5-12.9-8.5-18.5c5.2,19.8,9.6,39.8,11,60.3c-1.6-0.9-1.6-2.5-2-3.9c-0.3-1.2-0.1-2.7-1.4-3.2
	c-5.9-2.4-11.8-4.4-18.3-5.1c0.1,2,1.2,2.9,2,4c4.7,6.1,8.9,12.5,12.5,19.3c1.3,2.5,3.4,4.7,3.3,7.8
	C466.8,210.9,467.6,210.3,468.6,210.6z"/>
<path class="st3" d="M247.7,211.3c1.7-3.2,3.3-6.4,5-9.8c-1.5-0.4-3.2,0.1-4.8-2.8c10,1.4,18.3-1.6,25.2-7.8
	c7.2-6.4,11.3-14.3,10.6-24.2c-2.9,5.4-6.7,10-11.8,13.3c-14.3,9.1-29.4,12.4-45.6,4.8c2.2,5.3,7.1,8.2,11.1,12.1
	c-2.3-0.1-3.9,0.3-3.9,2.8C240.1,201.5,244.4,205.7,247.7,211.3z"/>
<path class="st3" d="M529.8,460.8c-15.7,13.2-33.5,21-54.3,21.5c-3.9,0.1-5.9-0.8-5.6-4.5c0-0.3,0-0.5,0.1-0.8
	c-1.3,2.6-0.7,5.1,0.3,7.5c1.2,3.2,2.8,6.2,4.1,9.4c0.8,2.1,2,2.8,4.4,2.4c24.2-3.3,41.5-16.2,53.5-37.1l0,0
	C531,459.3,530.5,460.2,529.8,460.8z"/>
<path class="st4" d="M637.9,378.2c-18.3,17.8-41,24.6-65.8,25.7c-7.8,0.3-15.3-1.7-22.9-3.2c0,2.2,0,4.4-0.1,6.6
	c-0.1,2,0.6,3,2.7,3.3c16.5,2.2,32.9,2.3,48.8-3.4c16.3-5.8,29.9-15.4,39.3-30.3l0,0C639.2,377.3,638.5,377.6,637.9,378.2z"/>
<path class="st3" d="M637.3,210.8c6.4-5.3,13.6-8.4,22-8.6c3-0.1,4.6,1,4.4,4.3c-0.2,2.2,0,4.4,0.1,6.5c0.2-0.7,0.3-1.3,0.4-2
	c0.9-5.9,0-11.7-1.3-17.5c-1-4.6-2.2-9.6-7.6-10.8c-5.5-1.2-9,2.8-11.9,6.5c-6.2,7.9-9.7,17.1-12.1,26.7l0,0
	C633.9,215.1,635.2,212.5,637.3,210.8z"/>
<path class="st5" d="M654.4,280.5c1.9-3.2,3.9-6.3,5.6-9.6c11.7-21.6,17.6-44.8,19-69.2c0.6-10.1,0.3-20.3-2.2-30.2l0,0
	c0,12.7-0.9,25.3-2.4,37.9c-2.4,20.2-9.3,38.9-19,56.6c-0.9,1.6-1.7,3.5-3.4,4.5c0.4,3.6,0.7,7.2,1.1,11.1
	C653.8,281,654.2,280.8,654.4,280.5z"/>
<path class="st5" d="M445,413.8c-15.2,2.5-30,6.6-44.5,11.7c-8.1,2.9-16,6.3-24.1,9.1c-7.4,2.5-12.1-0.8-12.6-8.5
	c-2.4,4.7-2.5,9.4,1.1,13.3c3.7,4,8,2,12.1,0.4c1.6-0.6,3.3-1.4,4.9-2.1c17.6-7.4,35.4-14.5,53.9-19.6c10.3-2.8,20.8-4.6,31.1-6.8
	l0,0C459.5,410.9,452.3,412.6,445,413.8z"/>
<path class="st5" d="M205.7,383.5c0.1-0.6,0.3-1.1,0.4-1.7c1.6-7,3.1-14,4.7-21c0.5-2.1-0.3-2.4-2-2.1c-5.4,0.7-10.9,1-16.4,0.8
	c-7.1-0.3-7.1-0.2-8.2,7.1c0,0.1,0,0.3,0,0.4c5.8,0.5,10.4,3.5,14.8,7C202.3,376.4,205.6,378.8,205.7,383.5z"/>
<path class="st6" d="M511.4,487.9c-6.1,4.1-12.7,6.9-19.7,9c-1,0.3-2,0.4-1.3,1.8c1.2,2.1,2,4.9,3.8,6.2c1.4,1,3-1.7,4.7-2.5
	c1.6-0.8,3-1.9,4.6-2.7c4.9-2.3,9.9-4.3,15.1-0.8c1,0.7,2.1,0.3,3.3-0.6c-2.7-3.3-5.3-6.6-7.9-9.9
	C513.3,487.4,512.7,487.1,511.4,487.9z"/>
<path class="st5" d="M466.7,539.6c-2.1-4.6-4.1-9.2-6.6-13.6c-3.7-6.6-7-13.5-12.5-19c6.2,15,12.9,29.9,17.9,46.2
	c1.3-4.6,2.5-8.5,3.6-12.5l0,0C467.8,541.4,467.3,540.8,466.7,539.6z"/>
<path class="st0" d="M593.5,231.9c-8.4,1.8-15.2,6.6-22.2,11.3c-19.1,13.2-39.9,20.9-63.5,19.9c-9.8-0.4-19.3-2.6-28.9-3.8
	c-26.2-3.2-48.6,13-53.1,38.7c-4.7,26.8,9.3,56,33.2,69.4c16.6,9.3,34.7,12.2,53.5,12.1c17.7,0,35-2.5,52-7
	c25-6.6,47-18.4,62.7-39.6c17.2-23.1,21.2-48.8,11.6-75.9C631.9,237.5,613.1,227.7,593.5,231.9z M633.9,256.4
	c4.2,9.3,5.2,19.2,5.6,30c-0.3,26-12.7,46.4-33.2,62.4c-17.3,13.5-37.5,20-58.8,23.7c-18.3,3.2-36.7,4.7-55.2,1.8
	c-10.1-1.6-19.8-4.4-28.8-9.2c-23.8-12.5-37.6-40.8-32.9-67.1c4.1-22.7,25.7-37.7,49.8-34.6c9.2,1.2,18.4,3.3,27.7,3.6
	c24.9,0.8,46.7-7.7,66.6-21.9c7.4-5.3,15.2-9.4,24.4-10C614.4,234.2,627.5,242.2,633.9,256.4z"/>
<path class="st0" d="M387.6,279.9c-7.9-9.6-17.7-16.7-30.1-19.6c-11.7-2.7-21.6,3.5-24,15.2c-1.5,6.9-1.4,13.9,0.5,20.8
	c5.2,19.5,17.7,33.8,33.2,45.6c8.4,6.4,18.1,10.2,28.8,10.9c11.8,0.8,14.1-1.6,13.9-18.1C409.4,317,401.8,297.2,387.6,279.9z
	 M406.7,343.5c-0.1,4.3-1.8,5.9-6.1,6.1c-9.3,0.4-17.9-2.1-25.7-7.1c-15.4-9.8-26.5-23.4-34-40c-0.5-1.2-0.8-2.6-1.1-3.9
	c-3.1-7.1-3.3-14.6-2-22.1c1.6-8.4,9.3-13,18-11.3c7.9,1.5,14.8,5,20.7,10.3c10.8,9.5,18.2,21.4,23.4,34.7
	C404.7,320.7,406.9,331.9,406.7,343.5z"/>
<path class="st2" d="M599.1,235.2c-9.2,0.6-17,4.7-24.4,10c-19.9,14.2-41.8,22.8-66.6,21.9c-9.4-0.3-18.5-2.4-27.7-3.6
	c-24.1-3.2-45.7,11.8-49.8,34.6c-4.7,26.4,9.1,54.6,32.9,67.1c9,4.8,18.8,7.6,28.8,9.2c18.5,3,36.9,1.5,55.2-1.8
	c21.3-3.7,41.5-10.3,58.8-23.7c20.5-16,32.9-36.4,33.2-62.4c-0.3-10.8-1.3-20.7-5.6-30C627.5,242.2,614.4,234.2,599.1,235.2z
	 M478.1,340.5c-16.3-0.1-29.5-13.5-29.5-30.1c0-16.4,13.8-29.9,30.3-30c16.6,0,29.2,13.2,29.1,30.6C508,327.8,495,340.6,478.1,340.5
	z M602,326.3c-2.4,6.5-6.9,11.5-12.1,15.8c-16.1,13.4-35,18.8-55.6,19.1c-6.9,0-13.7-0.8-20.4-2.5c-3.2-0.8-6.3-2-9.1-3.8
	c-5.1-3.2-7.2-7.7-6-12.4c1.2-4.4,5.8-7.6,11.4-7.9c5.4-0.2,10.6,1.3,15.9,1.9c21.4,2.6,39.7-4.2,55.5-18.4c2-1.7,3.9-3.5,6.3-4.6
	c4.2-2,9.3-1.5,12,1.2C603.2,318.1,603.5,322.1,602,326.3z M628,281.1c-0.1,15-11.9,26.4-27.3,26.5c-16.7,0.1-28.8-12.1-28.8-28.8
	c0-15.4,12.1-27.4,27.9-27.5C615.9,251.1,628.1,264,628,281.1z"/>
<path class="st2" d="M352.1,293.6c-4.7,0.1-8.6,2.3-12.3,5c0.4,1.3,0.6,2.7,1.1,3.9c7.5,16.6,18.6,30.2,34,40
	c7.8,5,16.4,7.5,25.7,7.1c4.3-0.2,6-1.8,6.1-6.1c0.2-11.6-2-22.8-6.7-33.5C386.3,297.8,370.1,293.2,352.1,293.6z"/>
<path class="st3" d="M400,310.1c-5.2-13.3-12.6-25.1-23.4-34.7c-6-5.3-12.8-8.8-20.7-10.3c-8.8-1.6-16.5,2.9-18,11.3
	c-1.4,7.4-1.1,14.9,2,22.1c3.7-2.6,7.6-4.9,12.3-5C370.1,293.2,386.3,297.8,400,310.1z"/>
<path class="st0" d="M588,313.6c-2.4,1.1-4.3,2.9-6.3,4.6c-15.8,14.1-34.1,21-55.5,18.4c-5.3-0.6-10.5-2.2-15.9-1.9
	c-5.6,0.2-10.2,3.4-11.4,7.9c-1.3,4.7,0.9,9.2,6,12.4c2.8,1.8,5.9,2.9,9.1,3.8c6.7,1.7,13.5,2.5,20.4,2.5
	c20.6-0.4,39.5-5.7,55.6-19.1c5.2-4.3,9.8-9.3,12.1-15.8c1.5-4.1,1.2-8.2-2.1-11.5C597.2,312.1,592.1,311.6,588,313.6z M525.1,342.8
	c-0.3,1.8-0.2,3.5-0.3,5.3l0,0c0,0.8-0.1,1.6-0.1,2.5c-0.4,7.3-0.4,7.3-7.8,5.6c-3.6-0.8-7-2.1-10.2-4.1c-3.4-2.2-4.8-5.2-3.7-9.1
	c1-3.7,3.7-5,7.5-5s7.6,0.3,11.4,0.7C524.9,339,525.5,340.2,525.1,342.8z M539.5,357.7c-1.6,0.1-3.3,0-4.9,0c-8,0.2-8,0.2-7.1-7.8
	c0-0.4,0.1-0.8,0.1-1.2c0.4-2.9-1-6.9,1-8.6c1.7-1.4,5.5-0.4,8.3-0.4c0.5,0,1.1,0,1.6,0c6.8-0.2,6.8-0.2,7.9,6.4
	c0.1,0.8,0.2,1.6,0.3,2.4C548.3,357.1,548.3,357.1,539.5,357.7z M569.2,350.8c-5.3,2.1-10.8,3.7-16.5,5c-1.4,0.3-2.4,0.4-2.6-1.4
	c-0.7-4.6-1.4-9.2-2-13.8c-0.2-1.3,0.3-2.1,1.6-2.4c4.5-0.8,8.8-2.2,12.9-4c1.7-0.8,2.2,0.1,2.7,1.4c1.8,4.1,3.4,8.3,5.4,12.4
	C571.5,349.8,570.6,350.3,569.2,350.8z M583.4,343c-3.1,2.2-6.3,4.3-10,5.7c-2-4.9-3.8-9.7-5.8-14.4c-0.7-1.7-0.3-2.4,1.2-3.2
	c3.1-1.8,6.1-3.6,8.9-5.8c1.6-1.2,2.4-1.2,3.4,0.6c1.4,2.8,3,5.5,4.5,8.3C588.4,339.5,588.3,339.5,583.4,343z M598,326.5
	c-1.8,4.2-4.6,7.7-8.1,11c-2.5-4.6-4.9-9-7.2-13.2c-0.5-0.9-1.2-1.7-0.3-2.5c2.7-2.3,5.1-5.1,8.7-5.9c2.4-0.5,4.7-0.1,6.2,2.1
	C599.3,320.6,599.3,323.6,598,326.5z"/>
<path class="st0" d="M508,311.1c0-17.5-12.5-30.7-29.1-30.6c-16.5,0-30.3,13.6-30.3,30c0,16.6,13.1,30,29.5,30.1
	C495,340.6,508,327.8,508,311.1z M478.9,337.2c-14.9-0.1-26.8-12.3-26.5-27.3c0.2-14.5,12.3-26.3,26.8-26.1
	c14.3,0.2,25.8,12.1,25.7,26.7C504.8,325.4,493.3,337.2,478.9,337.2z"/>
<path class="st0" d="M571.8,278.7c0,16.7,12.2,28.9,28.8,28.8c15.4-0.1,27.2-11.5,27.3-26.5c0.1-17.1-12.1-30-28.3-29.9
	C583.9,251.3,571.8,263.3,571.8,278.7z M624.9,280.4c0,13.5-10.6,24-23.9,24c-15,0-25.6-10.8-25.5-26.2c0-13.3,10.8-24.1,24-24.1
	C613.5,254.1,624.9,265.9,624.9,280.4z"/>
<path class="st7" d="M521.9,338.7c-3.8-0.4-7.6-0.7-11.4-0.7c-3.7,0-6.4,1.3-7.5,5c-1.1,3.9,0.3,6.9,3.7,9.1c3.1,2,6.6,3.2,10.2,4.1
	c7.4,1.7,7.4,1.7,7.8-5.6c0-0.8,0.1-1.6,0.1-2.5l0,0c0.1-1.8,0.1-3.6,0.3-5.3C525.5,340.2,524.9,339,521.9,338.7z"/>
<path class="st7" d="M546.5,346.1c-1.1-6.6-1.1-6.6-7.9-6.4c-0.5,0-1.1,0-1.6,0c-2.9,0-6.6-1-8.3,0.4c-2.1,1.7-0.6,5.6-1,8.6
	c0,0.4-0.1,0.8-0.1,1.2c-0.9,8-0.9,8,7.1,7.8c1.6,0,3.3,0.1,4.9,0c8.8-0.6,8.8-0.6,7.3-9.2C546.7,347.7,546.6,346.9,546.5,346.1z"/>
<path class="st7" d="M565.3,335.5c-0.5-1.3-1-2.1-2.7-1.4c-4.1,1.9-8.4,3.2-12.9,4c-1.3,0.3-1.8,1-1.6,2.4c0.7,4.6,1.4,9.2,2,13.8
	c0.3,1.8,1.2,1.7,2.6,1.4c5.6-1.2,11.1-2.8,16.5-5c1.4-0.6,2.3-1,1.4-2.9C568.7,343.9,567,339.7,565.3,335.5z"/>
<path class="st7" d="M581.1,326c-0.9-1.8-1.8-1.8-3.4-0.6c-2.8,2.1-5.8,4-8.9,5.8c-1.5,0.9-1.9,1.5-1.2,3.2c2,4.7,3.9,9.6,5.8,14.4
	c3.6-1.5,6.8-3.5,10-5.7c5-3.5,5-3.5,2.2-8.8C584.1,331.5,582.5,328.8,581.1,326z"/>
<path class="st7" d="M591.1,315.9c-3.7,0.8-6.1,3.5-8.7,5.9c-1,0.8-0.2,1.7,0.3,2.5c2.4,4.3,4.7,8.6,7.2,13.2
	c3.5-3.3,6.3-6.8,8.1-11c1.3-2.9,1.3-5.9-0.7-8.6C595.8,315.8,593.6,315.4,591.1,315.9z"/>
<path class="st7" d="M479.1,283.8c-14.5-0.2-26.6,11.6-26.8,26.1c-0.2,15,11.7,27.2,26.5,27.3c14.5,0.1,26-11.7,26-26.7
	C504.9,295.9,493.4,283.9,479.1,283.8z M478.6,327.6c-9.6-0.1-17.6-8.3-17.5-18.1c0-9.6,8.1-17.5,17.7-17.4s17.7,8.5,17.6,18.1
	C496.2,319.9,488.3,327.7,478.6,327.6z"/>
<path class="st7" d="M575.4,278.2c0,15.4,10.5,26.1,25.5,26.2c13.3,0,23.9-10.5,23.9-24c0-14.5-11.4-26.3-25.4-26.2
	C586.2,254.2,575.5,265,575.4,278.2z M616.3,279.3c0,9.2-7.2,16.6-15.9,16.5c-9.5-0.1-16.9-8-16.7-17.7s6-15,16-14.9
	C609.8,263.4,616.4,269.8,616.3,279.3z"/>
<path class="st0" d="M478.8,292.1c-9.6-0.1-17.7,7.8-17.7,17.4c0,9.8,7.9,18,17.5,18.1c9.7,0.1,17.6-7.7,17.8-17.3
	C496.5,300.6,488.4,292.3,478.8,292.1z M474.3,311c-4.5,1-7.3-3.8-7.3-7c0-4.2,3.1-7,7.8-7.1c4.3,0,7.4,2.7,7.5,6.9
	C482.4,308.2,479.4,310.9,474.3,311z"/>
<path class="st0" d="M583.7,278.1c-0.2,9.7,7.1,17.6,16.7,17.7c8.7,0.1,15.9-7.3,15.9-16.5c0-9.5-6.5-15.9-16.7-16.1
	C589.7,263,584,268.4,583.7,278.1z M588.7,272.8c0.3-3.9,2.8-6.2,6.7-6c4.8,0.2,7.6,3,7.4,7.3c-0.2,3.8-2.9,6.2-6.7,6.1
	C591.3,280,588.4,277.1,588.7,272.8z"/>
<path class="st7" d="M474.7,296.9c-4.6,0-7.8,2.9-7.8,7.1c0,3.2,2.8,8,7.3,7c5.1,0,8.1-2.8,8-7.2C482.1,299.6,479,296.9,474.7,296.9
	z"/>
<path class="st8" d="M596,280.1c3.8,0.1,6.5-2.3,6.7-6.1c0.3-4.3-2.6-7.1-7.4-7.3c-3.8-0.2-6.4,2.2-6.7,6
	C588.4,277.1,591.3,280,596,280.1z"/>
</svg>
