<?xml version="1.0" encoding="utf-8"?>
<!-- Generator: Adobe Illustrator 24.3.0, SVG Export Plug-In . SVG Version: 6.00 Build 0)  -->
<svg version="1.1" id="Layer_1" xmlns="http://www.w3.org/2000/svg" xmlns:xlink="http://www.w3.org/1999/xlink" x="0px" y="0px"
	 viewBox="0 0 720 720" style="enable-background:new 0 0 720 720;" xml:space="preserve">
<style type="text/css">
	.st0{fill:#010101;}
	.st1{fill:#E1EDC3;}
	.st2{fill:#80BF5E;}
	.st3{fill:#A5AD8F;}
	.st4{fill:#5E8A45;}
	.st5{fill:#E2EEC3;}
	.st6{fill:#FFFFFF;}
	.st7{fill:#80BF5F;}
	.st8{fill:#B9B9B9;}
	.st9{fill:#5D8A46;}
	.st10{fill:#80BE5E;}
	.st11{fill:#B0B1B1;}
	.st12{fill:#D17B7A;}
	.st13{fill:#7E2733;}
	.st14{fill:#963B4A;}
	.st15{fill:#CE5166;}
	.st16{fill:#5E8B45;}
</style>
<g>
	<g>
		<path class="st0" d="M339.66,7.58c18.51,0.64,36.71,3.39,54.78,7.4c18.76,4.16,36.94,9.87,54.26,18.23
			c29.02,13.99,54.1,33.07,74.64,57.97c7.22,8.75,12.55,18.74,18.35,28.42c0.5,0.83,1.13,1.62,1.43,2.52
			c1.39,4.04,4.39,6.19,8.05,8.2c30.53,16.77,50.45,41.95,59.09,75.81c4.43,17.37,5.11,35.09,4.44,52.9
			c-0.49,12.98-1.78,25.9-3.93,38.71c-2.38,14.13-6.33,27.9-9.98,41.73c-0.94,3.55-1.86,7.1-2.85,10.63
			c-0.31,1.1-0.09,1.61,1.06,1.91c4.14,1.07,8.34,1.78,12.6,1.97c10.49,0.47,20.9-0.58,31.31-1.73c12.77-1.42,25.58-2.44,38.45-2.34
			c2.41,0.02,2.64,1.82,3.38,3.31c0,1.29,0,2.59,0,3.88c-1.36,6.04-3.39,11.84-5.97,17.47c-4.93,10.79-11.1,20.79-18.49,30.08
			c-5.95,7.48-11.76,15.08-17.95,22.36c-18.53,21.82-38.43,42.25-61.15,59.8c-5.52,4.26-11.2,8.3-17.24,11.8
			c-1.23,0.71-1.74,1.49-1.8,3.01c-1.2,28.84,0.47,57.64,1.01,86.45c0.23,12.41,0.27,24.82-0.52,37.21
			c-0.41,6.38-0.97,12.75-1.89,19.08c-0.17,1.14,0.01,2.11,0.56,3.14c4.54,8.55,8.42,17.38,11.53,26.56
			c0.63,1.86,0.21,2.86-1.46,3.74c-4.39,2.3-9.17,3.1-13.99,3.47c-6.58,0.5-13.24,0.61-19.64-1.16c-9.3-2.57-19-2.8-28.29-5.32
			c-2.6-0.71-5.16-1.5-7.67-2.69c-1.86,5.28-4,10.38-6.77,15.2c-4.62,8.05-10.66,14.7-18.92,19.18c-1.15,0.62-2.2,0.75-3.5,0.5
			c-5.85-1.16-11.44-3.16-16.85-5.58c-3.16-1.41-6.32-1.47-9.63-1.28c-7.59,0.42-14.89,2.44-22.28,3.9
			c-18.43,3.65-36.9,7.04-55.74,7.86c-17.45,0.75-34.88,0.48-52.3-0.94c-11.85-0.97-23.67-2.14-35.39-4.11
			c-17.92-3.02-35.33-7.86-52.02-15.17c-22.96-10.05-43.17-23.92-59.61-43.02c-9.01-10.47-15.48-22.31-19.2-35.63
			c-0.36-1.3-0.99-2.3-1.97-3.21c-6.51-6.05-12.35-12.67-16.74-20.45c-0.95-1.68-1.69-3.48-2.64-5.15
			c-0.95-1.67-0.62-2.75,0.98-3.87c4.82-3.37,9.82-6.43,15.04-9.12c0.93-0.48,1.42-0.98,1.49-2.16c1.66-26.8,9.57-51.57,24.05-74.24
			c11.65-18.24,26.15-33.92,42.47-48.02c5.43-4.69,10.89-9.35,16.8-13.41c4.97-3.41,8.96-7.73,12.82-12.26
			c13.22-15.48,24.25-32.41,34.13-50.17c6.03-10.83,11.19-22.05,16.09-33.41c0.33-0.76,0.34-1.36-0.09-2.14
			c-3.53-6.46-4.35-13.56-4.74-20.75c-0.06-1.15,0.64-1.73,1.5-2.27c2.44-1.53,5.19-1.9,7.96-2.09c1.74-0.12,3.52-0.21,5.22,0.06
			c1.92,0.3,2.8-0.27,3.58-2.08c12.1-27.75,23.23-55.89,33.64-84.32c8.64-23.59,20.65-45.24,37.01-64.39
			c14.44-16.9,31.48-30.31,52.2-38.73c10.26-4.17,20.89-6.98,31.88-8.43c12.5-1.65,25-1.61,37.47,0.27c1.51,0.23,1.43-0.63,1.5-1.49
			c1.34-16.6-3.53-30.29-17.94-39.96c-8.15-5.47-17.2-8.01-26.56-10.03c-9.6-2.07-19.26-1.77-28.94-0.99
			c-7.46,0.6-14.92,1.31-22.23,3.07c-15.42,3.71-27.58,12.2-36.74,25.04c-7.02,9.83-12.73,20.48-19.1,30.72
			c-7.7,12.38-14.8,25.14-23.45,36.9c-11.57,15.74-24.51,30.35-37.78,44.67c-11.35,12.25-23.17,24.09-37.11,33.37
			c-17.68,11.78-34.58,24.64-51.97,36.81c-13.34,9.34-26.22,19.3-38.2,30.36c-16.59,15.32-30.35,32.71-39.28,53.65
			c-5.8,13.62-9.46,27.8-11.1,42.51c-2.12,19.04-1.37,38.06,0.3,57.09c0.82,9.4,2.01,18.75,3.11,28.11
			c0.11,0.93,0.22,1.88-0.71,2.43c-0.97,0.56-1.71-0.04-2.38-0.71c-15.43-15.32-29.07-32.01-39.26-51.34
			c-6.6-12.52-11.55-25.73-15.94-39.14c-5.12-15.62-9.92-31.33-13.15-47.48c-3.57-17.84-4.56-35.84-3.85-53.99
			c0.43-10.92,1.37-21.8,2.96-32.6c2.46-16.73,5.94-33.27,10.96-49.43c16.2-52.09,44.17-96.69,85.14-132.88
			c22.7-20.05,48.29-35.39,76.52-46.42c10.56-4.12,20.97-8.6,31.86-11.8c13.32-3.92,26.85-6.85,40.61-8.79
			c9.86-1.39,19.76-2.3,29.71-2.73c2.17-0.29,4.34-0.04,6.51-0.14c0.69-0.03,1.41,0.19,2.07-0.19c2.33,0,4.65,0,6.98,0
			c2.35,0.44,4.73,0.08,7.09,0.2C338.13,7.5,338.91,7.34,339.66,7.58z"/>
		<path class="st1" d="M612.34,231.73c0.56,6.63,1.32,19.53-0.5,39.14c-1.02,11-4,36.63-14.5,69.68
			c-4.07,12.81-3.46,9.86-10.55,29.65c-6.38,17.79-12.14,35.76-15.91,54.3c-2.89,14.22-5.47,28.51-7.52,42.88
			c-1.43,10.03-3.37,20-4.08,30.12c-0.59,8.38-0.62,16.78-0.65,25.18c-0.07,26.89,1.58,53.75,1.57,80.64
			c-0.01,13.77-0.67,27.51-2.59,41.17c-0.08,0.57-0.16,1.18-0.44,1.66c-3.68,6.21-7.03,12.62-11.31,18.47
			c-0.77,0.56-1.36,0-1.93-0.36c-5.17-3.28-9.46-7.52-13.74-11.86c-5.35-5.42-8.54-12.1-12.07-18.62c-0.35-0.65-0.95-1.28-0.55-2.13
			c2.53-7.37,5-14.76,7.06-22.28c2.67-9.72,4.36-19.61,5.61-29.63c0.68-5.39,2.1-10.73,2.67-16.18c0.91-8.75,1.66-17.51-0.2-26.24
			c-0.54-2.54-1.41-4.99-3.32-6.87c-2.79-2.73-6.05-2.44-9.38-1.25c-4.28,1.53-7.76,4.34-11.1,7.29
			c-4.72,4.15-8.94,8.79-12.47,14.01c-0.92,1.35-1.21,0.79-1.7-0.21c-3.54-7.15-7.95-13.74-13.18-19.76
			c-13.95-16.05-30.92-27.24-51.95-31.59c-19.17-3.96-37.33-0.73-54.51,8.42c-3.01,1.6-5.87,3.5-8.79,5.28
			c-0.93,0.57-1.83,1.32-1.1,2.49c0.79,1.26,1.88,0.73,2.85,0.08c8.69-5.84,18.02-10.29,28.24-12.69
			c20.48-4.8,39.76-1.34,57.81,9.08c16.34,9.44,28.82,22.69,37.55,39.44c5.28,10.14,7.68,20.99,8.16,32.36
			c0.36,8.49-0.31,16.91-1.26,25.33c-0.04,0.32-0.09,0.64-0.1,0.96c-0.03,0.98,0.17,1.9,1.33,1.99c1.11,0.09,1.61-0.69,1.73-1.69
			c0.32-2.63,0.67-5.26,0.86-7.89c0.47-6.19,0.77-12.37,0.54-18.59c-0.34-9.24-2.06-18.18-5.36-27.08c3.04,0.39,5.67,1.58,8.22,2.81
			c8.29,4,14.92,10.1,20.93,16.95c0.67,0.77,0.5,1.53,0.44,2.35c-1.07,13.32-4.11,26.23-8.14,38.93c-1.31,4.11-2.58,8.24-4.21,12.24
			c-1.16,1.28-2.75,1.94-4.23,2.68c-5.77,2.91-11.54,5.83-17.94,7.17c-2.47,0.52-4.85,0.51-7.27-0.17
			c-6.92-1.96-13.56-4.67-20.07-7.69c-10.32-4.79-20.38-10.09-30.61-15.07c-5.86-2.85-11.73-5.73-18.25-6.9
			c-12.02-2.17-23.37,0.03-34.3,5.14c-8.84,4.13-17.26,9.08-26.09,13.25c-10.69,5.05-21.44,10-32.73,13.6
			c-8.82,2.82-17.83,4.54-27.16,4.95c-9.43,0.41-18.86,0.33-28.28,0.22c-7.73-0.09-15.42-0.86-22.98-2.93
			c-6.03-1.66-10.26-5.22-13.45-10.32c-2.81-4.51-4.94-9.36-7.23-14.14c-2.29-4.79-4.79-9.42-8.44-13.37
			c-3.64-3.94-8.19-5.66-13.32-6.43c-3.65-0.55-7.35-0.67-11-0.71c-7.63-0.09-15.03-1.4-22.41-3.08c-12-2.72-23.63-6.61-35.16-10.85
			c-0.92-0.34-1.79-0.74-2.47-1.47c-0.63-1.03,0.38-1.19,0.87-1.55c5.39-3.92,11.25-7.06,17.16-10.09
			c12.15-6.25,24.5-12.15,35.78-19.96c0.27-0.18,0.54-0.36,0.81-0.53c0.96-0.6,1.73-1.41,1-2.52c-0.74-1.12-1.78-0.7-2.7-0.07
			c-4.11,2.8-8.29,5.48-12.61,7.93c-7.24,4.1-14.69,7.8-22.1,11.57c-0.16,0.08-0.36,0.09-0.84,0.19c0.44-4,0.8-7.88,1.31-11.74
			c2.63-19.82,9.22-38.29,19.34-55.49c8.8-14.96,19.72-28.25,32.06-40.41c9.96-9.81,20.6-18.83,31.98-26.94
			c4.35-3.1,7.58-7.17,10.98-11.13c12.82-14.96,23.59-31.3,33.2-48.48c6.21-11.1,11.65-22.54,16.69-34.2
			c6.76-15.64,14.54-30.82,20.94-46.62c9.59-23.64,18.99-47.34,27.89-71.26c9.96-26.8,24.57-50.82,45.05-71.03
			c18.22-17.98,39.81-29.66,64.98-34.53c17.05-3.3,34.09-3.09,51.18,0.22c16.44,3.18,31.95,8.8,46.63,16.77
			c18.55,10.08,29.59,23.14,32.65,26.71c4.59,5.35,20.71,25.11,26.45,54.02C611.44,221.1,611.93,226.84,612.34,231.73z"/>
		<path class="st2" d="M107.6,470.73c0.28,2.05,0.57,4.09,0.83,6.14c0.07,0.56,0.01,1.14,0.01,2.15c-2.56-2.68-4.96-5.07-7.23-7.57
			c-7.28-8.06-14.1-16.49-19.97-25.66c-2.72-4.25-3.94-9.1-5.36-13.83c-5.38-18.01-9.2-36.36-12.14-54.92
			c-3.36-21.21-5.52-42.51-4.9-64.02c0.69-24.11,5-47.55,13.3-70.23c0.27-0.72,0.54-1.46,0.69-2.21c0.16-0.82,0-1.6-0.97-1.82
			c-0.86-0.2-1.55,0.13-1.87,0.98c-0.64,1.69-1.27,3.38-1.86,5.08c-4.1,11.78-7.18,23.82-9.29,36.11c-0.1,0.57-0.28,1.13-0.42,1.69
			c-2.15,6.55-4.72,12.96-6.01,19.78c-1.3,6.86-2.2,13.75-2.74,20.7c-0.71,9.13-1.04,18.27-1.22,27.43
			c-0.05,2.57-0.29,5.14-0.34,7.72c-0.01,0.7,0.19,1.61-0.87,1.88c-2.67-9.79-4.56-19.72-5.86-29.78
			c-1.53-11.89-1.81-23.83-1.44-35.79c0.44-14.08,1.85-28.08,4.21-41.97c3.39-20.01,8.29-39.63,15.48-58.63
			c13.59-35.93,33.25-68.12,59.61-96.14c24.71-26.26,53.44-46.81,86.73-60.84c16.82-7.09,33.68-14.06,51.53-18.26
			c10.75-2.53,21.58-4.56,32.52-5.99c1.52-0.2,3.05-0.28,4.57-0.42c-0.12,1.04-1.04,1.02-1.72,1.2c-8.23,2.23-16.36,4.8-24.25,8.04
			c-10.09,4.15-19.56,9.36-27.76,16.67c-1.02,0.91-2.25,1.51-3.24,2.44c-6.43,3.14-12.98,6.02-19.23,9.53
			c-4.06,2.27-8.01,4.7-11.91,7.23c-0.42,0.28-0.81,0.63-1.15,1.01c-0.44,0.49-0.41,1.06-0.05,1.6c0.36,0.53,0.86,0.81,1.49,0.65
			c0.43-0.11,0.84-0.32,1.21-0.56c18.22-11.93,38.01-20.47,58.71-26.94c17.24-5.39,34.65-10.15,52.59-12.65
			c9.98-1.39,20.01-2.27,30.07-2.77c7.87-0.39,15.73-0.59,23.62-0.57c18.41,0.06,36.09,3.56,53.34,9.92
			c25.19,9.3,48.16,22.37,68.7,39.67c0.49,0.41,0.94,0.88,1.4,1.33c-0.84,0.62-1.48-0.04-2.1-0.4c-5.09-2.96-10.29-5.67-15.72-7.98
			c-10.77-4.59-21.99-7.52-33.53-9.31c-6.32-0.98-12.69-1.32-19.07-1.69c-4.67-0.27-9.29,0-13.91,0.2
			c-9.88,0.43-19.68,1.84-29.27,4.29c-12.19,3.12-23.86,7.64-35.02,13.47c-11.1,5.8-21.42,12.75-30.96,20.85
			c-4.83,4.1-9.57,8.3-13.99,12.83c-10.82,11.09-20.8,22.9-28.46,36.4c-6.89,12.15-15.06,23.5-21.97,35.63
			c-5.86,10.27-11.81,20.49-18.06,30.53c-8.8,14.14-18.48,27.63-30.83,38.94c-5.71,5.23-11.8,10.05-17.78,14.99
			c-13.36,11.04-27.36,21.23-41.45,31.3c-5.79,4.14-11.25,8.72-16.2,13.82c-5.9,6.08-10.36,13.13-13.72,20.95
			c-3.19,7.41-6.84,14.63-9.81,22.15c-5.69,14.37-9.77,29.16-11.39,44.56c-0.55,5.26-1.05,10.55-0.85,15.84
			c0.41,10.86,1.69,21.61,4.13,32.22c2.46,10.68,5.85,21.03,10.4,31C107.15,469.39,107.28,470.09,107.6,470.73z"/>
		<path class="st3" d="M131.42,583.54c11.23,4.17,22.53,8.12,34.19,10.96c8.38,2.04,16.79,3.73,25.49,3.92
			c4.92,0.1,9.88,0.23,14.77,1.35c6.09,1.39,10.24,5.14,13.62,10.08c3.74,5.47,6.15,11.62,9.08,17.51c2.38,4.77,5.1,9.25,9.14,12.84
			c1.41,1.25,3.15,1.75,4.84,2.33c6.49,2.25,13.19,3.23,20.05,3.58c8.13,0.42,16.26,0.15,24.39,0.32
			c17.83,0.37,34.69-3.66,50.98-10.77c9.58-4.18,19.08-8.52,28.36-13.33c6.7-3.47,13.27-7.19,20.31-9.96
			c12.6-4.95,25.35-5.64,38.09-0.81c7.66,2.91,14.86,6.88,22.19,10.55c8.48,4.25,16.94,8.53,25.68,12.22
			c4.69,1.98,9.48,3.74,14.44,4.91c3.26,0.77,6.38-0.39,9.46-1.31c5.85-1.74,11.17-4.66,16.55-7.46c0.57-0.29,1.17-0.52,1.75-0.78
			c-3.54,10.65-7.9,20.99-12.07,31.4c-2.59,6.46-4.74,13.09-7.71,19.4c-3.75,7.99-8.73,14.98-15.86,20.44
			c-3.49,2.67-6.78,3.32-10.86,1.85c-3.88-1.4-7.84-2.6-11.57-4.37c-3.49-1.66-7.08-1.64-10.78-1.42c-7.64,0.45-15,2.5-22.48,3.89
			c-13.38,2.49-26.68,5.42-40.27,6.69c-18.17,1.69-36.36,2.03-54.59,1.07c-7.87-0.42-15.72-0.96-23.56-1.71
			c-32.17-3.07-63.21-10.15-91.68-26.17c-17.87-10.05-33.53-22.73-46.15-39.01c-5.57-7.18-11.4-18.38-13.67-26.52
			c2.8,2.16,5.44,4.26,8.13,6.27c11.87,8.87,24.6,16.38,37.43,23.73c0.97,0.55,2.09,1.21,2.86-0.13c0.84-1.46-0.42-2.05-1.43-2.62
			c-12.95-7.4-25.78-14.99-37.71-23.99c-9.84-7.42-19-15.54-26.13-25.72C134.65,589.85,132.79,586.84,131.42,583.54z"/>
		<path class="st4" d="M107.6,470.73c-2.04-2.57-2.9-5.73-4.14-8.67c-3.85-9.16-6.44-18.73-8.44-28.44
			c-1.2-5.84-2.06-11.75-2.53-17.72c-0.33-4.11-0.73-8.23-0.64-12.33c0.19-8.54,0.94-17.04,2.51-25.48
			c2.87-15.42,7.95-30.1,14.51-44.28c3.19-6.9,5.89-14.04,9.88-20.55c3.28-5.34,7.33-10.03,11.89-14.38
			c11.11-10.59,24.3-18.41,36.29-27.82c7.34-5.76,14.82-11.33,21.89-17.43c5.95-5.13,12.24-9.85,17.81-15.42
			c6.9-6.91,12.98-14.47,18.61-22.42c8.64-12.23,15.98-25.25,23.57-38.13c6.08-10.32,12.16-20.65,18.96-30.53
			c3.65-5.31,6.28-11.24,9.89-16.6c3.53-5.24,7.19-10.37,11.18-15.25c4.89-5.99,10.01-11.8,15.59-17.17
			c12.01-11.57,24.93-21.92,39.65-29.95c12.57-6.86,25.72-12.15,39.6-15.64c6.54-1.64,13.21-2.64,19.91-3.39
			c4.55-0.51,9.14-0.44,13.67-0.89c4.74-0.47,9.42,0.01,14.08,0.24c11.64,0.58,23.07,2.66,34.26,6.03
			c10.43,3.14,20.28,7.55,29.59,13.17c0.4,0.24,0.77,0.47,1.25,0.45c5.04,4.06,9.5,8.72,14.1,13.26
			c11.29,11.15,19.67,24.38,27.49,38.03c0.81,1.42,1.65,2.83,2.66,4.58c-8.1-2.95-15.97-5.14-23.76-7.57
			c-4.32-1.34-8.77-2.11-13.21-2.88c-1.2-0.21-1.57-0.5-1.43-1.84c1.29-12.35-1.16-23.8-8.76-33.82c-3.85-5.07-9.2-8.44-14.53-11.75
			c-7.39-4.59-15.76-6.27-24.07-8.09c-9.9-2.17-19.88-1.75-29.87-0.92c-8.1,0.67-16.18,1.45-24.06,3.58
			c-12.62,3.42-23.29,9.94-31.92,19.81c-7.28,8.33-12.51,18-18.26,27.35c-8.86,14.41-17.27,29.1-26.81,43.08
			c-6.46,9.46-13.95,18.1-21.34,26.82c-7.85,9.27-15.9,18.37-24.43,27.01c-12.19,12.34-25.1,23.78-40.03,32.87
			c-6.49,3.95-12.37,8.89-18.54,13.35c-12.09,8.74-24.39,17.19-36.3,26.17c-12.08,9.11-23.74,18.71-34.35,29.53
			c-21.48,21.92-35.63,47.69-41.38,77.99c-2.54,13.39-3.23,26.88-3.12,40.46c0.12,14.8,1.28,29.52,3.12,44.2
			C107.65,469.82,107.6,470.28,107.6,470.73z"/>
		<path class="st5" d="M572.71,431.91c0.25-1.46,0.53-2.91,0.74-4.37c0.15-1.03,0.98-1.3,1.7-1.69c7.12-3.87,13.78-8.37,19.35-14.33
			c1.63-1.75,3.14-3.59,4.38-5.65c0.59-0.97,0.62-1.86,0.16-2.92c-1.94-4.44-4.77-8.24-8.14-11.68c-1.72-1.75-3.39-3.55-5.13-5.28
			c-0.64-0.63-0.76-1.15-0.46-2.03c3.27-9.5,6.54-18.99,10.28-28.32c0.26-0.65,0.29-1.43,1.54-1.04c9.67,3.02,19.62,2.93,29.55,2.24
			c8.88-0.62,17.73-1.63,26.59-2.51c1.28-0.13,1.79,0.11,1.8,1.57c0.07,13.18,0.61,26.34,1.41,39.49c0.32,3.16,0.31,3.14-2.35,4.51
			c-18.91,9.7-38.43,18-58.45,25.12c-6.75,2.4-13.58,4.56-20.4,6.73C574.47,432.02,573.61,432.53,572.71,431.91z"/>
		<path class="st3" d="M572.71,431.91c11.11-3.12,21.99-6.95,32.78-11.02c16.43-6.2,32.48-13.27,48.14-21.23
			c1.92-0.98,3.21-1.96,2.86-4.26c0.62,2.46,0.25,5.01,0.64,7.5c0.13,0.85-0.63,1.38-1.08,1.98c-11.86,15.68-24.63,30.59-38.32,44.7
			c-13.78,14.22-28.3,27.6-44.42,39.17c-3.39,2.43-6.82,4.81-10.84,7.08c0.48-3.95,0.81-7.52,1.36-11.06
			c2.13-13.71,4.3-27.4,6.53-41.09C571.01,439.73,571.92,435.83,572.71,431.91z"/>
		<path class="st3" d="M517.57,631.64c5.91,13.07,14.26,24.14,26.39,32.1c0.59,0.39,1.13,0.88,1.89,0.87
			c-1.66,2.63-3.74,4.91-5.95,7.07c-2.88,2.82-5.95,4.42-10.37,3.54c-7.88-1.57-15.94-2.19-23.63-4.72c-0.3-0.1-0.59-0.26-0.9-0.34
			c-1.68-0.42-2.15-1.11-1.41-2.96C508.34,655.38,512.93,643.5,517.57,631.64z"/>
		<path class="st4" d="M47.24,360.14c0.1-0.23,0.29-0.45,0.29-0.68c0.1-3.15,0.28-6.31,0.33-9.45c0.13-7.98,0.4-15.96,0.94-23.92
			c0.7-10.24,1.8-20.45,4.63-30.37c1.28-4.49,2.53-9.04,4.99-13.11c-0.4,3.45-0.78,6.91-1.21,10.36
			c-1.11,9.11-1.54,18.26-1.55,27.43c-0.02,15.52,1.33,30.92,3.44,46.28c2.68,19.42,6.2,38.67,11.28,57.62
			c0.41,1.52,0.82,3.05,1.1,4.62c-3.01-5.43-5.34-11.16-7.61-16.9c-6.64-16.81-11.89-34.07-16.65-51.49
			C47.21,360.41,47.24,360.27,47.24,360.14z"/>
		<path class="st4" d="M237.62,40.67c2.26-2.75,5.12-4.84,7.95-6.94c8.49-6.31,17.89-10.89,27.79-14.54
			c6.52-2.41,13.15-4.46,19.85-6.26c0.47-0.13,1.04-0.14,1.38-0.62c3.32-0.37,6.64-0.87,9.97-1.08c13.15-0.85,26.31-1.22,39.47-0.42
			c8.95,0.54,17.85,1.47,26.73,2.72c0.82,0.12,1.63,0.34,2.44,0.59c-4.19-0.37-8.38-0.03-12.57,0.1
			c-13.15,0.39-26.28,1.14-39.32,3.01c-28.54,4.1-56.04,11.87-82.6,23.07C238.36,40.45,237.99,40.55,237.62,40.67z"/>
		<path class="st6" d="M498.31,553.24c2.41-3.78,5.22-7.06,8.21-10.16c3.72-3.86,7.65-7.5,12.45-10.04
			c5.96-3.15,9.16-1.72,10.67,4.84c1.62,7.09,1.15,14.25,0.57,21.4c-0.37,4.61-0.92,9.2-1.88,14.03
			C519.92,564.05,510.69,556.39,498.31,553.24z"/>
		<path class="st6" d="M659.81,396.34c-0.56-2-0.36-4.07-0.48-6.1c-0.73-11.61-1.04-23.24-1.22-34.87
			c-0.02-1.08,0.29-1.39,1.35-1.53c6.95-0.9,13.94-0.61,20.91-0.8c1.33-0.04,1.24,0.89,1.23,1.71c-0.06,3.06-0.86,5.99-1.86,8.85
			c-3.77,10.83-8.9,20.96-15.5,30.35C662.93,395.06,661.73,396.37,659.81,396.34z"/>
		<path class="st7" d="M574.54,422.65c2.19-9.99,4.64-19.51,7.59-28.9c0.42-1.35,0.93-2.68,1.31-4.04c0.25-0.89,0.54-1.09,1.25-0.37
			c3.83,3.92,7.78,7.71,10.48,12.6c0.94,1.7,0.91,2.95-0.33,4.49C589.35,413.23,582.45,418.2,574.54,422.65z"/>
		<path class="st6" d="M548.48,666.55c3.63-5.45,6.89-11.13,10.34-16.97c2.38,4.05,4.21,8.16,6,12.28c1.61,3.7,2.84,7.57,4.41,11.29
			c0.78,1.84,0.24,2.57-1.57,2.77c-0.67,0.13-1.26-0.11-1.83-0.4c-5.3-2.61-10.69-5.02-15.91-7.78
			C549.36,667.45,548.73,667.23,548.48,666.55z"/>
		<path class="st8" d="M548.48,666.55c6.4,3.12,12.79,6.25,19.19,9.37c-3.13,1.53-6.55,1.86-9.92,2.17
			c-6.11,0.55-12.23,0.39-18.3-0.73c-0.3-0.06-0.59-0.2-1.17-0.41C542.55,674.13,545.46,670.29,548.48,666.55z"/>
		<path class="st9" d="M299.15,321.75c-1.63,3.55-3.25,7.09-5.01,10.92c-1.61-3.26-2.42-6.45-2.93-9.71
			c-0.35-2.22-0.55-4.46-0.78-6.7c-0.05-0.47-0.27-1.04,0.31-1.4C293.35,317.4,296.05,319.82,299.15,321.75z"/>
		<path class="st10" d="M299.15,321.75c-2.61-0.39-4.08-2.54-5.97-4c-0.97-0.75-2.12-1.52-2.43-2.89c3.58-1.97,7.48-1.55,11.32-1.47
			c1.21,0.03,0.6,0.85,0.36,1.37C301.35,317.1,300.24,319.43,299.15,321.75z"/>
		<path class="st11" d="M659.81,396.34c1.47-0.79,2.95-1.59,4.42-2.38c-1.04,2.04-2.64,3.68-4.25,6.04
			C659.91,398.4,659.86,397.37,659.81,396.34z"/>
		<path class="st0" d="M572.76,297.03c0.03,2.47-2.82,4.91-5.28,4.45c-2.73-0.52-5.37-1.37-7.93-2.45c-1.04-0.44-1.5-0.21-2.1,0.77
			c-7.93,13.03-17.67,24.65-27.94,35.85c-7.31,7.96-15.04,15.49-23.8,21.86c-4.06,2.95-8.27,5.63-13.03,7.43
			c-8.12,3.09-17.59-0.29-21.67-9.27c-2.65-5.82-3.62-12.03-4.57-18.25c-0.43-2.8-0.68-5.64-0.76-8.47
			c-0.39-14.57,2.34-28.68,6.36-42.6c1.46-5.06,3.11-10.05,5.02-14.95c0.51-1.31,0.75-2.54,0.31-3.94
			c-0.35-1.09-0.36-2.36,1.12-2.61c1.33-0.22,1.71,0.87,1.89,1.96c0.38,2.23,1.91,3.63,3.62,4.82c4.3,3.01,9.28,4.35,14.29,5.54
			c12.41,2.95,25.14,4.63,37.12,9.34c8.59,3.38,17.25,6.61,25.89,9.88c1.93,0.73,3.89,1.36,5.9,1.84c0.98,0.24,1.73-0.04,2.22-0.71
			c0.6-0.82-0.17-1.47-0.68-1.99c-1.23-1.23-2.53-2.4-3.83-3.56c-0.83-0.73-1.26-1.59-0.51-2.51c0.8-0.97,1.76-0.54,2.53,0.16
			c1.48,1.34,2.96,2.69,4.36,4.12C572.15,294.64,572.73,295.73,572.76,297.03z"/>
		<path class="st0" d="M484.38,187.85c-0.21,17.13-4,34.16-8.87,51.01c-1.09,3.78-2.42,7.47-4.04,11.06
			c-0.65,1.45-1.57,1.84-3.07,1.56c-20.17-3.73-40.35-7.44-60.53-11.1c-1.58-0.29-2.29-0.94-2.07-2.56
			c2.99-21.84,7.73-43.22,17.02-63.35c3.31-7.17,7.51-13.75,13.03-19.5c5.81-6.05,12.89-8.2,20.99-7.88
			c2.91,0.11,5.77,0.44,8.58,1.29c8.34,2.55,12.71,8.89,15.63,16.49C483.82,172.08,484.35,179.69,484.38,187.85z"/>
		<path class="st0" d="M609.42,226.91c-0.71,15.57-1.82,30.3-4.33,44.9c-1.52,8.83-3.28,17.62-5.25,26.36
			c-0.55,2.43-1.18,2.74-3.51,1.64c-9.63-4.57-19.24-9.17-28.9-13.68c-1.67-0.78-2.26-1.81-2.13-3.6
			c0.71-9.71,1.14-19.43,2.26-29.12c1.2-10.35,2.69-20.65,5.13-30.78c1.62-6.72,3.31-13.46,6.64-19.61
			c3.52-6.52,9.91-9.46,16.48-7.68c4.12,1.12,6.64,4.03,8.51,7.63C608.07,210.17,609.58,217.62,609.42,226.91z"/>
		<path class="st0" d="M459.57,416.27c5.32-0.27,9.48,2.25,13.24,5.54c6.97,6.08,9.55,13.69,7.57,22.77
			c-0.82,3.73-3.07,6.42-6.27,8.45c-5.81,3.68-11.91,5.86-18.87,3.91c-8-2.24-13.64-9.17-14.51-17.74
			c-0.47-4.66,0.11-9.15,2.29-13.33C446.52,419.21,452.54,416.83,459.57,416.27z"/>
		<path class="st0" d="M380.59,432.31c-7,0.26-11.7-3.55-15.47-8.92c-2.95-4.2-4.4-8.99-5.32-13.97c-0.12-0.66-0.07-1.3,0.32-1.86
			c3.52-4.97,7.25-9.78,12.76-12.73c12.45-6.67,27.54,1.34,29.12,15.37c0.76,6.77-1.6,12.41-6.19,17.22
			c-3.44,3.61-8.03,4.39-12.71,4.86C382.28,432.38,381.43,432.31,380.59,432.31z"/>
		<path class="st0" d="M350.63,366.66c0.03,7.67-3.87,13.21-11.48,15.93c-8.53,3.05-17.97,0.95-23.02-5.69
			c-3.91-5.14-5.39-11.32-5.78-17.73c-0.04-0.72,0.35-1.35,0.76-1.95c4.15-6.06,9.95-9.34,17.18-10.25
			c4.17-0.52,8.31-0.29,12.15,1.39c6.46,2.84,9,8.48,9.99,15.04C350.57,364.37,350.55,365.35,350.63,366.66z"/>
		<path class="st0" d="M539.68,448.62c-5.21-0.18-10.81-1.92-15.39-6.29c-4.19-4-5.62-8.84-4.05-14.45
			c1.56-5.56,4.69-10.1,9.76-12.92c6.25-3.48,12.96-2.55,18.88,2.81c6.37,5.77,9.69,13.05,9.38,21.81c-0.05,1.5-0.66,2.47-1.89,3.33
			C551.62,446.2,546.62,448.71,539.68,448.62z"/>
		<path class="st12" d="M468.78,326.7c0.1-14.34,2.78-27.77,6.76-40.99c0.67-2.22,1.54-4.39,2.05-6.65
			c0.43-1.89,1.44-2.08,3.06-1.77c7.37,1.41,13.71,4.76,19.16,9.9c7.74,7.3,12.07,16.46,14.6,26.6c1.34,5.38,2.84,10.72,3.37,16.28
			c0.34,3.58,0.13,7.08-0.84,10.55c-0.62,2.23-1.68,4.17-3.33,5.8c-5.47,5.45-11.48,10.21-18.3,13.87
			c-4.01,2.15-8.08,3.48-12.77,1.97c-5.57-1.78-8.23-6.01-9.89-11.06C470,343.1,468.94,334.73,468.78,326.7z"/>
		<path class="st13" d="M520.39,340.18c2.07-11.43-1.59-22.01-4.67-32.68c-2.58-8.96-7.41-16.54-14.18-22.91
			c-1.49-1.4-3.12-2.66-4.7-4c0.28-0.5,0.71-0.34,1.01-0.26c8.97,2.33,18.21,3.46,27.1,6.09c9.96,2.95,19.54,6.95,29.24,10.62
			c1.27,0.48,0.67,1.09,0.29,1.74c-2.71,4.63-5.89,8.94-9.13,13.2c-7.31,9.61-15.12,18.79-23.69,27.31
			C521.31,339.63,521.06,340.15,520.39,340.18z"/>
		<path class="st14" d="M416.78,200.4c3.84-13.73,8.57-27.06,17.3-38.6c2.27-3,4.79-5.78,7.95-7.87c9.43-6.22,15.28-3.96,20.94,3.68
			c3.43,4.63,4.54,10.17,5.38,15.77c1.71,11.5,0.27,22.75-2.47,33.92c-0.84,3.43-1.6,6.89-2.93,10.18
			c-1.39-0.35-0.87-1.51-0.93-2.34c-0.48-5.91-0.77-11.85-1.99-17.68c-0.41-1.96-0.89-3.89-1.73-6.23
			c-0.84,2.61-1.58,4.82-2.29,7.05c-2.37,7.45-4.75,14.89-8.72,21.7c-2.28,3.9-5,7.37-9.24,9.35c-4.07,1.89-6.32,1.22-8.95-2.43
			c-2.41-3.35-3.01-7.21-3.55-11.13c-0.94-6.78-0.2-13.52,0.53-20.26c0.04-0.38,0.17-0.76,0.11-1.15c-0.02-0.13-0.08-0.24-0.34-0.44
			c-2.13,1.45-4.05,3.25-6.17,4.8C418.8,199.36,418.12,200.47,416.78,200.4z"/>
		<path class="st15" d="M416.78,200.4c2.91-2.33,5.81-4.67,8.72-7c0.33-0.26,0.61-0.83,1.11-0.51c0.42,0.27,0.26,0.84,0.21,1.26
			c-0.32,3.06-0.8,6.11-1,9.18c-0.44,6.84-0.3,13.64,1.97,20.22c0.55,1.59,1.57,2.97,2.64,4.25c1.91,2.31,3.84,2.6,6.91,1.28
			c4.5-1.94,7.3-5.56,9.64-9.64c4.92-8.57,7.36-18.09,10.49-27.35c0.22-0.64,0.23-1.4,0.95-1.97c1.61,3.87,2.38,7.87,2.91,11.92
			c0.63,4.78,1.06,9.57,1.19,14.39c0.01,0.4,0.06,0.77,0.42,1.03c-1.21,5.17-3.31,10.02-5.33,14.9c-1.56,3.75-3.28,7.43-4.81,11.19
			c-0.58,1.43-1.39,1.67-2.8,1.4c-9.37-1.79-18.76-3.52-28.14-5.25c-3.8-0.7-7.61-1.41-11.42-2.06c-0.96-0.16-1.48-0.32-1.3-1.55
			c1.69-11.63,3.98-23.12,7.17-34.43C416.45,201.24,416.63,200.82,416.78,200.4z"/>
		<path class="st6" d="M480.81,196.21c-0.65,9.95-2.54,19.68-4.93,29.33c-1.78,7.18-3.57,14.37-6.39,21.25
			c-0.52,1.27-1.15,1.57-2.45,1.3c-3.47-0.72-6.96-1.36-10.46-1.93c-1.25-0.21-1.37-0.53-0.83-1.69c4.96-10.7,9.41-21.6,12.32-33.06
			c2.48-9.78,4.45-19.63,4.08-29.8c-0.06-1.61-0.16-3.22-0.24-4.83c1.16-0.3,1.81,0.53,2.44,1.21c2.45,2.65,3.87,5.89,5.18,9.18
			C480.69,190.07,481.3,193.06,480.81,196.21z"/>
		<path class="st8" d="M480.81,196.21c0.14-5.98-2.4-11.06-5.34-16.01c-0.87-1.47-2.03-2.65-3.57-3.42
			c-0.72-6.37-1.72-12.66-4.78-18.42c-1.52-2.87-3.63-5.28-6.42-7.73c6.09,0.66,10.3,3.42,13.51,7.88
			c3.84,5.33,5.52,11.43,6.4,17.83c0.86,6.31,0.63,12.63,0.44,18.96C481.05,195.6,480.9,195.9,480.81,196.21z"/>
		<path class="st14" d="M569.6,266.73c0.1-4.78,0.68-9.51,1.23-14.25c1.07-9.22,2.45-18.39,4.55-27.43
			c1.45-6.21,2.99-12.41,5.6-18.27c1.76-3.94,4.14-7.32,8.65-8.48c4.32-1.11,6.65-0.02,8.24,4.08c1.83,4.72,2.76,9.68,3.03,14.71
			c0.89,16.67-1.16,33.07-4.78,49.3c-0.57,2.57-0.82,5.22-1.78,7.69c-1.24-0.39-1.15-1.59-1.44-2.5c-0.78-2.44-1.39-4.93-2.7-7.45
			c-1.1,2.39-2.35,4.4-3.7,6.36c-1.09,1.59-2.47,2.8-4.14,3.71c-3.16,1.72-6.37,1.06-8.62-1.77c-0.81-1.02-1.5-2.13-2.01-3.31
			C571.26,268.07,570.56,267.31,569.6,266.73z"/>
		<path class="st15" d="M569.6,266.73c1.15-0.2,1.76,0.33,2.2,1.37c0.88,2.08,1.9,4.13,3.8,5.49c3.68,2.63,7.35,0.49,10.15-2.9
			c0.94-1.13,1.71-2.42,2.45-3.71c0.7-1.22,1.25-2.53,1.96-3.98c1.52,2.49,2.18,5.2,3.02,7.83c0.35,1.09,0.53,2.24,1.15,3.24
			c-1.1,6.14-2.75,12.16-4.11,18.24c-0.18,0.79-0.49,0.91-1.19,0.57c-6.55-3.15-13.11-6.29-19.68-9.41
			c-0.61-0.29-0.88-0.66-0.82-1.34C569.02,277.02,568.9,271.85,569.6,266.73z"/>
		<path class="st6" d="M607.14,228.51c-0.57,8.24-1.54,14.27-2.04,17.66c-3.45,23.19-3.81,30.86-7.72,48.9
			c-0.11,0.5-0.28,0.98-0.42,1.46c-0.1,0-0.17,0.02-0.23,0c-1.98-0.79-2.97-1.18-3.33-1.89c-0.73-1.42,0.13-3.29,0.36-3.79
			c3.61-7.89,8.61-48.22,9.17-52.91c1.46-12.13,1.07-17.57,0.74-20.56c-1.08-9.99-3.94-16.32-3.22-16.6
			c0.78-0.3,5.33,6.65,6.69,15.61C607.39,218.04,607.68,220.73,607.14,228.51z"/>
		<path class="st7" d="M444.61,430.31c2.33-10.22,16.31-13.96,24-7.97c6.04,4.7,9.64,10.34,9.3,18.1c-0.15,3.26-0.94,6.4-3.69,8.62
			c-0.9,0.16-1.12-0.51-1.27-1.13c-0.28-1.19-1.1-1.83-2.1-2.37c-8.11-4.37-16.28-8.64-24.32-13.14
			C445.68,431.94,444.54,431.67,444.61,430.31z"/>
		<path class="st16" d="M444.61,430.31c1.11,1.76,3.13,2.19,4.77,3.11c7.88,4.41,13.39,5.9,20.83,11.25
			c3.61,2.59,4.06,3.57,4.01,4.39c-0.19,2.97-7.09,5.32-12.57,5.41c-2.06,0.03-6.46,0.03-10.71-2.94
			c-3.85-2.69-6.48-7.04-7.06-12.28C443.54,436.21,443.65,433.23,444.61,430.31z"/>
		<path class="st7" d="M368.67,402.07c5.79-6.56,13.76-8.2,21.56-4.44c8.66,4.17,11.45,15.89,5.89,24.53
			c-2.54,3.94-6.01,6.3-10.75,6.61c-0.74-1.15-0.2-2.34,0.19-3.33c1.5-3.79,0.33-6.36-2.9-8.71c-5.07-3.7-8.93-8.73-13.33-13.17
			C368.93,403.17,368.45,402.76,368.67,402.07z"/>
		<path class="st4" d="M368.67,402.07c2.24,2.37,4.41,4.8,6.66,7.16c4.23,4.45,6.44,6.58,8.33,7.76c6.45,4,12.11,2.92,12.46,5.18
			c0.28,1.78-3.02,3.74-4.44,4.59c-2.49,1.49-4.89,1.89-6.31,2.02c-8.29,1.76-13.97-0.51-19.03-9.35c-1.71-2.99-2.63-6.26-3.28-9.62
			c-0.07-0.35-0.11-0.66-0.01-0.95c0.06-0.16,0.14-0.27,0.18-0.31C363.52,408.16,365.69,405.58,368.67,402.07z"/>
		<path class="st7" d="M313.67,360.55c-0.38-0.97,0.03-1.73,0.62-2.49c3.54-4.57,8.23-7.1,13.9-7.97c2.38-0.36,4.76-0.25,7.14,0.05
			c5.76,0.75,9.32,4.16,11.09,9.48c1.35,4.06,1.55,8.22,0.17,12.35c-0.76,2.28-2.09,4.11-4.21,5.32c-2.56,0.26-4.77-0.87-6.99-1.85
			c-7.08-3.12-13.15-7.81-19.15-12.57C315.31,362.17,314.29,361.57,313.67,360.55z"/>
		<path class="st4" d="M313.67,360.55c2.9,1.67,5.31,4,7.99,5.97c5.36,3.93,10.83,7.65,17.2,9.78c1.15,0.39,2.33,0.67,3.5,1.01
			c-8.28,6.47-22.58,3.78-26.01-6.2C315.17,367.66,313.59,364.32,313.67,360.55z"/>
		<path class="st7" d="M523.37,428.4c1.85-7.04,7.92-12.34,14.17-12.31c3.69,0.02,6.79,1.7,9.38,4.08
			c5.26,4.84,8.14,10.88,8.3,18.12c0.03,1.23-0.27,2.15-1.5,2.59c-4.15,1.11-8.06-0.12-11.83-1.55c-6.41-2.44-11.89-6.64-17.87-9.89
			C523.63,429.24,523.21,428.98,523.37,428.4z"/>
		<path class="st4" d="M523.37,428.4c6.29,3.62,12.22,7.91,19,10.62c3.6,1.44,7.44,1.97,11.34,1.87c-8.25,6.03-18.07,6.19-25.9,0.41
			C523.4,438.05,521.82,433.46,523.37,428.4z"/>
		<path class="st0" d="M430.7,205.21c0.53-9.61,3.05-18.77,6.48-27.71c1.69-4.4,3.67-8.66,6.27-12.62c0.93-1.41,1.91-2.77,3.23-3.84
			c3.28-2.66,6.18-1.5,6.94,2.67c0.69,3.82,0.23,7.59-0.42,11.33c-1.87,10.74-5.18,21-10.44,30.58c-1.31,2.38-2.78,4.66-4.89,6.44
			c-2.99,2.51-5.83,1.57-6.73-2.24C430.79,208.33,430.59,206.78,430.7,205.21z"/>
		<path class="st0" d="M576.47,251.2c0.59-12.39,2.69-24.44,8.06-35.76c0.72-1.52,1.64-2.92,2.92-4.06
			c2.18-1.94,4.31-1.53,5.61,1.12c0.81,1.65,1.18,3.45,1.22,5.24c0.32,13.87-2.17,27.19-8.07,39.8c-0.71,1.51-1.61,2.93-2.99,4
			c-2.11,1.64-4.18,1.23-5.36-1.22C576.49,257.43,576.48,254.32,576.47,251.2z"/>
		<path class="st6" d="M433.81,205.16c0.48-8.97,2.88-17.5,6-25.86c1.81-4.83,3.91-9.54,6.96-13.74c0.81-1.12,1.8-2.97,3.05-2.57
			c1.18,0.38,1,2.47,0.99,3.85c-0.04,7.5-1.9,14.67-4.17,21.74c-2.06,6.39-4.52,12.6-8.27,18.23c-0.75,1.13-1.62,2.15-2.67,3.04
			c-0.8,0.67-1.21,0.45-1.45-0.45C433.89,208.01,433.76,206.6,433.81,205.16z"/>
		<path class="st6" d="M589.95,213.44c1.05,1.43,1.18,3.07,1.22,4.65c0.31,13.21-2.11,25.88-7.66,37.91
			c-0.84,1.83-1.31,2.28-2.61,3.29c-0.95-1.33-1.13-2.91-1.17-4.43c-0.39-13.15,2.06-25.76,7.44-37.78
			C587.79,215.71,588.53,214.32,589.95,213.44z"/>
	</g>
	<path class="st4" d="M578.63,405.78c5.72-0.64,11.45-1.27,17.17-1.91l0,0c-0.17,0.59-0.47,1.51-0.98,2.56
		c-1.83,3.82-4.67,5.95-10.48,9.85c-3.81,2.56-7.14,4.69-9.81,6.37C575.9,417.03,577.27,411.4,578.63,405.78z"/>
</g>
</svg>
