<?xml version="1.0" encoding="utf-8"?>
<!-- Generator: Adobe Illustrator 24.3.0, SVG Export Plug-In . SVG Version: 6.00 Build 0)  -->
<svg version="1.1" id="Layer_1" xmlns="http://www.w3.org/2000/svg" xmlns:xlink="http://www.w3.org/1999/xlink" x="0px" y="0px"
	 viewBox="0 0 720 720" style="enable-background:new 0 0 720 720;" xml:space="preserve">
<style type="text/css">
	.st0{fill:#14181D;}
	.st1{fill:#F8DAD9;}
	.st2{fill:#D8BEBC;}
	.st3{fill:#544623;}
	.st4{fill:#FFFFFF;}
	.st5{fill:#EB8599;}
	.st6{fill:#93341F;}
	.st7{fill:#EB85AD;}
</style>
<g>
	<path class="st0" d="M126.86,436.75c-2.03-1.05-3.95-2.02-5.85-3.01c-11.46-6.03-22.53-12.68-32.7-20.73
		c-7.74-6.13-14.83-12.91-20.42-21.12c-3.99-5.86-7.03-12.13-7.81-19.26c-1.17-10.64,1.94-19.69,10.43-26.55
		c5.23-4.23,11.33-6.67,17.75-8.42c13.22-3.59,26.57-3.88,40.01-1.43c0.32,0.06,0.64,0.1,1.41,0.22c-0.79-0.58-1.19-0.92-1.64-1.19
		c-15.24-9.29-29.15-20.31-42.26-32.38c-23.16-21.33-43.66-45.02-62.04-70.55c-5.07-7.05-10.11-14.13-14.29-21.76
		c-2.33-4.26-4.46-8.6-5.48-13.4c-0.85-4-0.27-7.75,1.86-11.26c1.62-2.67,3.65-5,5.92-7.12c5.91-5.5,12.74-9.69,19.77-13.55
		c17.95-9.87,36.97-17.11,56.63-22.73c15.8-4.51,31.82-8.05,48.06-10.53c10.51-1.6,21.04-3.1,31.6-4.26
		c8.55-0.94,17.16-1.42,25.76-1.91c9.89-0.56,19.78-0.39,29.66,0.22c1.73,0.11,3.47,0.27,5.28,0.41c0.25-0.75,0.48-1.37,0.67-2
		c6.65-22.03,17.13-41.97,32.71-59.02c19.31-21.13,42.46-36.31,70.11-44.26c13.62-3.92,27.55-5.45,41.71-5.12
		c12.31,0.29,24.4,1.94,36.2,5.51c21.37,6.47,39.25,18.33,53.97,35.06c0.44,0.5,0.89,0.98,1.4,1.54c1.76-0.99,3.45-1.95,5.15-2.88
		c15.29-8.36,31.57-14,48.54-17.8c5.2-1.16,10.44-2.11,15.76-2.25c2.73-0.07,5.5,0.29,8.21,0.72c2.32,0.37,4.15,1.85,5.83,3.45
		c3.33,3.15,5.67,6.99,7.63,11.08c3.81,7.94,6.1,16.38,7.96,24.94c2.79,12.85,4.49,25.85,4.91,39c0.61,18.88-1.3,37.5-5.78,55.84
		c-1.09,4.44-2.34,8.84-3.63,13.23c-0.33,1.13-0.18,1.83,0.69,2.63c12.02,11.05,23,23.06,32.97,36c0.71,0.92,1.6,1.35,2.63,1.71
		c24.98,8.86,49.95,17.74,74.93,26.61c3.42,1.22,6.84,2.43,10.32,3.67c4.46-3.64,9.84-4.47,15.31-4.92c2.2-0.18,4.42-0.03,6.63-0.02
		c0.27,0,0.54,0.04,0.8,0.09c6.04,0.97,8.17,4.61,5.9,10.31c-2.07,5.2-5.32,9.64-9.17,13.66c-0.18,0.19-0.36,0.38-0.69,0.73
		c0.41,0.24,0.71,0.44,1.03,0.6c4.55,2.22,8.38,5.38,11.69,9.15c1.14,1.29,2.08,2.82,2.83,4.38c1.12,2.31,0.72,4.59-0.77,6.67
		c-1.29,1.79-3,3.09-4.9,4.14c-5.37,2.96-11.16,4.62-17.18,5.59c-0.65,0.1-1.36,0.22-1.89,0.56c-7.92,5.09-16.55,8.69-25.32,11.98
		c-6.55,2.45-13.15,4.78-20.06,6.1c-0.19,0.04-0.37,0.15-0.66,0.27c0.11,0.51,0.19,1.03,0.33,1.52c3.63,12.91,6.29,26.02,7.97,39.32
		c1.07,8.48,1.65,17.01,1.94,25.56c0.35,10.38-0.09,20.73-1.1,31.05c-2.52,25.8-9.11,50.53-19.87,74.13
		c-9.52,20.9-21.56,40.18-36.92,57.33c-5.62,6.28-11.6,12.19-17.98,17.69c-0.77,0.66-1.43,1.35-1.78,2.37
		c-5.65,16.52-14.31,31.44-24.49,45.53c-8.22,11.37-17.36,21.97-27.03,32.12c-6.5,6.83-13.23,13.43-20.63,19.3
		c-1.42,1.13-2.84,2.28-4.37,3.26c-1.1,0.71-1.46,1.53-1.46,2.82c0.04,8.29-2.78,15.54-8.12,21.84c-1.8,2.12-3.9,3.89-6.4,5.17
		c-3.46,1.78-7.07,1.99-10.8,1.15c-3.91-0.88-7.54-2.49-10.97-4.52c-7.85-4.66-15.15-10.04-21.27-16.88
		c-1.34-1.5-2.57-3.13-3.61-4.85c-1.06-1.75-2.29-3.29-3.75-4.7c-1.01-0.98-1.97-2.04-2.83-3.15c-6.33-8.13-12.55-16.34-17.95-25.13
		c-1.9-3.09-3.57-6.31-5.41-9.6c-0.33,0.09-0.77,0.18-1.19,0.35c-7.6,2.97-15.5,4.43-23.62,4.85c-8.03,0.42-16,0.13-23.9-1.56
		c-15.45-3.31-27.93-11.27-37.5-23.82c-0.65-0.85-1.28-1.71-2.07-2.75c-1.05,2.06-1.98,3.91-2.93,5.75
		c-12.11,23.38-30.2,40.67-53.58,52.57c-13,6.62-26.69,11.11-41.11,13.31c-11.09,1.69-22.24,1.92-33.42,1.03
		c-12.55-1-24.77-3.48-36.61-7.77c-16.7-6.05-31.41-15.31-44.28-27.5c-17.41-16.49-28.43-36.66-34.24-59.79
		c-2.91-11.58-4.59-23.36-5.08-35.3c-0.61-14.79,0.93-29.29,5.43-43.43c4.99-15.66,13.27-29.37,24.51-41.32
		c5.19-5.51,10.92-10.39,17.2-14.62c0.59-0.4,1.13-0.97,1.48-1.58c2.96-5.12,5.87-10.28,8.8-15.42
		C126.52,437.46,126.63,437.22,126.86,436.75z"/>
	<g>
		<path class="st1" d="M445.61,577.59c0.08-1.52,0.15-2.85,0.23-4.17c1-16.58-0.08-32.96-4.64-49
			c-4.28-15.06-11.39-28.6-22.14-40.08c-2.35-2.51-4.43-5-5.82-8.27c-2.06-4.86-5.95-8.43-10.04-11.69
			c-5.28-4.22-11.1-7.35-17.88-8.37c-10.04-1.51-18.78,1.3-26.26,8.07c-1.41,1.28-2.87,2.29-4.67,3.01
			c-7.42,2.97-13.77,7.58-19.47,13.11c-10.93,10.59-18.84,23.1-23.72,37.53c-0.15,0.44-0.34,0.87-0.56,1.41
			c-0.4-0.24-0.76-0.41-1.05-0.65c-17.43-14.58-32.51-31.24-44.5-50.58c-6.95-11.2-12.11-23.26-16.4-35.69
			c-5.52-16-9.37-32.42-12.32-49.07c-1.7-9.61-3.05-19.27-3.86-29c-1.1-13.3-1.45-26.61-0.06-39.92
			c1.25-11.96,3.74-23.65,8.17-34.87c0.86-2.17,0.77-4.13-0.58-5.91c-1.58-2.08-3.21-4.17-5.1-5.97
			c-7.58-7.23-16.06-13.33-24.95-18.82c-7.33-4.52-14.86-8.71-22.31-13.04c-0.41-0.24-0.82-0.46-1.05-0.59
			c-0.5-3.13-0.82-6.14-1.47-9.08c-1.37-6.21-3.83-12.05-6.6-17.75c-7.64-15.75-16.74-30.58-28.06-43.98
			c-7.43-8.8-15.74-16.61-25.63-22.62c-0.22-0.14-0.41-0.32-0.86-0.68c1.25-0.31,2.25-0.59,3.27-0.8c12.4-2.52,24.88-4.58,37.45-6
			c10.1-1.14,20.22-2.01,30.39-2.21c4.71-0.09,9.42-0.29,14.13-0.25c11.92,0.12,23.81,0.75,35.64,2.25
			c2.07,0.26,4.13,0.71,6.21,0.75c2.73,0.05,5.48-0.23,8.22-0.36c0.25-0.94-0.34-1.27-0.85-1.49c-1.67-0.7-3.33-1.53-5.08-1.93
			c-5.24-1.2-10.52-2.22-15.79-3.3c-0.92-0.19-1.85-0.3-2.96-0.47c0.11-0.64,0.16-1.22,0.32-1.76
			c6.24-21.34,17.05-40.03,32.45-56.06c12.86-13.38,27.6-24.21,44.25-32.41c13.32-6.57,27.35-10.85,42.08-12.86
			c6.95-0.95,13.93-1.4,20.93-1.34c17.68,0.15,34.65,3.58,50.5,11.61c20.49,10.38,36.35,25.54,46.68,46.21
			c5.06,10.12,8.66,20.76,10.04,32.02c2.82,23.04-1.87,44.29-16.43,62.69c-10.56,13.35-24.23,22.53-40.79,26.84
			c-15.16,3.95-30,2.4-43.98-4.7c-13.6-6.91-21.54-18.44-24.17-33.21c-2.92-16.37,3.63-29.05,17.13-38.3
			c4.93-3.38,10.32-5.73,16.36-6.48c5.57-0.7,10.87,0.23,15.99,2.32c4.59,1.87,8.8,4.37,12.24,8.02c4.49,4.76,6.31,10.39,5.43,16.87
			c-0.26,1.93-0.8,3.82-1.08,5.75c-0.22,1.52-0.26,3.07-0.33,4.61c-0.02,0.46,0.06,0.95,0.21,1.39c0.32,0.88,0.62,1.88,1.71,2.07
			c1.15,0.2,1.68-0.74,2.14-1.54c1.74-3,2.86-6.25,3.54-9.62c1.09-5.4,0.76-10.71-1.47-15.83c-0.19-0.43-0.4-0.88-0.45-1.33
			c-0.57-5.72-3.01-10.72-6.11-15.43c-5.23-7.95-12.03-14.04-21.36-16.62c-11.76-3.26-23.23-2.42-33.96,3.77
			c-6.97,4.02-11.5,10.24-14.62,17.53c-3.14,7.32-4.89,14.95-4.69,22.96c0.08,3.44,0.42,6.85,1.43,10.16
			c0.17,0.57,0.32,1.19,0.3,1.78c-0.5,11.53,2.97,21.87,9.23,31.41c0.33,0.51,0.72,0.99,0.97,1.53c3.35,7.51,8.46,13.72,14.34,19.35
			c6.03,5.77,12.69,10.64,20.44,13.86c21,8.73,45.3,5.04,62.25-13.93c8.26-9.25,13.96-19.91,16.76-32.03
			c0.37-1.61,0.96-3.01,1.86-4.38c5.33-8.15,8.86-17.05,10.9-26.55c0.17-0.78,0.35-1.57,0.58-2.59c2.56,1.18,5,2.26,7.41,3.43
			c17.57,8.51,33.43,19.59,48.18,32.29c29.66,25.54,53.74,55.57,72.25,90.06c11.79,21.97,21.12,44.91,27.01,69.19
			c2.86,11.79,4.87,23.71,5.95,35.8c0.74,8.32,1.09,16.66,0.92,25.01c-0.3,14.63-1.92,29.12-4.94,43.46
			c-4.5,21.37-11.43,41.9-21.22,61.44c-8.53,17.02-19.34,32.47-32.41,46.34c-2.68,2.84-5.98,4.79-9.24,6.79
			c-12.72,7.82-26.49,13.13-40.89,16.9c-10.95,2.87-22.08,4.78-33.36,5.81c-7.92,0.73-15.84,1.15-23.79,1.04
			c-9.49-0.13-18.96-0.65-28.39-1.83C451.09,578.26,448.43,577.94,445.61,577.59z M313.16,283.65c0.22,0.42,0.41,0.69,0.52,0.99
			c1.07,2.9,2.19,5.79,3.19,8.71c5.22,15.29,9.43,30.87,13.3,46.54c2.8,11.37,5.36,22.78,6.11,34.53c0.1,1.64,0.65,3.31,1.29,4.84
			c1.07,2.57,3.04,4.41,5.85,4.75c5.41,0.66,10.3-0.75,13.72-5.13c2.61-3.34,4.35-7.23,4.46-11.66c0.16-6.15-0.5-12.23-1.32-18.3
			c-1.44-10.7-3.89-21.18-7.58-31.32c-6.42-17.6-14.28-34.44-26.72-48.75c-0.48-0.55-0.74-1.07-0.61-1.81
			c0.65-3.95-0.21-7.77-1.07-11.58c-0.66-2.9-1.62-5.7-3.43-8.12c-3.41-4.55-8.53-5.13-12.79-1.38c-2.93,2.58-5.07,5.73-6.54,9.34
			c-0.21,0.52-0.42,1.05-0.7,1.77c-0.3-0.49-0.49-0.75-0.65-1.04c-1.95-3.66-4.45-6.91-7.47-9.73c-1.41-1.32-2.98-2.55-4.67-3.47
			c-3.41-1.86-6.3-0.94-8.11,2.53c-0.83,1.59-1.43,3.35-1.84,5.1c-1.2,5.07-1.41,10.25-1.28,15.45c0.08,3.11,0.52,6.16,1.7,9.07
			c0.17,0.42,0.16,1.08-0.05,1.48c-3,5.79-4.63,12.03-6.12,18.33c-2.07,8.78-3.57,17.67-4.69,26.61c-0.9,7.21-1.57,14.45-2.13,21.69
			c-0.44,5.71-0.37,11.44,0.81,17.08c0.26,1.24,0.67,2.46,1.11,3.65c0.26,0.69,0.71,1.33,1.61,1.32c0.9-0.01,1.37-0.65,1.56-1.36
			c0.4-1.42,0.79-2.86,0.92-4.32c0.39-4.49,0.55-9,0.98-13.48c0.83-8.57,1.7-17.14,2.7-25.69c1.11-9.56,2.45-19.08,4.41-28.51
			c1.04-5,2.77-9.7,5.82-13.84c0.35-0.47,0.74-1.1,1.24-1.26c2.02-0.64,4.09-1.12,6.23-1.69c0.83,4.8,4.16,7.11,8.04,8.82
			C305,285.63,309.08,285.32,313.16,283.65z M488.46,246.03c0.77-1.11,1.52-2.06,2.13-3.09c0.73-1.23,0.7-2.59-0.04-2.94
			c-1.1-0.52-1.7,0.38-2.39,0.99c-2.17,1.9-4.22,3.98-6.57,5.64c-8.59,6.09-17.79,11.09-27.53,15.09c-0.62,0.26-1.26,0.48-1.85,0.8
			c-1.79,0.98-2.2,2.47-1.11,4.23c0.46,0.74,1.01,1.43,1.6,2.07c4.7,5.06,9.97,9.43,16.01,12.8c3.32,1.85,6.88,3.03,10.72,3.26
			c6.23,0.37,11.39-3.03,13.28-8.99c0.56-1.78,0.88-3.66,1.05-5.52c0.38-4.14-0.38-8.17-1.46-12.15c-0.51-1.88-1.24-3.73-1.5-5.64
			C490.48,250.25,489.78,248.13,488.46,246.03z M407.1,259.44c-0.05-0.55-0.08-1.02-0.15-1.49c-0.08-0.53-0.16-1.07-0.3-1.58
			c-1.64-6.11-4.68-11.44-9.05-15.99c-1.88-1.95-4.05-3.56-6.73-4.29c-2.23-0.61-4.33,0.18-5.25,1.93c-0.63,1.2-0.66,2.51-0.33,3.74
			c0.45,1.68,1.04,3.34,1.73,4.94c2.49,5.81,6.79,10.32,11,14.84c1.01,1.08,2.51,1.84,3.93,2.37c2.38,0.89,4.47-0.45,4.97-2.95
			C407.02,260.44,407.04,259.89,407.1,259.44z M512.56,212.52c-0.19-3.09-1.81-8.04-3.78-10.64c-1.87-2.47-3.79-4.9-5.7-7.34
			c-0.33-0.42-0.69-0.83-1.11-1.16c-1.27-0.98-2.45-0.91-3.64,0.16c-1.45,1.3-1.6,2.64-0.35,4.26c1.48,1.92,3.04,3.77,4.56,5.66
			c2.15,2.67,3.2,5.77,3.3,9.14c0.09,3-1.13,5.53-3.54,7.36c-1.2,0.91-1.53,1.99-1.08,3.36c0.71,2.19,2.33,2.92,4.43,1.91
			c2.47-1.19,4.28-3.12,5.16-5.69C511.59,217.26,512,214.86,512.56,212.52z M427.24,258.63c-0.12-6.07-1.37-10.73-4.81-14.58
			c-0.79-0.88-1.79-1.63-2.83-2.21c-1.18-0.66-2.18-0.33-3.04,0.69c-1.01,1.19-1.04,2.56-0.04,4.08c0.88,1.35,1.83,2.65,2.67,4.03
			c2.89,4.69,2.61,12.09-2.69,16.42c-0.81,0.66-1.52,1.54-2.01,2.47c-0.61,1.17-0.28,2.37,0.64,3.33c0.87,0.91,2.07,0.99,2.97,0.39
			c1.89-1.25,4.07-2.42,5.33-4.19C425.79,265.71,427.71,262,427.24,258.63z M469.99,197.6c0.06,1.69,0.51,3.96,1.71,5.93
			c2.51,4.16,5.55,7.93,9.15,11.22c1.44,1.31,3.21,1.95,5.14,2.06c2.27,0.13,3.51-0.97,3.29-3.25c-0.18-1.85-0.46-3.82-1.27-5.45
			c-2.36-4.79-5.56-9.03-9.46-12.72c-1.21-1.14-2.68-1.76-4.33-2C471.33,192.97,470.02,194.08,469.99,197.6z M397.78,304.51
			c3.02-0.1,5.36-0.66,7.66-1.46c6.18-2.15,11.44-5.95,16.77-9.59c1.61-1.1,2.75-2.75,3.46-4.63c1.71-4.52-1.69-9.33-6.48-9.13
			c-1.27,0.05-2.56,0.19-3.79,0.51c-7.11,1.81-13.39,5.21-18.87,10.06c-1.72,1.52-3.18,3.33-3.86,5.59
			C391.34,300.23,393.58,304.82,397.78,304.51z M524.5,230.17c2.64,0.07,5.05-0.77,7.24-2.15c3.21-2.02,6.08-4.48,8.32-7.55
			c0.85-1.17,1.57-2.55,1.94-3.94c1.04-3.88-2.27-7.39-6.2-6.62c-1.23,0.24-2.45,0.76-3.54,1.39c-4.04,2.32-7.76,5.11-10.93,8.54
			c-0.81,0.88-1.53,1.9-2.05,2.97c-1.79,3.66,0.16,7.01,4.22,7.35C523.82,230.19,524.16,230.17,524.5,230.17z"/>
		<path class="st2" d="M313.24,599.4c-1.08-0.47-1.73-0.74-2.37-1.04c-15.51-7.25-29.81-16.43-43-27.34
			c-18.09-14.96-33.44-32.4-46.62-51.75c-24.18-35.49-41.78-73.97-52.09-115.72c-3.51-14.19-6.08-28.55-7.58-43.1
			c-0.48-4.62-0.79-9.25-1.26-13.87c-0.11-1.1,0.16-1.92,0.79-2.79c4.37-6,9.22-11.59,14.34-16.95c9.45-9.89,19.34-19.31,30-27.9
			c7.25-5.84,14.79-11.25,23.17-15.39c3.31-1.64,6.72-3.03,10.59-3.92c-0.2,0.72-0.31,1.28-0.5,1.81
			c-4.31,11.91-6.65,24.23-7.6,36.85c-0.89,11.78-0.61,23.53,0.39,35.29c2.06,24.36,6.65,48.23,13.82,71.6
			c4.63,15.11,10.58,29.66,18.83,43.19c6.93,11.36,15.18,21.73,24.21,31.49c6.41,6.93,13.3,13.35,20.52,19.42
			c0.46,0.39,0.9,0.79,1.32,1.17c-0.77,3.36-1.59,6.61-2.26,9.9c-1.56,7.67-2.23,15.45-2.43,23.26c-0.22,8.43,0.14,16.82,1.64,25.14
			c1.15,6.38,2.85,12.59,5.31,18.59C312.66,597.85,312.85,598.4,313.24,599.4z"/>
		<path class="st1" d="M112.15,467.02c-0.44,3.11-0.96,5.81-1.18,8.53c-0.7,8.87,1.81,16.64,8.29,22.92
			c4.43,4.29,9.73,7.18,15.5,9.22c4.01,1.42,8.13,2.38,12.35,2.94c0.59,0.08,1.18,0.23,1.95,0.38c-0.38,0.54-0.66,0.96-0.96,1.37
			c-2.33,3.12-3.8,6.66-4.87,10.36c-4.88,16.87-3.66,33.34,3.96,49.13c2.76,5.73,5.47,11.55,9.23,16.77
			c5.77,8.01,12.32,15.29,19.78,21.77c6.76,5.87,13.42,11.86,20.1,17.81c6.93,6.17,9.16,13.85,7.19,22.83
			c-0.16,0.72-0.35,1.44-0.54,2.15c-2.14,8.02-7.04,13.29-15.2,15.39c-5.53,1.42-11.13,1.84-16.81,1.45
			c-11.67-0.81-22.76-3.99-33.54-8.34c-2.28-0.92-4.36-2.39-6.44-3.75c-22.23-14.59-37.57-34.57-46.45-59.57
			c-4.42-12.44-7.05-25.27-8-38.42c-1.57-21.73,1.99-42.51,11.98-62.03c5.53-10.82,12.51-20.57,21.43-28.88
			C110.57,468.42,111.26,467.82,112.15,467.02z"/>
		<path class="st2" d="M335.35,589.86c-0.14-13.06,2.33-24.96,7.85-36.13c5.38-10.89,12.62-20.34,22.37-27.71
			c6.36-4.81,13.51-7.82,21.5-8.45c10.87-0.85,20.8,1.91,29.69,8.28c11.17,8,17.38,18.98,19.71,32.38
			c2.19,12.62,0.16,24.8-3.87,36.73c-3.46,10.26-9.12,19.17-17.27,26.39c-8.64,7.65-18.8,11.61-30.29,12.17
			c-9.28,0.45-18.43-0.42-27.28-3.34c-3.56-1.17-6.94-2.89-10.4-4.36c-1.41-0.6-2.4-1.64-3.26-2.9c-3.82-5.6-6.14-11.79-7.44-18.39
			C335.65,599.48,335.21,594.39,335.35,589.86z"/>
		<path class="st2" d="M253.61,569.06c24.39,20.09,25.37,21.93,59.13,39.26c-0.2,0.6-0.39,1.23-0.62,1.84
			c-7.1,18.8-19.2,33.67-35.65,45.05c-16.15,11.17-33.96,18.21-53.39,21.16c-11.85,1.8-23.72,1.92-35.63,0.81
			c-12.82-1.19-25.21-4.08-37.13-8.99c-0.98-0.41-1.95-0.86-2.85-1.58c0.4,0.06,0.81,0.08,1.2,0.2c6.4,1.9,12.88,3.39,19.54,4
			c6.81,0.63,13.55,0.47,20.22-1.35c7.84-2.14,12.78-7.14,15.16-14.79c1.65-5.29,2.3-10.65,0.71-16.09
			c-1.34-4.61-4.07-8.29-7.62-11.44c-7.4-6.57-14.84-13.1-22.2-19.71c-7.35-6.6-13.75-14.03-19.12-22.33
			c-0.42-0.65-0.77-1.34-0.9-2.2c1.32,1.32,2.57,2.7,3.96,3.94c8.82,7.82,19.04,12.87,30.63,14.93c7.25,1.29,14.49,0.65,21.64-1.07
			c11.45-2.75,21.82-7.63,30.58-15.63c4.51-4.12,8.22-8.89,11.25-14.18C252.86,570.32,253.21,569.75,253.61,569.06z"/>
		<path class="st1" d="M135,344.36c0,2.81-0.04,5.83,0.01,8.84c0.51,34.91,7.17,68.54,21.08,100.63
			c6.29,14.51,14.21,28.08,24.06,40.49c0.25,0.32,0.5,0.63,0.74,0.96c0.07,0.1,0.1,0.24,0.24,0.59c-0.56,0.43-1.14,0.95-1.79,1.38
			c-13.91,9.28-28.48,10.51-43.65,3.43c-2.79-1.3-5.46-2.92-8.04-4.62c-6.25-4.12-9.29-10.09-9.62-17.5
			c-0.27-6.01,0.98-11.79,3.04-17.38c1.16-3.14,2.55-6.22,4.11-9.19c2.38-4.52,4.97-8.94,7.51-13.37c1.97-3.43,1.73-4.74-1.77-6.63
			c-3.55-1.92-7.25-3.55-10.81-5.45c-16.53-8.79-30.99-20.18-42.93-34.64c-2.43-2.94-4.5-6.21-6.47-9.49
			c-4.25-7.07-3.68-14.24,0.05-21.33c2.41-4.58,5.96-8.1,10.21-10.98c5.96-4.04,12.62-6.31,19.64-7.53
			c11.01-1.92,21.98-1.4,32.86,1.06c0.33,0.07,0.65,0.16,0.97,0.27C134.55,343.95,134.64,344.07,135,344.36z"/>
		<path class="st1" d="M487.3,135.4c0.14-2.76,0.37-5.31,0.37-7.85c0.03-17.27-2.32-34.1-9.95-49.83
			c-2.08-4.28-4.73-8.29-7.13-12.42c-0.33-0.57-0.72-1.12-1.16-1.8c0.65-0.39,1.2-0.75,1.77-1.06c6.93-3.76,14.11-6.96,21.51-9.7
			c1.13-0.42,2.17-0.46,3.33-0.16c10.76,2.76,20.82,7.24,30.52,12.57c10.47,5.76,20.44,12.23,29.27,20.35
			c3.25,2.99,3.22,2.98,3.88,7.31c1.41,9.26,2.28,18.55,2.5,27.92c0.43,17.81-1.61,35.31-5.98,52.56c-0.58,2.27-1.21,4.52-1.92,7.14
			C533.74,162.52,511.39,147.78,487.3,135.4z"/>
		<path class="st3" d="M15.15,190.99c0.07-1.52,0.92-2.48,1.73-3.45c4.11-4.96,8.97-9.09,14.24-12.76
			c10.01-6.96,20.95-12.11,32.25-16.54c16.13-6.31,32.77-10.96,49.6-14.99c1.06-0.25,1.95-0.09,2.91,0.31
			c7.42,3.14,13.78,7.84,19.58,13.35c10.39,9.86,18.62,21.4,26.05,33.55c5.21,8.52,9.76,17.37,12.86,26.89
			c1.16,3.57,1.97,7.26,2.91,10.91c0.15,0.56,0.13,1.17,0.21,2.03c-2.41-1.17-4.57-2.23-6.74-3.27
			c-17.89-8.63-36.19-16.28-55.07-22.49c-14.91-4.91-30.07-8.82-45.56-11.39c-14.92-2.48-29.93-3.49-45.05-2.85
			c-2.62,0.11-5.23,0.39-7.85,0.59C16.57,190.92,15.91,190.95,15.15,190.99z"/>
		<path class="st2" d="M417.05,630.27c2.03-1.55,4.02-3.14,6.1-4.6c0.49-0.35,1.27-0.37,1.93-0.39c9.28-0.29,18.55-0.92,27.76-2.06
			c17.94-2.22,35.51-6.06,52.66-11.84c21.5-7.24,41.65-17.14,60.06-30.47c0.32-0.23,0.67-0.43,1.31-0.48
			c-0.34,0.83-0.67,1.66-1.02,2.48c-3.29,7.55-7.4,14.65-11.91,21.52c-9.18,13.98-19.4,27.16-30.85,39.37
			c-9.1,9.7-19.02,18.45-30.3,25.6c-7.31,4.63-15.09,7.67-23.83,7.85c-10.71,0.23-20.61-2.15-28.8-9.45
			c-2.39-2.13-4.52-4.63-6.45-7.19c-6.89-9.13-12.15-19.19-16.55-29.73C417.09,630.72,417.1,630.51,417.05,630.27z"/>
		<path class="st1" d="M414.94,489.82c16.6,20.65,22.81,44.43,22.98,70.2c-0.65-2.87-1.14-5.78-1.98-8.59
			c-4.94-16.46-15.49-27.79-31.86-32.97c-15.42-4.88-29.64-1.67-41.86,8.9c-14.67,12.7-23.78,28.69-26.85,47.94
			c-1.7,10.66-1.62,21.31,0.81,31.88c1.23,5.35,3.26,10.39,6.19,15.04c0.24,0.39,0.47,0.78,0.53,1.42
			c-0.47-0.28-0.97-0.51-1.41-0.84c-7.55-5.49-13.33-12.48-17.61-20.74c-5.04-9.73-7.98-20.11-9.16-30.98
			c-2.17-19.86,0.02-39.23,6.98-57.97c5.46-14.7,14.36-27.02,26.48-37c0.48-0.4,1.02-0.74,1.8-0.86c-0.48,0.93-0.96,1.86-1.45,2.78
			c-1.32,2.52-2.37,5.13-2.82,7.95c-0.62,3.91,0.33,7.31,3.26,10.11c4.41,4.23,9.69,6.72,15.59,8c6.11,1.33,12.29,1.41,18.47,0.78
			c6.44-0.66,12.8-1.71,18.9-4c2.85-1.07,5.56-2.39,7.95-4.32c1.91-1.55,3.47-3.37,4.45-5.65
			C414.45,490.63,414.64,490.37,414.94,489.82z"/>
		<path class="st1" d="M233.65,583.22c-3.62,2.73-7.42,4.85-11.42,6.65c-7.59,3.4-15.52,5.44-23.84,5.38
			c-13.29-0.09-25.38-3.72-35.24-13.12c-5.05-4.82-8.66-10.63-11.21-17.09c-3.67-9.29-5.78-18.92-5.56-28.95
			c0.2-8.78,2.69-16.82,8.21-23.8c0.9-1.13,1.84-1.7,3.37-1.75c4.1-0.14,8.19-0.48,12.29-0.79c0.79-0.06,1.58-0.31,2.33-0.59
			c3.35-1.28,6.48-2.98,9.41-5.03c0.54-0.38,1.1-0.74,1.82-1.23c0.25,1,0.48,1.83,0.66,2.66c2.23,10.44,6.55,20.05,11.82,29.26
			c8.32,14.54,18.05,28.08,29.36,40.44C228.13,577.98,230.87,580.47,233.65,583.22z"/>
		<path class="st2" d="M581.64,557.46c-0.45,0.45-0.89,0.91-1.36,1.35c-13.6,12.52-28.74,22.84-45.18,31.25
			c-22.42,11.47-46.1,19.33-70.76,24.29c-10.89,2.19-21.89,3.61-32.98,4.36c-0.31,0.02-0.62-0.05-1.27-0.11
			c9.47-11.74,13.53-25.31,15.33-39.93c2.34,0.27,4.58,0.52,6.82,0.79c12.11,1.48,24.25,2.11,36.45,1.91
			c8.01-0.13,15.99-0.67,23.94-1.67c20.29-2.56,39.87-7.61,58.29-16.69c3.07-1.51,6.02-3.29,9.02-4.95c0.5-0.28,1-0.57,1.49-0.86
			C581.5,557.29,581.57,557.37,581.64,557.46z"/>
		<path class="st2" d="M190.98,484.97c-2.82,3.58-5.82,6.71-9.46,9.59c-2.58-3.55-5.15-6.91-7.54-10.4
			c-10.15-14.8-17.76-30.87-23.64-47.78c-5.14-14.77-8.81-29.92-11.19-45.37c-1.58-10.24-2.67-20.54-3-30.91
			c-0.14-4.3-0.19-8.61-0.27-12.91c-0.01-0.66,0-1.32,0-2.24c1.51,0.45,2.81,0.74,4.04,1.22c4.51,1.75,8.99,3.57,13.5,5.33
			c1.01,0.4,1.34,1.06,1.42,2.14c0.97,13.7,2.78,27.29,5.33,40.78c3.93,20.73,9.65,40.95,17.35,60.61
			c3.66,9.33,7.72,18.49,12.24,27.44C190.14,483.25,190.52,484.03,190.98,484.97z"/>
		<path class="st1" d="M679.24,258.5c-0.04,4.17,1.95,7.58,4.52,11.28c-4.71-1.63-8.95-3.15-13.55-2.38
			c0.78,1.06,2.46,2.29,4.4,3.16c2.33,1.05,4.67,2.07,7.01,3.1c1.49,0.66,2.78,1.57,3.79,2.9c-3.65,2.27-44.76,10.83-53.39,10.94
			c-4.3-9.76-9.02-19.41-14.27-28.79c-5.21-9.31-10.94-18.3-17.27-27.32C626.96,240.49,653.05,249.48,679.24,258.5z"/>
		<path class="st2" d="M184.89,502.34c3.25-3.5,6.43-6.93,9.73-10.48c14.74,26.8,32.39,51.43,54.53,72.86
			c-3.5,6.94-8.24,12.76-14.49,17.73c-1.13-0.99-2.24-1.92-3.31-2.91c-6.23-5.81-11.61-12.36-16.75-19.11
			c-8.14-10.67-15.54-21.82-21.52-33.86C189.02,518.38,185.98,509.36,184.89,502.34z"/>
		<path class="st4" d="M376.74,496.66c-4.66-0.1-9.28-0.41-13.77-1.76c-2.8-0.84-5.35-2.11-7.62-3.99c-2.2-1.83-2.71-4.07-1.93-6.69
			c0.25-0.83,0.55-1.67,0.98-2.42c3.89-6.78,9.03-12.37,15.98-16.1c6.25-3.36,12.71-3.6,19.24-0.8c5.52,2.37,10.27,5.85,14.31,10.28
			c2.01,2.21,3.58,4.7,4.02,7.76c0.46,3.21-0.44,5.95-3.16,7.75c-1.83,1.21-3.88,2.16-5.94,2.9c-4.07,1.45-8.36,2.02-12.64,2.44
			C383.06,496.34,379.9,496.46,376.74,496.66z"/>
		<path class="st2" d="M670.3,294.72c2.27,0.83,4.45,0.53,6.45-0.15c5.41-1.85,9.91-5.11,13.41-9.64c1.77-2.29,2.04-3.87,1.89-7.66
			c1.04,0,2.08,0,3.24,0c1.15,4.84,1.51,9.68-0.03,14.52c-0.89,2.78-2.38,5.15-4.99,6.6c-3.58,2-7.13,4.08-10.82,5.86
			c-9.47,4.57-19.19,8.51-29.44,10.99c-1.5,0.36-3.02,0.68-4.54,0.98c-0.78,0.15-1.58,0.22-2.37,0.33
			c-3.42-9.25-6.81-18.43-10.23-27.66c8.8-1.57,17.73-2.98,26.59-4.78c8.88-1.8,17.67-3.99,26.55-6.02
			c0.46,1.19,0.02,2.23-0.55,3.24c-1.11,1.97-2.66,3.55-4.5,4.85c-2.69,1.9-5.42,3.76-8.15,5.61
			C670.99,293,670.82,293.16,670.3,294.72z"/>
		<path class="st2" d="M471.6,177.2c-0.05,0.39-0.03,0.79-0.14,1.16c-4.51,15.11-12.31,28.05-25.17,37.52
			c-10.77,7.93-22.92,10.91-36.19,9.58c-12.37-1.25-22.91-6.52-32.25-14.47c-5.4-4.6-10.27-9.7-14.14-15.69
			c-0.35-0.54-0.66-1.11-0.8-1.84c0.19,0.14,0.39,0.27,0.56,0.43c6.92,6.89,15.39,10.95,24.68,13.5c9.18,2.51,18.53,3.37,27.99,2.45
			c11.11-1.08,21.32-4.87,30.71-10.89c9.02-5.78,17.11-12.61,23.76-21.06c0.2-0.26,0.46-0.47,0.69-0.7
			C471.34,177.18,471.43,177.2,471.6,177.2z"/>
		<path class="st2" d="M426.05,128.83c-0.39-0.51-0.79-1.02-1.18-1.53c-5.08-6.52-11.24-11.56-19.28-14.01
			c-5.51-1.68-11.13-1.88-16.79-1.06c-7.54,1.09-14.69,3.3-21,7.76c-7.04,4.99-11.69,11.8-14.98,19.64
			c-1.59,3.79-2.72,7.72-3.48,12.13c-0.29-0.6-0.5-0.86-0.54-1.15c-1.81-13.15,0.9-25.34,8.21-36.38
			c5.79-8.75,14.34-13.16,24.57-14.55c6-0.82,11.95-0.62,17.81,1.01c6.87,1.91,12.62,5.65,17.32,10.97c4.18,4.74,7.52,10,9.34,16.12
			c0.09,0.31,0.15,0.62,0.23,0.93C426.21,128.76,426.13,128.8,426.05,128.83z"/>
		<path class="st3" d="M503.54,49.11c2.58-0.71,5.15-1.45,7.74-2.13c6.52-1.7,13.09-3.09,19.84-3.46c1.27-0.07,2.56-0.02,3.83,0.03
			c4.38,0.17,7.85,2.08,10.55,5.5c2.45,3.09,4.22,6.55,5.71,10.17c2.42,5.86,4.08,11.95,5.51,18.12c0.04,0.18,0.01,0.39,0.01,0.78
			C541.16,64.4,523.12,55.58,503.54,49.11z"/>
		<path class="st4" d="M490.75,678.82c-0.21,2.22-0.21,3.98-0.57,5.66c-0.89,4.24-2.75,8-5.99,10.98c-2.38,2.19-5.11,3.29-8.33,2.26
			c-2.36-0.76-4.75-1.51-6.97-2.6c-5.82-2.85-11.23-6.38-16.23-10.52c-0.52-0.43-1-0.9-1.48-1.36c-0.08-0.08-0.07-0.24-0.16-0.63
			C464.57,686.35,477.57,684.64,490.75,678.82z"/>
		<path class="st4" d="M699.85,253.14c1.46,0.17,3.15,0.24,4.77,0.61c2.19,0.49,2.74,1.65,1.82,3.72c-0.62,1.41-1.3,2.83-2.2,4.06
			c-1.81,2.49-3.71,4.94-5.75,7.25c-0.95,1.08-2.26,1.88-3.48,2.67c-0.92,0.6-1.91,0.46-2.81-0.24c-1.69-1.32-3.53-2.49-5.09-3.95
			c-4.09-3.84-3.47-9.39,1.18-11.78c1.75-0.9,3.77-1.39,5.73-1.78C695.84,253.32,697.74,253.32,699.85,253.14z"/>
		<path class="st4" d="M699.23,297.5c1.18-2.48,1.91-5.03,1.98-7.72c0.07-2.59,0.01-5.17,0.01-8.08c2.18,1.42,4.35,2.59,6.18,4.22
			c1.29,1.15,2.5,2.43,3.56,3.79c0.86,1.12,0.68,1.72-0.25,2.64C708.82,294.23,702.22,297.21,699.23,297.5z"/>
		<path class="st2" d="M358.28,374.95c-2.29,5.56-8.68,9.19-14.48,8.09c-2.45-0.46-4.29-1.75-5.17-4.03
			c-0.72-1.86-1.35-3.86-1.47-5.83c-0.65-10.53-2.93-20.77-5.38-30.97c-3.83-15.96-8.13-31.79-13.3-47.37
			c-1.29-3.88-2.73-7.72-4.05-11.45c1.43-1.52,3.06-2.8,4.09-4.46c0.99-1.59,1.37-3.56,2.1-5.58c0.73,0.81,1.41,1.53,2.05,2.29
			c4.07,4.8,7.31,10.16,10.13,15.76c8.94,17.73,15.96,36.17,20.21,55.6c1.31,5.99,2.18,12.04,2.68,18.15
			c0.15,1.87,0.43,3.75,0.88,5.57C356.9,372.06,357.59,373.3,358.28,374.95z"/>
		<path class="st4" d="M316.22,266.63c-0.13,3.32-0.99,6.41-2.71,9.22c-2.61,4.27-8.08,5.68-12.34,3.06
			c-3.14-1.93-4.96-5.78-1.31-9.56c2.5-2.59,5.56-4.64,8.46-6.83c0.83-0.63,1.94-0.91,2.94-1.29c2.26-0.87,4.07,0.61,4.55,2.42
			C316.05,264.61,316.09,265.63,316.22,266.63z"/>
		<path class="st4" d="M282.94,268.49c-0.97-1.4-1.16-3.02-1.25-4.62c-0.24-4.25,0.21-8.45,1.15-12.6c0.06-0.26,0.11-0.53,0.2-0.78
			c0.87-2.75,2.27-3.25,4.65-1.67c0.17,0.11,0.34,0.22,0.48,0.36c3.47,3.41,6.16,7.3,7.06,12.17c0.62,3.38-2,6.62-5.45,6.9
			c-2.01,0.16-4.02,0.23-6.03,0.33C283.49,268.6,283.23,268.53,282.94,268.49z"/>
		<path class="st1" d="M321.18,264c-1.08,0.05-1.19-0.67-1.37-1.31c-0.31-1.03-0.53-2.09-0.91-3.09c-1.17-3.06-3.12-4.29-6.38-4.12
			c-1.93,0.1-3.65,0.83-5.32,1.72c-0.53,0.28-1.05,0.57-1.82,0.98c0.1-0.56,0.09-0.93,0.22-1.23c0.89-1.98,2.09-3.77,3.72-5.21
			c3.16-2.79,6.44-2.37,8.62,1.22C320.01,256.33,321.08,260.02,321.18,264z"/>
		<path class="st5" d="M459.01,266.27c10.76-3.82,20.74-3.16,30.19,2.78c0.43,6.47-4.79,11.45-11.05,10.62
			c-3.75-0.49-7.18-1.78-10.04-4.31c-1.81-1.6-3.57-3.27-5.29-4.97C461.59,269.16,460.45,267.84,459.01,266.27z"/>
		<path class="st6" d="M488.13,258.53c0.59,1.85,1.16,4.09,1.28,6.78c-5.67-2.98-11.44-4.71-17.62-5.4
			c2.44-1.61,4.87-3.23,7.22-4.78C481.99,256.24,484.91,257.33,488.13,258.53z"/>
		<path class="st4" d="M481.93,252.49c0.8-0.95,1.61-1.93,2.43-2.89c0.47-0.55,0.96-1.09,1.56-1.76c1.53,2.28,2.42,4.61,2.78,7.16
			C486.6,255.41,483.88,254.42,481.93,252.49z"/>
		<path class="st4" d="M398.06,246.89c-0.02,1.93-1.16,2.85-3.03,2.34c-0.7-0.19-1.41-0.5-1.98-0.93c-2.16-1.6-3.77-3.63-4.46-6.28
			c-0.18-0.7-0.26-1.47-0.17-2.18c0.16-1.24,1.02-1.86,2.26-1.78c0.33,0.02,0.67,0.1,0.99,0.2
			C394.66,239.16,398.09,243.8,398.06,246.89z"/>
		<path class="st4" d="M480.9,202.63c-0.01,2.1-1.25,3.05-3.29,2.52c-2.94-0.76-5.83-4.76-5.64-7.8c0.1-1.66,0.96-2.44,2.59-2.34
			c0.27,0.02,0.54,0.05,0.79,0.12C478.08,195.89,480.92,199.73,480.9,202.63z"/>
		<path class="st7" d="M398.4,303.4c-3.59-0.01-5.78-2.79-5-6.33c0.45-2.04,1.56-3.75,3.03-5.15c1.6-1.52,3.29-3.01,5.12-4.22
			c4.79-3.16,9.84-5.82,15.6-6.8c0.53-0.09,1.07-0.14,1.6-0.2c2.28-0.25,4.04,0.46,5.29,2.51c1.32,2.17,1.55,4.32,0.06,6.42
			c-0.84,1.2-1.75,2.49-2.94,3.26c-4.04,2.65-8.14,5.23-12.38,7.57C405.59,302.22,402.13,303.38,398.4,303.4z"/>
		<path class="st7" d="M524.39,229.18c-0.39-0.05-1.07-0.07-1.72-0.22c-2.55-0.59-3.81-2.91-2.62-5.24c0.81-1.58,1.85-3.2,3.18-4.33
			c2.9-2.48,6.02-4.69,9.11-6.94c0.8-0.58,1.78-0.92,2.71-1.3c1.7-0.68,3.28-0.5,4.64,0.83c1.45,1.42,1.85,3.1,1.12,4.97
			c-0.39,0.99-0.9,1.97-1.54,2.81c-2.25,2.97-5.02,5.41-8.16,7.4C529.17,228.4,527.01,229.11,524.39,229.18z"/>
	</g>
</g>
</svg>
