<?xml version="1.0" encoding="utf-8"?>
<!-- Generator: Adobe Illustrator 24.3.0, SVG Export Plug-In . SVG Version: 6.00 Build 0)  -->
<svg version="1.1" id="Layer_1" xmlns="http://www.w3.org/2000/svg" xmlns:xlink="http://www.w3.org/1999/xlink" x="0px" y="0px"
	 viewBox="0 0 720 720" style="enable-background:new 0 0 720 720;" xml:space="preserve">
<style type="text/css">
	.st0{fill:#211D1C;}
	.st1{fill:#F1D8DD;}
	.st2{fill:#E89EA3;}
	.st3{fill:#F1D9DE;}
	.st4{fill:#83692A;}
	.st5{fill:#DCEDE6;}
	.st6{fill:#B8CBC3;}
	.st7{fill:#FFFFFF;}
	.st8{fill:#6262AB;}
	.st9{fill:#DF7F80;}
	.st10{fill:#B05159;}
	.st11{fill:#4F2A33;}
	.st12{fill:#E56E87;}
</style>
<g>
	<path class="st0" d="M615.18,247.73c2.72,0.58,5.08,1.05,7.42,1.59c5.18,1.19,10.38,2.27,15.5,3.66c3.91,1.06,7.49,3,10.95,5.1
		c0.46,0.28,0.9,0.59,1.34,0.89c2.96,2.02,3.9,4.8,3.25,8.26c-0.9,4.81-3.36,8.75-6.66,12.23c-3.58,3.78-7.45,7.21-11.97,9.85
		c-0.39,0.23-0.73,0.54-1.28,0.95c2.21,0.8,4.22,1.48,6.2,2.25c8.73,3.41,17.24,7.27,24.97,12.66c8.31,5.8,15.13,13.1,21.33,21.06
		c12.6,16.18,20.54,34.47,24.95,54.4c3.06,13.84,4.61,27.86,5.05,42.02c0.26,8.35,0.25,16.7-0.3,25.02
		c-1.61,24.33-9.57,46.4-24.07,66.02c-15.07,20.39-34.13,36.13-56.58,47.81c-18.72,9.74-38.62,16.03-59.34,19.72
		c-5.35,0.95-10.81,1.28-16.24,1.74c-2.88,0.25-3.32,0.48-4.4,3.2c-2.73,6.88-5.26,13.84-8.32,20.57
		c-10.49,23.08-24.17,44.12-41.04,63.06c-5.93,6.66-12.63,12.47-19.96,17.58c-5.41,3.77-11.09,4.51-17.25,2.38
		c-7.98-2.76-15.54-6.43-22.72-10.85c-13.22-8.15-25.59-17.45-36.65-28.37c-4.45-4.39-8.65-9.05-12.72-13.8
		c-1.88-2.19-3.69-2.99-6.62-2.56c-9.85,1.48-19.78,2.32-29.73,2.74c-11.64,0.48-23.28,0.4-34.92-0.12
		c-22.49-1-44.81-3.38-66.77-8.53c-5.76-1.35-11.46-2.97-17.16-4.55c-1.13-0.31-1.89-0.16-2.71,0.65
		c-10.52,10.34-23.06,17.59-36.34,23.71c-22.08,10.18-45.02,17.81-68.8,22.88c-10.07,2.15-20.21,3.93-30.48,4.86
		c-1.61,0.15-3.23,0.19-4.84,0.17c-2.02-0.02-3.03-0.76-3.31-2.8c-0.38-2.79-0.67-5.62-0.67-8.44c0-3.63,0.44-7.25,0.46-10.88
		c0.01-2.68-0.25-5.36-0.55-8.03c-0.72-6.42-1.64-12.81-2.29-19.24c-0.71-7.1-1.3-14.23-0.79-21.37c0.45-6.23,1.14-12.46,2.01-18.65
		c1.74-12.47,4.19-24.8,7.55-36.94c0.54-1.94,1.11-3.88,1.66-5.82c0.66-2.32,0.47-2.89-1.58-4.17c-6.35-3.95-12.5-8.19-18.35-12.86
		c-12.62-10.07-23.68-21.57-32.14-35.41c-7.99-13.08-12.66-27.26-13.92-42.57c-0.77-9.38-0.23-18.68,1.16-27.97
		c1.18-7.86,2.74-15.64,5.22-23.2c4.42-13.5,11.72-25.37,20.77-36.21c7.94-9.51,17.39-17.22,28.3-23.1
		c1.65-0.89,2.39-2.04,2.55-3.95c0.84-10.19,1.54-20.4,2.83-30.54c1.14-8.93,2.93-17.78,4.55-26.64c0.4-2.2,0.04-3.79-1.69-5.37
		c-27.63-25.3-49.86-54.79-67.63-87.7c-9.12-16.9-17.01-34.37-23.62-52.4c-1.81-4.92-3.25-9.98-4.8-14.99
		c-0.83-2.67-0.55-3.38,1.78-4.89c9.88-6.39,20.48-11.33,31.57-15.22c13.31-4.66,27.02-7.72,40.95-9.82
		c12.33-1.85,24.73-2.89,37.2-2.8c7.6,0.05,15.22,0.03,22.79,0.55c6.83,0.47,13.63,1.57,20.42,2.51c3.8,0.53,7.58,1.19,11.33,2
		c1.95,0.42,3.1-0.04,4.21-1.71c6.65-9.98,14.63-18.78,23.91-26.4c12.36-10.16,26.26-17.55,41.27-22.93
		c10.61-3.8,21.47-6.64,32.66-8.01c24.83-3.05,48.42,0.91,70.52,12.82c10.63,5.73,19.6,13.5,27.04,23c1.62,2.07,3.56,3.21,6.1,3.92
		c4.98,1.39,9.9,3.04,14.74,4.86c2.96,1.11,5.62,1.1,8.57-0.05c22.3-8.66,45.11-15.67,68.52-20.67c11.66-2.49,23.4-4.43,35.28-5.46
		c12.53-1.09,25.07-2.23,37.62-3.05c11.01-0.72,22.05-1.33,33.09-0.83c8.94,0.4,17.85,1.18,26.78,1.81c1.41,0.1,2.82,0.23,4.21,0.45
		c2.86,0.45,3.99,1.72,3.94,4.65c-0.04,2.22-0.27,4.43-0.51,6.64c-1.22,11.14-3.78,22-6.86,32.75
		c-8.51,29.77-19.71,58.5-32.99,86.45c-7.8,16.42-16.22,32.51-25.2,48.32c-0.22,0.38-0.36,0.8-0.68,1.51
		c1.31-0.35,1.99-1.09,2.73-1.69c9.51-7.77,19.53-14.79,30.21-20.86c11.97-6.8,24.41-12.56,37.64-16.46
		c8.96-2.64,18.17-3.76,27.5-3.86c0.4,0,0.81-0.01,1.21,0.01c4.01,0.2,6.19,2.21,6.59,6.23c0.73,7.4-0.6,14.47-3.5,21.28
		c-3.5,8.21-8.57,15.38-14.57,21.92c-4.15,4.52-8.63,8.7-13.43,12.52C616.21,246.6,615.85,247.05,615.18,247.73z"/>
	<g>
		<path class="st1" d="M198.06,647.89c-0.52,0.27-1.02,0.58-1.55,0.82c-13.98,6.41-28.52,11.28-43.28,15.51
			c-1.88,0.54-2.19,0.39-3.33-1.3c-5.9-8.67-13.73-15.09-23.05-19.76c-7.02-3.51-14.03-3.29-20.88,0.47
			c-2.05,1.13-3.98,2.52-5.86,3.92c-1,0.75-1.79,1.78-2.74,2.76c-1.09-0.16-0.88-1.19-0.98-1.88c-0.49-3.06-0.97-6.12-1.28-9.2
			c-0.7-6.96-1.41-13.93-1.92-20.9c-0.51-7.06-0.18-14.12,0.5-21.17c1.51-15.79,4.87-31.22,8.66-46.58c0.55-2.22,1.24-4.4,1.9-6.59
			c0.48-1.56,0.86-1.74,2.33-1.08c1.84,0.84,3.73,1.6,5.44,2.64c1.47,0.89,2.86,2.02,4.07,3.25c1.22,1.23,2.5,2.23,4.15,2.75
			c8.7,2.73,17.22,2.52,25.52-1.55c2.36-1.16,4.38-2.51,3.94-5.8c1.67,0.22,3.1,0.46,4.55,0.59c3.01,0.29,6.02,0.64,9.04,0.76
			c3,0.12,3.45-0.54,2.66-3.48c-2.79-10.41-7.18-20-14.65-27.97c-0.31-0.33-0.54-0.75-0.91-1.28c0.52-0.21,0.91-0.43,1.33-0.53
			c4.79-1.09,9.59-2.1,14.36-3.27c2.08-0.51,4.09-1.32,6.11-2.07c0.75-0.28,1.47-0.68,2.12-1.15c1.04-0.76,1.23-1.45,0.72-2.63
			c-0.4-0.92-0.91-1.81-1.49-2.63c-3.86-5.48-8.29-10.44-13.57-14.6c-1.76-1.38-2.73-3.02-3.1-5.2c-1.49-8.77-3.7-17.37-6.53-25.8
			c-6.81-20.31-17.27-38.5-31.63-54.43c-0.58-0.65-1.09-1.37-1.66-2.03c-0.59-0.68-1.14-0.57-1.78,0.39
			c18.07,19.29,29.68,42.2,36.88,67.48c-0.13,0.1-0.25,0.19-0.38,0.29c-0.57-0.61-1.15-1.2-1.7-1.82c-2.98-3.41-6.2-6.55-9.89-9.18
			c-2.64-1.89-5.45-3.47-8.52-4.55c-4.47-1.57-6.75,0.04-6.62,4.84c0.05,2.07,0.45,4.14,0.72,6.21c1,7.67,2.09,15.33,4.04,22.84
			c2.15,8.3,5.01,16.33,8.81,24.02c0.29,0.6,0.56,1.21,0.88,1.9c-0.47,0.24-0.87,0.46-1.29,0.66c-1.21,0.59-2.44,1.13-3.63,1.76
			c-5.04,2.67-7.71,6.95-8.38,12.55c-0.19,1.6-0.36,3.21-0.38,4.83c-0.02,1.29-0.55,1.99-1.75,2.34c-0.97,0.28-1.94,0.59-2.84,1.05
			c-1.43,0.73-2.89,1.46-4.18,2.41c-2.27,1.67-4.02,3.78-4.54,6.94c-0.78-0.25-1.48-0.39-2.12-0.68c-1.47-0.67-2.95-1.32-4.34-2.14
			c-11.64-6.86-22.59-14.65-32.42-23.95c-11.14-10.54-20.65-22.33-27.13-36.36c-5.17-11.19-8.12-22.93-8.52-35.27
			c-0.63-19.72,2.35-38.81,10.6-56.83c9.59-20.94,24.25-37.36,44.58-48.49c2.14-1.17,2.99-2.78,3.11-5.18
			c1.47-28.33,5.69-56.22,14.17-83.35c2.39-7.63,5.12-15.17,8.05-22.61c0.98-2.48,1.38-5.2,3.04-7.47c1.58-2.16,2.76-4.61,4.17-6.91
			c0.56-0.91,1.26-1.75,1.92-2.6c0.47-0.6,0.91-1.22,0.58-2.02c-0.37-0.88-1.17-1.03-2-1.08c-2.01-0.13-4.03-0.22-6.04-0.39
			c-18.21-1.56-35.62-6.17-52.21-13.84c-2.56-1.18-5.11-2.42-7.59-3.77c-2.59-1.41-3.1-2.7-2.66-5.65c0.07-0.45-0.19-0.95-0.25-1.43
			c-0.06-0.51-0.12-1.04-0.06-1.54c0.92-9.26,2.7-18.36,5.13-27.34c3.69-13.64,9.25-26.53,15.73-39.05
			c4.44-8.56,9.29-16.86,15.17-24.52c3.95-5.15,3.44-4.62,9.17-4.86c7.93-0.33,15.88-0.46,23.81-0.31
			c14.22,0.28,28.31,2.04,42.28,4.73c0.72,0.14,1.44,0.34,2.15,0.55c0.24,0.07,0.46,0.23,0.78,0.4c-0.36,0.64-0.67,1.23-1,1.81
			c-8.12,13.88-13.33,28.8-15.61,44.69c-1.91,13.34-1.35,26.59,2.63,39.56c3.32,10.82,9.02,20.27,16.82,28.41
			c3.34,3.49,7.11,6.57,10.66,9.87c0.67,0.62,1.35,1.34,1.73,2.15c4.91,10.51,13.07,17.43,23.75,21.55
			c10.98,4.23,22.32,6.57,34.12,6.27c11.08-0.29,21.97-1.76,32.54-5.3c15.04-5.03,25.1-15.04,30.17-29.99
			c3.88-11.46,4.6-23.18,1.79-35.01c-1.4-5.92-4.3-11.15-7.96-15.97c-0.43-0.56-1.04-1.11-1.69-1.36c-0.8-0.31-1.12-0.87-1.43-1.55
			c-6.45-13.87-17.28-22.38-32.03-26.02c-1.16-0.29-2.02-0.81-2.93-1.58c-4.55-3.91-9.82-6.41-15.82-6.92
			c-3.67-0.31-7.41-0.38-11.09-0.15c-13.57,0.84-24.7,10.51-27.61,23.76c-1.3,5.89-1.3,11.74,0.33,17.58
			c2.87,10.32,9.73,16.4,20.11,18.37c6.5,1.23,13.07,0.83,19.34-1.37c11.93-4.2,19.04-12.72,21.53-25.07
			c0.91-4.5,1.26-9.06,0.6-13.65c-0.4-2.77-1.35-5.34-2.92-7.67c-0.17-0.26-0.29-0.55-0.57-1.1c0.84,0.2,1.42,0.3,1.98,0.47
			c13.38,3.98,22.76,12.29,27.81,25.43c4.98,12.98,5.24,25.96,0.58,39.08c-2.97,8.36-8.45,14.6-15.83,19.29
			c-10.33,6.57-21.59,10.59-33.72,12.14c-13.24,1.69-26.33,0.88-39.21-2.69c-7.21-2-13.8-5.33-19.83-9.74
			c-9.24-6.76-16.89-15-22.87-24.77c-6.47-10.58-9.67-22.1-10.05-34.48c-0.98-32.47,10.14-60.39,31.79-84.26
			c9.5-10.48,20.91-18.58,33.43-25.11c13.14-6.85,26.93-11.91,41.48-14.83c11.43-2.29,22.94-2.87,34.55-1.96
			c10.53,0.83,20.84,2.73,30.69,6.55c27.12,10.52,45.98,29.36,56.15,56.66c1.63,4.38,2.4,9.09,3.59,13.64
			c0.28,1.07,0.16,2.29,1.15,3.17c1.2-0.31,0.88-1.24,0.76-1.94c-0.4-2.32-0.8-4.65-1.37-6.93c-2.63-10.7-7.01-20.61-13.33-29.66
			c-0.26-0.38-0.51-0.76-0.98-1.45c0.86,0.08,1.44,0.04,1.96,0.21c4.92,1.61,9.85,3.2,14.72,4.95c0.82,0.29,1.36,1.34,2.22,2.23
			c7.79-2.83,15.75-5.88,23.82-8.61c8.09-2.73,16.24-5.32,24.45-7.64c8.15-2.31,16.39-4.33,24.64-6.26
			c8.3-1.95,16.68-3.52,25.45-4.56c-0.44,0.88-0.77,1.53-1.09,2.18c-7.57,15.39-13.8,31.25-17.34,48.1
			c-1.91,9.1-3.24,18.28-3.89,27.56c-0.48,6.85-0.94,13.7-1.34,20.55c-0.11,1.91-0.76,3.42-2.06,4.86
			c-8.2,9.1-16.49,18.13-24.41,27.47c-6.35,7.49-12.27,15.35-18.25,23.15c-1.75,2.28-3.07,4.9-4.55,7.39
			c-0.4,0.68-0.64,1.45-1.04,2.37c0.69,0.27,1.22,0.49,1.76,0.68c9.6,3.51,19.31,6.75,28.78,10.59
			c17.3,7.01,32.45,17.39,45.93,30.26c9.75,9.31,18.22,19.61,24.8,31.43c7.71,13.87,12.6,28.65,14.69,44.38
			c1.02,7.67,2.02,15.35,2.02,23.11c0,20.73-4.04,40.62-12.34,59.65c-10.76,24.69-25.41,46.78-43.96,66.3
			c-11.53,12.13-24.16,23.03-37.29,33.38c-2.12,1.67-4.17,3.41-6.3,5.06c-1.42,1.1-2.83,2.25-4.71,2.76
			c-0.43-1.05-0.81-2.04-1.23-3.03c-2.63-6.17-7.23-10.49-13.08-13.5c-3.98-2.05-7.44-1.38-10.72,1.75
			c-1.02,0.97-1.93,2.06-2.86,3.13c-0.73,0.84-1.58,1.18-2.69,0.98c-6.76-1.18-13.55-2.2-20.1-4.35c-1.21-0.4-2.43-0.81-3.6-1.32
			c-1.32-0.58-1.55-1.23-1.1-2.59c0.13-0.38,0.31-0.75,0.49-1.11c4.3-8.77,10.19-16.15,18.73-21.16c1.95-1.14,2.78-2.67,2.84-4.93
			c0.33-12.02,2.26-23.83,4.82-35.55c2.65-12.11,5.77-24.07,10.13-35.69c3.62-9.67,8.09-18.93,13.64-27.65
			c0.86-1.36,1.51-2.85,2.22-4.3c0.12-0.24,0.08-0.57,0.13-0.99c-2.21,1.38-8,10.46-12.29,19.14c-3.37,6.82-6.12,13.89-8.65,21.15
			c-0.75-1.2-1.13-5.21-1-10.48c0.08-3.48,0.21-6.96,0.31-10.46c-0.94-0.07-1.09,0.43-1.16,0.99c-0.24,1.94-0.53,3.87-0.71,5.81
			c-0.58,6.19-0.64,12.35,0.64,18.49c0.25,1.19,0.06,2.56-0.26,3.76c-2.69,10.21-5.28,20.45-7.09,30.87
			c-1.35,7.83-2.31,15.71-2.61,23.66c-0.09,2.33-0.95,3.91-2.92,5.13c-8.52,5.26-14.55,12.67-18.6,21.77
			c-0.05,0.12-0.11,0.24-0.17,0.37c-1.46,3.38-0.97,4.5,2.47,5.81c6.39,2.43,13.05,3.74,19.76,4.84c1.31,0.21,2.62,0.48,4.19,0.76
			c-0.48,0.75-0.81,1.3-1.17,1.82c-4.6,6.68-8.51,13.72-11.48,21.27c-0.32,0.81-0.63,1.64-0.82,2.49c-0.35,1.5,0.1,2.31,1.6,2.75
			c0.89,0.26,1.85,0.36,2.78,0.39c9.31,0.27,18.56-0.39,27.77-1.75c0.25-0.04,0.51-0.04,1.1-0.09c-0.44,1.04-0.8,1.87-1.14,2.71
			c-0.45,1.12-0.96,2.23-1.3,3.38c-0.55,1.85-0.09,2.73,1.78,3.07c2.05,0.36,4.13,0.62,6.21,0.68c4.5,0.14,9.02,0.26,13.52,0.14
			c6.31-0.17,12.19-2,17.57-5.32c1.51-0.93,3.06-1.62,4.82-1.94c2.88-0.52,5.49-1.78,8.01-3.22c10.11-5.76,18.79-13.2,26.37-22.02
			c7.02-8.18,13.89-16.47,20.36-25.09c1.36-1.81,1.6-1.89,3.69-1.07c2.77,1.09,4.87,3.1,6.83,5.24c3.88,4.21,6.06,9.34,7.63,14.75
			c2.13,7.32,3.38,14.81,4.11,22.4c1.24,12.88,1.64,25.79,1.57,38.72c-0.03,6.46-0.06,12.93-0.38,19.38
			c-0.22,4.43-0.85,8.84-1.46,13.23c-0.69,4.93-1.57,9.83-2.35,14.74c-0.11,0.66-0.25,1.35-0.18,2.01c0.25,2.16-0.69,3.84-1.79,5.59
			c-5.46,8.65-10.85,17.35-16.97,25.57c-1.93,2.59-3.94,5.12-5.99,7.62c-1.55,1.89-2.41,2.04-4.52,0.83
			c-8.35-4.77-17.47-6.91-26.93-7.84c-2.19-0.22-4.35,0.28-6.25,1.3c-3.38,1.81-6.71,3.71-9.93,5.79
			c-5.56,3.59-10.57,7.89-15.15,12.68c-1.89,1.98-2.51,2.07-4.86,0.55c-29.16-18.84-52.22-43.28-68.11-74.29
			c-0.86-1.68-1.67-3.38-2.53-5.05c-0.42-0.82-0.39-1.75-0.61-2.56c-0.21-0.77-1.32-1.25-1.95-1.95c-0.3-0.33-0.39-0.85-0.57-1.28
			c-1.16-2.72-2.3-5.46-3.48-8.17c-0.32-0.73-0.71-1.46-1.2-2.09c-1.09-1.4-2.57-1.72-4.16-1.09c-1.81,0.72-3.6,1.52-5.33,2.41
			c-12.2,6.28-21.8,15.45-29.41,26.75c-2.14,3.17-4.08,6.5-5.82,9.91c-2.3,4.51-3.3,9.36-2.96,14.46c0.13,1.99-0.31,2.47-2.28,2.31
			c-6.51-0.52-13.04-0.89-19.5-1.75c-9.33-1.23-18.67-2.57-27.91-4.33c-21.85-4.18-42.81-11.13-62.8-20.92
			c-11.7-5.73-22.88-12.31-32.99-20.58c-3.18-2.6-6.14-5.45-9.25-8.13c-1.06-0.91-1.36-2.39-2.66-3.15
			c-0.81-0.48-1.41-1.36-2.46-0.78c-1.14,0.63-0.85,1.7-0.68,2.7c1.17,6.83,2.6,13.61,4.51,20.28c3.76,13.12,8.99,25.64,15.76,37.5
			c2.06,3.61,4.59,6.81,8.18,9.05c3.33,2.08,6.89,3.32,10.89,3.06c0.71-0.05,1.43,0.06,2.14,0.09
			C197.96,647.56,198.01,647.73,198.06,647.89z M275.5,279.39c-0.06,9.03,0.65,15.9,2.22,22.68c1.41,6.05,3.58,11.82,6.57,17.28
			c0.88,1.61,1.91,3.09,3.52,4.07c2.13,1.29,3.96,1,5.51-0.93c1.16-1.45,1.82-3.13,2.13-4.95c1.06-6.07,1.16-12.17,0.62-18.28
			c-0.8-9.02-3.14-17.71-5.99-26.27c-0.9-2.72-2.38-5.13-4.3-7.23c-2.45-2.69-6.27-2.34-8.26,0.72c-0.5,0.77-0.83,1.69-1.07,2.58
			C275.38,273.13,275.52,277.31,275.5,279.39z M282.23,376.86c-0.17-3.42-0.24-6.85-0.53-10.27c-0.3-3.48-0.79-6.95-1.27-10.41
			c-0.31-2.2-0.68-4.39-1.15-6.55c-0.35-1.61-1.08-1.99-2.64-1.59c-0.45,0.12-0.88,0.33-1.33,0.47c-3.79,1.18-7.54,2.48-11.36,3.5
			c-16.28,4.37-32.91,6.75-49.65,8.46c-1.14,0.12-2.28,0.19-3.4,0.39c-0.27,0.05-0.65,0.54-0.64,0.8c0.02,0.25,0.46,0.6,0.77,0.68
			c0.44,0.11,0.94,0.02,1.4-0.02c2.01-0.15,4.02-0.32,6.03-0.48c1.82-0.15,2.19,0.11,2.7,1.92c0.13,0.45,0.24,0.91,0.36,1.36
			c1.87,7.24,4.22,14.31,7.21,21.17c3.38,7.75,7.54,15.04,13.22,21.36c4.85,5.4,10.86,8.25,18.26,7.74
			c6.13-0.42,11.12-2.9,14.7-7.99c1.92-2.72,3.25-5.73,4.31-8.86C281.6,391.5,282.36,384.25,282.23,376.86z M183.77,300.09
			c0.05,5.94,0.45,11.78,1.47,17.56c0.86,4.84,1.93,9.63,3.98,14.13c0.44,0.98,0.93,1.95,1.53,2.83c1.69,2.46,6.15,3.01,7.81-0.58
			c0.67-1.46,1.33-2.96,1.75-4.5c1.09-4.04,1.64-8.18,1.76-12.36c0.21-7.63-0.47-15.21-2.09-22.65c-0.78-3.59-2.06-7.09-3.26-10.58
			c-0.64-1.87-1.81-3.46-3.54-4.53c-2.52-1.56-5.53-0.76-6.85,1.91c-0.53,1.07-0.86,2.26-1.15,3.43
			C183.92,289.8,183.95,295,183.77,300.09z M322.75,353.08c9.84-0.35,17.81-1.13,25.55-3.34c4.06-1.16,8.02-2.7,11.96-4.25
			c2.65-1.04,5.03-2.6,6.79-4.92c1.81-2.37,1.48-4.75-0.99-6.42c-1.04-0.7-2.24-1.23-3.44-1.62c-3.16-1.03-6.45-1.38-9.75-1.49
			c-8.32-0.28-16.51,0.82-24.61,2.63c-5.27,1.18-10.35,2.93-15.18,5.36c-2.18,1.1-4.22,2.4-5.73,4.37c-1.79,2.36-1.48,4.85,1.03,6.4
			c1.52,0.94,3.25,1.76,4.98,2.07C317.05,352.54,320.8,352.84,322.75,353.08z M148.27,377.37c4.15-0.44,7.98-0.72,11.77-1.26
			c7.18-1.02,14.05-3.08,20.42-6.64c0.88-0.49,1.74-1.03,2.55-1.63c1.43-1.05,2.02-2.48,1.72-4.24c-0.31-1.78-1.43-2.87-3.1-3.37
			c-0.96-0.29-1.96-0.48-2.96-0.6c-5.3-0.63-10.6-0.64-15.91-0.03c-8.11,0.95-15.77,3.33-23.04,7.01c-1.64,0.83-3.06,1.98-4.05,3.56
			c-1.1,1.77-0.74,3.61,1,4.75c0.83,0.54,1.78,1.05,2.74,1.21C142.43,376.64,145.5,376.99,148.27,377.37z M194.63,347.99
			c0.01-0.07,0.02-0.14,0.03-0.22c0.47,0.03,0.94,0.04,1.41,0.08c0.65,0.05,1.3,0,1.37-0.8c0.08-0.88-0.55-1.1-1.3-1.16
			c-1.61-0.13-3.21-0.3-4.82-0.45c-9.37-0.88-15.94-5.6-19.6-14.29c-0.62-1.48-1.16-3.02-1.58-4.57
			c-2.56-9.52-3.04-19.25-2.68-29.04c0.18-4.97,0.71-9.93,1.02-14.9c0.05-0.76,0.55-2.01-0.78-2.11c-1.09-0.08-1.06,1.09-1.11,1.83
			c-0.42,6.51-1.05,13.02-1.07,19.54c-0.02,5.5,0.57,11.01,1.08,16.5c0.46,5.05,1.6,9.96,3.83,14.56c3.49,7.21,9,12,16.85,13.87
			C189.68,347.41,192.18,347.62,194.63,347.99z M327.1,305.25c-0.44-4.68-0.81-9.37-1.33-14.05c-1.02-9.26-3.11-18.28-6.17-27.07
			c-0.11-0.32-0.22-0.63-0.36-0.94c-0.26-0.59-0.78-0.86-1.29-0.54c-0.3,0.18-0.43,0.74-0.52,1.15c-0.05,0.23,0.13,0.51,0.22,0.76
			c3.19,8.55,5.2,17.37,6.31,26.41c0.64,5.21,1.17,10.42,0.97,15.69c-0.23,6.02-2.66,10.88-7.46,14.55
			c-3.44,2.63-7.12,4.83-11.12,6.48c-1.49,0.61-3.03,1.11-4.49,1.77c-0.37,0.17-0.77,0.8-0.75,1.19c0.05,0.76,0.71,0.88,1.37,0.72
			c0.26-0.06,0.51-0.15,0.76-0.25c1.31-0.53,2.62-1.06,3.92-1.6c4.37-1.82,8.47-4.1,12.06-7.22
			C324.4,317.79,327.13,312.19,327.1,305.25z"/>
		<path class="st2" d="M424.91,216.56c0.65,0,1.3,0,1.95,0c11.51-0.03,23.01,0.34,34.49,1.29c16.4,1.36,32.57,4.03,48.43,8.48
			c6.94,1.95,13.19,5.33,19.34,8.99c2.88,1.71,4.93,3.91,6.56,6.85c9.99,18.05,17.39,37.14,23.14,56.9
			c4.64,15.97,8.43,32.14,11.26,48.53c1.71,9.88,2.93,19.83,3.85,29.82c1.13,12.34,1.46,24.71,2.02,37.08
			c0.51,11.3,0.89,22.6,0.78,33.9c-0.1,10.77-0.68,21.52-1.55,32.25c-0.87,10.74-2.14,21.42-3.81,32.06
			c-3.1,19.77-7.57,39.22-13.59,58.31c-4.05,12.84-8.49,25.54-14.34,37.69c-1.84,3.82-3.81,7.57-5.74,11.34
			c-0.2,0.39-0.49,0.74-1.06,0.98c0.35-2.03,0.69-4.06,1.06-6.08c1.37-7.55,2.45-15.14,2.95-22.8c0.16-2.48,0.12-4.98,0.11-7.47
			c-0.03-10.03,0.08-20.06-0.18-30.08c-0.25-9.55-0.83-19.09-2.35-28.55c-0.98-6.12-2.26-12.17-4.41-18
			c-1.86-5.07-4.59-9.56-8.64-13.21c-2.03-1.83-4.26-3.27-7.09-3.99c1.42-2.16,2.75-4.16,4.06-6.18
			c10.29-15.79,18.89-32.44,25.11-50.26c2.84-8.14,5.25-16.39,6.9-24.86c0.32-1.64,0.17-2.48-0.5-2.44
			c-1.19,0.09-1.13,1.17-1.31,1.98c-1.57,7.17-3.42,14.26-5.75,21.22c-7.77,23.25-19.26,44.54-33.81,64.22
			c-7.21,9.75-14.93,19.09-23.41,27.77c-5.09,5.21-10.61,9.92-16.62,14.07c-8.42,5.82-17.59,7.38-27.5,5.28
			c-4.62-0.98-9.08-2.48-13.46-4.22c-1.42-0.56-1.62-0.81-1.18-2.05c1.07-2.97,0.76-5.97,0.36-8.98c-0.09-0.66-0.18-1.32-0.25-1.82
			c9.71-6.74,18.59-14.25,27.42-21.8c13.54-11.58,26.03-24.19,36.9-38.34c14.71-19.15,26.34-39.97,34.06-62.91
			c3.08-9.16,5.04-18.57,5.95-28.18c0.5-5.22,0.92-10.46,1.08-15.7c0.21-7.15-0.66-14.24-1.53-21.32
			c-1.03-8.36-2.52-16.64-5.06-24.68c-5.42-17.11-13.99-32.45-25.94-45.88c-13.49-15.16-29.2-27.44-47.39-36.48
			c-8.27-4.11-16.96-7.21-25.66-10.26c-1.9-0.67-3.8-1.33-5.7-2C424.89,216.87,424.9,216.72,424.91,216.56z"/>
		<path class="st3" d="M714.59,429.84c0.48,15.1-0.86,29.98-5.15,44.53c-5.07,17.17-13.65,32.43-25.15,46.09
			c-5.78,6.86-12.17,13.12-18.95,18.99c-1.42,1.23-2.95,1.99-4.79,2.39c-3.7,0.8-7.42,1.25-11.2,1.4c-4.8,0.19-8.59-1.79-11.64-5.39
			c-2.77-3.28-4.37-7.06-4.92-11.31c-0.85-6.55,0.35-12.88,2.23-19.1c2.21-7.31,5.63-14.11,9.27-20.79
			c5.26-9.66,8.89-19.86,10.54-30.76c1.27-8.33,1.26-16.62-0.35-24.89c-0.46-2.37-0.94-4.75-1.45-7.11
			c-0.18-0.85-0.35-1.74-0.74-2.51c-2.52-5.07-3.25-10.63-4.56-16.04c-2.41-9.93-6.42-19.11-12.9-27.11
			c-8.97-11.08-20.47-17.86-34.54-20.27c-5.59-0.96-11.22-1.37-16.87-1.45c-2.21-0.03-4.43,0.2-6.64,0.41
			c-2.58,0.24-2.94-0.01-3.34-2.46c-0.77-4.78-1.52-9.57-2.39-14.33c-2.87-15.77-6.94-31.24-11.55-46.58
			c-0.17-0.58-0.4-1.15-0.54-1.73c-0.4-1.66-0.05-2.25,1.6-2.55c1.52-0.28,3.05-0.51,4.59-0.71c10.15-1.3,20.34-2.22,30.59-2.03
			c16.9,0.32,33.34,3.09,48.98,9.74c21.21,9.01,37.17,23.91,48.75,43.68c8,13.66,13.31,28.33,16.54,43.79
			c2.41,11.55,3.65,23.25,4.14,35.03C714.3,422.45,714.44,426.14,714.59,429.84z"/>
		<path class="st2" d="M649.01,428.25c-0.33,12.62-1.75,23.31-5.67,33.55c-5.46,14.23-15.46,24.05-29.46,29.85
			c-8.41,3.48-17.16,5.48-26.29,5.5c-2.95,0.01-5.91-0.27-8.85-0.54c-1.8-0.16-2.16-0.73-1.92-2.55
			c1.51-11.48,2.42-23.02,2.61-34.59c0.17-10.83,0.01-21.66-0.14-32.5c-0.1-7.33-0.31-14.66-0.68-21.98
			c-0.49-9.54-1.15-19.06-1.83-28.59c-0.3-4.16-0.82-8.3-1.25-12.45c-0.08-0.73-0.22-1.46-0.36-2.18c-0.4-2.09-0.01-2.63,2.04-2.63
			c4.44,0,8.88-0.06,13.32,0.07c7.88,0.24,15.48,1.85,22.72,5.01c11.37,4.96,19.7,13.18,25.53,24.01c4.7,8.73,7.64,18.07,9.03,27.88
			C648.43,420.7,648.72,425.34,649.01,428.25z"/>
		<path class="st3" d="M550.33,223.95c0.45-0.43,0.88-0.9,1.37-1.27c10.11-7.77,20.72-14.75,32.05-20.62
			c9.89-5.12,20.15-9.27,30.86-12.35c7.68-2.22,15.54-3.17,23.49-3.54c1.27-0.06,2.55-0.09,3.82,0.02c2.6,0.23,3.86,1.33,4.41,3.93
			c0.62,2.93,0.43,5.9,0.07,8.84c-0.99,8.28-4.43,15.61-8.92,22.5c-5.56,8.55-12.65,15.7-20.42,22.22c-1.08,0.9-2.25,1.7-3.38,2.54
			c-0.76,0.56-1.69,1.06-1.34,2.22c0.33,1.1,1.35,1.12,2.29,1.29c7.54,1.36,15.14,2.5,22.46,4.84c4.18,1.34,8.12,3.22,11.83,5.58
			c2.59,1.65,3.54,3.9,2.98,6.89c-0.62,3.33-2.12,6.23-4.2,8.84c-3.04,3.81-6.61,7.08-10.55,9.94c-1.87,1.35-3.94,2.27-6.23,2.75
			c-2.67,0.56-5.25,0.18-7.76-0.62c-5.3-1.69-10.75-2.38-16.27-2.75c-2.87-0.19-5.75-0.18-8.57-1.07c-1.49-0.47-3.19-0.3-4.8-0.38
			c-0.47-0.03-0.94,0.07-1.41,0.07c-2.98,0.05-3.03-0.06-2.7-3.05c1.53-14-1.16-27.04-8.96-38.9c-6.67-10.14-16-15.91-28.09-17.17
			c-0.63-0.07-1.25-0.19-1.87-0.29C550.43,224.27,550.38,224.11,550.33,223.95z"/>
		<path class="st2" d="M557.91,580.54c8.99-26.49,14.47-53.55,18.3-81.17c0.92,0.04,1.71,0.03,2.49,0.12
			c8.98,1.03,17.88,0.63,26.63-1.72c12.38-3.33,23.17-9.36,31.59-19.21c6.16-7.21,9.98-15.61,12.07-24.81
			c2.11-9.3,2.92-18.73,2.51-28.26c-0.03-0.72,0-1.44,0.33-2.22c0.32,1.41,0.67,2.82,0.96,4.24c1.28,6.28,2.2,12.59,1.91,19.03
			c-0.57,12.34-3.53,24.05-9.03,35.12c-2.96,5.96-6.02,11.89-8.81,17.93c-2.63,5.71-4.35,11.73-5.03,18
			c-0.51,4.65-0.47,9.27,1.04,13.78c1.27,3.8,3.47,6.96,6.51,9.56c2.39,2.04,5.16,3.25,8.29,3.23c2.95-0.02,5.9-0.33,8.85-0.54
			c0.79-0.06,1.58-0.23,2.78-0.42c-0.57,0.56-0.83,0.88-1.15,1.13c-7.37,5.72-15.42,10.34-23.63,14.7
			c-16.64,8.84-34.21,15.08-52.71,18.58c-6.67,1.26-13.44,1.99-20.17,2.91C560.53,580.67,559.39,580.54,557.91,580.54z"/>
		<path class="st4" d="M603.99,49.41C579.13,62.63,555.1,77.17,532.7,94.3c-22.37,17.12-43.25,35.92-63.23,56.25
			c-0.12-0.78-0.26-1.21-0.25-1.63c0.12-3.43,0.12-6.86,0.43-10.27c0.67-7.3,1.47-14.59,2.26-21.87c1.37-12.57,4.5-24.72,8.76-36.6
			c3.02-8.43,6.44-16.68,10.35-24.74c1.45-2.99,3.62-4.39,6.92-4.65c11.6-0.93,23.18-2.07,34.78-3c6.1-0.49,12.22-0.82,18.33-0.99
			c8.07-0.22,16.14-0.37,24.21-0.26c8.88,0.12,17.74,0.64,26.54,2c0.71,0.11,1.41,0.3,2.12,0.45
			C603.95,49.12,603.97,49.26,603.99,49.41z"/>
		<path class="st4" d="M54.14,215.86c-0.67-0.88-1.13-1.43-1.54-2.02c-5.87-8.31-10.86-17.17-15.86-26.01
			c-8.1-14.29-15.66-28.87-21.52-44.23c-3.36-8.79-6.19-17.77-9.22-26.69c-0.71-2.09-0.36-2.8,1.75-4.11
			c8.37-5.2,17.18-9.5,26.4-12.97c13.39-5.05,27.21-8.45,41.35-10.6c5.38-0.82,10.79-1.52,16.18-2.25c0.65-0.09,1.31-0.01,2.34-0.01
			c-0.48,0.75-0.8,1.29-1.17,1.81c-7.32,10.18-13.8,20.87-19.29,32.15c-8.24,16.92-13.92,34.65-16.93,53.24
			c-2.12,13.07-2.76,26.21-2.32,39.42c0.01,0.4,0.02,0.81,0.01,1.21C54.31,215,54.25,215.19,54.14,215.86z"/>
		<path class="st2" d="M57.13,189.83c7.88,4.79,16.23,8.28,24.79,11.26c12.19,4.24,24.74,6.89,37.58,8.11
			c1.74,0.17,3.49,0.19,5.24,0.3c0.79,0.05,1.57,0.15,2.61,0.26c-0.32,0.62-0.45,1.05-0.71,1.38c-3.01,3.75-5.14,8.04-7.46,12.22
			c-0.29,0.52-0.47,1.12-0.59,1.7c-0.12,0.6-0.12,1.1-0.87,1.41c-0.45,0.19-0.76,0.89-1,1.41c-5.43,11.63-9.16,23.84-12.37,36.23
			c-0.55,2.14-1.11,4.29-1.73,6.7c-1.17-1.03-2.17-1.89-3.14-2.79c-15.32-14.18-28.84-29.95-41.05-46.85
			c-1.1-1.52-1.79-3.17-1.77-5.05c0.11-8.48,0.25-16.95,0.39-25.43C57.05,190.38,57.11,190.08,57.13,189.83z"/>
		<path class="st2" d="M261.11,128.89c-1.93,0-3.6-0.01-5.27,0c-14.06,0.14-24.41,6.62-31.36,18.62c-3.39,5.85-5,12.31-5.34,19.07
			c-0.02,0.34-0.06,0.67-0.04,1.01c0.06,1.01,0.61,1.65,1.43,1.59c0.88-0.06,1.26-0.63,1.37-1.47c0.39-2.93,0.49-5.94,1.25-8.78
			c2.65-9.82,7.59-18.15,16.84-23.16c7.64-4.14,15.81-4.99,24.29-3.15c1.07,0.23,1.77,0.84,2.38,1.7c2.44,3.45,3.27,7.38,3.23,11.47
			c-0.05,4.85-0.55,9.69-2.28,14.28c-4.3,11.41-12.48,18.27-24.45,20.49c-5.06,0.94-10.21,1.1-15.24-0.15
			c-10.32-2.58-16.33-9.3-18.51-19.65c-1.44-6.81-0.63-13.43,1.75-19.84c2.46-6.6,7.29-11.2,13.41-14.52
			c4.71-2.56,9.73-3.77,15.13-3.55c3.56,0.14,7.14-0.02,10.65,0.76c3.74,0.82,7.03,2.63,10.24,4.63
			C260.73,128.34,260.82,128.53,261.11,128.89z"/>
		<path class="st2" d="M391.39,631.7c-24.34,3.22-48.71,3.99-73.17,2.28c-0.73-5.78,0.14-11.1,2.7-16.06
			c8.53-16.49,20.61-29.47,37.62-37.48c4.09-1.93,4.98-1.6,6.75,2.49c1.34,3.08,2.69,6.15,4.03,9.23c0.07,0.17,0.18,0.43,0.11,0.53
			c-0.82,1.16,0.02,2.07,0.48,2.99c5.92,11.88,12.3,23.49,20.43,34.04c0.33,0.43,0.63,0.87,0.93,1.32
			C391.33,631.15,391.32,631.3,391.39,631.7z"/>
		<path class="st2" d="M157.49,575.31c1.04,0.78,1.94,1.02,1.83,2.29c-0.05,0.55,0.39,1.26,0.81,1.71
			c7.08,7.68,15.37,13.85,24.15,19.45c15.53,9.89,32.21,17.3,49.65,23.07c0.82,0.27,1.64,0.57,2.76,0.96
			c-0.85,0.86-1.51,1.58-2.23,2.24c-8.25,7.59-17.7,13.36-27.72,18.26c-2.05,1-4.15,1.92-6.21,2.91c-0.76,0.36-1.47,0.41-2.32,0.31
			c-1.59-0.2-3.23-0.03-4.81-0.24c-6.61-0.88-11.41-4.54-14.84-10.08c-3.93-6.37-7.14-13.11-10.04-20.01
			c-5.3-12.59-8.85-25.67-11.11-39.12C157.33,576.61,157.44,576.11,157.49,575.31z"/>
		<path class="st2" d="M549.42,225.32c2,0.3,3.79,0.56,5.57,0.84c9.44,1.49,17.02,6.12,22.71,13.72
			c7.22,9.66,11.03,20.55,11.06,32.66c0.01,2.95-0.29,5.91-0.42,8.86c-0.04,0.93-0.01,1.86-0.01,3.01c-1.29,0-2.48-0.01-3.67,0
			c-8.17,0.07-16.18,1.54-24.25,2.55c-2.04,0.25-2.29,0.15-2.9-1.81c-4.85-15.46-11.66-30.07-19.29-44.31
			c-2.1-3.92-1.88-5.06,1.59-7.89c2.76-2.25,5.55-4.47,8.34-6.7C548.63,225.87,549.12,225.54,549.42,225.32z"/>
		<path class="st2" d="M300.24,160.17c0.63,0.75,0.99,1.12,1.29,1.54c5.03,7.1,7.78,14.96,8.16,23.69
			c0.39,8.98-0.49,17.74-3.73,26.17c-3.15,8.19-7.75,15.36-14.9,20.68c-5.47,4.08-11.64,6.68-18.16,8.55
			c-7.34,2.1-14.85,3.09-22.45,3.74c-13.97,1.19-27.35-1.15-40.3-6.29c-8.15-3.24-14.87-8.33-19.66-15.79
			c-0.45-0.71-0.85-1.46-1.04-2.4c0.5,0.28,1.01,0.54,1.49,0.85c8.68,5.62,18.2,8.86,28.43,10.24c6.82,0.92,13.65,1.48,20.53,1.15
			c16.78-0.82,32.34-5.47,45.96-15.53c9.81-7.25,15.34-17.16,16.51-29.35c0.83-8.64,0.2-17.2-1.77-25.65
			C300.51,161.39,300.42,161.01,300.24,160.17z"/>
		<path class="st2" d="M172.96,504.07c-1.24,0.56-2.12,1.02-3.05,1.37c-5.12,1.9-10.52,2.76-15.79,4.1
			c-4.54,1.15-9.06,0.86-13.83,0.61c-0.65-1.34-1.37-2.78-2.04-4.23c-5.05-10.94-8.32-22.4-10.13-34.3
			c-0.68-4.45-1.32-8.91-1.88-13.38c-0.17-1.39-0.19-2.83,0-4.22c0.28-2.01,1.44-2.8,3.44-2.32c1.49,0.36,2.95,0.92,4.34,1.57
			c5.08,2.36,9.27,5.92,13.1,9.93c1.16,1.22,2.2,2.55,3.39,3.73c1.2,1.19,1.91,2.59,2.22,4.21c0.69,3.63,1.4,7.26,1.98,10.9
			c0.34,2.11,1.27,3.8,2.95,5.09c5.33,4.09,9.74,9.05,13.71,14.43C171.9,502.25,172.3,503.01,172.96,504.07z"/>
		<path class="st5" d="M507.45,665.04c-0.33,0.54-0.45,0.86-0.67,1.09c-5.62,5.98-11.28,11.92-17.87,16.86
			c-2.3,1.73-4.72,3.34-7.25,4.71c-3.61,1.94-7.51,2.17-11.33,0.67c-6.88-2.7-13.77-5.4-20.23-9.04c-2.77-1.56-2.82-1.96-0.56-4.22
			c6.4-6.42,13.6-11.79,21.47-16.28c3.79-2.16,7.8-2.77,12.06-2c5.76,1.05,11.48,2.29,16.89,4.56
			C502.48,662.47,504.89,663.79,507.45,665.04z"/>
		<path class="st5" d="M149.25,665.28c-3.62,0.95-6.77,1.84-9.96,2.59c-11.53,2.71-23.18,4.77-34.97,6
			c-1.61,0.17-3.21,0.35-4.82,0.44c-2.07,0.12-2.73-0.43-2.9-2.44c-0.39-4.56-0.77-9.11-0.46-13.7c0.24-3.56,1.56-6.43,4.3-8.77
			c4.14-3.53,8.68-6.06,14.17-6.74c4.29-0.53,8.36,0.26,12.12,2.24c7.9,4.16,14.64,9.77,20.16,16.81
			C147.66,662.7,148.29,663.81,149.25,665.28z"/>
		<path class="st5" d="M143.85,512.69c2.45-0.21,4.87,1,6.95,3.34c5.07,5.73,8.64,12.3,11.28,19.42c0.75,2.01,1.43,4.06,2.03,6.12
			c0.55,1.87,0.18,2.31-1.74,2.26c-5.73-0.14-11.37-1.09-16.97-2.21c-3.35-0.67-6.65-1.62-9.97-2.47c-0.65-0.17-1.28-0.4-1.9-0.67
			c-4.49-1.96-6.57-5.4-6.11-10.27c0.25-2.62,0.94-5.16,2.14-7.52C132.38,515.1,137.08,512.7,143.85,512.69z"/>
		<path class="st5" d="M388.59,539.77c0.13-0.53,0.17-0.87,0.29-1.17c4-9.84,8.99-19.09,16.04-27.12c0.67-0.76,1.35-1.5,2.07-2.2
			c2.2-2.14,4.71-2.67,7.59-1.48c3.29,1.36,6.22,3.26,8.48,5.99c1.4,1.69,2.6,3.59,3.68,5.51c1.2,2.14,0.79,3.72-1.04,5.36
			c-5.75,5.17-12.38,8.73-19.76,10.97c-3.47,1.05-6.93,2.13-10.41,3.15C393.36,539.43,391.16,540,388.59,539.77z"/>
		<path class="st5" d="M131.15,551.57c-3.61,0.04-7.37-0.23-10.81-1.99c-1.53-0.78-3.03-1.77-4.27-2.96c-2-1.91-2.04-4.1-0.42-6.34
			c1.46-2.01,3.44-3.37,5.69-4.37c0.61-0.27,1.25-0.5,1.88-0.73c2.81-1.03,2.81-1.03,4.8,1.31c1.94,2.29,4.48,3.64,7.3,4.42
			c2.91,0.8,5.86,1.43,8.8,2.14c0.59,0.14,1.19,0.22,1.77,0.4c1.1,0.33,1.95,0.96,2.07,2.2c0.11,1.15-0.77,1.65-1.6,2.1
			C141.67,550.28,136.74,551.91,131.15,551.57z"/>
		<path class="st5" d="M453.74,544.59c-2.29,2.04-4.97,3.04-7.77,3.72c-5.54,1.35-11.18,1.4-16.83,1.1
			c-2.75-0.14-5.49-0.38-8.23-0.64c-1.81-0.17-2.08-0.75-1.33-2.39c0.58-1.28,1.13-2.57,1.65-3.88c0.46-1.17,1.2-2.09,2.28-2.72
			c0.52-0.3,1.1-0.5,1.63-0.79c1.98-1.06,3.74-0.99,5.84,0.13c5.34,2.85,11.25,3.91,17.19,4.72
			C450.03,544.09,451.88,544.34,453.74,544.59z"/>
		<path class="st6" d="M394.28,540.29c2.98-0.95,5.92-2.07,8.96-2.83c9.11-2.28,17.22-6.4,24.1-12.84c0.14-0.13,0.33-0.22,0.63-0.41
			c0.98,3.21,1.27,6.36,0.46,9.56c-0.33,1.29-1.34,1.94-2.5,2.44c-3.98,1.69-8.07,2.98-12.41,3.28c-5.83,0.41-11.66,0.76-17.49,1.13
			c-0.57,0.04-1.14,0-1.71,0C394.31,540.51,394.29,540.4,394.28,540.29z"/>
		<path d="M275.5,279.39c0.02-2.08-0.12-6.26,0.97-10.34c0.24-0.9,0.57-1.81,1.07-2.58c1.99-3.06,5.81-3.41,8.26-0.72
			c1.92,2.1,3.4,4.52,4.3,7.23c2.85,8.56,5.19,17.25,5.99,26.27c0.54,6.11,0.44,12.22-0.62,18.28c-0.32,1.82-0.97,3.5-2.13,4.95
			c-1.55,1.93-3.38,2.23-5.51,0.93c-1.61-0.98-2.64-2.46-3.52-4.07c-2.99-5.45-5.16-11.22-6.57-17.28
			C276.15,295.3,275.44,288.42,275.5,279.39z M286.65,280.3c-0.11-3.56-1.01-7.11-3.03-10.32c-0.8-1.27-1.68-1.62-2.89-1.3
			c-1.18,0.31-1.79,1.14-1.94,2.32c-0.59,4.65,0.4,8.96,2.84,12.95c0.67,1.09,1.72,1.16,2.85,0.99c1.16-0.17,1.79-0.9,1.97-1.99
			C286.59,282.14,286.58,281.32,286.65,280.3z M293.67,315.16c-0.35-1.16-0.61-2.55-1.18-3.79c-0.6-1.3-1.78-2.01-3.28-1.82
			c-1.44,0.18-2.21,1.21-2.59,2.5c-0.71,2.41-0.41,4.78,0.54,7.06c0.5,1.2,1.41,1.95,2.79,1.92c1.44-0.03,2.45-0.77,2.88-2.1
			C293.2,317.81,293.36,316.61,293.67,315.16z"/>
		<path d="M183.77,300.09c0.18-5.09,0.15-10.29,1.4-15.36c0.29-1.17,0.62-2.35,1.15-3.43c1.31-2.66,4.32-3.46,6.85-1.91
			c1.73,1.07,2.9,2.66,3.54,4.53c1.19,3.49,2.47,6.99,3.26,10.58c1.62,7.45,2.31,15.02,2.09,22.65c-0.12,4.18-0.66,8.32-1.76,12.36
			c-0.42,1.55-1.08,3.04-1.75,4.5c-1.65,3.59-6.12,3.04-7.81,0.58c-0.61-0.88-1.09-1.86-1.53-2.83c-2.05-4.5-3.13-9.29-3.98-14.13
			C184.22,311.87,183.82,306.03,183.77,300.09z M187.65,287.73c0.12,1.36,0.23,3.17,0.46,4.96c0.11,0.85,0.42,1.7,0.74,2.5
			c0.67,1.7,1.58,2.3,2.99,2.12c1.46-0.19,2.26-1,2.47-2.72c0.43-3.59,0.1-7.1-1.42-10.44c-0.19-0.42-0.41-0.85-0.69-1.22
			c-0.69-0.91-1.68-1.08-2.72-0.88c-1.07,0.2-1.57,0.98-1.66,2.01C187.75,285.13,187.72,286.21,187.65,287.73z M198.38,328.32
			c-0.33-1.14-0.49-2.38-1.04-3.41c-1.21-2.31-3.4-2.43-5.03-0.41c-1.58,1.96-1.79,5.7-0.43,7.82c1.12,1.75,3.17,2,4.62,0.49
			C197.68,331.59,198.14,330.06,198.38,328.32z"/>
		<path class="st7" d="M286.65,280.3c-0.07,1.03-0.06,1.84-0.19,2.63c-0.18,1.09-0.81,1.82-1.97,1.99c-1.13,0.17-2.18,0.1-2.85-0.99
			c-2.44-3.98-3.43-8.29-2.84-12.95c0.15-1.18,0.76-2.01,1.94-2.32c1.21-0.32,2.09,0.04,2.89,1.3
			C285.64,273.19,286.54,276.74,286.65,280.3z"/>
		<path class="st8" d="M293.67,315.16c-0.31,1.45-0.47,2.65-0.84,3.78c-0.43,1.33-1.45,2.07-2.88,2.1
			c-1.38,0.03-2.29-0.72-2.79-1.92c-0.96-2.28-1.25-4.65-0.54-7.06c0.38-1.29,1.14-2.31,2.59-2.5c1.5-0.19,2.68,0.52,3.28,1.82
			C293.07,312.62,293.32,314,293.67,315.16z"/>
		<path class="st9" d="M268.64,375.02c2.69,0.29,4.83,0.5,6.96,0.77c0.73,0.09,1.45,0.29,2.14,0.54c1.13,0.41,1.75,1.24,1.72,2.46
			c-0.11,4.63,0.1,9.27-1.02,13.84c-0.95,3.88-2.22,7.62-4.19,11.09c-5.5,9.67-17.02,12.28-26.24,5.97
			c-4.5-3.08-7.52-7.44-10.38-11.95c-0.48-0.76-0.21-1.44,0.11-2.1c4.76-9.83,12.04-16.77,22.85-19.43
			C263.38,375.53,266.3,375.36,268.64,375.02z"/>
		<path class="st10" d="M257.84,356.38c2.78,4.99,6.43,9.12,10.2,13.16c0.5,0.54,1.05,1.06,1.67,1.44c1.12,0.69,2.09,0.48,2.75-0.66
			c0.5-0.86,0.87-1.83,1.1-2.8c1.11-4.64,2.16-9.3,3.23-13.95c0.07-0.3,0.15-0.6,0.25-1c1.26,2.51,3.03,18.17,2.7,23.32
			c-8.66-2.8-17.18-2.3-25.46,1.41c-8.36,3.74-13.93,10.32-17.89,18.64c-2.57-3.47-3.54-7.11-2.97-11.05
			c1.15-8.01,4.71-14.95,9.72-21.2c0.84-1.05,1.81-1.99,2.68-3.02c1.6-1.88,3.67-2.91,6.07-3.33
			C253.8,357.01,255.72,356.72,257.84,356.38z"/>
		<path class="st11" d="M244.07,358.99c-1.6,1.87-3.34,3.64-4.77,5.64c-1.48,2.07-2.8,4.29-3.92,6.57
			c-1.08,2.23-1.91,4.59-2.68,6.96c-0.77,2.35-1.32,4.78-2.06,7.5c-0.41-0.79-0.72-1.29-0.94-1.82c-2.71-6.46-4.91-13.09-6.67-19.87
			c-0.08-0.33-0.21-0.65-0.25-0.98c-0.14-1.12,0.2-1.61,1.37-1.79c1.86-0.28,3.74-0.45,5.6-0.73c3.99-0.6,7.97-1.23,11.96-1.87
			C242.53,358.47,243.32,358.2,244.07,358.99z"/>
		<path class="st7" d="M274.58,351.13c-0.2,4.04-2.73,14.94-4.11,17.45c-4.09-3.95-7.64-8.22-10.44-13.12
			C261.48,354.51,272.8,351.2,274.58,351.13z"/>
		<path class="st7" d="M187.65,287.73c0.07-1.53,0.09-2.6,0.18-3.67c0.08-1.03,0.58-1.81,1.66-2.01c1.04-0.2,2.03-0.03,2.72,0.88
			c0.28,0.37,0.49,0.8,0.69,1.22c1.51,3.34,1.85,6.84,1.42,10.44c-0.21,1.72-1.01,2.53-2.47,2.72c-1.41,0.18-2.32-0.42-2.99-2.12
			c-0.32-0.81-0.62-1.65-0.74-2.5C187.88,290.9,187.77,289.09,187.65,287.73z"/>
		<path class="st8" d="M198.38,328.32c-0.24,1.74-0.69,3.27-1.87,4.49c-1.45,1.5-3.5,1.26-4.62-0.49c-1.36-2.12-1.15-5.85,0.43-7.82
			c1.63-2.02,3.82-1.89,5.03,0.41C197.88,325.94,198.04,327.18,198.38,328.32z"/>
		<path class="st12" d="M351.08,332.73c1.94,0.22,5.49,0.52,9.01,1.04c1.43,0.21,2.88,0.75,4.17,1.42c2.39,1.25,2.69,2.98,0.77,4.84
			c-1.34,1.29-2.9,2.44-4.54,3.3c-4.06,2.14-8.42,3.54-12.86,4.7c-8.98,2.34-18.11,3.38-27.38,3.03c-3.1-0.12-6.16-0.63-9.08-1.73
			c-1.35-0.5-2.65-1.04-2.9-2.74c-0.26-1.76,0.83-2.74,2.05-3.64c3.06-2.26,6.41-3.99,10.01-5.15
			C329.78,334.74,339.48,332.98,351.08,332.73z"/>
		<path class="st12" d="M148.28,375.43c-2.05-0.23-4.92-0.53-7.78-0.89c-0.65-0.08-1.33-0.29-1.91-0.6
			c-1.51-0.8-1.84-2.69-0.64-3.92c0.6-0.61,1.38-1.07,2.13-1.51c5.1-3,10.69-4.67,16.44-5.84c6.54-1.34,13.14-2.09,19.82-1.5
			c1.53,0.14,3.04,0.53,4.53,0.91c0.93,0.23,1.76,0.71,1.93,1.82c0.17,1.13-0.31,2.02-1.24,2.56c-2.26,1.31-4.46,2.82-6.87,3.76
			C166.48,373.41,157.9,374.94,148.28,375.43z"/>
	</g>
</g>
</svg>
