<?xml version="1.0" encoding="utf-8"?>
<!-- Generator: Adobe Illustrator 24.3.0, SVG Export Plug-In . SVG Version: 6.00 Build 0)  -->
<svg version="1.1" id="Layer_1" xmlns="http://www.w3.org/2000/svg" xmlns:xlink="http://www.w3.org/1999/xlink" x="0px" y="0px"
	 viewBox="0 0 720 720" style="enable-background:new 0 0 720 720;" xml:space="preserve">
<style type="text/css">
	.st0{fill:#11161C;}
	.st1{fill:#E198BF;}
	.st2{fill:#C283A6;}
</style>
<g>
	<path class="st0" d="M645.83,380.88c-3.52,12.44-10.24,21.25-20.15,26.43c-7.38,3.63-17.51,5.67-30.39,6.11
		c-14.2-0.22-24.22-0.06-30.06,0.5c-9.8,0.99-16.19,4.24-19.16,9.74c-5.4,10.02-3.63,19.27,5.29,27.75
		c4.29,4.07,15.31,11.12,33.03,21.14c16.08,9.03,26.81,17.12,32.21,24.28c8.15,10.79,8.86,23.18,2.15,37.16
		c-5.73,12.11-15.91,17.67-30.56,16.68c-16.19-3.41-27.25-4.57-33.2-3.47c-6.72,1.21-14.37,5.51-22.96,12.88
		c-7.71,6.61-15.14,9.91-22.3,9.91c-6.5,0-12.88-1.87-19.16-5.62L474.06,552c-15.09-11.78-31.44-17.34-49.05-16.68
		c-8.7,0.33-16.57,2.2-23.62,5.62l-17.34,10.74c-14.86,10.02-31.38,15.03-49.55,15.03c-18.39,0-35.01-7.1-49.88-21.31l-17.51-16.85
		c-7.05-5.84-14.2-9.8-21.47-11.89c-11.12-3.19-23.67-3.19-37.66,0c-7.71,1.76-19.54,5.73-35.51,11.89
		c-13.87,5.29-23.95,8.26-30.23,8.92c-9.58,0.99-16.96-1.82-22.13-8.42c-9.14-11.89-6.17-26.98,8.92-45.26l15.69-18.83
		c4.4-6.39,5.34-11.29,2.81-14.7c-2.75-3.85-7.76-6.44-15.03-7.76l-21.14-2.64c-19.27-2.75-31.6-12.11-37-28.08
		c-4.4-13.1-2.64-26.76,5.29-40.96c6.06-10.68,17.84-24.72,35.35-42.12l50.38-50.54c20.81-22.24,37.88-44.26,51.2-66.07l14.7-25.27
		c4.95-8.59,9.36-15.03,13.21-19.32c9.69-11.12,23.23-16.68,40.63-16.68c9.36,0,20.37,3.96,33.03,11.89
		c12.66,7.82,23.89,11.73,33.69,11.73c11.34,0,26.26-3.58,44.76-10.74c17.29-6.72,31.44-9.58,42.45-8.59
		c13.43,1.21,24.5,6.28,33.2,15.2c6.39,6.61,12.72,16.96,18.99,31.05l16.68,36.83c7.49,13.98,16.24,24.83,26.26,32.54
		c6.39,4.95,18.06,11.62,35.02,19.98c19.71,9.58,33.36,16.79,40.96,21.64C641.43,331.94,653.32,354.79,645.83,380.88"/>
	<path class="st1" d="M639.06,381.38c-2.86,9.8-9.03,16.52-18.5,20.15c-6.61,2.53-16.46,3.91-29.56,4.13l-29.73,1.32
		c-9.8,1.65-16.24,5.67-19.32,12.06c-5.95,12.55-4.73,23.73,3.63,33.53c5.07,5.95,15.75,13.49,32.04,22.63
		c16.63,9.36,27.42,16.79,32.37,22.3c8.48,9.47,9.85,20.21,4.13,32.21c-5.29,11.01-14.97,15.97-29.07,14.86
		c-15.64-3.3-26.26-4.46-31.88-3.47c-5.95,1.1-13.1,5.07-21.47,11.89c-7.49,6.06-15.31,9.08-23.45,9.08
		c-4.18,0-9.19-1.76-15.03-5.29l-17.51-11.73c-17.07-11.12-34.35-16.35-51.86-15.69c-8.26,0.33-15.75,2.09-22.46,5.29
		c-2.97,1.32-8.48,4.62-16.52,9.91c-14.31,9.47-30.61,14.2-48.89,14.2c-16.41,0-32.65-7.32-48.72-21.97l-18.83-16.52
		c-7.27-5.51-14.64-8.97-22.13-10.41c-15.2-2.97-39.14,0.83-71.85,11.4c-14.42,4.73-24.55,7.49-30.39,8.26
		c-9.25,1.43-15.75,0-19.49-4.29c-7.71-8.81-4.13-22.24,10.74-40.3l15.53-19.65c4.62-6.72,5.95-11.89,3.96-15.53
		c-3.08-5.95-8.26-10.02-15.53-12.22l-21.47-3.47c-9.36-1.1-16.52-3.03-21.47-5.78c-7.16-3.96-12.33-10.46-15.53-19.49
		c-3.63-10.24-1.21-22.3,7.27-36.17c6.39-10.24,18.28-24.39,35.68-42.45l48.89-51.04c19.71-21.69,35.4-42.17,47.07-61.44
		c14.97-24.44,24.61-39.03,28.9-43.77c10.35-11.45,23.07-17.18,38.15-17.18c8.81,0,18.94,3.85,30.39,11.56
		c11.34,7.6,24.06,11.34,38.15,11.23c11.89-0.11,26.59-3.69,44.1-10.74c16.19-6.5,29.4-9.25,39.64-8.26
		c11.45,1.1,21.03,6.11,28.74,15.03c5.62,6.39,11.51,16.68,17.67,30.89l16.68,36.34c7.27,13.54,15.69,24,25.27,31.38
		c6.17,4.73,17.62,11.01,34.35,18.83c19.71,9.25,33.42,16.19,41.13,20.81C634.49,332.88,646.55,355.39,639.06,381.38"/>
	<path class="st0" d="M404.36,252.72c-0.11-0.99,0.17-1.87,0.83-2.64c0.66-0.66,1.49-1.05,2.48-1.16s1.87,0.17,2.64,0.83
		c0.77,0.55,1.21,1.38,1.32,2.48c0.11,0.99-0.17,1.87-0.83,2.64l-2.48,1.16C405.9,256.24,404.58,255.14,404.36,252.72"/>
	<path class="st0" d="M306.25,248.42c-0.11-0.99,0.11-1.87,0.66-2.64c0.66-0.66,1.49-1.05,2.48-1.16c2.42-0.22,3.74,0.88,3.96,3.3
		l-0.83,2.64l-2.48,1.16c-0.99,0.11-1.87-0.17-2.64-0.83L306.25,248.42"/>
	<path class="st2" d="M96.16,418.87c4.95,1.87,11.4,3.36,19.32,4.46c22.57,3.08,36.56,7.98,41.95,14.7
		c5.07,6.28,3.08,15.09-5.95,26.43c4.07-6.28,5.18-11.18,3.3-14.7c-3.08-5.95-8.26-10.02-15.53-12.22l-21.47-3.47
		c-9.36-1.1-16.52-3.03-21.47-5.78c-7.16-3.96-12.33-10.46-15.53-19.49C85.21,413.2,90.33,416.56,96.16,418.87"/>
	<path class="st2" d="M616.76,394.76c11.01-3.19,18.72-8.7,23.12-16.52l-0.83,3.14c-2.86,9.8-9.03,16.52-18.5,20.15
		c-6.61,2.53-16.46,3.91-29.56,4.13l-29.73,1.32c-9.8,1.65-16.24,5.67-19.32,12.06c-4.07,8.7-4.79,16.74-2.15,24.11
		c-8.04-10.46-9.74-20.32-5.12-29.56c4.73-9.14,13.6-13.71,26.59-13.71C586.37,399.88,604.87,398.17,616.76,394.76"/>
	<path class="st2" d="M232.09,494.68c11.12,0,21.2,2.81,30.23,8.42c5.29,3.3,12.39,9.41,21.31,18.33
		c8.92,8.92,16.19,15.03,21.8,18.33c9.25,5.62,19.65,8.42,31.22,8.42c18.06,0,34.74-5.51,50.04-16.52
		c8.15-5.84,13.98-9.63,17.51-11.4c7.16-3.41,15.03-5.12,23.62-5.12c18.17,0,34.74,6.28,49.71,18.83l15.69,12.88
		c5.73,3.85,11.4,5.78,17.01,5.78c6.94,0,14.15-3.85,21.64-11.56c7.49-7.71,16.13-11.56,25.93-11.56c6.61,0,16.74,2.26,30.39,6.77
		c8.92,2.86,16.85,1.93,23.78-2.81c-5.62,8.7-15.14,12.33-28.57,10.9l-16.19-2.64l-14.04-0.66c-5.95,1.1-13.1,5.07-21.47,11.89
		c-7.49,6.06-15.31,9.08-23.45,9.08c-4.18,0-9.19-1.76-15.03-5.29l-17.51-11.73c-17.07-11.12-34.35-16.35-51.86-15.69
		c-8.26,0.33-15.75,2.09-22.46,5.29c-2.97,1.32-8.48,4.62-16.52,9.91c-14.31,9.47-30.61,14.2-48.89,14.2
		c-16.41,0-32.65-7.32-48.72-21.97l-18.83-16.52c-7.27-5.51-14.64-8.97-22.13-10.41c-15.2-2.97-39.14,0.83-71.85,11.4
		c-14.42,4.73-24.55,7.49-30.39,8.26c-9.25,1.43-15.75,0-19.49-4.29c-1.43-1.54-2.48-3.25-3.14-5.12
		c12.22,7.6,29.95,5.89,53.18-5.12l28.57-13.54C214.2,496.94,223.83,494.68,232.09,494.68"/>
	<path class="st0" d="M353.32,296.82c36.12,1.87,61.88,2.42,77.3,1.65c3.74-0.22,7.38-1.76,10.9-4.62c1.21-0.99,2.09-1.27,2.64-0.83
		c0.55,0.44,0.39,1.27-0.5,2.48l-5.78,5.29c-1.98,0.88-4.57,1.43-7.76,1.65c-20.15,0.99-44.87,0.72-74.16-0.83l-78.78-6.77
		l-6.61-2.48l-5.45-4.79c-1.98-2.53-2.64-4.02-1.98-4.46c0.55-0.33,1.98,0.5,4.29,2.48c3.3,2.75,6.77,4.4,10.41,4.95L353.32,296.82"
		/>
</g>
</svg>
