<?xml version="1.0" encoding="utf-8"?>
<!-- Generator: Adobe Illustrator 24.3.0, SVG Export Plug-In . SVG Version: 6.00 Build 0)  -->
<svg version="1.1" id="Layer_1" xmlns="http://www.w3.org/2000/svg" xmlns:xlink="http://www.w3.org/1999/xlink" x="0px" y="0px"
	 viewBox="0 0 720 720" style="enable-background:new 0 0 720 720;" xml:space="preserve">
<style type="text/css">
	.st0{fill-rule:evenodd;clip-rule:evenodd;fill:#211714;}
	.st1{fill-rule:evenodd;clip-rule:evenodd;fill:#211E1E;}
	.st2{fill-rule:evenodd;clip-rule:evenodd;fill:#C47430;}
	.st3{fill-rule:evenodd;clip-rule:evenodd;fill:#F0E5BB;}
	.st4{fill-rule:evenodd;clip-rule:evenodd;fill:#CDAF97;}
	.st5{fill-rule:evenodd;clip-rule:evenodd;fill:#B66233;}
	.st6{fill-rule:evenodd;clip-rule:evenodd;fill:#C57530;}
	.st7{fill-rule:evenodd;clip-rule:evenodd;fill:#363939;}
	.st8{fill-rule:evenodd;clip-rule:evenodd;fill:#FFFFFF;}
	.st9{fill-rule:evenodd;clip-rule:evenodd;fill:#CACBCC;}
	.st10{fill-rule:evenodd;clip-rule:evenodd;fill:#EFE9D7;}
	.st11{fill-rule:evenodd;clip-rule:evenodd;fill:#B76133;}
	.st12{fill-rule:evenodd;clip-rule:evenodd;fill:#FDFEFF;}
	.st13{fill-rule:evenodd;clip-rule:evenodd;fill:#BAB18C;}
	.st14{fill-rule:evenodd;clip-rule:evenodd;fill:#B7AE8B;}
	.st15{fill-rule:evenodd;clip-rule:evenodd;fill:#C8C9CA;}
	.st16{fill-rule:evenodd;clip-rule:evenodd;fill:#A95426;}
	.st17{fill-rule:evenodd;clip-rule:evenodd;fill:#231713;}
</style>
<g>
	<path class="st0" d="M513.11,538.1c-0.44,3.68-0.59,7.43-1.37,11.04c-1.33,6.15-2.69,12.3-4.95,18.24
		c-2.11,5.57-4.66,10.91-7.41,16.17c-2.8,5.37-6.34,10.3-10.02,15.08c-5.02,6.51-10.42,12.73-16.45,18.36
		c-1.81,1.69-3.45,3.54-5.3,5.2c-8.56,7.66-18.85,10.83-30,11.95c-17.94,1.8-35.91,2.72-53.93,1.77c-3.77-0.2-7.53-0.68-11.28-1.14
		c-2.15-0.27-4.21,0.29-6.31,0.44c-7.48,0.5-14.95,0.8-22.4-0.37c-1.08-0.17-2.11,0.09-3.15,0.2c-5.28,0.56-8.92-1.54-10.96-6.44
		c-2.6-6.27-2.89-12.78-1.55-19.37c0.67-3.3,1.47-4.3,5.86-8.72c-2.01-0.57-3.94-1.11-5.96-1.69c-1.38,8.97-2.61,17.88-4.65,26.64
		c-0.48,2.07-1.23,4.03-2.2,5.92c-1.86,3.63-4.74,5.76-8.77,6.43c-9.57,1.6-19.24,2.08-28.9,2.63c-8.23,0.47-16.44,1.34-24.7,0.92
		c-1.43-0.07-2.86-0.23-4.28-0.45c-1.11-0.17-2.13-0.54-1.66-2.06c0.38-1.2-0.55-0.9-1.15-1.02c-4.79-0.99-9.48,0.31-14.21,0.62
		c-4.77,0.31-9.51,0.55-14.26-0.1c-2.9-0.4-2.93-0.39-1.7-3.39c-4.68,0.42-9.22,0.93-13.78,1.21c-13.43,0.84-26.84,2.24-40.33,1.77
		c-1.23-0.04-2.85,0.44-3.13-1.7c-0.08-0.6-1.07-0.38-1.64-0.41c-5.59-0.29-11.18-0.54-16.77-0.83c-1.09-0.06-2.43,0.23-3.06-0.99
		c-0.67-1.3,0.31-2.29,0.98-3.28c4.62-6.78,11.06-11.75,17.09-17.12c2.2-1.96,4.51-3.78,6.43-6.06c3.11-3.7,3.83-7.97,3.23-12.56
		c-2.29-17.34-6.15-34.32-11.25-51.05c-2.91-9.53-5.38-19.19-8.03-28.8c-0.2-0.73-0.38-1.44-0.82-2.09
		c-5.56-8.05-9.96-16.74-14.02-25.62c-0.09-0.2-0.22-0.38-0.53-0.88c-1.11,5.67-2.17,11.04-3.23,16.4
		c-0.59,2.97-1.18,5.93-1.76,8.89c-0.13,0.67-0.16,1.46-1,1.58c-0.9,0.13-1.04-0.72-1.3-1.31c-4.53-10.13-7.5-20.68-9.14-31.67
		c-1.84-12.27-2.17-24.54-0.98-36.87c0.1-1.03,0.11-2.08,0.18-3.45c-3.29,2.32-5.55,5.25-8.15,7.81c-0.84,0.83-1.42,2.73-2.82,2.06
		c-1.14-0.55-0.27-2.19-0.14-3.34c2.09-17.81,6.85-34.8,15.48-50.6c0.06-0.11-0.01-0.28-0.03-0.71c-2.5,1.88-4.86,3.67-7.25,5.43
		c-0.64,0.47-1.3,1.32-2.18,0.66c-0.84-0.63-0.1-1.41,0.16-2.05c7.2-17.49,15.2-34.58,25.88-50.29c0.88-1.3,0.79-1.85-0.53-2.76
		c-12.11-8.3-24.01-16.83-34.26-27.51c-6.9-7.19-11.87-15.23-13.56-25.11c-0.34-1.96-1.41-3.16-2.9-4.31
		c-4.57-3.51-8.75-7.4-12.27-12.03c-5.36-7.04-4.84-14.31-1.2-21.74c1.54-3.14,3.7-5.89,6.19-8.35c0.81-0.8,1.21-1.58,1.06-2.78
		c-0.32-2.65,0.06-5.29,0.6-7.89c0.65-3.16,2.59-5.39,5.28-7.04c8-4.91,20.27-4.11,28.05,1.83c0.3,0.23,0.54,0.54,0.85,0.74
		c1.98,1.28,2.48,1.12,3.35-1.07c2.3-5.75,4.55-11.53,7.65-16.91c4.63-8.02,10.92-14.62,17.89-20.62c2.98-2.56,2.95-2.54,1.31-6.14
		c-2.22-4.88-4.34-9.8-6.59-14.67c-1.72-3.72-1.43-7.28,0.34-10.9c3.21-6.6,7.66-12.34,12.41-17.83
		c19.4-22.45,41.63-41.52,67.7-55.89c6.29-3.47,12.99-6.09,19.63-8.81c0.77-0.31,1.72-1.1,2.44-0.03c0.62,0.92-0.35,1.51-0.81,2.12
		c-5.58,7.35-11.19,14.68-16.78,22.02c-0.46,0.6-0.88,1.22-1.5,2.1c5.45-1.26,10.6-2.62,15.89-3.31c11.58-1.51,23.2-2.05,34.87-1.55
		c0.71,0.03,1.67-0.16,1.91,0.78c0.24,0.95-0.68,1.25-1.31,1.61c-4.33,2.48-8.67,4.94-12.99,7.42c-1.04,0.6-2.04,1.27-3.45,2.17
		c1.73,0.58,3.09,1.05,4.45,1.5c5.23,1.74,10.48,3.45,15.24,6.33c0.62,0.37,1.58,0.58,1.47,1.51c-0.12,0.96-1.12,0.87-1.81,1.04
		c-5.12,1.26-10.24,2.49-15.99,3.88c5.76,2.99,10.96,5.64,16.1,8.4c1.04,0.56,3.12,0.7,2.73,2.17c-0.43,1.62-2.23,0.43-3.39,0.4
		c-1.93-0.05-3.85-0.33-5.9-0.16c0.62,0.35,1.24,0.72,1.86,1.07c16.02,8.94,30.56,19.82,43.25,33.11c0.7,0.73,2.06,1.37,1.73,2.47
		c-0.4,1.33-1.98,0.88-3,0.93c-8.61,0.41-17.23,0.79-25.88,0.52c0.21,0.81,1.01,0.8,1.56,1.03c6.8,2.96,13.34,6.41,19.69,10.23
		c0.65,0.39,1.84,0.59,1.45,1.68c-0.33,0.94-1.4,0.7-2.2,0.71c-2.08,0.04-4.16,0.01-6.3,0.22c4.62,3.36,9.13,6.72,13.47,10.31
		c13.63,11.26,23.76,25.02,30.21,41.54c1.62,4.14,1.39,7.43-1.62,10.81c-3.58,4-6.95,8.2-10.86,11.89
		c-5.08,4.8-10.3,9.4-17.72,10.38c3.53,10.83,7.26,21.43,11.51,31.85c0.93,2.28,2.48,3.93,4.57,5.15
		c8.03,4.7,16.46,8.61,24.68,12.94c14.72,7.75,29.25,15.81,43.26,24.79c2.36,1.52,2.42,1.5,3.1-1.29c3.15-12.8,7.62-25.13,13.36-37
		c7.28-15.03,19.2-23.93,35.42-27.78c14.57-3.46,29.22-6.31,44.2-5.05c37.66,3.18,73.21,12.69,103.8,36.24
		c7.82,6.02,14.78,12.96,21.61,20.05c0.45,0.47,1.17,0.92,0.8,1.71c-0.37,0.79-1.2,0.5-1.84,0.46c-8.98-0.53-17.94-1.33-26.82-2.89
		c-0.95-0.17-1.91-0.29-3.01-0.46c0.14,0.39,0.15,0.65,0.28,0.78c14.19,14.36,25.51,30.84,35.86,48.07
		c7.37,12.27,13.94,24.91,19.19,38.23c0.31,0.78,1.17,1.7,0.35,2.49c-0.8,0.77-1.7-0.08-2.51-0.38c-10.36-3.9-20.1-9.05-29.64-14.61
		c-0.58-0.34-1.16-0.66-2.36-1.34c0.9,1.21,1.39,1.91,1.92,2.56c4.72,5.82,9,11.97,13.07,18.26c0.43,0.67,1.3,1.43,0.51,2.18
		c-0.8,0.76-1.52-0.22-2.16-0.63c-6.9-4.47-14.22-8.19-21.6-12.02c-0.02,0.34-0.08,0.52-0.03,0.57
		c13.77,12.63,23.47,28.14,31.56,44.78c2.58,5.31,4.86,10.73,6.85,16.28c0.23,0.64,0.47,1.28,0.59,1.95
		c0.17,0.93,0.71,2.04-0.41,2.68c-1.01,0.58-1.69-0.42-2.34-0.96c-7.35-6.07-14.67-12.17-22-18.26c-0.4-0.33-0.82-0.64-1.62-1.26
		c0.87,5.21,1.66,9.99,2.46,14.76c0.32,1.94,0.65,3.87,0.99,5.81c0.15,0.85,0.29,1.76-0.56,2.25c-0.95,0.55-1.53-0.35-2.11-0.87
		c-8.54-7.72-16.87-15.64-23.93-24.79c-0.53-0.68-0.92-1.54-1.92-1.98c-0.8,2.48-1.5,4.92-2.38,7.3
		c-6.73,18.1-18.66,31.91-34.79,42.34c-12.53,8.1-26.15,13.46-40.66,16.65c-1.15,0.26-1.46,0.73-1.47,1.71
		C513.39,529.96,513.39,534.03,513.11,538.1z"/>
	<path class="st1" d="M513.11,538.1c0-4.07,0-8.14,0-12.21C513.67,529.96,513.7,534.03,513.11,538.1z"/>
	<path class="st2" d="M332.38,537.34c-0.16-6.4,0.07-12.8-0.35-19.21c-0.64-9.71-2.09-19.29-3.95-28.81
		c-0.14-0.74-0.22-1.48-0.34-2.23c0.85-0.86,0.98-0.88,1.88-0.01c0.85,0.83,1.41,1.96,2.74,2.69c-0.6-3.6-1.95-6.78-2.94-10.06
		c-2.56-8.49-5.88-16.67-10.92-24.03c-1.57-2.29-2.87-4.78-4.89-6.75c-3.41-5.7-6.67-11.48-10.4-16.99
		c0.89-0.59,1.47-0.01,2.05,0.23c6.24,2.5,12.47,5.05,18.71,7.55c0.79,0.32,1.69,1.1,2.5,0.24c0.73-0.79-0.1-1.55-0.44-2.25
		c-6.66-13.69-14.95-26.3-25.43-37.37c-5.26-5.55-11.02-10.58-17.48-14.74c-0.43-0.28-0.83-0.59-1.6-1.14
		c5.09,0.54,9.73,1.03,14.36,1.53c0.8,0.09,1.84,0.6,2.23-0.37c0.45-1.12-0.76-1.51-1.47-1.96c-5.77-3.64-11.79-6.78-18.37-8.74
		c-0.34-0.1-0.76-0.09-1.03-0.85c4.96-0.05,9.8-0.23,14.65,0.12c1.28,0.09,2.56,0.16,3.85,0.21c0.52,0.02,1.12,0.1,1.41-0.48
		c0.37-0.73-0.26-1.11-0.67-1.51c-3.79-3.72-7.81-7.13-12.4-9.86c-12.19-7.25-25.02-12.76-39.22-14.62
		c-0.12-0.02-0.22-0.16-0.72-0.54c4.03-0.71,7.74-1.37,11.45-2.01c1.86-0.32,3.73-0.59,5.59-0.9c0.76-0.13,1.9,0.18,1.95-1.01
		c0.03-0.9-0.98-1.05-1.66-1.28c-4.65-1.6-9.41-2.8-14.25-3.63c-8.67-1.5-17.41-1.83-26.23-1.65c0.16-1,1.05-1.42,1.67-2.02
		c7.08-6.73,13.82-13.78,20.06-21.3c2.66-3.22,4.79-6.79,6.95-10.35c5.41-8.93,3.97-17.99,0.37-27c-2.98-7.45-7.41-14-13.06-19.74
		c-2.71-2.75-5.83-4.75-9.42-6.13c-6.56-2.5-13.27-4.53-19.99-6.62c4.23,0.34,8.46,0.63,12.68,1.04c3.29,0.32,3.79-0.07,3.66-3.28
		c-0.39-9.36-2.25-18.42-5.63-27.16c-0.1-0.27-0.16-0.55-0.25-0.83c0.8-0.47,1.55-0.16,2.28-0.21c0.56-0.04,1.41,0.22,1.43-0.64
		c0.03-0.76-0.75-0.76-1.36-0.85c-4.46-0.62-8.94-0.44-13.35,0.13c-12.2,1.57-23.76,5.17-34.13,11.98
		c-5.15,3.38-9.4,7.62-11.62,13.54c-0.43,1.15-1.06,1.54-2.29,1.69c-5.92,0.71-11.8,1.74-17.53,3.42c-1.54,0.45-2.84,0.32-4.24-0.64
		c-4.45-3.04-9.3-5.35-14.32-7.28c-1.45-0.56-1.93-1.09-1.35-2.79c5.48-16.25,14.98-29.63,28.65-39.93
		c4.23-3.19,9.29-5.03,14.16-7.1c5.07-2.15,10.06-4.54,15.42-5.93c5.3-1.37,10.71-0.86,16.03-0.53c11.33,0.7,22.51,2.47,33.41,5.75
		c7.9,2.38,15.52,5.49,22.84,9.34c1.51,0.8,1.82,1.31,0.49,2.69c-2.15,2.23-4.06,4.68-6.01,7.09c-0.47,0.58-1.55,1.35-0.68,2.07
		c0.9,0.75,1.39-0.47,1.84-1.07c5.75-7.65,12.62-14.05,20.89-18.92c1.04-0.61,2.11-1.18,3.14-1.82c3.36-2.09,6.86-2.37,10.65-1.28
		c11.67,3.35,21.91,9.26,31.36,16.81c14.18,11.33,25.2,24.96,31.84,41.96c0.17,0.42,0.29,0.86,0.5,1.26
		c1.7,3.26,1.25,6.02-1.23,8.88c-5.61,6.46-11.08,13.02-18.16,18c-4.19,2.95-8.69,4.15-13.87,3.7c-8.2-0.71-16.41-1.29-24.51-2.85
		c-0.3-0.06-0.6-0.09-0.9-0.08c-0.49,0.02-1.17-0.21-1.29,0.53c-0.12,0.71,0.49,0.82,1.02,0.93c2.14,0.41,4.27,0.94,6.44,1.22
		c6.67,0.86,13.35,1.62,20.07,1.87c1.6,0.06,2.22,0.61,2.68,2.03c3.31,10.28,6.92,20.46,11.06,30.45c0.4,0.97,0.75,2.14,1.5,2.75
		c1.72,1.41,1.29,2.81,0.67,4.55c-4.96,14.02-13.21,26.12-21.94,37.96c-1.74,2.36-3.42,4.76-4.95,7.88
		c5.1-1.12,9.22-3.41,13.93-5.99c-1.55,3.12-2.81,5.65-4.05,8.18c-0.32,0.66-0.85,1.36-0.06,2.04c0.66,0.57,1.28,0.11,1.89-0.17
		c0.87-0.4,1.73-0.82,3.17-1.51c-4.08,8.16-9.35,14.85-13.39,22.4c1.26,0.24,1.98-0.38,2.75-0.78
		c16.11-8.34,27.78-21.18,36.77-36.64c4-6.87,7.19-14.15,9.83-21.65c0.47-1.33,0.83-1.64,2.18-0.9c6.89,3.79,13.82,7.5,20.78,11.16
		c1.33,0.7,1.44,1.3,0.8,2.63c-4.88,10.23-11.12,19.58-18.04,28.51c-0.51,0.66-1,1.33-1.5,1.99c-0.39,0.51-0.66,1.11-0.27,1.67
		c0.46,0.66,1.1,0.24,1.64,0.02c2.88-1.16,5.61-2.63,8.26-4.25c0.63-0.38,1.18-0.94,2.46-1c-1.8,3.53-3.37,6.92-5.21,10.15
		c-4.01,7.02-8.17,13.96-12.25,20.95c-0.57,0.98-1.05,2.01-1.54,3.03c-0.12,0.24-0.19,0.63-0.08,0.83c0.24,0.43,0.66,0.22,0.99,0.05
		c1.68-0.86,3.36-1.73,5.62-2.91c-2.07,3.61-3.78,6.8-5.67,9.87c-3.96,6.44-7.87,12.91-11.56,19.51c-0.31,0.55-1.14,1.2-0.59,1.76
		c0.68,0.69,1.36-0.21,1.97-0.55c4.14-2.3,8-5.03,12.09-7.52c-3.67,7.24-8.87,13.42-13.57,20.26c1.93-0.02,3.08-1.13,4.32-1.97
		c8.5-5.76,15.27-13.27,21.59-21.24c6.79-8.55,12.74-17.66,17.99-27.23c0.39-0.71,0.84-1.38,1.44-2.01
		c-0.84,7.07-3.29,13.79-4.54,20.97c1.68-0.35,2.3-1.57,3.1-2.48c6.18-6.98,10.37-15.22,14.68-23.38
		c4.38-8.29,8.64-16.65,10.72-25.9c0.26-1.18,0.67-1.49,1.79-0.76c6.99,4.52,13.92,9.11,20.58,14.12c1.06,0.8,0.84,1.56,0.58,2.54
		c-2.09,7.93-5.42,15.38-8.74,22.83c-3.66,8.22-7.7,16.26-12.31,23.99c-0.37,0.61-1.21,1.38-0.61,1.99c0.8,0.83,1.49-0.23,2.09-0.67
		c3.72-2.69,7.41-5.43,11.47-8.43c-0.44,2.91-1.39,5.25-2.22,7.62c-2.96,8.43-6.63,16.55-10.58,24.55
		c-0.23,0.47-0.51,0.93-0.68,1.43c-0.19,0.53-0.78,1.14-0.22,1.66c0.73,0.68,1.22-0.16,1.71-0.53c9.3-6.98,16.68-15.77,23.49-25.07
		c2.49-3.4,4.73-7,7.44-10.39c-0.79,2.81-1.57,5.62-2.39,8.42c-0.19,0.65-0.66,1.42,0.06,1.84c0.73,0.43,1.21-0.37,1.62-0.87
		c5.23-6.28,9.01-13.4,12.11-20.92c0.92-2.23,1.83-4.46,2.87-6.98c4.32,4.32,8.23,8.69,11.87,13.29
		c8.47,10.72,15.44,22.37,21.64,34.54c1.48,2.89,2.71,5.78,3.6,8.86c1.51,7.82,1.04,15.63-0.33,23.4c-1.67,9.46-3.47,18.9-6.67,28
		c-0.34,0.96-0.43,2.13-1.63,2.56c-10.8-6.36-21.83-12.26-33.88-15.95c-2.33-0.71-4.73-1.21-7.59-1.93
		c1.51,2.77,3.58,4.45,4.97,6.79c-10.32-5.3-21.31-7.98-32.89-8.53c7.74,5.73,15.86,10.84,22.87,17.44
		c-0.5,0.68-1.08,0.25-1.51,0.46c-2.94-0.3-5.87-0.34-8.81,0.02c-1.78,0.57-0.95,1.22,0.02,1.66c1.29,0.59,2.65,1.01,3.97,1.54
		c9.09,3.63,16.93,9.31,24.59,15.22c6.12,4.72,12.14,9.57,17.77,14.89c0.62,0.8,0.21,1.62-0.05,2.36
		c-2.79,7.94-6.57,15.38-11.17,22.42c-0.37,0.57-0.73,1.16-1.47,1.33c-6.41-5.37-13.12-10.35-20.15-14.87
		c-10.12-6.51-20.66-12.24-31.96-16.46c-4.33-1.61-8.79-2.8-13.26-3.95c-0.55-0.14-1.35-0.33-1.68,0.2
		c-0.41,0.66,0.37,1.06,0.79,1.42c1.29,1.1,2.63,2.14,3.86,3.42c-6.76-1.86-13.58-2.89-20.7-2.95c6.04,5.16,12.66,9.61,18.8,15.53
		c-1.58,0-2.65,0-3.72,0c-2.03-0.31-4.05-0.33-6.08,0.01c-1.12-0.09-2.19,0-3.36,1.02c2.22,1.13,4.19,2.15,6.18,3.14
		c13.45,6.69,25.89,14.91,37.45,24.49c5.73,4.75,11.55,9.4,16.59,14.93c0.24,0.84-0.22,1.48-0.69,2.07
		c-6.07,7.59-12.56,14.74-20.91,19.95c-5.77,3.6-12.14,5.44-18.81,6.25c-7.88,0.95-15.82,1.26-23.75,1.41
		c-4.99,0.1-9.94-0.76-14.88-1.47c-0.9-0.13-1.79-0.39-2.2-1.37c0.79-7.03,5.6-10.89,11.21-14.04c1.76-0.99,3.74-1.58,5.6-2.39
		c0.51-0.22,1.33-0.37,1.04-1.18c-0.27-0.75-0.96-0.55-1.55-0.33c-8.7,3.29-16.33,7.64-17.99,17.98c-0.02,0.14-0.11,0.28-0.17,0.42
		c-1,1-2.28,1.17-3.58,1.09c-5.36-0.3-10.71-0.75-15.95-2.01c-0.87-0.21-1.8-0.38-2.23-1.36c0.02-2.47,0.97-4.54,2.72-6.25
		c4.38-4.26,9.67-6.9,15.4-8.82c0.83-0.28,2.52-0.27,2.14-1.46c-0.48-1.49-1.8-0.25-2.66,0.02c-5.09,1.59-9.79,3.93-14,7.26
		c-2.89,2.29-4.82,5.13-5.54,8.76c-3.48,0.02-6.5-1.12-8.97-3.61c0.52-3.68,2.85-6.08,5.8-7.95c8.13-5.16,17.08-8.3,26.36-10.61
		c2.78-0.69,2.88-0.87,1.15-3.05c-7.21-9.08-10.85-19.58-12.49-30.92c-1.28-8.79-2.13-17.56,0.5-26.26
		c1.82-6.01,4.17-11.82,6.85-17.49c5.52-11.64,12.02-22.67,19.97-32.86c7.45-9.56,17.13-15.81,28.2-20.24
		c1.72-0.69,3.54-1.2,5.19-2.39c-0.96-0.43-1.67-0.77-2.65-0.38c-8.45,3.38-16.72,7.11-23.63,13.2c-7,6.15-12.4,13.65-17.32,21.47
		c-7.29,11.61-13.44,23.8-17.73,36.87c-1.72,5.24-2.28,10.6-2.23,16.06c-0.63,0.29-1.18,0-1.72-0.25
		c-4.36-2.03-8.54-4.42-12.75-6.73C332.86,537.93,332.6,537.65,332.38,537.34z"/>
	<path class="st3" d="M136.51,483.46c-0.67-1.5-1.34-3.01-2.01-4.51c-0.2-0.43-0.47-0.82-1.01-0.7c-0.59,0.13-0.67,0.69-0.47,1.08
		c3.34,6.39-0.52,12.36-1.13,18.5c-0.4,3.94-1.49,7.81-2.27,11.71c-0.87-0.03-0.79-0.74-0.97-1.15
		c-5.23-11.81-7.52-24.34-8.83-37.08c-1.06-10.2-0.56-20.39,0.37-30.57c0.05-0.53,0.06-1.06,0.08-1.59
		c0.02-0.53,0.04-1.08-0.49-1.42c-0.68-0.43-1.13,0.07-1.6,0.43c-2.61,2.08-4.98,4.41-7.23,6.87c-0.55,0.6-1.1,1.22-2.01,2.24
		c1.42-11.58,3.68-22.37,7.48-32.8c3.14-8.6,6.8-16.97,12.29-24.4c0.41-0.55,1.27-1.29,0.32-1.88c-0.73-0.45-1.14,0.52-1.51,1.03
		c-2.87,4.05-7.6,5.7-11.27,8.8c6.44-16.21,13.74-31.9,23.52-46.33c1.33-0.22,1.81,0.88,2.44,1.66c1.43,1.76,2.63,3.71,4.26,5.3
		c0.54,0.52,0.99,1.15,1.84,1.58c0.5-2.08,1.47-1.23,2.5-0.43c3.94,3.08,8.04,5.89,12.47,8.23c4.13,2.18,8.04,2.18,11.97-0.46
		c5.15-3.45,10.5-6.62,14.94-11.02c0.16-0.16,0.32-0.33,0.5-0.46c0.53-0.38,1.1-1.13,1.75-0.61c0.62,0.49,0.13,1.26-0.11,1.88
		c-0.29,0.77-0.81,1.45-1.08,2.6c6.55-4.48,12.39-9.24,15.56-16.52c1.14-2.62,1.04-5.33,0.15-7.98c-0.87-2.6-2.72-3.51-6.05-3
		c-4.86,0.74-9.72,1.49-14.56,2.33c-8.57,1.49-17.11,3.13-25.7,4.49c-7.23,1.14-14.43,1.27-21.57-0.84
		c-4.9-1.46-10.09-1.99-14.68-4.46c-9.68-7.09-18.49-15.1-25.6-24.84c-3.7-5.06-5.04-11.07-6.5-17.02
		c-0.33-1.33,0.65-1.33,1.34-1.61c5.47-2.27,11.23-2.95,17.08-3.01c7.75-0.09,15.36,0.94,22.8,3.21c8.66,2.64,17.21,5.62,25.76,8.6
		c7.59,2.64,14.99,2.17,22.22-1.33c3.35-1.63,5.86-4.23,8.18-7.04c0.4-0.49,1.2-1.09,0.5-1.72c-0.86-0.76-1.34,0.24-1.76,0.78
		c-3.71,4.83-8.57,7.76-14.53,8.92c-5.19,1.01-10.19,0.28-15.09-1.54c-10.22-4.63-20.01-10.27-30.93-13.21
		c-8.44-2.27-16.98-3.73-25.74-1.79c-3.79,0.84-7.45,1.96-10.75,4.07c-0.97,0.62-1.96,1.56-3.3,0.79
		c-4.03-3.11-7.6-6.64-10.75-10.66c-4.78-6.11-4.59-12.54-1.61-19.21c1.52-3.4,3.79-6.3,6.64-9.18c0.92,4.2,2.07,7.98,4.3,11.34
		c2.04,3.07,3.2,3.28,5.89,0.78c6.36-5.93,12.68-11.91,19.04-17.86c2.17-2.03,3.95-4.39,5.55-6.87c0.6-0.93,1.07-1.07,2.15-0.64
		c5.98,2.38,11.9,4.86,17.24,8.51c1.55,1.06,3.05,1.31,4.9,0.8c10.34-2.82,20.85-4.55,31.59-4.06c19.13,0.88,37.48,5.43,55.31,12.25
		c3.56,1.36,6.31,3.83,8.82,6.6c7.24,8.01,12.46,17.04,14.14,27.89c0.76,4.87,0.11,9.46-2.13,13.87
		c-4.31,8.47-10.55,15.46-16.97,22.32c-4.14,4.42-8.47,8.65-12.92,12.75c-0.61,0.57-1.77,1-1.24,2.13c0.44,0.93,1.48,0.58,2.27,0.56
		c11.54-0.35,22.98,0.34,34.21,3.23c1.34,0.34,2.75,0.55,4.14,1.45c-6.6,1.19-12.96,2.33-19.31,3.47c-0.15,0.03-0.3,0.03-0.45,0.05
		c-0.67,0.12-1.51,0.15-1.57,1c-0.06,1,0.88,0.85,1.5,0.93c4.19,0.56,8.38,1.18,12.51,2.11c15.61,3.52,29.65,10.2,41.82,20.66
		c0.28,0.24,0.58,0.48,0.9,0.75c-0.71,0.78-1.51,0.42-2.18,0.39c-6.06-0.27-12.11-0.05-18.16,0.08c-0.68,0.02-1.37,0.03-2.04,0.13
		c-0.43,0.06-0.94,0.18-1.05,0.72c-0.14,0.7,0.4,0.91,0.92,1.07c1.88,0.58,3.76,1.13,5.64,1.7c5.78,1.75,11.27,4.12,16.21,7.85
		c-4.17-0.46-8.34-0.98-12.51-1.36c-1.27-0.11-3.24-1.04-3.72,0.34c-0.55,1.58,1.68,1.74,2.73,2.36
		c8.54,5.1,15.81,11.68,22.36,19.07c8.87,10.02,16.18,21.11,21.94,33.22c-0.65,0.5-1.14-0.13-1.61-0.32
		c-6.45-2.57-12.89-5.19-19.33-7.8c-0.56-0.23-1.1-0.5-1.68-0.67c-0.5-0.15-1.07-0.34-1.49,0.13c-0.56,0.62-0.01,1.13,0.3,1.61
		c2.05,3.17,4.15,6.32,6.19,9.5c6.8,10.62,11.87,22.07,16.49,33.75c0.13,0.33,0.19,0.68,0.44,1.57c-2.37-1.84-4.3-3.36-6.25-4.84
		c-0.56-0.42-1.16-1.29-1.93-0.58c-0.74,0.68-0.03,1.42,0.35,2.02c4.01,6.4,6.77,13.32,8.69,20.59c0.13,0.51,0.29,1.02,0.4,1.53
		c0.03,0.12-0.06,0.27-0.16,0.63c-5.52-3.07-11.46-5.03-17.21-7.46c-10.72-5.71-31.65-14.57-35.63-15.08
		c-0.29,0.96,0.24,1.77,0.53,2.59c2.91,8.08,4.69,16.44,6.33,24.83c0.07,0.37,0.17,0.74,0.19,1.12c0.05,0.76,0.15,1.59-0.58,2.07
		c-0.75,0.49-1.44-0.03-2.11-0.36c-6.6-3.24-13.53-5.67-20.43-8.17c-0.28-0.1-0.58-0.17-1.05-0.03c0.36,1.97,1.24,3.79,1.84,5.7
		c0.23,0.72,0.7,1.53,0.12,2.15c-0.73,0.78-1.57,0.1-2.28-0.24c-2.04-0.98-4.14-1.88-6.04-3.13c-5.06-3.31-10.71-5.22-16.87-7.25
		c1.18,1.83,2.21,3.25,3.12,4.74c0.53,0.87,1.52,1.79,0.67,2.85c-0.76,0.95-1.83,0.27-2.74,0.01c-2.27-0.63-4.41-1.6-6.54-2.59
		c-6.69-3.12-13.81-4.94-20.81-7.14c-1.58-0.5-2.08,0.09-2.03,1.6c0.16,5.44,0.56,10.86,1.15,16.27c0.47,4.36,0.92,8.72,1.51,13.06
		c0.12,0.88,0.24,1.94-0.64,2.5c-0.83,0.53-1.57-0.2-2.29-0.57c-9.35-4.71-17.93-10.69-26.76-16.24
		c-9.79-6.16-19.47-12.5-29.47-18.79c0.02,2.27,0.73,4.24,1.07,6.27c0.11,0.65,0.5,1.5-0.15,1.91c-0.79,0.5-1.37-0.32-1.91-0.79
		C141.9,491.48,139.25,487.43,136.51,483.46z"/>
	<path class="st3" d="M591.97,395.36c-2.75-11.92-7.38-23.03-14.37-33.12c-5.32-7.68-11.29-14.74-18.96-20.2
		c-0.37-0.26-0.71-0.56-1.09-0.8c-0.54-0.35-1.16-1.12-1.74-0.38c-0.69,0.9,0.35,1.28,0.88,1.72c0.81,0.67,1.7,1.25,2.52,1.92
		c3.71,2.98,7.45,5.92,10.16,9.92c3.08,5.23,3.8,11.14,4.62,16.95c2.44,17.23,0.74,34.02-5.39,50.39
		c-3.97,10.6-10.94,18.22-20.86,23.48c-10.43,5.52-21.53,8.19-33.24,8.91c-5.06,0.31-10.1,0.65-15.14-0.04
		c-0.76-0.1-1.5-0.18-2.11-0.7c-14.57-37.8-40.45-66.37-73.13-89.35c-5.69-4-11.63-7.63-17.49-11.37c-1.05-0.67-1.45-1.28-1.13-2.55
		c3.29-13,7.6-25.62,13.44-37.71c6.57-13.6,16.72-22.77,31.62-26.69c13.37-3.51,26.85-6.71,40.66-6.05
		c39.39,1.89,76.42,11.45,108.55,35.68c3.57,2.69,6.99,5.56,10.18,8.68c3.56,3.49,6.96,7.15,10.49,10.8
		c-3.2,0.27-6.52-0.31-9.82-0.58c-6.71-0.55-13.35-1.63-19.97-2.83c-0.71-0.13-1.57-0.47-2.1,0.29c-0.53,0.77,0.2,1.24,0.67,1.7
		c15.66,15.21,27.73,33.1,38.8,51.75c6.41,10.8,12.2,21.91,16.87,33.58c0.24,0.6,0.48,1.21,0.94,2.39
		c-3.71-1.58-6.97-2.88-10.15-4.34c-8.12-3.72-15.86-8.14-23.5-12.75c-0.58-0.35-1.16-0.71-1.77-1.02
		c-0.45-0.23-0.98-0.59-1.42-0.02c-0.39,0.51-0.13,0.99,0.23,1.43c1.05,1.29,2.11,2.58,3.15,3.87c4.45,5.53,8.75,11.16,12.27,17.53
		c-2.68-1.56-5.37-3.12-8.05-4.69c-1.07-0.62-1.84-1.51-2.43-2.6c-4.82-8.81-11.95-15.47-19.95-21.31
		C593.41,396.67,592.74,395.96,591.97,395.36z"/>
	<path class="st4" d="M497.25,453.39c4.14,0.32,8.28,0.67,12.43,0.47c13.53-0.63,26.61-2.93,38.65-9.65
		c9.43-5.26,16.16-12.67,19.72-22.95c2.55-7.35,4.82-14.77,5.73-22.49c0.79-6.66,0.73-13.37,0.26-20.1
		c-0.43-6.19-1.46-12.23-2.83-18.25c-0.47-2.06-1.8-3.84-1.84-6.02c1.87,1.57,3.15,3.63,4.61,5.55
		c10.05,13.18,15.63,28.2,18.01,44.47c1.9,12.98,2.65,26.07,1.29,39.13c-2.42,23.28-12.58,42.47-31.16,57.02
		c-14.07,11.02-29.94,18.05-47.29,21.95c-1.43,0.32-1.72,0.11-1.85-1.36C511.07,497.81,505.17,475.36,497.25,453.39z"/>
	<path class="st3" d="M143.89,159.63c3.6-6.63,8.38-12.41,13.39-17.95c18.95-20.94,40.2-39.09,65.18-52.55
		c5.5-2.96,11.29-5.3,17.18-7.7c0.07,0.99-0.57,1.37-0.94,1.86c-5.68,7.55-11.38,15.09-17.07,22.63c-0.34,0.45-1.08,0.79-0.63,1.51
		c0.5,0.79,1.17,0.31,1.81,0.13c15.54-4.53,31.47-5.7,47.56-5.42c0.53,0.01,1.06,0.04,1.58,0.1c0.21,0.02,0.41,0.15,0.86,0.33
		c-3.55,2.03-6.95,3.93-10.31,5.91c-1.63,0.96-3.18,2.03-4.74,3.09c-0.54,0.37-1.27,0.77-1.05,1.57c0.19,0.72,0.89,0.96,1.56,1.16
		c4.27,1.28,8.5,2.66,12.64,4.32c2,0.8,4.04,1.52,5.96,3.02c-5.34,1.35-10.43,2.63-15.51,3.92c-0.71,0.18-1.7,0.15-1.85,1.03
		c-0.18,1.06,0.92,1.26,1.61,1.62c4.74,2.49,9.49,4.94,14.17,7.85c-2.39-0.24-4.78-0.5-7.17-0.72c-0.84-0.08-2.01-0.68-2.3,0.59
		c-0.24,1.03,0.94,1.18,1.65,1.54c17.97,9.1,33.97,20.86,47.97,35.34c0.15,0.16,0.26,0.35,0.63,0.84c-1.05,0.05-1.88,0.1-2.71,0.14
		c-2.28,0.39-4.56,0.23-6.73-0.43c-10.4-3.16-21.07-4.79-31.85-5.81c-0.23-0.02-0.45-0.04-0.67-0.08c-0.68-0.12-1.42-0.24-1.65-1
		c-0.28-0.92,0.46-1.4,1.08-1.79c2.93-1.86,5.84-3.79,9.1-5.17c-5.53-0.11-11.06-0.41-16.58,0.03c-7.54,0.6-14.98,1.98-22.49,2.87
		c-5.15,0.61-10.07-0.3-14.82-2.37c-3.26-1.42-6.53-2.82-9.71-4.4c-2.29-1.14-2.44-2.13-0.62-3.96c2.5-2.51,4.57-5.41,7.7-8.08
		c-5.52,0.54-10.36,1.5-15.17,2.65c-15.1,3.63-29.84,8.38-44.23,14.2c-2.87,1.16-5.77,2.25-8.71,3.25
		c-2.25,0.77-4.43,0.77-6.65-0.08c-1.98-0.75-3.95-1.53-5.89-2.37C144.76,160.96,143.81,160.75,143.89,159.63z"/>
	<path class="st5" d="M313.61,448.93c0.99-0.11,1.54,0.59,2.02,1.25c8.11,11.19,13.11,23.79,16.72,37.01
		c0.04,0.14,0.07,0.29,0.1,0.44c0.2,1.07,1.43,2.61,0.48,3.06c-1.19,0.56-1.84-1.38-2.84-2.08c-0.76-0.53-0.63-2.44-2.34-1.52
		c-0.63-0.71-0.32-1.99-1.64-2.45c-0.26,2.18,0.57,4.14,0.92,6.13c1.95,11.09,3.47,22.2,3.57,33.49
		c0.09,11.49,0.11,22.99-0.59,34.47c-1.34,22-3.5,43.91-8.1,65.52c-0.08,0.37-0.21,0.73-0.29,1.09
		c-1.46,6.82-5.26,10.89-12.58,11.49c-7.97,0.66-15.92,1.66-23.92,1.86c-4.16,0.1-4.17,0.08-5.88-4.09c1.5-1.64,3.51-2.59,5.31-3.8
		c2.94-1.98,4.67-4.58,5.48-7.99c2.17-9.13,3.5-18.4,4.89-27.66c1.78-11.95,2.93-23.97,3.7-36.02c0.11-1.65,0.39-3.29,0.51-4.95
		c1.49-1.98,2.97-3.97,4.49-5.93c2.99-3.86,5.41-8.08,7.81-12.31c-0.12-0.16-0.25-0.31-0.38-0.47c-5.95,3.39-11.91,6.79-17.86,10.18
		c3.18-5.31,6.88-10.16,9.79-15.87c-2.15,0.05-3.1,1.81-4.7,2.11c-2.2-0.57-4.06-1.9-6.13-2.78c-0.48-0.2-0.89-0.59-0.64-1.25
		c0.95,0.2,1.92,0.37,2.87,0.6c0.79,0.19,1.68,0.67,2.28-0.19c0.53-0.77-0.2-1.43-0.57-2.03c-2.55-4.2-5.14-8.37-7.71-12.55
		c-0.27-0.44-0.51-0.9-0.53-1.68c2.47,1.49,4.92,3,7.41,4.45c0.72,0.42,1.49,1.48,2.37,0.69c0.79-0.71,0.14-1.7-0.22-2.51
		c-4.33-9.56-8.68-19.11-13.02-28.67c-0.34-0.76-0.73-1.5-1.01-2.28c-0.16-0.46-0.73-0.96-0.28-1.44c0.4-0.43,0.99-0.12,1.49,0.02
		c13.74,3.85,27.46,7.76,40.17,14.47c0.57,0.3,1.21,0.86,1.86,0.33c0.63-0.52,0.29-1.26,0.11-1.9c-1.95-6.74-3.75-13.54-7.33-19.67
		c-0.21-0.37-0.37-0.77-0.83-1.75c2.14,1.68,3.76,2.96,5.41,4.23c0.57,0.44,1.11,1.28,1.94,0.7c0.86-0.6,0.21-1.38-0.06-2.03
		c-3.77-9.05-7.02-18.34-12.06-26.82C313.62,449.57,313.66,449.22,313.61,448.93z"/>
	<path class="st4" d="M136.51,483.46c2.37,1.6,3.55,4.21,5.28,6.35c1.62,2.01,3.51,3.71,5.59,5.86c-0.46-3.35-1.48-6.21-1.66-9.59
		c4.52,2.86,8.71,5.51,12.89,8.17c13.63,8.66,27.04,17.64,40.98,25.8c1.17,0.69,2.39,1.3,3.64,1.85c0.58,0.26,1.13,1.21,1.74,0.62
		c0.36-0.35,0.29-1.3,0.21-1.95c-0.69-6.05-1.55-12.08-2.11-18.14c-0.39-4.2-0.4-8.44-0.59-12.66c-0.06-1.31,0.56-1.55,1.71-1.2
		c8.29,2.54,16.65,4.87,24.53,8.58c1.56,0.74,3.25,1.2,4.88,1.79c0.48,0.18,1.04,0.57,1.41-0.04c0.33-0.54-0.15-0.97-0.44-1.41
		c-1.41-2.13-2.8-4.28-4.32-6.61c9.68,1.88,17.56,7.29,26.54,11.72c-1.09-2.93-1.96-5.23-2.79-7.54c-0.17-0.47-0.4-1.15-0.2-1.46
		c0.32-0.49,0.95-0.12,1.45,0.05c7.24,2.6,14.52,5.07,21.39,8.59c0.45,0.23,1,0.77,1.43,0.37c0.53-0.49,0.3-1.29,0.17-1.95
		c-1.84-9-3.69-18-6.87-26.65c-0.08-0.21-0.22-0.42-0.24-0.63c-0.06-0.66-0.83-1.33-0.3-1.91c0.68-0.76,1.38,0.09,2.03,0.32
		c9.69,3.42,19.19,7.29,28.34,11.97c2.12,1.09,4.38,2.01,6.19,3.66c-7.76-2.48-15.54-4.89-23.43-6.96c-0.29-0.08-0.58-0.2-0.87-0.24
		c-0.79-0.1-1.65-0.8-2.35-0.01c-0.7,0.79-0.01,1.57,0.32,2.3c3.08,6.82,6.18,13.62,9.28,20.43c1.72,3.78,3.43,7.55,5.4,11.89
		c-2.23-1.32-3.98-2.35-5.74-3.4c-1.23-0.74-2.45-1.49-3.69-2.23c-0.59-0.35-1.3-0.8-1.88-0.29c-0.78,0.69-0.05,1.38,0.32,1.99
		c3.12,5.09,6.26,10.16,9.69,15.74c-1.81-0.54-3.13-0.94-4.45-1.33c-15.05-4.53-29.5-10.36-42.46-19.47
		c-0.51-0.36-1.18-1.12-1.75-0.37c-0.68,0.9,0.3,1.38,0.91,1.7c1.52,0.81,2.23,2.13,2.83,3.66c2.38,6.12,4.82,12.22,7.23,18.33
		c0.27,0.68,0.47,1.4,0.87,2.61c-1-0.61-1.6-0.95-2.17-1.34c-5.53-3.84-11.04-7.69-16.58-11.52c-0.71-0.49-1.41-1.41-2.4-0.82
		c-0.86,0.52-0.46,1.52-0.4,2.3c0.84,11.69,1.71,23.37,2.57,35.06c0.04,0.52,0,1.05,0,1.53c-1.79-1.68-3.62-3.42-5.48-5.11
		c-0.56-0.51-0.98-1.61-1.99-1.04c-0.82,0.46-0.38,1.35-0.3,2.08c0.59,5.78,1.17,11.57,1.8,17.88c-2.94-1.92-5.59-3.47-8.04-5.29
		c-4.37-3.24-8.81-6.42-12.87-10.03c-6.42-5.7-12.5-11.78-17.83-18.55c-2.76-3.5-5.45-7.06-8.18-10.59
		c-0.45-0.58-0.81-1.52-1.71-1.17c-1.08,0.42-0.55,1.41-0.41,2.18c0.8,4.45,1.63,8.9,2.49,13.57c-0.94-0.34-1.33-1.07-1.82-1.62
		c-11.34-12.67-20.66-26.82-29.98-40.97c-0.39-0.6-0.48-1.9-1.64-1.4c-0.89,0.39-0.37,1.31-0.28,2.04c0.7,5.45,1.4,10.9,2.1,16.44
		c-0.35-0.1-0.54-0.09-0.61-0.18C146.62,505.41,141.05,494.72,136.51,483.46z"/>
	<path class="st4" d="M143.89,159.63c3.04,1.87,6.35,3.19,9.77,3.99c3,0.7,5.77-0.94,8.45-2.04c16.21-6.62,32.74-12.18,49.79-16.2
		c4.97-1.17,9.99-2.01,15.62-2.64c-2.59,2.83-4.78,5.34-7.09,7.73c-3.64,3.78-3.67,3.75,1.24,5.8c2.71,1.14,5.45,2.21,8.11,3.47
		c5.81,2.75,11.86,2.56,17.94,1.51c11.92-2.06,23.9-2.97,35.99-2.48c0.21,0.01,0.41,0.12,0.8,0.24c-0.48,0.96-1.39,1.17-2.15,1.46
		c-3.2,1.23-5.97,3.2-8.85,4.98c-0.37,0.23-0.94,0.37-0.75,0.94c0.17,0.49,0.7,0.47,1.16,0.51c11.96,0.87,23.7,2.96,35.18,6.5
		c1.33,0.41,2.83,0.27,4.26,0.39c-1.47,0.57-2.99,0.25-4.49,0.27c-7.79,0.15-15.58,0.33-23.37-0.05c-0.67-0.03-1.52-0.32-1.74,0.55
		c-0.26,1.02,0.75,1.16,1.4,1.44c6.46,2.77,12.9,5.58,19.02,9.06c1.37,0.78,2.73,1.57,4.05,2.56c-3.65-0.08-7.24,0.84-10.85-1.14
		c-4.97-2.72-10.32-4.65-15.84-6.04c-3.46-0.87-6.73-0.44-9.87,1.26c-5.47,2.97-10.6,6.43-15.28,10.53
		c-1.01,0.89-1.68,1.05-2.91,0.37c-12.89-7.13-26.71-11.55-41.22-13.91c-8.45-1.37-16.94-2.08-25.5-2.22
		c-3.99-0.06-7.83,0.75-11.51,2.17c-8.1,3.14-16.15,6.42-23.79,10.59c-1.3,0.71-1.72,0.44-2.27-0.79
		c-2.19-4.98-4.26-10.02-6.77-14.84C139.81,168.5,140.83,164.02,143.89,159.63z"/>
	<path class="st6" d="M299.11,554.17c0.82,0.63,0.6,1.54,0.51,2.31c-0.91,7.67-1.39,15.39-2.14,23.08
		c-1.25,12.94-3.53,25.7-5.63,38.5c-0.34,2.07-0.99,4.09-1.54,6.12c-1.56,5.73-6.32,8.08-11.09,10.41c-1.87-2.84-3.8-5.62-6.04-8.2
		c-1.74-2.01-3.64-2.39-6.07-1.52c-5.16,1.86-8.7,5.67-11.87,9.85c-1.01,1.34-1.97,1.67-3.55,1.66c-3.95-0.02-6.55-1.02-7.44-5.59
		c-0.9-4.66-4.18-8.16-8.05-10.88c-0.95-0.66-1.05-1.06-0.33-1.87c4.18-4.73,5.25-10.35,4.88-16.48c-0.22-3.68-0.04-7.39-0.04-11.34
		c2.19,1.48,3.65,3.7,6.18,4.69c0.05-2.3-1.13-4.19-1.25-6.71c2.19,2.55,4.13,4.82,6.08,7.08c0.64,0.74,1.34,1.44,1.97,2.19
		c1.15,1.4,2.23,1.19,3.42,0.01c13.29-13.24,27.03-26.03,39.36-40.22C297.37,556.24,297.94,554.94,299.11,554.17z"/>
	<path class="st5" d="M364.2,615.53c3.47,1.47,7.22,1.2,10.83,1.82c6.24,1.08,12.49,0.17,18.71-0.11c7.25-0.32,14.54-0.81,21.55-3.2
		c5.82-1.99,10.97-5.08,15.45-9.15c5.4-4.91,10.58-10.09,14.7-16.2c5.21,4.3,9.48,9.48,13.73,14.66c3.43,4.19,6.55,8.63,9.92,12.87
		c0.93,1.17,0.84,1.81-0.21,2.8c-8.53,8.02-18.67,12.15-30.29,13.38c-16.79,1.79-33.61,2.51-50.48,2.12
		c-5.29-0.12-10.55-0.62-15.79-1.33c-2.96-0.4-4.95-1.9-5.96-4.82C364.92,624.2,363.76,620.01,364.2,615.53z"/>
	<path class="st7" d="M383.22,405.1c1.43-5.15,2.89-10.09,3.81-15.16c0.35-1.92,0.84-3.82,1.12-5.75c0.11-0.74,0.45-1.91-0.59-2.15
		c-0.81-0.19-1.09,0.88-1.44,1.53c-4.76,8.66-9.6,17.27-15.34,25.34c-5.55,7.82-11.53,15.28-18.42,21.97
		c-1.89,1.84-3.95,3.51-6.31,4.89c1.94-2.81,3.95-5.58,5.8-8.45c1.72-2.66,3.29-5.41,4.88-8.15c0.4-0.69,1.08-1.58,0.28-2.26
		c-0.78-0.67-1.29,0.36-1.87,0.75c-3.95,2.7-7.91,5.4-12.04,7.93c0.48-2.23,1.91-3.87,3.02-5.68c4.45-7.26,8.96-14.49,13.04-21.98
		c0.36-0.66,1.27-1.4,0.48-2.22c-0.86-0.9-1.65,0.01-2.41,0.41c-1.17,0.61-2.33,1.26-4.07,2.21c4.01-6.73,7.65-12.85,11.31-18.97
		c2.79-4.67,5.31-9.48,7.41-14.51c0.26-0.63,0.74-1.32,0.19-1.89c-0.71-0.75-1.42,0.03-2.02,0.35c-3.04,1.64-5.78,3.83-9.6,5.33
		c1.77-2.51,3.17-4.66,4.73-6.69c5.23-6.79,9.52-14.14,13.12-21.89c0.91-1.95,1.59-1.79,3.28-0.84c8.35,4.7,16.28,10.09,24.57,14.88
		c1.68,0.97,2.11,1.94,1.59,3.99c-3.04,12.19-9.46,22.81-15.26,33.72c-2.16,4.07-4.68,7.91-7.42,11.62
		C384.6,404.03,384.22,404.68,383.22,405.1z"/>
	<path class="st5" d="M203.92,594.22c3.79-3.29,7.6-6.55,11.35-9.87c2.14-1.89,4.18-3.88,6.29-5.81c2.27-2.08,4.61-4.08,6.83-6.2
		c1.26-1.2,2.32-1.28,3.6-0.04c0.47,0.46,1.1,1.31,1.94,0.8c0.78-0.47,0.46-1.41,0.33-2.09c-0.59-2.97,0.18-5.43,2.62-7.49
		c0.86,4.14,1.03,8.27,1.38,12.36c0.85,9.94,1.15,19.91,0.98,29.89c-0.05,2.95-0.85,5.65-2.42,8.14c-4.11,6.54-9.68,12-13.73,18.59
		c-0.37,0.6-0.9,0.7-1.53,0.76c-6.08,0.56-12.16,1.22-18.25,1.71c-3.91,0.32-7.85,0.31-11.76,0.64c-1.82,0.15-2.86-0.25-3.01-2.2
		c-0.06-0.82-0.31-1.62-0.47-2.43c4.3-1.88,8.29-4.33,12.37-6.61c4.03-2.26,5.66-5.68,5.52-10.12c-0.2-6.34-1.13-12.62-1.95-18.9
		C203.95,594.97,203.88,594.6,203.92,594.22z"/>
	<path class="st4" d="M124.42,333.98c5.24,1.37,10.49,2.66,15.7,4.11c7.61,2.12,15.21,1.51,22.84,0.23
		c11.18-1.88,22.31-4.14,33.54-5.71c2.16-0.3,4.27-0.87,6.47-0.89c1.98-0.02,3.35,0.88,4.16,2.59c1.5,3.15,1.59,6.4,0.16,9.59
		c-2.44,5.44-6.36,9.66-11.07,13.21c-1.85,1.39-3.59,2.96-5.95,3.99c0.1-2.13,1.69-3.48,2.19-5.86c-2.66,2.61-5.03,4.83-7.7,6.68
		c-3.34,2.33-6.75,4.56-10.2,6.73c-3.79,2.39-7.4,1.95-11.15,0.09c-5.15-2.56-9.81-5.86-14.28-9.52c-0.26,0.78,0.74,1.74-0.05,2.15
		c-0.92,0.48-1.33-0.71-1.92-1.2c-2.22-1.87-3.78-4.3-5.49-6.59c-0.55-0.73-1.04-1.48-1.9-1.89c1.96-3.46,1.96-3.46,5.37-1.64
		c0.93,0.5,1.86,0.99,2.81,1.46c0.45,0.22,0.91,0.2,1.18-0.27c0.29-0.52-0.1-0.86-0.48-1.11c-0.5-0.33-1.05-0.58-1.59-0.86
		C138.93,345.05,131.77,339.38,124.42,333.98z"/>
	<path class="st7" d="M446.31,586.94c-4.51-3.99-8.99-8.01-13.53-11.96c-7.5-6.53-15.59-12.28-23.93-17.69
		c-6.15-3.99-12.62-7.36-19.26-10.47c1.97-0.43,6.24-0.4,8.33-0.01c0.95,0.18,2.08,0.56,2.71-0.44c0.75-1.18-0.48-1.76-1.13-2.38
		c-4.89-4.7-10.27-8.8-15.97-12.63c2.83-0.4,5.54,0.33,8.24,0.85c4.43,0.86,8.82,1.9,12.91,3.92c0.51,0.25,1.01,0.46,1.39-0.13
		c0.4-0.61-0.07-1.01-0.46-1.34c-1.62-1.41-3.27-2.79-4.82-4.36c3.69,0.43,7.1,1.75,10.51,3.03c16.23,6.13,30.66,15.4,44.47,25.7
		c2.28,1.7,4.29,3.74,6.43,5.63c0.29,1.4-0.48,2.49-1.13,3.57c-3.68,6.17-7.6,12.19-12.37,17.59
		C448.1,586.53,447.56,587.55,446.31,586.94z"/>
	<path class="st4" d="M591.97,395.36c2.81,1.04,4.89,3.15,7.14,4.98c6.62,5.37,12.3,11.57,16.24,19.22c0.3,0.59,0.82,1.08,1.23,1.61
		c-4.02-2.06-8.02-4.17-12.07-6.17c-1.62-0.8-3.34-1.4-5.02-2.06c-0.32-0.12-0.69-0.47-1.03-0.09c-0.38,0.43-0.13,0.88,0.17,1.21
		c0.45,0.51,0.95,0.98,1.46,1.42c20.01,17.09,32.3,39.24,41.53,63.39c0.16,0.42,0.28,0.86,0.38,1.3c0.03,0.12-0.08,0.27-0.2,0.61
		c-1.79-1.49-3.54-2.91-5.25-4.37c-6.5-5.53-13.3-10.71-19.59-16.49c-0.35-0.32-0.67-0.69-1.15-0.35c-0.61,0.43-0.38,1.02-0.27,1.63
		c1.2,6.92,2.37,13.84,3.55,20.76c0.06,0.36,0.09,0.72,0.18,1.49c-5.95-5.36-11.52-10.55-16.62-16.22
		c-3.03-3.37-5.8-6.97-8.73-10.43c-0.76-0.89-0.89-1.71-0.63-2.88c2.63-11.71,2.26-23.57,1.74-35.44
		C594.69,410.68,593.54,402.99,591.97,395.36z"/>
	<path class="st7" d="M299.38,543.92c1.03,4.59-0.26,8.05-3.21,11.38c-9.17,10.36-18.84,20.24-28.73,29.9
		c-3.62,3.54-7.37,6.95-10.88,10.59c-1.08,1.12-1.67,0.8-2.48-0.16c-2.81-3.35-5.57-6.76-8.82-9.71c-0.51-0.46-0.9-1.48-1.8-0.99
		c-0.98,0.53-0.16,1.36-0.04,2.02c0.23,1.23,0.86,2.39,0.75,3.73c-3.94-1.63-3.8-5.2-3.95-8.4c-0.31-6.62-1-13.19-1.75-19.76
		c-0.06-0.52-1.54-2.63,1.12-2.26c0.53,0.07,0.57-0.78,0.58-1.31c0.01-0.98,0-1.95,0-3.46c1.53,1.49,2.73,2.67,3.95,3.85
		c2.66,2.57,5.14,5.32,8.04,7.66c1.29,1.04,2.07,0.95,3.29-0.07c11.02-9.25,22.19-18.31,33.95-26.61c2.81-1.98,5.65-3.92,8.78-5.59
		c-1.54,2.25-3.01,4.56-4.64,6.73c-1.46,1.95-2.48,4.14-3.74,6.19c-0.23,0.38-0.8,0.91-0.22,1.39c0.5,0.41,1.01-0.03,1.45-0.28
		C293.76,547.18,296.48,545.6,299.38,543.92z"/>
	<path class="st6" d="M291.48,527.85c0.98,1.37,2.73,1.36,3.99,2.25c0.9,0.64,2.13,0.75,2.78,1.77c-3.14,2.86-6.79,5.02-10.23,7.45
		c-11.3,7.98-22,16.74-32.64,25.56c-1.36,1.13-2.18,1.05-3.36-0.08c-4.15-3.95-8.38-7.8-11.86-12.39c-0.43-1.29-0.11-1.78,1.22-1.1
		c1.06,0.54,1.62,1.75,3.04,2.44c0.1-3.76,0.29-7.28-0.1-10.77c-0.61-5.48,0-10.99-0.39-16.47c-0.05-0.64,0.18-1.19,0.82-1.47
		c4.47,3.07,8.94,6.14,13.42,9.2c0.53,0.36,1.08,1.1,1.76,0.53c0.65-0.54,0.1-1.23-0.12-1.86c-0.37-1.06-0.69-2.14-1.03-3.22
		c-0.32-1.55,0.58-1.03,1.17-0.61c1.6,1.13,3.15,2.32,4.68,3.55c1.03,0.83,2.03,1.71,3.52,2.43c-0.14-1.54-0.66-2.62-1.03-3.73
		c-1.3-3.93-2.64-7.85-3.78-11.83c-0.24-0.84-0.77-1.7-0.01-2.55C272.45,521.26,282.02,524.42,291.48,527.85z"/>
	<path class="st7" d="M314.64,361.71c1.31-2.62,2.63-5.23,3.91-7.86c0.34-0.71,1.06-1.5,0.17-2.24c-0.76-0.63-1.45,0.11-2.03,0.48
		c-3.38,2.13-6.87,4.04-11.18,5.54c1.77-2.35,3.32-4.3,4.76-6.34c5.14-7.26,10.38-14.47,14.55-22.34c2.43-4.59,4.5-9.39,6.17-14.33
		c0.52-1.54,0.97-1.95,2.68-1c5.68,3.15,11.48,6.08,17.29,8.99c1.33,0.67,1.73,1.26,1.17,2.74c-3.44,9.04-7.29,17.89-12.58,26.03
		c-5.11,7.87-11.04,15.04-18.2,21.19c-3.33,2.87-6.93,5.32-10.57,7.73c-0.79,0.52-1.67,0.92-2.87,1.57
		c0.31-1.74,1.21-2.68,1.93-3.63c3.71-4.88,6.54-10.31,9.71-15.52c0.48-0.78,0.99-1.78,0.27-2.52c-0.82-0.84-1.43,0.38-2.14,0.65
		c-0.9,0.34-1.74,0.84-2.6,1.26C314.93,361.99,314.78,361.85,314.64,361.71z"/>
	<path class="st7" d="M476.28,534.71c-2.98-1.53-5.16-4.07-7.69-6.16c-9.64-7.96-19.47-15.66-30.54-21.57
		c-1.43-0.76-2.97-1.32-5.07-2.24c2.9,0.12,5.13-0.31,7.34,0.34c0.71,0.21,1.61,0.36,2.06-0.43c0.53-0.92-0.45-1.33-0.93-1.81
		c-5.93-5.98-12.79-10.72-19.96-15.05c-0.24-0.14-0.47-0.29-1.24-0.77c5.12,0.4,9.43,1.52,13.76,2.66c6.1,1.6,11.83,4.03,17.21,7.3
		c0.79,0.48,1.89,0.97,2.49,0.19c0.52-0.68-0.4-1.46-0.94-2.08c-1.47-1.68-2.93-3.37-4.73-5.43c4.87,1.16,9.09,2.68,13.25,4.41
		c8.38,3.48,16.32,7.77,24.04,12.5c0.69,0.88,0.53,1.84,0.29,2.81c-1.95,7.86-4.07,15.66-7.54,23.01
		C477.67,533.25,477.66,534.54,476.28,534.71z"/>
	<path class="st4" d="M332.38,537.34c2.95,0.98,5.47,2.81,8.22,4.18c2.36,1.17,4.71,2.37,7.06,3.55
		c0.72,10.35,2.04,20.57,6.02,30.28c2.04,4.99,4.94,9.47,8.27,14c-5.52,1.32-10.65,3-15.65,5.03c-2.17,0.88-4.5,1.6-6.34,2.96
		c-3.75,2.78-7.27,1.16-10.92,0.07c-1.37-0.41-0.8-1.47-0.72-2.25c0.59-6.09,1.25-12.16,1.89-18.24c0.83-7.89,1.26-15.81,1.63-23.73
		C332.09,547.91,332.2,542.63,332.38,537.34z"/>
	<path class="st5" d="M462.67,562.75c4.67-7.23,8.82-14.74,11.71-22.89c0.38-1.06,0.65-2.15,0.97-3.23
		c3.48,2.53,6.53,5.55,9.67,8.46c6.97,6.45,13.5,13.34,19.47,20.74c0.64,0.8,0.88,1.39,0.45,2.4c-3.43,8.2-7.38,16.12-12.38,23.5
		c-0.76,1.11-1.35,1.04-2.02,0.07c-6.18-9.01-14.48-16.06-22.07-23.75C466.66,566.22,464.78,564.33,462.67,562.75z"/>
	<path class="st6" d="M197.46,565.92c-3.48,2.54-6.98,5.05-10.43,7.63c-0.95,0.71-1.6,0.75-2.54-0.08
		c-6.4-5.65-12.85-11.25-19.29-16.86c-0.58-0.51-1.02-1.11-1.24-1.86c-3.55-12.24-7.32-24.41-10.38-36.82
		c0.15,0,0.27-0.04,0.35,0.01c0.77,0.45,0.89,2.13,2.15,1.46c0.99-0.52,0.29-1.63,0.18-2.49c-0.63-4.98-1.25-9.96-1.72-15.02
		c6.68,9.62,13.07,19.41,20.24,28.65c2.88,4.95,4.91,10.35,7.96,15.22c1.84,2.95,3.85,5.78,5.98,8.51c0.36,0.46,0.63,1.05,1.43,1.15
		c0.84-1.38,0.63-3.04,1.13-4.5c0.17-0.5,0.34-1.12,0.9-1.21c0.71-0.11,1.09,0.5,1.27,1.08c1.5,4.74,3.02,9.48,4.25,14.3
		C197.81,565.41,197.67,565.69,197.46,565.92z"/>
	<path class="st7" d="M414.11,418.51c1.2-2.13,2.44-4.23,3.59-6.39c6.04-11.33,11.41-22.96,15.33-35.22
		c0.14-0.43,0.34-0.85,0.41-1.29c0.32-2.12,1.28-1.87,2.61-0.79c6.42,5.27,12.47,10.94,18.5,16.64c1.23,1.16,1.39,2.14,0.74,3.76
		c-2.88,7.15-5.78,14.27-10.17,20.67c-0.3,0.43-0.62,0.84-0.96,1.24c-0.06,0.07-0.26,0.03-0.51,0.05c0.79-3.16,1.57-6.28,2.36-9.39
		c0.2-0.78,0.79-1.84-0.13-2.2c-0.91-0.36-1.25,0.85-1.66,1.52c-4.18,6.81-8.29,13.67-13.33,19.9c-4.98,6.16-9.97,12.31-16.17,17.32
		c-0.2,0.17-0.49,0.23-0.8,0.37c-0.3-0.98,0.32-1.56,0.64-2.18c4.91-9.56,8.78-19.53,11.79-29.84c0.2-0.69,0.82-1.49-0.04-2.06
		c-0.89-0.59-1.54,0.22-2.16,0.72c-3.17,2.51-6.33,5.04-9.5,7.56C414.47,418.77,414.29,418.64,414.11,418.51z"/>
	<path class="st1" d="M476.28,534.71c4.38-8.39,6.74-17.48,9.03-26.58c0.12-0.5,0.03-1.05,0.03-1.58
		c7.48,4.83,14.3,10.45,20.91,16.42c5.32,4.81,6.16,10.61,5.35,17.03c-0.93,7.37-2.26,14.68-4.42,21.82
		c-0.27,0.88-0.35,1.9-1.29,2.24c-1.09,0.39-1.31-0.83-1.81-1.38c-4.12-4.49-8-9.21-12.3-13.52c-4.3-4.3-9.02-8.2-13.53-12.29
		C477.53,536.22,476.94,535.44,476.28,534.71z"/>
	<path class="st1" d="M446.31,586.94c2.15-0.52,2.91-2.57,4.07-4.02c4.55-5.68,8.71-11.64,11.83-18.26
		c8.15,6.86,15.87,14.15,22.65,22.4c1.48,1.8,2.94,3.63,4.47,5.39c1.04,1.2,1.17,2.25,0.14,3.58c-5.2,6.66-10.45,13.26-16.6,19.09
		c-1.11,1.05-1.9,1.01-2.75-0.2c-4.3-6.09-8.87-11.98-13.76-17.59C453.19,593.71,450.11,589.96,446.31,586.94z"/>
	<path class="st6" d="M203.92,594.22c0.42,0.23,0.75,0.55,0.79,1.03c0.54,6.57,1.9,13.06,1.85,19.68c-0.03,4.02-1.34,7.36-5.03,9.43
		c-3.8,2.13-7.6,4.28-11.4,6.42c-0.65,0.36-1.32,0.81-2.07,0.2c-0.89-3.25-2.38-6.21-4.39-8.89c-2.43-3.23-4.59-3.39-7.45-0.6
		c-3.58,3.49-7.03,7.11-9.84,11.25c-1.3,1.91-2.96,1.44-4.63,1.33c-0.84-0.05-0.64-0.92-0.73-1.46c-0.54-2.97-0.75-5.99-1.65-8.89
		c-0.22-0.72-0.25-1.6-0.7-2.13c-1.97-2.35-0.75-3.71,1.22-5.15c1.88-1.38,3.59-3,5.35-4.55c3.78-3.35,6.64-7.23,6.94-12.85
		c2.61,1.71,5.02,3.3,7.43,4.88c0.17-0.11,0.35-0.21,0.52-0.32c-1.29-3.44-2.57-6.89-3.86-10.33c0.08-0.07,0.17-0.13,0.25-0.2
		c3.42,3.35,6.9,6.64,10.25,10.06c1.34,1.38,2.4,1.64,4.04,0.42C195.11,600.34,199.54,597.31,203.92,594.22z"/>
	<path class="st7" d="M203.85,591.91c-4.38,3.93-9.37,7.03-14.18,10.38c-1.21,0.84-1.62-0.11-2.21-0.68
		c-3.86-3.71-7.39-7.77-11.81-10.87c-0.6-0.42-1.27-1.27-1.93-0.8c-0.75,0.54,0.04,1.42,0.27,2.06c0.97,2.68,2.07,5.31,2.91,8.1
		c-2.33-1.57-4.68-2.55-5.02-6.31c-0.71-7.75-2.4-15.41-4.06-23.03c-0.84-3.87-1.7-7.73-2.65-12.03c3.17,2.75,6,5.21,8.83,7.66
		c3.47,3.01,6.95,6,10.39,9.04c1.03,0.91,1.85,0.57,2.81-0.12c3.56-2.52,7.16-4.99,10.74-7.48c1.19,0.12,1.29,1.16,1.52,1.96
		c1.89,6.58,3.36,13.26,4.73,19.96C204.34,590.52,204.31,591.25,203.85,591.91z"/>
	<path class="st5" d="M485.83,505.05c2.95-7.69,4.76-15.67,6.38-23.72c1.23-6.12,2.29-12.27,2.58-18.49
		c0.18-3.89-0.55-7.81-0.32-11.74c3.11,6.64,5.07,13.69,7.16,20.68c3.12,10.39,5.79,20.9,7.54,31.62
		c1.25,7.66,2.21,15.34,2.55,22.59c-1.14-0.91-2.66-1.85-3.84-3.11c-6.11-6.53-13.14-11.92-20.61-16.78
		C486.78,505.77,486.31,505.4,485.83,505.05z"/>
	<path class="st1" d="M203.85,591.91c-1.55-8.13-3-16.29-5.91-24.08c4.05-3.35,8.09-6.71,12.16-10.04c0.76-0.63,1.51-0.41,2.26,0.16
		c4.86,3.68,9.74,7.33,14.59,11.01c1.18,0.89,1.15,1.8,0.03,2.79c-5.14,4.52-10.26,9.07-15.39,13.62
		C209.06,587.6,206.75,590.11,203.85,591.91z"/>
	<path class="st8" d="M219.75,225.01c1.91,5.56,2.07,11.39,2.66,17.15c0.16,1.51-0.98,1.07-1.67,1.02
		c-4.9-0.35-9.79-0.74-14.68-1.16c-4.35-0.37-8.77-0.08-13.25-1.32c2.18-4.54,2.06-9.47,2.42-14.32c0.44-0.99,1.22-1.45,2.29-1.56
		c6.05-0.57,12.09-1.14,18.18-0.93C217.12,223.96,218.56,224.06,219.75,225.01z"/>
	<path class="st5" d="M340.58,613.71c7.13,1.94,14.33,3.14,21.76,2.27c0.32,6.09,1.29,12,5.12,17.45c-2.48,0.22-4.76,0.55-7.04,0.6
		c-4.46,0.08-8.92,0.17-13.37-0.31c-3.19-0.35-4.32-1.19-5.3-4.29C340.13,624.29,340.29,619.01,340.58,613.71z"/>
	<path class="st5" d="M197.46,565.92c-1.59-5.3-3.17-10.61-4.9-16.38c-1.18,2.01-1.02,3.83-1.42,5.49c-0.14,0.6-0.18,1.35-0.7,1.59
		c-0.76,0.36-0.93-0.58-1.27-0.98c-3.11-3.59-5.8-7.49-8.1-11.63c-2.4-4.33-4.7-8.73-6.25-13.46c2.68,3.16,5.36,6.32,8.05,9.47
		c0.93,1.09,1.86,2.19,2.87,3.21c0.54,0.54,0.98,1.68,1.93,1.23c0.91-0.43,0.5-1.45,0.34-2.26c-0.7-3.7-1.39-7.41-2.1-11.11
		c-0.1-0.51-0.3-1,0.03-1.79c2.2,2.82,4.28,5.57,6.45,8.23c4.83,5.93,9.92,11.61,15.74,16.59c1.56,1.34,1.46,2.18-0.09,3.38
		C204.46,560.25,200.98,563.11,197.46,565.92z"/>
	<path class="st4" d="M88.08,287.22c1.56,0.02,2.57-1.14,3.8-1.8c7.26-3.9,14.98-5.01,23.14-4.3c14.31,1.25,26.91,7.26,39.39,13.67
		c1.5,0.77,3.28,1.13,4.39,2.58c-8.17-2.7-16.29-5.54-24.51-8.06c-11.59-3.55-23.38-4.59-35.35-2.11c-1.47,0.3-3.01,0.62-4.31,1.32
		C91.99,289.93,89.92,289.37,88.08,287.22z"/>
	<path class="st9" d="M219.75,225.01c-5.78-0.89-11.57-0.33-17.34,0.07c-2.4,0.17-4.99-0.22-7.18,1.31
		c-0.05-2.88-0.35-5.73-0.96-8.54c-0.25-1.14-0.14-1.69,1.2-2.02c6.18-1.52,12.39-2.68,18.79-2.68c1.22,0,1.9,0.29,2.36,1.5
		C217.91,218.04,219.19,221.41,219.75,225.01z"/>
	<path class="st10" d="M222.73,636.62c0.45-1.55,1.4-2.74,2.17-4c2.38-3.88,5.26-7.37,8.35-10.7c0.94-1.01,1.75-1.12,2.89-0.21
		c4.34,3.47,6.63,8.12,8,13.35c0.21,0.8-0.09,1.17-0.83,1.23C236.51,636.84,229.71,637.95,222.73,636.62z"/>
	<path class="st11" d="M329.69,609.63c2.81,1.64,5.84,2.75,8.97,3.61c0.11,4.75-0.16,9.53,0.95,14.21c0.36,1.54,0.79,3.08,1.39,4.53
		c0.44,1.04,0.1,1.25-0.81,1.48c-2.74,0.68-6.78-0.99-8.2-3.59c-2.62-4.78-3.39-9.99-3.07-15.34
		C329.02,612.9,328.94,611.18,329.69,609.63z"/>
	<path class="st10" d="M267.42,639.63c-3.92,0.51-7.83,0.02-11.74-0.09c-0.92-0.03-1.44-0.35-0.79-1.41
		c2.92-4.79,6.55-8.85,11.67-11.32c3.1-1.5,3.83-1.26,6.01,1.32c1.46,1.72,2.91,3.46,4.01,5.45c0.41,1.17-0.49,1.62-1.21,2.13
		C272.93,637.44,270.44,639.08,267.42,639.63z"/>
	<path class="st5" d="M244.74,525.05c-0.72,0.93,0,1.88-0.04,2.83c-0.35,8.36,0.62,16.69,0.44,25.05c-0.02,0.7,0.4,1.67-0.48,2.03
		c-0.97,0.4-1.15-0.68-1.63-1.2c-0.66-0.72-1.29-1.5-2.07-2.09c-1.27-0.96-0.56,0.48-0.82,0.75c-0.89-3-0.46-6.12-0.76-9.18
		c-0.74-7.57-1.14-15.17-1.71-23.26C240.2,521.79,242.47,523.42,244.74,525.05z"/>
	<path class="st10" d="M177.03,636.34c-3.16,0.02-6.33,0.01-9.49,0.08c-1.61,0.04-1.62-0.51-0.79-1.64
		c3.39-4.64,7.19-8.9,11.31-12.89c1.34-1.3,2.47-0.96,3.45,0.2c2.21,2.6,4.07,5.41,4.68,8.86
		C183.61,633.55,180.71,635.61,177.03,636.34z"/>
	<path class="st5" d="M263.33,516.96c1.17,5.3,3.12,10.36,4.78,15.51c0.16,0.5,0.42,0.99,0.5,1.5c0.09,0.61,0.81,1.31,0.02,1.84
		c-0.67,0.46-1.11-0.29-1.54-0.62c-2.46-1.85-4.88-3.75-7.32-5.63c-0.39-0.31-0.82-0.95-0.99,0.15c-2.44-6.26-4.88-12.51-7.32-18.77
		C255.43,513.12,259.52,514.76,263.33,516.96z"/>
	<path class="st10" d="M144.06,633.27c2.97-5.2,6.98-8.92,11.15-12.49c0.71-0.61,1.28-0.3,1.6,0.45c1.61,3.79,2.11,7.83,2.56,11.87
		c0.12,1.13-0.69,0.93-1.35,0.9C153.51,633.76,149,633.52,144.06,633.27z"/>
	<path class="st8" d="M95.54,229.58c0.53,0,1.06-0.03,1.59,0.01c1.48,0.1,1.84,0.87,1.18,2.13c-0.78,1.5-1.83,2.77-3.25,3.71
		c-2.42,1.59-4.98,2.87-7.88,3.28c-2.26,0.32-3.08-0.71-2.4-2.91c0.25-0.81,0.64-1.54,1.25-2.12
		C88.68,231.12,91.81,229.62,95.54,229.58z"/>
	<path class="st8" d="M191.15,221.73c0.02,2.09-0.42,4.02-1.67,5.75c-0.73,1.01-1.44,1.13-2.45,0.4c-1.71-1.24-3.13-6.29-2.23-8.12
		c0.33-0.66,4.87-2.53,5.24-2.08C190.98,218.84,191.18,220.27,191.15,221.73z"/>
	<path class="st12" d="M170.18,231.4c0.26,2.02,0.45,4.05,0.82,6.04c0.19,1-0.12,1.16-0.98,1.15c-2.41-0.03-4.82-0.01-7.4-0.01
		c0.64-2.16,1.6-4.13,3.12-5.81C167.1,231.94,168.29,230.52,170.18,231.4z"/>
	<path class="st13" d="M267.42,639.63c2.52-1.42,5.22-2.54,7.55-4.31c0.63-0.48,1.51-0.77,1.62-1.74c1.06,1.6,2.98,3.54,2.32,5.02
		c-0.58,1.28-3.38,0.75-5.2,0.91C271.62,639.69,269.51,639.61,267.42,639.63z"/>
	<path class="st14" d="M177.03,636.34c3.33-1.33,6.07-3.66,9.16-5.39c0.09,0.11,0.23,0.21,0.27,0.35c1.26,4.38,1.27,4.43-3.18,4.86
		C181.21,636.35,179.11,636.29,177.03,636.34z"/>
	<path class="st15" d="M170.18,231.4c-1.64-0.06-2.88,1.18-4.44,1.36c1.13-1.74,2.6-3.17,4.44-4.8
		C170.18,229.32,170.18,230.36,170.18,231.4z"/>
	<path class="st1" d="M428.99,503.34c2.94-0.59,5.87-0.67,8.81-0.02C434.86,503.33,431.92,503.34,428.99,503.34z"/>
	<path class="st1" d="M388.57,545.12c2.03-0.64,4.05-0.57,6.08-0.01C392.63,545.11,390.6,545.11,388.57,545.12z"/>
	<path class="st16" d="M286.04,263.65c-1.59-4.44-4.26-8.31-6.66-12.31c-7.21-12.02-15.2-23.52-23.85-34.54
		c0.09-1.62,1.5-2.38,2.36-3.46c5.04-6.28,11-11.62,17.1-16.83c1.69-1.45,3.61-1.22,5.58-0.64c10.1,2.97,19.02,8.08,27.2,14.63
		c10.8,8.65,19.71,18.9,26.82,30.78c1.71,2.85,1.69,5.29-0.27,7.94c-4.58,6.2-9.73,11.77-16.55,15.59c-1.28,0.72-2.6,1.18-4.08,1.21
		c-8.94,0.17-17.8-0.71-26.64-1.94C286.69,264.02,286.34,263.9,286.04,263.65z"/>
	<path class="st17" d="M286.04,263.65c3.87-0.16,7.64,0.78,11.47,1.06c5.5,0.4,10.99,0.85,16.5,0.77c1.25-0.02,2.34-0.52,3.4-1.12
		c7.16-4.02,12.57-9.82,17.12-16.54c1.28-1.89,1.08-3.59-0.01-5.47c-7.06-12.17-16.16-22.56-27.11-31.37
		c-8.15-6.56-17.07-11.65-27.15-14.62c-2.19-0.64-3.85-0.34-5.61,1.15c-6.92,5.9-13.23,12.39-19.13,19.29
		c-1.19-0.21-0.82-0.76-0.33-1.39c5.75-7.35,12.17-14.04,19.45-19.89c1.6-1.28,3.32-1.49,5.31-0.93
		c12.19,3.41,22.64,9.9,32.07,18.15c8.94,7.81,16.46,16.81,22.81,26.86c2.5,3.94,2.82,7.15-0.22,11.04
		c-4.23,5.41-8.82,10.33-14.61,14.08c-2.74,1.78-5.61,2.78-8.96,2.51c-7.59-0.61-15.24-0.63-22.73-2.25
		C287.47,264.77,286.24,265.06,286.04,263.65z"/>
</g>
</svg>
