<?xml version="1.0" encoding="utf-8"?>
<!-- Generator: Adobe Illustrator 24.3.0, SVG Export Plug-In . SVG Version: 6.00 Build 0)  -->
<svg version="1.1" id="Layer_1" xmlns="http://www.w3.org/2000/svg" xmlns:xlink="http://www.w3.org/1999/xlink" x="0px" y="0px"
	 viewBox="0 0 720 720" style="enable-background:new 0 0 720 720;" xml:space="preserve">
<style type="text/css">
	.st0{fill:#382D2B;}
	.st1{fill:#372C2A;}
	.st2{fill:#3F3433;}
	.st3{fill:#453B3B;}
	.st4{fill:#362B29;}
	.st5{fill:#473D3B;}
	.st6{fill:#403634;}
	.st7{fill:#3C3130;}
	.st8{fill:#292221;}
	.st9{fill:#D9B2D2;}
	.st10{fill:#F9E5ED;}
	.st11{fill:#231B1C;}
	.st12{fill:#251B1B;}
	.st13{fill:#22120F;}
	.st14{fill:#211918;}
	.st15{fill:#231210;}
	.st16{fill:#271715;}
	.st17{fill:#362C2C;}
	.st18{fill:#AC9B9F;}
	.st19{fill:#5E4E50;}
	.st20{fill:#9C2B21;}
	.st21{fill:#E67373;}
	.st22{fill:#B53A3F;}
	.st23{fill:#231815;}
	.st24{fill:#FFFFFF;}
</style>
<g>
	<path class="st0" d="M288.41,684.9c0.39,0.49,0.77,0.98,1.16,1.47c3.53,0,7.06,0,10.58,0c19.21-7.97,31.22-22.77,39.11-41.41
		c0.92-2.18,2.13-2.59,4.33-2.46c73.22,4.34,136.15-19.21,189.05-69.89c1.27-1.22,2.62-2.39,3.71-3.77c1.47-1.85,2.7-1.8,4.76-0.64
		c14.23,8.04,29,14.7,45.34,17.24c6.6,1.03,12.96,0.67,18.99-2.52c2.85-1.51,4.41-4.29,6.56-6.49c0-3.26,0-6.51,0-9.77
		c-7.95-18.57-21.35-32.68-36.94-44.95c-1.76-1.38-1.45-2.39-0.53-4.02c10.65-18.99,18.61-39.06,23.84-60.2
		c0.58-2.35,1-4.75,1.49-7.13c0.37-1.47,0.79-2.95-0.29-4.32c-2.48,0.81-2.21,3.2-2.63,5c-2.86,12.14-6.63,23.99-11.05,35.65
		c-5.26,13.84-12.13,26.87-19.76,39.52c-0.86,1.43-3.18,3.35-0.74,4.77c2.21,1.29,3.1-1.4,4.11-2.87c3.11-4.54,3.36-4.52,7.69-0.98
		c4.09,3.35,7.87,7.02,11.52,10.83c6.86,7.18,13.18,14.78,17.61,23.74c6.35,12.84,1.27,20.84-13.16,21
		c-8.13,0.09-15.8-2.09-23.39-4.66c-8.28-2.71-16.03-6.64-23.76-10.57c-4.12-2.1-4.14-2.26-1.41-5.79c2.16-2.79,4.74-5.23,6.78-8.11
		c0.99-1.4,2.83-3.08,1.16-4.58c-1.87-1.67-3.05,0.68-4.12,1.89c-5.31,5.98-10.38,12.15-16.05,17.82
		c-30.79,30.81-67.18,52-109.22,63.31c-16.65,4.48-33.68,6.67-50.93,7.84c-19.13,1.3-37.84-1.07-56.58-4.02
		c-1.74-0.27-3.47-0.68-5.24-0.7c-0.96-0.01-2,0.14-2.28,1.28c-0.32,1.3,0.56,2,1.6,2.49c0.87,0.41,1.84,0.45,2.77,0.64
		c6.79,1.34,13.59,2.58,20.49,3.17c2.64,0.23,3.61,1.01,2.4,3.84c-2.8,6.55-6.56,12.46-11.11,17.9
		c-5.71,7.85-13.14,13.56-21.96,17.5c-3.8,1.7-7.84,1.84-11.93,1.45C289.52,683.68,288.78,684.05,288.41,684.9z"/>
	<path class="st1" d="M288.41,684.9c0.66-0.29,1.31-0.57,1.97-0.86c-0.07-0.4-0.15-0.86-0.47-1.08c-7.01-4.99-8.93-12.32-9.41-20.32
		c-0.63-9.49,0.39-18.86,2.02-28.18c0.26-1.52,1.18-2.01,2.63-1.75c1.34,0.24,2.62,0.68,3.94,0.98c1.34,0.3,2.96,0.67,3.54-0.93
		c0.72-1.97-1.16-2.44-2.45-3.03c-1.48-0.67-3.05-1.1-4.6-1.59c-19.76-6.17-38.2-15.13-55.62-26.25
		c-33.04-21.13-59.04-48.97-79.55-83.45c6.85,1.43,12.65,3.24,18.6,4.3c2,0.35,5.05,2.03,5.73-0.56c0.84-3.21-2.82-2.91-4.83-3.34
		c-15.94-3.45-31.51-8.03-46.6-14.25c-3.29-1.35-6.34-3.08-9.2-5.16c-3.53-2.56-3.63-4.55-0.23-7.41c4.34-3.66,9.64-5.52,14.91-7.24
		c7.09-2.33,14.43-3.73,21.7-5.39c0.92-0.21,1.87-0.37,2.77-0.67c1.07-0.36,2.21-0.92,1.99-2.19c-0.26-1.5-1.59-1.72-2.89-1.5
		c-5.35,0.89-10.62,2.16-15.91,3.36c-1.58,0.36-3.15,0.81-4.73,1.18c-0.85,0.24-1.45,0.81-1.93,1.53
		c-3.73,1.49-7.47,2.96-11.19,4.49c-4.18,1.71-7.54,4.54-10.59,7.8c0,1.63,0,3.26,0,4.89c9.4,8.82,21.46,12.22,33.25,16.07
		c3.07,1,5,2.56,6.61,5.33c29.85,51.37,72.49,87.68,128.24,108.41c3.19,1.19,3.99,2.65,3.44,5.93c-1.94,11.38-3.27,22.85-1.3,34.37
		C279.39,675.16,281.42,681.62,288.41,684.9z"/>
	<path class="st2" d="M321.32,34.93c-0.89,1.21-2.53,0.62-3.56,1.49c1.11,1.5,2.97,1.13,4.43,1.77c4.95,0.89,9.87-0.68,14.92,0.13
		c3.99,0.64,8.01,1.04,11.89,2.25c17.8,5.03,29.21,16.8,35.8,33.76c1.94,4.98,2.54,10.23,3.49,15.41c1.04,1.44,2.9-0.23,4,1.04
		c0.81,0.05,1.48-0.14,1.72-1.04c-0.12-0.62-0.48-1.02-1.09-1.19c-1.55,0.05-1.97-0.83-2.2-2.24
		c-4.46-27.62-20.33-44.52-47.67-50.63c-0.49-0.11-0.92-0.49-1.37-0.74C334.89,34.93,328.11,34.93,321.32,34.93z"/>
	<path class="st0" d="M392.92,88.54c0.38,0.37,0.77,0.73,1.15,1.1c2.02,1.2,3.94,0.1,5.85-0.31c10.59-2.28,20.86-1.64,30.7,3.18
		c26.79,12.29,35.07,47.91,16.11,70.46c-6.52,7.75-15.39,11.79-25.4,13.31c-2.01,0.31-5.38-0.08-4.87,2.81
		c0.52,2.95,3.78,1.8,5.89,1.39c6.69-1.33,13.15-3.38,18.81-7.33c2.26-1.57,4.38-1.61,6.86-0.58c5.63,2.34,11.26,4.7,16.82,7.19
		c20.8,9.96,39.73,22.67,57.04,37.94c18.71,16.49,34.04,35.69,46.91,56.91c11.47,18.9,19.7,39.24,25.6,60.54
		c0.46,1.66,0.25,3.94,2.75,4.42c1.07-1.13,0.53-2.39,0.29-3.63c-4.72-19.92-12.46-38.67-22.51-56.43
		c-29.03-51.32-70.85-88.09-125.81-109.72c-1.83-0.72-3.73-1-1.32-3.65c13.12-14.38,15.3-31.28,9.05-48.93
		c-6.27-17.7-19.54-28.26-38.12-31.69C409.88,83.89,401.2,84.75,392.92,88.54z"/>
	<path class="st3" d="M597.45,335.94c-0.33,1.16,0.26,2.53-0.78,3.53c-1.25,1.29-0.69,2.81-0.36,4.17
		c1.06,4.42,1.65,8.94,2.71,13.36c2.29,16.13,4.27,32.31,3.47,48.61c-0.57,11.63-1.57,23.27-3.85,34.75
		c-0.38,1.93-1.28,3.98,0.4,5.8c1.3,1.2,0.43,2.83,0.81,4.21c3.3-12.2,4.65-24.72,5.43-37.26c1.56-25.02-0.75-49.76-6.75-74.12
		C598.27,337.95,597.82,336.96,597.45,335.94z"/>
	<path class="st4" d="M218.63,164.67c1.79,7.59,5.8,13.96,11.11,19.48c1.91,1.99,2,2.83-0.43,4.4
		c-42.71,27.47-73.6,64.92-93.68,111.42c-1.53,3.53-2.74,7.2-4.1,10.8c-0.33,1-0.69,2,0.4,2.8c2.13-0.23,2.25-2.11,2.8-3.55
		c8.94-23.47,21.01-45.2,36.6-64.87c16.77-21.17,36.34-39.38,59.12-54.02c2.14-1.37,3.87-1.48,5.9,0.03
		c3.5,2.6,7.41,4.48,11.37,6.26c1.11,0.5,2.26,0.93,3.51,0.95c0.84,0.01,1.66-0.16,1.96-1.09c0.29-0.9-0.18-1.57-0.83-2.12
		c-0.84-0.73-1.92-0.98-2.92-1.38c-12.99-5.18-22.4-13.93-27.23-27.28c-0.58-1.6-0.92-3.49-3.06-3.94
		C218.12,163.06,218.33,163.86,218.63,164.67z"/>
	<path class="st5" d="M132.3,313.41c-0.86-0.7-0.55-1.74-0.77-2.62c-4.84,11.1-7.8,22.79-10.38,34.56
		c-4.67,21.29-6.38,42.86-5.38,64.64c1.12,24.41,5.97,48.07,14.02,71.11c0.67-0.27,1.34-0.55,2-0.82c1.08-1.63,0.18-3.13-0.32-4.64
		c-6.29-18.83-10.26-38.11-11.82-57.93c-2.67-33.95,1.53-66.98,12.31-99.23C132.51,316.83,133.31,315.17,132.3,313.41z"/>
	<path class="st6" d="M218.63,164.67c0.15-0.73,0.2-1.51,1-1.9c1.27-1.47,0.59-3.1,0.36-4.67c-1.83-12.52,0.86-23.96,8.17-34.29
		c8.69-12.27,21.04-17.87,35.61-19.34c1.6-0.16,3.29-0.02,4.6-1.28c1.64-3.57,1.91-7.12-0.09-10.66c-0.05,0.12-0.12,0.25-0.16,0.37
		c-0.88,2.7,1.07,6.47-1.09,8.05c-1.96,1.44-5.45,0.7-8.23,1.13c-23.79,3.64-40.69,21.82-42.48,45.86
		C215.89,153.64,216.53,159.28,218.63,164.67z"/>
	<path class="st7" d="M322.14,37.31c-1.26-1.29-2.94-0.47-4.37-0.89c-23.01,3.98-43.99,24.69-48.43,47.91
		c-0.48,2.49-1.5,4.94-1,7.57c1.03,3.48,0.42,7.03,0.31,10.54c-0.04,1.19-0.44,2.35,0.58,3.31c2.87-0.77,1.85-3.22,1.8-4.89
		c-0.23-8.91,0.86-17.55,4.46-25.77c7.85-17.95,21.14-29.71,40-35.16C317.77,39.27,320.38,39.33,322.14,37.31z"/>
	<path class="st8" d="M270.1,105.77c-1.76-2.25-0.57-4.88-0.96-7.31c-0.35-2.17,0.84-4.54-0.81-6.55c-0.21,0.19-0.22,0.4-0.05,0.63
		c0.1,3.63,0.89,7.3-0.7,10.82c-0.74,4.73,0.84,9.12,2.13,13.52c3.01,10.21,8.46,19,15.82,26.64c0.85,0.88,1.7,1.76,2.8,2.33
		c1.04,0.53,2.16,0.73,2.94-0.32c0.66-0.88,0.16-1.82-0.4-2.62c-0.94-1.34-2.14-2.44-3.31-3.57c-8.38-8.1-13.05-18.16-15.52-29.38
		C271.7,108.43,271.94,106.62,270.1,105.77z"/>
	<path class="st9" d="M599.04,446.16c1.77-11.2,3.34-22.41,4.16-33.74c1.22-16.95-0.06-33.74-2.28-50.51
		c-0.25-1.86-0.63-3.69-0.95-5.54c-1.3,0.51-2.59,0.51-3.98,0.28c-11.61-1.9-19.99,3.17-26.11,12.55
		c-7.38,11.33-10.84,24.16-13.45,37.24c-2.55,12.75-4.83,25.55-5.91,38.53c-0.08,0.95-0.49,1.83-0.65,2.77
		c0.38,2.04,2.25,2.1,3.67,2.71c4.1,1.79,8.12,3.67,11.47,6.76c5.94,5.5,5.55,10.36-0.92,16c-5.24,4.57-11.79,6.41-18.4,7.95
		c-8.57,2-17.31,2.72-26.08,3.21c7.22-0.74,14.5-0.85,21.63-2.37c5.54-1.18,11.1-2.25,16.25-4.76c1.17-0.57,2.66-0.89,2.51-2.71
		c-1.56-1.44-3.5-2.07-5.51-2.42c-17.5-3.08-35.04-5.79-52.91-5.09c-2.46,0.1-4.88,0.35-7.19,1.18c-4.76,1.71-6,5.54-2.95,9.63
		c2.2,2.94,4.86,5.45,8.04,7.38c7.46,4.54,15.47,7.82,23.73,10.58c5.06,1.69,5.09,2.02,2.76,6.86
		c-9.74,20.25-22.64,38.34-38.7,53.93c-26.81,26.02-58.49,43.64-94.66,53.26c-25.14,6.69-50.71,9.01-76.56,7.7
		c-19.79-1-39.29-4.5-58.53-9.39c-7.63-1.94-15.14-4.23-22.64-6.59c-2-0.63-3.97-1.19-5.51,0.91c10.57,7.65,22.27,13.22,34.09,18.56
		c8.63,3.9,17.59,6.97,26.64,9.75c0.94,0.29,2.69,0.26,2.29,1.63c-0.5,1.71-2.03,0.6-3.08,0.29c-7.14-2.15-7.36-2.2-8.42,5.24
		c-1.17,8.26-2.37,16.57-1.18,24.97c1.47-1.21,1.25-2.94,1.19-4.51c-0.11-2.88,1.17-3.57,3.92-3.59
		c12.14-0.07,23.52,2.81,34.37,8.11c1.82,0.89,3.58,1.91,5.53,2.49c5.55-6.09,9.36-13.23,12.63-20.72c0.95-2.16,0.2-2.5-1.74-2.69
		c-7.83-0.77-15.6-1.98-23.32-3.52c-0.66-0.13-1.36-0.14-2.01-0.31c-0.88-0.22-2.16-0.29-1.9-1.59c0.27-1.38,1.45-0.8,2.32-0.62
		c7.29,1.58,14.64,2.82,22.07,3.53c87.39,8.33,159.39-21.23,216.34-87.88c0.89-1.04,1.87-3.52,3.09-2.49
		c1.77,1.48-0.8,2.68-1.66,3.76c-2.79,3.5-5.73,6.87-8.75,10.18c-1.4,1.53-1.79,2.41,0.43,3.62c8.83,4.78,17.74,9.35,27.37,12.36
		c12.89-10.93,18.37-25.36,19.71-41.74c-4.36-5.22-9.71-9.36-14.88-13.72c-1.83-1.54-2.71-1.03-3.68,0.78
		c-0.83,1.55-1.79,3.04-2.81,4.47c-0.62,0.87-0.99,2.81-2.5,1.76c-1.17-0.81,0.22-1.92,0.75-2.74c4.39-6.85,8.34-13.93,12-21.19
		C587.86,487.42,594.47,467.14,599.04,446.16z"/>
	<path class="st10" d="M589.3,537.28c-0.84,0.16-1.35,0.38-1.42,1.51c-0.77,11.87-4.25,22.78-11.85,32.13
		c-1.7,2.09-3.64,4.03-5.67,5.8c-0.86,0.75-1.23,1.28-0.78,2.29c9.67,3.31,19.43,6.46,29.78,4.03c9.95-2.34,13.18-8.9,9.34-18.41
		C604.41,554,597.22,545.37,589.3,537.28z"/>
	<path class="st10" d="M324.71,665.4c-0.22-0.48-0.31-1.21-0.68-1.4c-11.48-5.85-23.4-10.19-36.52-10.24
		c-7.47-0.02-7.47-0.04-7.64,7.53c-0.01,0.54-0.13,1.07-0.19,1.6c0.29,8.7,2.16,16.61,10.69,21.15c5.38,1.33,10.41,0.13,15.15-2.38
		C313.11,677.67,319.65,672.39,324.71,665.4z"/>
	<path class="st10" d="M550.02,447.86c1.85-0.36,1.58-1.78,1.72-3.14c2.02-19.86,4.93-39.57,11.29-58.57
		c2.71-8.08,6.18-15.83,12.43-22.03c6.35-6.3,13.73-8.32,22.22-5.7c2.53,0.78,1.87-1,2.29-2.05c-1.1-5.63-2.2-11.27-3.29-16.9
		c-7.1-27.23-18.12-52.71-33.84-76.1c-24.51-36.46-56.43-64.42-95.9-83.73c-0.48-0.24-1.01-0.38-1.51-0.57
		c-1.23-0.77-2.28-0.36-3.33,0.45c-15.72,12.19-33.14,12.66-51.37,7.41c-2.73-0.79-5.48-1.6-7.97-3.05
		c-0.89-0.52-2.04-0.73-2.54-1.93c1.48-1.06,3.24-1.33,4.88-1.8c14.94-4.26,25.29-13.74,31.7-27.72c4.08-8.91,7.6-17.9,7.84-27.98
		c0.19-7.75-1.6-14.76-5.44-21.37c-2.32-3.99-4.84-7.84-7.87-11.34c-10.98-5.71-22.42-6.07-34.16-2.91
		c-1.03,0.28-2.07,0.55-3.1,0.82c-0.63,0.24-1.26,0.47-1.89,0.71c-8.81,2.17-14.08,8.47-18.39,15.85
		c-1.76,3.01-3.06,6.27-4.86,10.07c1.52-3.84,3.39-6.78,3.89-10.24c-0.23-5.43,1.02-10.75,0.95-16.19
		c-0.19-16.41-4.73-31.17-15.76-43.64c-2.35-2.66-4.87-5.03-8.19-6.41c-7.5-3.01-15.32-3.13-23.22-2.66
		c-1.48,0.09-2.97,0.11-4.46,0.17c-25.18,4.96-42.14,19.33-49.96,43.96c-2.53,7.96-2.94,16.2-2.07,24.5
		c1.82,9.83,4.88,19.15,10.74,27.41c2.61,3.67,5.58,6.99,8.87,10.05c0.69,0.64,2.37,1.25,1.23,2.42c-0.96,0.98-1.9-0.38-2.64-1.08
		c-9.79-9.16-16.26-20.22-19.05-33.39c-0.55-2.61-1.11-5.21-1.67-7.82c-10.05,0.19-19.64,2.17-28,8.04
		c-16.63,11.67-23.41,27.67-20.46,47.78c0.18,1.2,0.34,2.4,0.51,3.59c3.68,11.49,10.21,20.85,20.42,27.48
		c3.55,2.31,7.35,4.03,11.4,5.27c0.86,0.26,2.08,0.67,1.49,1.89c-0.4,0.81-1.43,0.4-2.21,0.12c-5.14-1.81-10.11-4.04-14.33-7.51
		c-2.04-1.68-3.46-1.62-5.63-0.22c-34.67,22.31-61.89,51.57-81.91,87.56c-6.26,11.24-11.88,22.8-15.79,35.11
		c-0.11,0.36-0.5,0.63-0.77,0.94c-5.97,17.88-10.71,36.05-12.87,54.83c-4.3,37.3-0.95,73.79,11.51,109.32
		c0.31,0.89,0.57,1.81,0.85,2.71c5.81-1.25,11.62-2.49,17.43-3.73c0.93-0.2,1.86-0.4,2.8-0.52c0.98-0.13,2.39-0.96,2.63,0.7
		c0.18,1.27-1.22,1.13-2.1,1.31c-2.53,0.5-5.07,0.93-7.57,1.51c-9.38,2.17-18.8,4.24-27.41,8.79c-3.22,1.7-7.28,3.28-7.36,7.39
		c-0.07,3.81,3.92,5.3,6.82,6.85c12.65,6.75,26.37,10.59,40.14,14.23c4.85,1.28,9.77,2.26,14.64,3.44c1.06,0.26,3.01,0.01,2.74,1.54
		c-0.28,1.6-2,0.77-3.09,0.51c-6.85-1.66-13.68-3.38-20.51-5.07c-0.5-0.12-1.03-0.15-2.39-0.35c1.15,2.05,1.97,3.62,2.88,5.13
		c19.34,32.27,44.44,59.04,76.13,79.48c0.57,0.36,1.18,0.65,1.77,0.97c3.26-1.64,6.1,0.44,8.89,1.35
		c17.39,5.64,35.18,9.5,53.2,12.35c18.11,2.87,36.43,3.61,54.65,2.42c31.3-2.04,61.39-9.52,89.5-23.74
		c16.96-8.57,32.46-19.37,46.63-32.16c19.48-17.59,34.42-38.37,45.97-61.82c1.62-3.29,0.84-4.34-2.18-5.31
		c-9.17-2.95-18.1-6.43-26.36-11.5c-3.08-1.89-5.55-4.4-7.71-7.14c-2.52-3.19-1.43-6.38,2.42-7.65c2.3-0.75,4.7-1.09,7.17-1.19
		c17.96-0.75,35.54,2.27,53.15,5.06c1.85,0.29,3.41,1.69,5.4,1.63c4.42-0.12,6.56-3.21,8.18-6.65c1.5-3.18,1.05-6.36-1.28-9.12
		c-3.23-3.83-7.5-6.21-12.03-8.03c-15.27-6.14-31.26-9.31-47.52-11.33c-1.88-0.23-3.7-0.8-5.6-0.88c15.15,1.81,30.11,4.5,44.72,8.99
		C547.68,448.11,548.84,448.75,550.02,447.86z"/>
	<path class="st9" d="M349.82,39.8c12.27,10.46,19.73,23.44,22.13,39.59c1.37,9.24-0.52,18.28-0.03,27.41
		c1.72,0.09,2.23-1.35,2.89-2.45c3.21-5.28,7.46-9.47,12.82-12.53c0.61-0.35,1.02-0.85,1.08-1.59c0.63-4.99-0.79-9.7-2.33-14.29
		C380.27,57.79,368.52,45.26,349.82,39.8z"/>
	<path class="st11" d="M388.72,90.23c-7.47,3.63-12.36,9.87-16.8,16.57c-1.3,3.11-2.61,6.22-3.88,9.35
		c-0.33,0.81-1.06,1.91,0.35,2.3c0.97,0.27,1.26-0.79,1.53-1.54c1.25-3.58,2.88-6.98,4.68-10.31c4.02-7.43,10.24-12.42,17.58-16.23
		C391.09,88.54,389.9,89.41,388.72,90.23z"/>
	<path class="st9" d="M431.33,91.73c0.68,3.78,3.5,6.34,5.49,9.33c7.52,11.3,8.44,23.38,4.76,36.11
		c-2.04,7.04-4.95,13.71-8.52,20.11c-7.4,13.26-19.33,19.95-33.55,23.39c-0.73,0.18-1.76-0.22-2.04,0.84
		c-0.21,0.8,0.51,1.15,1.1,1.48c18.4,10.12,43.52,11.78,61.74-0.41c1.71-1.15,2.41-3.84,5.11-3.49c-6.08-3.3-12.59-5.59-18.91-8.33
		c-1.94-0.84-3.28-0.32-4.82,0.8c-6.39,4.64-13.67,7.07-21.42,8.15c-1.14,0.16-3.15,1.1-3.31-0.89c-0.12-1.44,1.85-1.13,2.99-1.28
		c21.25-2.8,34.77-16.2,37.76-37.43C460.48,120.38,449.09,99.5,431.33,91.73z"/>
	<path class="st12" d="M550.02,447.86c-15.99-5.34-32.5-8.14-49.16-10.22c-1.06-0.13-2.8-1.01-2.92,0.87
		c-0.09,1.32,1.59,1.08,2.62,1.19c16.33,1.77,32.45,4.61,48.07,9.86c4.51,1.51,8.89,3.33,12.88,5.95
		c9.54,6.26,8.95,14.05-1.43,19.26c-5.95,3.84-12.77,5.04-19.53,6.35c-7.07,1.36-14.22,1.91-21.41,2.18
		c-1.06,0.04-2.89-0.58-2.86,1.16c0.02,1.42,1.72,0.87,2.68,0.83c12.23-0.42,24.32-1.75,35.95-5.84c4.26-1.5,8.23-3.52,11.45-6.76
		c5.48-5.51,5.36-10.92-0.37-16.14C561.37,452.36,555.62,450.24,550.02,447.86z"/>
	<path class="st13" d="M437.02,386.47c0.07-24.04-13.07-44.61-32.01-52.18c-22.43-8.97-45.65-2.2-59.84,17.45
		c-20.76,28.73-8.44,70.23,24.6,82.91c23.66,9.08,51.1-2.98,62.27-27.35C435.37,400.03,436.92,392.39,437.02,386.47z"/>
	<path class="st14" d="M227.58,303.9c3.59,17.25,14.43,27.84,30.89,32.84c23.11,7.01,47.47-4.83,54.79-26.36
		c8.17-24.04-9.79-48.97-34.23-47.8c-16.32,0.78-35.86,22.15-23.63,41.72c3.49,5.58,8.48,9.09,14.86,10.54
		c7.6,1.72,14.84-1.96,18.51-9.26c3.42-6.81,1.95-13.83-4.07-19.06c-0.93-0.81-1.75-2.22-3.41-1.36c-0.16,1.83,1.52,2.12,2.44,2.95
		c4.77,4.29,6.14,10.07,3.66,15.88c-2.69,6.29-8.48,9.9-14.79,9.24c-13.48-1.42-22.67-16.34-17.89-29.07
		c4.41-11.77,14.66-19.51,25.95-19.63c13.04-0.13,25.03,8.04,30.08,20.49c6.16,15.19,0.94,33-12.68,43.23
		c-18.7,14.06-47.06,10.27-61.36-8.24c-3.79-4.9-6.29-10.42-7.35-16.57c-0.13-0.76-0.55-1.48-0.83-2.22
		C226.45,301.49,227.52,302.87,227.58,303.9z"/>
	<path class="st15" d="M144.37,410.75c0.19,12.54,4.27,25.91,14.56,36.84c15.13,16.05,37.05,15.26,51.13-1.68
		c17.02-20.47,15.52-55.92-3.16-74.84c-16-16.19-39.09-14.35-52.32,4.2C147.49,385.21,144.36,396.39,144.37,410.75z"/>
	<path class="st16" d="M291.64,475.41c3.12-0.23,5.49-1.98,7.51-4.26c4.47-5.06,6.53-11.21,7.55-17.72
		c0.35-2.22,0.98-3.25,3.36-3.62c3.89-0.61,5.83-3.66,7.31-6.99c0.28-0.63,0.49-1.47-0.17-1.85c-1-0.57-1.45,0.32-1.71,1.09
		c-1.98,5.91-6.32,6.34-11.75,5.8c-12.17-1.21-24.41-0.17-36.61-0.21c-7.24-0.03-14.49,0.22-20.12-5.57
		c-0.46-0.48-1.24-0.84-1.73-0.06c-0.43,0.68,0.15,1.26,0.62,1.74c3.54,3.51,8.08,5.94,12.76,5.42c8.05-0.89,12.01,2.43,15.06,9.51
		c2.49,5.8,6.9,10.7,12.26,14.43C287.66,474.28,289.44,475.24,291.64,475.41z"/>
	<path class="st17" d="M227.58,303.9c0.27-0.91-0.08-2.05,0.94-2.7c-2.08-15.19,1.92-28.67,11.38-40.64
		c2.55-3.23,5.67-5.8,8.99-8.16c0.12-0.88-0.2-1.29-1.12-1.06C231.44,261.25,221.59,286.92,227.58,303.9z"/>
	<path class="st18" d="M257.83,248.29c2.46-0.85,5.34-0.47,8.32-3.25c-4.41,0.2-7.73,0.64-10.86,2.32
		C255.85,248.46,257.08,247.7,257.83,248.29z"/>
	<path class="st19" d="M257.83,248.29c-0.51-1.23-1.66-0.7-2.53-0.93c-2.56,1.23-5.39,1.94-7.53,3.97c0.37,0.35,0.75,0.71,1.12,1.06
		C251.87,251.03,254.85,249.66,257.83,248.29z"/>
	<path class="st20" d="M425.59,414.47c21.23-29.15,6.05-76.54-34.51-82.16c-17.67-2.45-37.09,7.49-46.83,24.09
		c-12.05,20.53-8.96,48.56,8.63,65.41c1.55,1.49,3.35,2.72,5.03,4.07c3.36,2.25,16.28,10.32,33.88,8.17
		C412.23,431.55,423.57,417.15,425.59,414.47z"/>
	<path class="st20" d="M216.07,428.85c0.77-3.03,9.1-38.03-11.18-57.08c-2.58-2.43-10.03-9.42-20.99-9.9
		c-13.99-0.61-24,9.84-26.64,12.86c-17.27,19.78-11.7,57.14,7.65,73.46c3.06,2.58,9.13,7.61,17.68,7.9
		C195.6,456.54,208.68,445.85,216.07,428.85z"/>
	<path class="st21" d="M277.24,460.88c2.43,3.78,5.26,7.21,8.81,9.99c4.59,3.59,8.15,3.23,11.96-1.25
		c2.76-3.25,4.55-7.01,5.54-11.16c1.05-3.33-0.62-4.34-3.64-4.56c-7.04-0.5-13.77,0.79-20.36,3.1
		C277.68,457.65,276.33,458.59,277.24,460.88z"/>
	<path class="st22" d="M277.24,460.88c0.13-1.05,0.12-2.02,1.52-2.47c7.2-2.31,14.47-3.88,22.13-3.41c2.68,0.16,2.6,1.68,2.65,3.46
		c1.48-2.01,0.61-4.47,1.25-6.68c0.52-1.79-1.07-2.21-2.56-2.22c-9.49-0.03-18.99-0.03-28.48-0.07c-2.05-0.01-2.27,0.97-1.52,2.59
		C273.66,455.16,275.15,458.18,277.24,460.88z"/>
	<path class="st23" d="M365.21,407.85c8.12,7.09,17.27,9.81,25.76,8.46c13.88-2.21,20.6-13.66,22.18-16.63
		c0.72-1.35,4.43-8.55,3.65-18.37c-0.6-7.49-3.48-12.79-4.57-14.56c-6.12-9.85-16.02-16.84-29.55-15.16
		c-2.67,0.33-4.42-0.1-5.86-2.83c-2.92-5.52-8.43-7.26-14.2-5.1c-10.04,3.77-16.96,17.97-13.81,28.25c0.65,2.12,1.5,4.31,3.25,5.5
		c3,2.04,3.51,4.64,3.45,8C355.35,394.28,359.14,401.59,365.21,407.85z"/>
	<path class="st23" d="M170.68,433.83c1.68,0.87,8.76,4.29,17,1.78c9.93-3.03,13.69-12.28,14.65-14.66
		c4.25-10.44,0.26-19.95-0.85-22.62c-0.63-1.5-2.48-5.52-6.28-9.46c-3.2-3.32-7.14-5.34-11.67-6.06c-2.13-0.34-3.24-1.19-3.85-3.4
		c-1.89-6.9-7.84-9.87-14.5-7.5c-8.95,3.18-15.63,15.66-13.22,24.77c0.27,1.03,0.51,2.38,1.24,2.93c4.65,3.53,4.67,8.57,5.12,13.69
		C159.1,422.05,163.75,428.68,170.68,433.83z"/>
	<path class="st24" d="M349.9,365.52c0.1,6.09,1.48,10.73,6.63,12.92c5.01,2.13,9.35-0.06,12.91-3.51
		c6.2-6.02,9.32-13.33,7.18-22.02c-1.94-7.9-9.33-10.63-16.16-6.04C353.58,351.48,350.27,358.19,349.9,365.52z"/>
	<path class="st24" d="M153.4,392.61c-0.13,3.96,1.01,7.4,4.51,9.43c3.66,2.13,7.41,1.34,10.74-0.92
		c6.66-4.51,10.19-10.79,9.67-18.95c-0.5-7.76-7.04-11.45-13.92-7.74C157.27,378.28,153.76,384.55,153.4,392.61z"/>
</g>
</svg>
