<?xml version="1.0" encoding="utf-8"?>
<!-- Generator: Adobe Illustrator 24.3.0, SVG Export Plug-In . SVG Version: 6.00 Build 0)  -->
<svg version="1.1" id="Layer_1" xmlns="http://www.w3.org/2000/svg" xmlns:xlink="http://www.w3.org/1999/xlink" x="0px" y="0px"
	 viewBox="0 0 720 720" style="enable-background:new 0 0 720 720;" xml:space="preserve">
<style type="text/css">
	.st0{fill:#F5CADF;}
	.st1{fill:#D7ADBF;}
	.st2{fill:#14181D;}
	.st3{fill:#2EB4A8;}
	.st4{fill:#FFFFFF;}
	.st5{fill:#EB8599;}
	.st6{fill:#93341F;}
</style>
<g>
	<path d="M638.08,340.88c4.06-0.86,8.09-1.75,12.13-2.57c5.41-1.09,10.86-1.95,16.39-2.05c2.05-0.04,4.12,0.21,6.17,0.48
		c3.28,0.44,5.27,2.52,6.41,5.48c1.3,3.36,1.39,6.87,1.06,10.4c-0.93,9.85-4,19.13-7.56,28.27c-6.58,16.87-15.66,32.37-26.3,46.97
		c-2.52,3.45-5.14,6.84-7.8,10.19c-0.85,1.07-1.32,2.21-1.54,3.53c-2.29,13.9-5.69,27.52-10.19,40.87
		c-11,32.67-28.13,61.76-51.2,87.35c-18.27,20.27-39.06,37.51-62.46,51.58c-0.58,0.35-1.13,0.74-1.96,1.28
		c0.82,0.26,1.36,0.47,1.92,0.62c20.57,5.28,39.99,13.35,58.13,24.38c10.71,6.51,19.93,14.77,27.21,25.06
		c3.5,4.94,6.31,10.23,7.21,16.3c0.3,2.03,0.3,4.13,0.16,6.18c-0.13,1.99-1.25,3.63-2.62,5.05c-3.14,3.23-6.96,5.09-11.41,5.77
		c-6.39,0.97-12.79,0.88-19.18,0.23c-26.01-2.64-50.84-9.89-74.83-19.99c-9.89-4.17-19.75-8.53-29.06-13.95
		c-6.57-3.82-12.85-8.11-18.11-13.67c-2.21-2.34-4.09-4.99-6.39-7.83c-18.66,5.14-38.01,8.58-57.68,10.45
		c0.7,2.02,1.51,3.79,1.93,5.65c1.69,7.47-0.72,13.56-6.5,18.43c-2.66,2.24-5.63,3.98-8.78,5.4c-16.72,7.53-34.09,13.06-51.99,16.94
		c-12.68,2.75-25.5,4.65-38.43,5.67c-7.28,0.58-14.59,0.92-21.89,1.09c-6.54,0.15-13.1,0.07-19.63-0.19
		c-8.48-0.34-16.9-1.32-25.1-3.7c-4.12-1.2-8.03-2.85-11.64-5.24c-6.46-4.29-7.24-11.08-4.44-16.87c2.17-4.5,5.48-8.08,9.09-11.42
		c6.68-6.19,14.29-11.02,22.37-15.14c8.06-4.11,16.48-7.36,25.11-10.06c0.69-0.21,1.37-0.45,2-1.06c-2.2-0.7-4.41-1.41-6.61-2.11
		c-32.52-10.43-61.82-26.68-87.82-48.81c-22.33-19.01-41.37-40.87-56.6-65.98c-13.87-22.88-23.74-47.4-29.86-73.44
		c-3.38-14.39-5.69-28.94-6.68-43.69c-0.44-6.6-0.72-13.21-0.94-19.82c-0.4-11.86,0.15-23.71,1.09-35.53
		c0.45-5.63,1.2-11.24,1.84-16.85c0.11-0.99,0.12-1.84-0.56-2.7c-5.17-6.57-8.71-14.03-11.75-21.75
		c-4.74-12.03-7.96-24.5-10.65-37.11c-3.46-16.19-5.91-32.55-7.85-48.98c-1.81-15.35-2.95-30.74-2.64-46.22
		c0.2-10.02,1.04-19.96,3.8-29.65c1.35-4.73,3.24-9.22,6.14-13.26c2-2.78,4.56-4.74,7.74-5.96c3.83-1.47,7.8-2.28,11.84-2.78
		c11.47-1.43,22.99-1.28,34.48-0.52c10.45,0.69,20.9,1.53,31.32,2.64c21.81,2.32,43.5,5.41,64.8,10.8c2.81,0.71,5.02,0.49,7.57-0.9
		c14.09-7.66,28.9-13.65,44.25-18.27c1.1-0.33,1.92-0.71,2.35-1.97c4.42-12.93,11.69-24.14,20.85-34.18
		c8.91-9.77,19.08-17.92,30.86-24c9.7-5.01,19.95-8.34,30.69-10.15c8.53-1.44,17.13-1.93,25.76-1.59
		c11.13,0.44,22.1,1.96,32.83,5.01c1.55,0.44,2.54,0.12,3.72-0.84c19.38-15.74,39.93-29.72,62.05-41.34
		c9.04-4.75,18.23-9.16,27.96-12.34c4.46-1.46,8.99-2.61,13.72-2.87c4.09-0.22,7.77,0.74,11.07,3.19c3.43,2.54,6.14,5.73,8.53,9.22
		c4.87,7.09,8.38,14.88,11.48,22.86c5.53,14.22,9.59,28.9,13.2,43.71c3.31,13.59,6.19,27.28,8.56,41.08
		c2.39,13.93,4.36,27.93,4.75,42.08c0.25,8.97,0.19,17.94-1.94,26.74c-0.29,1.2,0.31,1.76,1.04,2.43
		c8.34,7.56,16.21,15.58,23.53,24.12c20.54,23.95,35.89,50.84,45.74,80.84c3.96,12.07,6.97,24.37,9.07,36.9
		c0.09,0.54,0.2,1.08,0.34,1.62C637.82,340.51,637.96,340.67,638.08,340.88z"/>
	<g>
		<path class="st0" d="M81.97,351.62c0.35,0.22,0.61,0.33,0.79,0.51c3.21,3.2,7.22,5.26,11,7.64c4.02,2.54,8.49,3.93,13.17,4.65
			c1.21,0.18,2.49,0.18,3.7,0.01c1.93-0.26,3.01-1.52,2.81-3.43c-0.14-1.41-0.44-2.93-1.13-4.14c-1.8-3.17-3.75-6.26-5.83-9.26
			c-2.48-3.56-5.28-6.91-7.73-10.49c-8.01-11.65-14.08-24.32-19.29-37.42c-7.24-18.23-12.63-37.03-17.02-56.13
			c-2.81-12.23-5.15-24.55-6.9-36.97c-1.5-10.65-2.49-21.35-3.15-32.1c-0.42-6.84,1.51-13.05,4.01-19.21
			c2.35-5.79,6.91-8.2,12.84-8.91c7.7-0.92,15.41-0.99,23.13-0.59c6.88,0.35,13.76,0.82,20.63,1.41c7.21,0.63,14.41,1.41,21.6,2.23
			c7.26,0.83,14.51,1.75,21.75,2.72c20.02,2.71,40,5.6,59.59,10.7c5.95,1.55,11.75,3.49,17.35,6.05c2.24,1.03,4.65,1.7,7.01,2.45
			c0.7,0.22,1.5,0.26,2.25,0.21c2.08-0.13,2.83-1.58,1.62-3.25c-0.68-0.93-1.53-1.83-2.49-2.44c-3.14-1.99-6.25-4.07-9.58-5.7
			c-4.14-2.02-8.48-3.63-12.74-5.41c-0.63-0.26-1.27-0.48-1.94-0.73c2.25-2.42,28.19-13.69,33.25-14.44
			c-0.14,0.97-0.25,1.91-0.4,2.85c-1.53,9.48-1.48,18.96,0.03,28.42c0.51,3.19,1.3,6.34,2.1,9.47c0.25,0.96,0.86,1.89,1.53,2.64
			c0.91,1.03,2.22,0.76,2.54-0.57c0.32-1.31,0.45-2.74,0.33-4.08c-0.23-2.54-0.68-5.05-1.07-7.57c-3.05-20.17,1.53-38.57,13.41-55
			c13.64-18.86,31.11-33.08,52.96-41.54c10.57-4.1,21.58-6.04,32.94-6.19c14.8-0.2,29.27,1.72,43.39,6.19
			c17.35,5.49,32.74,14.46,46.42,26.39c14.01,12.21,25.69,26.34,34.5,42.75c7.54,14.04,12.45,28.95,14.91,44.69
			c1.47,9.43,2.16,18.91,1.9,28.44c-0.17,6.13-0.66,12.25-1.26,18.35c-0.21,2.08-1.12,4.11-1.83,6.12
			c-4.63,13.15-11.71,24.92-20.34,35.8c-6.9,8.69-14.65,16.49-23.81,22.82c-11.22,7.76-23.61,12.36-37.16,13.99
			c-15.75,1.9-30.1-1.89-43.29-10.44c-7.26-4.7-14.03-10.03-19.9-16.41c-1.63-1.77-3.07-3.72-4.49-5.67
			c-0.47-0.63-0.82-1.48-0.88-2.26c-0.52-6.86-0.24-13.65,2.01-20.23c1.31-3.81,3.21-7.3,6.1-10.44c1.81,0.57,3.64,1.12,5.46,1.72
			c4,1.31,7.93,2.83,11.52,5.06c1.52,0.94,2.98,2.01,4.33,3.16c1.92,1.64,3.24,3.72,3.93,6.19c0.37,1.32,0.85,2.62,1.38,3.89
			c0.29,0.69,0.73,1.33,1.18,1.93c0.76,1.01,1.8,1.52,3.08,1.23c1.24-0.28,1.81-1.24,2.01-2.38c0.15-0.87,0.23-1.79,0.15-2.67
			c-0.51-5.43-2.61-10.1-6.72-13.78c-4.28-3.84-9.3-6.4-14.63-8.39c-8.09-3.02-16.45-5.11-24.85-7.01
			c-7.73-1.75-15.51-3.27-23.26-4.93c-4.48-0.96-8.73-2.52-12.6-5.04c-0.85-0.56-1.83-0.98-2.81-1.25c-0.5-0.14-1.27,0.04-1.65,0.38
			c-0.22,0.2-0.1,1.11,0.16,1.49c0.86,1.23,1.74,2.5,2.84,3.52c3.92,3.64,8.62,5.97,13.73,7.36c9.11,2.47,18.27,4.74,27.41,7.1
			c0.33,0.08,0.65,0.19,1.14,0.34c-0.18,0.43-0.28,0.81-0.49,1.11c-5.96,8.67-8.34,18.4-8.22,28.76c0.19,17,6.61,31.56,18.11,43.86
			c8.13,8.7,18.46,13.56,30.09,15.76c8.13,1.54,16.32,1.51,24.53,1.02c9.53-0.57,18.91-2.08,28.04-4.93
			c24.13-7.51,41.93-22.69,53.9-44.82c5.92-10.94,9.69-22.66,12.1-34.83c2.15-10.85,3.14-21.81,3.43-32.86
			c0.34-12.87-0.41-25.64-3-38.26c-1.08-5.26-2.59-10.42-3.92-15.63c-0.2-0.78-0.44-1.54-0.78-2.7c0.98,0.49,1.58,0.77,2.16,1.09
			c21.82,11.87,41.66,26.42,59.58,43.62c18.76,18,34.49,38.3,46.65,61.31c10.41,19.7,17.7,40.51,22.18,62.31
			c2.64,12.85,4.41,25.82,5.02,38.93c0.34,7.43,0.64,14.88,0.55,22.32c-0.29,25.13-3.31,49.92-10.17,74.14
			c-1.07,3.79-3.08,7.36-4.9,10.9c-11.93,23.22-27.01,44.22-44.93,63.18c-22.21,23.5-47.46,43.04-76.23,57.94
			c-23.47,12.16-48.23,20.63-74.13,25.83c-12.45,2.5-25.01,4.27-37.66,5.22c-7.49,0.56-15.01,0.9-22.51,0.97
			c-8.47,0.08-16.95-0.1-25.42-0.44c-11.03-0.45-21.97-1.82-32.86-3.63c-14.99-2.48-29.68-6.14-44.07-11.02
			c-31.81-10.79-60.63-26.99-86.74-48.07c-23.43-18.91-44.09-40.44-61.21-65.27c-9.5-13.77-17.67-28.3-24.37-43.63
			c-1.28-2.93-1.83-6.2-2.52-9.36c-3.27-14.91-5.2-30.01-5.88-45.26c-0.51-11.31-0.33-22.61,0.46-33.89
			c0.39-5.57,1.07-11.12,1.64-16.67C81.6,352.6,81.81,352.17,81.97,351.62z M489.24,312.12c0.15,9.01,0.79,18.74,2.41,28.34
			c2.91,17.3,8.55,33.62,17.34,48.83c5.38,9.3,11.53,18,19.51,25.28c11.02,10.05,23.72,15.34,38.89,13.72
			c11.21-1.19,20.34-6.09,27.29-14.99c5.14-6.58,8.27-14.12,10.43-22.1c2.31-8.56,3.38-17.3,3.87-26.13
			c0.77-14.04,0.14-27.98-3.05-41.72c-5.49-23.63-16.66-44.15-34.15-61.03c-10.6-10.23-23.11-16.57-38.14-17.23
			c-6.84-0.3-13.11,1.27-18.84,5.01c-3.44,2.25-6.38,5.04-9.02,8.16c-5.8,6.83-9.77,14.65-12.41,23.18
			C490.2,291.61,489.22,302.08,489.24,312.12z M172.64,397.35c0.01,6.7,0.53,13.36,1.61,19.97c1.83,11.17,5.28,21.81,10.48,31.87
			c6.15,11.88,14.32,22.23,24.07,31.34c10.31,9.63,21.98,17.02,35.44,21.49c13.03,4.32,26.39,5.42,40.01,4.18
			c10.8-0.98,21.17-3.67,31.05-8.13c17.12-7.73,31.22-19.35,42.98-33.86c12.01-14.82,19.12-31.8,21.57-50.71
			c1.42-10.93,1.34-21.87-0.37-32.77c-1.63-10.36-4.79-20.23-9.6-29.56c-7.1-13.76-16.93-25.28-28.96-34.93
			c-16.19-12.99-34.72-20.06-55.38-21.55c-8.06-0.58-16.12-0.36-24.15,0.68c-11.09,1.44-21.71,4.48-31.76,9.41
			c-11.08,5.43-20.72,12.79-29.26,21.68c-8.35,8.69-15.04,18.48-19.77,29.58C174.98,369.23,172.64,383.07,172.64,397.35z
			 M95.33,171.78c0.64-1.45,1.2-2.49,1.56-3.58c0.45-1.39-0.27-2.19-1.7-1.85c-0.71,0.17-1.41,0.58-1.99,1.03
			c-3.04,2.37-5.02,5.43-5.88,9.22c-1.33,5.91-1.43,11.9-1.13,17.9c0.46,9.16,1.59,18.25,3.14,27.3
			c3.27,19.12,8.75,37.55,16.83,55.2c8.02,17.51,17.37,34.3,27.14,50.87c1.01,1.71,2.26,3.29,3.45,4.9c0.4,0.55,0.92,1.04,1.46,1.45
			c1.2,0.91,2.12,0.84,3.02-0.35c0.62-0.81,1.18-1.72,1.53-2.68c0.98-2.72,1.9-5.46,2.73-8.23c5.28-17.55,12.6-34.26,20.65-50.67
			c10.09-20.56,21.39-40.46,33.42-59.94c5.18-8.39,10.57-16.64,15.89-24.94c2.25-3.52,1.99-4.46-2.02-5.67
			c-2.9-0.87-5.84-1.68-8.82-2.17c-8.36-1.39-16.72-2.8-25.12-3.84c-9.3-1.15-18.64-2.01-27.97-2.8
			c-7.48-0.63-14.99-1.16-22.49-1.35c-9.09-0.24-18.19-0.1-27.28-0.08C99.69,171.49,97.63,171.67,95.33,171.78z M506.29,465.97
			c-0.09-2.94-0.15-7.56-0.38-12.17c-0.41-8.41-1.29-16.76-3.07-25c-0.93-4.32-2.03-8.6-4.33-12.44c-2.13-3.56-4.73-5.79-9.99-3.05
			c-8.39,4.36-17.06,8.11-26.12,10.83c-12.53,3.76-25.17,7.17-37.97,9.9c-3.94,0.84-5.17,2.23-5.65,6.24
			c-0.41,3.39-0.08,6.75,0.27,10.1c0.92,8.78,2.66,17.43,4.83,25.98c4.41,17.34,10.18,34.2,18.22,50.22
			c3.6,7.17,7.72,14.01,13.16,19.97c3.67,4.01,7.75,7.49,12.96,9.32c7.83,2.75,14.86,1.24,20.35-4.82c2.1-2.32,3.79-4.91,5.2-7.68
			c3.99-7.81,6.2-16.2,7.83-24.74C504.81,501.8,506.12,484.78,506.29,465.97z M316.24,611.64c2.38-0.21,6.87-0.38,11.29-1.01
			c14.47-2.07,28.43-6.06,41.86-11.82c8.99-3.86,17.43-8.62,24.62-15.36c3.3-3.1,6.13-6.56,7.57-10.95
			c1.78-5.47,0.98-10.35-3.48-14.31c-0.93-0.82-1.89-1.61-2.9-2.32c-3.12-2.21-6.61-3.7-10.14-5.09
			c-11.61-4.59-23.54-8.25-35.46-11.93c-11.54-3.56-22.99-7.32-33.57-13.31c-0.82-0.46-1.79-0.75-2.72-0.9
			c-0.52-0.08-1.25,0.15-1.64,0.51c-0.62,0.56-0.3,1.36,0.18,1.86c0.96,0.98,1.94,1.98,3.07,2.73c8.37,5.53,17.21,10.19,26.66,13.58
			c13.88,4.98,27.85,9.72,41.72,14.72c2.88,1.04,5.57,2.7,8.23,4.26c1.09,0.64,2.04,1.67,2.77,2.72c1.28,1.83,0.88,3.05-1.06,4.11
			c-8.18,4.48-16.71,8.18-25.56,11.12c-14.86,4.93-30.11,7.9-45.74,8.85c-8.22,0.5-16.41,0.23-24.5-1.39
			c-3.17-0.63-6.28-1.55-9.44-2.3c-2.78-0.66-5.56-0.93-8.37-0.06c-3.89,1.2-6.88,7.06-4.07,10.81c2.05,2.74,4.04,5.57,7.22,7.22
			c2.32,1.2,4.54,2.63,6.93,3.69C297.48,610.51,305.72,611.58,316.24,611.64z"/>
		<path class="st1" d="M619.92,476.5c-0.68,2.07-1.32,4.16-2.04,6.22c-11.43,32.75-28.81,61.9-52.6,87.19
			c-20.19,21.47-43.5,38.75-69.73,52.14c-24.22,12.36-49.72,21.02-76.32,26.54c-11.82,2.45-23.74,4.21-35.76,5.38
			c-14.98,1.47-30,1.98-45.03,1.47c-25.83-0.88-51.14-5.03-75.79-12.89c-22.77-7.27-44.34-17.14-64.45-30.11
			c-14.42-9.3-27.76-19.95-40.04-31.95c-19.38-18.95-35.46-40.37-48.18-64.31c-8.21-15.45-14.76-31.58-19.77-48.34
			c-0.19-0.63-0.31-1.27-0.2-2.01c0.18,0.28,0.39,0.55,0.53,0.84c12.4,25.75,28.62,48.85,48.15,69.67
			c17.01,18.14,35.71,34.27,56.45,48.02c30.23,20.05,63.11,33.76,98.67,40.99c16.18,3.29,32.52,5.16,49.01,5.86
			c13.18,0.55,26.33,0.32,39.47-0.62c24.43-1.73,48.39-6.03,71.76-13.47c36.31-11.55,68.79-29.92,97.6-54.82
			c19.73-17.05,36.99-36.3,51.54-57.96c5.39-8.02,10.33-16.31,14.81-24.87c0.54-1.03,1.12-2.05,1.67-3.07
			C619.76,476.44,619.84,476.47,619.92,476.5z"/>
		<path class="st0" d="M551.54,190.04c-0.7-0.5-1.14-0.8-1.57-1.13c-5.57-4.3-11.11-8.62-16.71-12.88
			c-0.98-0.74-1.36-1.42-1.23-2.72c0.87-8.45,0.92-16.93,0.36-25.4c-1.57-23.87-6.66-47.03-14.19-69.68
			c-3.9-11.73-8.72-23.07-14.59-33.96c-0.26-0.48-0.48-0.98-0.74-1.53c2.69-2.07,6.46-2.53,8.59-5.87
			c-3.41-0.38-6.42-0.89-9.51,0.57c-4.53,2.13-8.72,4.74-12.65,7.79c-15.93,12.36-28.96,27.28-39.43,44.48
			c-0.42,0.7-0.86,1.38-1.4,2.23c-12.86-11.01-26.95-19.65-42.89-25.62c0.59-0.54,1.01-0.98,1.48-1.35
			c20.78-16.44,42.88-30.8,66.76-42.33c6.89-3.33,13.86-6.48,21.28-8.48c2.05-0.55,4.18-0.84,6.29-1.18
			c2.95-0.47,5.59,0.34,7.99,2.07c3.25,2.34,5.7,5.39,7.84,8.71c4.06,6.28,7.04,13.1,9.7,20.07c5.35,14.06,9.28,28.56,12.81,43.16
			c3.68,15.2,6.89,30.51,9.38,45.95c2.22,13.82,3.89,27.71,3.8,41.75C552.86,179.71,552.53,184.73,551.54,190.04z"/>
		<path class="st2" d="M523.5,169.22c-0.79-0.48-1.44-0.85-2.07-1.25c-8.82-5.68-17.94-10.83-27.33-15.5
			c-0.85-0.42-1.42-0.94-1.81-1.84c-7.44-17.29-17.91-32.57-30.82-46.22c-2.13-2.25-4.41-4.35-6.55-6.45
			c3.74-10.99,33.62-46.72,43.36-51.89c0.87,1.95,1.75,3.89,2.6,5.84c9.4,21.5,16.15,43.81,20.51,66.84
			c2.18,11.53,3.6,23.16,3.41,34.92c-0.07,4.54-0.55,9.07-0.88,13.61C523.88,167.88,523.67,168.46,523.5,169.22z"/>
		<path class="st0" d="M328.98,697.47c-2.91,0.56-5.25,1.05-7.61,1.45c-12.31,2.09-24.68,3.63-37.12,4.71
			c-11.34,0.99-22.69,1.71-34.07,1.57c-8.56-0.1-17.08-0.63-25.47-2.52c-3.44-0.77-6.83-1.76-9.91-3.5
			c-1.67-0.94-3.26-2.07-4.71-3.32c-2.05-1.77-2.4-4.1-1.6-6.61c0.73-2.29,2.2-4.12,3.84-5.81c4.36-4.51,9.59-7.86,14.93-11.04
			c11.45-6.82,23.73-11.67,36.48-15.38c1.14-0.33,2.46-0.25,3.66-0.11c10.23,1.18,19.65,4.73,28.48,9.93
			c8.19,4.82,15.53,10.76,22.36,17.32c2.68,2.57,5.15,5.37,7.55,8.21C326.97,693.77,327.76,695.48,328.98,697.47z"/>
		<path class="st0" d="M500.67,679.97c0.27-1.2,0.47-2.34,0.78-3.44c1.69-6.01,5.02-11.04,9.63-15.15
			c7.65-6.83,16.41-11.55,26.57-13.5c5.24-1.01,10.41-0.82,15.53,0.73c1.78,0.54,3.58,1.07,5.41,1.36c2.68,0.41,4.9,1.67,7.06,3.2
			c9.86,7.02,18.34,15.44,25.34,25.3c1.86,2.62,3.23,5.59,4.78,8.43c0.36,0.65,0.49,1.43,0.74,2.14c1.8,5.05-0.69,6.72-5.44,7.84
			c-5.66,1.34-11.37,0.65-17.07,0.17c-3.84-0.32-7.72-0.37-11.54-0.84c-8.62-1.05-17.1-2.9-25.54-4.96
			c-11.59-2.82-22.96-6.36-34.16-10.46C502.12,680.57,501.49,680.3,500.67,679.97z"/>
		<path class="st1" d="M449.68,649.25c2.23-0.72,4.18-1.35,6.14-1.98c15.2-4.85,29.87-10.99,43.99-18.43
			c1.25-0.66,2.43-0.75,3.77-0.57c14.9,2.08,28.89,6.98,42.29,13.67c3.39,1.69,6.73,3.48,10.09,5.24c0.58,0.31,1.13,0.68,1.56,1.38
			c-1.39-0.32-2.8-0.56-4.16-0.98c-7.19-2.25-14.34-1.64-21.36,0.59c-9.21,2.93-17.37,7.7-24.02,14.81
			c-4.09,4.37-6.84,9.47-8.06,15.37c-0.07,0.33-0.21,0.64-0.36,1.12c-0.42-0.12-0.8-0.19-1.16-0.33
			c-7.89-3.09-15.78-6.22-23.33-10.09c-7.58-3.89-14.64-8.55-20.84-14.44C452.58,653.07,450.94,651.5,449.68,649.25z"/>
		<path class="st1" d="M493.53,244.53c-0.46,2.21-0.89,4.43-1.4,6.64c-3.84,16.61-10.55,31.88-21.12,45.36
			c-12.92,16.48-29.75,26.56-50.21,30.75c-8.55,1.75-17.2,2.43-25.91,2.14c-17.62-0.59-31.55-7.97-41.32-22.8
			c-4.48-6.79-7.75-14.12-9.47-22.1c-0.07-0.33-0.11-0.66,0.12-1.2c0.44,0.53,0.87,1.07,1.33,1.58
			c11.24,12.52,24.27,22.42,40.5,27.62c7.81,2.5,15.83,2.93,23.93,2.24c9.63-0.82,18.85-3.24,27.6-7.39
			c9.19-4.36,17.36-10.18,24.58-17.3c13.07-12.87,23.44-27.6,30.38-44.65c0.15-0.36,0.33-0.71,0.5-1.06
			C493.21,244.42,493.37,244.47,493.53,244.53z"/>
		<path class="st1" d="M329.79,697.4c-1.38-3.9-3.71-6.8-6.3-9.49c-8.89-9.24-18.61-17.44-29.93-23.59
			c-7.32-3.98-15.05-6.82-23.32-8.06c-0.53-0.08-1.06-0.25-1.95-0.46c2.54-0.91,4.63-1.39,7.07-0.81c12.42,2.95,25,4.98,37.7,6.18
			c7.82,0.73,15.67,1.22,23.51,1.51c7.57,0.28,15.16,0.29,22.74,0.16c6.4-0.12,12.8-0.57,19.2-0.98c1.22-0.08,1.89,0.25,2.5,1.26
			c3.05,5.02,2.5,10.74-1.5,15.07c-2.33,2.52-5.14,4.37-8.18,5.89c-9.16,4.6-18.84,7.77-28.74,10.31
			C338.41,695.45,334.18,696.36,329.79,697.4z"/>
		<path class="st1" d="M51.47,178.51c0.6,6.1,1.04,12.23,1.85,18.3c1.28,9.56,2.59,19.12,4.31,28.61
			c3.39,18.66,7.98,37.03,13.83,55.08c5.47,16.89,12.03,33.31,20.98,48.7c3.58,6.15,7.7,11.91,12.03,17.56
			c2.42,3.16,4.5,6.59,6.61,9.98c0.64,1.03,1.02,2.27,1.3,3.46c0.43,1.84-0.31,2.93-2.21,3.21c-1.06,0.16-2.2,0.07-3.27-0.08
			c-5.48-0.8-10.49-2.8-15.02-6c-0.76-0.54-1.21-1.18-1.55-2.07c-0.61-1.6-1.38-3.16-2.27-4.63c-1.53-2.54-3.07-5.08-4.82-7.47
			c-6.41-8.79-10.73-18.59-14.19-28.82c-4.42-13.08-7.55-26.5-9.87-40.09c-1.85-10.86-3.49-21.77-4.9-32.7
			c-1.53-11.82-2.76-23.69-3.08-35.62c-0.21-7.71-0.15-15.43-0.17-23.15c0-1.44,0.22-2.88,0.34-4.32
			C51.41,178.48,51.44,178.5,51.47,178.51z"/>
		<path class="st1" d="M672.58,348.77c0.39,3.48-0.23,6.72-1.01,9.93c-3.64,14.9-9.57,28.85-17.41,42.01
			c-3.88,6.52-8.11,12.8-12.64,18.88c-0.4,0.54-0.84,1.06-1.59,2.02c0-0.96-0.04-1.46,0.01-1.95c1.07-10.84,1.52-21.7,1.48-32.59
			c0-1.19,0.46-1.86,1.36-2.53c8.79-6.56,16.48-14.22,22.57-23.37c2.39-3.6,4.37-7.48,6.53-11.24
			C672.1,349.54,672.34,349.15,672.58,348.77z"/>
		<path class="st0" d="M639.57,351.24c0.48-0.22,1.08-0.55,1.72-0.77c4.74-1.67,9.48-3.35,14.25-4.94c1.16-0.39,2.42-0.58,3.64-0.67
			c3.57-0.26,7.15-0.44,10.73-0.61c2.55-0.12,3.07,0.71,1.99,3.11c-5.57,12.34-13.68,22.75-23.88,31.58
			c-1.56,1.35-3.19,2.64-4.8,3.93c-0.46,0.37-0.99,0.66-1.52,1.01C640.98,372.96,640.28,362.19,639.57,351.24z"/>
		<path class="st3" d="M553.71,267.48c-2.01-0.24-3.9-0.66-5.8-0.67c-6.09-0.02-10.35,2.97-12.82,8.43c-2.03,4.49-2.21,9.28-1.14,14
			c2.13,9.34,6.94,16.92,15.44,21.75c3.54,2.01,7.38,3.04,11.53,2.31c5.12-0.89,8.66-3.8,10.58-8.57c2-4.97,1.99-10.11,0.64-15.23
			c-0.62-2.38-1.59-4.66-2.54-7.4c0.67,0.79,1.13,1.28,1.53,1.82c8.98,12.1,14.84,25.58,17.83,40.33
			c1.65,8.14,2.38,16.37,2.32,24.66c-0.08,10.69-1.56,21.16-5.64,31.14c-1.78,4.36-3.91,8.52-7.06,12.08
			c-3.13,3.53-6.89,5.97-11.7,6.33c-4.25,0.32-8.38-0.4-12.38-1.87c-6.83-2.51-12.43-6.81-17.3-12.09
			c-9.13-9.92-15.66-21.46-20.62-33.92c-4.02-10.11-6.49-20.61-7.59-31.44c-0.77-7.56-1.07-15.13-0.33-22.71
			c0.94-9.59,3.36-18.73,8.86-26.8c1.31-1.92,2.9-3.69,4.59-5.29c2.77-2.62,6.18-3.81,10.02-3.67c7.38,0.27,14.26,2.25,20.6,6.05
			C553.07,266.92,553.36,267.2,553.71,267.48z"/>
		<path class="st4" d="M596.87,323.67c0.69,3.96,1.47,7.9,2.04,11.88c1.58,11.04,1.54,22.13,0.77,33.22
			c-0.65,9.23-1.93,18.37-4.86,27.2c-1.79,5.4-4.13,10.53-7.66,15.03c-7.07,9.01-16.49,12.53-27.7,11.68
			c-8.72-0.67-16.11-4.49-22.74-9.96c-7.54-6.21-13.41-13.85-18.56-22.07c-9.88-15.74-16.03-32.89-19.07-51.19
			c-1.7-10.23-2.42-20.53-2.23-30.89c0.2-11.03,1.74-21.84,5.99-32.12c2.9-7.03,6.89-13.35,12.51-18.54
			c4.52-4.17,9.78-6.74,16.02-6.7c6.35,0.04,12.44,1.41,18.21,4.11c3.38,1.58,6.58,3.44,9.4,6c-0.38-0.16-0.78-0.27-1.12-0.48
			c-8-4.95-16.74-7.36-26.1-7.54c-5.64-0.11-10.52,1.95-14.65,5.74c-5.14,4.7-8.66,10.51-11.22,16.92
			c-2.74,6.84-4.15,13.99-4.65,21.32c-1.09,16.12,0.64,31.95,5.44,47.38c5.25,16.89,13.6,32.08,25.6,45.14
			c5.96,6.49,12.93,11.59,21.45,14.28c4.78,1.51,9.68,2.23,14.69,1.63c7.23-0.85,12.68-4.74,16.98-10.39
			c4.96-6.51,8.08-13.92,10.18-21.78c2.02-7.56,2.9-15.28,3-23.1c0.11-8.71-0.44-17.36-2.05-25.92c-0.05-0.26-0.01-0.53-0.01-0.8
			C596.61,323.71,596.74,323.69,596.87,323.67z"/>
		<path class="st4" d="M572.02,295.52c-0.04,3.47-0.42,6.12-1.42,8.65c-2.44,6.15-8.58,9.38-15.06,7.98
			c-5.19-1.12-9.41-3.9-12.81-7.85c-4.45-5.16-7.45-11.05-8.2-17.95c-0.3-2.78-0.06-5.51,0.65-8.19c2.22-8.41,9.78-12.37,17.98-9.44
			c4.32,1.55,7.87,4.21,10.85,7.66C568.95,282.1,571.81,288.66,572.02,295.52z"/>
		<path class="st4" d="M276.79,301.64c24.72,0.05,46.32,8.19,64.57,24.95c9.07,8.32,16.74,17.75,22.29,28.79
			c5.3,10.53,8.39,21.68,9.38,33.42c1.17,14.04-0.05,27.82-4.43,41.24c-4.62,14.14-12.34,26.41-22.66,37.09
			c-8.01,8.29-16.92,15.39-27.1,20.86c-14.72,7.92-30.44,11.51-47.14,11.11c-22.85-0.55-42.09-9.33-58.25-25.28
			c-11.1-10.96-19.63-23.6-25.01-38.3c-4.9-13.38-6.78-27.23-6.44-41.43c0.27-11.03,2.01-21.8,5.74-32.21
			c4.32-12.06,10.99-22.65,19.86-31.88c10.07-10.47,21.89-18.22,35.65-22.95c8.52-2.93,17.3-4.57,26.3-5.07
			C271.97,301.85,274.38,301.76,276.79,301.64z M200.81,393.36c0,0.97-0.02,1.93,0.01,2.9c0.02,0.83,0.11,1.65,0.15,2.48
			c0.53,10.18,2.99,19.85,7.53,29c4.46,9.01,10.57,16.78,17.78,23.71c8.29,7.97,17.64,14.32,28.47,18.38
			c9.48,3.55,19.28,5.03,29.39,4.86c10.49-0.17,20.51-2.3,30.05-6.66c10.06-4.59,18.61-11.24,26.13-19.28
			c8.2-8.76,14.6-18.65,18.76-29.94c3.96-10.74,5.54-21.87,5.31-33.29c-0.19-9.54-1.78-18.82-5.5-27.61
			c-8.82-20.86-23.96-35.61-44.42-44.92c-11.61-5.28-23.95-7.16-36.67-6.91c-9.65,0.19-18.94,1.98-27.67,6.05
			c-19.17,8.95-32.86,23.38-41.54,42.58C203.04,366.98,201.03,380.01,200.81,393.36z"/>
		<path class="st2" d="M91.98,179.64c2.14-0.18,4.11-0.41,6.08-0.5c12-0.6,23.98-0.34,35.95,0.69c10.64,0.92,21.28,1.86,31.9,3.04
			c11.51,1.28,22.95,3.08,34.23,5.75c0.73,0.17,1.45,0.39,2.46,0.67c-0.37,0.69-0.65,1.27-1,1.82
			c-9.96,15.73-19.21,31.88-27.96,48.32c-9.23,17.35-17.99,34.92-25.41,53.13c-3.59,8.81-6.83,17.75-9.56,26.86
			c-0.14,0.45-0.32,0.89-0.55,1.53c-0.32-0.38-0.56-0.59-0.71-0.85c-9.53-16.63-18.82-33.39-26.53-50.96
			c-6.4-14.57-10.9-29.74-14.1-45.31c-1.89-9.18-3.44-18.43-4.39-27.76C91.86,190.71,91.59,185.35,91.98,179.64z"/>
		<path class="st5" d="M425.78,448.74c3.56-1.12,6.96-1.48,10.41-1.42c7.39,0.13,14.32,2.19,20.68,5.82
			c14.92,8.51,26.89,20.08,35.31,35.13c2.61,4.66,4.44,9.67,4.94,15.02c0.22,2.36-0.14,4.8-0.46,7.18
			c-1.2,8.83-3.03,17.51-6.56,25.75c-1.47,3.44-3.2,6.72-5.87,9.42c-4.1,4.16-8.98,5.1-14.39,2.81c-4.04-1.71-7.2-4.54-10.08-7.75
			c-4.87-5.42-8.66-11.58-12-18.02c-6.99-13.47-11.71-27.77-15.66-42.36c-2.31-8.51-4.34-17.09-5.63-25.83
			C426.2,452.66,426.03,450.81,425.78,448.74z"/>
		<path class="st6" d="M425.96,442.93c-0.43-1.4,0.27-1.64,1.2-1.83c3.91-0.81,7.82-1.63,11.72-2.51c7.06-1.58,14.15-3,21.14-4.85
			c9.37-2.47,18.12-6.54,26.7-10.99c1.58-0.82,3.17-1.63,5-2.57c0.45,1.19,1,2.23,1.24,3.34c1.02,4.78,2.15,9.54,2.87,14.37
			c1.71,11.53,2.52,23.14,2.61,34.8c0.02,3.17,0.11,6.34,0.14,9.51c0.01,0.67-0.06,1.33-0.12,2.39c-0.39-0.51-0.58-0.67-0.67-0.87
			c-4.31-9.9-11.11-17.85-19.42-24.58c-6.94-5.62-14.37-10.46-22.74-13.74c-7.64-3-15.52-4.25-23.7-3.41
			C429.95,442.19,428,442.6,425.96,442.93z"/>
		<path class="st1" d="M394.75,569.66c-0.7,2.85-2.04,4.83-3.63,6.67c-2.63,3.05-5.77,5.52-9.09,7.77
			c-12.06,8.18-25.32,13.62-39.39,17.18c-9.24,2.34-18.6,3.94-28.12,4.44c-6.84,0.36-13.63,0.01-20.29-1.84
			c-3.48-0.97-6.71-2.46-9.75-4.41c-1.9-1.21-3.73-2.63-6.22-2.47c-0.42,0.03-0.97-0.46-1.31-0.84c-2.73-3.05-1.11-8.32,3-9.79
			c2.21-0.79,4.5-0.66,6.74-0.18c2.42,0.51,4.79,1.27,7.2,1.83c8.31,1.94,16.73,2.46,25.24,2.17c13.57-0.47,26.84-2.71,39.92-6.25
			c11.81-3.2,23.13-7.66,33.91-13.47C393.42,570.23,393.92,570.04,394.75,569.66z"/>
		<path class="st3" d="M208.45,394.99c0.04-14.66,2.3-27.41,8.07-39.36c7.55-15.63,18.88-27.74,34.41-35.67
			c10.18-5.19,21.08-7,32.47-6.49c9.75,0.44,19.19,2.24,28.06,6.32c19.53,8.98,33.69,23.19,41.36,43.46
			c3.31,8.76,4.43,17.92,4.02,27.24c-1.3,29.39-14.91,51.69-39.45,67.41c-9.59,6.14-20.35,8.94-31.75,9.4
			c-11.94,0.48-23.32-1.66-34.1-6.83c-6.64-3.19-12.59-7.39-18.03-12.34c-7.05-6.41-13.06-13.65-17.47-22.12
			C210.72,415.84,208.2,405.01,208.45,394.99z M302.59,383.63c15.99,0.61,31.85-12.76,31.81-31.67
			c-0.04-17.64-14.06-31.65-31.68-31.66c-17.58-0.01-31.54,14.06-31.58,31.74C271.11,370.15,286.25,384.17,302.59,383.63z"/>
		<path class="st4" d="M333.33,352.24c0.04,17.06-14.38,31.06-31.84,30.45c-16.67-0.58-29.81-15.12-29.31-31.74
			c0.46-15.37,13.71-30.32,31.84-29.61C318.99,321.92,333.56,334.55,333.33,352.24z"/>
	</g>
</g>
</svg>
