<?xml version="1.0" encoding="utf-8"?>
<!-- Generator: Adobe Illustrator 24.3.0, SVG Export Plug-In . SVG Version: 6.00 Build 0)  -->
<svg version="1.1" id="Layer_1" xmlns="http://www.w3.org/2000/svg" xmlns:xlink="http://www.w3.org/1999/xlink" x="0px" y="0px"
	 viewBox="0 0 720 720" style="enable-background:new 0 0 720 720;" xml:space="preserve">
<style type="text/css">
	.st0{fill-rule:evenodd;clip-rule:evenodd;fill:#211714;}
	.st1{fill-rule:evenodd;clip-rule:evenodd;fill:#FCDFE2;}
	.st2{fill-rule:evenodd;clip-rule:evenodd;fill:#E6A9CC;}
	.st3{fill-rule:evenodd;clip-rule:evenodd;fill:#E6A8CC;}
	.st4{fill-rule:evenodd;clip-rule:evenodd;fill:#FCDEE1;}
	.st5{fill-rule:evenodd;clip-rule:evenodd;fill:#F1EFEE;}
	.st6{fill-rule:evenodd;clip-rule:evenodd;fill:#3D1E1C;}
	.st7{fill-rule:evenodd;clip-rule:evenodd;fill:#231815;}
	.st8{fill-rule:evenodd;clip-rule:evenodd;fill:#241816;}
	.st9{fill-rule:evenodd;clip-rule:evenodd;fill:#211815;}
	.st10{fill-rule:evenodd;clip-rule:evenodd;fill:#E69A9B;}
	.st11{fill-rule:evenodd;clip-rule:evenodd;fill:#6C3D4A;}
	.st12{fill-rule:evenodd;clip-rule:evenodd;fill:#529F8E;}
	.st13{fill-rule:evenodd;clip-rule:evenodd;fill:#8CC4B9;}
	.st14{fill-rule:evenodd;clip-rule:evenodd;fill:#EFEDED;}
	.st15{fill-rule:evenodd;clip-rule:evenodd;fill:#51A08F;}
</style>
<g>
	<path class="st0" d="M531.84,571.73c14.26,6.3,27.65,13.68,40.26,22.36c13.51,9.31,26.04,19.77,35.99,33
		c5.47,7.27,10.31,14.87,11.68,24.12c0.52,3.52,0.95,7.06,0.51,10.65c-0.67,5.47-3.8,8.83-8.92,10.38
		c-7.03,2.13-14.24,1.83-21.47,1.37c-34.94-2.21-66.06-15.92-96.42-31.89c-14-7.36-26.7-16.6-38.31-27.32
		c-1.05-0.97-1.83-1.16-3.18-0.66c-33.56,12.34-68.35,17.06-103.93,16.1c-26.88-0.73-53.17-5.55-78.94-13.21
		c-1.69-0.5-2.89-0.32-4.25,0.77c-19.79,15.81-41.92,27.55-65.38,36.78c-20.47,8.05-41.7,13.22-63.7,14.78
		c-7.57,0.53-15.13,0.18-22.57-1.43c-8.71-1.89-12.97-8.8-11.23-17.52c2.34-11.72,9.49-20.49,17.25-28.92
		c4.62-5.02,10.07-9.08,15.73-12.84c17.94-11.91,36.79-22.03,57.26-28.93c0.39-0.13,0.75-0.36,1.27-0.62
		c-5.82-4.25-11.77-8.06-17.13-12.58c-30.05-25.29-55.03-54.6-72.43-90.18c-12.1-24.74-20.27-50.62-24.28-77.72
		c-3.48-23.48-3.7-47.11-0.47-70.72c3-21.98,9.03-43.12,16.8-63.82c0.59-1.58,0.56-2.86-0.11-4.44
		c-10.73-25.13-18.16-51.15-21.31-78.35c-2.86-24.61-3.3-49.27-1.36-73.95c0.78-9.89,2.77-19.59,5.14-29.22
		c0.7-2.87,2.28-4.43,5.37-4.72c9.05-0.86,18.09-0.16,27.11,0.27c19.74,0.94,39.35,3.31,58.36,8.89
		c22.66,6.64,45.13,13.9,66.05,25.15c1.31,0.71,1.82,0.47,2.59-0.72c20.01-30.82,48.28-49.84,83.85-58.2
		c16.02-3.76,32.1-2.65,48.16,0.15c22.57,3.94,41.49,14.49,56.88,31.34c5.77,6.31,10.16,13.65,13.84,21.37
		c0.66,1.38,1.47,2.05,3.02,2.37c8.72,1.79,17.01,4.89,24.92,8.93c1.79,0.91,3.02,0.71,4.73-0.24
		c14.76-8.24,30.33-14.56,46.39-19.76c17.36-5.62,34.8-10.85,52.93-13.45c20.81-2.98,41.73-3.73,62.71-2.74
		c5.4,0.25,6.18,1.29,7.29,6.6c3.84,18.29,5.24,36.87,5.45,55.45c0.43,37.24-6.03,73.3-20.5,107.77c-2.02,4.81-4.35,9.47-6.98,13.97
		c-1.12,1.91-1.18,3.45-0.36,5.51c13.6,34.16,19.7,69.73,17.9,106.37c-3.08,62.61-26.12,117.22-67.74,164.08
		c-11.08,12.47-23.48,23.46-36.39,33.94C533.31,570.51,532.72,571.01,531.84,571.73z"/>
	<path class="st1" d="M423.72,181.58c0.16-6.77,0.55-13.54-0.36-20.28c-0.11-0.83,0.26-2.3-1.21-2.05
		c-1.15,0.19-0.51,1.44-0.51,2.23c0.01,1.13,0.1,2.25,0.15,3.38c1.54,8.77-2.76,15.43-7.97,21.7c-5.18,6.23-12.36,9.49-19.58,12.51
		c-10.26,4.29-20.66,8.23-30.56,13.36c-13.65,7.07-25.23,16.51-34.58,28.74c-5.55,7.27-11.71,14.04-18.93,19.68
		c-7.4,5.79-16.04,8.86-25.22,10.63c-11.76,2.27-23.22,0.91-34.41-2.8c-7.78-2.59-14.39-7.13-19.78-13.49
		c-2.76-3.25-5.43-6.53-7.82-10.07c-2.46-3.64-4.18-7.56-5.26-11.78c-2.13-7.02-2.91-14.29-3.52-21.54
		c-2.12-25.29,0.64-50.07,9.81-73.79c10.45-27.04,26.08-50.49,50.52-67.02c16.64-11.26,34.7-19.36,54.83-22.15
		c11.99-1.66,23.91-0.89,35.85,0.75c22.89,3.16,42.5,12.85,58.34,29.57c10.81,11.41,18.03,25.03,21.67,40.42
		c0.08,0.34,0.08,0.7,0.2,1.02c0.24,0.61,0.34,1.54,1.29,1.25c0.89-0.27,0.67-1.14,0.5-1.79c-0.84-3.19-1.67-6.38-2.62-9.53
		c-0.5-1.65-1.25-3.22-1.92-4.92c1.64-0.21,3.02,0.38,4.42,0.75c7.75,2.05,15.18,4.95,22.24,8.74c0.94,0.5,1.66,0.7,2.63,0.12
		c18.96-11.27,39.68-18.19,60.54-24.89c32.44-10.42,65.75-13.59,99.6-12.32c9.42,0.36,7.59,0.24,9.12,7.73
		c2.48,12.12,3.41,24.42,4.31,36.73c2.15,29.48-0.54,58.53-7.74,87.14c-4.57,18.14-10.61,35.79-20.17,52.02
		c-0.6,1.02-0.35,1.78,0.01,2.66c9.39,22.54,14.77,46.08,17.44,70.29c0.11,1.04,0.09,2.08,0.13,3.12
		c-0.18,15.98-2.59,31.61-7.15,46.94c-4.28,14.4-9.98,28.19-17.45,41.2c-6.03,10.49-13.15,20.25-20.6,29.79
		c-7.46,9.55-15.86,18.23-24.6,26.56c-6.85,6.52-13.54,13.25-21,19.11c-1.23,0.97-2.21,2.19-3.03,3.56
		c-7.18,11.9-15.6,22.86-26.01,32.09c-10.88,9.64-22.53,18.29-35.25,25.42c-0.83,0.47-1.67,0.92-2.42,1.54
		c-4.4,1.75-8.88,2.97-13.7,2.25c-3.96-0.6-6.36-3.01-7.66-6.62c-0.77-2.13-1.23-4.36-1.34-6.63c-0.75-15.09,1.07-29.83,5.94-44.19
		c2.26-6.69,4.78-13.24,7.79-19.63c-1.99,3.81-3.91,7.65-5.43,11.68c-4.89,12.93-8.13,26.24-8.87,40.08
		c-0.22,3.98-0.37,7.99,0.28,11.98c0.2,1.21,0.25,2.42-0.24,3.6c-4.38,4.58-9.66,7.91-15.22,10.82
		c-16.93,8.86-35.01,13.75-53.94,16.03c-18.62,2.25-37.3,2.56-55.96,1.89c-20.81-0.75-41.3-4.19-61.3-10.23
		c-11.69-3.53-23.07-7.75-33.58-14.07c-5-3-9.68-6.48-14.39-9.91c-0.64-0.46-1.2-1-1.6-1.69c-0.65-1.59-0.51-3.26-0.37-4.89
		c1.15-13.2-0.49-26.16-3.35-39.02c-0.58-2.62-1.15-5.25-2.19-7.75c1.61,6.17,3.02,12.39,3.96,18.7c1.76,11.82,1.9,23.7,0.72,35.58
		c-0.33,3.28-1.23,6.48-2.59,9.53c-1.51,3.36-4.05,5-7.77,5.1c-6.82,0.19-12.72-2.49-18.39-5.8c-16.73-9.77-30.01-23.21-41.16-38.9
		c-0.77-1.08-1.27-2.54-2.94-2.65c-1.01-0.04-1.77-0.64-2.59-1.13c-8.4-5.01-16.05-10.92-22.35-18.47
		c-5.8-8.39-10.15-17.57-14.71-26.65c-12.41-24.69-19.96-50.92-23.63-78.18c-5.33-39.58-1.27-78.37,11.6-116.2
		c1.73-5.09,3.57-10.15,5.46-15.19c0.49-1.31,0.52-2.36-0.05-3.69c-10.72-24.57-18.07-50.08-21.41-76.72
		c-3.05-24.33-3.51-48.72-1.87-73.16c0.71-10.51,2.8-20.81,5.13-31.07c0.66-2.91,2.33-3.98,5.12-4.04
		c13.06-0.28,26.07,0.32,39.09,1.32c32.44,2.5,62.84,12.69,92.8,24.51c5.9,2.33,11.47,5.37,17.16,8.17c1.69,0.83,1.55,1.56,0.74,2.9
		c-10.34,16.95-17.29,35.24-20.51,54.8c-5.88,35.73-2.13,70.29,13.69,103.19c0.94,1.95,2.09,3.81,3.24,5.65
		c1.14,1.82,2.39,3.57,3.4,5.63c-1.56-1-3.1-2.02-4.67-2.98c-22.21-13.52-45.41-14.24-68.89-4.25
		c-18.13,7.72-31.93,20.51-40.02,38.82c-12.09,27.34-4.22,61.57,17.64,82.51c16.32,15.63,35.85,23.25,58.36,21.34
		c24.59-2.08,43.54-14.41,56.27-35.38c14.37-23.67,15.09-48.39,3.37-73.46c-0.33-0.71-0.68-1.4-0.99-2.12
		c-0.05-0.11,0.07-0.3,0.19-0.75c4.28,3.96,8.86,7.33,13.42,10.72c2.95,3.33,5.04,7.25,7.58,10.87
		c11.9,16.93,28.5,26.18,48.65,28.99c17.09,2.39,33.55-0.56,49.15-8.02c1.26-0.6,2.4-1.39,3.57-2.14c1.49-0.96,2.6-0.82,3.18,1.02
		c1.37,4.94,1.83,10.07,3.54,14.95c4.31,12.27,10.92,22.97,20.48,31.91c10.99,10.28,23.75,16.85,38.52,19.48
		c15.33,2.73,30.07,0.74,44.21-5.83c22.64-10.53,34.68-29.04,38.43-52.93c3.03-19.29-0.32-37.91-11.12-54.51
		c-12.53-19.26-30.2-30.87-53.23-33.77c-17.53-2.21-33.64,1.91-48.54,11.19c-0.81,0.5-1.6,1.06-2.61,1.09
		c-1.41-0.15-1.5-1.26-1.64-2.29c-1.19-8.69-3.81-16.93-7.89-24.69c-1.07-2.03-0.91-3.73,0.63-5.47
		c5.53-6.27,10.53-12.91,14.17-20.51c2.73-5.71,4.21-11.72,5.14-17.95C422.78,198.35,423,189.95,423.72,181.58z"/>
	<path class="st2" d="M218.72,549.06c14.35,11.39,30.28,19.62,47.95,24.69c11.73,3.37,23.55,6.24,35.6,8.04
		c7.42,1.11,14.91,1.79,22.41,2.34c8.68,0.63,17.35,0.29,26.02,0.41c12.57,0.17,25.04-0.97,37.51-2.52
		c10.68-1.33,21.12-3.56,31.27-7.1c12.51-4.36,24.34-10.02,34.61-18.57c0.87-0.07,0.95,0.64,1.09,1.19c2.28,9.34,8,9.94,15.23,8.84
		c7.87-1.2,15.16-4.42,22.36-7.69c12.44-5.65,23.44-13.58,33.95-22.16c4.18-3.42,8.37-6.99,11.34-11.68
		c-2.82,3.28-5.92,6.27-9.21,9.09c-14.33,12.35-29.87,22.68-47.85,28.98c-1.09,0.38-2.22,1.15-3.45,0.3
		c4.39-2.76,8.96-5.2,13.21-8.18c11.72-8.22,23.2-16.7,32.92-27.33c6.51-7.12,12-15,17.03-23.19c2.07-3.38,5.44-5.29,8.11-7.98
		c1.88-1.9,4.14-3.42,6.07-5.27c6.51-6.25,13.13-12.41,19.39-18.91c16.67-17.32,30.97-36.39,41.58-58.06
		c7.08-14.45,12.17-29.62,15.47-45.34c1.54-7.33,2.13-14.85,2.9-22.32c0.31-2.97-0.25-6.05,0.91-8.93c0.82,3.76,0.8,7.6,0.93,11.41
		c2.49,70.66-20.26,132.23-66.79,185.23c-12.85,14.64-27.44,27.36-42.99,39.02c-2.7,2.03-5.69,3.68-8.55,5.5
		c-0.66,0.42-1.61,0.88-1.06,1.75c0.53,0.86,1.4,0.22,2.06-0.15c3.42-1.9,6.71-4.02,9.84-6.38c0.87-0.66,1.57-1.09,2.78-0.54
		c18.13,8.17,35.31,17.94,50.89,30.39c0.13,0.1,0.2,0.28,0.29,0.42c-1.06,0.82-2.01,0.12-2.91-0.3c-8.54-3.9-17.45-4.44-26.56-2.88
		c-10.21,1.75-17.08,8.1-22.18,16.66c-4.17,6.99-4.97,14.93-6.18,22.75c-0.54,3.46-0.49,6.93-0.53,10.4
		c-0.01,1.09,0.24,2.3-0.79,3.15c-24.44-10.69-47.97-22.85-67.63-41.74c5.35-2.06,10.44-4.06,15.36-6.44
		c0.7-0.34,1.41-0.68,2.1-1.04c0.58-0.31,1.04-0.74,0.65-1.45c-0.32-0.58-0.86-0.46-1.37-0.23c-0.56,0.24-1.11,0.48-1.67,0.74
		c-23.67,10.96-48.48,17.89-74.31,21.37c-16.25,2.19-32.55,3.12-48.91,2.53c-27.41-0.98-54.2-5.73-80.38-13.9
		c-10.07-3.15-19.54-7.67-28.88-12.49c-0.54-0.28-1.08-0.57-1.63-0.83c-0.76-0.35-1.74-1.13-2.25-0.06
		c-0.52,1.08,0.74,1.37,1.46,1.75c9.13,4.84,18.44,9.26,28.13,12.63c0.16,0.86-0.45,1.04-0.82,1.34
		c-16.53,13.25-34.96,23.29-54.21,31.91c-5.7,2.55-11.43,5.04-17.46,6.74c-0.24-0.78,0.23-1.34,0.65-1.88
		c3.36-4.31,4.99-9.28,5.73-14.62c0.82-5.98,0.93-11.86-0.5-17.83c-2.35-9.82-8.39-15.94-17.79-19.01
		c-7.92-2.59-15.99-2.99-24.19-1.47c-1.21,0.22-2.5,0.95-3.73-0.05c12.58-7.64,25.92-13.63,39.71-18.74
		c3.15-1.17,5.43-0.96,7.88,1.18c1.63,1.42,3.55,2.5,5.34,3.73c0.53,0.36,1.14,0.68,1.64,0.11c0.69-0.79-0.06-1.31-0.59-1.67
		c-3.06-2.15-6.12-4.29-9.23-6.36c-30.21-20.01-54.72-45.69-75.1-75.48c-0.73-1.07-1.33-2.22-1.99-3.34
		c3.27,2.04,5.57,5.15,8.43,7.66c5.05,4.44,10.67,7.97,16.27,11.58c1.8,1.07,2.62,2.97,3.76,4.56
		c10.11,14.12,22.19,26.22,36.84,35.63c6.08,3.9,12.39,7.31,19.83,8.07c5.16,0.53,9.08-1.57,10.9-6.41
		c1.07-2.86,1.92-5.77,2.11-8.84C217.6,550.76,217.68,549.69,218.72,549.06z"/>
	<path class="st3" d="M217.66,233.33c2.46,6.24,5.82,11.96,9.93,17.26c8.17,10.54,18.48,17.64,31.86,19.77
		c5.12,0.82,10.23,1.86,15.45,1.57c12.41-0.69,24.18-3.67,34.3-11.17c6.21-4.6,11.71-10.14,16.34-16.34
		c10.72-14.35,23.75-25.78,39.93-33.68c9.45-4.62,19.25-8.33,28.89-12.44c5.57-2.38,11.27-4.72,15.74-8.99
		c6.94-6.65,12.33-14.13,11.68-24.45c0.82,6.94,0.38,13.85-0.6,20.75c-2.42,16.99-10.33,30.88-23.89,41.33
		c-7.24,5.58-15.54,9.51-23.89,13.22c-5.16,2.29-10.49,4.25-15.36,7.11c-7.42,4.35-13.4,10.16-17.11,18.07
		c-0.52,1.11-0.49,1.12-0.37,2.68c1.18-0.02,1.24-1.1,1.59-1.8c4.04-7.94,10.16-13.85,17.96-17.95c4.52-2.38,9.31-4.25,13.95-6.44
		c1.22-0.57,2.11-0.24,3.11,0.39c6.67,4.24,9.54,10.88,11.08,18.17c3.12,14.82-1.09,28.22-8.68,40.77
		c-9.94,16.43-25.05,25.17-43.62,28.16c-17.01,2.74-33.22-0.18-49.08-6.94c-17.74-7.55-31.07-20.06-43.57-34.31
		c-13.8-15.72-21.22-34-25.61-53.95C217.62,233.86,217.67,233.59,217.66,233.33z"/>
	<path class="st4" d="M523.38,654.14c-0.25-9.49,0.66-18.9,3.31-28c3.56-12.2,10.87-21.53,23.49-25.03
		c10.15-2.82,20.43-2.15,30.17,2.48c0.7,0.33,1.34,0.83,2.18,0.75c13.09,10.05,24.39,21.7,32.05,36.49
		c3.36,6.49,4.31,13.52,3.86,20.75c-0.27,4.34-3.2,7.73-7.84,8.99c-5.58,1.52-11.28,1.8-17.05,1.49
		c-24.41-1.33-47.5-7.84-69.77-17.62C523.63,654.39,523.51,654.25,523.38,654.14z"/>
	<path class="st5" d="M117.27,337.8c0.18-39.52,38.95-71.44,79.33-68.97c37.72,2.31,68,35.42,66.27,75.8
		c-1.74,40.33-36.18,72.47-75.2,70.15C145.4,412.26,115.96,376.41,117.27,337.8z"/>
	<path class="st4" d="M151.73,600.12c5.09-1.04,10.2-1.76,15.42-1.5c8.11,0.41,15.7,2.41,22.31,7.34c3.96,2.95,6.36,7.04,7.81,11.68
		c3.46,11.02,2.67,21.79-2.11,32.29c-0.87,1.92-2.31,3.43-3.6,5.05c-11.27,4.12-22.77,7.35-34.61,9.39
		c-8.05,1.39-16.13,2.61-24.32,2.85c-6.71,0.19-13.4-0.08-19.93-1.75c-6.91-1.77-10.21-7.42-9.01-14.46
		c1.86-10.9,8.33-19.12,15.34-27.05c8.07-9.12,18.38-15.32,28.61-21.6C148.97,601.55,150.37,600.86,151.73,600.12z"/>
	<path class="st3" d="M423.72,181.58c0.18,7.96-0.47,15.84-1.3,23.76c-1.57,15.07-8.37,27.4-18.19,38.43c-0.8,0.9-1.5,1.9-2.3,2.8
		c-1.06,1.19-0.42,2.27,0.15,3.34c3.47,6.45,5.81,13.3,7.34,20.44c0.36,1.68,0.58,3.4,0.78,5.1c0.09,0.8,0,1.61,1.09,1.74
		c-0.07,1.46-1.37,1.91-2.27,2.62c-14.82,11.68-23.78,26.86-27.04,45.41c-1.07,6.1-1.01,12.25-0.59,18.41
		c0.06,0.85,0.37,1.73-0.46,2.41c-0.46-0.79-0.7-1.63-2.01-0.77c-8.33,5.46-17.67,8.42-27.36,10.03
		c-12.94,2.17-25.91,1.95-38.52-2.13c-9.56-3.09-18.24-7.83-25.91-14.51c-7.59-6.62-12.91-14.82-17.81-23.4
		c9.19,5.3,18.55,10.35,28.78,13.23c19.1,5.38,38.11,5.46,56.55-2.85c27.18-12.25,38-41.22,36.28-59.88
		c-0.38-4.17-1.1-8.3-2.74-12.15c-2.23-5.24-5-10.16-10.43-13.22c3.57-1.92,6.96-3.76,10.36-5.57
		c20.95-11.11,32.61-28.5,35.24-52.02C423.41,182.39,423.6,181.99,423.72,181.58z"/>
	<path class="st6" d="M626.48,144.21c-0.64,25.69-5.22,52.91-16.87,78.65c-1.25,2.76-2.77,5.4-4.28,8.04
		c-1.3,2.27-2.03,2.25-3.41,0.01c-5.31-8.57-10.57-17.2-16.84-25.09c-17.69-22.25-36.91-42.98-60.38-59.37
		c-4.72-3.3-4.75-3.73,0.28-6.62c26.21-15.06,54.17-25.32,84.03-30.23c3.25-0.54,6.53-0.95,9.8-1.36c3.55-0.44,4.32,0.05,5.06,3.54
		C625.96,121.69,626.3,131.77,626.48,144.21z"/>
	<path class="st6" d="M94.35,147.31c0.04-10.62,0.72-21.19,2.79-31.63c0.92-4.63,1.56-5.14,6.12-4.38
		c34.41,5.7,66.13,18.28,95.06,37.77c5.05,3.4,4.97,3.34-0.62,5.96c-21.73,10.16-41.23,23.37-56.83,41.86
		c-9.24,10.94-16.73,23.04-23.48,35.62c-0.46,0.86-0.62,2.24-1.93,2.17c-1.08-0.06-1.34-1.25-1.78-2.07
		c-7.25-13.3-11.85-27.57-14.84-42.33C95.96,176.11,94.23,161.79,94.35,147.31z"/>
	<path class="st7" d="M380.92,346.05c-0.72-7.09-0.8-14.18,0.44-21.23c3.4-19.35,12.99-34.9,28.76-46.63
		c0.41-0.3,0.78-0.66,1.17-0.99c9.11-5.95,18.86-10.42,29.66-12.09c26.77-4.12,49.53,3.88,67.76,23.76
		c22.71,24.77,26.11,65.54,7.98,93.81c-10.77,16.79-26.33,26.37-45.59,30.16c-32,6.3-65.26-9.61-80.88-38.26
		C385.33,365.62,382.36,356.1,380.92,346.05z"/>
	<path class="st7" d="M477.57,563.23c9.4-2.72,18.24-6.7,26.51-11.91c12.1-7.61,23.67-15.91,33.28-26.65
		c0.54-0.6,1.19-1.73,2.08-1.04c0.99,0.77-0.04,1.55-0.6,2.13c-18.36,19.03-39.55,33.55-65.32,40.71c-2.27,0.63-4.58,0.96-6.95,0.95
		c-6.75-0.04-10.44-2.98-11.99-9.59c-0.12-0.5-0.31-0.97-0.47-1.46c-1.96-19.15,1.55-37.49,8.27-55.35
		c1.59-4.23,3.53-8.3,5.54-12.33c0.36-0.72,0.6-2.02,1.67-1.58c1.42,0.59,0.31,1.67-0.06,2.39c-6.13,12.08-10.34,24.81-12.57,38.15
		c-1.57,9.37-2.23,18.81-0.83,28.27c1.1,7.48,5.25,10.6,12.69,9.59C471.81,565.1,474.77,564.47,477.57,563.23z"/>
	<path class="st8" d="M218.72,549.06c-0.67,3.84-1.15,7.7-2.55,11.4c-2.16,5.69-5.62,7.87-11.64,7.23
		c-4.74-0.5-9.12-2.01-13.32-4.21c-15.19-7.96-27.53-19.29-38.32-32.44c-3.2-3.89-6.27-7.88-8.8-12.26
		c1.34-1.33,1.91-0.13,2.57,0.77c2.37,3.22,4.61,6.54,7.13,9.64c10.95,13.5,23.49,25.13,39.15,33.07c4.24,2.15,8.64,3.61,13.46,3.55
		c4.35-0.05,6.21-1.39,7.85-5.48c1.98-4.92,2.5-10.1,2.77-15.31c0.82-15.66-0.72-31.07-5.1-46.16c-0.15-0.5-0.33-0.99-0.43-1.5
		c-0.13-0.66-0.49-1.53,0.39-1.81c1.11-0.36,1.24,0.74,1.43,1.41c1.55,5.43,2.84,10.92,3.82,16.48
		C219.2,525.26,219.44,537.14,218.72,549.06z"/>
	<path class="st7" d="M319.23,434.86c6.95,0,13.91-0.05,20.86,0.04c1.56,0.02,3.63-0.32,4.39,1.5c0.74,1.79-0.81,3.14-1.94,4.24
		c-7.49,7.31-16.41,12.17-26.49,14.89c-2.11,0.56-4.33,0.28-6.39-0.62c-8.25-3.61-15.21-9.04-21.43-15.45
		c-2.35-2.42-1.82-3.9,1.58-4.36c3.43-0.46,6.92-0.66,10.38-0.73c6.34-0.11,12.69-0.03,19.04-0.03
		C319.23,434.53,319.23,434.69,319.23,434.86z"/>
	<path class="st9" d="M247.64,346.77c0.31,24.25-20.42,50-50.17,54.85c-21.89,3.57-40.44-3.86-54.58-20.82
		c-21.08-25.28-18.98-61.79,4.34-85.02c24.42-24.33,65.51-21.67,86.65,5.58C242.88,312.95,247.47,326.03,247.64,346.77z"/>
	<path class="st5" d="M458.09,412.41c-36.59,0.35-68.3-26.23-74.56-61.74c-4.58-25.99,2.49-48.3,21.77-66.21
		c14.68-13.64,32.58-19.81,52.6-18.6c32.5,1.97,59.52,25.39,66.54,57.39c4.32,19.72,2.38,38.69-7.96,56.4
		c-9.88,16.93-24.85,26.73-43.68,31.1C467.69,411.93,462.52,412.45,458.09,412.41z"/>
	<path class="st10" d="M342.85,436.88c-0.25,1.69-1.34,2.61-2.33,3.52c-6.93,6.3-14.94,10.67-23.91,13.32
		c-2.17,0.64-4.31,0.56-6.37-0.34c-5.86-2.56-11.06-6.15-15.88-10.34c-0.93-0.81-1.04-1.44-0.18-2.33c2.57-2.66,5.18-4.95,9.32-4.85
		c11.73,0.3,23.46,0.37,35.19,0.57C340.06,436.46,341.42,436.72,342.85,436.88z"/>
	<path class="st11" d="M296.08,436.27c-1.15,1.23-2.11,2.2-2.99,3.24c-0.85,1-1.63,1.2-2.52,0.08c-0.58-0.73-1.86-1.28-1.66-2.18
		c0.26-1.15,1.66-0.34,2.49-0.71C292.82,436.08,294.32,436.47,296.08,436.27z"/>
	<path class="st12" d="M130.44,343.51c-0.43-6.18,0.15-12.3,1.74-18.26c2.92-10.99,8.45-20.51,16.63-28.45
		c0.34-0.33,0.72-0.63,1.54-1.34c-3.76,7.35-4.54,14.37-1.82,21.61c3.75,9.96,12.26,15.32,22.82,14.43
		c8.63-0.72,16.75-8.58,18.6-18.01c2.62-13.35-4.91-25.44-17.59-28.2c-1.35-0.29-2.75-0.31-4.02-0.44
		c26.93-12.34,68.31,3.46,76.33,44.53c-0.93,1.89-0.15,3.9-0.45,5.87c-1.4,9.26-4.74,17.78-9.46,25.77
		c-8.55,14.47-21.07,23.76-37.36,27.84c-6.46,1.62-13.05,1.43-19.65,0.53c-19.02-2.61-32.12-13.56-41.41-29.6
		c-2.84-4.9-5.48-10.12-5.41-16.12c0-0.34,0.02,0.11-0.11-0.21C130.73,343.23,130.55,343.28,130.44,343.51z"/>
	<path class="st13" d="M130.44,343.51c0.05-0.26,0.02-0.6,0.17-0.75c0.77-0.72,0.46,0.33,0.48,0.4c0.99,2.85,1.1,5.88,2.22,8.76
		c5.14,13.18,14.09,23.11,25.74,30.75c5.1,3.34,11.05,4.52,16.9,5.6c18.78,3.49,34.76-2.1,48.45-15.22
		c11.13-10.67,16.68-24.01,19.26-38.85c0.23-1.35,0.11-2.77,0.1-4.16c0-0.72,0.23-0.95,0.91-0.67c3.69,22.83-2.29,42.62-20,57.74
		c-28.38,24.22-71.42,14.75-87.89-18.82C132.95,360.44,130.73,352.23,130.44,343.51z"/>
	<path class="st14" d="M188.59,308.34c-0.08,12.44-9.36,22-20.91,21.52c-9.22-0.38-16.84-7.74-18.68-18.07
		c-2.12-11.86,5.97-23.24,17.71-24.93c9.2-1.32,18.61,5.59,21.18,15.54C188.39,304.36,188.58,306.34,188.59,308.34z"/>
	<path class="st9" d="M459.64,399.94c-34.24,0.42-60.36-21.88-65.08-50.45c-3.53-21.39,1.71-40.12,17.18-55.37
		c28.36-27.96,75.86-20.12,93.88,15.55c11.39,22.55,10.49,44.98-4.19,65.79C490.06,391.58,473.8,399.54,459.64,399.94z"/>
	<path class="st15" d="M397.59,353.89c-3.17-10.75-3.13-21.54-0.11-32.29c2.47-8.79,6.58-16.27,12.29-22.63
		c-1.75,4.37-2.38,8.26-2.25,12.31c0.37,11.93,9.52,21.92,21.38,22.58c8.32,0.46,16.9-4.05,20.89-14.64
		c4.93-13.11-2.29-28.14-15.34-31.8c-3.14-0.88-6.3-1.1-9.72-0.85c2.65-1.24,5.22-2.66,7.95-3.68
		c32.79-12.28,68.18,6.87,76.67,41.47c0.78,3.19,1.65,6.39,1.53,9.73c-4.96,24.3-18.61,41.16-42.52,48.77
		c-9.43,3-19.3,3.62-29.1,1.54c-9.48-2.01-18-6.2-25.79-11.97c-4.72-3.49-8.87-7.47-12.34-12.23
		C399.67,358.22,398.78,355.99,397.59,353.89z"/>
	<path class="st13" d="M397.59,353.89c2.06,2.85,4.02,5.78,6.2,8.53c5.77,7.27,13.23,12.45,21.52,16.38c5.69,2.7,11.55,5.06,18,5.53
		c5.28,0.39,10.53,0.61,15.79-0.2c8.92-1.37,17.36-4,24.86-9.19c12.53-8.66,20.77-20.37,24.96-34.99c0.57-1.98,1.29-3.91,1.95-5.86
		c2.85,31.06-17.22,58.11-47.98,63.28c-21.42,3.6-39.31-3.99-53.44-20.34c-5.22-6.04-8.87-13.01-11.33-20.62
		C397.85,355.56,397.76,354.73,397.59,353.89z"/>
	<path class="st14" d="M449.43,310.64c-0.26,7.72-2.98,14.25-9.72,18.51c-7.74,4.9-17.53,3.51-24.03-3.17
		c-7.33-7.53-8.6-19.9-2.75-28.59c4.6-6.84,11.15-9.82,19.3-8.59c8.08,1.22,14.78,8.05,16.59,16.39
		C449.2,306.98,449.53,308.77,449.43,310.64z"/>
</g>
</svg>
