<?xml version="1.0" encoding="utf-8"?>
<!-- Generator: Adobe Illustrator 24.3.0, SVG Export Plug-In . SVG Version: 6.00 Build 0)  -->
<svg version="1.1" id="Layer_1" xmlns="http://www.w3.org/2000/svg" xmlns:xlink="http://www.w3.org/1999/xlink" x="0px" y="0px"
	 viewBox="0 0 720 720" style="enable-background:new 0 0 720 720;" xml:space="preserve">
<style type="text/css">
	.st0{fill:#FBD00D;}
	.st1{fill:#FFFFFF;}
	.st2{fill:#DBB42A;}
	.st3{fill:#DBDDDC;}
</style>
<g>
	<path d="M606.34,321.14c0.93-0.27,1.5-0.41,2.05-0.61c13.99-5.06,28.23-9.32,42.65-12.97c2.48-0.63,4.9-0.08,7.89-0.26
		c-0.79,1.08-1.18,1.86-1.79,2.4c-1.35,1.21-2.79,2.33-4.24,3.42c-12.2,9.24-23.73,19.25-34.56,30.07
		c-1.38,1.38-2.74,2.79-4.09,4.19c-0.4,0.42-0.75,0.89-1.27,1.51c2.33,0,4.38,0.03,6.44-0.01c1.21-0.02,2.42-0.11,3.62-0.24
		c5.5-0.57,10.86,0.62,16.25,1.33c1.6,0.21,3.21,0.39,4.79,0.68c1.11,0.21,2.25,0.47,3.28,0.93c1.33,0.59,1.41,1.56,0.22,2.46
		c-0.79,0.6-1.73,1.04-2.64,1.46c-6.17,2.85-12.35,5.67-18.52,8.51c-0.72,0.33-1.4,0.76-2.43,1.32c0.88,0.4,1.45,0.68,2.03,0.92
		c5.29,2.22,10.38,4.81,15.2,7.92c0.67,0.43,1.36,0.9,1.9,1.49c0.98,1.05,0.81,2.09-0.45,2.83c-0.62,0.37-1.35,0.58-2.06,0.77
		c-2.14,0.58-4.29,1.11-6.92,1.78c0.87,0.44,1.34,0.73,1.85,0.92c20.09,7.74,39.22,17.45,57.58,28.64
		c6.72,4.1,13.16,8.65,19.71,13.02c0.84,0.56,1.63,1.21,2.34,1.91c0.49,0.49,0.82,1.14,1.22,1.72c-0.84,0.92-1.72,0.85-2.58,0.73
		c-7.4-0.97-14.81-1.98-22.21-2.94c-7.74-1.01-15.49-1.91-23.22-2.99c-10.82-1.51-21.72-1.77-32.59-2.49
		c-5.91-0.39-11.82-0.76-17.73-1.12c-0.77-0.05-1.55-0.01-2.74-0.01c0.84,0.77,1.36,1.26,1.89,1.72
		c12.72,10.95,24.81,22.54,35.71,35.33c2.31,2.71,4.47,5.56,6.65,8.39c0.57,0.74,1.06,1.58,1.39,2.44c0.48,1.24,0.04,1.85-1.25,1.77
		c-0.92-0.06-1.87-0.27-2.74-0.59c-3.85-1.41-7.67-2.91-11.53-4.31c-16.79-6.08-34.03-10.57-51.47-14.33
		c-0.32-0.07-0.66-0.06-1.41-0.13c0.8,1.04,1.39,1.82,2,2.58c8.56,10.58,16.64,21.51,23.99,32.98c1.49,2.32,2.85,4.73,4.22,7.12
		c0.49,0.85,1.01,1.75,0.66,2.93c-1.72,0.07-3.3-0.26-4.89-0.89c-4.19-1.66-8.4-3.24-12.61-4.84c-0.49-0.18-1.02-0.24-2.04-0.47
		c0.75,0.98,1.24,1.57,1.67,2.2c2.92,4.28,5.86,8.54,8.71,12.86c0.58,0.88,0.94,1.94,1.23,2.96c0.36,1.3-0.2,1.79-1.48,1.34
		c-0.82-0.29-1.59-0.72-2.35-1.14c-2.74-1.55-5.46-3.12-8.46-4.45c0.3,0.55,0.58,1.12,0.92,1.65c3.51,5.52,6.54,11.29,9.25,17.24
		c0.42,0.92,0.8,1.86,1.04,2.84c0.35,1.38-0.29,1.95-1.65,1.42c-0.99-0.39-1.91-0.99-2.79-1.6c-4.81-3.33-9.53-6.81-14.42-10.03
		c-10.4-6.85-20.88-13.58-31.33-20.36c-0.38-0.25-0.79-0.45-1.46-0.82c0,0.66-0.03,1.09,0,1.51c0.78,8.83,2.58,17.42,5.86,25.68
		c3.62,9.1,8.77,17.3,15.13,24.68c4.34,5.04,6.32,10.69,6.14,17.23c-0.09,3.16-0.27,6.32-0.3,9.48c-0.03,3.63,0,7.27,0.1,10.9
		c0.17,6.05,0.37,12.11,0.66,18.15c0.47,9.74,1.03,19.48,1.53,29.23c0.61,11.96,1.23,23.92,1.78,35.89
		c0.2,4.28-0.47,8.47-2.13,12.44c-3.92,9.4-10.32,16.3-20.19,19.58c-0.94,0.31-1.96,0.44-2.95,0.54c-2.41,0.24-4.82,0.48-7.23,0.61
		c-1.94,0.11-3.89,0.04-5.84,0.09c-2.15,0.05-4.31,0.3-6.45,0.18c-6.58-0.38-12.65-2.24-17.19-7.28c-3.97-4.4-4.95-9.72-3.73-15.47
		c1.06-5,3.58-9.26,6.77-13.16c1.23-1.51,2.57-2.95,3.96-4.31c1.7-1.66,2.73-3.63,3.24-5.93c0.66-2.98,0.93-6.01,0.66-9.03
		c-1.59-17.96-5.73-35.29-12.86-51.88c-0.29-0.68-0.58-1.37-0.97-2c-1.18-1.87-2.36-3.62-4.72-4.4
		c-20.88-6.91-36.77-20.33-49.3-38.08c-7.93-11.24-13.92-23.48-18.57-36.39c-0.23-0.63-0.48-1.26-0.73-1.88
		c-0.05-0.11-0.17-0.2-0.28-0.32c-1.16,0.13-0.96,1.07-1.03,1.82c-0.76,7.39,0.06,14.64,1.86,21.81c1.25,4.98,3.05,9.75,5.28,14.37
		c1.14,2.38,2.04,4.82,2.22,7.5c0.19,2.83-0.34,5.51-1.68,7.99c-12.71,23.55-23.13,48.14-33.12,72.93
		c-3.59,8.92-7.14,17.87-10.51,26.88c-1.81,4.85-4.94,8.44-9.27,11.05c-1.18,0.71-1.6,1.49-1.67,2.87
		c-0.25,4.7-0.39,9.44-1.13,14.07c-2.07,12.88-9.73,20.85-22.34,23.89c-9.21,2.22-18.44,1.67-27.53-0.91
		c-2.54-0.72-4.89-1.9-6.96-3.57c-3.46-2.79-5.17-6.45-5.42-10.85c-0.26-4.62,0.85-8.99,2.71-13.13c1.63-3.61,3.36-7.22,5.53-10.52
		c2.25-3.42,3.21-7.06,3.47-11.01c0.53-8.15,0.16-16.27-0.55-24.39c-0.63-7.17-1.36-14.34-1.75-21.53
		c-0.78-14.27-3.51-28.15-7.9-41.72c-3.38-10.44-7.28-20.69-11.44-30.84c-0.17-0.43-0.41-0.83-0.65-1.31
		c-2.3-0.2-4.57-0.39-7.11-0.61c-0.06,0.99-0.16,1.83-0.14,2.67c0.14,7,0.31,13.99,0.46,20.99c0.03,1.35,0.07,2.69,0.03,4.04
		c-0.02,0.81-0.16,1.69-1.1,1.96c-0.9,0.26-1.57-0.3-2.07-0.95c-0.65-0.85-1.26-1.75-1.79-2.68c-5-8.72-9.1-17.86-12.68-27.24
		c-0.89-2.34-2.08-3.84-4.51-4.85c-7.05-2.93-13.51-6.95-19.63-11.52c-0.64-0.48-1.3-0.95-2.09-1.52c-0.21,0.49-0.44,0.87-0.52,1.29
		c-2.95,13.89-5.59,27.84-7.24,41.95c-0.87,7.43-1.18,14.88-1.36,22.36c-0.14,5.71-1.48,11.22-4,16.36
		c-5.28,10.77-9.8,21.85-14.16,33.01c-4.63,11.84-9.13,23.73-13.67,35.61c-2.15,5.64-4.92,10.92-9.01,15.42
		c-5.71,6.26-12.87,9.6-21.23,10.44c-9.06,0.92-17.34-1.48-25.01-6.18c-1.48-0.91-2.87-2.01-4.15-3.19
		c-5.24-4.88-6.19-10.82-3.94-17.37c1.72-5.01,5-9.04,8.64-12.78c1.69-1.74,3.53-3.32,5.21-5.07c5.95-6.2,9.94-13.58,12.34-21.75
		c1.95-6.64,3.44-13.42,5.07-20.15c1.81-7.46,3.45-14.94,4.37-22.58c0.98-8.16,1.74-16.33,1.83-24.55
		c0.08-7.81,0.15-15.63-0.21-23.42c-0.53-11.42-1.45-22.83-2.21-34.24c-0.01-0.18-0.12-0.35-0.3-0.87
		c-0.74,0.92-1.37,1.67-1.96,2.44c-7.95,10.28-15.9,20.56-23.86,30.83c-0.7,0.9-1.42,1.79-2.18,2.65c-0.44,0.5-0.94,0.97-1.49,1.36
		c-1.4,1-2.35,0.65-2.46-1.04c-0.1-1.53-0.06-3.11,0.2-4.62c1.49-8.55,2.93-17.11,4.63-25.62c3.41-17.1,7.59-34.01,13.34-50.49
		c2.63-7.55,5.76-14.93,8.66-22.39c0.28-0.72,0.59-1.44,0.63-2.42c-0.63,0.32-1.27,0.63-1.89,0.97
		c-13.68,7.31-26.67,15.72-39.5,24.39c-12.39,8.38-24.44,17.21-36.03,26.67c-0.77,0.63-1.63,1.23-2.54,1.62
		c-1.39,0.59-2.36-0.06-2.21-1.54c0.15-1.45,0.54-2.91,1.07-4.27c5.04-12.86,11.03-25.28,17.83-37.3
		c7.6-13.44,15.94-26.39,25.49-38.53c0.25-0.31,0.47-0.65,0.53-1.3c-0.53,0.26-1.08,0.5-1.6,0.78c-8.43,4.56-16.35,9.89-23.88,15.82
		c-1.21,0.95-2.52,1.8-3.85,2.57c-0.45,0.26-1.32,0.36-1.64,0.1c-0.35-0.28-0.45-1.1-0.36-1.64c0.19-1.12,0.51-2.23,0.88-3.31
		c3.75-10.69,8.23-21.05,14.1-30.78c0.23-0.39,0.41-0.81,0.78-1.53c-2.06,0.34-3.83,0.58-5.57,0.93
		c-16.72,3.33-33.14,7.74-48.98,14.13c-1.84,0.74-3.77,0.8-5.69,0.72c-0.43-1.13,0.02-1.98,0.57-2.74c0.83-1.14,1.7-2.26,2.61-3.33
		c10.44-12.37,21.59-24.04,34.14-34.31c5.11-4.18,10.44-8.06,16.03-11.6c0.49-0.31,0.95-0.66,1.82-1.27c-2,0-3.51-0.04-5.02,0.01
		c-11.43,0.37-22.88,0.54-34.29,1.23c-7.24,0.44-14.47,1.43-21.64,2.57c-6.57,1.05-13.06,2.59-19.56,3.99
		c-1.86,0.4-3.57-0.22-5.35-0.25c-0.27-1.6,0.65-2.47,1.56-3.23c1.86-1.55,3.77-3.04,5.73-4.47c7.2-5.25,14.87-9.73,22.76-13.82
		c11.78-6.11,23.8-11.7,36.47-15.71c5.76-1.83,11.68-3.16,17.52-4.72c0.51-0.14,1.03-0.28,1.91-0.52c-0.74-0.55-1.24-0.94-1.76-1.3
		c-9.21-6.35-18.86-11.97-28.79-17.13c-7.35-3.82-14.89-7.23-22.67-10.09c-0.75-0.28-1.51-0.61-2.16-1.07
		c-1.18-0.86-1.09-1.88,0.23-2.46c0.72-0.32,1.54-0.51,2.33-0.58c4.62-0.41,9.25-0.78,13.88-1.12c6.91-0.52,13.82-1.12,20.74-1.48
		c3.48-0.18,6.99,0.08,10.48,0.11c2.39,0.02,4.78,0,7.54,0c-0.9-0.59-1.53-1.03-2.19-1.43c-7.64-4.57-15-9.53-21.8-15.29
		c-1.37-1.16-2.49-2.6-3.74-3.92c0.65-0.97,1.45-1,2.25-1.04c10.21-0.56,20.42-1.13,30.64-1.7c0.9-0.05,1.8-0.16,2.7-0.24
		c0.02-0.14,0.05-0.28,0.07-0.43c-1.16-0.78-2.3-1.59-3.47-2.34c-11.04-7.14-21.61-14.9-31.33-23.79
		c-5.87-5.37-11.38-11.08-16.03-17.57c-0.65-0.9-1.49-1.76-1.32-3.29c1.8-0.09,3.61-0.4,5.39-0.25c9.4,0.82,18.82,1.05,28.24,0.9
		c5.17-0.08,10.34-0.42,15.65-0.64c-0.23-0.95-0.97-1.04-1.51-1.31c-18.41-9.4-36.48-19.42-54.2-30.04
		c-13.35-8-26.5-16.29-38.79-25.87c-4.45-3.47-8.63-7.3-12.89-11.01c-0.64-0.56-1.18-1.31-1.55-2.08c-0.51-1.05,0.01-1.89,1.19-1.98
		c0.72-0.06,1.48,0.06,2.19,0.22c3.61,0.79,7.19,1.76,10.83,2.41c3.64,0.65,7.33,1.01,10.99,1.49c0.18,0.02,0.37-0.06,0.76-0.14
		c-0.3-0.47-0.52-0.85-0.78-1.21c-13.54-18.76-25.29-38.62-36.13-59.03C27.15,68.41,19.08,51.91,12.34,34.8
		C9.11,26.59,6.19,18.28,3.98,9.73C3.76,8.9,3.61,8.02,3.6,7.15c-0.01-1.6,0.66-2.19,2.28-2.01c0.86,0.1,1.71,0.37,2.53,0.66
		c10.23,3.6,20.18,7.89,29.96,12.56c30.63,14.63,60.48,30.71,89.17,48.89c9.27,5.88,18.24,12.19,26.61,19.34
		c5.89,5.04,10.65,11.02,14.96,17.4c8.86,13.13,16.71,26.86,24.43,40.66c3.45,6.16,6.84,12.36,10.41,18.81
		c0.33-1.18,0.1-2.14,0-3.07c-0.51-4.55-1.08-9.09-1.55-13.64c-0.12-1.19-0.09-2.43,0.08-3.62c0.23-1.61,1.3-1.98,2.57-0.93
		c0.72,0.6,1.35,1.31,1.98,2.01c4.84,5.43,9.55,10.97,14.54,16.25c3.09,3.27,6.59,6.15,9.91,9.19c0.22,0.21,0.52,0.33,1.11,0.7
		c0-1.08,0.01-1.87,0-2.65c-0.32-14.7,0.36-29.33,3.05-43.82c0.47-2.51,1.08-5,1.71-7.47c0.23-0.9,0.61-1.79,1.09-2.59
		c0.55-0.92,1.35-0.99,1.93-0.1c0.69,1.06,1.2,2.25,1.66,3.43c1.66,4.26,3.11,8.61,4.92,12.81c2.69,6.24,5.61,12.37,8.45,18.55
		c0.33,0.72,0.75,1.4,1.11,2.05c0.28-0.05,0.43-0.03,0.51-0.1c1.95-1.63,2.63-1.52,3.82,0.67c0.35,0.65,0.64,1.33,0.97,2
		c0.29,0.59,0.6,1.17,1,1.97c0.57-0.96,1.02-1.7,1.45-2.44c5.24-9.11,10.81-18,17.28-26.31c1.03-1.33,2.11-2.62,3.19-3.92
		c0.3-0.36,0.64-0.7,1.02-0.98c1.38-1.05,2.51-0.66,2.7,1.05c0.17,1.53,0.09,3.09,0.1,4.64c0.05,7.07,0.09,14.14,0.15,21.2
		c0,0.37,0.11,0.75,0.22,1.44c0.65-0.81,1.12-1.36,1.55-1.94c6.28-8.27,12.98-16.17,20.38-23.46c0.81-0.8,1.63-1.63,2.56-2.28
		c0.55-0.38,1.4-0.65,1.99-0.5c0.34,0.09,0.64,1.13,0.61,1.73c-0.14,2.68-0.37,5.37-0.63,8.04c-0.41,4.15-0.86,8.29-1.04,12.59
		c0.36-0.44,0.75-0.86,1.07-1.32c8.58-12.12,18.21-23.35,28.49-34.04c2.43-2.52,4.88-5.02,7.39-7.46c0.79-0.77,1.81-1.31,3.06-2.18
		c0.22,0.99,0.49,1.6,0.46,2.19c-0.1,1.81-0.28,3.62-0.49,5.42c-1.46,12.44-2.32,24.92-2.44,37.45c-0.05,5.1-0.01,10.21-0.01,15.61
		c0.74-0.29,1.21-0.45,1.66-0.66c0.73-0.34,1.43-0.76,2.18-1.05c1.33-0.5,1.7-0.33,2.64,1.08c0.96-0.73,1.91-1.46,2.87-2.19
		c9.9-7.57,20.15-14.64,30.95-20.88c1.09-0.63,2.14-1.45,3.59-1.06c0.67,1.31,0.04,2.48-0.37,3.67c-1.74,5.09-3.51,10.17-5.22,15.27
		c-0.62,1.85-1.1,3.74-1.63,5.62c-0.1,0.37-0.13,0.75,0.08,1.25c0.44-0.66,0.89-1.31,1.31-1.97c9.42-14.75,18.96-29.43,29.21-43.62
		c2.76-3.82,5.58-7.62,8.74-11.1c4.89-5.4,10.65-9.89,16.42-14.31c15.34-11.73,31.85-21.62,48.9-30.6
		c27.3-14.38,55.35-27.1,84.38-37.59c14.31-5.17,28.85-9.59,43.8-12.54c3.17-0.62,6.35-1.21,9.55-1.62c1.3-0.17,2.67,0.12,4,0.25
		c0.9,0.09,1.07,0.78,0.9,1.49c-0.24,0.97-0.55,1.94-0.96,2.86c-5.77,12.91-12.24,25.47-19.08,37.84
		c-10.97,19.87-22.4,39.46-35.19,58.22c-5.23,7.67-10.91,15.04-16.38,22.54c-0.43,0.59-0.86,1.16-1.58,2.12
		c2.09-0.28,3.77-0.58,5.46-0.7c4.16-0.31,8.32-0.58,12.48-0.77c2.08-0.1,4.17,0.01,6.26,0.05c0.47,0.01,0.94,0.05,1.4,0.15
		c2.01,0.46,2.49,1.75,1.24,3.38c-0.32,0.42-0.74,0.78-1.14,1.14c-8.66,7.84-18.12,14.63-27.87,21.01
		c-15.34,10.03-31.33,18.93-47.6,27.34c-18.9,9.76-38.11,18.86-57.56,27.48c-0.46,0.21-0.9,0.47-1.28,1.06
		c0.97-0.05,1.94-0.09,2.91-0.14c6.99-0.39,13.97-0.81,20.96-1.13c1.32-0.06,2.69,0.1,3.97,0.42c1.24,0.31,1.46,1.19,0.55,2.09
		c-0.81,0.79-1.78,1.43-2.75,2.02c-11.39,6.79-22.79,13.56-34.18,20.34c-0.79,0.47-1.55,0.99-2.26,1.8
		c0.49,0.03,0.99,0.08,1.48,0.07c7.4-0.11,14.81-0.46,22.2-0.3c12.32,0.27,24.58,1.38,36.69,3.84c0.79,0.16,1.58,0.34,2.33,0.64
		c0.67,0.27,1.26,0.71,2.01,1.15c0.38-0.54,0.76-1.08,1.14-1.61c2.75-3.83,5.48-7.66,8.26-11.47c0.55-0.75,1.21-1.46,1.95-2.03
		c0.47-0.36,1.23-0.63,1.77-0.51c0.31,0.07,0.54,0.99,0.59,1.55c0.06,0.73-0.04,1.48-0.18,2.21c-1.9,10.41-2.99,20.91-3.55,31.47
		c-0.1,1.93-0.23,3.86-0.35,5.79c0.13,0.07,0.27,0.13,0.4,0.2c0.4-0.55,0.82-1.09,1.18-1.66c7.87-12.32,16.16-24.34,25.08-35.92
		c8.51-11.05,17.56-21.64,27.55-31.4c5.88-5.75,12.06-11.16,18.71-16c0.97-0.71,2.04-1.29,3.13-1.8c0.41-0.19,1.24-0.19,1.45,0.07
		c0.31,0.38,0.48,1.18,0.3,1.62c-0.57,1.36-1.27,2.67-2.03,3.93c-3.1,5.2-6.47,10.26-9.31,15.6c-3.57,6.71-6.72,13.63-10.04,20.47
		c-0.23,0.48-0.4,0.98-0.77,1.89c0.72-0.43,1.13-0.67,1.53-0.91c2.63-1.62,5.23-3.29,7.9-4.85c0.9-0.52,1.95-0.96,3.08-0.36
		c0.45,1.08-0.07,1.98-0.53,2.86c-1.12,2.15-2.33,4.25-3.42,6.41c-5.85,11.55-10.42,23.63-14.46,35.91
		c-2.06,6.26-3.91,12.59-5.86,18.89c-0.19,0.63-0.35,1.26-0.22,2.09c1.34-1.27,2.69-2.54,4.03-3.81
		c12.9-12.25,26.49-23.69,40.39-34.78c14.79-11.8,29.85-23.26,45.65-33.7c6.91-4.57,13.97-8.88,21.32-12.72
		c2.01-1.05,4.01-2.1,6.3-2.39c0.27,1.94-0.61,3.54-1.53,5.1c-2.49,4.24-5,8.46-7.51,12.69c-9.97,16.78-19.82,33.63-29.96,50.32
		c-10.59,17.43-21.46,34.69-32.2,52.02C607.32,319.45,606.94,320.13,606.34,321.14z M494.6,269.62c3.74-7.64,7.39-15.1,11.19-22.87
		c-4.75,1.85-9.22,3.59-13.74,5.35C492.91,258.06,493.74,263.76,494.6,269.62z M463.32,266.62c0.02,0.13,0.05,0.26,0.07,0.4
		c3.9,0.69,7.8,1.38,11.89,2.11c0.5-3.22,0.96-6.26,1.51-9.79C471.99,261.93,467.66,264.27,463.32,266.62z"/>
	<g>
		<path class="st0" d="M649.88,459.27c-2.72-1.43-5.4-2.96-8.18-4.28c-11.1-5.26-22.76-9-34.57-12.27
			c-7.33-2.03-14.73-3.74-22.26-4.85c-0.89-0.13-1.45-0.55-1.97-1.21c-1.83-2.33-3.69-4.64-5.55-6.94c-0.76-0.94-1.58-1.83-2.7-2.24
			c-0.89,0.27-0.95,0.89-0.66,1.47c0.51,1.02,1.05,2.04,1.72,2.95c6.31,8.65,12.67,17.26,18.96,25.92
			c6.52,8.99,12.96,18.04,19.44,27.07c0.33,0.47,0.62,0.97,0.73,1.63c-0.53-0.36-1.07-0.71-1.6-1.08c-3.48-2.39-7.23-4.16-11.4-4.94
			c-0.66-0.12-1.34-0.21-2-0.18c-2.58,0.12-3.9,1.99-3.06,4.45c0.27,0.8,0.83,1.52,1.38,2.19c2.51,3.08,5.06,6.12,7.59,9.19
			c0.27,0.33,0.48,0.72,0.51,1.26c-0.69-0.59-1.38-1.18-2.08-1.76c-2.74-2.31-5.63-4.39-8.98-5.75c-3.29-1.34-4.59-1-6.84,1.7
			c-0.25,0.3-0.57,0.53-0.93,0.86c0.84,1.45,1.88,2.59,3.54,3.05c0.32,0.09,0.63,0.22,0.95,0.33c2.62,0.87,4.7,2.27,6.15,4.82
			c2.63,4.61,5.56,9.05,8.37,13.56c-0.1,0.09-0.2,0.19-0.3,0.28c-0.24-0.16-0.5-0.28-0.7-0.47c-9.78-9.11-20.43-17.12-31.35-24.78
			c-13.84-9.71-27.91-19.05-42.8-27.1c-1.95-1.06-4.03-1.9-5.91-3.06c-3.64-2.26-7.66-1.66-11.59-1.8c-1.06-0.04-1.68,0.8-1.82,2.04
			c-0.17,1.53,0.6,2.7,1.45,3.86c2.26,3.1,4.48,6.22,6.72,9.33c0.15,0.21,0.24,0.45,0.56,1.08c-0.6-0.32-0.88-0.4-1.08-0.58
			c-4.95-4.41-10.46-8.04-16.22-11.28c-2.38-1.34-4.51-2.89-6.23-5c-0.68-0.83-1.5-1.54-2.3-2.25c-0.47-0.41-1.15-0.72-1.59-0.11
			c-0.23,0.31-0.13,1.06,0.09,1.46c0.49,0.88,1.13,1.67,1.74,2.47c5.53,7.29,11.08,14.58,16.61,21.88c0.48,0.63,0.88,1.31,1.38,2.05
			c-0.25-0.03-0.41,0.01-0.46-0.05c-6.04-6.55-13.28-11.57-20.82-16.18c-8.63-5.28-17.56-9.96-27.14-13.3
			c-1.14-0.4-2.31-0.76-3.5-0.95c-2.54-0.4-5.17,0.99-6.25,3.18c-0.76,1.53-0.42,2.91,1.17,3.5c8.18,3.05,15.01,8.36,22.11,13.17
			c13.17,8.92,25.62,18.8,37.15,29.78c3.5,3.34,6.69,7.01,10.01,10.54c0.3,0.32,0.49,0.76,0.94,0.97
			c-1.68-5.93-4.59-11.18-7.8-16.38c5.98,1.83,11.52,4.42,16.63,8.1c-2.43-5.63-5.13-11.11-8.36-16.71c0.75,0.2,1.19,0.26,1.57,0.44
			c10.41,4.95,20.44,10.58,30.2,16.68c0.9,0.56,1.38,1.27,1.7,2.33c1.52,5.09,3.27,10.11,4.75,15.21c0.83,2.83,1.28,5.77,1.93,8.65
			c1.42,6.31,2.8,12.68,5.77,18.44c3.73,7.22,4.98,14.87,5.12,22.82c0.1,5.72,0.04,11.45,0.09,17.17
			c0.13,16.29,0.26,32.58,0.41,48.87c0.07,7.61,0.21,15.21,0.25,22.82c0.03,5.88-2.13,10.9-6.27,15.05
			c-4.1,4.1-9.04,6.73-14.61,8.23c-0.18,0.05-0.39,0.01-0.69,0.01c-0.18-1.77,0.5-3.3,1.21-4.8c0.31-0.67,0.76-1.27,1.15-1.9
			c0.82-1.32,0.85-1.94,0.11-2.47c-0.73-0.52-1.35-0.35-2.4,0.78c-1.63,1.75-2.85,3.75-3.47,6.07c-0.22,0.84-0.39,1.69-0.64,2.76
			c-4.05-0.18-8.11-0.35-12.34-0.54c0.02-2.71,0.97-4.86,2.44-6.84c0.52-0.7,1.16-1.34,1.55-2.1c0.23-0.45,0.29-1.24,0.05-1.63
			c-0.45-0.73-1.2-0.36-1.79-0.03c-0.46,0.26-0.89,0.6-1.3,0.95c-2.03,1.76-3.44,3.94-4.29,6.49c-0.21,0.62-0.44,1.23-0.78,2.15
			c-1.09-0.95-2.06-1.66-2.86-2.53c-1.36-1.49-1.74-3.14-1.09-5.2c1.56-4.95,4.18-9.32,7.95-12.7c5.01-4.49,6.33-10.08,6.4-16.33
			c0.09-7.79-1.09-15.43-2.63-23.02c-2.05-10.1-4.6-20.07-8.51-29.63c-1.63-3.98-3.26-7.98-6.09-11.34c-0.67-0.8-1.4-1.37-2.37-1.77
			c-4.84-2.02-9.79-3.83-14.45-6.22c-12.51-6.41-22.6-15.71-31.09-26.82c-9.19-12.03-15.9-25.41-21.43-39.43
			c-3.48-8.83-6.39-17.86-8.95-27c-0.24-0.84-0.52-1.67-0.87-2.47c-0.31-0.69-0.77-1.36-1.68-1.13c-0.91,0.23-0.98,1.11-0.95,1.81
			c0.04,1.07,0.28,2.13,0.47,3.19c0.13,0.79,0.31,1.56,0.49,2.44c-4.64,2.42-9.33,4.53-14.26,6.38c-0.2-0.44-0.36-0.73-0.46-1.04
			c-0.15-0.49-0.25-0.99-0.39-1.6c0.37,0.07,0.57,0.07,0.74,0.14c2.06,0.77,2.8,0.22,2.28-1.97c-0.6-2.48-1.37-4.93-2.24-7.33
			c-3.28-9.11-6.64-18.2-9.96-27.3c-0.25-0.67-0.5-1.35-0.59-2.17c6.62,3.86,12.92,8.13,19.51,12.08c-0.75-2.33-1.97-4.43-3.01-6.6
			c-1.07-2.23-2.16-4.45-3.04-6.95c0.6,0.33,1.2,0.68,1.81,0.99c1.07,0.55,2.12,1.21,3.25,1.58c1.62,0.52,2.38-0.16,2.01-1.84
			c-0.27-1.22-0.82-2.42-1.44-3.53c-3.08-5.53-6.21-11.02-9.35-16.51c-1.3-2.27-2.69-4.5-4.31-7.19c8.18,2.3,15.86,4.77,23.58,7.07
			c7.86,2.35,15.71,4.74,23.56,7.14c7.78,2.38,15.55,4.81,23.33,7.21c7.74,2.39,15.49,4.78,23.23,7.17c0.09-0.13,0.18-0.27,0.27-0.4
			c-3.72-4.38-7.45-8.76-11.36-13.36c0.76,0.12,1.26,0.17,1.75,0.29c2.02,0.52,4.03,1.09,6.05,1.6c0.78,0.2,1.58,0.36,2.38,0.4
			c1.81,0.09,2.28-0.58,1.44-2.16c-0.63-1.18-1.41-2.29-2.26-3.33c-7.92-9.74-16.84-18.53-26.21-26.86
			c-6.89-6.13-14.02-11.99-21.03-17.97c-0.5-0.43-0.99-0.87-1.68-1.47c1,0,1.71,0,2.74,0c-3.92-5.04-8.43-9.19-13.32-13.62
			c4.6,0.72,8.47,2.65,12.9,2.74c0.42-2.94-2.16-4.2-3.03-6.47c17.86,2.06,35.55,4.05,53.03,7.87
			c-6.59-5.43-13.73-10.03-20.95-14.74c0.53,0,1.07-0.08,1.58,0.01c5.09,0.96,10.17,1.96,15.26,2.91c1.12,0.21,2.27,0.38,3.4,0.34
			c1.36-0.04,1.8-0.93,0.99-2.04c-0.71-0.96-1.61-1.81-2.53-2.58c-5-4.23-10.38-7.95-16.04-11.21c-6.53-3.76-13.19-7.3-19.79-10.93
			c-0.64-0.35-1.28-0.69-2.39-1.29c6.42-1.81,12.48-3.05,18.54-4.32c6.06-1.26,12.13-2.44,18.21-3.58c6.14-1.15,12.3-2.21,18.44-3.3
			c0.04-0.14,0.07-0.28,0.11-0.42c-5.28-2.51-10.57-5.01-16.25-7.7c2.86-0.46,5.3-0.86,7.75-1.24c2.19-0.34,4.39-0.64,6.59-0.97
			c0.6-0.09,1.21-0.19,1.77-0.4c1.44-0.52,1.87-1.7,0.86-2.83c-0.88-0.98-1.97-1.88-3.13-2.48c-3.94-2.04-7.9-4.08-11.97-5.84
			c-12.93-5.59-26.36-9.75-39.85-13.74c-1.41-0.42-2.82-0.84-4.29-1.61c2.7-0.9,5.4-1.8,8.11-2.69c0-0.14,0.01-0.27,0.01-0.41
			c-6.85-2.26-13.92-3.78-20.93-5.74c6.31-1.58,12.62-3.17,19.2-4.82c0.24,1.77,0.43,3.33,0.67,4.89c0.13,0.86,0.22,1.75,0.53,2.55
			c0.76,1.95,3.01,3.18,5.07,2.89c1.38-0.19,2.37-1.09,2.48-2.51c0.08-1.13,0.11-2.33-0.17-3.41c-0.52-2.01-0.19-3.75,0.75-5.6
			c3.49-6.91,6.73-13.93,10.27-20.81c1.72-3.34,3.86-6.47,5.82-9.69c0.35-0.57,0.77-1.09,1.3-1.58c-3.47,13.97-4.5,28.19-4.99,42.49
			c2.09-0.57,3.22-2.11,4.34-3.69c8.85-12.46,17.56-25.02,26.63-37.32c11.36-15.4,23.75-29.96,37.43-43.39
			c1.1-1.08,2.22-2.13,3.61-3c-0.38,0.58-0.75,1.17-1.15,1.74c-5.6,8-11.01,16.12-15.37,24.89c-0.54,1.08-1.16,2.16-1.46,3.32
			c-0.32,1.21-0.47,2.52-0.37,3.75c0.12,1.47,0.92,2.73,2.43,3.17c1.57,0.47,2.94-0.13,3.98-1.32c1.65-1.89,3.78-3.1,6.03-4.28
			c-0.1,0.21-0.18,0.44-0.31,0.63c-6.07,8.99-10.34,18.87-14.05,28.99c-4.54,12.39-8.21,25.06-11.71,37.77
			c-0.42,1.54-1.02,2.88-2.16,4c-0.67,0.66-1.24,1.42-1.78,2.19c-0.3,0.43-0.54,0.95-0.64,1.46c-0.24,1.26,0.64,2,1.81,1.44
			c0.77-0.37,1.45-0.97,2.07-1.58c3.98-3.92,7.89-7.91,11.92-11.79c10.88-10.46,22.33-20.28,33.99-29.84
			c16.67-13.66,33.55-27.05,51.35-39.22c6.28-4.29,12.77-8.26,19.18-12.36c0.5-0.32,1.04-0.56,2.01-1.07
			c-0.38,0.72-0.49,1.06-0.7,1.31c-12.12,14.74-22.96,30.4-33.66,46.17c-12.35,18.22-24.33,36.69-35.6,55.61
			c-2.51,4.22-5.01,8.46-7.41,12.74c-0.8,1.43-1.75,2.4-3.31,2.99c-2.51,0.95-4.94,2.13-7.4,3.23c-0.73,0.33-1.46,0.71-2.13,1.14
			c-0.57,0.36-1.16,0.86-0.86,1.64c0.35,0.91,1.2,0.76,1.91,0.59c0.85-0.21,1.66-0.55,2.48-0.85c8.09-2.95,16.11-6.12,24.28-8.82
			c10.6-3.5,21.32-6.63,31.99-9.91c0.76-0.23,1.54-0.38,2.46-0.25c-0.58,0.38-1.15,0.78-1.74,1.15
			c-9.46,5.88-18.36,12.51-26.48,20.14c-2.59,2.44-4.92,5.16-7.3,7.81c-0.66,0.74-1.2,1.64-1.58,2.56c-0.67,1.59-0.51,3.18,0.6,4.56
			c1.13,1.42,2.8,1.95,4.36,1.4c2.62-0.92,5.32-0.63,7.96-1c1.99-0.28,4.02-0.41,6.04-0.43c1.6-0.02,3.22,0.18,4.82,0.35
			c2.34,0.25,4.68,0.55,7.01,0.85c0.31,0.04,0.61,0.17,0.94,0.55c-1.11,0.31-2.23,0.58-3.32,0.94c-3.32,1.09-6.65,2.17-9.93,3.36
			c-1.12,0.41-2.21,1.02-3.16,1.75c-1.92,1.48-2.01,3.94-0.24,5.61c0.62,0.59,1.38,1.19,2.18,1.42c3.54,1.02,6.61,2.96,9.73,4.8
			c1.96,1.15,3.82,2.47,5.66,3.94c-5.3,0.09-10.5-0.66-15.73-1.08c-5.22-0.42-10.42-1-15.74-1.23c0.42,0.18,0.86,0.34,1.26,0.56
			c0.45,0.25,1.09,0.46,1.26,0.85c0.41,0.98,1.25,1.18,2.07,1.42c15.6,4.61,30.54,10.88,45.2,17.84
			c14.85,7.05,29.3,14.82,43.26,23.51c0.86,0.53,1.71,1.07,2.56,1.62c0.1,0.06,0.15,0.2,0.23,0.33
			c-32.97-8.13-66.48-11.65-100.51-12.5c0.46,1.93,1.56,2.89,2.64,3.87c6.46,5.91,12.95,11.77,19.34,17.75
			c9.83,9.2,19.44,18.63,28.33,28.76c0.44,0.5,0.87,1.01,1.3,1.52C649.96,459.13,649.92,459.2,649.88,459.27z"/>
		<path class="st0" d="M264.05,193.88c1.42,0.26,2.12-0.5,2.67-1.5c0.74-1.36,1.45-2.74,2.19-4.09
			c9.12-16.59,20.21-31.8,32.39-46.24c2.39-2.83,4.93-5.53,7.41-8.28c0.4-0.44,0.85-0.82,1.61-1.55c-0.74,2.98-1.41,5.5-1.99,8.04
			c-2.89,12.75-4.85,25.64-5.98,38.67c-0.1,1.14-0.12,2.29-0.13,3.43c-0.01,1.27,0.62,2.18,1.73,2.75c1.88,0.96,4.72,0.37,6.12-1.22
			c1.6-1.81,3.2-3.62,4.87-5.36c1.39-1.45,2.89-2.81,4.64-4.5c-0.18,0.78-0.25,1.18-0.37,1.57c-0.73,2.31-1.48,4.61-2.2,6.92
			c-0.18,0.58-0.33,1.17-0.38,1.77c-0.13,1.5,0.55,2.68,1.85,3.29c1.25,0.59,2.71,0.39,3.74-0.63c7.88-7.82,16.82-14.26,26.27-20.03
			c0.57-0.35,1.16-0.68,1.75-1.01c0.1-0.06,0.25-0.04,0.56-0.07c-0.21,0.48-0.37,0.89-0.56,1.27c-4.31,8.28-7.68,16.89-9.37,26.11
			c-0.11,0.59-0.17,1.2-0.25,1.8c-0.22,1.73,0.15,3.25,1.7,4.23c1.71,1.07,3.52,1.33,5.34,0.26c0.63-0.37,1.19-0.88,1.81-1.28
			c7.06-4.59,14.29-8.89,21.98-12.35c0.53-0.24,1.09-0.4,2.13-0.79c-0.65,1.14-1.05,1.87-1.46,2.59
			c-5.22,9.11-10.43,18.22-15.64,27.34c-0.4,0.7-0.82,1.4-1.1,2.16c-0.27,0.74-0.59,1.63,0.35,2.14c0.81,0.44,1.42-0.14,1.9-0.71
			c0.43-0.51,0.8-1.08,1.15-1.65c8.79-14.19,17.42-28.49,26.41-42.55c11.76-18.37,23.94-36.47,36.78-54.11
			c1.78-2.45,3.66-4.83,5.48-7.25c4.41-5.87,9.98-10.55,15.61-15.16c14.22-11.63,29.68-21.43,45.73-30.3
			c29.44-16.28,59.91-30.3,91.63-41.57c14.66-5.21,29.58-9.51,44.92-12.26c0.83-0.15,1.66-0.22,2.49-0.33
			c0.06,0.13,0.12,0.25,0.19,0.38c-0.42,0.48-0.83,0.98-1.28,1.43c-6.34,6.38-13.52,11.72-20.9,16.82c-2.05,1.41-4.17,2.73-6.25,4.1
			c-0.69,0.46-1.4,0.58-2.24,0.65c-1.59,0.12-3.18,0.51-4.73,0.91c-15.59,4.07-30.69,9.59-45.5,15.88
			c-24.61,10.46-48.57,22.25-71.67,35.76c-6.56,3.84-12.88,8.08-19.23,12.28c-9.12,6.03-16.83,13.58-23.54,22.22
			c-9.59,12.34-18.69,25.04-27.39,38.01c-11.1,16.54-22.01,33.22-32.99,49.85c-0.65,0.99-1.5,1.93-1.34,3.38
			c1.41,0.36,2.6-0.18,3.77-0.84c5.71-3.18,11.59-6,17.66-8.43c0.61-0.24,1.24-0.46,2.11-0.4c-0.48,0.46-0.91,0.98-1.43,1.38
			c-4.93,3.75-9.87,7.48-14.81,11.22c-3.33,2.52-6.65,5.05-9.95,7.6c-0.74,0.57-1.44,1.22-2.12,1.87c-2.76,2.62-2.74,4.9,0.23,7.25
			c4.6,3.63,9.64,5.08,15.49,3.19c3.77-1.22,7.7-1.91,11.51-3.01c5.42-1.58,10.79-3.34,16.2-4.97c1.01-0.3,2.1-0.52,3.15-0.47
			c4.17,0.19,8.33,0.51,12.49,0.78c0.23,0.02,0.47,0.07,1.13,0.18c-0.64,0.37-0.88,0.56-1.15,0.66
			c-10.26,3.67-20.43,7.63-31.16,9.78c-3.03,0.61-6.1,1.05-9.15,1.56c-0.73,0.12-1.34,0.15-1.99-0.51c-0.89-0.92-1.7-0.57-1.92,0.73
			c-0.15,0.92-0.16,1.88-0.12,2.82c0.38,8.87,0.81,17.74,1.17,26.62c0.1,2.55,0,5.11,0.09,7.66c0.03,0.73,0.43,1.44,0.65,2.12
			c1.26-0.15,1.42-0.94,1.57-1.64c0.28-1.31,0.52-2.64,0.67-3.97c0.22-1.92,0.16-1.99,1.97-2.48c6.11-1.63,12.23-3.21,18.35-4.79
			c1.1-0.28,2.23-0.47,3.54-0.45c-0.45,0.38-0.88,0.78-1.34,1.13c-6.33,4.8-12.65,9.62-19.01,14.38c-1.6,1.2-2.49,2.63-2.11,4.66
			c0.39,2.1,1.65,3.53,3.63,4.24c0.92,0.33,1.97,0.24,2.91,0.52c2.71,0.81,5.41,1.64,8.07,2.59c5.95,2.12,11.88,4.32,17.82,6.5
			c0.61,0.22,1.18,0.54,2.18,1c-3.51,0.8-6.57,1.51-9.62,2.2c-7.61,1.72-15.23,3.4-22.84,5.14c-3.29,0.75-4.87,3.03-4.22,6
			c0.34,1.54,1.12,2.87,2.32,3.94c0.5,0.44,1.03,0.86,1.47,1.36c5.74,6.52,11.46,13.05,17.18,19.58c0.38,0.43,0.72,0.9,0.93,1.59
			c-0.54-0.21-1.07-0.42-1.61-0.63c-5.69-2.26-11.36-4.55-17.07-6.74c-1.17-0.45-2.49-0.69-3.73-0.69
			c-3.29,0.01-5.37,3.04-4.37,6.17c0.1,0.32,0.26,0.63,0.28,0.95c0.28,4.43,0.55,8.85,0.84,13.65c-0.52-0.53-0.89-0.78-1.08-1.13
			c-1.81-3.3-3.68-6.57-5.36-9.93c-1.16-2.33-1.97-2.64-4.12-1.13c-4.58,3.2-9.04,6.58-13.78,9.52c-12.58,7.81-26.11,13.61-40,18.64
			c-9.31,3.37-18.7,6.44-28.46,8.27c-5.04,0.95-10.13,1.77-15.24,1.02c-3.37-0.5-6.75-1.32-9.96-2.48
			c-16-5.77-31.31-13.01-45.59-22.3c-2.87-1.86-5.47-4.14-8.15-6.27c-2.26-1.8-3.78-4.17-4.89-6.82c-1.65-3.93-2.63-8.05-3.53-12.19
			c-0.09-0.39-0.14-0.8-0.27-1.18c-0.51-1.5-0.91-1.87-2.5-1.68c-4.47,0.54-8.97,0.99-13.39,1.82c-5.22,0.98-10.36,2.33-15.54,3.52
			c-0.37,0.08-0.74,0.15-1.6,0.32c0.89-0.74,1.37-1.2,1.91-1.57c5.1-3.51,10.21-7.01,15.34-10.47c0.82-0.55,1.76-0.96,2.69-1.31
			c1.87-0.71,3.24-2.53,3.22-4.45c-0.02-1.92-0.99-3.16-3.23-3.85c-8.65-2.66-16.78-6.57-24.88-10.52c-0.41-0.2-0.81-0.44-1.21-1
			c0.74-0.12,1.47-0.28,2.21-0.35c7.49-0.8,14.99-1.6,22.48-2.36c0.84-0.09,1.73,0.22,2.56,0.12c1.3-0.16,2.71-0.26,3.84-0.84
			c1.8-0.93,2.21-3.17,1.11-4.89c-0.43-0.67-1.06-1.21-1.58-1.82c-3.12-3.62-6.23-7.23-9.33-10.86c-0.43-0.51-0.77-1.09-1.42-2.02
			c0.82,0.27,1.28,0.39,1.71,0.57c3.29,1.37,6.56,2.78,9.87,4.11c0.9,0.36,1.91,0.47,2.89,0.7c0.79-1.22,0.59-2.38,0.59-3.5
			c0-5.38-0.13-10.76,0.02-16.13c0.23-8.15,1.33-16.22,2.58-24.27c0.19-1.24,0.16-2.52,0.25-3.97c-13.81-1.55-26.94-5.04-39.8-9.87
			c2.5-0.16,4.99-0.34,7.49-0.49c4.03-0.24,8.06-0.43,12.09-0.72c1.05-0.08,1.97,0.09,2.93,0.49c3.97,1.67,8.01,3.19,11.92,4.97
			c4.64,2.11,8.76,1.48,12.5-1.89c1.44-1.3,2.96-2.58,4.15-4.1c1.94-2.49,1.62-4.54-0.66-6.76c-8.09-7.9-16.22-15.77-23.63-24.33
			c-0.38-0.44-0.75-0.9-0.92-1.68c0.61,0.33,1.23,0.64,1.83,0.99c6.84,3.96,13.25,8.51,19.21,13.7c0.68,0.59,1.27,1.5,2.45,1.03
			c0.65-1.09,0.12-2.08-0.36-3.02c-2.23-4.38-4.34-8.82-6.77-13.08c-13.47-23.66-28.25-46.46-44.51-68.32
			c-10.14-13.63-22.62-24.65-36.58-34.15C101,75.05,81.22,63.17,60.61,52.71c-5.82-2.95-11.82-5.53-17.76-8.23
			c-1.03-0.47-2.18-0.64-3.25-1.02c-0.55-0.19-1.12-0.46-1.56-0.83c-10.22-8.65-19.3-18.37-27.08-29.27
			c-0.26-0.36-0.43-0.78-0.81-1.46c0.98,0.31,1.67,0.51,2.35,0.75c9.97,3.55,19.61,7.86,29.09,12.53
			c29.07,14.33,57.17,30.36,84.48,47.81c8.51,5.44,16.79,11.22,24.54,17.73c5.15,4.32,9.46,9.36,13.33,14.83
			c8.05,11.39,15.21,23.35,22.25,35.37c11.7,19.98,22.93,40.22,33.57,60.79c1.14,2.21,2.22,4.46,3.41,6.65
			c0.47,0.87,1.13,1.66,1.8,2.41c0.2,0.23,0.8,0.33,1.07,0.19c0.28-0.14,0.54-0.66,0.5-0.99c-0.08-0.72-0.27-1.46-0.54-2.13
			c-0.5-1.25-1.14-2.44-1.63-3.69c-0.24-0.6-0.48-1.31-0.4-1.92c0.62-4.46,1.33-8.91,2.02-13.37c0.02-0.11,0.15-0.21,0.37-0.51
			c0.27,0.58,0.54,1.05,0.72,1.56c0.96,2.73,1.88,5.47,2.85,8.19c0.67,1.89,1.56,2.56,3.14,2.65c1.58,0.09,2.55-0.78,3.2-2.03
			c0.46-0.89,0.68-1.89,1.06-2.83c5.33-13.06,11.8-25.53,19.57-37.3c0.25-0.38,0.55-0.72,0.87-1.12
			C259.19,160.43,262.1,177.34,264.05,193.88z M369.19,259.93c-0.58-1.44-1.76-1.54-2.91-1.5c-3.23,0.09-6.46,0.1-9.67,0.42
			c-10.88,1.08-21.01,4.51-30.36,10.15c-6.75,4.07-12.32,9.35-15.82,16.55c-3.57,7.37-5.36,15.2-5.72,23.35
			c-0.09,2,0.13,4.02,0.35,6.02c0.07,0.65,0.56,1.26,0.73,1.63c1.1-0.09,1.9-0.36,2.61-0.19c10.87,2.56,21.65,1.83,32.34-0.98
			c10.13-2.66,16.99-8.75,20.14-18.98c3.32-10.77,5.14-21.71,4.72-32.99c-0.02-0.66,0-1.31,0-1.98
			C366.87,260.98,368.35,261.37,369.19,259.93z M207.85,259.73c-0.11,0.48-0.24,0.99-0.35,1.5c-0.46,2.24-1.08,4.46-1.35,6.72
			c-1.04,8.82,0.19,17.44,2.42,25.96c2.33,8.89,7.84,14.76,16.41,18.02c6.71,2.55,13.54,4.02,20.72,3.33
			c1.17-0.11,2.19-0.12,3.02,0.73c1.13-1.08,1.27-1.27,1.34-2.86c0.11-2.55,0.23-5.11,0.19-7.67c-0.12-7.79-1.7-15.27-5.48-22.12
			c-6.56-11.9-16.66-19.7-29.22-24.48c-2.97-1.13-6.01-2.02-9.25-1.5c-0.48,0.08-0.93,0.28-1.38,0.42c0.1,0.35,0.09,0.54,0.17,0.59
			C205.97,258.81,206.86,259.24,207.85,259.73z M299.81,356.27c7.47,0.05,13.77-4.03,16.72-10.88c0.24-0.55,0.46-1.14,0.52-1.72
			c0.04-0.34-0.17-0.92-0.42-1.01c-0.36-0.14-1.01-0.11-1.26,0.13c-0.57,0.55-1.01,1.25-1.44,1.93c-1.98,3.12-4.64,5.4-8.15,6.6
			c-3.79,1.3-7.61,1.36-11.51,0.31c-4.41-1.19-8.86-2.28-13.33-3.22c-3.02-0.64-6.1-1.15-9.21-0.58c-4.7,0.86-9.4,1.71-14.08,2.65
			c-6.56,1.31-11.98-0.35-15.98-5.92c-0.27-0.38-0.53-0.84-0.91-1.06c-0.46-0.28-1.05-0.35-1.59-0.51c-0.1,0.56-0.27,1.11-0.28,1.67
			c-0.01,0.31,0.19,0.65,0.38,0.92c1.04,1.48,1.96,3.09,3.21,4.37c1.64,1.69,3.58,3.22,6.04,3.4c6.58,0.47,13.15,0.63,19.71-0.53
			c3.08-0.54,6.21-1.28,9.4-0.66c3.96,0.77,7.92,1.53,11.88,2.3C292.94,355.12,296.26,356.34,299.81,356.27z M266.44,334.19
			c2.15,4.48,8.22,4.25,10.17-0.05c-1.46-1.31-2.86-1.6-6.85-1.35C268.5,332.86,267.17,332.88,266.44,334.19z"/>
		<path class="st1" d="M462.86,368.42c-0.53-0.22-1.08-0.42-1.6-0.66c-11.16-5.11-22.66-9.25-34.62-12.07
			c-0.46-0.11-0.94-0.31-1.38-0.24c-0.61,0.09-1.42,0.23-1.74,0.65c-0.47,0.62,0.09,1.27,0.62,1.71c0.46,0.39,0.97,0.73,1.48,1.04
			c9.41,5.56,18.23,11.97,26.81,18.72c16.68,13.12,32.89,26.77,47.99,41.71c2.87,2.84,5.69,5.74,8.52,8.61
			c0.47,0.48,0.89,1,1.58,1.78c-0.6-0.14-0.88-0.15-1.1-0.27c-13.1-7-26.91-12.29-40.88-17.21c-15.93-5.61-32.05-10.63-48.5-14.51
			c-2.55-0.6-5.11-1.18-7.67-1.75c-0.33-0.07-0.66-0.13-1-0.14c-1.38-0.04-1.92,0.57-1.47,1.87c0.33,0.94,0.86,1.82,1.36,2.69
			c6.92,11.85,13.86,23.7,20.79,35.55c0.34,0.58,0.63,1.18,0.76,2c-0.47-0.39-0.98-0.74-1.41-1.17
			c-7.39-7.27-14.77-14.56-22.16-21.83c-1.1-1.08-2.26-2.11-3.42-3.13c-0.45-0.39-1.06-0.91-1.57-0.31
			c-0.32,0.37-0.3,1.08-0.31,1.64c-0.01,0.31,0.18,0.65,0.33,0.95c4.94,9.82,8.71,20.12,12.54,30.4
			c3.48,9.33,6.79,18.72,10.17,28.08c0.2,0.55,0.33,1.12,0.62,2.15c-0.64-0.71-0.97-1.03-1.25-1.39
			c-8.75-11.3-18.41-21.81-28.18-32.21c-4.75-5.05-9.45-10.14-14.19-15.2c-0.53-0.57-1-1.55-1.91-1.21
			c-1.03,0.39-0.68,1.5-0.62,2.33c0.05,0.73,0.26,1.46,0.47,2.16c4.7,16.16,8.39,32.57,11.61,49.07
			c2.28,11.68,4.32,23.41,6.36,35.14c0.85,4.9,1.41,9.86,2.09,14.79c0.02,0.17-0.05,0.35-0.14,0.83c-0.31-0.55-0.53-0.87-0.68-1.22
			c-7.09-15.81-15.39-30.96-24.3-45.8c-5.75-9.58-11.39-19.22-17.16-28.8c-0.78-1.3-1.86-2.48-3.01-3.47
			c-1.51-1.29-3.43-1.52-5.35-1.2c-2.32,0.38-3.69,2.07-3.94,4.47c-0.55,5.42-1.15,10.83-1.75,16.24c-0.13,1.18-0.31,2.35-0.84,3.54
			c-0.31-0.86-0.64-1.71-0.94-2.58c-1.84-5.27-3.66-10.55-5.52-15.81c-1.01-2.85-2.84-4.12-5.59-3.99
			c-1.64,0.08-2.77,1.07-3.02,2.69c-0.59,3.85-1.22,7.69-1.73,11.55c-1.09,8.34-2.24,16.67-3.13,25.03
			c-0.92,8.63-1.63,17.28-2.28,25.94c-0.5,6.57-0.84,13.16-1.1,19.75c-0.22,5.45-0.21,10.9-0.3,16.35c-0.01,0.32,0,0.64-0.26,1.02
			c-0.29-0.86-0.61-1.72-0.85-2.59c-8.02-28.21-15.62-56.54-22.07-85.15c-2.04-9.05-3.57-18.21-5.34-27.33
			c-0.41-2.11-0.6-4.29-1.27-6.3c-1.2-3.57-4.1-5.41-7.74-5.28c-2.08,0.07-3.15,0.99-3.72,3.03c-0.46,1.63-0.25,3.21,0.18,4.78
			c0.21,0.76,0.21,1.36-0.29,2.06c-13.79,19.17-23.56,40.4-31.83,62.38c-0.11,0.3-0.26,0.59-0.66,0.91
			c-0.04-0.41-0.15-0.82-0.12-1.22c0.73-7.77,1.34-15.55,2.26-23.3c0.99-8.36,2.71-16.59,4.83-24.74c0.12-0.45,0.22-0.93,0.2-1.39
			c-0.02-0.72-0.14-1.44-0.25-2.48c-0.72,0.53-1.3,0.93-1.84,1.37c-9.08,7.38-17,15.91-24.51,24.82
			c-11.42,13.56-22.11,27.66-31.39,42.79c-2.43,3.96-4.6,8.06-6.9,12.1c-0.35,0.62-0.72,1.23-1.43,1.71
			c0.18-1.29,0.33-2.59,0.56-3.87c4-22.49,9.66-44.56,16.95-66.21c4.11-12.19,8.96-24.09,14.87-35.53c0.46-0.89,0.92-1.81,1.18-2.77
			c0.14-0.5,0.02-1.33-0.32-1.62c-0.32-0.27-1.16-0.18-1.63,0.05c-3.98,1.96-7.99,3.89-11.88,6.01
			c-19.55,10.69-38.03,22.95-55.01,37.4c-5.34,4.54-10.38,9.39-15.02,14.66c-0.31,0.35-0.64,0.68-1.25,0.88
			c0.29-0.69,0.55-1.4,0.86-2.08c6.65-14.68,14.52-28.69,23.2-42.26c7.88-12.32,16.29-24.26,25.93-35.29
			c2.7-3.09,5.57-6.04,8.34-9.06c0.54-0.59,1.11-1.2,1.46-1.9c0.19-0.38,0.13-1.14-0.13-1.44c-0.25-0.27-1-0.33-1.4-0.16
			c-0.66,0.28-1.26,0.77-1.81,1.26c-2,1.8-3.76,3.97-6.01,5.36c-2.25,1.39-4.99,1.95-7.48,2.96c-11.31,4.61-21.38,11.05-29.61,20.18
			c-0.21,0.24-0.46,0.44-1,0.96c0.18-0.71,0.22-1.02,0.34-1.31c3.05-7.55,6.23-15.05,10.29-22.13c0.66-1.15,1.36-2.22,2.42-3.14
			c1.22-1.06,1.8-2.67,1.96-4.32c0.26-2.67-1.36-4.6-4.12-4.61c-1.94-0.01-3.89,0.25-5.81,0.56c-15.1,2.41-29.27,7.53-42.73,14.71
			c-0.52,0.28-1.05,0.53-1.79,0.61c0.19-0.28,0.35-0.6,0.58-0.85c12.16-13.28,24.98-25.86,39.74-36.3c1.98-1.4,3.99-2.75,6.06-4.01
			c1.07-0.65,2.26-1.13,3.44-1.54c3.16-1.09,4.12-4.46,1.93-6.98c-1.05-1.21-2.42-1.98-3.98-2.23c-2.78-0.46-5.58-0.93-8.39-1.13
			c-9.1-0.64-18.15-0.07-27.19,1.07c-10.9,1.38-21.64,3.5-32.2,6.55c-2.24,0.65-4.46,1.35-6.84,1.73c0.52-0.38,1.02-0.78,1.56-1.12
			c15.49-10.02,31.79-18.4,49.29-24.34c8.42-2.86,17-5.11,25.77-6.64c1.63-0.29,3.41-0.34,4.43-2.35c-1.86-1.73-3.71-3.58-5.7-5.28
			c-7.79-6.67-16.64-11.61-25.94-15.82c-6.08-2.75-12.31-5.08-18.76-6.81c-0.43-0.12-0.85-0.3-1.23-0.73c2.3-0.1,4.6-0.22,6.91-0.3
			c11.03-0.36,22.06-0.71,33.09-1.07c5.51-0.18,11.03-0.43,16.54-0.51c1.46-0.02,2.2-1.08,3.6-1.53
			c-12.73-6.66-25.67-12.34-37.94-19.98c0.67-0.22,1.01-0.41,1.37-0.44c8.71-0.87,17.41-1.7,26.12-2.59
			c1.14-0.12,2.08,0.09,3.02,0.74c1.1,0.76,2.25,1.49,3.47,2.06c2.71,1.26,4.73,0.36,5.75-2.44c1.27-3.5,0.38-5.95-2.94-7.78
			c-18.88-10.41-36.23-23.01-52.88-36.63c-0.51-0.41-0.97-0.88-1.76-1.62c1.11-0.11,1.82-0.21,2.53-0.24
			c12.03-0.54,24.06-1.07,36.09-1.6c0.13-0.01,0.27,0,0.4-0.02c4.47-0.59,8.64,0.11,12.53,2.53c1.64,1.02,3.52,1.68,5.28,2.51
			c0.4,0.19,0.78,0.43,1.1,0.96c-1.78,0.09-3.56,0.28-5.33,0.24c-6.46-0.13-12.91-0.35-19.37-0.51c-0.67-0.02-1.35,0.02-2,0.16
			c-1.6,0.36-1.84,1.16-0.68,2.38c0.5,0.53,1.11,0.98,1.71,1.41c6.25,4.54,13.14,7.89,20.25,10.81c7.41,3.05,15.02,5.53,22.72,7.74
			c0.7,0.2,1.39,0.43,2.25,0.7c-2,10.66-2.83,21.33-2.07,32.37c-0.97-0.36-1.65-0.59-2.32-0.86c-4.48-1.84-8.95-3.72-13.44-5.52
			c-1.06-0.42-2.37-1.52-3.31-0.35c-0.84,1.04,0.16,2.31,0.72,3.35c3.36,6.22,6.76,12.41,10.14,18.62c0.35,0.64,0.66,1.3,1.13,2.21
			c-2.67,0.27-5.12,0.53-7.57,0.76c-7.77,0.7-15.55,1.39-23.32,2.08c-0.27,0.02-0.54,0.03-0.8,0.09c-1.84,0.42-2.24,1.51-0.89,2.84
			c1.48,1.46,3.1,2.79,4.75,4.06c6.69,5.16,14.02,9.28,21.54,13.08c1.07,0.54,2.15,1.07,3.57,1.78c-0.96,0.61-1.66,1.04-2.35,1.49
			c-5.97,3.89-11.97,7.75-17.9,11.72c-1.55,1.04-2.88,2.42-4.3,3.66c-0.3,0.26-0.65,0.54-0.82,0.88c-0.31,0.63-0.81,1.38-0.69,1.97
			c0.19,0.97,1.24,0.91,2.03,0.86c2.82-0.16,5.64-0.34,8.46-0.58c7.11-0.61,14.21-1.27,21.31-1.9c1.32-0.12,2.64-0.21,4.18-0.33
			c-0.81,2.9-1.55,5.55-2.3,8.19c-0.82,2.91-1.67,5.82-2.46,8.74c-0.18,0.67-0.19,1.39-0.29,2.28c4.07-0.38,6.79-3.04,10.06-4.53
			c0.14,0.13,0.34,0.23,0.43,0.4c4.33,7.84,10.37,14.23,17.18,19.92c11.36,9.5,23.64,17.6,37.25,23.55
			c6.19,2.71,12.6,4.69,19.35,5.44c4.98,0.56,9.95,0.35,14.9-0.36c10.18-1.47,19.92-4.55,29.47-8.26
			c12.44-4.84,24.54-10.38,35.91-17.43c6.2-3.84,12.05-8.14,17.31-13.2c1.79-1.72,3.43-3.59,5.17-5.42c3.36,2.23,5.87,5.6,9.83,7.03
			c0.59-0.88,0.77-1.57,0.54-2.52c-0.27-1.09-0.18-2.27-0.25-3.41c-0.24-4.23-0.49-8.46-0.73-12.7c-0.03-0.46,0-0.92,0-1.62
			c1.67,0.3,3.18,0.49,4.65,0.84c8.18,1.94,16.34,3.96,24.53,5.84c1.25,0.29,2.62,0.04,3.93,0.04c0.48-1.3-0.25-2.07-0.9-2.81
			c-2.44-2.79-4.91-5.55-7.37-8.31c-5.1-5.74-10.2-11.47-15.3-17.21c-0.39-0.44-0.75-0.92-1.28-1.58c0.73-0.3,1.31-0.56,1.9-0.79
			c11.47-4.29,22.94-8.56,34.4-12.87c1.06-0.4,2.13-0.86,3.08-1.48c1.23-0.8,1.21-1.75-0.02-2.51c-0.85-0.53-1.8-0.91-2.73-1.28
			c-9.46-3.72-19.16-6.72-28.89-9.66c-1.35-0.41-2.7-0.81-4.3-1.3c0.44-0.52,0.72-0.91,1.07-1.25c7.42-7.24,14.7-14.62,21.45-22.5
			c1.41-1.65,1.46-1.77,1.81-3.43c-1.41-0.33-2.8-0.55-4.28-0.27c-9.27,1.71-18.4,4.03-27.43,6.69c-0.64,0.19-1.28,0.35-2.08,0.57
			c-0.13-5.48-0.26-10.81-0.4-16.33c10.55-3.25,20.91-7.14,30.96-11.86c0.92,2.48,1.81,2.97,4.27,2.76
			c5.22-0.44,10.45-0.86,15.68-1.18c6.51-0.4,13.03-0.72,19.55-1.03c1.2-0.06,2.42,0,3.62,0.1c7.18,0.56,14.35,1.15,21.53,1.73
			c4.76,0.39,9.51,0.79,14.33,1.56c-0.65,0.17-1.29,0.34-1.94,0.51c-14.54,3.8-28.74,8.59-42.41,14.86
			c-0.61,0.28-1.23,0.56-1.78,0.95c-1.4,0.98-2.05,2.75-1.64,4.25c0.41,1.49,1.9,2.75,3.61,2.77c5.91,0.07,11.56,1.62,17.28,2.82
			c2.55,0.54,5.07,1.24,7.59,2.14c-0.57,0.13-1.14,0.31-1.72,0.38c-11.65,1.46-22.97,4.43-34.27,7.49c-0.19,0.05-0.42,0.08-0.57,0.2
			c-0.49,0.4-1.24,0.77-1.35,1.27c-0.21,0.92,0.72,1.21,1.42,1.38c1.96,0.45,3.95,0.82,5.93,1.22c12.28,2.48,24.31,5.9,36.28,9.56
			c12.87,3.93,25.67,8.08,38.07,13.36c2.39,1.02,4.73,2.13,7.5,3.38c-2.48,0-4.45-0.03-6.43,0.01c-4.77,0.08-9.56-0.02-14.31,0.34
			c-21.19,1.62-42,5.51-62.57,10.77c-0.45,0.12-0.89,0.27-1.36,0.41c0.59,1.52,1.75,2.25,3.2,2.66c8.86,2.45,17.24,6.11,25.47,10.13
			c12.47,6.09,24.56,12.86,36.17,20.48c0.55,0.36,1.08,0.76,1.57,1.42c-0.39-0.05-0.8-0.03-1.16-0.14
			c-12.62-3.91-25.48-6.78-38.49-8.92c-4.84-0.8-9.75-1.2-14.63-1.67c-1.31-0.13-2.71,0.01-3.99,0.33
			c-0.92,0.24-1.85,0.86-2.52,1.55c-2.25,2.33-1.59,5.4,1.34,6.8c0.84,0.4,1.68,0.83,2.43,1.37c4.07,3,7.73,6.45,11.2,10.11
			C463.01,368.16,462.94,368.29,462.86,368.42z"/>
		<path class="st0" d="M337.46,486.83c2.26,3.92,4.41,7.91,6.81,11.74c2.42,3.87,5.08,7.59,7.88,11.32
			c1.23-4.03,1.78-8.09,2.3-12.16c0.52-4.06,0.94-8.13,1.43-12.4c0.32,0.36,0.65,0.63,0.85,0.98c11.63,19.57,24.33,38.44,37.05,57.3
			c1.03,1.52,1.48,3.01,1.49,4.86c0.07,11.37,0.52,22.74,1.6,34.06c0.34,3.54,0.88,7.08,1.49,10.58c0.93,5.34,1.01,10.73,0.78,16.1
			c-0.44,10.42-0.92,20.84-1.65,31.24c-0.88,12.48-2.03,24.95-4.36,37.27c-0.54,2.83-1.11,5.7-2.07,8.41
			c-2.73,7.7-8.52,12-16.26,13.95c-0.05,0.01-0.12-0.05-0.34-0.16c-0.55-1.58-0.15-3.21,0.43-4.77c0.39-1.05,1.06-2.01,1.64-2.99
			c0.27-0.46,0.65-0.86,0.92-1.32c0.35-0.6,0.66-1.37-0.02-1.81c-0.38-0.25-1.13-0.08-1.66,0.08c-0.42,0.13-0.78,0.51-1.15,0.81
			c-2.94,2.44-4.13,5.72-4.42,9.41c-0.04,0.53-0.06,1.06-0.1,1.78c-3.82,0.56-7.58,0.93-11.54,0.21c-0.53-2.87,0.04-5.5,1.4-7.97
			c0.55-1,1.3-1.88,1.92-2.84c0.33-0.51,0.63-1.08,0.07-1.64c-0.52-0.51-1.1-0.45-1.66-0.11c-0.4,0.24-0.77,0.53-1.12,0.85
			c-2.4,2.24-3.77,5.03-4.4,8.22c-0.15,0.77-0.29,1.55-0.46,2.41c-2.41-0.72-4.13-2.07-5.42-3.94c-0.33-0.48-0.43-1.26-0.35-1.86
			c0.49-3.71,1.88-7.15,3.49-10.49c1.2-2.48,2.39-5,3.91-7.29c2.44-3.68,3.27-7.76,3.63-12.03c0.72-8.47,0.58-16.95,0.04-25.41
			c-0.55-8.8-1.23-17.58-1.83-26.38c-1.1-16.05-5.48-31.36-10.51-46.52c-4.03-12.14-8.64-24.06-13.52-35.87
			c-0.53-1.27-0.76-2.52-0.63-3.9c0.92-9.91,1.75-19.84,2.69-29.75c0.31-3.31,0.84-6.61,1.26-9.91
			C337.22,486.87,337.34,486.85,337.46,486.83z"/>
		<path class="st0" d="M219.98,529.66c3.56,0.31,6.8,1.33,9.89,2.83c6.42,3.13,11.2,8.08,15.07,13.96
			c4.78,7.26,7.49,15.3,8.81,23.85c0.92,5.94,1.17,11.91,0.83,17.9c-0.37,6.41-1.8,12.64-3.45,18.82
			c-2.51,9.44-5.98,18.56-9.29,27.72c-3.66,10.12-7.38,20.21-11.16,30.28c-0.97,2.58-2.21,5.05-3.38,7.55
			c-3.01,6.47-8.3,10.06-15.03,11.74c-2,0.5-4.04,0.94-6.27,0.75c-0.2-2.16,0.52-4.01,1.48-5.77c0.51-0.94,1.26-1.74,1.83-2.65
			c0.4-0.64,0.68-1.36,1.07-2.17c-1.63-0.53-2.75-0.24-3.78,0.69c-2.38,2.13-4.05,4.65-4.68,7.82c-0.13,0.65-0.29,1.29-0.47,2.1
			c-3.79-0.2-7.48-0.66-11.17-1.98c-0.04-3,1.1-5.51,2.82-7.82c0.48-0.65,1.02-1.27,1.36-1.99c0.47-0.99-0.21-1.82-1.27-1.52
			c-0.68,0.19-1.35,0.61-1.88,1.1c-1.91,1.76-3.34,3.86-4.22,6.32c-0.22,0.62-0.44,1.25-0.71,1.99c-1.85-0.72-3.08-2.04-3.95-3.62
			c-0.29-0.53-0.12-1.44,0.09-2.09c0.91-2.86,2.45-5.4,4.37-7.67c1.78-2.1,3.61-4.19,5.65-6.03c5.94-5.39,10.24-11.89,13.6-19.11
			c3.2-6.88,5.13-14.13,6.54-21.56c1.71-8.98,3.6-17.93,5.27-26.92c1.6-8.68,2.31-17.46,2.42-26.29c0.04-3.77,0.2-7.54,0.13-11.3
			c-0.15-8.47-0.4-16.94-0.6-25.42C219.89,530.69,219.95,530.24,219.98,529.66z"/>
		<path class="st2" d="M625.93,17.94c-0.46,1.09-0.7,1.76-1.01,2.39c-15,30.15-31.44,59.48-49.69,87.8
			c-5.21,8.09-10.79,15.94-16.67,23.56c-1.15,1.49-2.46,2.15-4.22,2.24c-0.27,0.01-0.54,0.05-0.81,0.01c-3.44-0.49-6,1.13-8.18,3.5
			c-1.18,1.28-2.22,2.7-3.21,4.13c-0.41,0.58-0.64,1.34-0.76,2.05c-0.3,1.89,0.51,2.97,2.39,2.79c2.8-0.27,5.6-0.74,8.36-1.3
			c8.38-1.71,16.49-4.42,24.69-6.82c0.7-0.2,1.39-0.41,2.25-0.33c-0.6,0.48-1.2,0.98-1.81,1.45c-15.32,11.72-31.52,22.1-48.28,31.6
			c-35.11,19.91-71.47,37.21-109.18,51.64c-11.81,4.52-23.8,8.54-35.97,11.99c-1.1,0.31-2.18,0.68-3.26,1.06
			c-0.38,0.13-0.87,0.28-1.04,0.58c-0.9,1.55-2.36,1.31-3.72,1.18c-3.63-0.32-6.7-1.95-9.29-4.42c-1.58-1.51-1.59-2.61,0-4.13
			c1.8-1.72,3.68-3.36,5.67-4.85c5.43-4.08,10.94-8.07,16.42-12.1c0.2-0.14,0.43-0.23,0.86-0.18c-0.27,0.41-0.53,0.83-0.83,1.21
			c-2.43,3.14-4.91,6.25-7.29,9.42c-0.99,1.32-1.81,2.78-2.71,4.17c0.08,0.13,0.17,0.26,0.25,0.39c1.78-0.52,3.6-0.93,5.34-1.58
			c25.58-9.62,50.71-20.29,75.3-32.21c14.3-6.92,28.3-14.39,41.91-22.6c12.79-7.71,23.66-17.45,32.96-29.1
			c8.79-11.01,17-22.42,24.83-34.11c9.71-14.48,19.08-29.17,27.57-44.41c4-7.17,7.88-14.41,10.99-22.02
			c0.92-2.26,2.26-3.71,4.27-4.97c8.05-5.06,15.65-10.74,22.72-17.1C625.03,18.67,625.29,18.47,625.93,17.94z"/>
		<path class="st2" d="M205.99,686.58c2.15-0.35,4.22-0.57,6.24-1.03c7.54-1.7,13.32-5.78,16.45-12.98
			c2.76-6.35,5.39-12.76,7.78-19.26c4.48-12.18,8.8-24.42,13.05-36.69c2.56-7.38,4.52-14.94,5.71-22.67
			c0.89-5.75,0.88-11.53,0.48-17.31c-0.52-7.42-1.96-14.66-4.82-21.57c-2.87-6.92-6.81-13.14-12.39-18.22
			c-4.79-4.36-10.36-7.2-16.79-8.26c-0.53-0.09-1.05-0.22-1.58-0.34c-0.05-0.01-0.1-0.08-0.25-0.22c-0.11-2.24-0.21-4.58-0.36-6.92
			c-0.4-6.11-0.8-12.22-1.26-18.32c-0.08-1.02,0.44-1.64,0.99-2.32c5.12-6.25,10.21-12.52,15.39-18.72
			c3.19-3.82,6.52-7.53,9.8-11.28c0.43-0.49,0.92-0.92,1.71-1.71c-0.2,1.29-0.32,2.13-0.47,2.96c-1.58,8.96-2.53,17.98-2.98,27.06
			c-0.24,4.97-0.4,9.95-0.54,14.92c-0.03,0.86,0.12,1.75,0.31,2.6c0.28,1.27,1.1,1.52,2,0.55c0.72-0.78,1.29-1.72,1.82-2.65
			c3.06-5.46,6.09-10.93,9.13-16.4c0.39-0.7,0.82-1.38,1.31-2.19c0.3,0.33,0.55,0.53,0.7,0.79c5.1,8.42,11.46,15.78,18.87,22.23
			c1.19,1.04,1.38,1.98,1.12,3.48c-2.02,11.46-4.03,22.92-5.86,34.41c-1.05,6.64-1.81,13.33-2.59,20.01
			c-0.36,3.14-0.6,6.31-0.61,9.46c-0.02,5.75-1.27,11.22-3.37,16.51c-9.13,22.94-18.3,45.86-27.44,68.79
			c-2.33,5.85-5.17,11.4-9.46,16.1c-3.77,4.13-8.28,7.04-13.74,8.41c-3.25,0.82-5.3-0.05-6.8-3.06
			C206.58,690.82,205.92,688.8,205.99,686.58z"/>
		<path class="st2" d="M449.25,511.79c-0.43,7.94,0.33,15.27,2.1,22.5c1.04,4.26,2.43,8.39,4.13,12.43
			c0.81,1.92,1.44,3.91,2.22,5.84c0.96,2.38,0.54,4.57-0.6,6.78c-2.01,3.88-4.01,7.78-5.88,11.73
			c-8.14,17.15-15.55,34.61-22.88,52.11c-5.07,12.1-10.05,24.24-15.04,36.37c-1.02,2.47-2.35,4.68-4.43,6.4
			c-0.24,0.2-0.54,0.34-1.12,0.7c0-0.77-0.02-1.27,0-1.77c0.24-4.57,0.47-9.14,0.76-13.7c0.05-0.72,0.3-1.44,0.58-2.12
			c1.15-2.8,2.25-5.63,3.53-8.37c3.58-7.67,5.46-15.89,7.98-23.9c0.46-1.48,0.82-2.99,1.32-4.45c1.93-5.63,1.64-11.25-0.02-16.87
			c-1.33-4.48-3.23-8.7-5.78-12.62c-1.29-1.99-2.76-3.88-4.8-5.12c-1.53-0.93-3.24-1.55-5.27-2.5c-2.79-10.72-4.03-22.09-4.13-33.76
			c0.35,0.42,0.72,0.83,1.06,1.26c0.83,1.05,1.59,2.18,2.52,3.15c0.41,0.43,1.25,0.86,1.7,0.71c0.44-0.15,0.88-1.03,0.89-1.6
			c0.03-2.42-0.08-4.83-0.19-7.25c-0.07-1.53-0.24-3.06-0.38-4.7C421.93,527.13,435.62,520,449.25,511.79z"/>
		<path class="st2" d="M187.79,196.73c1.77,1.93,3.47,3.93,5.31,5.79c4.45,4.5,8.96,8.93,13.45,13.38c0.86,0.85,1.74,1.69,2.59,2.55
			c1.03,1.04,1.16,2.23,0.52,3.52c-0.18,0.36-0.37,0.73-0.61,1.04c-2.22,2.78-4.91,4.98-8.2,6.37c-0.6,0.26-1.28,0.34-1.82,0.13
			c-1.23-0.75-2.4-1.66-3.71-2.24c-37.9-16.68-73.96-36.79-108.88-58.96c-7.32-4.65-14.27-9.89-21.38-14.87
			c-0.58-0.41-1.12-0.89-1.6-1.47c6.25,1.75,12.53,3.06,19,3.46c0.21-1.74-0.6-2.97-1.37-4.23c-6.78-11-13.76-21.88-20.28-33.03
			C46.38,93.54,33.1,68.3,21.66,42.13c-3.23-7.39-6.02-14.97-9-22.48c-0.27-0.68-0.45-1.39-0.45-2.24c0.35,0.41,0.72,0.81,1.06,1.23
			c7.18,9.12,15.1,17.55,24.02,25c0.65,0.55,0.91,1.17,1.17,1.98c0.91,2.88,1.95,5.73,3.08,8.53c4.49,11.04,9.82,21.7,15.28,32.28
			c6.98,13.51,14.21,26.89,22,39.96c2.79,4.68,5.76,9.26,8.63,13.89c6.88,11.07,15.87,20.14,26.28,27.92
			c15.19,11.35,31.43,21.01,48.18,29.85c10.84,5.72,21.93,10.89,33.49,15.01c0.92,0.33,1.84,0.9,2.93,0.32
			c0.47-1.1-0.33-1.73-0.94-2.41c-3.3-3.67-6.18-7.64-8.71-11.86c-0.41-0.68-0.79-1.38-1.18-2.07
			C187.59,196.93,187.69,196.83,187.79,196.73z"/>
		<path class="st3" d="M198.22,351.06c1.18-0.88,2.2-1.63,3.23-2.39c5.62,7.35,13.26,12.03,20.97,16.54
			c11.99,7.01,24.55,12.82,37.5,17.86c9.64,3.76,19.34,4.11,29.34,2.04c15.11-3.13,29.47-8.43,43.54-14.6
			c11.25-4.94,21.97-10.83,31.75-18.33c0.9-0.69,1.79-1.39,2.73-2.11c1.79,1.96,3.5,3.84,5.22,5.72c0.17-0.06,0.33-0.12,0.5-0.18
			c-0.49,0.6-0.97,1.22-1.49,1.8c-5.2,5.81-11.2,10.7-17.75,14.87c-17.84,11.35-37,19.75-57.4,25.31
			c-5.92,1.61-11.96,2.6-18.11,2.78c-8.3,0.24-16.14-1.73-23.77-4.79c-10.88-4.37-20.76-10.51-30.23-17.32
			c-6.85-4.93-13.36-10.26-18.8-16.76c-2.32-2.78-4.28-5.86-6.38-8.82C198.76,352.23,198.57,351.72,198.22,351.06z"/>
		<path class="st2" d="M305.12,532.11c-15.48-6.77-35.28-24.29-45.76-41.04c7.67-12.95,15.27-26.06,23.68-38.76
			c2.76,13.58,5.96,26.97,9.7,40.22C296.46,505.71,300.38,518.83,305.12,532.11z"/>
		<path class="st2" d="M568.2,530.01c0.73,1.41,1.24,2.41,1.76,3.4c2.81,5.31,5.98,10.4,9.94,14.92c3.71,4.23,4.89,9.05,4.57,14.57
			c-0.24,4.22,0.02,8.47,0.2,12.7c0.63,14.78,1.33,29.57,2,44.35c0.58,12.97,1.15,25.94,1.73,38.91c0.07,1.55,0.15,3.09,0.27,4.63
			c0.38,4.91-0.77,9.48-3.05,13.8c-2.6,4.94-5.91,9.29-10.36,12.74c-3.83,2.97-8.16,3.95-12.89,3.67c-1.4-0.08-2.35-0.93-3.21-1.89
			c-1.25-1.4-1.93-3.2-2.21-5.71c0.66-0.19,1.35-0.39,2.04-0.6c5.58-1.68,10.5-4.47,14.55-8.71c4.05-4.23,6.19-9.29,6.16-15.12
			c-0.07-15.48-0.24-30.96-0.38-46.43c-0.05-5.32-0.09-10.63-0.14-15.95c-0.09-9.69-0.12-19.38-0.29-29.07
			c-0.07-3.97-0.47-7.94-1.58-11.77c-0.73-2.51-1.59-5.01-2.72-7.35c-3.07-6.35-4.89-13.09-6.47-19.91
			C568.1,530.96,568.17,530.72,568.2,530.01z"/>
		<path class="st2" d="M350.73,460.03c0.95,1.53,1.9,3.07,2.84,4.6c11.86,19.4,23.45,38.97,35.97,57.97
			c1.74,2.64,3.45,5.3,5.21,7.93c0.55,0.81,0.83,1.62,0.78,2.62c-0.15,3.22-0.22,6.44-0.49,9.75c-4.79-6.62-9.29-13.41-13.75-20.23
			c-4.54-6.92-9.11-13.82-13.53-20.82c-4.37-6.91-8.56-13.94-13.12-21.38c-0.1,9.17-1.31,17.75-2.92,26.8
			c-6.01-7.95-10.66-16.14-14.96-25.1c-0.96,3.86-1.21,7.36-1.69,10.81c-0.5,3.6-0.87,7.21-1.24,10.83
			c-0.36,3.55-0.65,7.1-0.96,10.65c-0.31,3.52-0.6,7.04-0.93,11.03c-0.45-0.84-0.72-1.26-0.92-1.71c-1.01-2.35-1.93-4.73-3.02-7.05
			c-0.6-1.27-0.78-2.53-0.67-3.9c1.09-13.07,2.14-26.14,3.26-39.21c0.29-3.42,0.79-6.82,1.21-10.22c0.08-0.64,0.25-1.27,0.47-2.32
			c0.5,1.01,0.84,1.64,1.14,2.3c2.99,6.56,6.49,12.85,10.48,18.85c0.41,0.62,0.8,1.26,1.32,1.78c1.06,1.07,2.09,0.88,2.69-0.48
			c0.24-0.54,0.38-1.15,0.45-1.75c0.53-5.08,1.06-10.16,1.54-15.25c0.2-2.13,0.28-4.28,0.41-6.41
			C350.44,460.09,350.58,460.06,350.73,460.03z"/>
		<path class="st1" d="M348.3,111.68c-4.83,17.97-6.63,36.34-7.34,54.56c-5.69,4.61-11.21,9.08-16.95,13.73
			c0.2-2.12,0.36-4.09,0.56-6.05c0.17-1.67,0.4-3.34,0.55-5.01c0.05-0.52,0-1.08-0.12-1.59c-0.32-1.32-0.98-1.68-2.21-1.03
			c-0.93,0.5-1.81,1.17-2.56,1.91c-2.58,2.56-5.09,5.18-7.64,7.77c-0.22,0.22-0.49,0.38-0.96,0.75c-0.04-0.7-0.11-1.14-0.08-1.57
			c0.46-6.37,1.08-12.74,1.33-19.12c0.13-3.23,1.39-5.71,3.24-8.2c8.08-10.88,16.79-21.21,26.31-30.86c1.83-1.86,3.68-3.7,5.52-5.55
			C348.06,111.5,348.18,111.59,348.3,111.68z"/>
		<path class="st2" d="M406.91,527.38c-1.45-8.81-2.86-17.34-4.3-26.07c2.03-0.36,4.06-0.73,6.09-1.08
			c6.77-1.17,13.4-2.89,19.91-5.06c1.16-0.39,1.95-0.34,2.85,0.58c1.59,1.63,3.32,3.11,5.33,4.97c-0.34-2.91-1.49-5.17-1.88-7.62
			c4.71-2.1,9.36-4.17,14.16-6.3c1.49,5.45,2.97,10.85,4.51,16.49C438.9,512.73,423.3,520.5,406.91,527.38z"/>
		<path class="st2" d="M396.54,540.86c0.6,5.68,1.14,11.36,1.83,17.03c1.28,10.56,3.27,21,5.51,31.39
			c0.73,3.38,1.14,6.76,1.09,10.21c-0.1,8.35-0.05,16.69-0.29,25.04c-0.35,11.97-0.87,23.93-1.37,35.9
			c-0.36,8.4-0.71,16.8-1.27,25.19c-0.32,4.81-1.72,9.39-4.34,13.51c-3.37,5.29-8.14,8.68-14.13,10.43
			c-2.13,0.62-4.02,0.16-5.59-1.35c-1.86-1.79-2.7-4.09-3.26-6.66c0.96-0.31,1.78-0.57,2.6-0.85c8.93-3.04,14.28-9.2,16.2-18.44
			c1.7-8.18,2.91-16.43,3.67-24.74c0.84-9.11,1.64-18.23,2.25-27.35c0.68-10.07,1.28-20.15,0.88-30.25c-0.12-3.01-0.78-5.99-1.11-9
			c-0.68-6.22-1.55-12.43-1.88-18.67c-0.5-9.34-0.6-18.69-0.87-28.04c-0.03-1.12,0-2.23,0-3.35
			C396.48,540.86,396.51,540.86,396.54,540.86z"/>
		<path class="st2" d="M524.09,485.45c2.67,5.03,5.34,10.06,8.01,15.09c-0.1,0.13-0.2,0.26-0.31,0.38
			c-5.24-2.95-10.72-5.28-16.66-6.71c1.29,1.93,2.63,3.83,3.85,5.8c1.22,1.97,2.33,4.02,3.33,6.16
			c-15.78-15.74-33.35-29.18-51.91-41.39c0.07-0.12,0.13-0.24,0.2-0.36c0.64,0.29,1.29,0.55,1.92,0.86
			c8.75,4.32,17.21,9.18,25.58,14.2c6.46,3.88,12.95,7.7,19.44,11.55c0.58,0.34,1.16,0.7,1.78,0.95c0.84,0.33,1.76,1.12,2.61,0.39
			c0.9-0.77,0.15-1.76-0.15-2.6c-0.27-0.76-0.62-1.5-1.04-2.18c-2.09-3.37-4.22-6.72-6.34-10.08c-0.36-0.56-0.75-1.1-1.35-2
			c5.68,2.08,10.22,5.89,16.07,7.12c0.1-1.56-0.53-2.58-1.16-3.57c-1.94-3.07-3.91-6.13-5.86-9.19c-0.31-0.48-0.56-1-1.07-1.91
			c0.88,0.39,1.36,0.55,1.79,0.8c11.12,6.44,22.24,12.87,33.34,19.35c0.52,0.3,1.11,0.92,1.19,1.45c0.64,4.65,1.17,9.31,1.77,14.25
			C547.75,497,536.42,490.4,524.09,485.45z"/>
		<path class="st2" d="M420.98,409.4c2.56,0.85,4.64,1.53,6.71,2.24c22.33,7.65,44.92,14.44,67.62,20.88
			c4.07,1.16,8.16,2.27,12.25,3.37c1.13,0.31,2.06,0.8,2.85,1.73c2.78,3.28,5.66,6.49,8.48,9.73c0.29,0.33,0.51,0.73,0.99,1.43
			c-1.58-0.48-2.78-0.84-3.97-1.21c-28.6-8.75-57.2-17.51-85.81-26.22c-1.32-0.4-2.21-1.03-2.91-2.21
			c-1.45-2.42-3.04-4.76-4.56-7.14C422.16,411.29,421.71,410.56,420.98,409.4z"/>
		<path class="st1" d="M241.53,127.82c0.22,0.55,0.44,1.09,0.66,1.64c3.14,8.17,6.8,16.11,11.01,23.79
			c0.63,1.14,0.69,1.94-0.06,3.09c-6.93,10.62-12.72,21.85-17.59,33.55c-0.17,0.42-0.39,0.82-0.69,1.45
			c-0.41-0.6-0.7-1.01-0.98-1.43c-2.23-3.36-4.42-6.75-6.69-10.08c-0.55-0.8-1.15-1.92-2.31-1.66c-1.26,0.28-1.3,1.6-1.46,2.64
			c-0.69,4.38-1.34,8.77-2,13.16c-0.12,0.79-0.24,1.58-0.36,2.36c-0.11,0.03-0.22,0.05-0.33,0.08c-0.47-0.94-0.93-1.88-1.4-2.82
			c-0.77-1.57-1.7-3.08-2.27-4.72c-0.58-1.7-0.9-3.5-1.18-5.28c-1.46-9.38-3.37-18.66-6.12-27.75c-0.13-0.44-0.22-0.89-0.1-1.5
			c1.01,1.03,2.07,2.03,3.04,3.1c5.69,6.32,11.88,12.09,18.59,17.31c0.63,0.49,1.17,1.13,1.85,1.55c0.65,0.39,1.41,0.77,2.14,0.82
			c1.11,0.08,2.25-0.23,3.37-0.19c1.06,0.04,1.8-0.37,2.45-1.13c1.35-1.57,1.77-3.42,1.65-5.45c-0.45-7.52-0.95-15.03-1.29-22.55
			c-0.26-5.71-0.3-11.43-0.42-17.15c-0.02-0.92,0-1.85,0-2.77C241.19,127.86,241.36,127.84,241.53,127.82z"/>
		<path class="st3" d="M318.81,551.86c-1.51-3.51-3.07-7-4.52-10.54c-7.91-19.4-14.12-39.37-19.7-59.54
			c-4.56-16.47-8.52-33.08-11.7-49.88c-0.22-1.16-0.71-2.27-1.17-3.69c0.29-0.61,1.06-0.9,1.98-0.91c2.64-0.04,4.82,0.94,5.98,3.35
			c0.75,1.55,1.29,3.28,1.51,4.98c1.58,12.37,4.36,24.5,7.2,36.61c6.19,26.32,13.16,52.44,20.56,78.45
			c0.09,0.31,0.16,0.63,0.24,0.95C319.07,551.71,318.94,551.78,318.81,551.86z"/>
		<path class="st2" d="M665.06,215.8c-0.26,0.51-0.48,1.04-0.78,1.52c-21.07,35.23-42.24,70.4-64.15,105.12
			c-0.68,1.08-1.46,1.83-2.69,2.25c-1.66,0.55-3.25,1.29-4.88,1.94c-0.54,0.21-1.1,0.37-2.12,0.7c0.58-1.07,0.93-1.75,1.31-2.41
			c8.78-15.3,18.09-30.26,27.74-45.02c11.52-17.64,23.25-35.13,35.81-52.06c2.69-3.62,5.47-7.17,8.22-10.75
			c0.39-0.51,0.84-0.97,1.25-1.46C664.88,215.69,664.97,215.74,665.06,215.8z"/>
		<path class="st1" d="M350.19,193.23c0.34-2.49,0.6-4.6,0.92-6.71c0.97-6.39,2.25-12.71,4.04-18.92c0.27-0.95,0.75-1.66,1.54-2.27
			c9.37-7.27,19.25-13.79,29.35-19.98c0.21-0.13,0.46-0.2,0.85-0.36c-0.09,0.34-0.1,0.53-0.19,0.66
			c-7.21,10.69-13.05,22.13-18.22,33.9c-1.34,3.05-3.07,5.19-6.15,6.64c-3.57,1.68-6.86,3.98-10.27,6
			C351.55,192.49,351.04,192.76,350.19,193.23z"/>
		<path class="st2" d="M466.58,330.5c0.6-0.23,1.02-0.43,1.46-0.55c12.3-3.19,24.74-5.76,37.3-7.71c4.65-0.72,9.3-1.46,13.95-2.15
			c0.69-0.1,1.51-0.11,2.13,0.16c4.49,1.98,8.94,4.03,13.4,6.07c0.22,0.1,0.41,0.29,0.92,0.66c-2.66,0.49-4.99,0.92-7.32,1.34
			c-14.88,2.68-29.75,5.46-44.41,9.2c-0.91,0.23-1.75,0.37-2.72-0.09c-4.55-2.16-9.15-4.22-13.73-6.33
			C467.27,330.97,467.01,330.77,466.58,330.5z"/>
		<path class="st0" d="M394.67,462.07c11.54,10.29,22.98,20.7,34.44,31.59c-8.92,3.06-17.7,5.08-26.73,6.32
			c-2.71-12.66-5.4-25.18-8.08-37.69C394.43,462.22,394.55,462.15,394.67,462.07z"/>
		<path class="st0" d="M408.96,645.37c0-1.33-0.05-2.67,0.01-4c0.42-9.48,0.97-18.95,1.27-28.43c0.18-5.58,0.18-11.18-0.15-16.74
			c-0.2-3.39-1.15-6.75-1.82-10.11c-0.57-2.89-1.21-5.77-1.9-9.02c0.93,0.23,1.63,0.32,2.26,0.57c1.99,0.79,3.59,2.16,4.86,3.83
			c4.92,6.47,8,13.71,8.49,21.87c0.14,2.31-0.18,4.74-0.8,6.97c-2.07,7.45-4.22,14.89-6.65,22.23c-1.45,4.39-3.47,8.58-5.23,12.87
			C409.19,645.4,409.07,645.38,408.96,645.37z"/>
		<path class="st3" d="M412.83,397.51c18.05,1.85,85.77,25.38,96.36,33.53c-0.82-0.18-1.3-0.26-1.76-0.39
			c-29.42-8.6-58.84-17.2-88.27-25.77c-1.19-0.35-1.99-0.95-2.65-1.97C415.39,401.15,414.18,399.47,412.83,397.51z"/>
		<path class="st2" d="M457.68,357.58c3.42,0.27,6.63,0.43,9.81,0.8c8.28,0.98,16.54,2.04,24.81,3.09c1.93,0.25,3.86,0.56,5.78,0.89
			c0.52,0.09,1.07,0.25,1.5,0.52c6.46,4.12,12.9,8.27,19.34,12.42c0.15,0.1,0.24,0.29,0.61,0.74c-1.9-0.34-3.49-0.67-5.09-0.91
			c-9.97-1.48-19.93-2.98-29.91-4.38c-4.46-0.63-8.94-1.05-13.41-1.6c-0.5-0.06-1.07-0.24-1.43-0.57
			C465.75,365.02,461.86,361.42,457.68,357.58z"/>
		<path class="st3" d="M218.35,421.13c-0.46,0.89-0.71,1.41-0.99,1.91c-1.59,2.89-3.27,5.73-4.76,8.67
			c-0.59,1.17-1.38,1.88-2.52,2.42c-20.41,9.7-39.83,21.1-58.3,34.12c-3.3,2.33-6.48,4.83-9.71,7.24c-0.51,0.38-1.04,0.74-1.82,0.82
			c0.85-0.9,1.68-1.82,2.54-2.71c9.23-9.5,19.54-17.71,30.32-25.36c13.68-9.71,27.89-18.58,42.91-26.08
			C216.66,421.85,217.32,421.59,218.35,421.13z"/>
		<path class="st3" d="M251.07,450.42c-0.61,1.94-1.09,3.46-1.57,4.97c-0.16,0.51-0.38,1.02-0.45,1.55
			c-0.44,3.13-2.09,5.48-4.28,7.72c-9.74,9.97-18.94,20.43-27.84,31.15c-8.08,9.73-15.95,19.64-23.91,29.47
			c-0.4,0.49-0.81,0.98-1.56,1.27c0.31-0.63,0.6-1.28,0.94-1.9c5.71-10.4,12.28-20.25,19.32-29.78
			c8.32-11.27,17.02-22.24,26.66-32.41c3.56-3.75,7.39-7.26,11.11-10.86C249.85,451.25,250.29,451,251.07,450.42z"/>
		<path class="st3" d="M398.94,527.12c-0.41-0.6-0.84-1.18-1.24-1.79c-15.46-23.65-30.91-47.31-46.38-70.96
			c-0.62-0.94-1.38-1.78-2.19-2.81c0.18-0.86,0.9-1.37,1.85-1.66c1.88-0.58,3.65-0.28,5.14,0.94c0.92,0.75,1.76,1.69,2.36,2.71
			c10.53,18,21.76,35.59,31.43,54.08c3.02,5.78,5.82,11.68,8.7,17.52c0.28,0.57,0.47,1.18,0.71,1.78
			C399.19,527,399.07,527.06,398.94,527.12z"/>
		<path class="st2" d="M600.87,512.25c-1.71-1.16-3.42-2.32-5.14-3.48c-22.83-15.41-46.37-29.65-70.72-42.56
			c-2.38-1.26-4.77-2.49-7.2-3.65c-1.31-0.62-2.71-1.06-4.39-1.7c-0.05-0.24-0.23-0.81-0.23-1.39c0-0.59,0.36-1.03,1.02-1
			c3.6,0.15,7.15-0.07,10.61,1.7c9.84,5.04,19.32,10.67,28.59,16.67c14.14,9.14,27.97,18.71,41.05,29.34
			c2.14,1.74,4.21,3.56,6.31,5.36c0.14,0.12,0.23,0.3,0.35,0.46C601.04,512.08,600.96,512.16,600.87,512.25z"/>
		<path class="st1" d="M283.46,131.28c-0.82,4.91-1.65,9.39-2.3,13.91c-0.85,5.99-1.54,12-2.33,18c-0.08,0.65-0.23,1.34-0.56,1.89
			c-2.33,3.93-4.72,7.83-7.09,11.74c-0.13,0.21-0.33,0.37-0.65,0.72c-0.72-2.36-1.35-4.53-2.05-6.67c-1.03-3.13-2.09-6.25-3.21-9.34
			c-0.34-0.95-0.4-1.73,0.1-2.66c5.04-9.39,10.74-18.34,17.29-26.74C282.81,131.92,283.01,131.75,283.46,131.28z"/>
		<path class="st2" d="M603.47,408.69c0.39-0.04,0.77-0.13,1.16-0.12c13.12,0.25,26.2,1.28,39.23,2.81
			c17.97,2.11,35.91,4.41,53.38,9.34c0.69,0.2,1.36,0.47,1.99,0.94c-2.58-0.4-5.15-0.86-7.73-1.2c-7.13-0.93-14.26-1.96-21.42-2.66
			c-7.76-0.75-15.55-1.32-23.34-1.7c-11.62-0.57-23.25-0.9-34.88-1.34c-0.52-0.02-1.14-0.05-1.52-0.33
			c-2.37-1.75-4.68-3.57-7.01-5.36C603.38,408.95,603.42,408.82,603.47,408.69z"/>
		<path class="st3" d="M523.88,314.14c-3.15,0.57-6.3,1.16-9.46,1.7c-15.76,2.72-31.51,5.54-46.88,10.09
			c-2.06,0.61-4.1,1.29-6.18,1.84c-0.67,0.18-1.48,0.2-2.14,0c-3.71-1.17-7.4-2.43-11.2-3.7c0.25-0.66,0.92-0.56,1.42-0.66
			c7.28-1.59,14.54-3.37,21.87-4.68c8.66-1.54,17.38-2.84,26.11-3.93c8.14-1.02,16.33-1.53,24.55-1.18c0.4,0.02,0.8,0.06,1.2,0.11
			c0.24,0.03,0.47,0.11,0.7,0.16C523.88,313.97,523.88,314.05,523.88,314.14z"/>
		<path class="st2" d="M434.04,496.44c-2.36-2.18-4.72-4.37-7.09-6.54c-10.76-9.86-21.53-19.73-32.31-29.56
			c-0.83-0.76-1.38-1.55-1.63-2.67c-0.5-2.3-1.15-4.56-1.73-6.84c-0.11-0.44-0.13-0.9-0.25-1.71c0.7,0.56,1.18,0.89,1.59,1.28
			c12.45,11.6,24.89,23.23,37.36,34.81c1.17,1.09,1.99,2.26,2.37,3.84c0.58,2.4,1.35,4.76,2.04,7.14
			C434.28,496.26,434.16,496.35,434.04,496.44z"/>
		<path class="st3" d="M280.78,437.28c0.44,2.86,0.93,5.62,1.24,8.4c0.07,0.63-0.38,1.39-0.76,1.98
			c-5.46,8.48-11.09,16.86-16.38,25.44c-5.11,8.3-9.89,16.8-14.81,25.22c-0.29,0.5-0.61,0.99-1.04,1.69
			C250.52,489.62,274.16,442.95,280.78,437.28z"/>
		<path class="st3" d="M160.48,351.78c-2.17-1.15-4.57-0.91-6.88-1.08c-9.13-0.68-18.29-0.67-27.44-0.4
			c-11.43,0.34-22.84,1.04-34.17,2.75c-1.59,0.24-3.19,0.47-4.78,0.7c-0.06,0.01-0.12-0.05-0.49-0.23c3.06-0.87,5.87-1.74,8.71-2.47
			c12.01-3.09,24.21-5.12,36.58-6.03c7.72-0.57,15.46-0.59,23.14,0.69c1.25,0.21,2.53,0.52,3.64,1.08c0.84,0.43,1.57,1.25,2.11,2.06
			C161.56,349.83,161.51,350.89,160.48,351.78z"/>
		<path class="st3" d="M170.76,265.98c-0.27-2.28-1.87-3.03-3.23-3.96c-9.07-6.16-17.98-12.54-26.55-19.39
			c-7.31-5.84-14.39-11.93-20.79-18.78c-0.57-0.61-1.11-1.24-1.42-2.13c0.51,0.38,1.03,0.75,1.52,1.15
			c13.53,10.89,27.61,21,42.48,29.98c2.59,1.56,5.26,2.99,7.9,4.46c3.55,1.97,3.03,4.85,1.7,7.19
			C172.09,265.04,171.46,265.36,170.76,265.98z"/>
		<path class="st3" d="M385.14,429.5c14.11,14.8,28.56,29.27,40.74,45.82c-0.28-0.21-0.58-0.39-0.83-0.62
			c-11.71-10.63-23.43-21.26-35.12-31.9c-0.48-0.44-1.01-0.97-1.2-1.56C387.48,437.34,386.33,433.42,385.14,429.5z"/>
		<path class="st1" d="M420.16,226.21c4.49-1.77,8.99-3.54,13.48-5.3c0.5-0.2,1.03-0.34,1.5-0.59c4.97-2.72,10.36-3.39,15.93-3.49
			c5.1-0.09,10.2-0.5,15.3-0.76c0.32-0.02,0.63,0,1.03,0.25c-0.33,0.16-0.66,0.34-1,0.47c-9.25,3.25-18.52,6.46-27.75,9.75
			c-1.61,0.57-3.19,0.88-4.91,0.79c-4.09-0.23-8.19-0.36-12.28-0.55c-0.45-0.02-0.9-0.15-1.35-0.24
			C420.12,226.42,420.14,226.31,420.16,226.21z"/>
		<path class="st3" d="M417.91,242.44c-0.47-1.16,0.29-1.49,1.03-1.87c2.57-1.32,5.16-2.61,7.68-4.02c3.05-1.7,6.06-3.49,9.05-5.3
			c1.13-0.69,2.34-1.35,2.68-2.85c0.07-0.3,0.49-0.62,0.81-0.74c8.99-3.18,17.99-6.33,26.99-9.49c0.05-0.02,0.12,0.03,0.33,0.1
			c-0.4,0.3-0.72,0.57-1.07,0.79c-10.16,6.44-20.34,12.86-30.49,19.32c-0.99,0.63-1.98,1-3.14,1.18c-3.78,0.58-7.55,1.29-11.31,2
			C419.63,241.73,418.83,242.12,417.91,242.44z"/>
		<path class="st3" d="M111.27,397.72c0.79-0.45,1.57-0.92,2.37-1.33c12.09-6.23,24.75-10.82,38.15-13.29
			c2.05-0.38,4.12-0.63,6.18-0.93c0.4-0.06,0.81-0.07,1.21-0.07c3.31,0,4.5,2.08,3,4.95c-1.21,0.11-2.35,0.1-3.45,0.31
			c-10.36,1.99-20.85,3.38-31.08,6.03c-4.81,1.25-9.58,2.68-14.37,4.03c-0.64,0.18-1.27,0.36-1.9,0.54
			C111.35,397.88,111.31,397.8,111.27,397.72z"/>
		<path class="st2" d="M509.55,481.36c-0.51-0.28-1.02-0.54-1.52-0.83c-7.43-4.21-14.81-8.5-22.3-12.61
			c-6.72-3.69-13.63-7.02-20.88-9.59c-2.9-1.02-5.75-2.23-8.98-1.48c0.36-2.71,2.54-4.3,5.11-3.9c1.18,0.19,2.35,0.57,3.49,0.97
			c10.71,3.81,20.61,9.2,30.15,15.31c4.65,2.98,9.11,6.22,13.2,9.95c0.67,0.61,1.29,1.27,1.94,1.91
			C509.68,481.18,509.62,481.27,509.55,481.36z"/>
		<path class="st3" d="M448.35,353.8c-0.55-1.92,0.28-3.75,2.32-4.32c1.38-0.38,2.92-0.42,4.37-0.34
			c9.76,0.55,19.35,2.31,28.86,4.46c6.68,1.51,13.3,3.3,19.94,4.98c0.63,0.16,1.25,0.39,1.81,0.88c-9.47-1.28-18.91-2.86-28.41-3.76
			C467.7,354.78,458.12,354.05,448.35,353.8z"/>
		<path class="st3" d="M368.69,182.82c5.25-12.61,11.17-24.69,19-35.82c-0.11,0.55-0.18,1.1-0.33,1.64
			c-1.98,7.11-3.82,14.26-5.19,21.53c-0.16,0.83-0.52,1.67-0.95,2.41c-1.18,2.03-2.43,4.03-3.68,6.01
			c-0.27,0.43-0.62,0.95-1.06,1.13C373.9,180.8,371.29,181.79,368.69,182.82z"/>
		<path class="st2" d="M585.5,439.12c19.48,3.55,38.37,9.07,56.35,17.63c-0.29,0-0.59,0.07-0.85-0.01
			c-16.61-5.05-33.55-8.77-50.53-12.31c-1.22-0.25-2.08-0.77-2.79-1.75c-0.78-1.08-1.65-2.09-2.47-3.13
			C585.3,439.41,585.4,439.27,585.5,439.12z"/>
		<path class="st3" d="M112.39,292.13c10.44,0.32,42.94,17.7,48.42,25.85c-1.61,0.2-3.12,0.48-4.63,0.53
			c-0.51,0.02-1.08-0.48-1.55-0.83c-7.91-5.95-16.06-11.57-24.69-16.42c-5.04-2.83-10.24-5.37-15.37-8.04
			C113.93,292.9,113.28,292.58,112.39,292.13z"/>
		<path class="st0" d="M580.15,136c-4.69,1.4-9.38,2.78-14.05,4.2c-6.69,2.03-13.44,3.76-20.35,4.86c-0.4,0.06-0.8,0.14-1.2,0.17
			c-1.91,0.13-2.42-0.6-1.67-2.41c0.81-1.95,3.36-4.82,5.81-6.48c1.15,0.86,2.52,0.74,3.94,0.65c6.1-0.37,12.2-0.67,18.31-1
			c2.28-0.12,4.56-0.27,6.84-0.38c0.79-0.04,1.58-0.01,2.38-0.01C580.15,135.74,580.15,135.87,580.15,136z"/>
		<path class="st3" d="M342.21,165.68c0.67-16.84,2.31-33.14,6.44-49.13c-0.17,2.88-0.37,5.76-0.5,8.64c-0.17,4.1-0.4,8.2-0.39,12.3
			c0.01,7.8,0.18,15.6,0.25,23.39c0,0.48-0.1,1.18-0.42,1.4C345.96,163.41,344.24,164.42,342.21,165.68z"/>
		<path class="st2" d="M440.49,459.29c-0.7-0.41-1.14-0.65-1.56-0.93c-5.08-3.29-10.18-6.57-15.23-9.9
			c-0.63-0.42-1.25-1.06-1.54-1.74c-1.56-3.57-3.01-7.19-4.5-10.8c-0.09-0.22-0.11-0.48-0.23-1.05c0.79,0.58,1.32,0.96,1.85,1.34
			c4.76,3.4,9.53,6.79,14.28,10.22c0.58,0.42,1.19,0.93,1.51,1.54c1.77,3.4,3.45,6.85,5.15,10.28
			C440.32,458.48,440.35,458.73,440.49,459.29z"/>
		<path class="st2" d="M550.72,296.96c0.09-0.75,0.09-1.08,0.18-1.39c4.12-14.49,8.28-28.97,13.97-42.94
			c2.67-6.55,5.7-12.92,9.45-18.93c0.35-0.55,0.74-1.07,1.36-1.49c-0.14,0.34-0.27,0.69-0.43,1.02
			c-6.39,13.18-11.14,26.96-15.15,41.02c-1.53,5.36-2.89,10.78-4.28,16.18c-0.28,1.08-0.7,1.98-1.52,2.76
			C553.15,294.29,552.09,295.5,550.72,296.96z"/>
		<path class="st2" d="M638.4,318.6c-12.38,10.04-23.17,21.64-33.47,33.8c-2.2-0.93-2.93-2.56-1.63-4.69
			c1.11-1.82,2.49-3.52,3.97-5.07c8.97-9.41,19.26-17.17,30.22-24.08c0.2-0.13,0.45-0.19,0.68-0.29
			C638.24,318.38,638.32,318.49,638.4,318.6z"/>
		<path class="st2" d="M307.92,184.01c-0.54,0.08-1.24,0.28-1.94,0.27c-1.87-0.03-2.63-0.73-2.52-2.6c0.22-3.63,0.46-7.26,0.9-10.86
			c1.16-9.55,2.64-19.05,4.74-28.45c0.38-1.7,0.81-3.39,1.38-5.06C309.47,152.79,308.47,168.25,307.92,184.01z"/>
		<path class="st2" d="M423.72,233.06c-12.19,7.29-25.26,12.72-38.93,17.44c-0.32-2.29-0.61-4.37-0.93-6.66
			c7-0.88,13.76-2.28,20.37-4.32C410.76,237.49,417.22,235.22,423.72,233.06z"/>
		<path class="st3" d="M239.75,131.63c0.07,0.49,0.18,0.99,0.19,1.48c0.3,9.68,0.56,19.36,0.9,29.04c0.09,2.69,0.42,5.36,0.63,8.04
			c0.05,0.6,0.1,1.22,0.01,1.8c-0.44,2.95-1.81,3.92-5.03,3.4c0.11-14.62,0.65-29.22,2.86-43.73
			C239.46,131.66,239.6,131.64,239.75,131.63z"/>
		<path class="st2" d="M197.12,329.61c0.97,5.27,1.9,10.34,2.87,15.63c-2.5,1.71-5.14,3.53-7.78,5.34c-0.11-0.07-0.22-0.13-0.33-0.2
			c0.18-0.6,0.37-1.21,0.54-1.81c1.27-4.39,2.54-8.78,3.78-13.18c0.16-0.55,0.13-1.16,0.22-2.05c-4.91,0.05-9.55,0.67-14.2,1.04
			c-4.62,0.36-9.24,0.75-13.89,0.98C177.75,332.28,187.46,330.65,197.12,329.61z"/>
		<path class="st3" d="M486.51,249.84c-2.54,1.19-5.09,2.36-7.63,3.56c-7.49,3.55-14.75,7.51-21.76,11.94
			c-1.17,0.74-2.3,1.19-3.75,1.09c-1.37-0.1-2.77,0.18-4.26,0.31c-0.87-1.37-0.7-2.62,0.73-3.57c0.72-0.48,1.54-0.83,2.33-1.2
			c10.78-4.95,21.98-8.77,33.32-12.21c0.3-0.09,0.63-0.11,0.94-0.16C486.46,249.67,486.49,249.76,486.51,249.84z"/>
		<path class="st3" d="M151.46,416.29c8.81-10.27,20.07-16.77,32.8-21.1c-0.19,0.3-0.34,0.64-0.58,0.89
			c-1.63,1.79-3.25,3.59-4.94,5.33c-0.54,0.56-1.2,1.1-1.92,1.38c-8.79,3.48-17.14,7.78-24.85,13.28
			C151.83,416.18,151.64,416.22,151.46,416.29z"/>
		<path class="st2" d="M160.5,227.91c11.67,3.61,23.43,6.8,35.7,8.32c-0.28,0.92-0.51,1.67-0.73,2.43
			c-0.23,0.77-0.44,1.53-0.74,2.57C182.89,237.72,171.36,233.71,160.5,227.91z"/>
		<path class="st2" d="M190.39,684.74c3.7,0.6,7.27,1.19,11.09,1.81c0.15,3.29,0.61,6.66,2.78,9.81c-0.79,0-1.3,0.09-1.77-0.02
			c-1.71-0.38-3.43-0.74-5.09-1.27C192.72,693.58,190.19,689.82,190.39,684.74z"/>
		<path class="st2" d="M554.59,694.08c-3.33,0.53-6.73,0.63-10.03-0.57c-3-1.1-4.44-3.92-3.9-7.74c4.03,0.17,8.08,0.34,12.02,0.5
			C553.33,688.95,553.93,691.41,554.59,694.08z"/>
		<path class="st2" d="M415.8,306.57c-9.78,3.86-19.56,7.72-29.34,11.58c-1.84-2.42-1.05-5.15,1.87-5.94
			c3.11-0.84,6.27-1.45,9.42-2.16c5.5-1.24,10.99-2.49,16.49-3.72c0.45-0.1,0.91-0.16,1.36-0.23
			C415.66,306.26,415.73,306.42,415.8,306.57z"/>
		<path class="st2" d="M457.64,284.41c3.18-0.63,6.1-2.32,9.64-1.39c5.38,1.42,10.84,2.56,16.26,3.84c0.49,0.12,0.96,0.33,1.49,0.84
			c-1.49,0.5-3.02,0.91-4.46,1.52c-1.57,0.66-3.03,0.57-4.66,0.14c-5.72-1.49-11.47-2.82-17.22-4.21c-0.36-0.09-0.71-0.21-1.07-0.32
			C457.63,284.69,457.64,284.55,457.64,284.41z"/>
		<path class="st2" d="M494.22,285.46c-1.81,0.73-3.95,0.06-4.43-1.83c-0.57-2.26-0.73-4.63-1.01-6.96
			c-0.03-0.27,0.25-0.58,0.42-0.86c0.79-1.28,0.75-1.41-0.3-2.56c-0.33-0.37-0.68-0.85-0.74-1.32c-0.7-5.6-1.34-11.2-2.02-16.98
			c0.56-0.29,1.13-0.58,1.89-0.96c0.58,3.16,1.13,6.12,1.65,9.09c1.11,6.29,2.18,12.58,3.34,18.85
			C493.25,283.14,493.81,284.28,494.22,285.46z"/>
		<path class="st2" d="M370.25,702.46c0.44,3.02,0.98,5.79,2.94,8.27c-0.45,0.11-0.67,0.23-0.89,0.21
			c-2.54-0.24-5.09-0.44-7.63-0.77c-1.62-0.21-2.81-1.26-3.76-2.52c-1.03-1.35-1.66-2.89-1.98-4.78c1.98,0,3.83,0.05,5.68-0.01
			C366.42,702.79,368.22,702.6,370.25,702.46z"/>
		<path class="st0" d="M479.34,270.2c0.79-4.34,1.51-8.44,2.29-12.53c0.07-0.39,0.46-0.81,0.81-1.04c0.67-0.43,1.42-0.73,2.42-1.22
			c0.87,5.68,1.4,11.18,2.08,16.95C484.32,271.62,481.96,270.95,479.34,270.2z"/>
		<path class="st3" d="M409.35,416.8c7.8,7.67,15.61,15.35,23.41,23.02c-0.05,0.09-0.11,0.18-0.16,0.27
			c-0.29-0.14-0.6-0.26-0.87-0.44c-5.59-3.85-11.18-7.7-16.76-11.58c-0.53-0.37-1.08-0.87-1.36-1.43c-1.57-3.18-3.05-6.4-4.57-9.61
			C409.15,416.95,409.25,416.87,409.35,416.8z"/>
		<path class="st2" d="M345.8,198.85c-3.17-0.03-4.3-1.22-3.93-4.2c0.48-3.88,1.48-7.65,2.82-11.31c1.31-3.59,2.75-7.14,4.15-10.69
			c0.21-0.54,0.53-1.04,0.98-1.52C347.88,180.31,346.51,189.54,345.8,198.85z"/>
		<path class="st3" d="M461.28,369.59c-2.89-0.58-5.77-1.19-8.66-1.74c-2.71-0.52-5.43-0.95-8.14-1.47
			c-0.71-0.14-1.46-0.33-2.07-0.7c-3.8-2.3-7.56-4.66-11.33-7.01c-0.25-0.16-0.47-0.38-0.65-0.68c10.67,2.84,21.01,6.52,30.98,11.21
			C461.37,369.33,461.32,369.46,461.28,369.59z"/>
		<path class="st2" d="M265.02,189.11c-1.62-9.55-3.17-18.74-4.72-27.92c0.05-0.02,0.11-0.05,0.16-0.07c0.26,0.51,0.58,1,0.77,1.54
			c2.21,6.07,4.39,12.14,6.6,18.2c0.37,1.02,0.28,1.9-0.23,2.87C266.71,185.38,265.96,187.1,265.02,189.11z"/>
		<path class="st2" d="M407.03,272.09c-5.85,6.31-11.69,12.62-17.54,18.92c-2.34-1.65-2.65-4.06-0.59-5.64
			c5.91-4.56,11.88-9.04,17.83-13.55C406.83,271.91,406.93,272,407.03,272.09z"/>
		<path class="st2" d="M566.26,234.31c-1.58-0.07-2.01-1.21-2.29-2.41c-0.32-1.38,0.08-2.69,0.73-3.89c2.7-4.96,5.4-9.91,8.2-14.81
			c1.26-2.21,2.75-4.29,4.13-6.43c0.12,0.06,0.24,0.12,0.36,0.18c-1.37,2.9-2.81,5.76-4.1,8.7c-1.35,3.08-2.62,6.19-3.8,9.33
			C568.34,228.04,567.34,231.17,566.26,234.31z"/>
		<path class="st0" d="M79.02,153.93c-2.17-0.34-4.39-0.52-6.51-1.06c-4.02-1.04-7.98-2.3-11.97-3.45
			c-1.21-0.35-2.05-1.15-2.77-2.32c2.22,0.25,4.44,0.48,6.65,0.74c3.13,0.37,6.25,0.81,9.39,1.13c1.49,0.15,2.69,0.54,3.48,1.94
			c0.52,0.91,1.27,1.69,1.91,2.53C79.15,153.6,79.09,153.76,79.02,153.93z"/>
		<path class="st2" d="M187.8,318.68c-7.75-4.46-15.94-8.23-22.98-14.02c0.48,0.19,0.96,0.34,1.42,0.56
			c6.68,3.15,13.41,6.17,20.48,8.36C189.46,314.43,189.86,316.43,187.8,318.68z"/>
		<path class="st3" d="M165.51,285.14c-2.14-0.11-4.29-0.2-6.43-0.36c-0.44-0.03-0.91-0.24-1.3-0.47
			c-6.88-4.12-13.48-8.63-19.87-13.47c-0.14-0.11-0.23-0.28-0.46-0.58c9.5,4.89,18.84,9.69,28.17,14.5
			C165.57,284.88,165.54,285.01,165.51,285.14z"/>
		<path class="st3" d="M284.5,135.5c0,2.4-0.05,4.8,0.01,7.2c0.1,3.56,0.25,7.11,0.44,10.67c0.07,1.26-0.15,2.34-0.96,3.36
			c-1.15,1.45-2.16,3.01-3.43,4.44c0.7-8.67,1.78-17.23,3.47-25.71C284.19,135.48,284.35,135.49,284.5,135.5z"/>
		<path class="st3" d="M214.31,183.18c-0.2-0.32-0.43-0.62-0.61-0.95c-0.63-1.19-1.17-2.42-1.87-3.56c-1.79-2.92-2.7-6.03-2.83-9.48
			c-0.16-4.41-0.64-8.82-0.77-13.26C211.24,164.76,213.07,173.88,214.31,183.18z"/>
		<path class="st2" d="M451.3,371.34c2.63,0.69,4.9,1.26,7.15,1.88c0.3,0.08,0.57,0.34,0.83,0.56c4.14,3.45,8.14,7.04,11.73,11.08
			c0.3,0.34,0.55,0.72,0.65,1.43c-0.78-0.28-1.69-0.39-2.33-0.86c-5.88-4.39-11.71-8.84-17.55-13.27
			C451.69,372.07,451.65,371.93,451.3,371.34z"/>
		<path class="st2" d="M514.93,247.01c-1.19,8.85-1.45,17.7-1.28,26.57c0.06,3.02-0.48,4.21-3.03,7.03
			C511.09,269.05,512.15,257.91,514.93,247.01z"/>
		<path class="st3" d="M342.78,472.04c-0.42-0.65-0.89-1.28-1.26-1.96c-2.64-4.84-5.25-9.7-7.89-14.55c-0.6-1.1-1.25-2.18-1.97-3.42
			c0.33-0.65,1.14-0.66,1.79-0.48c0.93,0.27,1.89,0.67,2.64,1.26c0.53,0.42,0.85,1.21,1.09,1.89c1.94,5.45,3.84,10.91,5.74,16.37
			c0.08,0.24,0.06,0.51,0.09,0.77C342.93,471.97,342.85,472.01,342.78,472.04z"/>
		<path class="st2" d="M401.99,343.43c-7.07-1.47-14.13-2.93-21.2-4.4c0.56-1.78,1.41-2.54,3.1-2.56c0.79-0.01,1.63,0.09,2.37,0.37
			c5.15,1.94,10.27,3.93,15.4,5.91c0.17,0.07,0.3,0.22,0.46,0.34C402.07,343.2,402.03,343.31,401.99,343.43z"/>
		<path class="st2" d="M618.37,365.09c-1.94-1.53-1.97-2.99,0.03-4.38c0.6-0.42,1.25-0.82,1.94-1.05c4.25-1.42,8.51-2.8,12.78-4.18
			c0.24-0.08,0.52-0.04,0.92,0.24c-0.53,0.29-1.07,0.56-1.6,0.86c-3.5,1.98-7.01,3.93-10.47,5.96
			C620.71,363.28,619.58,364.22,618.37,365.09z"/>
		<path class="st3" d="M443.66,282.44c9.1-2.61,18.27-4.89,27.73-5.9c-2.89,0.84-5.77,1.68-8.66,2.51c-4,1.15-8.03,2.19-11.98,3.47
			C448.34,283.31,446.04,283.18,443.66,282.44z"/>
		<path class="st2" d="M189.98,296.89c-2.26-4.34-4.45-8.56-6.65-12.79c0.09-0.05,0.18-0.1,0.27-0.15c0.16,0.1,0.34,0.17,0.47,0.3
			c2.5,2.71,4.99,5.42,7.48,8.14c0.7,0.76,1.31,1.6,0.87,2.7C191.96,296.25,191.14,296.95,189.98,296.89z"/>
		<path class="st2" d="M518.83,474.54c-1.84-0.89-3.63-1.96-5.55-2.64c-4.06-1.42-6.86-4.28-9.29-7.63
			c-0.07-0.1-0.09-0.25-0.13-0.37C506,464.17,516.37,471.35,518.83,474.54z"/>
		<path class="st2" d="M589.88,491.95c0.88-1.43,1.74-1.88,3.33-1.41c1.15,0.34,2.25,0.86,3.33,1.4c3.08,1.53,5.74,3.64,8.35,6.09
			C599.77,495.95,594.81,493.95,589.88,491.95z"/>
		<path class="st2" d="M597.93,483.35c-0.12-1.17,0.59-1.56,1.4-1.73c0.58-0.12,1.21-0.11,1.8,0c4.16,0.76,7.93,2.45,11.38,4.89
			c0.15,0.11,0.23,0.31,0.52,0.73C607.87,485.74,603.1,483.72,597.93,483.35z"/>
		<path class="st2" d="M331.19,538.61c-1.91-0.23-3.37-0.4-5.02-0.6c0.13-3.12,0.25-6.15,0.37-9.18c0.15-0.03,0.29-0.06,0.44-0.1
			C328.44,531.84,329.75,535.01,331.19,538.61z"/>
		<path class="st2" d="M354.28,701.94c0.24,1.64,0.48,3.29,0.72,4.94c-3.2-0.54-6.12-4.33-6.54-8.56
			C350.36,699.5,352.25,700.68,354.28,701.94z"/>
		<path class="st2" d="M181.79,679.31c1.63,1.34,2.97,2.43,4.42,3.62c0,1.88,0,3.85,0,6.18
			C183.14,686.44,181.51,683.47,181.79,679.31z"/>
		<path class="st2" d="M377.58,354.52c-2.82-1.81-5.21-4.1-7.78-6.61c1.07-0.82,2.06-1.59,3.06-2.35
			C374.33,348.35,375.95,351.43,377.58,354.52z"/>
		<path class="st2" d="M228.32,187.84c2.05,3.57,4.1,7.14,6.2,10.81c-0.78,1.17-2.04,1.28-2.93,0.01c-0.23-0.32-0.39-0.71-0.52-1.08
			c-1.05-2.97-2.09-5.95-3.12-8.93c-0.06-0.17-0.01-0.39-0.01-0.58C228.07,187.99,228.2,187.92,228.32,187.84z"/>
		<path class="st2" d="M320.76,176.27c-0.24,3.39-0.48,6.77-0.72,10.16c-1.72-0.17-2.41-0.77-2.15-2.16
			c0.53-2.8,1.48-5.49,2.48-8.15C320.49,176.17,320.62,176.22,320.76,176.27z"/>
		<path class="st2" d="M532.17,681.55c1.43,1.17,2.71,2.22,4.01,3.28c0,1.41,0,2.86,0,4.36
			C533.88,687.86,532.1,684.47,532.17,681.55z"/>
		<path class="st2" d="M631.62,377.6c-1.33,0.39-2.65,0.79-3.99,1.16c-0.25,0.07-0.55,0.1-0.79,0.03c-2.53-0.79-5.06-1.6-7.52-2.76
			c4.08,0.38,8.15,0.75,12.23,1.13C631.57,377.31,631.59,377.46,631.62,377.6z"/>
		<path class="st1" d="M334.6,286.2c-0.01,2.86-0.45,5.64-1.69,8.23c-1.15,2.38-2.76,4.27-5.49,4.96c-2.43,0.61-4.39-0.15-5.94-2
			c-2.5-2.96-3.49-6.48-3.47-10.28c0.01-1.4,0.22-2.81,0.44-4.21c0.26-1.7,0.96-3.2,2.3-4.36c1.48-1.27,2.87-2.64,4.37-3.88
			c1.6-1.33,3.09-1.32,4.73-0.01c1.61,1.29,2.72,2.96,3.51,4.85C334.25,281.64,334.61,283.88,334.6,286.2z"/>
		<path class="st1" d="M241.29,288.42c0.14,2.31-0.28,4.21-1.16,5.98c-1.67,3.39-5.25,4.08-8.01,1.52
			c-3.04-2.83-4.43-6.5-5.06-10.51c-0.4-2.56-0.36-5.12,0.54-7.56c0.43-1.18,1.06-2.35,1.86-3.31c1.32-1.57,2.27-1.59,3.63-0.03
			c2.16,2.48,4.23,5.04,6.25,7.63C240.83,284.06,241.61,286.26,241.29,288.42z"/>
	</g>
</g>
</svg>
