<?xml version="1.0" encoding="utf-8"?>
<!-- Generator: Adobe Illustrator 24.3.0, SVG Export Plug-In . SVG Version: 6.00 Build 0)  -->
<svg version="1.1" id="Layer_1" xmlns="http://www.w3.org/2000/svg" xmlns:xlink="http://www.w3.org/1999/xlink" x="0px" y="0px"
	 viewBox="0 0 720 720" style="enable-background:new 0 0 720 720;" xml:space="preserve">
<style type="text/css">
	.st0{fill:#F2D4B5;}
	.st1{fill:#E75724;}
	.st2{fill:#11161C;}
	.st3{fill:#FFFFFF;}
	.st4{fill:#CA4C27;}
	.st5{fill:#D1B89D;}
</style>
<g>
	<path class="st0" d="M173.88,470.59c2.31-1.01,3.78-2.46,4.4-4.36c0.73,1.74,0.8,3.36,0.2,4.85c-0.52,1.39-1.45,2.42-2.81,3.1
		c-1.36,0.71-2.76,0.87-4.2,0.49c-1.58-0.38-2.87-1.35-3.87-2.9C169.86,471.83,171.95,471.44,173.88,470.59"/>
	<path class="st1" d="M375.16,406.6c5.71-12.43,8.93-19.31,9.67-20.64c2.42-4.3,5-6.06,7.75-5.3c2.72,0.76,3.7,3.55,2.94,8.36
		l-4.28,20.92c-2.96,14.28-5.25,25.84-6.85,34.71c-0.6,3.37,0.24,5.53,2.53,6.48c2.37,0.98,5.25,0.07,8.65-2.73
		c4.6-3.83,12.45-11,23.57-21.49l18.8-17.95c1.5-1.39,3.06-2.31,4.69-2.77c1.55-0.41,2.84-0.34,3.87,0.2
		c2.5,1.36,2.46,4.26-0.12,8.69l-14.28,21.9c-8.24,12.64-13.49,21.3-15.74,25.98c-0.95,2.01-0.77,3.63,0.53,4.85
		c1.52,1.47,4.11,1.33,7.75-0.41l22.23-10.65l18.44-8.85c4.19-1.9,7.1-1.93,8.73-0.08c1.66,1.9,0.69,4.6-2.9,8.08
		c-5.52,5.38-11.24,11.39-17.17,18.03c-7.75,8.67-13.45,15.81-17.09,21.41l-1.47,0.61c-1.58-4.43-4.05-8.29-7.42-11.58
		c-3.4-3.34-7.26-5.66-11.58-6.93c-4.13-1.22-8.36-1.4-12.68-0.53c-4.16,0.79-8.12,2.47-11.87,5.06
		c-4.38-1.17-10.9-4.73-19.58-10.69c-7.89-5.41-13.6-8.24-17.13-8.48c-3.05-0.22-6.35,0.57-9.91,2.37
		c-2.31,1.14-5.49,3.18-9.54,6.12c-4.4,3.24-7.59,5.4-9.54,6.49c-3.59,2.04-6.91,3.15-9.95,3.34c-4.27-3.13-8.82-4.81-13.66-5.06
		c-5.63-0.27-10.88,1.18-15.74,4.36c-4.81,3.13-8.16,7.19-10.03,12.2l-3.34-0.41c-2.31-4.16-8.43-10.35-18.35-18.56
		c-7.72-6.36-13.5-10.74-17.33-13.13c-1.93-1.2-3.3-2.6-4.12-4.2c-0.76-1.47-0.92-2.83-0.49-4.08c0.46-1.28,1.43-2.13,2.9-2.57
		c1.6-0.46,3.58-0.31,5.91,0.45l24.31,8.4c12.92,4.4,20.76,6.89,23.53,7.46c1.39,0.3,2.76-0.38,4.12-2.04
		c1.44-1.82,1.56-3.66,0.37-5.51c-2.09-3.21-6.82-9.73-14.19-19.58c-7.26-9.68-12.58-17.14-15.95-22.39
		c-1.01-1.58-1.51-3.18-1.51-4.81c0.03-1.52,0.48-2.77,1.35-3.75c0.9-0.98,2.05-1.41,3.47-1.31c1.58,0.11,3.22,0.91,4.94,2.41
		l22.02,19.54l21.13,18.92c1.82,1.69,3.75,1.89,5.79,0.61c2.09-1.31,2.95-3.41,2.57-6.32c-0.76-5.66-2.18-14.57-4.24-26.76
		c-2.04-11.83-3.41-20.5-4.12-26.02c-0.54-4.11,0.5-6.58,3.14-7.42c2.64-0.84,4.94,0.71,6.89,4.65c1.74,3.45,5.82,12.62,12.24,27.49
		c5.82,13.41,9.68,21.74,11.58,25c1.74,2.96,3.55,4.49,5.42,4.57c2.04,0.08,3.9-1.59,5.59-5.02L375.16,406.6"/>
	<path class="st1" d="M316.19,481.12c3.05-0.19,6.36-1.31,9.95-3.34c1.96-1.09,5.14-3.25,9.54-6.49c4.05-2.94,7.23-4.98,9.54-6.12
		c3.56-1.79,6.87-2.58,9.91-2.37c3.53,0.24,9.24,3.07,17.13,8.48c8.67,5.95,15.2,9.52,19.58,10.69c-5.19,3.56-9.35,8.27-12.48,14.11
		c-3.26,6.15-4.89,12.74-4.89,19.78l25.49-6.65c18.25-4.57,30.52-7.16,36.83-7.79c-0.24-1.69-0.71-3.51-1.39-5.47l1.47-0.61
		c3.51-1.44,6.09-1.74,7.75-0.9c2.07,1.09,3.82,4.23,5.26,9.42c-3.92,8.76-8.48,16.33-13.7,22.72
		c-5.98,7.31-12.26,12.36-18.84,15.13c-0.95-2.39-2.2-4.51-3.75-6.36c-1.79-2.15-3.77-3.62-5.91-4.4c-0.22,2.28-0.98,4.76-2.28,7.42
		c-1.33,2.75-2.8,4.73-4.4,5.95c-0.98-3.7-2.84-7.15-5.59-10.36c-2.66-3.15-5.47-5.26-8.4-6.32c0,5.08-1.21,10.67-3.63,16.76
		c-5.44,1.71-14.68,2.75-27.73,3.1c-13.13,0.35-22.91-0.19-29.33-1.63c-2.61-5.55-4.5-11.53-5.67-17.95c-2.8,1.2-5.28,3.3-7.42,6.32
		c-2.15,3.02-3.68,6.51-4.61,10.48c-2.72-3.89-4.96-8.36-6.73-13.42c-1.66,0.87-3.24,2.3-4.73,4.28c-1.44,1.9-2.52,3.96-3.22,6.16
		c-5.25-2.99-10.82-7.97-16.72-14.93c-5.9-6.93-11.04-14.53-15.42-22.8c0.27-2.42,0.77-4.68,1.51-6.77c0.84-2.39,1.79-3.9,2.86-4.53
		c0.98-0.6,2.01-0.91,3.1-0.94l4.16,0.41l3.34,0.41c-1.09,2.91-1.54,5.89-1.35,8.93c7.23,0.71,16.59,2.5,28.06,5.38
		c10.55,2.66,20.26,5.56,29.12,8.69c-0.35-7.31-2.03-14.07-5.02-20.27C324.63,489.29,320.84,484.54,316.19,481.12"/>
	<path class="st1" d="M202.15,395.38l-0.82,0.08l-3.06,0.08c-2.45-0.16-4.7-0.86-6.77-2.08c-1.93-1.11-3.55-2.57-4.85-4.36
		c1.41,0.16,2.73-0.01,3.96-0.53c1.2-0.49,2.19-1.25,2.98-2.28c0.11-0.14-0.44-2.32-1.63-6.57c-1.22-4.35-1.62-7.02-1.18-7.99
		c1.44-3.21,6.91-9.49,16.4-18.84c10.5-10.36,16.12-16.04,16.89-17.05c1.71-2.31,0.77-6.91-2.81-13.79l-4.36-7.83
		c-1.5-2.77-2.37-4.77-2.61-6c-0.87-4.62,2.77-13.38,10.93-26.27c2.64,0.84,5.37,2.35,8.2,4.53c2.75,2.15,5.42,4.81,8.03,7.99
		c2.47,3.02,4.8,6.43,6.97,10.24c6.15,10.79,9.83,21.05,11.05,30.75c1.17,9.46,0.07,19.01-3.3,28.63c-1.85,5.25-8.85,11.41-21,18.48
		C222.91,389.67,211.91,393.94,202.15,395.38"/>
	<path class="st1" d="M268.06,251c-4.08,3.37-8.42,7.93-13.01,13.66c-4.92,6.09-7.6,10.51-8.03,13.26
		c-0.6,3.64-0.56,8.17,0.12,13.58c0.84,6.91,1.26,11.31,1.26,13.21c-2.18-3.81-4.5-7.22-6.97-10.24c-0.27-3.75-0.35-7.36-0.24-10.81
		c0.14-4.11,0.56-7.22,1.26-9.34c1.01-3.05,3.09-6.44,6.24-10.2c3.26-3.81,7.16-7.4,11.71-10.77L268.06,251"/>
	<path class="st1" d="M186.65,389.1c1.31,1.79,2.92,3.25,4.85,4.36c2.07,1.22,4.32,1.92,6.77,2.08c-1.14,1.31-2.64,2.08-4.49,2.32
		c-1.74,0.24-3.47-0.01-5.18-0.77c-4.02-1.77-5.74-4.74-5.14-8.93C184.45,388.65,185.51,388.97,186.65,389.1"/>
	<path class="st0" d="M557.23,462.97c0.76,2.15,0.9,4.95,0.41,8.4c-0.46,3.15-1.26,5.78-2.41,7.87c-1.01,1.88-5.25,5.87-12.73,11.99
		c-11.2,9.14-19.33,16.02-24.39,20.64c-9.79,8.95-18.25,17.77-25.37,26.47c-1.79,3.56-4.91,5.71-9.34,6.44
		c-4.7,0.76-8.67-0.64-11.91-4.2c-1.74-1.93-2.3-4.89-1.67-8.89c0.68-4.38,2.72-7.38,6.12-9.01c9.54-4.6,18.79-10.89,27.73-18.88
		c9.84-8.78,18.11-18.58,24.8-29.41c1.03-1.66,2.2-4.54,3.51-8.65c1.5-3.59,3.7-6.06,6.61-7.42c0.65,1.96,1.9,3.67,3.75,5.14
		c-0.11,1.96,0.31,3.53,1.26,4.73c0.87,1.06,1.97,1.66,3.3,1.79c1.33,0.11,2.53-0.24,3.59-1.06c1.17-0.9,1.89-2.16,2.16-3.79
		l2.37-0.94C556.07,463.73,556.8,463.32,557.23,462.97"/>
	<path class="st0" d="M505.31,525.16c4.81-5.47,9.08-9.9,12.81-13.3c1.85-0.87,6.24-3.33,13.17-7.38c5.14-3.02,8.31-4.47,9.5-4.36
		c1.5,0.16,3.06,1.26,4.69,3.3l0.57,0.77c1.17,1.71,1.88,3.45,2.12,5.22c0.24,2.01-0.2,3.7-1.35,5.06l-0.16,0.2h-0.16v0.16
		c-1.06,1.2-2.5,2.22-4.32,3.06l-5.91,2.77c-3.4,0.33-8.06,2.3-13.99,5.91c-2.39,1.5-6.61,3.53-12.64,6.12
		c-8.27,3.56-13.95,6.09-17.05,7.59C497.97,533.74,502.21,528.7,505.31,525.16"/>
	<path class="st2" d="M245.67,259.16c4.05-1.96,8.96-3.89,14.72-5.79c-4.54,3.37-8.44,6.96-11.71,10.77
		c-3.15,3.75-5.23,7.15-6.24,10.2c-0.71,2.12-1.13,5.23-1.26,9.34c-0.11,3.45-0.03,7.06,0.24,10.81c-2.61-3.18-5.29-5.85-8.03-7.99
		c-2.83-2.18-5.56-3.68-8.2-4.53c2.8-4.43,6.59-9.97,11.38-16.6C237.88,263.51,240.91,261.44,245.67,259.16"/>
	<path class="st2" d="M418.36,190.15c11.99,2.99,20.9,6.23,26.71,9.71c5.71,3.26,13.62,12.64,23.74,28.14
		c8.73,13.35,16.23,26.58,22.51,39.69c-8.13,3.59-15.06,9.08-20.8,16.48c-6.58,8.51-9.27,17.09-8.08,25.74
		c-2.53,2.56-4.98,4.64-7.34,6.24c-3.21,2.15-6.69,3.75-10.44,4.81c-13.27,3.75-25.08,2.37-35.44-4.16
		c4.24,1.22,8.95-0.3,14.11-4.57c4.11-3.37,8.31-8.27,12.6-14.68c0.71-1.09,1.09-4.3,1.14-9.63c0.03-5.25,0.26-8.14,0.69-8.69
		c0.44-0.6,2.64-2.53,6.61-5.79c4.05-3.34,6.46-5.48,7.22-6.4c0.98-1.14,0.79-4.42-0.57-9.83c-1.6-6.42-4.42-13.26-8.44-20.52
		c-11.56-20.69-29.15-38.04-52.78-52.04C399.7,186.03,409.22,187.86,418.36,190.15"/>
	<path class="st1" d="M525.22,378.5c-3.89,1.98-7.8,1.67-11.75-0.94c6.42-2.12,12.32-5.37,17.7-9.75
		C531.2,372.92,529.21,376.48,525.22,378.5"/>
	<path class="st1" d="M535.98,134.68c6.12,6.55,8.93,14.34,8.44,23.37l-1.18,10.24c-0.46,3.75-0.44,6.66,0.08,8.73
		c1.22,5.08,5.28,14.45,12.15,28.1c6.63,13.19,10.14,20.98,10.52,23.37c0.6,3.7-1.14,11.79-5.22,24.27
		c-4.05,12.45-5.94,19.43-5.67,20.92l3.26,11.54c1.63,5.63,2.57,10.89,2.81,15.78c0.73,14.95-4.49,31.76-15.66,50.41
		c-8.76,14.63-20.47,23.78-35.16,27.45c-12.83,3.21-26.14,1.98-39.93-3.67c3.59-1.93,6.38-3.56,8.36-4.89
		c3.18-2.12,5.67-4.21,7.46-6.28c4.73-6.23,7.59-13.28,8.57-21.17c0.87-6.85,0.3-13.74-1.71-20.68c-1.85-6.28-4.53-11.5-8.03-15.66
		c-3.45-4.16-6.87-6.23-10.24-6.2c-2.09,0.03-4.28,1.01-6.57,2.94l-6.57,6.57c-1.2-8.65,1.5-17.23,8.08-25.74
		c5.74-7.37,12.67-12.86,20.8-16.48c-6.36-13.19-13.87-26.42-22.51-39.69c-10.14-15.5-18.07-24.87-23.78-28.1
		c-5.82-3.51-14.72-6.76-26.72-9.75c-9.14-2.28-18.65-4.12-28.55-5.51c-6.66-0.9-10.48-1.25-11.46-1.06
		c-3.62,0.9-9.33,4.53-17.13,10.89c-7.72,6.28-11.99,9.5-12.81,9.67c-2.15,0.44-3.66-1.71-4.53-6.44c-0.87-4.62-0.87-10.29,0-17.01
		c0.9-7.31,2.64-13.98,5.22-19.99c2.99-6.96,6.74-12.09,11.26-15.38c-0.46-9.24,1.17-18.78,4.89-28.59
		c3.89-10.22,8.46-16.22,13.7-17.99c29.67-10.09,59.37-11.34,89.12-3.75c13.6,3.48,26.32,8.67,38.18,15.58
		C517.14,117.26,527.31,125.32,535.98,134.68"/>
	<path class="st0" d="M613.36,560.85c4.19,3.92,6.54,7.68,7.06,11.3c0.57,3.97-1.28,7.06-5.55,9.26c-2.69,1.36-5.3,1.93-7.83,1.71
		c-2.04-0.19-3.79-0.9-5.26-2.12c-1.44-1.17-2.41-2.66-2.9-4.49c-0.82-3.02-7.22-11.87-19.21-26.55
		c-12.24-14.93-19.92-23-23.04-24.23c-2.2-0.87-4.27-2.22-6.2-4.04c-2.42-2.26-3.73-4.54-3.92-6.85l0.16-0.16
		c1.66,0.27,3.02-0.08,4.08-1.06c0.98-0.87,1.51-2.04,1.59-3.51c0.08-1.5-0.34-2.83-1.26-4c-1.03-1.33-2.53-2.18-4.49-2.53
		c1.96-1.93,4.45-2.84,7.46-2.73c3.18,0.08,5.67,1.36,7.46,3.83c4.13,5.63,11.37,14.07,21.7,25.33
		C594.23,542.06,604.27,552.34,613.36,560.85"/>
	<path class="st0" d="M546.59,503.59l-0.53,0.61l-0.57-0.77L546.59,503.59"/>
	<path class="st0" d="M515.75,397.99c-2.69-1.47-5.1-3.93-7.22-7.38c-2.45-3.94-3.37-7.64-2.77-11.09c2.72-0.52,5.29-1.17,7.71-1.96
		c3.94,2.61,7.86,2.92,11.75,0.94c4-2.01,5.98-5.57,5.95-10.69l3.63-3.22c2.23,1.33,3.93,3.3,5.1,5.91
		c1.06,2.37,1.62,5.11,1.67,8.24c0.08,4.54,1.78,13.2,5.1,25.98c3.48,13.51,7.98,28.56,13.5,45.15c1.28,3.86,1.03,7.25-0.73,10.16
		c-1.5,2.5-3.75,4.2-6.77,5.1l-4.12,0.57c-2.99,0.08-5.63-1.16-7.91-3.71c-2.37-2.64-3.47-5.7-3.3-9.18
		c0.3-6.66-2.23-16.9-7.59-30.71C524.33,408.15,519.67,400.11,515.75,397.99"/>
	<path class="st0" d="M546.83,514.48c1.14-1.36,1.59-3.05,1.35-5.06c-0.24-1.77-0.95-3.51-2.12-5.22l0.53-0.61
		c1.96,0.35,3.45,1.2,4.49,2.53c0.92,1.17,1.35,2.5,1.26,4c-0.08,1.47-0.61,2.64-1.59,3.51c-1.06,0.98-2.42,1.33-4.08,1.06
		L546.83,514.48"/>
	<path class="st0" d="M546.51,514.68h0.16l-0.16,0.16V514.68"/>
	<path class="st0" d="M512.04,530.96c7.48-3.34,12.43-5.67,14.85-6.97c5.98-3.29,10.54-4.11,13.66-2.45
		c1.55,0.82,2.87,2.57,3.96,5.26c-1.01,0.16-1.75,0.35-2.24,0.57c-0.73,0.35-1.37,0.9-1.92,1.63c-1.47-0.73-2.86-0.73-4.16,0
		c-1.31,0.73-2.16,2.04-2.57,3.92c-0.35,1.74-0.34,3.25,0.04,4.53c0.41,1.5,1.31,2.56,2.69,3.18c0.05,0.9,0.38,1.9,0.98,3.02
		l1.35,1.88l0.61,0.61c-1.85,1.31-4.07,1.82-6.65,1.55c-4.32-0.49-8.24-0.52-11.75-0.08c-7.64,0.98-16.41,3.89-26.31,8.73
		c-9.38,4.57-16.49,9.18-21.33,13.83c-0.63,0.6-1.37,0.94-2.24,1.02c1.39-2.39,2.53-4.7,3.43-6.93c0.87-2.23,1.41-4.09,1.63-5.59
		c0.19-1.25-0.2-2.98-1.18-5.18c-0.87-1.9-1.93-3.68-3.18-5.34c1.01-0.71,2.56-1.35,4.65-1.92c2.26-0.6,3.83-1.16,4.73-1.67
		c1.9,0.57,3.81,0.53,5.71-0.12c2.28-0.76,4.32-2.35,6.12-4.77C496.48,537.93,502.85,535.03,512.04,530.96"/>
	<path class="st0" d="M243.14,491.35c2.45-6.39,5.45-11.53,9.01-15.42c0.92,8.35,4.13,17.71,9.63,28.1
		c4.38,8.27,9.52,15.87,15.42,22.8c5.9,6.96,11.47,11.94,16.72,14.93c0.71-2.2,1.78-4.26,3.22-6.16c1.5-1.98,3.07-3.41,4.73-4.28
		c1.77,5.06,4.01,9.53,6.73,13.42c0.92-3.97,2.46-7.46,4.61-10.48c2.15-3.02,4.62-5.13,7.42-6.32c1.17,6.42,3.06,12.4,5.67,17.95
		c6.42,1.44,16.19,1.98,29.33,1.63c13.05-0.35,22.3-1.39,27.73-3.1c2.42-6.09,3.63-11.68,3.63-16.76c2.94,1.06,5.74,3.17,8.4,6.32
		c2.75,3.21,4.61,6.66,5.59,10.36c1.6-1.22,3.07-3.21,4.4-5.95c1.31-2.66,2.07-5.14,2.28-7.42c2.15,0.79,4.12,2.26,5.91,4.4
		c1.55,1.85,2.8,3.97,3.75,6.36c6.58-2.77,12.86-7.82,18.84-15.13c5.22-6.39,9.79-13.96,13.7-22.72c2.12-4.76,3.9-9.52,5.34-14.28
		c1.39-4.62,2.32-8.86,2.81-12.73c5.63,6.28,9.46,14.41,11.5,24.39c2.53,12.26,1.71,25.33-2.45,39.2c-0.05,1.31,0.6,3.02,1.96,5.14
		l3.3,4.45c1.33,1.82,2.27,3.28,2.81,4.36c0.79,1.6,1.09,3.02,0.9,4.24c-0.22,1.5-0.76,3.36-1.63,5.59
		c-0.9,2.23-2.04,4.54-3.43,6.93c-2.58,4.46-5.44,8.18-8.57,11.18l-0.04-0.2c-1.52-3.83-6.27-6.4-14.23-7.71
		c-9.52-1.52-20.67-0.31-33.44,3.63c-10.06,3.1-18.78,7.84-26.14,14.23c-3.21,2.77-5.55,5.4-7.02,7.87
		c-1.5,2.53-1.88,4.55-1.14,6.08c-6.63,1.58-15.5,2.27-26.59,2.08c-11.07-0.19-20.23-1.21-27.49-3.06
		c1.39-3.67-1.37-8.43-8.28-14.28c-6.88-5.76-15.32-10.52-25.33-14.28c-9.52-3.53-19.33-5.21-29.45-5.02
		c-8.7,0.19-14.13,1.39-16.27,3.59c-0.54,0.6-0.88,1.37-1.02,2.32c-2.34-2.88-4.53-5.9-6.57-9.05c-2.2-3.4-3.92-6.51-5.14-9.34
		c-1.96-4.49-2.46-7.67-1.51-9.54c0.63-1.28,1.6-2.9,2.94-4.85l3.18-4.69c1.22-1.9,1.98-3.48,2.28-4.73
		c-0.41-1.17-0.77-2.39-1.1-3.67c-0.46-1.79-0.84-3.78-1.14-5.95c-0.63-4.6-0.75-9.24-0.37-13.95
		C239.11,504.7,240.64,497.88,243.14,491.35"/>
	<path class="st0" d="M232.78,549.68c-0.52,1.03-0.73,1.89-0.65,2.57c0.05,0.71,0.52,2.05,1.39,4.04
		c-7.53-6.04-15.25-10.41-23.17-13.13c-5.41-1.88-11.72-3.15-18.92-3.83l-9.71-0.94c-2.39-0.46-4.38-1.67-5.95-3.63l0.82-1.35
		c0.3-0.63,0.57-1.05,0.82-1.26c1.96-0.3,3.39-1.18,4.28-2.65c0.82-1.28,1.1-2.81,0.86-4.61c-0.24-1.71-0.92-3.24-2.04-4.57
		c-1.2-1.44-2.65-2.3-4.36-2.57l-0.49-0.53l-0.53-0.41c1.79-2.07,4.19-3.64,7.18-4.73c2.75-1.01,4.51-1.2,5.3-0.57l7.91,5.26
		l9.34,5.79c6.55,4.16,13.55,7.87,21,11.13c6.91,3.05,11.26,5.19,13.05,6.44l-3.18,4.69C234.38,546.78,233.4,548.4,232.78,549.68"/>
	<path class="st0" d="M173.8,515.82c2.01,1.31,3.56,3.59,4.65,6.85c1.41,4.3,0.6,8.03-2.45,11.22l-0.04,0.08l-1.88,2.08
		c-6.74,7.8-15.25,21.26-25.53,40.38c-7.34,13.62-12.33,23.55-14.97,29.77c-0.68,1.6-1.97,2.65-3.87,3.14
		c-1.9,0.49-4.65,0.49-8.24,0l0.53-2.16c0.27-2.77-0.75-5.1-3.06-6.97c-2.31-1.88-5.07-2.66-8.28-2.37c0-1.58,0.41-3.03,1.22-4.36
		c0.92-1.52,2.61-3.32,5.06-5.38c4.19-3.62,11.88-13.96,23.09-31.04c11.42-17.43,18.49-29.77,21.21-37.03
		c0.82-2.2,2.64-3.77,5.47-4.69C169.51,514.38,171.87,514.55,173.8,515.82"/>
	<path class="st0" d="M602.63,605.23c0.79,0.6,1.29,1.36,1.51,2.28l0.12,2.41c-2.39-0.11-4.61,1.39-6.65,4.49
		c-1.98,3.02-2.54,5.45-1.67,7.3l0.98,1.71c-1.44,0.57-2.83,0.98-4.16,1.22c-1.69,0.35-2.84,0.34-3.47-0.04l-4-2.53
		c-1.5-1.09-2.3-1.86-2.41-2.32c-0.63-2.66-3.66-8.99-9.1-18.97c-3.56-6.53-7.38-13.26-11.46-20.19l-9.99-16.97
		c-4.95-7.91-9.3-13.74-13.05-17.5l-0.61-0.61c-1.79-1.74-2.47-4.32-2.04-7.75c0.41-3.21,1.65-6.13,3.71-8.77
		c0.54-0.73,1.18-1.28,1.92-1.63c0.49-0.22,1.24-0.41,2.24-0.57l7.5,0.2c2.96,0.63,4.72,1.84,5.26,3.63
		c1.93,6.39,3.3,10.48,4.12,12.28c2.77,6.15,8.16,15.39,16.15,27.73c7.1,10.85,11.86,18,14.28,21.45
		C596.63,599,600.24,603.38,602.63,605.23"/>
	<path class="st0" d="M178.78,384.66c1.47,1.55,3.03,2.72,4.69,3.51c-0.6,4.19,1.11,7.16,5.14,8.93c1.71,0.76,3.44,1.02,5.18,0.77
		c1.85-0.24,3.34-1.02,4.49-2.32l3.06-0.08c1.11,2.61,1.81,4.68,2.08,6.2c0.44,2.47,0.03,4.3-1.22,5.47
		c-7.75,7.15-13.83,16.08-18.23,26.8c-4.4,10.6-6.38,21.03-5.91,31.28c0.08,2.18-1.21,4.04-3.87,5.59c-2.69,1.52-5.42,1.94-8.2,1.26
		c-3.56-0.84-6.06-2.92-7.5-6.24c-1.88-4.27-1.33-9.8,1.63-16.6c3.07-7.1,5.95-15.59,8.65-25.49c2.23-9.08,3.59-14.4,4.08-15.95
		c0.79-2.45,0.99-5.26,0.61-8.44l-0.61-6.24c0.05-0.76,0.76-2.09,2.12-4C176.25,387.28,177.53,385.8,178.78,384.66"/>
	<path class="st0" d="M536.19,529c1.31-0.73,2.69-0.73,4.16,0c-1.22,1.58-2.2,3.34-2.94,5.3c-0.82,2.15-1.17,4.15-1.06,6
		c-2.58-1.2-3.49-3.66-2.73-7.38C534.03,531.04,534.88,529.73,536.19,529"/>
	<path class="st0" d="M548.55,465.7l4.12-0.57c-0.27,1.63-0.99,2.9-2.16,3.79c-1.06,0.82-2.26,1.17-3.59,1.06
		c-1.33-0.14-2.43-0.73-3.3-1.79c-0.95-1.2-1.37-2.77-1.26-4.73c1.01,0.73,2.07,1.31,3.18,1.71
		C546.62,465.55,547.62,465.73,548.55,465.7"/>
	<path class="st0" d="M161.93,490.33c0.95-1.17,2.11-1.81,3.47-1.92c-1.11,1.63-1.78,3.52-2,5.67c-0.19,2.04,0.07,3.98,0.77,5.83
		c-1.44-0.11-2.52-0.75-3.22-1.92c-0.6-1.03-0.8-2.31-0.61-3.83C160.53,492.7,161.06,491.42,161.93,490.33"/>
	<path class="st0" d="M640.48,575.82c3.51,3.94,5.63,8.2,6.36,12.77c-1.55-0.87-3.71-1.6-6.48-2.2l-7.38-0.24
		c-0.16,0.05-2.32,1.51-6.49,4.36c-3.53,2.45-6.59,3.6-9.18,3.47c-3.37-0.16-6.12-1.13-8.24-2.9c-2.5-2.07-3.18-4.72-2.04-7.95
		c2.53,0.22,5.14-0.35,7.83-1.71c2.64-1.36,4.23-2.96,4.77-4.81c2.83,0.24,5.63-0.56,8.4-2.41c3.13-2.09,4.88-3.17,5.26-3.22
		C634.96,570.72,637.35,572.34,640.48,575.82"/>
	<path class="st0" d="M76.53,567.46c1.98-3.34,4.55-5.98,7.71-7.91l2.69-0.12c0.63,0.22,1.65,0.75,3.06,1.59
		c3.15,1.58,6.61,1.55,10.36-0.08c0.71,4.49,3.11,7.29,7.22,8.4l4.65,0.33c1.44-0.19,2.5-0.57,3.18-1.14
		c-0.27,3.29-1.37,6.04-3.3,8.24c-1.79,2.07-3.83,3.13-6.12,3.18c-2.53,0.05-6.05-1.03-10.56-3.26c-4.57-2.28-7.26-3.43-8.08-3.43
		c-1.9,0-4.07,0.37-6.49,1.1c-2.99,0.87-5.45,2.08-7.38,3.63C73.47,574.39,74.49,570.89,76.53,567.46"/>
	<path class="st0" d="M238.73,510.28c-0.19,2.56-0.18,5.87,0.04,9.95c0.24,4.49,0.68,8.32,1.31,11.5c-1.44,0.05-2.98-0.16-4.61-0.65
		c-1.82-0.52-3.34-1.25-4.57-2.2c-5.71-4.49-13.53-10.28-23.45-17.37l-18.31-12.97c-2.23-1.6-7.99-4.76-17.29-9.46
		c-2.45-1.22-4.27-3.44-5.47-6.65c-1.17-3.1-1.59-6.59-1.26-10.48c1.2,0.76,2.5,1.17,3.92,1.22c2.18,2.53,4.58,2.77,7.22,0.73
		c1.11-0.84,1.88-1.94,2.28-3.3c0.46-1.44,0.38-2.9-0.24-4.36c0.38-1.09,0.57-2.2,0.57-3.34c2.23,0.27,4.31,0.83,6.24,1.67
		c2.31,1.03,3.81,2.28,4.49,3.75c3.07,6.69,9.18,14.1,18.31,22.23c5.93,5.25,11.64,9.65,17.13,13.21
		C229.24,506.5,233.81,508.67,238.73,510.28"/>
	<path class="st0" d="M157.57,484.21c3.62-1.88,7.52-1.56,11.71,0.94c-1.6,0.76-2.9,1.85-3.87,3.26c-1.36,0.11-2.52,0.75-3.47,1.92
		c-0.87,1.09-1.4,2.37-1.59,3.83c-0.19,1.52,0.01,2.8,0.61,3.83c0.71,1.17,1.78,1.81,3.22,1.92c0.3,0.79,1.05,1.79,2.24,3.02
		c1.06,1.11,1.75,1.73,2.08,1.84c-0.11,1.74-0.75,3.13-1.92,4.16c-1.01,0.9-2.56,1.66-4.65,2.28c-5.71,1.71-13.41,9.04-23.09,21.98
		c-4.05,5.41-7.48,10.62-10.28,15.62c-2.94,5.22-4.6,9.18-4.98,11.87c-0.52,3.37-2.34,5.78-5.47,7.22
		c-2.18,1.01-4.81,1.48-7.91,1.43c-4.11-0.11-7.18-1.9-9.22-5.38c-2.18-3.7-1.6-7.14,1.71-10.32c1.52-1.47,5.1-6.04,10.73-13.7
		c6.77-9.24,12.09-16.19,15.95-20.84l14.44-17.21c4.21-5.14,6.61-8.44,7.18-9.91C152.39,488.38,154.58,485.79,157.57,484.21"/>
	<path class="st0" d="M176.13,517.74c4.27,1.85,6.29,4.74,6.08,8.69c-0.08,1.6-0.58,2.94-1.51,4c-0.98,1.14-2.19,1.71-3.63,1.71
		c1.36-2.75,1.92-5.23,1.67-7.46C178.52,522.93,177.65,520.62,176.13,517.74"/>
	<path class="st0" d="M213.85,515.99c10.28,7.48,16.83,12.1,19.66,13.87c1.22,0.76,2.37,1.28,3.43,1.55l3.14,0.33l1.26,4
		c-0.16,0.6-0.49,1.31-0.98,2.12l-1.47,2.28c-17.46-8.29-28.54-13.73-33.24-16.31c-2.09-1.17-5.22-3.15-9.38-5.95l-7.87-5.55
		c-2.04-0.11-4.72-1.09-8.03-2.94c-3.43-1.88-7.15-2.99-11.18-3.34c-1.25-0.44-2.37-1.41-3.34-2.94c-1.03-1.55-1.7-3.32-2-5.3
		c-0.79-4.92,0.68-9.03,4.4-12.32c0.79,0.76,3.44,2.49,7.95,5.18c6.28,3.78,11.03,6.73,14.23,8.85
		C195.2,502.64,203.01,508.13,213.85,515.99"/>
	<path class="st0" d="M448.58,574.6c3.94,0.65,7.18,1.71,9.71,3.18c2.37,1.33,3.74,2.79,4.12,4.36c0.38,1.6-0.11,3.77-1.47,6.48
		c-1.5,3.05-3.77,6.05-6.81,9.01c-7.86,7.7-18.33,13-31.41,15.91c-11.94,2.64-22.32,2.61-31.16-0.08c-3.43-1.06-6.21-2.41-8.36-4.04
		c-1.93-1.47-2.98-2.87-3.14-4.2c-0.16-1.31,0.42-3.06,1.75-5.26c1.44-2.42,3.52-4.88,6.24-7.38c6.91-6.34,15.8-11.18,26.67-14.52
		C427.45,574.15,438.74,572.99,448.58,574.6"/>
	<path class="st0" d="M317.9,590.59c6.82,5.63,9.64,10.52,8.44,14.68c-0.6,2.07-2.79,3.79-6.57,5.18c-3.59,1.33-8.09,2.16-13.5,2.49
		c-12.37,0.73-23.48-0.97-33.32-5.1c-9.08-3.81-16.5-9.38-22.27-16.72c-2.42-3.07-4.09-5.97-5.02-8.69
		c-0.92-2.72-0.95-4.8-0.08-6.24c1.82-3.1,7.48-4.72,16.97-4.85c10.11-0.14,20.18,1.66,30.18,5.38
		C302.96,580.52,311.35,585.15,317.9,590.59"/>
	<path class="st0" d="M619.92,606.21c2.91,0.3,6.4,2.47,10.48,6.53c4.95,4.95,7.49,10.33,7.63,16.15c-2.45-1.77-5.29-3.06-8.52-3.87
		c-3.4-0.84-6.32-0.91-8.77-0.2c-0.65,0.19-3.09,1.31-7.3,3.34c-2.77,1.31-5.34,1.77-7.71,1.39c-2.01-0.33-4.05-1.31-6.12-2.94
		c-2.12-1.66-3.34-3.29-3.67-4.89c-0.6-3.02,0.34-5.85,2.81-8.48c2.34-2.47,4.5-3.51,6.49-3.1c1.74,0.35,4.24-0.23,7.5-1.75
		C616.12,606.76,618.51,606.04,619.92,606.21"/>
	<path class="st1" d="M444.66,320.95c3.75-1.06,7.23-2.66,10.44-4.81c2.37-1.6,4.81-3.68,7.34-6.24l6.61-6.57
		c2.28-1.93,4.47-2.91,6.57-2.94c1.88,0,4.51,1.78,7.91,5.34c3.86,4.05,6.92,8.81,9.18,14.28c6.39,15.44,4.12,30.39-6.81,44.82
		c-3.81,4.49-8.47,8.21-13.99,11.18c-7.7,4.13-16.37,6.23-26.02,6.28c-9.44,0.08-18.69-1.78-27.78-5.59
		c-9.41-3.94-17.57-9.5-24.47-16.68c-7.4-7.7-12.7-16.64-15.91-26.84c-2.09-6.93-2.53-14.98-1.31-24.15
		c1.25-9.46,3.71-14.75,7.38-15.87c1.06-0.33,2.39,0.29,4,1.84c0.9,0.87,2.62,2.91,5.18,6.12c5.93,7.37,11.34,12.59,16.23,15.66
		C419.58,323.31,431.4,324.7,444.66,320.95"/>
	<path class="st1" d="M206.39,237.78c13.73-8.32,22.38-12.64,25.94-12.97c5.17-0.49,12.4,0.41,21.7,2.69
		c10.9,2.66,20.04,6.36,27.41,11.09c5.25,3.34,7.89,5.59,7.91,6.73c0.03,1.39-3.15,2.41-9.54,3.06c-2.75,0.27-6.66,1.14-11.75,2.61
		l-7.67,2.37c-5.76,1.9-10.67,3.83-14.72,5.79c-4.76,2.28-7.79,4.35-9.1,6.2c-4.79,6.63-8.58,12.17-11.38,16.6
		c-8.16,12.89-11.8,21.64-10.93,26.27c0.24,1.22,1.11,3.22,2.61,6l4.36,7.83c3.59,6.88,4.53,11.47,2.81,13.79
		c-0.76,1.01-6.39,6.69-16.89,17.05c-9.49,9.35-14.95,15.63-16.4,18.84c-0.44,0.98-0.04,3.64,1.18,7.99
		c1.2,4.24,1.74,6.43,1.63,6.57c-0.79,1.03-1.78,1.79-2.98,2.28c-1.22,0.52-2.54,0.69-3.96,0.53c-1.14-0.14-2.2-0.45-3.18-0.94
		c-1.66-0.79-3.22-1.96-4.69-3.51c-0.76-0.79-1.55-1.77-2.37-2.94c-5.79-7.15-10.22-12.96-13.3-17.42
		c-5.74-8.27-7.7-14.13-5.87-17.58c5.52-10.5,9.29-20.86,11.3-31.08c1.41-7.12,2.05-15.08,1.92-23.86
		c-0.16-10.74-0.19-16.72-0.08-17.95c0.52-5.55,2.3-9.98,5.34-13.3C181.48,254.29,191.71,246.7,206.39,237.78"/>
	<path class="st0" d="M110.67,597.85c3.21-0.27,5.97,0.52,8.28,2.37c2.31,1.88,3.33,4.2,3.06,6.97c-0.44,3.89-2.75,6.4-6.93,7.55
		c-4.43,1.2-9.3,0.31-14.6-2.65c-2.34-1.31-5.29-1.77-8.85-1.39c-4.16,0.44-8.01,2.04-11.54,4.81c0.49-4.95,2.49-9.65,6-14.11
		c3.48-4.43,6.92-6.69,10.32-6.77c0.73-0.03,2.68,0.56,5.83,1.75C105.3,597.55,108.11,598.04,110.67,597.85"/>
	<path class="st3" d="M286.78,480.42c4.87-3.18,10.12-4.64,15.74-4.36c4.84,0.24,9.39,1.93,13.66,5.06
		c4.65,3.43,8.44,8.17,11.38,14.23c2.99,6.2,4.66,12.96,5.02,20.27c-8.86-3.13-18.57-6.02-29.12-8.69
		c-11.47-2.88-20.83-4.68-28.06-5.38c-0.19-3.05,0.26-6.02,1.35-8.93C278.62,487.61,281.97,483.55,286.78,480.42"/>
	<path class="st3" d="M403.71,476.91c4.32-0.87,8.55-0.69,12.68,0.53c4.32,1.28,8.18,3.59,11.58,6.93
		c3.37,3.29,5.85,7.15,7.42,11.58c0.68,1.96,1.14,3.78,1.39,5.47c-6.31,0.63-18.58,3.22-36.83,7.79l-25.49,6.65
		c0-7.04,1.63-13.64,4.89-19.78c3.13-5.85,7.29-10.55,12.48-14.11C395.6,479.39,399.55,477.7,403.71,476.91"/>
	<path class="st0" d="M469.22,536.34c0.6,1.79,1.74,3.47,3.43,5.02c1.82,1.66,3.96,2.87,6.4,3.63l-3.67,1.63l-4,1.84l-2-2.61
		c-1.14-1.55-1.85-2.71-2.12-3.47c-0.3-0.84-0.27-1.74,0.08-2.69C467.61,538.87,468.24,537.75,469.22,536.34"/>
	<path class="st4" d="M425.05,481.85c11.09-1.88,21.03-4.85,29.81-8.93c-8.16,9.03-14.15,16.5-17.99,22.43l-1.47,0.61
		C433.37,490.2,429.91,485.49,425.05,481.85"/>
	<path class="st4" d="M400.98,544.33c-0.6-2.26-1.58-4.49-2.94-6.69l8.36-1.59c-0.65,1.74-1.45,3.33-2.41,4.77
		C403.02,542.38,402.02,543.55,400.98,544.33"/>
	<path class="st4" d="M311.9,536.3c-1.52,2.58-2.62,5.4-3.3,8.44c-2.31-3.29-4.21-6.87-5.71-10.73L311.9,536.3"/>
	<path class="st4" d="M417.34,541.72c-1.14-2.83-2.61-5.19-4.4-7.1c7.56-1.82,14.83-3.94,21.82-6.36
		C429.15,534.71,423.35,539.19,417.34,541.72"/>
	<path class="st4" d="M326.3,545.88c-1.03-2.18-2.03-4.64-2.98-7.38c19.93,3.21,40.5,3.56,61.71,1.06l-1.67,4.85
		c-5.44,1.71-14.68,2.75-27.73,3.1C342.49,547.87,332.72,547.32,326.3,545.88"/>
	<path class="st4" d="M299.47,533.04c-1.2,1.06-2.3,2.38-3.3,3.96c-0.95,1.55-1.7,3.14-2.24,4.77c-6.15-3.48-12.68-9.64-19.62-18.48
		C282.32,527.2,290.71,530.45,299.47,533.04"/>
	<path class="st4" d="M202.15,395.38l-1.67,0.12l-2.2,0.04c-2.45-0.16-4.7-0.86-6.77-2.08c-1.93-1.11-3.55-2.57-4.85-4.36
		c1.41,0.16,2.73-0.01,3.96-0.53c1.2-0.49,2.19-1.25,2.98-2.28c0.11-0.14-0.44-2.32-1.63-6.57c-1.22-4.35-1.62-7.02-1.18-7.99
		c0.95-2.12,3.43-5.34,7.42-9.67c2.83-3.05,6.82-7.08,11.99-12.11c0.65,8.05,5.47,13.92,14.44,17.62c7.8,3.24,16.33,4.13,25.57,2.69
		c-5.66,5.44-13.09,10.63-22.31,15.58C218.07,391.11,209.49,394.29,202.15,395.38"/>
	<path class="st4" d="M186.65,389.1c1.31,1.79,2.92,3.25,4.85,4.36c2.07,1.22,4.32,1.92,6.77,2.08c-1.14,1.31-2.64,2.08-4.49,2.32
		c-1.74,0.24-3.47-0.01-5.18-0.77c-4.02-1.77-5.74-4.74-5.14-8.93C184.45,388.65,185.51,388.97,186.65,389.1"/>
	<path class="st5" d="M509.07,520.39l0.16-0.04c-2.34,2.31-4.81,4.99-7.42,8.03l-8.08,9.54c-4.16,4.87-8.32,7.34-12.48,7.42
		c-3.51,0.08-6.76-1.51-9.75-4.77c-1.77-1.96-2.39-4.7-1.88-8.24c0.57-3.94,2.57-6.74,6-8.4c1.77-0.84,3.82-2.05,6.16-3.63l6.4-4.32
		c2.53,2.09,5.79,3.56,9.79,4.4S505.67,521.24,509.07,520.39"/>
	<path class="st5" d="M521.83,509.99c1.22,2.88,3.51,5.13,6.85,6.73c2.83,1.36,6.28,2.22,10.36,2.57l-2.77,1.39
		c-1.74,0.16-7.89,2.61-18.44,7.34c-7.26,3.26-15.47,7.08-24.63,11.46c5-6.12,9.14-11.03,12.4-14.72
		c4.57-5.14,8.74-9.44,12.52-12.89L521.83,509.99"/>
	<path class="st4" d="M525.22,378.5c-3.89,1.98-7.8,1.67-11.75-0.94c6.42-2.12,12.32-5.37,17.7-9.75
		C531.2,372.92,529.21,376.48,525.22,378.5"/>
	<path class="st4" d="M561.31,300.68c0.44,6.93-0.38,14.18-2.45,21.74c-2.5,9.11-6.88,18.88-13.13,29.33
		c-2.86,4.81-6.31,9.18-10.36,13.09l-3.67,3.26c-5.38,4.35-11.27,7.59-17.66,9.71c-2.56,0.82-5.14,1.47-7.75,1.96
		c-11.26,1.98-22.77,0.57-34.55-4.24c5.49-2.99,10.14-6.72,13.95-11.18c6.85-9.05,10.31-18.44,10.36-28.14
		c13.81-0.46,26.42-3.68,37.81-9.67C545.85,320.23,555,311.61,561.31,300.68"/>
	<path class="st5" d="M533.29,399.09c-4.21-0.82-9.39-0.75-15.54,0.2c-2.39-2.72-4.26-4.46-5.59-5.22
		c-1.88-1.03-3.33-3.11-4.36-6.24c-1.01-2.99-1.29-5.81-0.86-8.44l3.34-0.77l3.18-1.06c3.94,2.61,7.86,2.92,11.75,0.94
		c4-2.01,5.98-5.57,5.95-10.69l3.63-3.22c2.23,1.33,3.93,3.3,5.1,5.91c1.06,2.37,1.62,5.11,1.67,8.24c0.05,3.1,0.41,6.58,1.06,10.44
		c0.9,5.38,2.28,10.93,4.16,16.64C542.63,402.29,538.13,400.05,533.29,399.09"/>
	<path class="st5" d="M493.2,539.48l4.61-2.12c1.74,3.59,4.81,6.23,9.22,7.91c2.86,1.09,7.36,2.03,13.5,2.81
		c-7.69,1.11-16.41,3.98-26.14,8.61c-9.38,4.46-16.42,8.95-21.13,13.46c-0.63,0.6-1.37,0.94-2.24,1.02c1.39-2.39,2.53-4.7,3.43-6.93
		c0.87-2.23,1.41-4.09,1.63-5.59c0.19-1.28-0.15-2.9-1.02-4.85c-0.76-1.71-1.77-3.39-3.02-5.02c1.03-0.73,2.38-1.43,4.04-2.08
		c1.9-0.73,3.28-1.35,4.12-1.84c2.58,0.52,5.1,0.31,7.55-0.61C490.37,543.27,492.19,541.68,493.2,539.48"/>
	<path class="st5" d="M326.34,605.27c0.84-2.2,0.04-4.95-2.41-8.24c-2.34-3.13-5.86-6.32-10.56-9.58
		c29.23,5.76,55.36,6.46,78.39,2.08c-4.57,3.48-7.64,6.19-9.22,8.12c-1.96,2.42-3.02,5.17-3.18,8.24
		c-7.72,1.9-16.74,2.75-27.04,2.53C342.56,608.22,333.9,607.17,326.34,605.27"/>
	<path class="st5" d="M232.78,549.68c-0.52,1.03-0.73,1.89-0.65,2.57c0.05,0.71,0.52,2.05,1.39,4.04
		c-7.53-6.04-15.25-10.41-23.17-13.13c-5.41-1.88-11.72-3.15-18.92-3.83l-8.24-0.86c-2.28-0.38-4.09-1.05-5.42-2
		c7.8,0.76,14.76,0.82,20.88,0.16c7.31-0.79,13.79-2.61,19.41-5.47c5.63,2.12,9.73,3.71,12.32,4.77c4.08,1.69,6.92,3.09,8.52,4.2
		l-3.18,4.69C234.38,546.78,233.4,548.4,232.78,549.68"/>
	<path class="st5" d="M178.78,384.66c1.47,1.55,3.03,2.72,4.69,3.51c-0.6,4.19,1.11,7.16,5.14,8.93c1.71,0.76,3.44,1.02,5.18,0.77
		c1.85-0.24,3.34-1.02,4.49-2.32l3.06-0.08c1.11,2.61,1.81,4.68,2.08,6.2c0.44,2.47,0.03,4.3-1.22,5.47
		c-2.58,2.39-5.03,5.06-7.34,7.99c-2.83,3.62-5.15,7.29-6.97,11.01c-1.71-4.65-3.7-8.08-5.95-10.28c-2.8-2.72-6.31-3.93-10.52-3.63
		c1.58-3.26,2.2-6.84,1.88-10.73c-0.44-4.87-0.58-7.67-0.45-8.4c0.14-0.79,0.87-2.11,2.2-3.96
		C176.33,387.24,177.58,385.74,178.78,384.66"/>
	<path class="st5" d="M609.36,583.08c2.66,1.85,6,3.09,9.99,3.71l11.54,0.49c-2.47,1.93-4.49,3.36-6.04,4.28
		c-2.8,1.71-5.32,2.52-7.55,2.41c-3.37-0.16-6.12-1.13-8.24-2.9c-2.5-2.07-3.18-4.72-2.04-7.95L609.36,583.08"/>
	<path class="st5" d="M642.11,586.79c1.69-0.05,3.14-0.04,4.36,0.04l0.37,1.75C645.7,587.93,644.12,587.34,642.11,586.79"/>
	<path class="st5" d="M108.26,569.5l4.28,0.12c1.31-0.22,2.26-0.58,2.86-1.1c-0.27,3.29-1.37,6.04-3.3,8.24
		c-1.79,2.07-3.83,3.13-6.12,3.18c-1.82,0.03-4.01-0.46-6.57-1.47c-1.36-0.54-3.48-1.56-6.36-3.06
		C98.27,574.24,103.34,572.27,108.26,569.5"/>
	<path class="st5" d="M239.35,510.36c-1.36,3.7-1.78,7.61-1.26,11.75c0.3,2.34,0.97,5.55,2,9.63c-6.93-0.63-20.41-9.63-40.42-27
		h0.04l13.05,1.39c5.49,0.11,9.48-0.79,11.95-2.69l3.02,2.12c2.31,1.5,4.65,2.65,7.02,3.47L239.35,510.36"/>
	<path class="st5" d="M241.18,535.4c-0.3,1.25-1.06,2.83-2.28,4.73l-16.15-7.63c-6.8-3.21-11.8-5.72-15.01-7.55
		c-2.37-1.36-7.16-4.6-14.4-9.71c-3.51-2.47-6.69-3.63-9.54-3.47l6.61-1.1c5.14-1.2,8.52-2.92,10.16-5.18
		c6.63,5.74,13.34,11.03,20.11,15.87c9.65,6.93,16.12,10.39,19.41,10.36C240.41,533.01,240.77,534.23,241.18,535.4"/>
	<path class="st5" d="M460.53,588.67c-2.69,4.87-6.82,9.39-12.4,13.58c-7.21,5.36-15.68,9.12-25.41,11.3
		c-12.07,2.66-22.31,2.88-30.71,0.65c-7.29-1.93-11.27-4.92-11.95-8.97c-0.27-1.58-0.14-2.81,0.41-3.71l2.45-3.26
		c10.82,4.76,24.47,5.72,40.95,2.9C437.62,598.76,449.84,594.6,460.53,588.67"/>
	<path class="st5" d="M324.14,597.11c0.9,0.79,1.59,1.85,2.08,3.18c0.63,1.69,0.67,3.34,0.12,4.98c-0.73,2.12-2.95,3.89-6.65,5.3
		c-3.56,1.36-7.98,2.22-13.26,2.57c-12.07,0.76-23.23-1.01-33.49-5.3c-5.95-2.5-11.18-5.75-15.66-9.75
		c-3.83-3.45-6.8-7.14-8.89-11.05c10.77,6.5,23.41,10.79,37.93,12.89C301.4,602.1,314,601.16,324.14,597.11"/>
	<path class="st5" d="M622.41,624.44l-1.67,0.37c-0.65,0.19-3.09,1.31-7.3,3.34c-2.77,1.31-5.34,1.77-7.71,1.39
		c-2.01-0.33-4.05-1.31-6.12-2.94c-2.12-1.66-3.34-3.29-3.67-4.89c-0.27-1.17-0.24-2.38,0.08-3.63
		C603.09,621.56,611.89,623.68,622.41,624.44"/>
	<path class="st4" d="M382.55,344.24c4.08,2.66,10.33,5.53,18.76,8.61c10.33,3.75,20.58,6.43,30.75,8.03
		c28.55,4.49,49.35-0.49,62.4-14.93c-1.55,6.61-4.65,12.98-9.3,19.13c-3.89,4.51-8.55,8.24-13.99,11.18
		c-7.07,3.78-14.9,5.89-23.49,6.32c-8.4,0.44-16.76-0.76-25.08-3.59c-8.51-2.88-16.16-7.21-22.96-12.97
		C392.4,359.93,386.71,352.67,382.55,344.24"/>
	<path class="st4" d="M164.1,366.34c-4.3-6.25-7.26-11.41-8.89-15.46c5.93,5.49,13.91,8.51,23.94,9.05
		c10.41,0.57,19.82-1.75,28.22-6.97c-10.31,10.77-15.84,17.02-16.6,18.76c-0.44,0.98-0.04,3.64,1.18,7.99
		c1.2,4.24,1.74,6.43,1.63,6.57c-0.79,1.03-1.78,1.79-2.98,2.28c-1.22,0.52-2.54,0.69-3.96,0.53c-1.14-0.14-2.2-0.45-3.18-0.94
		c-0.87-0.41-2.47-1.67-4.81-3.79c-2.56-2.28-4.45-4.26-5.67-5.91L164.1,366.34"/>
	<path class="st5" d="M119.43,600.66c1.96,1.82,2.81,4,2.57,6.53c-0.44,3.89-2.75,6.4-6.93,7.55c-4.43,1.2-9.3,0.31-14.6-2.65
		c-0.52-0.3-1.32-0.63-2.41-0.98C106.38,609.52,113.51,606.04,119.43,600.66"/>
	<path class="st5" d="M469.22,536.34c0.6,1.79,1.74,3.47,3.43,5.02c1.82,1.66,3.96,2.87,6.4,3.63c-4.27,2.07-6.82,3.33-7.67,3.79
		c-2.31-3.1-3.68-5.23-4.12-6.4c-0.3-0.84-0.27-1.74,0.08-2.69C467.61,538.87,468.24,537.75,469.22,536.34"/>
	<path class="st4" d="M232.33,303.69c-5.93,2.01-10.59,6.19-13.99,12.52c-0.79-1.09-1.65-2.58-2.57-4.49
		c-0.98-1.98-1.6-3.55-1.88-4.69c-0.38-1.47,1.01-5.67,4.16-12.6c3.32-7.34,6.17-11.54,8.57-12.6c4.54,2.34,9.14,6.12,13.79,11.34
		c4.92,5.57,8.24,10.99,9.95,16.23C245.19,303.26,239.18,301.36,232.33,303.69"/>
	<path class="st4" d="M243.55,269.39c0,3.29,0.08,5.61,0.24,6.97c0.52,4.24,1.71,6.85,3.59,7.83l0.69,10.07
		c0.44,6.25,0.6,9.61,0.49,10.07c-0.16-0.41-1.24-1.97-3.22-4.69c-2.2-3.02-3.79-5.4-4.77-7.14c0-4.24,0.1-7.55,0.29-9.91
		C241.26,276.93,242.16,272.52,243.55,269.39"/>
	<path class="st4" d="M282.21,483.32l-2.65,4.77c-1.2,2.07-2.15,3.51-2.86,4.32l-1.39,0.2c-0.71,0-1.52-0.35-2.45-1.06
		c-0.14-0.84-3.94-4.6-11.42-11.26c-7.61-6.8-13.54-11.66-17.78-14.6c1.2,0.38,6.97,3.52,17.33,9.42
		C271.58,480.83,278.65,483.56,282.21,483.32"/>
	<path class="st2" d="M271.08,490.17c1.25,0.14,3.13,0.57,5.63,1.31l-0.61,2.16l-4.08-0.37c-2.83-0.16-4.6-0.03-5.3,0.41
		c-1.09,0.65-2.07,2.56-2.94,5.71c-0.79,2.94-1.14,5.52-1.06,7.75c0.03,0.49-0.39-0.16-1.26-1.96c-0.82-1.71-1.16-2.98-1.02-3.79
		c0.87-5.66,2.3-9.1,4.28-10.32C266.29,490.12,268.41,489.82,271.08,490.17"/>
	<path class="st2" d="M440.79,492.54l4.98-0.12c1.11,0.54,2.08,1.82,2.9,3.83c0.49,1.14,1.25,3.55,2.28,7.22
		c0.08,0.33-0.15,0.92-0.69,1.79c-0.54,0.87-0.84,1.14-0.9,0.82c-1.55-6.15-3.33-9.71-5.34-10.69l-3.39-0.12
		c-1.11,0.24-2.71,0.82-4.77,1.71c-0.14,0.05-0.31-0.27-0.53-0.98c-0.19-0.71-0.2-1.1-0.04-1.18
		C438.3,493.51,440.14,492.75,440.79,492.54"/>
	<path class="st2" d="M251.34,474.79c0.63-0.65,1.16-0.82,1.59-0.49c0.35,0.27,0.58,0.77,0.69,1.51
		c1.58,11.42,6.49,23.44,14.72,36.06c8.02,12.34,16.79,21.58,26.31,27.69c0.19,0.14,0.07,0.72-0.37,1.75
		c-0.44,1.06-0.75,1.52-0.94,1.39c-8.4-4.79-16.91-13.6-25.53-26.43c-9-13.41-14.45-25.97-16.36-37.69
		c-6.36,7.99-10.14,18.41-11.34,31.24c-1.01,10.5-0.3,19.1,2.12,25.82c-0.27,1.14-0.86,2.49-1.75,4.04l-2.81,4.28
		c-0.68,1.01-1.5,2.47-2.45,4.4c-0.95,1.96-1.43,3.15-1.43,3.59c0,2.5,1.22,6.09,3.67,10.77c2.34,4.51,5.22,8.95,8.65,13.3
		c0.16,0.22,0.07,0.92-0.29,2.12c-0.33,1.2-0.58,1.69-0.77,1.47c-3.94-4.84-7.23-9.33-9.87-13.46c-3.92-6.2-5.91-10.9-6-14.11
		c-0.03-1.33,1.56-4.08,4.77-8.24c3.15-4.13,4.68-6.74,4.57-7.83c-2.75-10.9-3.1-21.73-1.06-32.47
		C239.67,492.06,244.29,482.49,251.34,474.79"/>
	<path class="st2" d="M473.7,548.37l3.59,4.81c1.14,1.85,1.71,3.48,1.71,4.89c0,2.2-1.44,5.94-4.32,11.22
		c-3.43,6.2-7.31,11.11-11.66,14.72c-0.22,0.16-0.53-0.22-0.94-1.14c-0.41-0.95-0.54-1.48-0.41-1.59c3.94-3.26,7.23-7.79,9.87-13.58
		c2.07-4.46,3.1-7.72,3.1-9.79c0-2.01-1.36-4.81-4.08-8.4l-3.18-4.53c-0.95-1.66-1.43-3.13-1.43-4.4
		c2.88-10.03,4.05-19.99,3.51-29.86c-0.71-12.62-4.28-23.02-10.73-31.2c-1.98,12.1-6.28,23.98-12.89,35.65
		c-7.8,13.81-16.89,23.17-27.25,28.06c-0.3,0.14-0.63-0.37-0.98-1.51c-0.38-1.11-0.44-1.74-0.16-1.88
		c10.44-4.92,19.48-14.26,27.12-28.02c6.47-11.69,10.47-23.4,11.99-35.12c0.11-0.76,0.38-1.2,0.82-1.31
		c0.44-0.14,0.92,0.11,1.47,0.73c7.37,8.21,11.77,17.63,13.21,28.26c1.2,9.05,0.38,21.11-2.45,36.18c0,0.98,0.44,2.22,1.31,3.71
		L473.7,548.37"/>
	<path class="st2" d="M301.34,530.34l1.14-0.12l0.45,0.73c0.76,2.23,1.67,4.34,2.73,6.32c0.84,1.58,2,3.43,3.47,5.55
		c0.14,0.19,0.05,0.84-0.24,1.96c-0.33,1.11-0.57,1.55-0.73,1.31c-2.72-3.81-5-8.17-6.85-13.09c-1.88,1.31-3.45,3.15-4.73,5.55
		c-1.28,2.37-2.03,4.81-2.24,7.34c-0.27,2.86-0.77,4.3-1.51,4.32c-0.76,0.05-1.28-1.4-1.55-4.36c-0.3-3.18,0.67-6.29,2.9-9.34
		C296.07,533.87,298.46,531.81,301.34,530.34"/>
	<path class="st2" d="M320.23,526.92c0.65-0.3,1.06-0.39,1.22-0.29l0.29,1.1c1.39,7.59,3.67,14.33,6.85,20.23
		c1.11,2.09,1.29,3.32,0.53,3.67c-0.79,0.35-1.74-0.52-2.86-2.61c-2.66-4.95-4.79-11.42-6.36-19.41c-2.69,1.52-5.02,3.93-6.97,7.22
		c-1.96,3.29-3.22,6.96-3.79,11.01c-0.41,2.91-1.11,4.11-2.12,3.59c-1.01-0.52-1.31-2.43-0.9-5.75c0.54-4.54,2.2-8.51,4.98-11.91
		C313.51,530.78,316.55,528.5,320.23,526.92"/>
	<path class="st2" d="M385.89,527.65c0-0.71,0.15-1.11,0.45-1.22l1.02,0.16c3.73,1.36,7.1,3.96,10.11,7.79
		c3.05,3.89,4.77,7.9,5.18,12.03c0.24,2.42-0.05,3.83-0.9,4.24c-0.87,0.38-1.43-0.64-1.67-3.06c-0.35-3.75-1.75-7.41-4.2-10.97
		c-2.34-3.37-4.96-5.79-7.87-7.26c-0.19,3.7-0.73,7.48-1.63,11.34c-0.73,3.29-1.45,5.63-2.16,7.02c-1.63,3.07-2.96,4.43-4,4.08
		c-1.03-0.35-0.73-2.07,0.9-5.14c1.06-2.01,2.05-4.6,2.98-7.75C385.29,534.78,385.89,531.02,385.89,527.65"/>
	<path class="st2" d="M401.88,545.31c-0.24,0.22-0.63-0.05-1.14-0.82c-0.54-0.76-0.69-1.25-0.45-1.47c1.5-1.28,2.86-3.06,4.08-5.34
		c1.28-2.39,2.01-4.66,2.2-6.81c0.08-0.95,0.57-1.26,1.47-0.94c3.18,1.14,5.95,3.3,8.32,6.48c2.12,2.88,3.33,5.74,3.63,8.57
		c0.3,2.53,0.01,4.02-0.86,4.49c-0.84,0.44-1.4-0.61-1.67-3.14c-0.24-2.18-1.13-4.58-2.65-7.22c-1.79-3.05-3.89-5.21-6.28-6.49
		c-0.43,2.37-1.28,4.74-2.53,7.14C404.75,542.16,403.37,544.01,401.88,545.31"/>
	<path class="st2" d="M327.4,547.6c-0.19-0.05-0.48-0.58-0.86-1.59c-0.38-1.03-0.44-1.51-0.16-1.43c6.2,1.66,16.12,2.32,29.77,2
		c13.6-0.35,22.41-1.5,26.43-3.43c0.27-0.14,0.33,0.33,0.16,1.39c-0.16,1.09-0.34,1.67-0.53,1.75c-4.87,1.82-13.55,2.88-26.06,3.18
		C343.68,549.77,334.09,549.15,327.4,547.6"/>
	<path class="st2" d="M464.12,585.32c-0.35,1.5-0.83,2.8-1.43,3.92c-2.94,5.49-7.5,10.56-13.7,15.21
		c-7.48,5.57-16.03,9.44-25.65,11.58c-10.06,2.23-19.13,2.5-27.2,0.82c-5.03-1.03-9.29-2.73-12.77-5.1
		c-3.48-2.31-5.36-4.36-5.63-6.16c-0.24-1.47,0.37-3.43,1.84-5.87c1.58-2.58,3.85-5.22,6.81-7.91c7.42-6.74,16.75-11.84,27.98-15.29
		c13.19-4.05,24.74-5.26,34.67-3.63c8.46,1.39,13.51,4.17,15.17,8.36C464.58,582.14,464.55,583.5,464.12,585.32 M459.67,587.69
		c0.68-1.25,1.16-2.39,1.43-3.43c0.22-0.82,0.27-1.37,0.16-1.67c-0.57-1.41-1.96-2.73-4.16-3.96c-2.47-1.36-5.55-2.34-9.22-2.94
		c-9.33-1.5-20.26-0.33-32.79,3.51c-10.93,3.37-19.75,8.21-26.47,14.52c-2.5,2.34-4.43,4.64-5.79,6.89c-1.2,1.96-1.71,3.43-1.55,4.4
		c0.08,0.52,0.41,1.14,0.98,1.88c0.71,0.84,1.66,1.67,2.86,2.49c3.07,2.04,6.97,3.47,11.71,4.28c7.37,1.28,15.92,0.83,25.65-1.35
		c11.04-2.45,20.28-6.88,27.73-13.3C454.51,595.3,457.66,591.52,459.67,587.69"/>
	<path class="st2" d="M305.5,611.92c5.11-0.24,9.42-0.97,12.93-2.16c3.64-1.25,5.87-2.84,6.69-4.77c0.49-1.11,0.39-2.47-0.29-4.08
		c-1.58-3.7-5.47-7.74-11.66-12.11c-6.23-4.4-13.19-8.03-20.88-10.89c-9.33-3.48-18.92-5.14-28.8-4.98
		c-8.43,0.14-13.62,1.21-15.58,3.22c-0.84,0.9-1.03,2.5-0.57,4.81c0.9,4.35,3.49,8.81,7.79,13.38c4.89,5.19,10.99,9.31,18.27,12.36
		C283.08,610.77,293.78,612.51,305.5,611.92 M315.09,586.83c6.53,4.7,10.65,9.08,12.36,13.13l1.26,3.26
		c0.3,1.14,0.27,2.09-0.08,2.86c-0.82,1.9-3.05,3.66-6.69,5.26c-3.73,1.63-8.21,2.79-13.46,3.47c-12.81,1.66-25.03,0.11-36.67-4.65
		c-7.91-3.24-14.34-7.56-19.29-12.97c-4.62-5.03-7.56-10.54-8.81-16.52c-0.3-1.47-0.29-2.83,0.04-4.08c0.27-1.14,0.77-2.11,1.51-2.9
		c2.34-2.42,8.23-3.67,17.66-3.75c10.55-0.05,20.62,1.7,30.22,5.26C301.25,578.25,308.56,582.13,315.09,586.83"/>
	<path class="st2" d="M326.14,606.86c-0.3-0.08-0.34-0.63-0.12-1.63c0.22-1.03,0.48-1.5,0.77-1.39c6.91,1.96,15.74,3.07,26.51,3.34
		c10.77,0.24,19.59-0.43,26.47-2.04c0.16-0.03,0.49,0.44,0.98,1.39c0.49,0.95,0.63,1.45,0.41,1.51c-8.86,2.23-18.26,3.19-28.18,2.9
		C343.62,610.64,334.68,609.28,326.14,606.86"/>
	<path class="st2" d="M470.24,572.15c0.79-1.2,1.54-2.13,2.24-2.81c4.54-4.38,12.18-9.03,22.92-13.95
		c10.58-4.89,19.03-7.72,25.37-8.48c1.85-0.22,5.66-0.16,11.42,0.16c3.59,0.22,5.63-0.33,6.12-1.63c0.08-0.24,0.57,0.19,1.47,1.31
		c0.9,1.09,1.25,1.73,1.06,1.92c-1.6,1.6-4.42,2.13-8.44,1.59l-11.87-0.37c-7.04,1.36-15.61,4.4-25.7,9.14
		c-10.63,4.98-19.02,10.05-25.17,15.21C469.15,574.23,469.34,573.54,470.24,572.15"/>
	<path class="st2" d="M471.18,547.07l7.42-2.81l2.12,0.65l2,0.69l-4.98,1.51c-1.98,0.6-3.68,1.25-5.1,1.96
		c-0.41,0.08-0.79-0.12-1.14-0.61C471.15,547.94,471.04,547.47,471.18,547.07"/>
	<path class="st2" d="M530.64,523.49c-3.24,1.85-5.91,3.24-8.03,4.16c-3.13,1.36-7.83,3.52-14.11,6.48l-16.6,7.71l1.47-3.87
		c8.65-3.78,18.5-8.47,29.57-14.07l7.18-3.87c2.86-1.39,5.36-1.97,7.5-1.75c2.09,0.24,3.87,1.31,5.34,3.18
		c0.84,1.09,1.69,2.68,2.53,4.77c0.14,0.3-0.18,0.53-0.94,0.69c-0.73,0.14-1.17,0.05-1.31-0.24c-1.31-2.96-3.3-4.6-6-4.89
		C535.45,521.59,533.25,522.16,530.64,523.49"/>
	<path class="st2" d="M532.72,538.26c-0.79-1.9-0.99-3.79-0.61-5.67c0.27-1.25,0.84-2.32,1.71-3.22c0.82-0.84,1.77-1.44,2.86-1.79
		c1.52-0.46,3.06-0.23,4.61,0.69c0.24,0.14,0.05,0.45-0.57,0.94c-0.65,0.49-1.14,0.68-1.47,0.57l-1.92-0.08
		c-1.36,0.44-2.23,1.59-2.61,3.47c-0.19,0.87-0.16,1.79,0.08,2.77c0.22,0.98,0.63,1.85,1.22,2.61c0.57,0.79,0.92,1.63,1.06,2.53
		c0.16,1.01-0.16,1.33-0.98,0.98C534.64,541.45,533.51,540.19,532.72,538.26"/>
	<path class="st2" d="M558.5,461.86c0.92,2.5,1.35,5.64,1.26,9.42c-0.08,3.89-0.68,6.85-1.79,8.89c-0.65,1.22-2.54,3.05-5.67,5.47
		c-4.35,3.24-7.89,5.94-10.6,8.12c-8.92,7.18-16.27,13.46-22.07,18.84c-9.65,9-17.63,17.77-23.94,26.31
		c-3.67,4.95-8.42,7.4-14.23,7.34c-5.22-0.03-8.92-1.66-11.09-4.89c-2.18-3.24-2.69-7.3-1.55-12.2c1.06-4.68,2.87-7.5,5.42-8.48
		c8.21-3.1,17.31-9,27.29-17.7c10.55-9.16,18.87-18.78,24.96-28.84c0.57-0.92,1.17-2.45,1.79-4.57l1.75-5.47
		c1.69-4.46,4.21-7.1,7.59-7.91c0.27-0.05,0.6,0.45,0.98,1.51c0.35,1.06,0.46,1.62,0.33,1.67c-2.88,1.41-5.02,3.98-6.4,7.71
		l-1.47,4.61c-0.57,1.77-1.16,3.14-1.75,4.12c-5.38,8.7-13.21,17.82-23.49,27.37c-10.66,9.87-20.57,17.01-29.73,21.41
		c-2.15,1.03-3.77,3.19-4.85,6.48c-1.2,3.73-0.67,6.81,1.59,9.26c2.39,2.61,5.53,3.75,9.42,3.43c3.29-0.3,5.66-1.28,7.1-2.94
		l9.01-10.52c5.49-6.31,9.8-10.97,12.93-13.99c4.57-4.38,9.69-8.96,15.38-13.74l12.93-10.56l9.58-7.87c2.77-2.42,4.47-4.23,5.1-5.42
		c1.01-1.82,1.66-4.21,1.96-7.18c0.33-3.1,0.14-5.68-0.57-7.75c-0.11-0.41,0.3-0.92,1.22-1.55
		C557.82,461.61,558.36,461.48,558.5,461.86"/>
	<path class="st2" d="M521.06,509.34c1.5-0.79,4.89-2.91,10.2-6.36c4.92-3.02,8.1-4.46,9.54-4.32c2.86,0.27,5.25,2.47,7.18,6.61
		c2.04,4.24,1.94,7.56-0.29,9.95c-1.36,1.44-4.35,3.26-8.97,5.47l-2.94,0.33c-1.47,0-2.05-0.1-1.75-0.29
		c0.33-0.22,2.28-1.21,5.87-2.98c2.86-1.39,4.64-2.46,5.34-3.22c1.6-1.71,1.58-4.21-0.08-7.5c-1.58-3.15-3.32-4.83-5.22-5.02
		c-0.49-0.05-4.09,1.81-10.81,5.59c-7.18,4.02-11.47,6.27-12.89,6.73c-0.35,0.11,0.19-0.6,1.63-2.12
		C519.32,510.64,520.38,509.69,521.06,509.34"/>
	<path class="st2" d="M546.22,504.65c-0.27,0-0.69-0.45-1.26-1.35c-0.6-0.92-0.75-1.39-0.45-1.39c3.73,0,6.47,1.51,8.24,4.53
		c1.79,3.02,1.55,5.75-0.73,8.2c-1.41,1.52-3.19,2.11-5.34,1.75c-0.24-0.03-0.31-0.5-0.2-1.43c0.14-0.92,0.31-1.37,0.53-1.35
		c1.39,0.16,2.46-0.18,3.22-1.02c1.39-1.5,1.47-3.24,0.24-5.22C549.27,505.51,547.85,504.59,546.22,504.65"/>
	<path class="st2" d="M616.99,561.59c1.85,1.63,3.18,3.68,4,6.16c0.92,2.83,0.98,5.82,0.16,8.97c-0.63,2.28-2.69,4.36-6.2,6.24
		c-4.05,2.15-7.91,2.41-11.58,0.77c-2.94-1.28-5.03-3.22-6.28-5.83c-3.13-6.47-9.94-16.12-20.43-28.96
		c-10.2-12.45-16.99-19.67-20.39-21.66c-3.4-2.01-5.59-3.4-6.57-4.16c-2.88-2.26-4.5-4.57-4.85-6.93c-0.08-0.46,0.37-0.98,1.35-1.55
		c0.95-0.6,1.43-0.77,1.43-0.53c-0.05,2.04,1.11,4.13,3.51,6.28l5.91,4.32c4.21,2.88,11.56,10.37,22.02,22.47
		c11.39,13.16,18.37,22.84,20.92,29.04c1.03,2.56,2.47,4.24,4.32,5.06c2.88,1.28,5.94,1.18,9.18-0.29c2.94-1.33,4.65-2.95,5.14-4.85
		c1.11-4.24-0.58-8.57-5.1-12.97c-8.16-7.97-17.97-18.1-29.45-30.39c-13.54-14.52-21.36-23.67-23.45-27.45
		c-1.2-2.15-3.22-3.29-6.08-3.43c-2.53-0.11-4.68,0.49-6.44,1.79c-0.22,0.19-0.65-0.04-1.31-0.69c-0.68-0.63-0.92-1.02-0.73-1.18
		c1.93-1.77,4.58-2.75,7.95-2.94c4.11-0.24,7.03,1.29,8.77,4.61c2.01,3.86,9.27,12.48,21.78,25.86
		C597.07,542.77,607.88,553.51,616.99,561.59"/>
	<path class="st2" d="M629.1,572.03c2.26-1.63,3.83-2.52,4.73-2.65c2.01-0.3,4.61,1.5,7.79,5.38c3.43,4.21,5.53,8.76,6.32,13.62
		c0.24,1.36-0.3,1.74-1.63,1.14c-4.54-1.98-8.21-2.83-11.01-2.53c-1.74,0.19-3.6,1.03-5.59,2.53c-2.18,1.88-3.94,3.24-5.3,4.08
		c-2.37,1.5-4.88,2.19-7.55,2.08c-5.3-0.14-9-1.94-11.09-5.42c-0.57-0.87-0.95-1.84-1.14-2.9c-0.27-1.39-0.19-2.77,0.24-4.16
		l1.71-0.16l1.51,0.33c-0.73,2.07-0.64,3.82,0.29,5.26c0.82,1.31,2.16,2.35,4.04,3.14c1.55,0.63,3.21,0.98,4.98,1.06
		c1.71,0.08,3.64-0.45,5.79-1.59l5.18-3.47c2.26-1.71,4.27-2.71,6.04-2.98c2.69-0.44,6.29,0.18,10.81,1.84
		c-1.06-3.83-3.11-7.38-6.16-10.65c-2.61-2.8-4.47-4.12-5.59-3.96c-0.54,0.08-1.55,0.68-3.02,1.79c-1.9,1.39-3.44,2.34-4.61,2.86
		c-2.12,0.92-4.32,1.25-6.61,0.98c-0.24-0.03-0.22-0.39,0.08-1.1c0.3-0.71,0.6-1.06,0.9-1.06c1.74,0.08,3.44-0.26,5.1-1.02
		C626.31,573.99,627.58,573.17,629.1,572.03"/>
	<path class="st2" d="M601.08,601.27l3.83,4.4c0.92,1.39,1.37,2.88,1.35,4.49l-3.06-0.37c0.03-0.68-0.39-1.65-1.26-2.9
		c-0.87-1.28-2-2.56-3.39-3.83c-2.66-2.39-6.01-6.7-10.03-12.93l-11.79-18.68c-7.45-11.45-12.45-19.5-15.01-24.15
		c-2.56-4.6-4.15-8.42-4.77-11.46l-1.02-4.28c-0.44-1.41-1.84-2.5-4.2-3.26c-2.83-0.95-5.81-0.72-8.93,0.69
		c-2.31,1.06-3.97,3.36-4.98,6.89c-1.09,3.81-0.52,6.82,1.71,9.05c4.08,3.94,8.82,10.26,14.23,18.97
		c2.88,4.62,6.08,10.07,9.58,16.36l9.46,16.15c4.65,8.21,7.83,14.4,9.54,18.56c1.41,3.37,3.33,5.71,5.75,7.02
		c2.37,1.25,4.81,1.29,7.34,0.12c0.27-0.14,0.73,0.19,1.39,0.98c0.65,0.82,0.84,1.29,0.57,1.43c-4,1.82-7.95,1.73-11.87-0.29
		c-3.18-1.63-5.26-3.68-6.24-6.16c-1.66-4.3-4.73-10.77-9.22-19.41c-3.75-7.29-6.88-13.05-9.38-17.29l-9.67-16.27
		c-5.52-8.57-10.39-14.62-14.6-18.15c-0.76-0.65-1.28-1.88-1.55-3.67c-0.27-1.82-0.23-3.78,0.12-5.87
		c0.95-5.25,3.25-8.84,6.89-10.77c2.91-1.52,6.24-2.01,9.99-1.47c3.97,0.57,6.32,2.11,7.06,4.61l1.06,4.45
		c0.68,3.34,2.15,7.26,4.4,11.75c2.88,5.74,7.72,13.84,14.52,24.31c5.28,8.13,9.26,14.1,11.95,17.91
		C594.99,594.11,598.39,598.47,601.08,601.27"/>
	<path class="st2" d="M619.8,607.31c-0.79-0.08-1.74,0.07-2.86,0.45c-0.68,0.27-1.71,0.75-3.1,1.43c-1.93,0.95-3.4,1.58-4.4,1.88
		l-4.53,0.12c-2.18-0.65-4.24,0.57-6.2,3.67c-1.85,2.94-2.45,5.06-1.79,6.36c0.63,1.36,1.67,2.72,3.14,4.08
		c1.85,1.74,3.79,2.79,5.83,3.14l4.69-0.33c0.98-0.33,2.41-0.98,4.28-1.96c2.37-1.22,4.21-2.03,5.55-2.41
		c2.34-0.68,5.07-0.69,8.2-0.04c2.8,0.57,5.45,1.58,7.95,3.02c-0.73-5.03-3.32-9.65-7.75-13.87
		C625.14,609.37,622.14,607.53,619.8,607.31 M605.4,608.65c0.95,0.27,2.34,0.04,4.16-0.69l4.45-2.08c2.23-1.09,4.57-1.41,7.02-0.98
		c2.8,0.52,5.59,2.01,8.36,4.49c2.69,2.39,4.89,5.13,6.61,8.2c2.01,3.64,3.06,7.4,3.14,11.26v1.51c-0.19,0.33-0.77,0.14-1.75-0.57
		c-2.42-1.74-5.19-2.98-8.32-3.71c-3.15-0.76-5.83-0.83-8.03-0.2c-0.73,0.22-1.71,0.76-2.94,1.63l-2.73,1.88
		c-4.3,2.26-8.23,2.86-11.79,1.79c-3.7-1.09-6.7-3.89-9.01-8.4c-1.06-2.83-0.19-6.08,2.61-9.75
		C599.94,609.35,602.68,607.89,605.4,608.65"/>
	<path class="st2" d="M512.33,396.48c-3.4-3.34-5.55-5.81-6.44-7.38c-1.41-2.53-1.84-5.6-1.26-9.22c0.03-0.3,0.73-0.53,2.12-0.69
		l2,0.08c-0.73,3.75-0.58,6.7,0.45,8.85c0.44,0.92,1.98,2.84,4.65,5.75c6.28,6.96,11.47,14.93,15.58,23.9
		c5.08,11.12,8.23,23.26,9.42,36.42c0.3,3.1,1.52,5.67,3.67,7.71c1.93,1.85,3.93,2.75,6,2.69c3.92-0.08,6.8-1.33,8.65-3.75
		c2.18-2.86,2.43-6.91,0.77-12.15c-11.07-34.8-16.91-57.55-17.54-68.24c-0.16-2.8-0.79-5.55-1.88-8.24
		c-1.2-2.94-2.68-5.04-4.45-6.32c-0.33-0.24-0.11-0.75,0.65-1.51c0.76-0.76,1.35-1.01,1.75-0.73c2.66,1.85,4.55,4.21,5.67,7.1
		c0.84,2.18,1.5,5.55,1.96,10.11c1.06,10.14,3.18,21.11,6.36,32.91c1.55,5.82,5.07,17.44,10.56,34.87
		c1.85,5.93,1.28,10.55-1.71,13.87c-2.47,2.77-6.06,4.2-10.77,4.28c-3.05,0.08-5.85-1.03-8.4-3.34c-2.61-2.42-4.04-5.33-4.28-8.73
		c-0.87-13.35-4.4-26.28-10.6-38.79C520.91,407.16,516.6,400.67,512.33,396.48"/>
	<path class="st2" d="M553.65,465.78c-0.24,1.11-0.65,2.13-1.22,3.06c-0.65,0.98-1.41,1.69-2.28,2.12c-1.03,0.52-2.13,0.72-3.3,0.61
		c-1.14-0.11-2.16-0.52-3.06-1.22c-0.87-0.68-1.54-1.67-2-2.98c-0.44-1.28-0.61-2.65-0.53-4.12l1.1,0.04
		c0.73,0.38,1.11,0.79,1.14,1.22c0.08,1.63,0.63,2.84,1.63,3.63c0.57,0.44,1.22,0.68,1.96,0.73c0.73,0.05,1.43-0.08,2.08-0.41
		c1.25-0.63,2.04-1.71,2.37-3.26c0.05-0.27,0.45-0.33,1.18-0.16C553.41,465.21,553.73,465.45,553.65,465.78"/>
	<path class="st2" d="M383.89,385.39c1.25-2.2,2.72-3.82,4.4-4.85c1.6-0.92,3.13-1.2,4.57-0.82c1.44,0.38,2.52,1.36,3.22,2.94
		c0.76,1.71,0.94,3.89,0.53,6.53l-4.08,22.72c-2.83,15.61-4.88,26.55-6.16,32.83c-0.52,2.64-0.14,4.23,1.14,4.77
		c1.5,0.65,3.87-0.38,7.14-3.1c5.66-4.68,19.84-17.42,42.54-38.22c1.66-1.55,3.43-2.53,5.3-2.94c1.77-0.38,3.28-0.19,4.53,0.57
		c1.31,0.76,2.03,1.96,2.16,3.59c0.16,1.82-0.45,3.9-1.84,6.24l-13.62,21.78c-8.81,14.19-14,22.92-15.58,26.18
		c-0.92,1.93-0.94,3.05-0.04,3.34c0.98,0.35,3.11-0.24,6.4-1.79l40.34-18.23c2.09-0.95,4.07-1.39,5.91-1.31
		c1.77,0.08,3.1,0.63,4,1.63c2.09,2.42,1.1,5.78-2.98,10.07c-6.72,7.04-12.03,12.82-15.95,17.33c-6.66,7.67-11.64,14.15-14.93,19.46
		c-0.16,0.27-1.14,0.57-2.94,0.9l-2.49,0.08c3.37-5.47,8.97-12.54,16.8-21.21c5.74-6.36,11.76-12.62,18.07-18.76
		c3.02-2.96,3.94-5.17,2.77-6.61c-1.14-1.44-3.59-1.31-7.34,0.41l-40.66,19.5c-3.92,1.85-6.84,1.82-8.77-0.08
		c-1.74-1.69-2.07-3.64-0.98-5.87c1.6-3.32,6.95-12.07,16.03-26.27l14.03-21.7c2.09-3.56,2.28-5.97,0.57-7.22
		c-1.71-1.25-4.15-0.42-7.3,2.49c-22.6,21.59-36.75,34.75-42.46,39.48c-3.32,2.75-6.47,3.53-9.46,2.37
		c-2.96-1.14-4.13-3.52-3.51-7.14c1.06-5.76,3.22-16.67,6.48-32.71l4.65-22.96c0.65-4.13-0.05-6.54-2.12-7.22
		c-2.12-0.68-4.28,0.95-6.49,4.89l-10.77,23.09l-13.7,29.16c-1.74,3.56-3.9,5.32-6.49,5.26c-2.47-0.05-4.62-1.65-6.44-4.77
		c-1.14-1.93-5.15-10.66-12.03-26.18l-11.83-26.35c-1.58-3.15-3.41-4.47-5.51-3.96s-2.91,2.56-2.45,6.12
		c0.35,2.83,1.74,11.58,4.16,26.27l4.2,26.47c0.46,3.37-0.52,5.89-2.94,7.55c-2.42,1.66-4.84,1.37-7.26-0.86l-21.29-19.09
		l-21.86-19.37c-2.72-2.34-4.99-2.69-6.81-1.06c-1.82,1.6-1.74,3.97,0.24,7.1c1.93,2.99,7.19,10.37,15.78,22.15l14.36,19.82
		c1.58,2.45,1.6,4.74,0.08,6.89c-1.44,2.07-3.34,2.86-5.71,2.37c-3.45-0.71-19.46-6.01-48.01-15.91c-3.89-1.31-6.27-0.9-7.14,1.22
		c-0.9,2.12,0.39,4.51,3.87,7.18l18.03,13.91c10.36,8.4,16.59,14.49,18.68,18.27c0.16,0.27-0.49,0.42-1.96,0.45
		c-1.47,0.05-2.31-0.05-2.53-0.33c-3.32-4.35-9.39-10.29-18.23-17.82c-5.33-4.54-10.56-8.76-15.7-12.64
		c-2.09-1.58-3.52-3.3-4.28-5.18c-0.71-1.77-0.73-3.36-0.08-4.77c0.63-1.44,1.79-2.41,3.51-2.9c1.85-0.52,4.02-0.35,6.53,0.49
		c28.36,9.05,44.2,13.92,47.52,14.6c2.04,0.41,3.15,0.11,3.34-0.9c0.16-0.87-0.37-2.24-1.59-4.12l-13.42-19.58
		c-7.99-11.61-12.96-18.94-14.89-21.98c-1.28-1.98-1.9-3.96-1.88-5.91c0.03-1.79,0.58-3.25,1.67-4.36c1.11-1.11,2.53-1.6,4.24-1.47
		c1.9,0.16,3.85,1.1,5.83,2.81l21.62,18.97l21.37,18.92c1.5,1.41,2.83,1.9,4,1.47c1.36-0.52,1.82-2.37,1.39-5.55l-7.06-52.82
		c-0.27-2.18-0.01-4.05,0.77-5.63c0.76-1.44,1.84-2.37,3.22-2.77c1.41-0.44,2.83-0.26,4.24,0.53c1.58,0.87,2.88,2.35,3.92,4.45
		l12.11,26.23c7.07,15.34,11.18,23.97,12.32,25.9c1.66,2.83,2.95,4.17,3.87,4.04c0.9-0.14,2.11-1.77,3.63-4.89
		C374.17,404.82,382.64,387.62,383.89,385.39"/>
	<path class="st2" d="M327.85,478.59c-3.34,1.93-6.58,3.06-9.71,3.39c-0.14,0.03-1.17-0.53-3.1-1.67c-1.93-1.11-2.75-1.63-2.45-1.55
		c3.24,1.01,7,0.49,11.3-1.55c2.64-1.28,5.94-3.43,9.91-6.44c3.89-2.94,7.22-5.08,9.99-6.44c4.08-1.98,7.89-2.86,11.42-2.61
		c4.84,0.33,11.62,3.67,20.35,10.03c3.64,2.69,6.72,4.65,9.22,5.87c3.7,1.85,7.04,2.66,10.03,2.45c0.33-0.03-0.27,0.44-1.79,1.39
		c-1.5,0.95-2.39,1.41-2.69,1.39c-2.47-0.41-5.34-1.58-8.61-3.51c-1.88-1.14-4.79-3.14-8.73-6c-4.11-2.99-7.15-5.07-9.14-6.24
		c-3.4-1.96-6.34-3.02-8.81-3.18c-3.15-0.22-6.4,0.57-9.75,2.37c-2.07,1.09-5.06,3.17-8.97,6.24
		C332.67,475.39,329.84,477.42,327.85,478.59"/>
	<path class="st2" d="M465.59,308.26c-3.29,3.45-6.02,6-8.2,7.63c-3.78,2.83-7.91,4.87-12.4,6.12c-12.7,3.56-24.08,2.58-34.14-2.94
		c-5.68-3.13-12.02-8.8-19.01-17.01c-2.04-2.42-3.53-4.08-4.49-4.98c-1.44-1.36-2.52-1.94-3.22-1.75c-3.21,0.98-5.28,5.89-6.2,14.72
		c-0.92,8.57-0.39,16.16,1.59,22.8c3.73,11.8,10.21,21.85,19.46,30.14c9.27,8.32,20.04,13.73,32.3,16.23
		c10.5,2.15,20.43,1.82,29.81-0.98c9.35-2.8,17.08-7.75,23.17-14.85c6.69-8.84,10.06-18,10.11-27.49
		c0.05-6.63-1.47-13.01-4.57-19.13c-2.18-4.32-4.85-8.06-8.03-11.22c-2.75-2.72-4.8-4.08-6.16-4.08c-1.6,0.03-3.28,0.69-5.02,2
		C469.6,304.28,467.93,305.87,465.59,308.26 M444.38,319.89c4.13-1.17,8.05-3.37,11.75-6.61l7.87-8.03
		c4.11-4.3,8.25-6.46,12.44-6.49c2.26-0.03,5.17,1.79,8.73,5.47c4,4.11,7.15,9.03,9.46,14.76c2.77,6.96,3.77,14.06,2.98,21.29
		c-0.98,8.7-4.53,17.09-10.65,25.17c-6.91,8.05-15.13,13.57-24.68,16.56c-9.6,3.02-20.09,3.36-31.49,1.02
		c-15.31-3.13-28.29-10.65-38.95-22.55c-4.19-4.65-7.7-9.65-10.52-15.01c-2.45-4.65-4.09-8.92-4.94-12.81
		c-2.34-10.74-2.38-20.57-0.12-29.49c0.9-3.48,2.04-6.39,3.43-8.73c1.28-2.15,2.52-3.4,3.71-3.75c1.31-0.41,2.91,0.33,4.81,2.2
		l5.71,6.61c7.04,8.32,13.05,13.96,18.03,16.93C421.52,322.1,432.33,323.26,444.38,319.89"/>
	<path class="st2" d="M463.39,308.55c0.05,0.35-0.41,1.01-1.39,1.96c-0.95,0.95-1.45,1.28-1.51,0.98
		c-1.85-10.74,1.31-20.83,9.46-30.26c7.31-8.48,16.14-14,26.47-16.56c1.79-0.44,3.1-0.33,3.92,0.33c0.82,0.65,0.3,1.14-1.55,1.47
		c-3.59,0.63-7.5,2.19-11.75,4.69c-4.38,2.56-8.37,5.71-11.99,9.46C466.38,289.61,462.49,298.92,463.39,308.55"/>
	<path class="st2" d="M384.75,184.64c-0.84-0.44-0.04-0.67,2.41-0.69c2.42-0.03,4.24,0.34,5.47,1.1c18.27,11.2,33,24.72,44.17,40.54
		c8.62,12.15,13.92,23.51,15.91,34.06c0.79,4.24,0.71,6.93-0.24,8.08l-7.14,6.36l-6.69,5.83c-0.3,0.49-0.45,2.81-0.45,6.97
		l-0.2,6.61c-0.19,2.26-0.57,3.81-1.14,4.65c-3.94,5.95-7.84,10.63-11.71,14.03c-4.98,4.4-9.63,6.43-13.95,6.08l-2.57-1.47
		l-1.55-1.31c4.24,1.25,9.31-0.46,15.21-5.14c4.6-3.67,8.66-8.14,12.2-13.42c0.38-0.54,0.5-1.93,0.37-4.16l-0.37-5.87l0.16-5.55
		c0.14-1.36,0.39-2.3,0.77-2.81l7.5-5.95l7.83-6.28c0.24-3.7-0.82-8.66-3.18-14.89c-2.66-6.99-6.5-14.14-11.5-21.45
		C423.17,211.11,406.07,196.01,384.75,184.64"/>
	<path class="st2" d="M359.46,141.85c0.19-0.14,0.48,0.57,0.86,2.12c0.38,1.55,0.42,2.43,0.12,2.65
		c-6.91,5.36-11.72,14.64-14.44,27.86c-1.09,5.28-1.63,10.39-1.63,15.34c0,4.76,0.49,8.37,1.47,10.85c0.82,2.12,2.11,2.69,3.87,1.71
		l7.14-5.79c4.73-3.94,8.36-6.81,10.89-8.61c4.24-2.99,7.68-4.81,10.32-5.47l9.26,0.65c5.93,0.76,12.17,1.79,18.72,3.1
		c18.35,3.62,31.55,7.83,39.6,12.64c5.98,3.4,14.25,12.96,24.8,28.67c9.19,13.68,16.79,26.77,22.8,39.28
		c0.16,0.33-0.37,0.68-1.59,1.06l-2.04,0.2c-6.42-13.32-13.91-26.5-22.47-39.52c-9.68-14.68-17.23-23.57-22.64-26.67
		c-7.86-4.7-20.84-8.95-38.95-12.73c-6.34-1.33-12.43-2.42-18.27-3.26l-8.69-0.9c-2.34,0.57-5.63,2.54-9.87,5.91l-10.44,8.81
		c-4.95,4.11-8.28,6.31-9.99,6.61c-2.12,0.35-3.94-1.4-5.47-5.26c-1.06-2.72-1.59-6.7-1.59-11.95c0-5.49,0.6-11.13,1.79-16.93
		C346.1,157.67,351.58,147.54,359.46,141.85"/>
	<path class="st2" d="M538.84,134.51c4.27,4.62,6.74,10.66,7.42,18.11c0.35,4,0.1,9.69-0.77,17.09c-0.44,3.78-0.54,6.15-0.33,7.1
		c0.73,3.1,2.57,7.65,5.51,13.66l7.95,15.91l6.57,13.87c1.55,3.56,2.42,6.61,2.61,9.14c0.22,2.64-0.19,6.02-1.22,10.16
		c-0.54,2.31-2.16,7.94-4.85,16.89l-3.63,10.32c-1.33,3.56-1.93,5.74-1.79,6.53c0.16,0.87,1.36,4.64,3.59,11.3
		c1.93,5.71,3.1,11.04,3.51,15.99c1.31,15.61-3.94,33.24-15.74,52.9c-7.83,13.11-19.01,21.79-33.53,26.06
		c-14.17,4.19-28.47,3.36-42.91-2.49c-0.41-0.16-0.27-0.6,0.41-1.31c0.65-0.71,1.26-0.95,1.84-0.73
		c13.87,5.22,27.25,5.64,40.13,1.26c12.94-4.38,23.17-12.82,30.67-25.33c9.49-15.88,14.63-30.33,15.42-43.36
		c0.44-7.45-0.88-16.14-3.96-26.06c-1.11-3.67-1.79-6.2-2.04-7.59c-0.22-1.14,0.04-3.22,0.77-6.24c0.49-2.04,1.56-5.83,3.22-11.38
		l4.73-16.07c1.03-3.94,1.47-7.14,1.31-9.58c-0.16-2.42-1.01-5.37-2.53-8.85l-6.61-13.99c-3.51-7.4-6.02-12.83-7.55-16.31
		c-2.58-6.01-4.3-10.73-5.14-14.15c-0.19-0.76-0.24-1.86-0.16-3.3l0.45-4.57c0.76-6.72,0.94-11.95,0.53-15.7
		c-0.71-6.63-3.07-12.11-7.1-16.44c-8.21-8.84-17.84-16.63-28.88-23.37c-11.66-7.12-24.1-12.59-37.32-16.4
		c-30.18-8.67-60.23-7.94-90.14,2.2c-2.31,0.79-4.58,2.68-6.81,5.67c-2.26,2.96-4.28,6.76-6.08,11.38
		c-1.52,3.94-2.73,8.17-3.63,12.68c-0.92,4.7-1.39,9.15-1.39,13.34c0,5.98,0.95,10.69,2.86,14.11c0.44,0.49,1.86,1.13,4.28,1.92
		c2.66,0.9,5.48,1.6,8.44,2.12c8.21,1.39,13.92,0.76,17.13-1.88c1.58-1.31,2.39-1.63,2.45-0.98c0.05,0.65-0.69,1.7-2.24,3.14
		c-3.29,3.1-9.38,4.21-18.27,3.34c-3.62-0.35-6.82-1.01-9.63-1.96c-2.86-0.95-4.6-1.98-5.22-3.1c-2.64-4.73-3.68-11.75-3.14-21.05
		c0.52-8.67,2.15-16.57,4.89-23.7c1.41-3.64,3.37-7.12,5.87-10.44c3.13-4.21,6.31-6.87,9.54-7.95
		c30.59-10.39,61.13-11.38,91.61-2.98c13.62,3.75,26.44,9.26,38.46,16.52C519.97,116.92,530.11,125.11,538.84,134.51"/>
	<path class="st2" d="M530.03,368.46c0.03-0.33,0.42-0.68,1.18-1.06c0.73-0.38,1.11-0.46,1.14-0.24c0.24,2.56-0.18,4.98-1.26,7.26
		c-1.06,2.2-2.58,3.92-4.57,5.14c-4.65,2.88-9.56,2.27-14.72-1.84c-0.24-0.19,0.08-0.42,0.98-0.69l1.63-0.16
		c3.86,2.56,7.42,2.77,10.69,0.65C528.09,375.56,529.73,372.54,530.03,368.46"/>
	<path class="st2" d="M238.33,508.85c1.03,0.46,1.47,1.11,1.31,1.96c-0.16,0.82-0.76,1.05-1.79,0.69
		c-7.4-2.53-16.3-7.93-26.72-16.19c-11.64-9.27-19.28-17.86-22.92-25.78c-0.57-1.22-1.9-2.3-4-3.22c-1.88-0.84-3.85-1.37-5.91-1.59
		c-0.27-0.03-0.41-0.53-0.41-1.51s0.14-1.45,0.41-1.43l7.22,1.02c2.94,0.73,4.8,1.94,5.59,3.63c4.27,9.35,10.94,17.89,20.03,25.61
		C219.06,498.82,228.13,504.42,238.33,508.85"/>
	<path class="st2" d="M239.59,529.69c0.3-0.14,0.48,0.19,0.53,0.98c0.05,0.79-0.12,1.33-0.53,1.63c-1.11,0.79-3,0.63-5.67-0.49
		c-1.77-0.73-3.36-1.6-4.77-2.61l-14.81-10.97l-21.45-16.07c-1.77-1.33-5.37-3.29-10.81-5.87c-4.16-1.98-7.41-3.44-9.75-4.36
		c-3.1-1.25-5.51-3.89-7.22-7.91c-1.74-4.05-2.32-8.44-1.75-13.17c0.03-0.27,0.5-0.15,1.43,0.37c0.95,0.54,1.41,0.99,1.39,1.35
		c-0.19,3.64,0.54,6.97,2.2,9.99c1.63,2.96,3.81,5.07,6.53,6.32c1.5,0.65,4.4,2.22,8.73,4.69c4.62,2.64,7.91,4.66,9.87,6.08
		l36.59,26.55l4.08,2.73C236.31,530.03,238.12,530.29,239.59,529.69"/>
	<path class="st2" d="M178.04,383.35c0.3-0.27,0.77-0.01,1.43,0.77c0.63,0.79,0.79,1.32,0.49,1.59c-1.41,1.41-2.61,3.26-3.59,5.55
		c-1.17,2.66-1.6,5.1-1.31,7.3c0.27,1.85,0.39,3.48,0.37,4.89c0,2.01-0.27,4.01-0.82,6l-4.45,16.64
		c-3.05,10.85-6.25,21.15-9.63,30.92c-1.22,3.56-1.14,6.61,0.24,9.14c1.17,2.15,3.03,3.58,5.59,4.28c2.96,0.87,5.68,0.49,8.16-1.14
		c2.64-1.71,3.82-4.19,3.55-7.42c-0.73-8.32,1.31-18.12,6.12-29.41c4.57-10.66,9.79-18.72,15.66-24.19
		c1.36-1.25,2.18-3.11,2.45-5.59c0.27-2.66-0.23-5.13-1.51-7.38c-0.14-0.27,0.29-0.45,1.26-0.53c1.01-0.11,1.62,0.04,1.84,0.45
		c1.41,2.42,2.01,5.19,1.79,8.32c-0.24,3.13-1.24,5.4-2.98,6.81c-6.39,5.17-11.79,13.04-16.19,23.62
		c-4.38,10.5-6.21,19.85-5.51,28.06c0.35,3.92-1.14,6.92-4.49,9.01c-3.1,1.96-6.55,2.53-10.36,1.71c-3.48-0.76-6.2-2.86-8.16-6.28
		c-2.01-3.56-2.31-7.12-0.9-10.69c3.81-9.6,7.37-19.96,10.69-31.08l4.45-15.87c0.52-1.63,0.65-3.49,0.41-5.59l-0.82-4.85
		c-0.33-2.47,0.12-5.14,1.35-7.99C174.36,387.66,175.98,385.31,178.04,383.35"/>
	<path class="st2" d="M167.07,472.26l1.31-0.04c1.01,0.22,1.65,0.45,1.92,0.69c1.28,1.22,2.81,1.35,4.61,0.37
		c1.93-1.01,2.86-2.77,2.77-5.3c0-0.27,0.24-0.77,0.73-1.51c0.52-0.76,0.82-1.01,0.9-0.73c0.79,1.96,0.83,3.86,0.12,5.71
		c-0.63,1.66-1.71,2.92-3.26,3.79c-1.58,0.9-3.17,1.13-4.77,0.69C169.6,475.47,168.16,474.25,167.07,472.26"/>
	<path class="st2" d="M202.48,397.5c-2.96,0.46-5.98-0.03-9.05-1.47c-3.07-1.44-5.55-3.52-7.42-6.24c-0.16-0.24,0.15-0.48,0.94-0.69
		l1.39-0.12c4.27,4.27,8.82,6.04,13.66,5.3c9.44-1.39,20.28-5.91,32.55-13.58c11.91-7.45,18.76-13.72,20.56-18.8
		c3.32-9.44,3.89-19.85,1.71-31.24c-1.82-9.6-5.25-18.58-10.28-26.96c-3.24-5.38-6.77-9.9-10.6-13.54
		c-3.83-3.67-7.53-6.06-11.09-7.18c-0.41-0.14-0.44-0.53-0.08-1.18c0.35-0.68,0.79-0.92,1.31-0.73c3.83,1.33,7.76,3.89,11.79,7.67
		c4.13,3.86,7.84,8.52,11.13,13.99c5.71,9.52,9.49,18.88,11.34,28.1c2.26,11.34,1.55,22.26-2.12,32.75
		c-2.18,6.2-9.49,13.05-21.94,20.56C223.96,391.55,212.7,396.01,202.48,397.5"/>
	<path class="st2" d="M232.45,225.92c-3.48,0.33-12.02,4.62-25.61,12.89c-14.52,8.84-24.62,16.33-30.3,22.47
		c-2.58,2.77-4.19,6.31-4.81,10.6c-0.41,2.69-0.52,7.38-0.33,14.07c0.33,10.52-0.03,19.16-1.06,25.9
		c-1.82,11.72-5.86,23.52-12.11,35.4c-1.36,2.56-0.26,6.76,3.3,12.6c2.01,3.34,5.59,8.23,10.73,14.64l6.49,8.24
		c3.18,3.48,6.06,5.26,8.65,5.34c2.07,0.05,3.77-0.69,5.1-2.24l-1.55-5.87c-0.98-3.81-1.47-6.15-1.47-7.02c0-2.8,5.66-9.8,16.97-21
		l11.66-11.75c3.56-3.81,5.36-6.29,5.38-7.46c0.05-2.18-1.54-6.51-4.77-13.01c-3.37-6.74-5.14-11.15-5.3-13.21
		c-0.24-3.26,1.93-9.22,6.53-17.86c3.89-7.34,8.35-14.56,13.38-21.66c1.36-1.96,2.5-3.34,3.43-4.16c1.01-0.9,2.62-1.96,4.85-3.18
		c5-2.72,11.96-5.45,20.88-8.2c7.7-2.37,13.68-3.86,17.95-4.49c4.27-0.63,6.4-1.41,6.4-2.37c0-0.92-2-2.61-6-5.06
		c-7.45-4.6-16.52-8.23-27.2-10.89C244.43,226.36,237.37,225.45,232.45,225.92 M204.68,236.36c14.49-8.32,23.68-12.66,27.57-13.01
		c5.19-0.49,12.87,0.53,23.04,3.06c11.88,2.94,21.56,6.85,29.04,11.75c4.73,3.1,6.78,5.6,6.16,7.5c-0.6,1.77-3.48,2.96-8.65,3.59
		c-5.22,0.63-13.08,2.8-23.57,6.53c-11.77,4.16-18.71,7.7-20.8,10.6l-12.07,18.31c-6.28,10.31-9.42,17.63-9.42,21.98
		c0,1.03,1.63,4.6,4.89,10.69c3.59,6.72,5.61,10.77,6.08,12.15c0.84,2.75,0.33,5.4-1.55,7.95c-0.49,0.68-5.87,5.83-16.15,15.46
		c-10.28,9.92-15.93,16.18-16.97,18.76c-0.35,0.92,0.08,3.24,1.31,6.93c1.39,4.11,2.08,6.77,2.08,7.99c0,0.71-0.8,1.58-2.41,2.61
		c-1.82,1.11-3.64,1.65-5.47,1.59c-3.1-0.08-6.53-1.82-10.28-5.22c-2.31-2.12-5.15-5.33-8.52-9.63c-5.9-7.53-9.73-12.78-11.5-15.74
		c-3.67-6.2-4.69-10.85-3.06-13.95c7.04-13.41,11.22-25.33,12.52-35.77c0.46-3.86,0.63-8.14,0.49-12.85l-0.57-12.11
		c-0.22-6.85-0.1-11.73,0.37-14.64c0.73-4.68,2.52-8.55,5.34-11.62C178.43,252.97,189.12,245.33,204.68,236.36"/>
	<path class="st2" d="M257.9,253.85c0.49-0.38,1.45-0.64,2.9-0.77l1.71,0.12c-4.76,3.34-8.86,6.96-12.32,10.85
		c-3.45,3.89-5.68,7.42-6.69,10.6c-0.71,2.18-1.11,5.47-1.22,9.87c-0.08,3.64,0.04,7.37,0.37,11.18c0.05,0.52-0.48,0.33-1.59-0.57
		c-1.09-0.92-1.66-1.82-1.71-2.69c-0.22-3.4-0.2-6.74,0.04-10.03c0.27-3.48,0.75-6.28,1.43-8.4c0.92-2.91,2.98-6.2,6.16-9.87
		C249.96,260.62,253.61,257.2,257.9,253.85"/>
	<path class="st2" d="M266.02,251.28c0.49-0.41,1.37-0.65,2.65-0.73c1.31-0.11,1.81-0.04,1.51,0.2c-3.89,2.83-8.4,7.46-13.54,13.91
		c-5.25,6.53-8.09,11.16-8.52,13.91c-0.38,2.26-0.1,7.21,0.86,14.85l1.79,14.68c0.05,0.71-0.52,0.16-1.71-1.63
		c-1.17-1.82-1.78-3.24-1.84-4.24l-1.1-10.65c-0.57-6.53-0.64-11.15-0.2-13.87c0.44-2.72,2.95-7,7.55-12.85
		C257.65,259.54,261.83,255.01,266.02,251.28"/>
	<path class="st2" d="M163.81,489.64c1.11-2.42,2.57-4.05,4.36-4.89c0.52-0.24,0.97-0.01,1.35,0.69c0.38,0.71,0.27,1.25-0.33,1.63
		c-3.92,2.39-5.34,5.94-4.28,10.65c0.44,1.93,1.28,3.6,2.53,5.02c1.28,1.5,2.75,2.38,4.4,2.65c4.11,0.68,8.42,2.61,12.93,5.79
		c-0.98,0.14-1.84,0.37-2.57,0.69c-1.39-0.95-2.94-1.79-4.65-2.53c-1.85-0.79-3.43-1.24-4.73-1.35c-3.34-0.3-5.93-1.54-7.75-3.71
		c-1.6-1.88-2.49-4.24-2.65-7.1C162.29,494.52,162.75,492.01,163.81,489.64"/>
	<path class="st2" d="M240.08,538.13c0.3,0.08,0.08,0.52-0.65,1.31c-0.73,0.82-1.25,1.17-1.55,1.06
		c-8.21-3.32-15.92-6.92-23.13-10.81l-16.15-9.26l-8.85-6.04c-1.6-1.06-3.71-1.44-6.32-1.14c-0.92,0.11-2.24,0.72-3.96,1.84
		c-1.5,0.95-2.75,1.92-3.75,2.9c-0.16,0.19-0.52-0.05-1.06-0.73c-0.57-0.68-0.73-1.13-0.49-1.35c4.02-3.86,6.92-5.9,8.69-6.12
		c2.99-0.38,5.53,0.15,7.63,1.59l3.55,2.69c1.82,1.36,3.7,2.58,5.63,3.67l15.78,9.67C223.58,532.06,231.79,535.63,240.08,538.13"/>
	<path class="st2" d="M232.74,554.08c0.82,0.6,1.2,1.39,1.14,2.37c-0.03,0.98-0.27,1.28-0.73,0.9c-6.31-5.11-13.32-9.11-21.05-11.99
		c-7.12-2.64-14.4-4.19-21.82-4.65l-8.52-0.98c-3.21-0.73-5.56-2.01-7.06-3.83c-0.16-0.19,0.01-0.72,0.53-1.59
		c0.52-0.9,0.83-1.28,0.94-1.14c1.58,2.07,4.12,3.43,7.63,4.08l6.73,0.53C206.08,539.26,220.15,544.7,232.74,554.08"/>
	<path class="st2" d="M166.58,482.99c0.68,0.16,1.29,0.75,1.84,1.75c0.54,1.03,0.63,1.47,0.24,1.31c-3.7-1.66-7.1-1.85-10.2-0.57
		c-2.99,1.22-5.14,3.52-6.44,6.89c-0.44,1.14-1.65,3.05-3.63,5.71l-7.3,8.93c-2.69,3.1-6.55,7.89-11.58,14.36
		c-5.36,6.82-10.62,13.74-15.78,20.76c-4.19,5.68-7.61,9.79-10.28,12.32c-1.03,1.03-1.69,2.27-1.96,3.71
		c-0.3,1.44-0.15,2.9,0.45,4.36c2.01,5.17,5.89,6.96,11.62,5.38c2.26-0.6,4.26-1.63,6-3.1c1.77-1.44,2.75-2.87,2.94-4.28
		c0.46-3.1,2.15-7.33,5.06-12.68c2.8-5.11,6.23-10.37,10.28-15.78c9.57-12.73,17.5-20.03,23.78-21.9c2.04-0.6,3.51-1.33,4.4-2.2
		c0.9-0.87,1.36-2.04,1.39-3.51l1.43-0.04c0.92,0.16,1.37,0.39,1.35,0.69c-0.19,2.04-1.09,3.7-2.69,4.98
		c-1.17,0.95-2.83,1.74-4.98,2.37c-6.31,1.9-14.07,9.52-23.29,22.84c-3.62,5.22-6.76,10.36-9.42,15.42
		c-2.58,4.89-4.04,8.4-4.36,10.52c-0.46,2.86-1.89,5.21-4.28,7.06c-2.2,1.69-4.81,2.68-7.83,2.98c-3.05,0.3-5.79-0.18-8.24-1.43
		c-2.66-1.33-4.46-3.37-5.38-6.12c-1.69-5-1.37-8.62,0.94-10.85c3.07-3.02,6.58-7.12,10.52-12.32
		c8.35-11.12,17.66-22.91,27.94-35.36c6.12-7.45,9.65-12.37,10.6-14.76c1.5-3.75,3.7-6.21,6.61-7.38
		C159.02,481.97,162.45,481.96,166.58,482.99"/>
	<path class="st2" d="M160.02,490.5c0.65-1.03,1.54-1.85,2.65-2.45c1.11-0.57,2.24-0.83,3.39-0.77c0.27,0.03,0.18,0.41-0.29,1.14
		c-0.46,0.73-0.8,1.14-1.02,1.22c-1.01,0.3-1.79,0.97-2.37,2c-0.84,1.36-1.2,2.77-1.06,4.24c0.16,1.58,0.92,2.53,2.28,2.86
		c0.19,0.05,0.49,0.45,0.9,1.18c0.41,0.76,0.48,1.16,0.2,1.18c-2.8,0.05-4.65-1.16-5.55-3.63
		C158.32,495.13,158.6,492.81,160.02,490.5"/>
	<path class="st2" d="M174.7,515.01c3.34,2.01,5.17,5.37,5.47,10.07c0.3,4.27-0.57,7.46-2.61,9.58
		c-7.21,7.5-15.61,20.52-25.21,39.03c-5.76,11.12-11.11,22.43-16.03,33.93c-1.52,3.53-6.68,4.69-15.46,3.47
		c-0.24-0.05-0.18-0.54,0.2-1.47c0.35-0.92,0.67-1.37,0.94-1.35c3.56,0.46,6.2,0.41,7.91-0.16c1.25-0.41,2.13-1.2,2.65-2.37
		c2.99-7.02,8.36-17.66,16.11-31.94c10.9-20.07,19.74-33.62,26.51-40.66c2.09-2.18,2.96-4.94,2.61-8.28
		c-0.35-3.32-1.73-5.82-4.12-7.5c-1.82-1.31-3.98-1.65-6.49-1.02c-2.53,0.65-4.17,2.01-4.94,4.08c-2.75,7.34-9.82,19.73-21.21,37.16
		c-11.28,17.21-19.09,27.65-23.41,31.32c-2.23,1.93-3.79,3.58-4.69,4.94c-0.73,1.14-1.13,2.31-1.18,3.51c0,0.27-0.49,0.44-1.47,0.49
		c-1.01,0.03-1.51-0.1-1.51-0.37c0.11-2.86,0.27-4.66,0.49-5.42c0.68-2.34,2.24-4.27,4.69-5.79c4.76-2.96,12.89-13.07,24.39-30.3
		c11.15-16.67,18.14-28.81,20.96-36.42c1.06-2.83,3.29-4.68,6.69-5.55C169.28,513.15,172.17,513.49,174.7,515.01"/>
	<path class="st2" d="M177.02,520.11c-0.24-0.05-0.63-0.46-1.14-1.22c-0.54-0.73-0.69-1.1-0.45-1.1c2.37,0.03,4.27,0.84,5.71,2.45
		c1.28,1.44,1.94,3.19,2,5.26c0.03,2.07-0.58,3.85-1.84,5.34c-1.41,1.66-3.34,2.56-5.79,2.69c-0.24,0.03-0.14-0.34,0.33-1.1
		c0.44-0.76,0.77-1.17,1.02-1.22c2.91-0.73,4.27-2.6,4.08-5.59C180.72,522.7,179.42,520.87,177.02,520.11"/>
	<path class="st2" d="M83.05,558.08c0.9-0.54,1.93-0.69,3.1-0.45c0.73,0.16,1.67,0.56,2.81,1.18c1.69,1.01,3.11,1.6,4.28,1.79
		c2.04,0.35,4.28-0.03,6.73-1.14c0.27-0.11,0.58,0.23,0.94,1.02c0.35,0.76,0.39,1.21,0.12,1.35c-2.91,1.33-5.59,1.79-8.03,1.39
		c-1.39-0.24-3.02-0.9-4.89-1.96c-0.92-0.54-1.59-0.87-2-0.98c-0.46-0.11-0.88-0.04-1.26,0.2c-2.72,1.63-4.99,3.83-6.81,6.61
		c-1.79,2.75-2.88,5.63-3.26,8.65c1.98-1.2,4.27-2.12,6.85-2.77c2.18-0.57,4.08-0.86,5.71-0.86c0.73,0,1.71,0.26,2.94,0.77
		l3.83,1.84c4.6,2.37,7.89,3.71,9.87,4.04c2.8,0.44,5.18-0.42,7.14-2.57c1.79-1.96,2.84-4.43,3.14-7.42
		c0.05-0.41,0.57-0.75,1.55-1.02c0.98-0.24,1.45-0.18,1.43,0.2c-0.11,2.07-0.58,4.12-1.43,6.16c-0.79,1.96-1.75,3.56-2.9,4.81
		c-2.34,2.53-5.3,3.39-8.89,2.57c-1.96-0.44-5.6-2.03-10.93-4.77c-3.05-1.58-4.96-2.37-5.75-2.37c-1.63,0-3.79,0.54-6.49,1.63
		c-2.86,1.14-5.19,2.46-7.02,3.96c-1.22,0.98-1.84,0.69-1.84-0.86c0-3.89,0.99-7.82,2.98-11.79
		C77.1,563.14,79.79,560.06,83.05,558.08"/>
	<path class="st2" d="M117.11,612.73c2.23-1.14,3.49-3.03,3.79-5.67c0.22-2.07-0.48-3.9-2.08-5.51c-1.03-1.01-2.3-1.74-3.79-2.2
		c-1.5-0.44-3.05-0.56-4.65-0.37l-5.67-0.24c-0.9-0.24-2.03-0.76-3.39-1.55l-2.08-1.06c-0.84-0.3-1.79-0.44-2.86-0.41
		c-2.8,0.08-5.72,1.94-8.77,5.59c-3.02,3.59-5.02,7.53-6,11.83c3.59-2.26,7.34-3.47,11.26-3.63c3.26-0.16,5.97,0.37,8.12,1.59
		c2.69,1.5,5.56,2.41,8.61,2.73C112.62,614.13,115.12,613.77,117.11,612.73 M105.04,596.25c1.55,0.57,3.24,0.75,5.06,0.53
		c4.49-0.57,7.86,0.26,10.11,2.49c2.58,2.56,3.74,5.55,3.47,8.97c-0.3,3.51-2.01,6.15-5.14,7.91c-2.18,1.25-5.08,1.6-8.73,1.06
		c-3.4-0.49-6.7-1.63-9.91-3.43c-2.18-1.25-4.84-1.81-7.99-1.67c-4.05,0.16-7.78,1.58-11.18,4.24c-0.73,0.6-1.28,0.86-1.63,0.77
		c-0.33-0.08-0.46-0.44-0.41-1.06c0.52-5.38,2.5-10.55,5.95-15.5c3.53-5.11,7.11-7.72,10.73-7.83c2.23-0.05,4.38,0.53,6.44,1.75
		C103.34,595.43,104.41,596.01,105.04,596.25"/>
	<path class="st2" d="M302.44,477.16c-8.02-0.38-14.59,2.3-19.7,8.03c-4.3,4.87-6.39,9.99-6.28,15.38
		c7.15,0.76,16.21,2.53,27.16,5.3c9.84,2.47,19.09,5.19,27.73,8.16c-0.79-10.09-3.94-18.65-9.46-25.7
		C316.35,481.24,309.87,477.51,302.44,477.16 M280.99,482.62c5.76-5.85,12.86-8.58,21.29-8.2c8.18,0.38,15.34,4.58,21.45,12.6
		c6.09,7.99,9.41,17.51,9.95,28.55l-0.16,0.94c-0.24,0.33-0.68,0.38-1.31,0.16c-8.7-3.07-18.41-5.95-29.12-8.65
		c-11.77-2.94-21.3-4.76-28.59-5.47c-0.6-0.08-0.92-0.44-0.98-1.06C273.06,494.44,275.55,488.14,280.99,482.62"/>
	<path class="st2" d="M428.68,486.7c-3.53-4.02-7.74-6.76-12.6-8.2c-4.05-1.2-8.24-1.33-12.56-0.41c-4.35,0.9-8.43,2.77-12.24,5.63
		c-4.7,3.51-8.43,7.97-11.18,13.38c-2.75,5.38-4.23,11.15-4.45,17.29c29.83-8.08,49.76-12.71,59.79-13.91
		C434.44,495.32,432.18,490.73,428.68,486.7 M402.98,475.12c4.89-0.98,9.63-0.76,14.19,0.65c10.58,3.21,17.63,11.35,21.17,24.43
		c0.35,1.36-0.12,2.13-1.43,2.32c-6.91,0.98-19.26,3.66-37.07,8.03l-25.08,6.4l-1.18-0.16c-0.14-0.16-0.2-0.48-0.2-0.94
		c0-6.91,1.39-13.36,4.16-19.37c2.88-6.28,6.99-11.43,12.32-15.46C393.82,478.04,398.2,476.07,402.98,475.12"/>
	<path class="st2" d="M398.94,502.12c0-1.41,0.14-2.5,0.41-3.26c0.19-0.65,0.44-0.98,0.73-0.98c0.73,0,1.1,1.43,1.1,4.28
		c0,1.41-0.12,2.5-0.37,3.26c-0.19,0.6-0.44,0.9-0.73,0.9c-0.27,0-0.52-0.31-0.73-0.94C399.08,504.62,398.94,503.53,398.94,502.12"
		/>
	<path class="st2" d="M310.68,502.45c0.03-1.39,0.16-2.47,0.41-3.26c0.22-0.63,0.48-0.94,0.77-0.94c0.71,0,1.03,1.39,0.98,4.16
		c-0.03,1.44-0.15,2.54-0.37,3.3c-0.22,0.68-0.46,1.01-0.73,0.98c-0.27,0-0.5-0.31-0.69-0.94
		C310.78,504.96,310.65,503.86,310.68,502.45"/>
	<path class="st2" d="M182.53,387.06c0.05-0.24,0.41-0.12,1.06,0.37l0.94,0.94c-0.49,3.67,1.05,6.21,4.61,7.63
		c1.44,0.57,2.92,0.79,4.45,0.65c1.55-0.19,2.76-0.72,3.63-1.59c0.16-0.16,0.69-0.07,1.59,0.29c0.9,0.35,1.31,0.6,1.22,0.73
		c-1.25,1.77-3.02,2.87-5.3,3.3c-2.15,0.41-4.27,0.15-6.36-0.77c-2.2-0.95-3.85-2.38-4.94-4.28
		C182.2,392.17,181.91,389.75,182.53,387.06"/>
	<path class="st2" d="M472.52,541.68c0.24-0.19,0.58,0.01,1.02,0.61c0.44,0.57,0.53,0.95,0.29,1.14l-4.2,3.1l-1.06-1.96
		L472.52,541.68"/>
</g>
</svg>
