<?xml version="1.0" encoding="utf-8"?>
<!-- Generator: Adobe Illustrator 24.3.0, SVG Export Plug-In . SVG Version: 6.00 Build 0)  -->
<svg version="1.1" id="Layer_1" xmlns="http://www.w3.org/2000/svg" xmlns:xlink="http://www.w3.org/1999/xlink" x="0px" y="0px"
	 viewBox="0 0 720 720" style="enable-background:new 0 0 720 720;" xml:space="preserve">
<style type="text/css">
	.st0{fill:#D2DEF0;}
	.st1{fill:#B5BFD0;}
	.st2{fill:#152139;}
	.st3{fill:#FDE000;}
	.st4{fill:#B4A258;}
	.st5{fill:#0C4D48;}
	.st6{fill:#EB8599;}
	.st7{fill:#D07488;}
	.st8{fill:#FFFFFF;}
	.st9{fill:#978A4A;}
	.st10{fill:#93341F;}
	.st11{fill:#E3203D;}
	.st12{fill:#DBC226;}
	.st13{fill:#DBDDDC;}
</style>
<g>
	<path d="M270.42,536.81c0,4.24,0.2,8.24-0.04,12.21c-0.95,15.8-4.04,31.14-10.14,45.82c-2.61,6.28-6.49,11.55-11.75,15.89
		c-5.69,4.7-10.99,9.83-15.73,15.52c-3.2,3.84-5.84,8.04-8.11,12.49c-2.13,4.19-1.94,8.2,0.53,12.13c0.75,1.2,1.52,2.43,2.49,3.44
		c4.92,5.1,10.61,9.15,17.1,12.06c2.25,1.01,4.43,1.31,6.93,0.69c5.12-1.28,10.25-1.09,15.09,1.24c6.95,3.35,10.91,8.85,10.79,16.65
		c-0.13,8.29-3.62,14.77-11.58,18.16c-4.31,1.84-8.92,2.31-13.55,2.48c-5.08,0.18-10.11-0.25-15.12-1.11
		c-0.83-0.14-1.8-0.18-2.56,0.12c-4.59,1.82-9.36,1.91-14.18,1.71c-1.6-0.07-3.18-0.29-4.78-0.37c-0.69-0.03-1.44,0-2.06,0.24
		c-5.44,2.12-11.09,2.22-16.8,1.83c-0.8-0.05-1.6-0.1-2.39-0.21c-1.89-0.27-3.59,0.01-5.37,0.9c-3.57,1.79-7.53,1.92-11.46,1.86
		c-4.1-0.06-8.15-0.48-12.14-1.47c-0.68-0.17-1.59,0.01-2.23,0.34c-6.21,3.26-12.89,3.87-19.69,3.38c-3.34-0.24-6.62-1.16-9.94-1.75
		c-1.72-0.31-2.9-1.34-3.63-2.85c-0.76-1.59-1.5-3.22-2.05-4.9c-1.77-5.42-3.03-10.92-3.12-16.68c-0.06-3.64,0.94-6.84,2.94-9.77
		c1.65-2.42,3.42-4.76,5.12-7.15c2.42-3.4,4.78-6.85,7.25-10.22c0.81-1.1,0.96-2.15,0.75-3.47c-0.8-4.94-0.95-9.89-0.17-14.86
		c0.38-2.44,1.31-4.56,3.08-6.35c1.18-1.2,2.14-2.61,3.23-3.9c2.93-3.46,3.68-7.45,2.65-11.75c-1.83-7.59-3.54-15.22-5.76-22.7
		c-1.54-5.21-2.12-10.46-1.83-15.78c0.49-8.86,1.28-17.71,2-26.56c0.16-1.94,0.62-3.85,0.86-5.79c0.44-3.57,1.94-6.7,4.35-9.26
		c3.88-4.14,7.73-8.37,12.02-12.06c6.19-5.32,12.72-10.25,19.22-15.2c1.43-1.09,2.07-2.09,2.05-3.89
		c-0.13-12.88-0.25-25.77-0.16-38.65c0.03-4.87,0.62-9.74,0.99-14.6c0.19-2.45,1.25-4.59,2.48-6.68
		c5.03-8.54,11.33-16.11,17.76-23.6c10.74-12.49,23.36-22.61,37.97-30.13c5.06-2.6,8.3-6.49,10.86-11.25
		c2.12-3.93,3.57-8.12,4.62-12.45c0.12-0.5,0.15-1.03,0.21-1.49c-14.76-7.87-16.1-27.03-3.4-34.64c-0.16-0.83-0.26-1.78-0.53-2.68
		c-0.26-0.84-0.64-1.66-1.07-2.43c-5-9-11.81-16.38-20.09-22.46c-1.66-1.22-2.94-1.24-4.74-0.11c-12.4,7.76-25.65,13.77-39.47,18.51
		c-1.86,0.64-3.16,1.49-3.54,3.46c-0.77,4.02-3.69,5.12-7.25,5.26c-4.35,0.18-8.7,0.29-13.04,0.48c-1.15,0.05-2.3,0.23-3.43,0.43
		c-3.49,0.62-6.95,0.41-10.23-0.89c-3.72-1.49-7.56-1.77-11.48-1.78c-0.88,0-1.79-0.06-2.63-0.29
		c-15.23-4.31-29.67-10.35-42.51-19.81c-4.02-2.96-7.74-6.26-11.06-9.98c-7.68-8.61-11.68-18.51-10.86-30.21
		c0.59-8.41,1.01-16.84,1.42-25.27c0.27-5.68,0.43-11.36,0.55-17.04c0.12-5.24,0.25-10.48,0.15-15.72
		c-0.21-11.28-0.57-22.55-0.85-33.82c-0.4-16.31,3.58-31.4,13.34-44.6c5.64-7.63,11.93-14.79,17.89-22.19
		c3.45-4.29,7.01-8.51,10.22-12.98c7.23-10.07,16.16-17.87,27.9-22.25c3.24-1.21,6.38-2.71,9.61-3.94
		c7.05-2.68,14.13-5.28,21.21-7.91c8.61-3.2,16.77-1.76,24.63,2.48c4.57,2.46,8.66,5.58,12.26,9.32
		c7.1,7.38,12.61,15.82,16.54,25.27c1.52,3.65,2.25,7.45,1.63,11.45c-0.69,4.5-2.91,7.94-6.74,10.37c-0.45,0.28-0.88,0.59-1.42,0.96
		c0.57,1.94,1.21,3.85,1.69,5.81c0.38,1.55,0.64,3.13,0.8,4.72c0.48,4.7-1.06,8.71-4.22,12.19c-4.47,4.92-9.83,8.7-15.33,12.32
		c-0.88,0.58-1.77,1.14-2.61,2.16c0.54,0,1.09,0.06,1.62-0.01c5.57-0.73,11.16-0.81,16.75-0.4c3.62,0.27,7.23,0.84,10.82,1.38
		c1.27,0.19,2.38,0.29,3.58-0.37c8.61-4.73,15.93-10.92,21.85-18.8c1.8-2.39,2.67-4.96,2.82-7.85c0.6-11.71,1.17-23.41,1.8-35.12
		c0.34-6.48,1.13-12.91,2.74-19.22c1.41-5.53,4.5-10.01,8.63-13.81c1.37-1.26,2.11-2.69,2.58-4.48
		c2.89-10.92,6.49-21.59,11.87-31.59c2.2-4.08,4.68-7.95,7.82-11.39c3.86-4.23,8.52-6.25,14.27-5.59c1.41,0.16,2.83,0.19,4.38,0.28
		c0.41-0.55,0.82-1.11,1.23-1.66c0.85-1.14,1.65-2.32,2.57-3.4c2.89-3.41,6.6-4.86,10.96-3.86c4.57,1.05,9.08,2.41,13.59,3.72
		c3.66,1.06,7.25,2.37,10.93,3.37c14.86,4.02,29.33,9.13,43.27,15.67c3.91,1.84,7.57,4.26,11.22,6.61c3.15,2.03,4.32,4.94,3.34,8.74
		c-1.18,4.55-2.13,9.16-3.17,13.75c-0.1,0.42-0.17,0.85-0.27,1.36c2.11,1.8,4.17,3.6,6.28,5.34c4.91,4.05,6.67,9.22,5.66,15.44
		c-0.28,1.74-0.45,3.5-0.69,5.34c1.75,1.1,3.52,2.1,5.18,3.26c6.04,4.21,10.42,9.68,12.03,16.98c1.48,6.69,0.39,12.88-4.31,18.18
		c-2.19,2.47-4.82,4.15-7.85,4.71c-1.37,2.43-2.63,4.67-3.9,6.9c-0.82,1.44-0.19,3.96,1.24,4.88c0.45,0.29,0.94,0.5,1.39,0.79
		c2.67,1.78,3.56,3.98,2.76,7.11c-1.23,4.83-4.14,8.59-7.79,11.84c-1.3,1.15-2.67,2.22-4.29,3.56c2.74,0.61,4.89,0.91,7.17-0.62
		c8.57-5.75,18.04-9.17,28.35-9.92c14.52-1.06,27.56,3.05,39.18,11.76c1.77,1.32,3.42,2.8,5.09,4.17c19.58-9.54,44.13-6,56.71,4.57
		c0.4-0.66,0.83-1.28,1.16-1.95c3.13-6.38,6.24-12.76,9.37-19.14c1.76-3.58,1.79-4.01,0.1-8.28c-7.16-0.67-14.62,0-21.72-2.8
		c-0.38,1.16-0.57,2.02-0.92,2.81c-0.71,1.62-1.36,3.29-2.3,4.77c-1.21,1.9-3.05,2.83-5.38,2.92c-5.2,0.21-10.28-0.45-15.31-1.68
		c-8.57-2.1-16.9-4.85-24.52-9.42c-0.84-0.5-1.64-1.07-2.47-1.57c-3.56-2.16-5.46-4.86-4.12-11.02c0.2-0.94,0.5-1.85,0.79-2.91
		c-0.64-0.28-1.21-0.48-1.74-0.76c-2.13-1.1-4.35-2.05-6.34-3.35c-5.75-3.75-7.94-9.09-6.71-15.85c0.95-5.2,2.67-10.12,5.03-14.83
		c4.28-8.55,9.48-16.46,16.13-23.38c4.33-4.5,9.5-7.29,15.61-8.6c9.93-2.14,19.91-2.21,29.95-1.12
		c13.08,1.42,25.65,4.71,37.63,10.18c14.73,6.73,27.49,16.23,38.78,27.77c7.57,7.73,12.7,16.83,15.31,27.34
		c2.75,11.05,6.62,21.73,10.27,32.5c3.44,10.18,6.86,20.36,8.66,31c2.01,11.86,2.73,23.81,2.54,35.82
		c-0.13,7.95-1.18,15.75-3.61,23.34c-1.91,5.95-4.49,11.58-7.84,16.86c-3.38,5.32-8.03,9.05-14.12,10.67
		c-2.9,0.77-4.68,2.43-6.29,4.82c-3.07,4.57-6.27,9.07-9.7,13.36c-4.91,6.14-8.26,7.36-16.32,4.39c-2.91-1.07-5.73-2.41-8.66-3.45
		c-1.91-0.68-3.91-1.22-5.92-1.5c-1.04-0.15-2.34,0.13-3.25,0.67c-9.13,5.37-19.08,8.18-29.51,9.32
		c-17.01,1.86-33.7,0.28-49.95-5.21c-9.22-3.12-17.88-7.39-26.03-12.7c-0.74-0.48-1.49-0.94-2.33-1.47c-1.9,2.22-3.6,4.52-5.61,6.48
		c-3.1,3.03-6.37,5.91-9.69,8.71c-0.96,0.82-1.55,1.57-1.61,2.84c-0.06,1.4-0.31,2.8-0.46,4.04c2.13,1.1,4.22,1.88,5.98,3.15
		c3.47,2.49,6,5.87,7.34,9.92c3.62,10.91,1.56,20.82-5.65,29.7c-0.72,0.89-1.62,1.65-2.54,2.34c-0.84,0.63-1.81,1.1-2.88,1.72
		c0.23,2.47,0.58,5.01,1.91,7.26c4.54,7.71,10.4,14.16,18.29,18.57c1,0.56,2.08,1.03,3.19,1.29c13.78,3.24,26.6,8.83,38.86,15.8
		c11.84,6.74,23.18,14.21,33.17,23.56c6.68,6.26,12.29,13.28,15.67,21.93c2.9,7.44,6.27,14.71,8.89,22.25
		c1.97,5.68,3.08,11.66,4.59,17.5c1.62,6.29,3.67,12.41,6.34,18.35c3.29,7.3,4.27,14.87,1.15,22.49c-1.03,2.5-2.81,4.69-4.19,7.06
		c-0.47,0.81-1.07,1.73-1.07,2.6c0.08,8.98-2.55,17.34-5.73,25.58c-4.36,11.29-10.04,21.96-15.34,32.81
		c-2.06,4.22-4.01,8.51-5.81,12.85c-0.84,2.03-1.3,4.24-1.76,6.41c-0.72,3.48-0.11,6.76,2.21,9.52c1.36,1.62,2.83,3.2,4.44,4.57
		c10.62,8.97,22.35,16.38,33.95,23.96c2.96,1.94,6.16,3.53,9.31,5.17c3.44,1.78,7.21,2.37,11.02,2.47
		c5.44,0.14,10.34,4.75,10.82,10.55c0.39,4.74-0.74,8.99-4.3,12.38c-0.64,0.61-1.19,1.35-1.89,1.87c-0.98,0.73-2.03,1.79-3.12,1.88
		c-4.84,0.37-9.45,2.77-14.32,2.09c-3.12-0.43-5.78,0.07-8.64,1.17c-3.49,1.35-7.25,1.64-11.02,1.48c-0.93-0.04-1.97,0.06-2.78,0.47
		c-1.55,0.8-3.15,1.11-4.86,1.18c-2.48,0.1-4.97,0.26-7.44,0.48c-3.05,0.27-6.01-0.11-8.96-0.9c-0.8-0.21-1.84-0.31-2.53,0.02
		c-6.66,3.17-13.81,3.79-21.01,4.21c-7.26,0.43-14.34-0.7-21.36-2.43c-2.8-0.69-4.81-2.12-6.4-4.7
		c-4.63-7.51-10.77-13.67-18.23-18.39c-3.97-2.51-8.13-4.75-12.27-6.98c-3.3-1.78-5.23-4.26-5.6-8.12
		c-0.63-6.46-1.06-12.92-0.77-19.41c0.12-2.72,0.94-5.16,2.54-7.44c2.8-4,5.4-8.14,8.08-12.22c0.24-0.37,0.49-0.74,0.71-1.13
		c3.43-6.04,3.4-8.69-0.56-14.34c-3.83-5.45-7.82-10.79-11.75-16.17c-0.42-0.57-0.84-1.15-1.3-1.69
		c-4.95-5.72-6.43-12.39-6.01-19.83c0.42-7.28,1.21-14.5,2.3-21.71c0.81-5.35,3.41-9.43,7.67-12.6c1.99-1.49,4-2.97,5.91-4.55
		c1.91-1.59,3.69-3.32,5.56-4.96c0.89-0.78,1.23-1.6,0.83-2.81c-0.51-1.51-0.85-3.08-1.21-4.63c-0.33-1.43-1.12-2.13-2.63-2.02
		c-3,0.23-6.02,0.34-9.01,0.69c-2,0.24-3.92,0.1-5.75-0.63c-3.13-1.25-6.31-2.43-9.29-3.98c-9-4.68-17.82-9.68-25.29-16.66
		c-1.86-1.74-3.53-3.76-4.95-5.88c-2.28-3.39-4.48-6.86-6.35-10.48c-3.8-7.35-9.93-10.94-17.89-12.23
		c-9.55-1.55-19.11-1.5-28.69-0.75c-6.47,0.51-12.89,1.38-19.11,3.38c-1.52,0.49-3.03,1.02-4.49,1.66
		c-3.71,1.62-6.63,3.84-8.81,7.61c-4.71,8.14-10,15.96-15.21,23.8c-6.98,10.51-14.29,20.8-22.38,30.5c-1.25,1.5-2.56,2.95-3.85,4.42
		c-4.01,4.6-8.59,8.14-14.89,9.08C275.41,534.97,273.01,536.03,270.42,536.81z M155.87,177.3c-0.36,3.85,0.37,7.21,2.25,10.22
		c2.55-3.5,5.05-6.93,7.54-10.35c-2.47-1.02-4.93-2.24-7.61-0.38C157.51,177.15,156.7,177.12,155.87,177.3z"/>
	<g>
		<path class="st0" d="M554.9,218.46c-0.44-1.69-0.81-3.4-1.34-5.05c-2.73-8.5-4.4-17.19-4.73-26.12
			c-0.15-4.07,0.51-7.92,2.39-11.59c2.42-4.75,4.68-9.57,6.96-14.39c0.68-1.42,1.65-2.37,3.08-3.1c6.43-3.28,12.46-7.17,17.64-12.29
			c7.02-6.94,9.24-15.56,8.87-25.08c-0.11-2.79-1.69-4.91-4.19-6.05c-1.91-0.88-3.99-1.6-6.06-1.89c-4.59-0.63-9.23-0.71-13.78,0.4
			c-4.05,0.99-7.35,2.98-8.99,7.14c-0.71,1.81-1.76,3.49-2.67,5.21c-3.47,6.53-10.25,7.71-16.86,4.09c0.17-0.77,0.32-1.63,0.56-2.45
			c2.53-8.56,5.84-16.77,10.98-24.15c0.73-1.04,1.62-2.09,1.44-4.03c-0.92,0.46-1.68,0.65-2.18,1.13c-1.08,1.05-2.1,2.17-3,3.37
			c-5.06,6.76-8.49,14.36-11.05,22.34c-0.59,1.85-1.57,2.53-3.33,2.75c-5.33,0.66-10.07-0.36-13.88-4.42
			c-0.94-1-1.27-1.95-0.79-3.35c2.39-6.99,5.12-13.83,8.83-20.23c1.11-1.91,2.53-3.64,3.8-5.46c0.53-0.76,1.35-1.45,0.83-2.7
			c-1.61,0.05-2.73,0.95-3.6,2.02c-1.84,2.27-3.69,4.56-5.22,7.05c-3.22,5.24-5.61,10.88-7.67,16.67c-0.82,2.3-0.84,2.24-3.18,2.37
			c-3.27,0.18-6.37-0.47-9.32-1.82c-1.19-0.55-2.28-1.35-3.37-2.1c-1.36-0.94-1.56-2.15-0.95-3.71c2.99-7.73,6.38-15.24,11.61-21.78
			c0.58-0.73,1.02-1.57,1.63-2.51c-1.69-0.69-2.76,0.03-3.57,0.88c-1.72,1.79-3.43,3.62-4.86,5.63c-3.37,4.72-5.85,9.94-8.07,15.29
			c-0.34,0.81-0.68,1.62-0.99,2.37c-5.92,0.88-13.46-3.12-15.92-8.26c-0.57-1.19-0.28-2.22,0.07-3.33
			c2.28-7.07,5.71-13.58,9.71-19.8c1.73-2.69,3.66-5.24,5.54-7.82c4.84-6.61,11.44-10.03,19.51-11.23
			c10.78-1.6,21.42-0.94,32.07,0.93c24.3,4.26,45.38,14.97,63.44,31.71c2.02,1.87,3.94,3.85,5.85,5.83
			c6.48,6.73,11.08,14.57,13.25,23.67c2.81,11.77,6.84,23.15,10.66,34.6c3.52,10.54,6.51,21.22,7.94,32.28
			c1.73,13.43,2.38,26.89,1.25,40.4c-0.25,2.98-1.14,5.66-2.74,8.22c-6.85,10.98-16.73,17.51-29.37,19.7
			c-6.65,1.15-13.33,2.04-19.7,4.4c-6.49,2.41-13.04,4.65-19.54,7.05c-8.02,2.97-16.2,5.2-24.71,6.32
			c-13.42,1.76-26.57,0.51-39.56-3.09c-7.82-2.16-15.45-4.84-22.31-9.24c-3.12-2-5.9-4.53-8.84-6.81c-1.02-0.79-1.25-1.8-1.11-3.06
			c1.32-11.85,1.41-23.75,1.56-35.65c0.06-4.75-1.28-8.92-3.83-12.79c-5.37-8.13-12.31-14.69-20.34-20.11
			c-3.08-2.08-6.39-3.83-9.67-5.59c-0.91-0.49-2.04-1.24-3.3-0.14c0.32,1.59,1.68,2.22,2.84,2.89c4.88,2.82,9.19,6.38,13.3,10.19
			c4.71,4.36,8.97,9.11,12.51,14.49c2.71,4.11,4.14,8.5,4.05,13.53c-0.19,10.57-0.31,21.13-1.41,31.66
			c-0.72,6.89-2.26,13.49-6.39,19.23c-0.46,0.64-0.89,1.38-1.51,1.82c-3.17,2.28-6.38,4.51-9.62,6.69c-1.73,1.16-3.69,1.59-5.8,1.65
			c-7.22,0.22-14.37-0.57-21.49-1.58c-7.65-1.09-15.27-2.39-22.65-4.77c-2.27-0.73-4.45-1.77-6.66-2.69
			c-2.23-0.93-3.5-2.66-3.99-4.99c-0.29-1.39-0.64-2.78-0.76-4.18c-0.66-7.17-0.8-14.36-0.67-21.56c0.11-6.13,0.02-12.26-0.01-18.39
			c-0.02-4.54-1.39-8.74-3.35-12.78c-3.12-6.43-7.18-12.25-11.66-17.79c-0.44-0.54-0.88-1.09-1.31-1.63
			c0.59-1.63,1.84-2.51,3.24-3.09c3.69-1.52,7.41-2.96,11.15-4.36c0.72-0.27,1.58-0.32,2.37-0.26c2.42,0.17,4.58-0.63,6.57-1.82
			c2.05-1.23,4.05-2.57,5.96-4.01c3.34-2.51,6.55-5.19,9.88-7.7c11.72-8.83,24.8-13.78,39.6-13.4c12.4,0.32,23.43,4.56,33.08,12.36
			c0.35,0.28,0.68,0.57,1,0.88c0.12,0.12,0.17,0.31,0.32,0.6c-2.14,1.63-4.38,3.17-6.43,4.94c-2,1.72-4.35,3.31-4.77,6.54
			c1.96,0.06,2.88-1.14,3.88-2.02c4.26-3.71,8.92-6.75,14.12-8.96c0.25-0.1,0.5-0.19,0.74-0.3c3.98-1.75,7.99-2.51,12.42-1.6
			c5.59,1.15,11.1,2.38,16.28,4.84c6.53,3.1,11.76,7.63,15.23,14.01c2.8,5.15,5.51,10.34,8.09,15.6c0.89,1.81,1.19,3.9,1.88,5.82
			c0.69,1.91,1.45,3.82,2.35,5.64c0.43,0.88,1.25,1.56,1.9,2.34C554.35,218.75,554.62,218.61,554.9,218.46z M610.75,247.81
			c1.81,0.73,2.66-0.2,3.53-0.86c3.58-2.71,6.47-6.06,8.89-9.82c4.3-6.67,7.5-13.81,7.42-21.87c-0.05-5.12-0.75-10.25-1.45-15.34
			c-2.22-16.11-7.98-31.21-13.43-46.39c-0.12-0.33-0.2-0.71-0.41-0.98c-0.29-0.36-0.69-0.64-1.51-1.38
			c0.12,1.54,0.11,2.49,0.27,3.41c0.92,5.42,2.12,10.8,2.77,16.25c1.31,10.83,2.44,21.68,3.41,32.55c0.34,3.78,0.34,7.66-0.12,11.43
			c-1.21,10-3.82,19.66-7.91,28.9C611.65,244.97,611.27,246.33,610.75,247.81z M597.85,151.47c-0.28-0.01-0.55-0.02-0.83-0.03
			c-0.43,0.84-1.02,1.63-1.26,2.52c-0.59,2.13-1.21,4.28-1.48,6.46c-0.94,7.57-1.77,15.16-2.59,22.74
			c-0.6,5.56-1.53,11.11-1.61,16.68c-0.17,11.79,0.11,23.6,0.22,35.4c0.01,0.72,0.22,1.43,0.4,2.53c0.83-0.75,1.33-1.12,1.72-1.57
			c1.98-2.25,3.33-4.88,3.89-7.78c1.03-5.3,1.96-10.64,2.65-16c0.99-7.65,1.64-15.35,2.61-23c0.68-5.4,1.25-10.79-0.14-16.13
			c-1.15-4.41-1.54-8.91-1.9-13.42c-0.14-1.77-0.32-3.54-0.64-5.28C598.71,153.53,598.21,152.51,597.85,151.47z M547.32,227.36
			c0.02-0.23,0.04-0.45,0.06-0.68c-0.92-0.45-1.81-1-2.78-1.32c-1.77-0.58-3.6-0.95-5.37-1.54c-11.61-3.85-23.22-7.72-34.83-11.59
			c-4.79-1.6-9.57-3.24-14.38-4.76c-0.75-0.24-1.65,0.01-2.48,0.03c0.06,0.85-0.06,1.75,0.2,2.53c1.12,3.45,3.03,6.43,5.84,8.74
			c6.99,5.76,15.13,8.89,24.05,9.74c6.17,0.59,12.4,0.72,18.6,0.72c3.16,0,6.33-0.7,9.48-1.15
			C546.27,228,546.79,227.61,547.32,227.36z M559.81,259.69c-1.53-1.29-3-0.9-4.33-0.73c-13.54,1.74-26.94,0.61-40.21-2.1
			c-6.23-1.27-12.3-3.37-18.44-5.08c-0.88-0.25-1.75-0.9-2.97-0.06c0.65,1.01,1.18,2.01,1.87,2.88c3.21,4.03,7.23,7.04,11.88,9.22
			c6.33,2.97,13.02,4.59,19.97,5.26c10.82,1.05,20.79-1.35,29.9-7.27C558.31,261.26,558.98,260.46,559.81,259.69z M568.13,224.32
			c0.24,0.02,0.47,0.05,0.71,0.07c0.29-0.79,0.7-1.57,0.83-2.39c0.24-1.58,0.36-3.18,0.45-4.77c0.27-4.88,0.36-9.77,0.78-14.63
			c1.31-14.86,2.92-29.69,5.56-44.39c0.17-0.96,0.51-2.02-0.16-3.14c-2.52,1.83-4.21,4.1-5.38,6.7c-2.58,5.75-5.07,11.54-7.55,17.34
			c-0.48,1.13-0.82,2.35-1.07,3.56c-2.36,11.06-0.03,21.52,4.31,31.66c0.54,1.27,0.87,2.41,0.8,3.79
			C567.29,220.22,567.17,222.36,568.13,224.32z M488.63,194.95c1.17,0.52,2.13,1.16,3.18,1.38c4.68,0.95,9.37,1.95,14.09,2.62
			c7.19,1.02,14.42,1.7,21.44,3.77c3.72,1.09,7.6,1.7,11.41,2.47c2.02,0.41,4,0.17,5.98-0.48
			C536.89,188.97,506.3,181.41,488.63,194.95z"/>
		<path class="st0" d="M256.75,204.67c-0.44,1.22-0.88,2.12-1.09,3.08c-0.71,3.19-0.08,6.36,0.22,9.53
			c0.96,10.08,2.07,20.15,2.86,30.24c0.47,6.02,0.24,12.06-0.82,18.06c-0.3,1.68-0.97,3-2.09,4.19c-3.26,3.46-7.06,6.22-11.12,8.64
			c-9.28,5.53-19.27,9.5-29.5,12.83c-5.72,1.86-11.64,3.13-17.49,4.59c-1.25,0.31-2.59,0.28-4.27,0.44
			c0.61-1.73,1.02-3.07,1.54-4.37c1.59-3.95,2.89-8.07,4.93-11.78c4.19-7.64,4.24-15.83,3.87-24.11
			c-0.37-8.23-3.01-15.83-6.99-22.99c-6.11-11.03-13.84-20.88-22.41-30.05c-3.81-4.07-8.18-7.61-12.3-11.39
			c-0.32-0.29-0.64-0.59-1.05-0.96c1.14-3.78,3.3-6.9,5.87-9.75c2.09-2.32,4.37-4.36,7.53-5.26c1.59-0.46,3.22-1.22,4.5-2.26
			c3.75-3.01,8.19-4.19,12.7-5.18c9.8-2.14,19.71-2.47,29.67-1.3c2.99,0.35,6.02,0.71,8.9,1.52c6.86,1.94,12.44,6.04,17.19,11.22
			c3.66,3.99,7.04,8.24,10.56,12.35c0.83,0.96,1.46,2.24,3.03,2.39c0.86-1.26,0.26-2.38-0.24-3.32c-1.17-2.19-2.41-4.36-3.85-6.38
			c-2.26-3.17-4.71-6.2-7.19-9.44c0.61-0.44,1.23-0.92,1.88-1.33c10.66-6.62,22.2-9.11,34.68-7.6c9.32,1.13,18.24,3.75,27.05,6.85
			c10.13,3.57,20.26,7.16,30.44,10.56c2.49,0.83,5.2,0.99,7.81,1.47c2,0.37,4.03,0.63,5.98,1.16c2.65,0.73,5.26,1.62,7.85,2.54
			c3.15,1.12,5.69,2.78,7.37,6.01c2.66,5.11,5.91,9.91,8.83,14.89c0.94,1.6,1.67,3.33,2.45,5.02c2.21,4.75,3.19,9.78,3.19,14.99
			c0,8.44-0.06,16.88-0.18,25.32c-0.01,0.91-0.34,1.96-0.88,2.68c-1.64,2.21-3.35,4.38-5.22,6.38c-2.4,2.56-5.32,4.34-8.71,5.46
			c-8.21,2.7-16.67,4.26-25.17,5.66c-10.63,1.76-21.39,1.96-32.11,2.65c-4.7,0.3-9.4,0.53-14.1,0.8c-7.7,0.44-15.06-0.88-21.89-4.52
			c-6.59-3.51-11.7-8.61-15.39-15.1c-0.5-0.88-0.86-2-0.82-3c0.29-8.42-1.35-16.62-2.63-24.86c-1.14-7.29-2.12-14.59-2.02-21.99
			C258.17,207.78,258.24,206.26,256.75,204.67z M235.65,183.85c-0.11-0.3-0.23-0.6-0.34-0.9c-1.56-0.1-3.12-0.29-4.68-0.28
			c-1.32,0.01-2.64,0.3-3.97,0.4c-6.47,0.51-12.26,2.67-17.2,6.95c-4.12,3.57-7.75,7.57-10.57,12.23c-1.46,2.41-2.66,5-3.79,7.59
			c-0.46,1.05-1.1,2.27-0.2,3.84c0.86-0.33,1.8-0.53,2.55-1.02c1.41-0.92,2.72-1.99,4.05-3.02c7.48-5.83,14.9-11.75,22.46-17.48
			c3.17-2.4,6.65-4.4,9.96-6.63C234.56,185.08,235.07,184.41,235.65,183.85z M210.75,268.64c1.41,3.35,5.73,7.04,8.61,7.63
			c0.35,0.07,0.7,0.1,1.06,0.12c11.17,0.47,21.94-5.61,25.99-17c1.03-2.91,1.55-6.01,2.16-9.05c0.25-1.25,0.46-2.61-0.43-4.19
			c-0.83,0.46-1.66,0.74-2.23,1.29c-1.15,1.1-2.21,2.31-3.23,3.53c-7.78,9.27-17.39,15.31-29.57,16.89
			C212.36,267.96,211.66,268.33,210.75,268.64z M207.76,232.55c1.07,0.43,1.9,0.89,2.79,1.1c5.49,1.28,10.76,0.71,15.73-2.03
			c8.74-4.83,12.94-12.81,15.24-22.09c0.1-0.42-0.19-0.93-0.3-1.42c-0.45,0.04-0.78-0.04-0.96,0.09
			c-10.59,7.75-20.45,16.49-31.8,23.19C208.26,231.51,208.19,231.82,207.76,232.55z"/>
		<path class="st0" d="M211.57,117.78c-5.09-7.93-11.04-14.71-18.39-20.19c-1.63-1.21-3.39-2.27-5.17-3.25
			c-0.96-0.52-2.04-1.14-3.34-0.38c-0.04,1.33,1.03,1.81,1.87,2.32c7.42,4.53,13.12,10.83,18.23,17.72c1.16,1.57,2.07,3.32,3.21,4.9
			c0.95,1.32,0.59,2.4-0.17,3.65c-3.15,5.15-7.65,8.29-13.6,9.36c-0.7,0.13-1.4,0.25-2.1,0.36c-0.26,0.04-0.53,0.01-1,0.01
			c-0.46-0.74-0.97-1.55-1.47-2.36c-5.07-8.26-11.06-15.68-19.29-21.03c-1.1-0.72-2.35-1.24-3.56-1.76
			c-0.32-0.14-0.78,0.06-1.35,0.12c0.35,1.65,1.56,2.33,2.58,3.09c6.81,5.04,12.24,11.32,16.67,18.5c1.02,1.66,2.03,3.35,2.84,5.12
			c0.37,0.81,0.54,1.9,0.35,2.76c-1.88,8.61-8.1,12.63-16.06,15.16c-4.26-12.14-12.45-20.9-22.48-28.15
			c-0.93-0.68-2.14-0.97-3.23-1.44c-0.15,0.2-0.3,0.39-0.44,0.59c0.51,0.63,0.97,1.33,1.55,1.89c2.47,2.43,5.04,4.76,7.46,7.23
			c4.87,4.98,9.05,10.49,12.23,16.71c0.32,0.63,0.54,1.32,0.89,1.93c1.71,2.95,1.01,5.46-1.04,8.01
			c-5.16,6.42-13.23,8.91-20.75,6.16c-0.89-0.33-1.84-0.78-2.5-1.44c-4.14-4.16-8.21-8.39-10.78-13.78
			c-3.05-6.41-12.06-7.81-16.64-1.26c-5.42,7.75-6.48,16.1-2.44,24.71c5.71,12.15,15.51,19.46,28.45,22.36
			c2.88,0.65,4.87,1.71,6.76,3.84c6.13,6.91,12.73,13.39,18.26,20.83c5.76,7.74,10.36,16.13,14,25.05c0.39,0.96,0.52,2.04,0.67,3.08
			c0.2,1.36,0.29,2.74,0.47,4.52c0.77-0.59,1.34-0.8,1.49-1.17c0.41-1.06,0.85-2.18,0.91-3.3c0.52-10.68-1.36-20.86-6.6-30.3
			c-3.15-5.68-7.36-10.47-12.45-14.44c-3.57-2.79-7.32-5.33-10.99-7.99c-0.7-0.51-1.38-1.04-2.06-1.56
			c1.09-1.51,2.07-2.87,2.93-4.07c14.26,10.57,25.24,24.19,34.85,39.01c3.44,5.3,6.33,10.9,8.26,16.96
			c2.22,6.97,2.19,14.18,2.18,21.38c0,0.8-0.09,1.6-0.07,2.4c0.05,1.85-0.55,3.42-1.63,4.94c-13.41,18.92-31.58,29.99-54.51,33.35
			c-17.99,2.64-34.99-0.7-51.24-8.47c-3.44-1.64-6.77-3.53-10.08-5.43c-0.87-0.5-1.67-1.33-2.2-2.2
			c-3.31-5.33-5.11-11.13-4.94-17.43c0.37-13.58,0.83-27.16,1.24-40.74c0.15-4.97,0.29-9.94,0.34-14.92
			c0.1-10.66,0.16-21.32,0.21-31.98c0.02-4.25-0.25-8.52,0-12.76c0.78-13.37,5.28-25.52,12.83-36.48
			c3.97-5.77,8.41-11.23,12.71-16.77c4.9-6.32,10.06-12.44,14.77-18.88c6.68-9.13,14.98-15.98,25.58-20.15
			c10.74-4.23,21.47-8.46,32.54-11.79c6.9-2.07,13.35-1.04,19.54,2.31c6.92,3.73,12.64,8.92,17.38,15.1
			c2.91,3.79,5.24,8.02,8.04,11.91c2.31,3.22,1.99,6.53,0.71,9.85C220.18,113.78,216.75,116.75,211.57,117.78z M101.78,199.69
			c-0.55,1.08-1.07,1.8-1.28,2.6c-0.45,1.71-0.88,3.45-1.06,5.21c-1.61,16.01-2.34,32.05-1.13,48.13c0.7,9.34,3.23,18.15,7.42,26.49
			c1.11,2.2,2.42,4.38,4.02,6.26c5.49,6.46,11.95,11.89,18.87,16.76c0.58,0.41,1.21,0.81,1.87,0.98c0.62,0.16,1.41,0.19,1.93-0.09
			c0.26-0.14,0.23-1.12,0.09-1.66c-0.22-0.85-0.59-1.67-0.99-2.46c-5.54-11.12-11.15-22.21-16.62-33.36
			c-1.2-2.45-2.12-5.09-2.8-7.74c-3.47-13.62-5.33-27.52-6.91-41.46c-0.58-5.12-1.04-10.24-1.6-15.36
			C103.46,202.59,103.37,201.15,101.78,199.69z M126.14,194.69c-0.39,0.9-0.91,1.72-1.09,2.6c-0.31,1.47-0.51,2.98-0.57,4.48
			c-0.37,8.62,0.03,17.2,1.53,25.72c3.41,19.26,11.32,36.32,24.76,50.66c1.27,1.35,2.7,2.56,4.15,3.73
			c0.79,0.64,1.73,1.31,3.17,0.38c-0.12-0.99-0.13-2.13-0.43-3.2c-0.37-1.36-0.93-2.68-1.48-3.99
			c-9.2-21.83-17.39-44.04-24.45-66.66c-1.08-3.47-2.04-6.98-3.17-10.43C128.18,196.79,127.96,195.35,126.14,194.69z"/>
		<path class="st0" d="M200.39,506.1c-0.38,0.54-0.88,1.03-1.12,1.62c-0.48,1.14-0.75,2.37-1.22,3.52
			c-1.78,4.35-3.32,8.82-5.48,12.97c-2.77,5.35-6.04,10.44-9.29,15.96c-0.56-0.78-1.2-1.45-1.57-2.24c-1.48-3.2-2.16-6.59-1.85-10.1
			c0.08-0.9,0.52-1.91,1.11-2.59c3.9-4.47,5.24-9.69,5.22-15.52c-0.06-13.06-0.03-26.12,0.2-39.18c0.09-5.04,0.74-10.08,1.35-15.1
			c0.2-1.61,0.91-3.25,1.72-4.69c4.59-8.19,10.52-15.38,16.8-22.3c10.81-11.93,22.99-22.17,36.79-30.51
			c6.49-3.92,13.33-4.48,20.54-3c0.15,0.03,0.27,0.21,0.73,0.6c-1.33,0.33-2.45,0.59-3.56,0.9c-1.2,0.34-2.36,0.81-3.57,1.08
			c-2.81,0.64-5.02,2.24-6.92,4.28c-4.72,5.07-9.57,10.03-14.02,15.33c-5.82,6.94-11.36,14.11-16.9,21.28
			c-4.1,5.3-6.68,11.25-7.26,18.03c-0.72,8.4-1.59,16.79-2.41,25.18c-0.34,3.47,0.32,6.68,2.28,9.62c1.62,2.44,3.09,4.99,4.79,7.37
			c0.86,1.21,2.04,2.21,3.17,3.21c0.39,0.34,1.04,0.38,2.19,0.75c-0.43-1.33-0.57-2.17-0.95-2.88c-0.58-1.09-1.33-2.1-2-3.14
			c-0.91-1.42-1.82-2.84-2.71-4.28c-2.31-3.74-3.35-7.79-2.91-12.2c0.87-8.74,1.68-17.49,2.55-26.24c0.34-3.43,1.48-6.61,3.49-9.39
			c3.8-5.25,7.5-10.59,11.65-15.56c6.09-7.29,12.66-14.18,18.8-21.43c4.77-5.65,11.1-7.98,17.96-9.55c2.82-0.64,5.33-0.3,7.99,0.82
			c12.63,5.29,23.53,13.14,33.53,22.35c7.1,6.54,13.32,13.8,17.95,22.33c0.29,0.54,0.55,1.11,0.94,1.89
			c-0.65,0.75-1.3,1.57-2.03,2.31c-7.23,7.4-15.23,13.89-23.85,19.58c-3.77,2.49-6.48,5.73-8.57,9.63
			c-3.25,6.03-6.11,12.21-8.41,18.68c-0.66,1.86-1.9,3.62-3.21,5.14c-3.54,4.1-7.17,8.12-10.92,12.04
			c-4.05,4.23-8.23,8.35-12.44,12.43c-1.32,1.28-2.85,2.4-4.43,3.35c-4.91,2.96-7.8,7.02-8.1,12.93c-0.23,4.51-0.89,9.01-1.33,13.51
			c-0.25,2.56-1.46,4.61-3.54,5.99c-5.03,3.33-10.14,6.55-15.25,9.75c-1.37,0.86-2.94,0.8-4.34,0.01c-1.61-0.92-3.13-1.99-4.66-3.02
			c-0.72-0.48-1.4-1.04-2.35-1.75c-0.26,0.79-0.43,1.32-0.62,1.87c-4.45,0.19-8.95,0.44-13.45,0.54c-1.22,0.03-2.47-0.27-3.65-0.6
			c-0.62-0.17-1.33-0.61-1.68-1.13c-2.31-3.47-4.86-6.83-6.72-10.53c-3.13-6.24-3.29-12.59,0.54-18.78
			c1.91-3.09,3.63-6.31,5.37-9.51c2.95-5.42,4.91-11.22,6.25-17.22c0.29-1.32,0.17-2.74,0.23-4.11
			C200.96,506.29,200.68,506.2,200.39,506.1z M248.44,504.71c0.12,0.28,0.24,0.57,0.36,0.85c1.02-0.06,2.07,0.03,3.05-0.19
			c4.39-0.97,8.07-3.07,10.75-6.81c2.07-2.88,4.26-5.68,6.45-8.48c5.51-7.07,10.89-14.26,16.61-21.15
			c7.45-8.98,16.07-16.78,25.25-23.97c1.94-1.52,3.71-3.29,5.44-5.06c0.9-0.91,1.55-2.07,1.47-3.57c-1.88-0.09-2.97,1.06-4.13,1.93
			c-9.02,6.81-17.31,14.43-25.11,22.6c-9.94,10.43-18.68,21.85-27.42,33.28c-2.83,3.69-5.65,7.31-10.34,8.84
			C249.94,503.26,249.23,504.11,248.44,504.71z"/>
		<path class="st1" d="M492.26,667.28c-5.25-5.1-11.33-7.89-17.1-11.19c-6.93-3.98-6.42-3.63-6.96-10.4
			c-0.42-5.21-0.34-10.46-0.46-15.69c-0.04-1.84,0.54-3.49,1.55-5.01c1.08-1.63,2.23-3.22,3.23-4.89c2.23-3.73,4.39-7.5,6.58-11.26
			c0.21-0.36,0.43-0.73,0.73-1.23c1.59,2.67-0.17,5.86,1.86,8.33c1.62-0.37,1.76-1.75,1.97-2.87c0.5-2.64,0.49-5.3-0.1-7.94
			c-1.04-4.67-3.1-8.88-5.92-12.71c-4.73-6.45-9.43-12.92-14.32-19.25c-2.54-3.28-3.49-6.88-3.43-10.91
			c0.13-8.99,0.96-17.9,2.58-26.75c0.81-4.43,3.04-7.89,6.38-10.76c3.5-3.01,6.93-6.12,10.52-9.03c1.92-1.55,2.57-3.27,1.95-5.6
			c-0.31-1.18-0.5-2.4-0.8-3.85c1.28,0.46,2.38,0.84,3.45,1.22c0.72-1.12,0.2-1.8-0.33-2.35c-2.26-2.36-4.78-4.28-8.26-4.29
			c-3.28-0.01-6.57-0.09-9.85,0.08c-2.46,0.12-4.79-0.26-7.03-1.18c-10.98-4.54-21.29-10.25-30.35-18.01
			c-2.06-1.76-3.79-3.99-5.37-6.22c-2.25-3.19-4.15-6.62-6.34-9.86c-1.59-2.35-3.19-4.75-5.18-6.74c-2.05-2.06-2.54-4.31-2.31-7.01
			c0.58-6.51,2.34-12.74,4.49-18.87c1.26-3.58,2.77-7.08,4.16-10.62c0.2,0.02,0.4,0.04,0.61,0.06c0.02,0.8,0.07,1.6,0.06,2.39
			c-0.11,5.87-0.07,11.72,1.44,17.47c0.89,3.38,2.56,6.11,5.34,8.34c8.66,6.94,18.23,12.34,28.17,17.14
			c10.88,5.25,21.85,10.37,31.86,17.18c3.33,2.26,6.58,3.3,10.54,3.38c10.39,0.22,20.76,0.79,31.15,1.11
			c1.68,0.05,2.5,0.7,3.23,2.12c1.31,2.54,1.54,5.26,1.76,7.99c0.32,4.07,0.6,8.15,0.68,12.23c0.04,2.34,0.66,4.39,2.01,6.22
			c1.31,1.78,2.72,3.51,4.2,5.16c2.49,2.78,5,5.54,7.65,8.17c0.97,0.96,2.31,1.55,3.51,2.27c1.44,0.87,2.96,1.62,4.35,2.56
			c2.71,1.82,5.53,2.3,8.58,1.04c0.15-0.06,0.35-0.05,0.52-0.05c0.08,0,0.16,0.08,0.26,0.13c-0.23,0.89-0.46,1.79-0.73,2.81
			c1.48,0.48,2.05-0.59,2.76-1.26c2.06-1.92,4.08-3.87,6.58-6.25c0.29,2.41-0.16,4.11-0.48,5.75c-0.99,5.16-2.49,10.17-4.71,14.95
			c-5.58,12-11.19,23.98-16.72,36c-2.68,5.82-4.99,11.76-5.84,18.19c-0.61,4.57,0.23,8.76,3.18,12.25c2.34,2.77,5.08,5.19,7.67,7.74
			c0.66,0.65,1.41,1.21,2.11,1.81c-0.07,0.18-0.14,0.37-0.21,0.55c-2.62,0-5.25-0.05-7.87,0.01c-12.28,0.29-24.2,2.27-35.46,7.44
			c-4.55,2.09-8.8,4.66-12.41,8.16c-4.89,4.74-7.89,10.45-8.62,17.27C492.65,664.09,492.49,665.4,492.26,667.28z"/>
		<path class="st0" d="M530.28,490.28c2.08-0.24,3.77-0.33,5.42-0.65c5.14-1,8.68-4.61,9.68-9.77c0.64-3.3-0.67-6.08-2.42-8.72
			c-0.16-0.24-0.57-0.3-1.04-0.53c-0.17,0.55-0.41,0.94-0.4,1.33c0.02,0.7,0.1,1.43,0.33,2.09c0.9,2.68,1.03,5.19-1.16,7.41
			c-2.47,2.51-5.26,4.01-8.94,3.96c-8.04-0.09-14.51-3.7-20.32-8.77c-3.61-3.15-7.12-6.44-10.44-9.9
			c-11-11.48-23.44-21.19-36.48-30.19c-4.09-2.83-8.19-5.65-12.29-8.46c-2.9-1.99-5.35-4.37-6.86-7.63
			c-0.36-0.77-0.97-1.43-1.48-2.16c-1.13,0.6-0.97,1.34-0.76,2.12c0.96,3.61,2.67,6.8,5.5,9.24c1.94,1.68,4.05,3.18,6.15,4.66
			c8.57,6.02,17.33,11.8,25.71,18.08c5.17,3.88,9.84,8.42,14.59,12.84c4.29,3.99,8.38,8.2,12.53,12.34
			c4.12,4.11,8.69,7.58,14.04,9.97c0.36,0.16,0.69,0.41,0.92,1c-3.16-0.14-6.31-0.3-9.47-0.41c-7.19-0.25-14.37-0.46-21.56-0.75
			c-0.83-0.03-1.76-0.33-2.43-0.8c-10.3-7.22-21.51-12.79-32.8-18.2c-8.58-4.11-16.99-8.5-24.8-13.97
			c-2.18-1.53-4.22-3.26-6.37-4.83c-2.27-1.65-3.53-3.93-4.32-6.54c-1.79-5.87-1.69-11.89-1.75-17.94
			c-0.05-4.93,1.61-9.13,4.08-13.25c4.18-6.96,8.67-13.64,14.59-19.27c6.06-5.76,12.97-9.9,21.43-11c5.92-0.77,11.7,0.22,17.41,1.61
			c9.11,2.22,17.67,5.9,25.9,10.34c13.65,7.35,26.61,15.71,37.95,26.4c6.92,6.52,12.74,13.84,16.39,22.73
			c0.84,2.05,1.73,4.09,2.75,6.06c5.52,10.66,8.72,22.08,11.22,33.74c1.14,5.31,2.93,10.42,5.23,15.35
			c1.43,3.07,2.48,6.25,2.98,9.63c0.6,3.97,0.11,7.8-1.28,11.51c-0.46,1.22-1.1,2.45-1.93,3.45c-3.32,4.05-6.71,8.05-10.16,11.99
			c-2.42,2.76-6.48,3.45-9.69,1.78c-1.18-0.61-2.32-1.31-3.47-1.98c-1.24-0.73-2.18-1.68-2.96-2.95c-0.96-1.58-2.29-2.93-3.47-4.37
			c-2.58-3.17-5.2-6.3-7.71-9.51c-1.22-1.56-1.77-3.37-1.86-5.43c-0.23-4.98-1.07-9.88-2.47-14.67c-0.49-1.68-0.78-3.42-2.44-4.57
			C530.91,492.27,530.73,491.2,530.28,490.28z"/>
		<path class="st1" d="M227.77,659.47c-15.29-4.63-30.27-4.25-45.25-2.77c-14.9,1.47-29.53,4.2-43.6,11.46
			c0.52-1,0.72-1.52,1.02-1.96c1.54-2.29,3.11-4.55,4.65-6.83c3.12-4.61,4.29-9.7,3.71-15.2c-0.09-0.84-0.37-1.66-0.86-2.52
			c-2.48,2.69-0.98,6.57-3.03,9.34c-0.48-4.73-0.93-9.4,2.24-13.58c1.39-1.84,2.5-3.88,3.81-5.79c2.71-3.97,3.24-8.34,2.57-12.99
			c-1.11-7.66-2.66-15.23-5-22.59c-1.43-4.49-1.95-8.99-1.88-13.64c0.18-10.76,1.18-21.45,2.75-32.09c0.45-3.06,1.53-5.87,3.58-8.19
			c2.81-3.2,5.53-6.52,8.68-9.37c5.92-5.37,12.1-10.44,18.2-15.61c0.72-0.61,1.55-1.1,2.5-1.77c0.5,2-0.18,3.46-0.98,4.8
			c-0.95,1.6-2.11,3.07-3.19,4.59c-0.87,1.21-1.81,2.39-1.9,3.9c1.19,1.07,1.84-0.34,2.94-0.38c0.09,0.81,0.14,1.65,0.27,2.47
			c0.58,3.59,1.04,7.22,3.67,10.1c0.38,0.41,0.42,1.34,0.3,1.97c-1.1,5.85,0.37,11.12,3.68,15.91c1.96,2.84,4.13,5.55,6.31,8.23
			c1,1.24,2.16,2.06,4.1,1.72c1.68-0.29,3.51,0.41,5.27,0.38c2.57-0.03,5.14-0.26,7.7-0.5c3.11-0.29,5.73,0.5,7.87,2.93
			c1.5,1.7,3.53,2.68,5.73,3.21c1.76,0.42,3.59,0.54,5.18-0.46c5.63-3.56,11.18-7.24,16.13-11.76c2.08-1.9,3.19-4.15,3.4-6.97
			c0.36-4.69,0.75-9.38,1.35-14.04c0.56-4.36,2.3-8.16,6-10.89c0.86-0.64,1.34-1.78,2.02-2.67c0.48-0.62,0.97-1.24,1.51-1.8
			c7.33-7.61,14.7-15.19,22.01-22.82c2.78-2.91,4.81-6.21,6.13-10.14c2.12-6.31,5.12-12.28,8.56-18.02
			c1.58-2.63,3.56-4.82,6.13-6.55c9.25-6.2,17.92-13.11,25.69-21.12c0.3-0.31,0.67-0.55,1.23-1.01c3.02,7.01,4.6,13.69,0.18,20.63
			c-10.5,16.49-20.88,33.06-32.85,48.54c-3.03,3.92-6.48,7.53-9.81,11.22c-1.34,1.48-3.1,2.23-5.08,2.69
			c-5.75,1.34-11.18,3.6-16.06,6.91c-2.24,1.52-4.1,3.63-6,5.6c-0.67,0.69-0.93,1.77-1.63,3.19c2.47-0.27,3.27-1.86,4.44-2.91
			c1.23-1.11,2.51-2.17,4.01-3.46c0.76,2.68,0.47,4.99,0.39,7.24c-0.52,13.47-2.77,26.66-7.09,39.44c-1.14,3.36-2.52,6.64-3.94,9.89
			c-2.14,4.87-5.39,8.91-9.23,12.59c-5.39,5.15-10.82,10.3-15.77,15.86c-3.16,3.55-5.73,7.69-8.11,11.83
			c-4.2,7.3-3.39,13.7,2.11,20.13C225.42,656.9,226.38,657.92,227.77,659.47z"/>
		<path class="st0" d="M353.79,96.68c-1.28,1.17-2.09,1.92-3.1,2.85c1.33,0.61,2.28,0.05,3.18-0.29c4.81-1.84,9.58-3.77,14.41-5.57
			c7.99-2.98,16.06-5.72,24.55-6.95c10.9-1.57,20.88,0.37,29.4,7.76c4.65,4.03,7.83,8.97,8.6,15.18c0.64,5.14-0.22,9.94-3.99,13.83
			c-0.73,0.75-1.66,1.32-2.55,1.89c-0.96,0.62-1.88,0.65-2.97,0.03c-5.04-2.85-10.6-4.07-16.27-4.71
			c-10.46-1.19-20.92-0.72-31.38,0.27c-13.02,1.23-25.79,3.96-38.62,6.32c-7.69,1.42-15.44,2.58-23.28,2.4
			c-3.09-0.07-6.22-0.41-9.22-1.12c-4.65-1.1-8.09-3.88-9.97-8.44c-1.18-2.87-2.49-5.69-3.79-8.52c-0.38-0.82-0.92-1.56-1.39-2.34
			c-0.18,0.05-0.37,0.11-0.55,0.16c-0.12,0.55-0.36,1.11-0.33,1.66c0.38,6.2,2.21,11.9,6.52,16.49c1.42,1.51,3.44,2.45,5.16,3.68
			c0.68,0.49,1.62,0.96,1.88,1.65c3.19,8.56,10.04,12.09,18.42,13.31c4.38,0.63,8.83,0.99,13.26,1.09c17.08,0.38,34.08-1,51.07-2.52
			c8.58-0.77,17.18-1.3,25.78-1.71c2.43-0.12,4.98,0.32,7.33,0.99c3.83,1.09,4.85,3.35,3.17,6.88c-0.94,1.98-2.21,3.87-3.68,5.5
			c-5.51,6.12-12.61,9.72-20.36,12.1c-9.28,2.85-18.79,3.56-28.45,2.97c-17.72-1.09-34.66-5.58-51.21-11.72
			c-7.4-2.75-14.63-5.98-22.02-8.77c-10.65-4.02-17.37-11.72-21.23-22.14c-1.6-4.33-2.88-8.77-4.29-13.16
			c-0.85-2.63-1.89-5.15-3.57-7.4c-0.47-0.63-0.72-1.63-0.66-2.43c0.62-7.99,1.71-15.9,4.2-23.55c1.61-4.96,4.85-8.85,8.62-12.31
			c10.25-9.42,22.48-15.13,35.76-18.73c8.47-2.3,17.08-3.25,25.86-2.21c6.3,0.75,12.09,2.79,17.28,6.47
			c6.34,4.5,11.92,9.82,16.99,15.7c0.57,0.66,0.95,1.48,1.41,2.23c0.51,0.83,0.93,1.73,1.52,2.5c0.95,1.24,2.27,1.7,3.79,1.3
			c1.55-0.41,2.36-1.52,2.54-3.08c0.11-0.87,0.11-1.76,0.18-2.88c1.84,0.67,3.06,1.88,3.94,3.38c0.91,1.54,2.09,2.44,3.91,2.11
			c1.87-0.34,2.92-1.67,3.33-3.42c0.26-1.11,0.23-2.28,0.34-3.6c1.33,0.35,1.8,1.36,2.05,2.43c0.36,1.52,1.07,2.7,2.71,2.88
			c1.76,0.19,3.17-0.63,3.98-2.14c0.67-1.23,1.08-2.61,1.53-3.95c0.42-1.25,0.73-2.53,1.1-3.8c2.65,1.01,6.02,4.23,7.88,7.52
			c-1.66,1.49-3.44,2.93-5.02,4.55c-1.6,1.65-3.01,3.49-4.71,5.5c-11.73-1.03-22.88,2.39-33.95,6.91c-1.11-0.99-2.16-2.06-3.35-2.96
			c-9.62-7.24-20.19-12.58-31.94-15.34c-2.46-0.58-5.12-0.51-7.68-0.43c-2.45,0.08-3.26,0.95-3.66,3.42
			c-1.1,6.83-0.13,13.45,2.33,19.87c0.95,2.49,2.85,3.89,5.5,3.93c3.36,0.05,6.74,0,10.1-0.22
			C344.48,97.66,348.8,97.16,353.79,96.68z M385.22,110.22c1.97,1.7,3.93,3.42,5.93,5.1c0.68,0.57,1.4,0.73,2-0.35
			c-1.01-2.14-2.28-4.11-4.29-5.48C387.27,108.4,386.39,108.63,385.22,110.22z M414.75,116.88c2.83,0.08,6.04-1.96,6.58-4
			c0.14-0.51,0.03-1.36-0.32-1.65c-0.32-0.27-1.35-0.25-1.62,0.05C417.82,113.01,416.39,114.87,414.75,116.88z"/>
		<path class="st2" d="M446.55,358.91c2.22,3.56,3.96,6.9,6.23,9.82c2.25,2.89,5.04,5.35,7.67,8.09c-2.19,0.38-4.37,0.63-6.48,1.14
			c-7.35,1.79-13.54,5.65-18.98,10.82c-5.33,5.06-9.66,10.89-13.37,17.19c-6.89,11.71-12.12,24.1-14.76,37.48
			c-0.67,3.38-1.03,6.82-1.56,10.43c-11.3-4.42-23.02-5.3-34.89-4.68c-11.77,0.62-23.28,2.5-33.9,8.79
			c-0.29-1.39-0.49-2.48-0.74-3.57c-1.44-6.33-4.39-12-7.84-17.4c-8.55-13.36-19.74-24.17-32.6-33.31
			c-7.72-5.49-16.05-9.81-25.26-12.28c-3.88-1.04-7.8-1.71-11.83-1.58c-1.23,0.04-2.46,0.01-3.76,0.01
			c0.04-0.39-0.01-0.69,0.11-0.88c2.49-3.96,4.02-8.31,5.12-12.81c0.41-1.67,1.28-2.31,2.78-2.7c11.61-3.03,23.36-5.35,35.23-7.05
			c5.01-0.72,10.03-1.34,15.05-1.99c1.95-0.25,3.83-0.18,5.79,0.33c8.1,2.11,16.37,3.2,24.71,3.79c2.61,0.18,4.93,0.74,7.27,2.11
			c17.35,10.19,40.07,9.16,56.42-2.49c1.53-1.09,3.18-1.46,4.93-1.75c6.31-1.06,12.72-2.07,18.47-4.9
			C435.66,358.94,441.2,359.54,446.55,358.91z"/>
		<path class="st0" d="M242.96,669.62c-2.05,1.45-4.85,1.88-6.01,4.64c1.71,0.54,2.93-0.32,4.16-0.88c3.92-1.78,7.99-2.96,12.28-3.3
			c4.24-0.34,8.28,0.39,12.16,2.21c11.68,5.48,9.88,21.38,1.62,26.47c-2.85,1.76-5.9,2.87-9.18,3.34
			c-6.03,0.86-12.01,0.64-17.95-0.73c0-0.32-0.07-0.53,0.01-0.64c4.34-6.37,3.53-12.97,0.71-19.55c-1.7-3.98-4.97-6.2-9.23-6.8
			c-4.41-0.63-8.66,0.25-12.78,1.81c-0.33,0.12-0.64,0.31-0.92,0.53c-0.2,0.15-0.32,0.4-0.61,0.78c1.69,0.75,3.31,0.5,4.91,0.18
			c3.01-0.6,5.99-0.68,8.96,0.18c3.9,1.12,6.45,3.62,7.59,7.51c0.35,1.19,0.66,2.41,0.81,3.63c0.8,6.27-2.24,11.2-8.22,13.28
			c-4,1.39-8.11,1.49-12.8,0.93c4.27-5.62,4.3-11.44,2.27-17.43c-1.12-3.3-3.22-5.91-6.29-7.65c-5.78-3.29-15.79-2.02-19.64,2.64
			c1.65,0.54,3.15,0.26,4.61-0.26c2.38-0.83,4.8-1.22,7.32-1.07c5.96,0.36,10.38,4.2,11.47,10.05c1.37,7.34-1.76,12.5-8.93,14.68
			c-3.62,1.1-9.55,1.39-14.49,0.66c0.3-0.66,0.53-1.29,0.84-1.87c2.59-4.85,2.69-9.9,0.89-14.96c-2.28-6.41-7.99-9.89-14.93-8.87
			c-2.84,0.42-5.58,1.65-8.31,2.67c-1.02,0.38-2.08,1.04-2.13,2.51c1.12,0.82,2.01-0.07,2.95-0.36c2.11-0.66,4.16-1.6,6.31-2
			c6.74-1.26,11.98,2.27,13.39,8.98c0.4,1.88,0.55,3.9,0.38,5.81c-0.43,4.7-3.06,7.84-7.51,9.39c-4.65,1.63-9.45,1.38-14.24,0.9
			c-1.48-0.15-2.95-0.5-4.73-0.8c0.54-0.89,0.92-1.54,1.33-2.16c2.97-4.6,3.24-9.53,1.45-14.55c-1.69-4.74-5.41-7.15-10.26-7.76
			c-4.4-0.55-8.67,0.22-12.79,1.81c-1.24,0.48-2.36,1.11-3.01,2.99c1.47-0.18,2.57-0.22,3.63-0.45c3.65-0.78,7.27-1.66,11.06-0.86
			c4.3,0.91,7.67,2.86,8.66,7.52c1.03,4.88,0.21,9.19-4.07,12.34c-2.87,2.11-6.16,3.15-9.62,3.64c-5.96,0.84-11.87,0.48-17.69-1.08
			c-1.33-0.36-2.51-0.85-3.11-2.23c-2.9-6.58-4.84-13.37-4.23-20.63c0.14-1.71,0.65-3.55,1.52-5.02c1.86-3.12,4.03-6.06,6.17-8.99
			c0.49-0.67,1.36-1.12,2.12-1.55c7.82-4.39,16.28-7.05,25-8.86c13.96-2.9,28.08-4.27,42.35-3.68c7.56,0.31,15.03,1.35,22.18,4.03
			c0.98,0.37,2.01,0.79,2.82,1.43c3.42,2.73,7.04,5.11,11.04,6.89C242.51,669.14,242.68,669.37,242.96,669.62z"/>
		<path class="st1" d="M641.81,240.05c-1.05,5.52-2.68,10.19-4.78,14.69c-1.01,2.17-2.17,4.28-3.37,6.35
			c-3.37,5.81-8.28,9.62-14.86,11.2c-3.59,0.86-6.95,2.19-9.58,4.92c-0.66,0.68-1.55,1.28-1.02,2.65c1.96,0.45,3.18-1.47,5.42-1.98
			c-0.9,1.27-1.48,2.2-2.17,3.05c-2.79,3.45-5.54,6.94-8.44,10.3c-1.95,2.26-4.32,3.35-7.55,2.91c-2.74-0.37-5.42-0.73-8-1.77
			c-3.03-1.22-6.08-2.37-9.32-3.62c1.11-1.81,3.67-2.65,3.69-5.33c-1.76-0.21-2.76,0.9-3.82,1.73c-5.75,4.49-12.18,7.65-19.13,9.72
			c-10.76,3.2-21.78,4-32.95,3.54c-10.62-0.44-21-2.19-31.12-5.44c-9.44-3.03-18.3-7.29-26.6-12.7c-0.44-0.29-0.86-0.6-1.59-1.12
			c4.3-6.17,7.97-12.59,8.29-20.45c0.62,0.24,0.9,0.27,1.06,0.43c7.12,6.91,15.8,11.02,25.06,14.16
			c12.75,4.32,25.82,6.42,39.29,5.69c9.45-0.51,18.66-2.33,27.59-5.47c7.03-2.47,14.06-4.97,21.05-7.56
			c6.6-2.45,13.34-4.13,20.35-5.06c13.07-1.74,23.6-7.9,31-19.02C640.64,241.39,641.05,240.98,641.81,240.05z"/>
		<path class="st0" d="M554.6,656.26c-7.71-6.76-16.55-6.57-25.66-4.22c-1.81,0.47-3.21,0.77-4.89-0.44
			c-2.16-1.56-4.73-1.58-7.46-0.64c2.08,1.14,4.16,2.28,6.34,3.48c-6.13,5.87-6.15,5.91-5.75,8.65c1.09-0.84,2.08-1.54,2.99-2.33
			c6.53-5.61,14.05-7.66,22.53-6.43c7.47,1.09,15.65,9.96,10.95,20.56c-2.28,5.14-5.94,8.6-11.47,9.82
			c-3.11,0.69-6.27,1.26-9.45,1.58c-7.74,0.78-15.43,0.34-23.02-1.44c-1.12-0.26-2.3-0.49-3.28-1.04c-1.03-0.58-2.12-1.38-2.71-2.36
			c-2.56-4.3-5.58-8.24-9.09-11.79c-0.96-0.97-1.33-1.95-1.31-3.29c0.12-9.34,3.99-16.79,11.28-22.52
			c5.96-4.69,12.83-7.56,20.04-9.64c10.87-3.13,22.01-3.82,33.24-3.48c0.83,0.03,1.78,0.35,2.43,0.85
			c10.52,8.11,21.91,14.83,33.62,21.03c0.15,0.08,0.26,0.24,0.5,0.47c-1.04,0.74-1.99,1.35-3.34,0.81
			c-4.48-1.81-8.92-1.1-13.26,0.48c-1.69,0.61-3.14,0.64-4.83,0c-3.7-1.4-7.52-1.09-11.28-0.16
			C559.34,654.81,556.98,655.58,554.6,656.26z"/>
		<path class="st1" d="M412.83,168.17c-0.27,0.48-0.34,0.75-0.51,0.89c-4.51,3.6-8.85,7.46-13.62,10.68
			c-3.34,2.26-7.24,3.71-10.95,5.39c-2.18,0.98-4.49,1.68-6.72,2.54c-2.5,0.96-4.96,1.99-6.57,4.36c-5.12-2.05-10-4.24-15.04-6.09
			c-11.91-4.35-23.96-8.28-35.85-12.67c-8.4-3.1-16.92-5.93-25.48-8.56c-6.29-1.93-12.81-2.86-19.42-3
			c-9.42-0.2-18.06,2.4-26.1,7.17c-1.91,1.13-3.75,2.36-5.65,3.57c-3.19-2.05-6.38-4.09-9.87-6.33c7.22-3.71,13.19-8.83,18.28-15.68
			c-0.07,3.21-2.25,5.51-1.42,8.46c1.52-0.07,2.07-1.2,2.49-2.16c1.24-2.84,2.67-5.67,3.36-8.66c1.01-4.39,1.71-8.89,2.08-13.39
			c0.62-7.52,0.88-15.07,1.31-22.6c0.05-0.86,0.21-1.71,0.35-2.88c1.96,1.7,2.55,3.75,3.22,5.7c1.2,3.53,2.24,7.11,3.38,10.66
			c2.25,7.02,5.32,13.61,10.88,18.64c2.35,2.12,4.92,4.24,7.76,5.53c16.19,7.32,32.68,13.88,49.99,18.15
			c11.32,2.8,22.79,4.68,34.5,4.52c3.09-0.04,6.15-0.07,9.21,0.55c4.01,0.82,7.99,0.14,11.87-0.84c3.17-0.8,6.36-1.76,9.33-3.11
			C406.64,167.66,409.59,168.15,412.83,168.17z"/>
		<path class="st1" d="M386.99,259.36c-0.23,2.7-0.23,5.44-0.74,8.09c-0.96,4.93-2.83,9.54-6.09,13.45
			c-2.12,2.54-4.83,4.32-8.18,4.53c-9.37,0.58-18.41,2.8-27.44,5.13c-12.29,3.17-24.57,6.38-36.87,9.47
			c-4.74,1.19-9.56,1.86-14.5,1.58c-4.83-0.28-9.06-2.03-12.59-5.14c-7.32-6.45-14.45-13.13-21.35-19.43
			c1.35-5.85,2.59-11.23,3.86-16.73c0.33,0.43,0.71,0.87,1.04,1.35c8.58,12.58,20.62,18.45,35.68,17.89
			c12.42-0.46,24.84-1.14,37.22-2.2c11.33-0.97,22.49-3.06,33.46-6.23c5.53-1.6,9.96-4.54,13.51-8.97c0.78-0.97,1.56-1.93,2.34-2.89
			C386.55,259.28,386.77,259.32,386.99,259.36z"/>
		<path class="st1" d="M199.88,275.83c-0.19,1.07-0.25,2.18-0.6,3.2c-0.8,2.35-1.72,4.66-2.64,6.96c-1.09,2.72-2.25,5.41-3.38,8.11
			c-0.17,0.41-0.27,1.09-0.54,1.16c-1.92,0.53-1.58,2.05-1.6,3.4c-0.05,3.51-0.9,6.88-2.16,10.11c-2.03,5.21-4.25,10.34-6.41,15.49
			c-0.38,0.9-0.93,1.72-1.37,2.59c-1.06,2.06-2.73,3.25-5.03,3.45c-4.07,0.36-8.14,0.67-12.2,0.98c-0.8,0.06-1.61,0.01-2.39,0.13
			c-7.42,1.17-13.98-1.33-20.35-4.69c-0.97-0.51-1.99-0.93-3.21-1.5c-0.37,2.09,1.18,2.76,2.24,4.3c-1.39-0.19-2.33-0.21-3.21-0.46
			c-18.29-5.32-34.73-13.91-48.34-27.46c-1.26-1.25-2.37-2.64-3.54-3.98c-0.4-0.46-0.76-0.96-0.94-1.79
			c0.56,0.24,1.15,0.44,1.69,0.74c9.68,5.39,19.84,9.63,30.79,11.47c25.89,4.35,49.4-0.86,69.75-18.07
			c4.36-3.69,8.1-7.96,11.55-12.5c0.46-0.61,0.95-1.21,1.42-1.81C199.56,275.72,199.72,275.78,199.88,275.83z"/>
		<path class="st3" d="M351.2,292.83c-1.77,1.78-3.33,3.21-4.72,4.78c-10.57,11.92-13.74,25.73-8.48,40.63
			c5.24,14.83,16.22,24,31.87,26.69c23.28,4,39.61-10.26,45.47-25.03c5.68-14.31,3.1-31.69-9.63-43.87
			c-1.59-1.52-3.27-2.93-5.18-4.64c0.81,0,1.3-0.1,1.74,0.02c4.13,1.05,8.23,2.18,12.37,3.2c1.38,0.34,2.32,1.07,3.12,2.24
			c6.41,9.36,9.02,19.72,8.61,31c-0.9,24.87-22.06,44.63-43.89,46.87c-28.52,2.92-48.77-17.39-53.51-36.59
			c-3.38-13.7-1.77-26.77,5.55-39c0.92-1.54,2.06-2.49,3.84-2.95c3.61-0.92,7.16-2.06,10.75-3.07
			C349.66,292.95,350.25,292.95,351.2,292.83z"/>
		<path class="st4" d="M377.88,74.25c-1.27-0.87-1.53-2.1-1.87-3.27c-1.26-4.25-2.29-8.59-3.82-12.75
			c-1.43-3.9-3.23-7.69-5.16-11.37c-2.03-3.86-5.2-6.7-9.08-8.75c-7.96-4.2-16.36-7.32-24.85-10.24c-5.72-1.96-11.5-3.72-17.51-4.53
			c-2.37-0.32-4.77-0.39-7.17-0.48c-0.84-0.03-1.69,0.2-2.54,0.32c-0.04,0.19-0.09,0.38-0.13,0.58c0.65,0.25,1.29,0.65,1.96,0.72
			c11.89,1.32,22.85,5.77,33.84,10.08c5.03,1.97,9.92,4.32,14.83,6.6c2.96,1.37,5.25,3.6,7.16,6.24c3.05,4.22,6.27,11.69,7.14,17.06
			c-1.14-1.2-1.96-2.07-2.78-2.93c-3.68-3.88-7.65-7.42-12.13-10.36c-5.16-3.4-10.88-5.15-16.99-5.74
			c-12.83-1.25-25.1,1.29-37.05,5.71c-7.52,2.78-14.7,6.26-21.38,10.74c-0.43,0.29-0.9,0.5-1.37,0.76
			c-0.11-0.28-0.25-0.46-0.22-0.58c2.88-10.4,6.6-20.47,12.35-29.64c1.87-2.99,4.16-5.76,6.54-8.37c3.23-3.54,7.43-4.56,12.15-4.01
			c6.12,0.71,12.05,2.19,17.9,4.01c9.25,2.88,18.36,6.12,27.16,10.19c1.13,0.52,2.23,1.11,3.35,1.63
			c7.17,3.31,12.07,8.76,14.59,16.15c2.14,6.29,3.84,12.74,5.7,19.13C378.82,72.14,379.04,73.22,377.88,74.25z"/>
		<path class="st3" d="M338.68,325.71c0.62-16.13,7.82-27.37,21.21-34.73c2.88-1.58,6.15-1.68,9.33-1.81
			c2.7-0.11,5.28-0.53,7.77-1.56c0.64-0.26,1.36-0.5,2.03-0.47c21.22,0.98,34.33,19.04,35.76,33.82
			c2.14,22.19-14.14,37.53-28.15,40.96c-25.11,6.16-43.81-11.82-47.02-29.04C339.12,330.28,338.92,327.62,338.68,325.71z
			 M367.92,297.19c-16.18,6.78-22.61,22.27-19.72,35.31c2.96,13.39,14.48,23.32,28.61,24.18c15.82,0.96,26.47-9.51,30.22-19.7
			c4.29-11.66,2.1-26.88-13.74-37.4c-0.04-0.39-0.08-0.82-0.12-1.26c-0.52-5.73-3.62-8.56-9.43-8.61c-1.69-0.01-3.37-0.07-5.06-0.08
			c-2.49-0.02-4.97-0.04-7.46,0c-2.89,0.04-3.25,0.41-3.28,3.21C367.9,294.25,367.92,295.66,367.92,297.19z"/>
		<path class="st5" d="M266.24,346.13c-0.29-0.82-0.62-1.62-0.86-2.46c-1.25-4.28-2.93-8.24-7.76-9.91
			c2.51-4.08,5.47-7.48,8.78-10.57c9.04-8.44,19.61-14.26,31.32-18.11c0.42-0.14,0.84-0.32,1.28-0.37
			c4.48-0.49,8.97-0.96,13.78-1.47c0.55,18.98,1.1,38.09,1.66,57.21c-0.69,0.18-1.11,0.35-1.54,0.4
			c-17.24,2.11-34.36,4.88-51.49,9.29c0.24-0.56,0.28-0.91,0.43-0.96c3.24-1.22,4.41-3.88,5-7c0.81-4.35,0.26-8.66-0.3-12.98
			c-0.14-1.05-0.24-2.11-0.36-3.17c0.38,0.77,0.82,1.51,1.14,2.3c1.67,4.24,4.26,7.77,7.97,10.44c6.58,4.72,15.58,4.5,21.83-0.51
			c11.3-9.04,11.94-27.19,1.3-37.02c-6.94-6.41-17.39-6.62-24.54-0.42c-5.18,4.49-7.84,10.25-8.04,17.07
			C265.74,340.64,266.09,343.39,266.24,346.13z"/>
		<path class="st1" d="M233.84,303.19c4.42-3.64,8.69-6.95,12.73-10.52c4-3.53,7.42-7.61,10.36-12.38c3.27,3.36,6.28,6.6,9.45,9.69
			c2.99,2.91,6.03,5.78,9.23,8.44c3.63,3.01,7.78,5.19,13.06,6.62c-6.77,3.07-12.66,6.4-18.1,10.49
			c-5.4,4.06-10.43,8.53-14.76,14.26c-2.18-5.83-5.14-10.73-8.88-15.17C243.19,310.18,238.96,306.3,233.84,303.19z"/>
		<path class="st1" d="M187.8,320.83c2.8-7.55,6.13-14.98,5.34-23.19c22.99-4.62,44.72-11.65,63.33-26.68
			c-0.45,2.18-1.41,4.11-2.43,6.01c-3.4,6.36-8.23,11.54-13.67,16.17c-10.08,8.59-21.45,15.12-33.46,20.56
			c-5.25,2.37-10.65,4.41-15.98,6.59c-0.88,0.36-1.8,0.65-2.7,0.97C188.08,321.12,187.94,320.97,187.8,320.83z"/>
		<path class="st1" d="M382.01,284.42c5.2-5.82,8.49-12.21,9.3-19.76c0.22,1.29,0.47,2.58,0.65,3.88c0.49,3.4,2.45,5.53,5.55,6.9
			c4.74,2.1,9.68,3.5,14.73,4.56c10.53,2.2,21.15,3.71,31.92,4.09c4.76,0.17,9.17-0.62,12.97-3.73c1.34-1.1,2.82-2.02,4.53-2.76
			c-0.14,0.28-0.25,0.58-0.43,0.83c-3.1,4.46-6.41,8.76-10.54,12.32c-2.01,1.73-4.2,3.29-6.47,4.65c-2.51,1.5-5.26,1.96-8.2,1.06
			c-15.12-4.65-30.52-8.15-46.11-10.82c-1.84-0.31-3.7-0.47-5.55-0.73C383.7,284.8,383.03,284.63,382.01,284.42z"/>
		<path class="st1" d="M114.54,152.81c0.31,1.42,0.48,2.28,0.69,3.14c2.37,9.95,10.55,16.42,20.82,16.46c0.98,0,1.96-0.09,2.93-0.02
			c0.58,0.04,1.26,0.16,1.71,0.5c3.23,2.42,6.84,3.68,10.87,3.79c0.33,0.01,0.66,0.15,1.11,0.25c-0.02,3.73,0.54,7.27,2,10.67
			c0.28,0.66-0.05,1.77-0.44,2.48c-0.63,1.12-1.56,2.08-2.52,3.31c-1.21-0.84-2.22-1.52-3.2-2.23c-1.91-1.4-2.72-3.17-1.99-5.56
			c0.26-0.87,0.17-1.84,0.26-2.94c-3.32,1.6-3.77,4.97-1.86,12.3c-1.22-0.12-2.39-0.05-3.45-0.36
			c-12.97-3.76-22.88-11.16-27.94-24.06c-2.06-5.24-1.95-10.59,0.08-15.86C113.8,154.2,114.07,153.76,114.54,152.81z"/>
		<path class="st6" d="M357.3,126.32c2.49,4.2,4.66,8.17,7.13,11.95c2.13,3.25,3.44,3.17,5.14-0.33c1.39-2.86,2.32-5.93,3.46-8.91
			c0.44-1.14,0.89-2.28,1.31-3.37c9.79,0.81,24.91,8.36,29.2,14.67c-6.76,0.42-13.34,0.83-20.12,1.25
			c-0.91-1.66-1.77-3.39-2.78-5.04c-1.06-1.74-2.15-3.48-3.43-5.05c-1.29-1.57-2.26-1.54-3.4,0.14c-1.18,1.75-2.12,3.68-3.01,5.6
			c-0.85,1.84-1.51,3.76-2.26,5.69c-12.61,0.93-25.06,1.58-37.98,0.97c0.47-1.35,0.73-2.35,1.16-3.26c1.36-2.87,3.5-5.1,5.94-7.08
			C343.42,128.83,350.19,126.81,357.3,126.32z"/>
		<path class="st1" d="M569.11,137.37c1.48,0.08,3.24,0.23,5,0.27c1.47,0.03,2.79-0.44,3.84-1.54c3.46-3.64,6.39-7.63,7.91-12.49
			c0.3-0.97,0.41-2.01,0.66-3.25c-1.48,0.27-1.77,1.28-2.28,2.03c-2.3,3.36-4.33,6.91-7.36,9.76c-2.25,2.12-4.69,2.59-7.57,1.79
			c-0.3-1.44-0.58-2.81-0.88-4.28c1.73-2.07,3.81-4.03,3.74-7.34c-0.64,0.52-1.32,0.98-1.9,1.56c-0.63,0.63-1.14,1.36-1.72,2.03
			c-2.63,3.01-6.47,2.72-8.32-0.84c-1.18-2.26-1.89-4.77-2.81-7.16c1.5-2.13,3.63-3.02,5.86-3.62c5.69-1.53,11.42-1.42,17.12,0.03
			c1.1,0.28,2.19,0.77,3.16,1.36c1.89,1.16,3.12,2.73,3.28,5.13c0.57,8.7-1.36,16.56-7.33,23.17c-5.26,5.83-11.79,9.85-18.9,13.67
			c-0.01-1.61,0.7-2.65,1.27-3.66c1.11-1.97,1.43-3.97,0.64-6.11c-0.6-1.63-0.05-2.65,1.22-3.89
			C565.71,142.07,567.27,139.68,569.11,137.37z"/>
		<path class="st3" d="M317.95,360.66c-0.7-19.53-1.4-38.85-2.1-58.36c5.16-1.33,10.18-2.62,15.57-4
			c-12.3,23.81-9.76,45.36,8.92,65.13C332.59,362.68,325.37,361.69,317.95,360.66z"/>
		<path class="st1" d="M178.16,161.24c8.36-3.56,14.32-9.08,16.09-18.26c1.43,0,2.76,0.04,4.08-0.01c4.77-0.15,8.62-2.18,11.27-6.09
			c1.48-2.18,2.54-4.66,3.62-7.08c0.81-1.81,0.68-1.86,3.05-2.1c3.45,4.73,5.15,12.79-0.04,18.41c-1.81,1.95-3.57,3.97-5.55,5.74
			c-4.92,4.4-10.32,8.17-16.31,10.96c-2.46,1.14-5.16,1.92-7.84,2.42C182.99,165.9,180.39,164.55,178.16,161.24z"/>
		<path class="st1" d="M533.46,141.69c-0.29,2.29-1.42,4.46-2.9,6.49c-1.01,1.38-2.49,1.76-4,1.67c-3.44-0.21-6.92-0.33-10.29-0.97
			c-8.5-1.61-16.58-4.49-24.05-8.92c-0.84-0.5-1.67-1.01-2.47-1.56c-3.94-2.69-4.75-5.04-3.3-9.55c0.67-2.1,2.31-2.72,3.99-1.32
			c3.81,3.16,8.33,4.65,13.06,5.57c1.72,0.34,3.67-0.09,5.25,0.53c1.45,0.57,2.42,2.26,3.82,3.11c4.86,2.93,10.13,4.15,15.8,3.2
			C530.19,139.62,532.08,139.13,533.46,141.69z"/>
		<path class="st0" d="M556.68,658.92c5.42-1.95,10.53-2.89,15.73-0.29c2.61,1.31,4.32,3.29,5.02,6.17
			c1.08,4.41,0.76,8.68-1.39,12.66c-1.92,3.57-4.85,5.78-9.15,5.84c-2.66,0.04-5.31,0.45-7.96,0.52c-1.74,0.04-3.49-0.24-5.68-0.42
			C559.15,675.71,560.96,667.83,556.68,658.92z"/>
		<path class="st4" d="M315.94,16.79c2.55-3.89,5.62-6.44,10.42-5.54c3.13,0.58,6.3,1.17,9.31,2.19
			c15.08,5.13,29.68,11.37,43.34,19.65c2.33,1.42,4.42,3.26,6.53,5.01c1.62,1.34,2.65,3.14,2.95,5.23
			c0.49,3.42,1.06,6.85,1.23,10.29c0.28,5.76,0.3,11.54,0.37,17.31c0.01,0.91-0.23,1.82-0.35,2.72c-0.21,0.03-0.41,0.07-0.62,0.1
			c-0.27-0.45-0.73-0.88-0.78-1.35c-0.21-1.85-0.29-3.71-0.43-5.57c-0.55-7.26-1.1-14.51-1.65-21.77c-0.27-3.49-1.93-6.17-4.68-8.31
			c-4.31-3.35-9.1-5.87-14.01-8.16c-11.44-5.35-23.22-9.81-35.41-13.13c-1.62-0.44-3.29-0.72-4.95-0.97
			c-0.67-0.1-1.37,0.05-2.21,0.1c0.27,1.22,1.2,1.39,1.97,1.65c3.11,1.05,6.24,2.03,9.36,3.07c12.83,4.29,25.3,9.41,37.1,16.06
			c2.23,1.26,4.3,2.82,6.39,4.33c1.57,1.13,2.53,2.68,2.85,4.64c0.33,2.08,0.78,4.15,1.18,6.23c-0.26,0.19-0.53,0.37-0.79,0.56
			c-0.07-0.33-0.08-0.7-0.23-0.99c-3.92-7.12-9.7-12.4-16.5-16.67c-8.24-5.18-17.31-8.11-26.82-9.87c-2.43-0.45-4.77-1.33-7.15-2.03
			C326.96,20.01,321.6,18.44,315.94,16.79z"/>
		<path class="st3" d="M432.43,356.75c-5.53,2.31-11.23,3.85-17.46,4.99c17.4-20.37,19.28-41.92,6.22-65.2
			c3.25,1.01,6.18,1.92,9.03,2.8C432.11,304,433.75,346.66,432.43,356.75z"/>
		<path class="st3" d="M441.24,322.01c0.52-3.27,0.75-6.21,1.5-9.02c1.17-4.38,2.8-5.24,7.25-2.92c1.5,0.78,2.84,2.18,3.83,3.6
			c4.01,5.74,5.19,12.14,3.98,19.03c-0.21,1.21-0.79,1.73-1.94,1.68c-5.74-0.26-10.64-2.3-13.73-7.3
			C441.24,325.64,441.47,323.52,441.24,322.01z"/>
		<path class="st1" d="M558.63,129.61c-2.2,0.25-4.48,0.05-6.58,1.86c4.78,2.59,9.19,0.28,13.54-0.02
			c2.29,4.32-3.24,11.99-8.51,11.3c-5.82-0.76-11.57-1.62-17.21-3.24c-0.59-0.17-1.18-0.39-1.75-0.63c-3.97-1.59-4.71-3.5-3.04-7.55
			c2.56,0.37,5.05,0.88,7.57,1.07c3.88,0.29,6.89-1.48,9.02-4.62c1.24-1.82,2.18-3.85,3.27-5.77c0.29-0.51,0.62-0.98,1-1.59
			C556.86,123.57,557.71,126.49,558.63,129.61z"/>
		<path class="st1" d="M506.97,169.04c3.07-0.22,6.14-0.62,9.22-0.64c6.13-0.04,12.22,0.52,18.1,2.44
			c4.07,1.33,7.87,3.21,11.27,5.84c0.9,0.7,1.47,1.37,1.15,2.67c-1.54,6.14-1.09,12.31-0.13,18.48c0.12,0.74,0.15,1.49-0.17,2.36
			c-0.4-0.75-0.83-1.48-1.21-2.24c-1.2-2.37-2.4-4.74-3.59-7.12c-4.73-9.45-12.5-15.23-22.37-18.39c-3.03-0.97-6.18-1.54-9.28-2.28
			c-1-0.24-2-0.43-3.01-0.64C506.97,169.36,506.97,169.2,506.97,169.04z"/>
		<path class="st1" d="M137.78,169.4c-5.5,0-9.88-2.08-13.85-5.26c-4.4-3.52-6.44-8.36-7.61-13.67c-0.1-0.45,0.09-1.05,0.34-1.46
			c2.17-3.59,6.76-5.05,10.73-3.47c1.58,0.63,2.53,1.56,2.91,3.41c0.4,1.96,1.46,3.77,2.23,5.65c0.87,2.12,1.82,4.21,2.58,6.37
			C136.05,163.63,136.82,166.35,137.78,169.4z"/>
		<path class="st0" d="M577.73,681.44c4.89-7.86,6.17-15.75,0.99-24.01c3.27-1.22,6.42-1.45,9.65-0.48c2.69,0.8,4.38,2.6,5.13,5.28
			c1.25,4.46,0.79,8.77-1.27,12.92c-1.12,2.24-2.85,3.82-5.17,4.75C584.16,681.05,581.14,681.52,577.73,681.44z"/>
		<path class="st7" d="M341.84,129.32c-5.39,3.59-10.31,7.56-12.15,14.1c-8.37,0.64-22.06-2.98-25.09-10.19
			c6.22-0.34,12.47-0.43,18.66-1.08C329.48,131.5,335.64,130.29,341.84,129.32z"/>
		<path class="st8" d="M338.99,76.25c-1.91,6.57-1.75,12.7,1.37,18.93c-3.87,0.26-7.45,0.49-10.94-0.58
			c-0.83-0.25-1.68-1.07-2.11-1.86c-2.63-4.81-3.36-10.03-2.8-15.42c0.23-2.25,1.28-3.05,3.58-3.1
			C331.76,74.15,335.26,75.04,338.99,76.25z"/>
		<path class="st5" d="M445.79,355.34c-3.14,0.21-6.12,0.42-9.43,0.64c0.23-18.41,0.16-36.56-1.88-54.72c2.9,0,5.75,0,8.84,0
			c0.11,1.85,0.46,3.82-1.5,5.62c-2.11,1.94-2.59,4.81-2.96,7.54c-1.29,9.48-1.18,18.94,0.92,28.3c0.72,3.22,1.98,6.26,5.09,8.11
			C445.85,351.44,445.94,352.37,445.79,355.34z"/>
		<path class="st0" d="M594.57,678.33c3.97-7.09,5.73-14.32,0.76-21.98c3.36-1.04,6.49-1,9.52,0.59c1.67,0.88,2.63,2.39,3.12,4.15
			c1.44,5.21,0.52,10.07-2.59,14.42C602.97,678.88,598.78,679.89,594.57,678.33z"/>
		<path class="st3" d="M250.34,357.22c-2.47-5.51-2.17-10.78,0.68-15.92c0.92-1.66,2.21-2.99,4-3.74c1.79-0.75,3.05-0.51,4.28,0.94
			c1.76,2.08,2.59,4.62,3.2,7.22c0.11,0.49,0.05,1.1-0.15,1.56c-0.89,2.01-1.65,4.13-2.85,5.95
			C257.45,356.34,254.46,357.52,250.34,357.22z"/>
		<path class="st9" d="M384.7,69.63c-2.46-1.97-4.76-3.79-5.49-7.16c-0.84-3.89-2.19-7.67-3.35-11.49
			c-2.36-7.73-6.76-13.83-14.18-17.43c-4.15-2.01-8.36-3.88-12.55-5.81c-0.85-0.39-1.72-0.77-2.49-1.45c0.34,0,0.7-0.08,1.02,0.01
			c11.48,3.28,21.76,8.58,29.79,17.66c1.11,1.26,2.11,2.63,3.06,4.02c2.71,3.97,4.47,8.22,4.21,13.18
			C384.58,63.9,384.7,66.65,384.7,69.63z"/>
		<path class="st10" d="M380.53,123.71c9.49-0.77,18.93-1.03,28.46,0.82c0.35,1.39,0.74,2.74,1.02,4.11c0.1,0.48,0.08,1.08-0.14,1.5
			c-1.23,2.44-2.53,4.83-3.95,7.53C398.84,130.44,390.19,126.23,380.53,123.71z"/>
		<path class="st11" d="M343.46,95.14c-3.11-5.24-3.9-13.21-1.82-17.97c1.44,0.54,2.89,1.1,4.33,1.64c0.13,2.18,0.16,4.2,0.4,6.2
			c0.13,1.12,0.45,2.28,0.97,3.27c0.88,1.68,2.38,1.67,3.14-0.08c0.56-1.27,0.7-2.72,0.96-4.11c0.14-0.76,0.12-1.54,0.19-2.68
			c1.58,0.8,2.97,1.37,4.19,2.18c0.48,0.32,0.9,1.21,0.83,1.78c-0.3,2.44-0.76,4.87-1.23,7.29c-0.19,0.98-0.9,1.46-1.9,1.55
			C350.18,94.51,346.83,94.83,343.46,95.14z"/>
		<path class="st9" d="M395.67,66.91c-1.81-0.95-2.63-2.26-2.67-4.44c-0.1-5.31-0.45-10.62-0.87-15.91
			c-0.29-3.57-1.13-7.02-3.97-10.26c1.05,0.32,1.63,0.37,2.08,0.65c2.64,1.63,5.27,3.26,7.85,4.98c1.61,1.07,2.25,2.6,2.02,4.59
			c-0.76,6.71-2.14,13.29-3.98,19.78C396.07,66.52,395.83,66.7,395.67,66.91z"/>
		<path class="st1" d="M169.08,156.89c0.43,1.81,0.26,3.16-0.31,4.45c-2.19,4.97-5.78,8.66-10.49,11.29c-0.61,0.34-1.34,0.7-2,0.66
			c-3.09-0.16-6.21-0.22-9.24-0.76c-4.02-0.72-5.91-3.78-7.39-7.85c2.83,1.66,4.72,4.18,8.24,4.04c-0.47-0.97-0.83-1.7-1.32-2.7
			C156.14,168.27,163.45,164.98,169.08,156.89z"/>
		<path class="st1" d="M489.19,114.05c-0.51,3.47-0.96,6.5-1.43,9.66c-0.23,0.03-0.59,0.15-0.9,0.09
			c-5.22-1.01-9.71-3.34-12.94-7.66c-2.46-3.28-2.05-6.9-0.85-11.08C477.01,111.13,482.5,113.69,489.19,114.05z"/>
		<path class="st12" d="M441.59,328.73c7.47,5.76,7.58,5.81,15.61,6.55c-1.4,4.67-3.62,8.67-7.68,11.41
			c-1.81,1.22-3.05,0.86-4.24-1.01c-0.56-0.89-1.02-1.87-1.38-2.87C442.24,338.31,441.45,333.66,441.59,328.73z"/>
		<path class="st1" d="M188.71,136.94c1.91,4.03,2.12,7.59,0.45,11c-0.99,2.02-2.41,3.96-4.02,5.53c-3.44,3.34-7.71,5.24-12.65,6.2
			c-0.19-2.35-0.36-4.51-0.54-6.88C179.74,150.15,186.48,146.27,188.71,136.94z"/>
		<path class="st1" d="M191.51,133.11c7.93-0.71,13.72-4.26,17.58-11.02c3.96,8.45-4.46,17.7-15.32,17.09
			C193.08,137.32,192.35,135.38,191.51,133.11z"/>
		<path class="st1" d="M513.17,123.84c4.85,5.6,10.69,6.64,17.54,5.36c-0.17,1.3-0.34,2.45-0.47,3.62
			c-0.14,1.22-0.26,2.44-0.41,3.93c-1.54,0.11-3.03,0.41-4.48,0.3c-3.55-0.28-6.99-1.06-10.16-2.79c-2.37-1.29-3.45-3.23-2.96-5.93
			C512.47,126.97,512.79,125.63,513.17,123.84z"/>
		<path class="st1" d="M493.19,116.3c4.89,4.37,10.39,5.49,16.47,5.07c-0.53,3.04-1.01,5.88-1.55,8.97
			c-0.99-0.08-2.08,0.04-3.03-0.27c-2.93-0.97-5.92-1.87-8.67-3.24c-3.68-1.85-4.52-4.07-3.76-8.12
			C492.78,118.04,492.95,117.37,493.19,116.3z"/>
		<path class="st11" d="M180.37,235.97c-3.52-6.83-7.2-13.52-11.89-19.54c-4.62-5.92-9.56-11.59-14.26-17.25
			c3.68,1.3,13.83,10,17.51,15.13C176.4,220.83,179.3,228.05,180.37,235.97z"/>
		<path class="st4" d="M397.98,71.82c0.29-1.43,0.46-2.43,0.69-3.41c1.43-6.14,2.88-12.27,4.29-18.41c0.24-1.03,0.21-2.12,0.43-3.16
			c0.7-3.43-0.74-5.93-3.49-7.69c-3.36-2.15-6.75-4.3-10.31-6.07c-4.21-2.09-8.63-3.75-12.92-5.67c-2.26-1.01-4.45-2.16-6.54-3.67
			c0.42,0.07,0.86,0.07,1.25,0.22c8.95,3.47,17.79,7.18,26.2,11.84c1.86,1.03,3.6,2.27,5.4,3.42c2.62,1.69,3.57,4.07,2.89,7.11
			c-1.09,4.94-2.13,9.89-3.28,14.82c-0.63,2.68-1.42,5.32-2.18,7.96C400.1,70.08,399.99,71.23,397.98,71.82z"/>
		<path class="st12" d="M251,358.54c7.69-1.95,7.92-2.14,11.85-9.36c0.17,0.19,0.42,0.34,0.45,0.52c0.8,4.2,1.23,8.4,0.25,12.63
			c-0.04,0.17-0.1,0.34-0.15,0.51c-1.12,3.41-2.96,4.2-6.04,2.45C254.61,363.74,252.38,361.66,251,358.54z"/>
		<path class="st1" d="M174.98,162.42c0.49,3.3,3.15,4.48,6.09,5.33c-4.12,5.08-12.53,7.78-17.07,5.51c0.94-1.08,1.9-2.09,2.74-3.2
			c1.23-1.62,2.64-3.18,3.48-5C171.19,162.96,172.61,162.23,174.98,162.42z"/>
		<path class="st1" d="M223.87,105.64c3.12,8.01-1.68,17.18-9.7,18.93c-0.64-1.91-1.28-3.83-1.92-5.75
			C218.7,116.16,221.4,114.6,223.87,105.64z"/>
		<path class="st0" d="M611.14,658.24c3.7,2.35,4.37,5.84,3.86,9.69c-0.56,4.19-2.08,7.81-6.69,9.3
			C611.82,671.27,613.07,665.02,611.14,658.24z"/>
		<path class="st8" d="M366.85,136.76c-2.37-2.53-3.59-5.21-4.96-7.99c2.74-1.53,5.45-1.69,8.58-1.23
			C369.85,130.8,368.75,133.67,366.85,136.76z"/>
		<path class="st8" d="M365.97,90.76c-2.55,1.39-4.84,2.79-7.76,2.64c0.39-2.58,0.76-5.02,1.16-7.65
			C361.85,87.02,363.98,88.58,365.97,90.76z"/>
		<path class="st8" d="M375.55,134.29c1.37,1.89,2.7,3.7,4.04,5.54c-2.33,1.29-4.24,1.17-5.47-0.19
			C372.95,138.37,373.24,137.11,375.55,134.29z"/>
		<path class="st8" d="M418.87,130.76c-0.91,1.42-1.82,2.84-2.92,4.55c-1.82-2.16-2.18-4.36-2.68-6.67
			C415.52,128.34,417.14,129.18,418.87,130.76z"/>
		<path class="st13" d="M370.96,126.18c-3.44,0.43-6.38,0.79-9.62,1.19c-0.12-0.26-0.4-0.83-0.84-1.73
			c3.72-0.5,7.15-0.95,10.91-1.46C371.19,125.18,371.05,125.8,370.96,126.18z"/>
		<path class="st8" d="M413.87,76.06c0.77,3.1,0.46,5.94-0.08,8.77c-0.96,0.24-1.54,0.05-1.57-0.91c-0.05-1.94-0.08-3.88-0.09-5.82
			C412.11,77.21,412.14,77.21,413.87,76.06z"/>
		<path class="st13" d="M407.98,140.04c0.34-0.92,0.56-1.53,0.87-2.38c2.04,1.49,5-0.5,6.85,2.38
			C412.98,140.04,410.62,140.04,407.98,140.04z"/>
		<path class="st8" d="M409.29,136.59c0.64-1.2,1.21-2.25,2.05-3.83c0.94,1.77,1.66,3.11,2.52,4.73
			C412.21,137.62,410.87,137.84,409.29,136.59z"/>
		<path class="st13" d="M379.98,141.95c-2.66,0.25-5.33,0.49-8.4,0.78c0.38-1.17,0.63-1.96,1.02-3.18c2.14,2.4,4.79,2.03,7.41,1.78
			C380.01,141.53,380,141.74,379.98,141.95z"/>
		<path class="st13" d="M419.38,129.23c-2.12-0.63-3.87-1.2-5.65-1.65c-0.98-0.25-1.28-0.8-1.18-1.93c2.42,0.17,4.49,1.23,6.51,2.4
			C419.29,128.17,419.26,128.76,419.38,129.23z"/>
		<path class="st11" d="M410.13,79.45c-0.19,1.63-0.35,2.94-0.52,4.39c-1.63-0.34-1.01-1.37-1.09-2.1
			C408.41,80.72,408.59,79.91,410.13,79.45z"/>
		<path class="st11" d="M620.9,175.12c0.88,3.96,1.93,7.89,2.61,11.88c1.29,7.6,2.57,15.21,3.49,22.86
			c1.36,11.31-2.6,21.08-9.41,29.89c-0.19,0.24-0.49,0.39-1.23,0.97c0.86-2.46,1.53-4.35,2.19-6.25c3.08-8.95,5.07-18.08,4.7-27.63
			c-0.38-9.93-1.34-19.81-2.69-29.65c-0.08-0.61-0.12-1.22-0.18-1.83C620.56,175.27,620.73,175.2,620.9,175.12z"/>
		<path class="st11" d="M597.19,160.98c0.09,0.95,0.16,1.9,0.28,2.84c0.46,3.78,0.91,7.56,1.4,11.33c0.46,3.52,0.71,7.02,0.31,10.59
			c-1.19,10.75-2.16,21.52-3.35,32.27c-0.42,3.86-1.26,7.66-2.67,11.49c-1.03-2.78-0.78-24.09,0.24-34.42
			c1.12-11.37,2.15-22.74,3.22-34.11C596.81,160.98,597,160.98,597.19,160.98z"/>
		<path class="st11" d="M491.65,210.95c14.64,5.02,29.16,9.99,43.69,14.97c-0.01,0.08-0.02,0.15-0.03,0.23
			c-0.94,0-1.89,0.05-2.83-0.01c-4.43-0.27-8.86-0.51-13.28-0.87c-7.38-0.6-14.24-2.92-20.55-6.76
			C494.98,216.27,492.84,213.84,491.65,210.95z"/>
		<path class="st11" d="M501.63,256.12c26.81,7.74,30.17,5.79,49.82,6.35c-2.78,1.43-5.31,2.04-7.83,2.65
			c-3.74,0.9-7.5,1.18-11.35,0.68c-5.27-0.68-10.63-0.83-15.84-1.81c-4.82-0.91-9.21-3.2-13.18-6.16c-0.43-0.32-0.84-0.65-1.24-1.01
			C501.89,256.71,501.84,256.52,501.63,256.12z"/>
		<path class="st11" d="M567.42,207.18c-6.18-14.81-2.21-28.48,4.81-41.79c-0.19,4.59-1.18,9.08-1.73,13.62
			c-0.58,4.75-1.26,9.49-1.78,14.25C568.22,197.89,567.85,202.54,567.42,207.18z"/>
		<path class="st11" d="M495.29,194.61c11.48-6.93,35.87-2.74,44.19,7.47c-0.62,0-1.1,0.08-1.54-0.01
			c-4.84-1.06-9.67-2.21-14.53-3.21c-2.16-0.44-4.37-0.75-6.56-0.85C509.66,197.7,502.61,196.54,495.29,194.61z"/>
		<path class="st11" d="M227.4,185.49c-9.33,7.06-18.56,14.05-27.59,20.89C202.87,197.54,219.11,186.16,227.4,185.49z"/>
		<path class="st11" d="M215.81,270.42c5.84-1.24,11.42-2.82,16.5-5.82c5.13-3.03,8.93-7.46,13.12-12.37
			c-0.14,1.01-0.11,1.47-0.27,1.86c-1.28,3.01-2.55,6.03-3.9,9.01c-1.22,2.69-3.31,4.56-5.85,5.98c-3.9,2.18-8.01,3.74-12.46,4.37
			C219.92,273.87,218.2,273.2,215.81,270.42z"/>
		<path class="st11" d="M214.75,231.25c7.31-5.39,14.34-10.56,21.38-15.75C233.99,223.36,223.83,231.61,214.75,231.25z"/>
		<path class="st11" d="M126.42,299.98c-2.4-2.16-4.84-4.28-7.2-6.48c-10.25-9.58-15.56-21.57-17.31-35.34
			c-1.43-11.32-1.05-22.69-1.03-34.05c0.01-3.09,0.18-6.19,0.28-9.73c1.04,1.01,0.78,1.94,0.87,2.72c1.64,15,3.46,29.98,6.96,44.68
			c0.88,3.68,2.22,7.32,3.88,10.72c4.13,8.45,8.56,16.75,12.88,25.11c0.35,0.68,0.7,1.36,1.05,2.03
			C126.68,299.75,126.55,299.87,126.42,299.98z"/>
		<path class="st11" d="M152.14,275.02c-16.65-19.73-24.02-42.91-24.9-68.44C134.8,229.65,143.13,252.42,152.14,275.02z"/>
		<path class="st3" d="M367.92,306.04c0,2.39-0.03,4.4,0.01,6.42c0.05,2.29,0.36,2.62,2.64,2.67c2.58,0.05,5.15,0.05,7.73,0
			c2.4-0.04,2.69-0.37,2.84-2.8c0.04-0.69,0.13-1.38,0.22-2.3c3.7,0.06,7.26-0.15,9.72-3.21c7.76,3.25,12.62,14.6,10.65,24.64
			c-2.04,10.36-11.69,18.28-22.52,18.48c-10.96,0.2-20.72-7.56-23.13-18.38C353.84,321.5,358.93,310.12,367.92,306.04z"/>
		<path class="st11" d="M370.81,292.38c4.72,0,9.32-0.13,13.91,0.04c3.26,0.12,5.07,1.8,5.57,5.03c0.25,1.62,0.19,3.38-0.17,4.98
			c-0.71,3.16-2.86,4.73-6.12,4.86c-1.15,0.05-2.3,0.04-3.46,0.01c-1.31-0.03-1.99,0.54-1.96,1.89c0.02,0.95,0,1.9,0,3.19
			c-1.54,0-2.76,0-3.97,0c-1.23,0-2.46,0-3.62,0C370.36,310.31,370.22,295.83,370.81,292.38z M378.8,303.36
			c3.78,0.44,5.31,0.05,6.16-1.43c0.7-1.22,0.58-3.51-0.31-4.54c-1.61-1.85-3.65-1.27-5.85-1.06
			C378.8,298.72,378.8,300.97,378.8,303.36z"/>
		<path class="st3" d="M393.19,302.72c10.39,5.74,15.54,19.75,11.8,31.81c-3.86,12.46-16.16,20.5-29.12,19.41
			c-12.85-1.08-23.57-12.09-24.86-23.99c-1.4-12.96,5.85-25.77,16.57-29.27c0.71,1.34,0.11,2.1-1.07,2.71
			c-2.87,1.5-5.31,3.53-7.41,5.99c-10.42,12.21-8.21,32.41,8.53,40.63c16.15,7.93,33.07-2.35,36.12-17.88
			c2.14-10.87-0.89-20.21-9.91-27.19C393.19,304.44,392.18,304.01,393.19,302.72z"/>
		<path class="st3" d="M269.35,339.58c-0.13-5.8,1.7-10.55,5.42-14.61c6.05-6.62,15.5-6.95,21.71-0.48
			c4.87,5.07,4.45,5.03,1.85,10.65c-4.52,9.77-14.38,15.19-25.21,14.27c-1.15-0.1-1.76-0.56-2.17-1.57
			C269.82,345.1,269.21,342.26,269.35,339.58z"/>
		<path class="st12" d="M300.9,331.43c3.19,7.65,1.3,17.51-4.68,23.01c-7.24,6.65-18.31,5.1-23.37-3.34
			c-0.08-0.13-0.01-0.33-0.01-0.8C286.55,350.91,295.87,344.64,300.9,331.43z"/>
		<path class="st3" d="M380.95,301.31c0-0.98,0-1.95,0-2.93c1.37-0.11,2.35,0.71,2.38,1.36
			C383.36,300.42,382.4,301.37,380.95,301.31z"/>
	</g>
</g>
</svg>
