<?xml version="1.0" encoding="utf-8"?>
<!-- Generator: Adobe Illustrator 24.3.0, SVG Export Plug-In . SVG Version: 6.00 Build 0)  -->
<svg version="1.1" id="Layer_1" xmlns="http://www.w3.org/2000/svg" xmlns:xlink="http://www.w3.org/1999/xlink" x="0px" y="0px"
	 viewBox="0 0 720 720" style="enable-background:new 0 0 720 720;" xml:space="preserve">
<style type="text/css">
	.st0{fill:#261B17;}
	.st1{fill:#FBECBF;}
	.st2{fill:#DC7C34;}
	.st3{fill:#30313B;}
	.st4{fill:#DC7B34;}
	.st5{fill:#F5BAA6;}
	.st6{fill:#F2C994;}
	.st7{fill:#E19787;}
	.st8{fill:#F1C993;}
	.st9{fill:#F7BA17;}
	.st10{fill:#9F5424;}
	.st11{fill:#FBF2AE;}
	.st12{fill:#EFC793;}
	.st13{fill:#714F1F;}
	.st14{fill:#F5BA18;}
	.st15{fill:#DB7C33;}
	.st16{fill:#FAF1AD;}
	.st17{fill:#FBF1AD;}
	.st18{fill:#9F5324;}
	.st19{fill:#F0B71C;}
	.st20{fill:#F5B919;}
	.st21{fill:#985123;}
	.st22{fill:#F8ECA5;}
	.st23{fill:#504539;}
	.st24{fill:#B4A787;}
	.st25{fill:#8C8069;}
	.st26{fill:#F2E499;}
	.st27{fill:#9E9176;}
	.st28{fill:#2A201B;}
	.st29{fill:#281E1B;}
	.st30{fill:#281F1B;}
	.st31{fill:#FAFBFC;}
	.st32{fill:#F9F8F8;}
	.st33{fill:#FFFFFF;}
	.st34{fill:#241B19;}
	.st35{fill:#231918;}
	.st36{fill:#2B55A6;}
	.st37{fill:#FCFCFB;}
	.st38{fill:#2B55A5;}
	.st39{fill:#FBFCFC;}
</style>
<g>
	<path class="st0" d="M430.01,503.95c-0.01-0.04-0.02-0.07-0.03-0.11c-0.06,0-0.11,0-0.17,0
		C429.88,503.88,429.94,503.91,430.01,503.95z"/>
	<polygon class="st0" points="295.55,526.76 295.55,526.76 295.55,526.76 	"/>
	<path class="st0" d="M648,332.75c-0.81-1.59-1.99-2.42-3.14-3.09c-3.54-2.06-4.93-5.25-5.52-9.1c-1.38-8.96-4.62-17.34-9.26-25.02
		c-10.22-16.91-23.63-29.63-44.61-31.25c-22.06-1.71-40.8,3.98-52.66,24.36c-0.74,1.28-1.55,1.43-2.82,1.28
		c-8.32-0.99-16.68-1.23-25.05-1.2c-2.24,0.01-2.66-0.76-2.66-2.81c-0.04-8.89-1.2-17.62-4.56-25.92c-0.78-1.92-0.17-2.6,1.5-3.35
		c4.24-1.9,8.49-3.75,12.89-5.27c24.29-8.4,49.22-13.65,74.89-15.12c18.55-1.06,37.13-2.13,55.62,0.95
		c0.69,0.12,1.42,0.13,1.73-0.76c-0.61-1.17-1.88-1.26-2.91-1.69c-6.27-2.58-12.82-4.06-19.51-5.02
		c-19.08-2.74-38.24-2.56-57.39-1.29c-24.6,1.62-49.11,4.03-72.13,13.93c-0.15,0.06-0.4-0.1-0.86-0.23
		c3.06-9.99,5.19-20.16,6.23-30.56c1.71-17.11,0.26-34.13-1.63-51.11c-1.83-16.44-4.94-32.62-11.99-47.77
		c-5.24-11.26-8.89-13-20.87-9.97c-10.02,2.54-18.99,7.44-27.75,12.75c-14.33,8.69-27.67,18.71-40.78,30.93
		c3.01-25.67,6.84-50.17,12.4-74.77c-2.26,0.61-2.47,2.03-2.93,3.13c-10.82,25.68-19.31,52.03-22.23,79.9
		c-0.48,4.56-3.85,6.87-6.1,10.22c-0.55-5.53-0.43-10.88-0.58-16.21c-0.22-7.74-4.22-13.31-10.48-17.49
		c-6.01-4.01-12.68-4.06-19.49-3.22c-10.09,1.24-16.21,6.84-18.48,16.69c-1.38,6.02-1.88,12.16-2.56,18.27
		c-0.7,6.24-0.68,6.15-6.89,6.8c-2.09,0.22-2.49-0.44-2.61-2.35c-0.38-5.91-0.73-11.84-1.54-17.69
		c-4.01-28.83-15.46-54.82-30.73-79.31c-0.51-0.82-0.8-2.01-2.38-2.01c12.36,31.46,19.49,64.06,22.96,97.56
		c-1.36-0.82-2.3-1.78-3.21-2.78c-16.54-18.1-35.67-32.85-57.24-44.47c-6.32-3.4-12.97-5.58-20.12-6.41
		c-5.02-0.58-9.1,0.82-12.44,4.67c-3.34,3.85-5.37,8.4-7.27,13.02c-12.92,31.41-12.81,64.12-9.44,97.1
		c0.88,8.55,3.17,16.88,5.33,25.2c0.92,3.54-1.19,6.73-3.85,6.01c-15-4.06-30.32-5.81-45.79-6.47c-25.2-1.07-50.16,0.32-74.6,7.16
		c-0.9,0.25-2.13,0.04-2.47,1.44c1.4,1.1,2.93,0.42,4.36,0.36c20.2-0.73,40.42-1.66,60.59,0.36c17.61,1.76,34.9,5.17,51.69,10.95
		c2.85,0.98,3.97,2.19,3.59,5.42c-1.07,9.15-0.96,18.34,0.61,27.43c0.49,2.86,0.07,3.64-3.02,3.73
		c-31.28,0.91-61.59,6.66-90.61,18.63c-8.08,3.33-15.66,7.6-23.11,12.12c-0.73,0.44-2.06,0.79-1.63,1.92
		c0.56,1.44,1.57,0.26,2.29-0.04c19.74-8.13,40.21-13.69,61.26-17.07c7.6-1.22,15.29-1.85,23.93-1.73
		c-3.71,1.82-6.68,3.06-9.43,4.68c-10.48,6.16-18.23,14.46-19.71,27.1c-1.55,13.26,8.36,23.04,21.63,21.59
		c1.14-0.13,2.19-0.44,3.23,0.56c5.45,5.2,11.99,6.3,19.09,4.68c2.18-0.5,3-0.07,3.34,2.28c1.4,9.47,4.22,18.59,8.04,27.33
		c6.54,14.99,16.14,27.6,29.84,36.86c4.44,3.01,9.21,4.12,14.55,3.41c18.7-2.48,36.42-8.2,53.61-15.79c0.95-0.42,1.8-1.42,3.28-0.84
		c-5.75,12.6-9.12,25.71-11.12,39.22c-2.86,19.38-0.4,37.54,12,53.44c1.25,1.6,0.31,2.16-0.64,3.01
		c-20.82,18.71-19.48,46.31-11.35,63.38c1.38,2.91,0.36,3.11-1.95,3.53c-27.27,4.95-54.67,8.19-82.48,6.54
		c-7.3-0.43-14.63-0.78-21.94-0.69c-9.47,0.11-18.02,3.04-25.16,9.55c-2.39,2.18-4.04,4.74-4.79,7.9
		c-2.71,11.33,3.72,21.04,15.87,24.16c10.82,2.78,21.91,3.76,32.95,3.63c20.79-0.25,41.56-1.49,62.34-2.05
		c17.88-0.48,35.78-0.46,53.67-0.92c6.81-0.18,13.74,0.15,20.31-2.42c7.4-2.9,11.13-9.32,9.9-17.17c-0.9-5.71-3.61-10.51-7.58-14.6
		c-3.48-3.59-7.23-6.89-11.24-9.89c-7.52-5.62-11.13-13.11-10.98-22.53c0.19-11.51,5.09-21,12.1-29.73c2.33-2.9,4.45-5.32,8.45-2.67
		c0.73,0.48,1.77,0.54,2.69,0.68c17.36,2.63,34.68,3.32,51.88-1.12c1.67-0.43,2.92-0.56,4.4,0.74c9.35,8.17,14.53,18.62,16.57,30.63
		c1.18,6.94-0.38,13.6-3.86,19.8c-2.72,4.85-7.73,5.58-12.28,7.16c-6.22,2.16-10.78,6.27-14.16,11.79
		c-4.47,7.29-2.9,14.81,3.97,19.93c5.92,4.42,12.79,6.49,19.81,8.22c24.68,6.05,49.85,7.33,75.09,6.81
		c19.71-0.4,39.41-0.67,59.12-2.84c9.49-1.04,19.01-2.33,28.54-3.26c4.08-0.4,7.98-1.49,11.62-3.43
		c8.33-4.45,12.67-13.27,11.23-22.84c-1.25-8.27-6.43-13.22-16.4-15.09c-6.3-1.18-12.74-1.02-19.11-0.73
		c-18.8,0.87-37.58,2.01-56.38,2.84c-20.8,0.91-41.58,1.05-62.2-2.63c-1.92-0.34-3.17-0.37-1.49-2.75
		c7.14-10.08,10.37-21.46,10.68-33.7c0.36-14.2-3.45-26.65-15.41-35.55c-0.52-0.39-1.28-0.68-1.19-1.69c9.5,0.79,19,0.16,28.48-0.37
		c9.52-0.53,18.97-1.69,28.37-3.25c36.67-6.08,70.28-18.99,98.69-43.74c43.17-37.61,67.56-83.81,65.37-142.24
		c-0.11-3.03-0.32-6.06-0.49-9.16C643.93,330.6,645.27,333.11,648,332.75z M556.6,269.68c31.04-10.12,54.38-1.44,70.91,24.88
		c5.57,8.87,9.26,18.58,10.65,29.55c-7.89-4.66-15.47-8.91-23.38-12.53c-0.77-0.35-1.38-0.89-1.67-1.69
		c-1.39-3.82-4.22-6.62-6.76-9.63c0,0,0,0,0,0c-9.28-7.21-19.75-9.59-30.7-5.44c-4.67,1.77-8.61,1-12.8,0.15
		c-0.36-0.03-0.73-0.1-1.14-0.23c-9.12-1.51-18.23-3.02-27.75-4.6C539.28,280.53,546.45,272.98,556.6,269.68z M610.68,309.62
		c-11.86-5.69-23.58-9.58-35.98-12.14C584.62,290.2,605.71,297.12,610.68,309.62z M400.44,143.42
		c10.26-8.83,20.92-17.16,32.47-24.26c10.07-6.2,20.23-12.22,31.92-14.98c9.59-2.26,13.15-0.66,17.37,8.34
		c5.45,11.6,8.49,23.91,10.55,36.5c1.98,12.09,3.03,24.25,3.62,36.49c0.17,3.45,0.5,6.91,0.59,11.65
		c-0.36,12.97-2.04,27.03-5.93,40.78c-0.26,0.91-0.12,2.44-1.41,2.53c-1.14,0.08-1.51-1.25-2.02-2.15
		c-5.05-8.77-11.08-16.82-18.34-23.86c-2.27-2.2-2.63-4.55-2.22-7.22c1.28-8.47,2.14-17.02,1.85-25.53
		c-0.39-11.39-0.83-22.84-3.96-33.96c-0.76-2.71-1.83-5.24-3.12-7.7c-2.09-4-4.92-5.18-9.24-3.82
		c-10.88,3.43-20.23,9.62-29.27,16.32c-7.17,5.31-14.03,10.97-19.59,18.07c-1.87,2.39-7.36,2.56-9.84,0.62
		c-0.9-0.7-0.8-1.6-0.81-2.51c-0.08-6.26,0.54-12.48,1.54-18.62C395.11,147.04,398.21,145.34,400.44,143.42z M465.26,209.19
		c-0.44,0.08-0.75,0.22-0.84,0.13c-13.9-12.47-29.3-22.63-46.38-30.22c-4.25-1.51-8.5-3.05-12.77-4.5c-1.6-0.54-2.09-1.04-0.74-2.54
		c12.57-13.99,27.32-25,44.45-32.82c0.53-0.24,1.08-0.42,1.63-0.61c6.34-2.17,8.93-1.06,11.22,5.28c2.7,7.45,4.04,15.21,4.33,23.13
		C467.92,181.16,466.83,195.2,465.26,209.19z M371.65,141.53c1.61,2.48,1.7,4.89,1.93,7.32c1.54,16.45-0.04,32.89-0.27,49.32
		c-0.12,8.11,0.1,16.44-2.73,24.36c-1.71,4.8-4.88,7.97-9.79,9.68c8.01-6.82,8.45-16.24,9.35-25.67
		c1.47-15.38,0.94-30.79,1.59-46.17C371.98,154.22,370.78,148.15,371.65,141.53z M325.13,219.47c-0.82-2.27-1.52-4.47,2.39-3.59
		c12.53,0.07,25.06,0.18,37.6,0.16c2.31,0,2.46,1.03,2.01,2.8c-1.82,7.26-7.34,15.72-18.39,15.29c-7.49-0.3-14.22-2.02-19.6-7.51
		C327.18,224.62,325.54,222.38,325.13,219.47C325.13,219.47,325.13,219.47,325.13,219.47C325.13,219.47,325.13,219.47,325.13,219.47
		z M328.52,145.02c1.97-9.05,7.88-14.34,17.68-15.44c2.52-0.28,5.07-0.48,7.61-0.06c5.69,0.03,10.37,2.44,14.11,6.51
		c2.65,2.89,2.11,6.69,1.99,10.26c-0.05,1.4-1.29,1.03-2.15,1.07c-9.04,0.37-18.09,0.35-27.13,0.12c-3.35,0.05-6.71,0.02-10.06,0.19
		C328.44,147.75,328.09,147.03,328.52,145.02z M325.38,170.97c0.37-3.54,0.68-7.09,1.01-10.63c0,0,0,0,0,0
		c0.31-2.88,0.7-5.75,0.91-8.63c0.13-1.82,0.98-2.36,2.69-2.27c2.66,0.13,5.33,0.12,8,0.16c8.13-0.29,16.26-0.43,24.39-0.07v0v0
		c7.93-0.7,7.94-0.7,7.84,6.91c-0.03,2.29-0.14,4.57-0.22,6.86c0,0,0,0,0,0l0,0c-0.03,9.76,1.88,7.89-8.28,8.09
		c-6.21,0.79-12.47,0.63-18.71,0.83c-5.27,0.24-10.55,0.43-15.82,0.76C325.53,173.08,325.23,172.38,325.38,170.97z M324.11,189.74
		c0.41-4.25,0.57-8.52,0.75-12.79c0.06-1.57,0.61-2.24,2.26-2.26c4.61-0.06,9.22-0.26,13.84-0.41c6.13-0.25,12.26-0.5,18.38-0.76
		c0,0,0,0,0,0c0,0,0,0,0,0c2.93-0.08,5.85-0.16,8.78-0.23c1.77-0.51,1.91,0.56,1.87,1.89c-0.19,5.43-0.41,10.87-0.52,16.3
		c-0.04,1.66-0.93,1.85-2.24,1.81c-6.01-0.18-12.02-0.33-18.03-0.5c0,0,0,0,0,0s0,0,0,0c-3.07-0.03-6.13-0.06-9.2-0.09c0,0,0,0,0,0
		c0,0,0,0,0,0c-4.28-0.03-8.57-0.07-12.85-0.1v0c0,0,0,0,0,0C324.68,193.19,323.87,192.28,324.11,189.74z M325.93,194.32
		c3.63,0.13,7.27,0.21,10.9,0.29c1.01-0.28,2.23-0.01,3.32,0.08c2.24,0.08,4.49,0.17,6.73,0.25c6.73,0.01,13.45,0.07,20.18-0.01
		c1.99-0.02,2.29,0.88,2.14,2.56c-0.42,4.85-0.81,9.71-1.08,14.57c-0.1,1.75-0.67,2.41-2.49,2.37c-12.06-0.27-24.13-0.44-36.19-0.65
		c0,0,0,0,0,0c-5.68,0.48-5.68,0.48-5.4-7.06c-0.06-3.47-0.1-6.95-0.2-10.42C323.81,194.8,324.45,194.27,325.93,194.32z
		 M195.08,227.03c-2.51-16.02-1.72-32.18-1.22-48.24c0.59-19.08,4.93-37.52,13.65-54.72c0.68-1.34,1.43-2.66,2.28-3.89
		c3.85-5.55,8.41-7.05,15.1-5.9c9.37,1.6,17.4,6.11,25.42,10.77c18.38,10.68,34.33,24.33,48.83,39.76c0.79,0.84,1.48,1.78,2.17,2.7
		c3.5,4.63,3.5,4.78-2.01,6.23c-4.49,1.18-8.88,2.61-13.14,4.43c-2.02,0.86-3.18,0.41-4.69-1.31c-13.9-15.79-30.53-27.5-51.01-33.23
		c-3.42-0.96-6.23,0.31-8.16,3.14c-4.36,6.39-5.64,13.88-6.97,21.25c-2.23,12.38-1.78,24.86-0.84,37.35
		c0.43,5.66,0.96,11.26,2.73,16.68c0.36,1.12,0.23,2.25-0.64,3.26c-6.45,7.51-11.63,15.83-16.11,25.89
		C197.77,242.63,196.31,234.86,195.08,227.03z M279.07,181.17c-3.46,1.31-6.75,3.05-10.11,4.6c-18.18,9.35-34.8,20.82-48.86,35.8
		c-0.14,0.15-0.4,0.2-1.01,0.5c-2.42-7.47-3.12-15.08-3.22-22.78c-1.29-11.5-0.54-22.9,1.78-34.22c1.07-5.24,2.35-10.41,4.81-15.22
		c2.25-4.4,4.41-5.45,9.37-4.09c9.74,2.67,18.53,7.37,26.78,13.06c7.75,5.35,15.02,11.28,21.14,18.54
		C281.26,179.16,281.82,180.13,279.07,181.17z M155.87,320.82c-22.03,0.78-43.05,6.5-63.94,12.89c-1.5,1.11-3.28,1.33-5.43,1.89
		c1.39-1.45,2.67-2.12,4.13-2.48c18.16-8.48,37.06-14.69,56.8-18.27c14.77-2.68,29.67-4.21,44.67-4.56
		c2.71-0.06,3.36-0.81,2.81-3.48c-2.03-9.88-1.65-19.87-1.01-29.86c0.05-0.75-0.25-1.76,0.78-2.07c0.66-0.2,1.92,0.47,1.63-0.92
		c-0.12-0.55-1.21-0.97-1.93-1.3c-11.43-5.14-23.62-7.59-35.78-10.14c-23.65-4.95-47.57-4.5-71.51-3.84
		c-1.16,0.03-2.31,0.13-3.47-0.23c39.14-7.41,78.15-7.44,117.2,2.68c-2.07-1.8-1.34-3.45-0.6-5.33
		c9.12-23.16,25.66-40.14,45.57-54.12c16.64-11.68,34.66-20.7,54.25-26.46c2.82-0.83,4.22-0.85,4.03,2.76
		c-0.19,3.46,0.25,6.95,0.44,10.43c0.01,0.16,0.26,0.3,0.94,1.04c1.31-36.39-7.57-70.5-17.19-104.82c1.57,0.91,1.84,2.22,2.41,3.29
		c14.62,27.31,22.62,56.36,22.87,87.44c0,0.46,0.08,0.92,0.11,1.39c1.45-1.34-0.28-3.55,1.34-4.84c8.42-2.12,8.78-1.81,8.14,6.52
		c-0.89,11.7-1.52,23.41-0.69,35.14c0.83,11.76,7.73,19.48,19.4,21.63c5.32,0.98,10.66,0.83,15.93-0.19
		c9.3-1.79,14.18-7.02,15.76-17.05c1.56-9.89,1.4-19.91,1.77-29.88c0.19-5.11,0.23-10.22,0.37-15.32c0.03-1.29-0.46-2.97,1.97-2.64
		c1.81,0.25,3.22,0.26,3.07,2.92c-0.28,4.98-0.11,9.98-0.03,14.97c0.03,1.95,0.03,3.93,0.73,5.83c1.56-0.16,1.1-1.32,1.06-2.09
		c-2.17-36.17,5.61-70.6,18.25-104.18c0.3-2.15,1.07-4.09,2.8-6.68c-0.67,3.58-0.89,6.29-2.01,8.81
		c-6.51,34.48-10.79,69.19-11.31,104.41c1.68-0.31,1.25-1.47,1.3-2.27c0.33-5.1,0.76-10.2,0.79-15.31c0.02-3.04,0.81-3.76,3.83-2.93
		c14.65,4.03,28.59,9.7,41.49,17.75c21.25,13.25,39.13,29.82,50.93,52.27c0.72,1.38,1.33,1.95,2.91,1.2
		c20.89-9.92,43.45-12.3,66.03-14.17c20.74-1.72,41.53-2.25,62.26,0.54c4.2,0.57,8.44,1,12.44,2.64
		c-11.97-0.64-23.91-0.34-35.86,0.11c-30.05,1.13-59.28,6.51-87.57,16.78c-4.91,1.78-9.76,3.74-14.21,6.54
		c-0.56,0.35-1.35,0.63-1.18,1.51c0.17,0.88,0.86,0.43,1.39,0.45c1.49,0.05,1.32,1.42,1.65,2.28c3.07,8.15,4.25,16.64,4.04,25.3
		c-0.07,2.94,0.85,3.71,3.72,3.68c27.52-0.34,54.33,4.66,80.85,11.34c15.26,3.84,29.27,10.91,42.91,18.64
		c2.58,0.44,4.42,2.25,6.5,3.65c-2.57-0.59-5.02-1.45-7.23-2.94c-11.57-4.45-23.2-8.72-35.19-11.91
		c-29.07-7.74-58.71-10.4-88.7-9.86c-1.46,0.03-2.91-0.29-3.11,2.12c-1.73,20.59-12.42,36.96-25.3,52.07
		c-21.61,25.34-49.78,39.89-81.88,46.29c-38.05,7.59-76.03,7.01-113.07-6.28c-26.29-9.44-49.43-23.54-66.72-46.07
		c-4.99-6.5-9.15-13.49-11.72-21.26c-1.07-3.23-2.9-4.29-5.98-4.62C182.34,320.25,169.12,320.35,155.87,320.82z M418.42,430.14
		c-0.15-0.4-0.2-0.85-0.43-1.88c2.78,1.97,5.08,3.65,7.42,5.25c11.13,7.59,22.76,14.07,36.47,15.52
		c13.32,1.41,25.08-2.04,34.7-11.72c16.37-16.48,26.55-36.49,33.08-58.5c1.06-3.56,2.24-5.21,6.23-4.58
		c3.92,0.63,7.91-0.02,11.61-1.59c1.53-0.65,2.95-0.29,4.43-0.12c10.27,1.15,16.44-2.28,20.36-11.8c1.06-2.57,2.79-1.79,4.49-1.93
		c2.27-0.19,1.93,1.71,2.08,2.89c2.39,19.05,0.26,37.54-7.04,55.35c-18.43,44.95-52.64,70.68-99.26,81.06
		c-14,3.12-28.28,3.91-42.61,3.44c-2.62-0.09-3.92-0.44-3.51-3.93C429.13,474.53,426.66,451.97,418.42,430.14z M574.71,356.91
		c-2.68-1.44-0.49-4.61-0.67-6.98c-1.17-15.94-10.96-24.71-24.66-30.23c-6.05-2.44-12.46-3.72-19.01-3.94
		c-2.15-0.07-2.91-0.77-2.68-2.86c0.32-3,0.5-6.01,0.77-9.02c0.15-1.68,1.01-2.37,2.78-2.26c10.54,0.66,21.04,1.74,31.49,3.29
		c1.82,0.27,2.74,1.04,2.21,3.03c-0.19,0.72-0.5,1.61,0.65,2.37c2.42-4.71,2.44-4.77,7.76-3.67c12.63,2.61,25.05,5.97,37.26,10.14
		c2.72,0.93,3.53,2.4,3.62,5.04c0.64,17.81-13.02,32.91-31.64,34.78C579.95,356.89,576.94,358.12,574.71,356.91z M526.9,303.04
		c-0.75,3.65-0.83,7.37-0.86,11.08c-0.01,1.14-0.46,1.67-1.64,1.7c-4.77,0.13-9.46,0.81-14.09,1.97c-4.59,1.15-8.76,3.34-13.63,5.66
		c2.9-7.05,4.4-13.77,5.15-20.67c0.15-1.4,0.92-1.66,2.09-1.7c7.19-0.29,14.37-0.15,21.55,0.27
		C526.63,301.43,527.16,301.78,526.9,303.04z M480.44,350.34c-2.34,18.04-7.51,34.95-18.74,49.55c-3.84,4.99-4.49,5.23-10.57,3.38
		c-8.81-2.68-17.07-6.52-25.32-12.09C447.74,382.06,465.6,368.29,480.44,350.34z M284.79,397.3c-10.57,6.4-21.07,11.54-33.02,13.12
		c-2.71,0.36-4.74-0.96-6.34-2.93C236,395.9,230.86,382.59,229.18,367C245.64,381.46,264.65,389.83,284.79,397.3z M257.78,644.12
		c-19.78,0.49-39.54,1.66-59.31,2.37c-5.88,0.21-11.85,0.87-17.66-0.56c-4.99-1.23-9.42-3.37-10.87-8.99
		c-2.55-6.99,1.21-15.89,10.33-18.09c5.27-1.27,10.61-0.8,15.93-0.74c4.35,0.05,8.71,0.23,13.11-0.38
		c-0.18-0.36-0.27-0.68-0.36-0.68c-8.9-0.02-17.8-1.63-26.7-0.31c-7.41,1.1-12.68,4.85-14.48,12.53c0.26,3.63-0.89,7.47,1.37,10.8
		c1.14,1.68,2.53,3.18,3.85,4.81c-9.08,1.4-17.05-3.44-19.02-11.44c-0.97-10.73,3.65-17.23,14.17-19.74
		c6.93-1.65,14.04-1.39,21.09-1.7c2.64-0.11,5.29-0.02,7.93-0.41c-10.05-0.24-20.15-2.02-30.13,0.53
		c-7.49,1.92-12.74,6.48-14.96,14.01c-0.53,1.82-0.13,3.9-0.15,5.87c0.17,0.49,0.24,0.91,0.23,1.26c0.64,3.19,1.75,6.17,4.34,8.54
		c-5.15-1.48-9.35-4.03-11.53-9.14c-3.46-6.55-2.01-14.56,3.34-19.32c7.95-7.09,17.49-9.28,27.76-8.9
		c16.22,0.59,32.42,1.93,48.66,0.71c1.09-0.08,2.04,0.18,3.02,0.6c9.66,4.24,19.34,8.43,29,12.69c1.9,0.84,3.78,1.79,5.53,2.91
		c7.44,4.77,8.41,9.24,3.78,16.89C264.84,642.38,262.48,644,257.78,644.12z M485.58,607.3c24.24-0.49,48.38-3.6,72.67-3.08
		c4.09,0.09,8.09,0.56,11.96,1.94c5.74,2.04,9.54,5.91,10.28,12c0.85,6.89,0.05,13.48-6.07,18.15c0,0,0,0,0,0
		c-3.49,3.91-9.37,6.24-16.79,6.54c1.46-2.09,2.8-4.01,4.14-5.93c0.25-1.48,0.62-2.95,0.74-4.45c0.87-10.44-4.59-17.01-16.04-18.83
		c-3.98-0.63-8.1-0.51-12.15-0.57c-6.01-0.08-12.02-0.02-18.05,0.73c6.07,0.26,12.15,0.56,18.22,0.76c4.75,0.16,9.52,0.1,14.19,1.21
		c10.31,2.45,14.79,11.14,10.89,21.07c-1.99,4.37-5.53,6.76-10.1,7.69c-4.03,0.82-8.08,1.52-13.17,1.28
		c3.24-2.38,4.93-4.99,5.65-8.09c0.03-0.28,0.08-0.57,0.19-0.89c0.16-2.78,0.38-5.55-0.7-8.24c-1.98-4.93-5.29-8.28-10.86-8.35
		c-10.53-0.13-21.06-0.04-32-0.04c1.52,1.25,3.1,1.17,4.54,1.2c8.24,0.14,16.48,0.11,24.71,0.28c7.49,0.16,11.64,3.59,12.63,10.28
		c0.36,2.42,0.01,4.82-0.9,7.11v0c-1,4.02-4.41,5.1-7.71,6.25c-6.8,2.37-13.95,2.27-20.98,2.57c-14.15,0.61-28.31,1.04-42.48,1.04
		c-4.27,0-8.6-0.14-12.81,0.1c-6.82,0.39-10.63-3.47-14.36-8.01c-5.21-5.06-5.53-9.95-0.53-15.15c5.88-6.11,13.45-9.72,20.75-13.83
		C469.12,607.76,477.23,607.47,485.58,607.3z M435.66,561.5c0.52,14.28-2.77,27.41-11.32,39.04c-1.88,2.56-1.54,3.07,1.68,3.61
		c12.74,2.13,25.56,3.37,38.48,3.45c0.4,0,0.81,0.07,1.36,0.69c-1.52,0.71-3.03,1.45-4.57,2.11c-6.99,3-13.36,7.01-19.28,11.76
		c-2.86,2.29-5.15,5.06-6.17,8.66c-1,3.52,0.12,6.63,2.1,9.52c2.53,2.47,5.06,4.93,7.58,7.4c-12.26-0.01-24.1-0.62-35.8-2.81
		c-7.17-1.34-14.29-2.94-21.24-5.24c-4-1.32-7.67-3.27-11-5.83c-4.79-3.69-6.49-8.16-4.49-13.78c2.16-6.08,6.16-10.79,12.37-13.27
		c1.65-1.1,3.49-1.84,5.4-2.25c4.02-0.87,7.23-2.96,9.86-6.04c8.19-17.5,4.51-36.5-9.81-50.66c-3.67-3.63-3.66-3.6,0.78-5.92
		c1.08-0.57,2.45-0.81,3.53-2.93c-12.43,5.76-24.86,8.09-37.79,7.95c-12.83-0.14-25.71,0.11-38.03-5.83
		c2.84,2.44,1.04,3.84-0.39,5.49c-6.84,7.85-11.86,16.66-13.1,27.19c-1.2,10.2,0.67,19.45,8.96,26.49c0.34,0.29,0.56,0.73,0.83,1.09
		c6.23,4.38,12.12,9.13,16.36,15.59c1.19,1.82,2.29,3.73,2.58,5.96v0c0,0,0,0,0,0c2.79,8.22-0.67,15.47-8.75,18.33
		c-5.35,1.89-10.93,1.89-16.48,1.92c-14.47,0.08-28.94,0.03-43.52,0.03c0.47-1.86,1.85-3.78,3.04-5.79
		c3.09-9.99,1.4-14.18-8.13-18.99c-7.67-3.87-15.63-7.09-23.59-10.31c-2.01-0.81-3.95-1.81-6.66-3.06
		c8.67-1.03,16.55-1.83,24.38-2.92c7.35-1.03,14.67-2.29,21.97-3.63c2.18-0.4,4.15-0.87,5.72,1.57c0.5-1.88-0.63-2.78-1.16-3.84
		c-7.54-15.16-9.29-30.78-3.25-46.81c3.04-8.07,8.17-14.77,15.09-20.01c0.58-1.07,2.34-1.11,2.32-2.69
		c-2.32,0.67-3.71-0.35-5.08-2.23c-9.37-12.81-12.55-27.33-11.34-42.81c1.2-15.35,4.71-30.25,10.85-44.45
		c1.12-2.6,1.91-5.43,4.83-6.91c-1.82-0.33-3.12,0.71-4.51,1.32c-17.68,7.8-35.8,14.11-54.97,17.27
		c-7.44,1.23-13.71-0.26-19.51-4.89c-14.11-11.25-23.98-25.37-29.22-42.68l0,0c-2.57-6.25-3.91-12.82-5.02-19.45
		c-0.13-0.76-0.58-1.6,0.25-2.24c1.01-0.77,1.69,0.07,2.47,0.52c8.12,4.74,18.34,4.2,25.54-1.23c3.39-2.56,5.27-6.08,6.79-9.88
		c0.16-3.11,1.37-6.24-0.28-9.97c-0.41,2.78-0.62,4.93-1.05,7.02c-2.21,10.84-9.97,16.33-21.66,15.4
		c-9.56-0.75-16.86-8.59-17.44-18.56c-0.28-4.83,0.89-9.18,3.69-13.11c-0.33-0.33-0.66-0.67-0.99-1
		c-6.19,7.17-6.07,19.35,0.52,26.91c1.79,2.06,1.48,2.63-0.9,3.22c-7.25,1.8-14.17,1.72-19.79-4.01
		c-5.44-5.54-6.02-12.29-4.07-19.46c1.63-5.97,5.02-10.65,10.29-13.96c0.78-0.49,2.07-0.59,2.07-1.99
		c-12.23,2.52-17.69,18-12.1,34.15c-10.7,2.25-20-4.96-20.49-16c-0.37-8.29,2.94-15.3,8.63-20.98c9.56-9.56,20.91-15.25,34.87-14.51
		c6.03,0.32,12.07,0.33,18.06,1.2c1.68,0.24,2.93,0.71,3.6,2.64c5.01,14.39,14,26.1,25.02,36.36c2.01,1.87,2.93,3.84,3.19,6.57
		c1.28,13.61,6.39,25.77,14.15,36.96c3.75,5.41,8.27,7.13,14.66,5.46c9.76-2.54,18.9-6.42,27.41-11.75
		c2.51-1.57,4.71-2.19,7.27-0.51c12.93,3.36,25.99,6.04,39.37,6.54c31.15,1.17,61.97-0.22,91.18-12.86
		c0.89-0.39,1.84-1.21,2.83-0.12c8.36,5.07,16.95,9.61,26.44,12.28c6.5,1.83,7.61,1.52,11.82-3.92
		c11.36-14.67,16.81-31.66,19.36-49.74c0.45-3.17,1.36-5.94,3.19-8.63c3.06-4.51,5.7-9.3,8.49-13.99c0.65-1.09,1.18-2.18,2.31-2.96
		c17.81-12.28,49.09-10.85,65.53,3.12c7.71,6.55,11.16,14.97,10.38,25.05c-0.92,11.86-7.91,17.7-20.3,16.62
		c9.18-8,8.57-17.56,4.5-27.33c-2.12-5.1-6.58-8.04-12.04-9.46c6.88,3.99,11.9,9.18,12.65,17.53c0.41,4.58,0.59,9.06-1.98,13.16
		c-4.18,6.68-15.37,10.16-23.6,7.34c12.03-13.56,5-31.87-7.27-33.28c0.51,1.37,1.79,1.39,2.68,1.85
		c7.35,3.85,10.29,10.99,8.41,20.56c-1.54,7.87-6.34,11.99-14.79,12.7c-11.38,0.96-20.18-4.84-23.88-15.68
		c-0.31-0.9-0.06-2.19-1.43-2.6c-0.79,1.68,0.51,3.13,0.44,4.71c5.98,13.18,17.26,18.25,31.22,14.04c0.63-0.19,1.31-0.83,1.93-0.33
		c0.81,0.64,0.26,1.52,0.03,2.26c-1.97,6.42-3.77,12.91-6.64,19.01c-6.51,14.46-14.19,28.12-25.35,39.66
		c-12.44,12.86-27.31,15.42-43.82,10.72c-13.86-3.94-25.53-12.02-36.65-20.92c-3.29-2.63-6.52-5.32-10.04-7.7
		c1.03,2.27,2.76,3.94,4.64,5.32c2.74,2.02,4.41,4.62,5.58,7.74c8.93,23.76,11.79,48.15,7.23,73.19
		c-1.42,7.82-4.77,15.01-10.46,20.86c0,0,0,0,0,0s0,0,0,0c-1.72,2.24,0.26,3.03,1.6,4.08C428.09,535.28,435.11,546.36,435.66,561.5z
		 M570.07,484.87c-23.68,18.61-50.41,30.22-79.75,36.3c-14.35,2.98-28.75,5.3-43.42,5.72c-0.52,0.19-0.9,0.2-1.17,0.09
		c-9.54,0.77-19.07,1.01-28.6-0.24c-2.2-0.29-2.79-1.1-1.16-3.09c4.48-5.46,7.33-11.77,9.11-18.57c0.37-1.41,0.85-2.13,2.54-2.09
		c6.83,0.15,13.66,0.11,20.49,0.14c14.86-1.18,29.5-3.44,43.62-8.44c22.62-8.02,42.48-20.22,58.28-38.53
		c1.33-1.54,2.73-1.87,4.56-1.74c10.11,0.7,18.13,8.27,20.1,18.18C575.73,477.96,574.59,481.32,570.07,484.87z M628.21,409.18
		c-11.51,26.36-27.59,49.35-49.44,68.19c-0.34,0.29-0.71,0.55-1.63,1.26c-0.76-15.27-8.23-24.23-23.76-26.16
		c16.05-20.79,26.35-43.7,28.01-70.01c-0.43-7.37,0.56-14.8-0.91-22.11c-0.39-1.94,1.05-1.95,2-2c7.7-0.42,14.13-3.94,20.36-8.03
		c7.16-6.07,12.14-13.37,12.95-23c0.16-1.85,0.47-3.75,0.19-5.54c-0.49-3.18,0.88-2.76,2.93-1.94c5.82,2.32,11.6,4.72,17.31,7.32
		c2.33,1.06,3.34,2.51,3.48,4.96C641.2,358.61,638.98,384.5,628.21,409.18z"/>
	<path class="st1" d="M195.55,321.66c3.08,0.33,4.91,1.39,5.98,4.62c2.57,7.77,6.73,14.76,11.72,21.26
		c17.3,22.53,40.43,36.63,66.72,46.07c37.04,13.29,75.02,13.87,113.07,6.28c32.1-6.4,60.27-20.94,81.88-46.29
		c12.88-15.11,23.57-31.48,25.3-52.07c0.2-2.41,1.65-2.09,3.11-2.12c29.99-0.54,59.63,2.12,88.7,9.86
		c11.99,3.19,23.62,7.46,35.19,11.91c0.24-0.24,0.49-0.47,0.73-0.71c-13.65-7.73-27.65-14.8-42.91-18.64
		c-26.52-6.68-53.33-11.67-80.85-11.34c-2.87,0.03-3.79-0.74-3.72-3.68c0.21-8.66-0.97-17.15-4.04-25.3
		c-0.32-0.87-0.16-2.24-1.65-2.28c-0.53-0.01-1.21,0.44-1.39-0.45c-0.17-0.88,0.63-1.16,1.18-1.51c4.45-2.8,9.3-4.76,14.21-6.54
		c28.29-10.27,57.52-15.65,87.57-16.78c11.95-0.45,23.89-0.75,35.86-0.11c-4-1.64-8.24-2.08-12.44-2.64
		c-20.73-2.79-41.52-2.26-62.26-0.54c-22.58,1.87-45.14,4.26-66.03,14.17c-1.58,0.75-2.19,0.18-2.91-1.2
		c-11.8-22.46-29.69-39.02-50.93-52.27c-12.91-8.05-26.84-13.72-41.49-17.75c-3.03-0.83-3.81-0.11-3.83,2.93
		c-0.03,5.1-0.47,10.21-0.79,15.31c-0.05,0.8,0.38,1.96-1.3,2.27c0.52-35.22,4.8-69.93,11.31-104.41c-0.39-0.66,0.34-1.74-0.79-2.13
		c-12.64,33.58-20.42,68-18.25,104.18c0.05,0.77,0.5,1.93-1.06,2.09c-0.7-1.9-0.7-3.89-0.73-5.83c-0.08-4.99-0.25-10,0.03-14.97
		c0.15-2.66-1.26-2.67-3.07-2.92c-2.43-0.34-1.94,1.34-1.97,2.64c-0.14,5.11-0.18,10.22-0.37,15.32
		c-0.37,9.97-0.21,19.99-1.77,29.88c-1.58,10.03-6.46,15.26-15.76,17.05c-5.28,1.01-10.62,1.17-15.93,0.19
		c-11.67-2.15-18.56-9.87-19.4-21.63c-0.83-11.74-0.2-23.44,0.69-35.14c0.63-8.33,0.27-8.64-8.14-6.52c0,5.5,0,10.99,0,16.49
		c-0.48,0.01-0.97,0.03-1.45,0.04c0-1.93-0.02-3.86,0-5.79c0.02-1.97,0.07-3.94,0.11-5.91c-0.04-0.46-0.11-0.92-0.11-1.39
		c-0.26-31.07-8.25-60.12-22.87-87.44c-0.57-1.07-0.84-2.38-2.41-3.29c9.62,34.32,18.5,68.42,17.19,104.82
		c-0.68-0.74-0.93-0.89-0.94-1.04c-0.19-3.48-0.63-6.97-0.44-10.43c0.2-3.61-1.2-3.59-4.03-2.76
		c-19.59,5.76-37.61,14.78-54.25,26.46c-19.91,13.98-36.45,30.95-45.57,54.12c-0.74,1.88-1.47,3.53,0.6,5.33
		c-39.05-10.12-78.06-10.1-117.2-2.68c1.15,0.36,2.31,0.26,3.47,0.23c23.94-0.66,47.87-1.11,71.51,3.84
		c12.17,2.55,24.36,5,35.78,10.14c0.72,0.32,1.81,0.75,1.93,1.3c0.29,1.38-0.97,0.71-1.63,0.92c-1.03,0.32-0.73,1.32-0.78,2.07
		c-0.64,9.99-1.02,19.98,1.01,29.86c0.55,2.67-0.1,3.42-2.81,3.48c-15,0.35-29.9,1.88-44.67,4.56c-19.74,3.58-38.63,9.79-56.8,18.27
		c0.44,0.2,0.87,0.39,1.3,0.59c20.89-6.4,41.9-12.11,63.94-12.89C169.12,320.35,182.34,320.25,195.55,321.66z M377.81,278.04
		c2.41-8.71,3.71-17.73,7.62-26c3.76-7.95,8.39-15.24,15.2-20.96c14.79-12.43,36.95-11.9,51.18,1.63
		c13.97,13.3,19.89,29.85,18.63,49.04c-0.13,1.93-0.84,3.6-1.79,5.21c-10.14,17.16-25.77,24.23-52.44,24.76
		c-10.13,0.55-22.01-8.59-31.45-22.06c-2.12-3.03-3.63-6.5-6.41-9.07C377.57,279.85,377.55,279,377.81,278.04z M331.31,334.84
		c23.19-1.03,46.15,1.5,69.12,4.04c10.85,1.2,21.68,2.52,32.53,3.67c3.34,0.35,6.7,0.26,10.07-0.28c4.17-0.68,7.16-2.55,8.25-6.84
		c1-3.93-1.01-6.39-4.02-8.5c3.62,0.5,5.46,2.69,5.83,6.13c0.44,4.14-1.92,8.23-5.8,9.81c-3.83,1.56-7.89,1.83-11.98,1.61
		c-2.2-0.12-4.42-0.21-6.59-0.58c-1.63-0.28-2.55,0.15-3.38,1.57c-1.35,2.3-2.99,4.4-4.76,6.42c-1.75,2-3.09,2.23-5.08,0.21
		c-2.63-2.67-5-5.51-6.96-8.67c-0.89-1.43-1.98-1.97-3.62-2.21c-35.92-5.13-71.92-6.19-108.04-2.51c-1.98,0.2-3.12,0.96-4.09,2.61
		c-1.59,2.69-3.41,5.24-5.54,7.57c-1.64,1.8-2.84,1.57-4.15-0.22c-1.58-2.15-3.33-4.19-4.75-6.44c-1.02-1.62-2.16-2.01-4.01-1.87
		c-5.09,0.41-10.19,0.88-15.3,0.32c-3.59-0.39-6.72-1.7-9.08-4.57c-4.07-4.96-3.03-9.95,2.76-13.11c0.48,0.48,0.12,0.82-0.19,1.16
		c-5.19,5.71-3.08,12.51,4.46,14.37c4.13,1.02,8.31,0.72,12.48,0.47C290.08,337.75,310.65,335.76,331.31,334.84z M225.29,270.64
		c3.36-14.56,10.09-27.37,19.86-38.59c20.17-23.16,44.03-12.19,55.83,5.28c6.64,9.82,9.38,21,12.07,32.38
		c1.58,6.69,0.31,11.92-2.88,17.6c-8.17,14.59-19.91,22.94-33.06,22.78c-24.19-0.1-38.49-10.52-49.79-26.17
		C224.38,279.85,224.19,275.4,225.29,270.64z"/>
	<path class="st1" d="M295.55,526.76L295.55,526.76L295.55,526.76c10.66,6.55,22.48,9.4,34.69,11.25
		c10.95,1.66,21.97,1.79,32.92,1.16c14.47-0.84,28.61-3.77,41.78-10.28c2.9-1.44,5.2-3.87,8.31-4.92c0,0,0,0,0,0
		c5.69-5.85,9.04-13.04,10.46-20.86c4.56-25.03,1.69-49.43-7.23-73.19c-1.17-3.11-2.84-5.72-5.58-7.74
		c-1.88-1.38-3.61-3.05-4.64-5.32c3.52,2.38,6.76,5.07,10.04,7.7c11.12,8.9,22.78,16.97,36.65,20.92
		c16.5,4.7,31.38,2.14,43.82-10.72c11.15-11.54,18.84-25.21,25.35-39.66c-1.69-1.23-3.49-0.02-5.26-0.18
		c-8.73-0.82-13.58-6.36-17.64-13.32c-3.93-6.76-3.89-14.07-3.64-21.47c0.06-1.57-1.23-3.03-0.44-4.71c1.38,0.41,1.12,1.7,1.43,2.6
		c3.7,10.84,12.5,16.64,23.88,15.68c8.45-0.71,13.25-4.83,14.79-12.7c1.88-9.57-1.07-16.71-8.41-20.56
		c-0.88-0.46-2.16-0.49-2.68-1.85c12.27,1.41,19.3,19.72,7.27,33.28c8.22,2.83,19.41-0.66,23.6-7.34c2.57-4.11,2.39-8.59,1.98-13.16
		c-0.75-8.34-5.77-13.54-12.65-17.53c5.46,1.41,9.92,4.35,12.04,9.46c4.06,9.77,4.68,19.33-4.5,27.33
		c12.39,1.08,19.38-4.75,20.3-16.62c0.78-10.08-2.67-18.51-10.38-25.05c-16.44-13.96-47.72-15.39-65.53-3.12
		c-1.14,0.78-1.66,1.87-2.31,2.96c-2.78,4.69-5.43,9.49-8.49,13.99c-1.83,2.69-2.75,5.46-3.19,8.63c-2.55,18.08-8,35.06-19.36,49.74
		c-4.21,5.43-5.33,5.75-11.82,3.92c-9.48-2.67-18.08-7.21-26.44-12.28c-5.41,5.29-11.27,9.87-18.24,13.06
		c-10.81,4.94-22.04,8.06-33.86,9.5c-10.46,1.28-20.94,2.6-31.44,1.89c-17.43-1.17-33.99-5.37-48.22-16.24
		c-0.63-0.48-1.09-1.18-1.62-1.77c-2.56-1.68-4.77-1.05-7.27,0.51c-8.51,5.32-17.65,9.2-27.41,11.75
		c-6.4,1.67-10.92-0.05-14.66-5.46c-7.76-11.2-12.87-23.35-14.15-36.96c-0.26-2.73-1.18-4.69-3.19-6.57
		c-11.02-10.25-20.01-21.97-25.02-36.36c-0.67-1.93-1.93-2.39-3.6-2.64c-5.99-0.88-12.03-0.89-18.06-1.2
		c-13.96-0.73-25.31,4.95-34.87,14.51c-5.68,5.68-9,12.69-8.63,20.98c0.49,11.03,9.79,18.24,20.49,16
		c-5.59-16.15-0.12-31.63,12.1-34.15c0,1.39-1.29,1.5-2.07,1.99c-5.27,3.31-8.66,7.99-10.29,13.96c-1.95,7.17-1.37,13.92,4.07,19.46
		c5.62,5.72,12.54,5.81,19.79,4.01c2.38-0.59,2.69-1.17,0.9-3.22c-6.6-7.57-6.71-19.74-0.52-26.91c2.16-2.97,5.15-4.39,8.88-4.49
		c-2.87,1.53-5.61,3.19-7.89,5.49c-2.8,3.93-3.96,8.28-3.69,13.11c0.58,9.97,7.88,17.81,17.44,18.56
		c11.7,0.92,19.45-4.57,21.66-15.4c0.43-2.1,0.64-4.24,1.05-7.02c1.66,3.73,0.44,6.87,0.28,9.97c1.33,15.54-10.56,29.46-25.88,30.87
		c-1.39,0.13-3.02,0.2-4.15,1.4c5.24,17.3,15.11,31.42,29.22,42.68c5.81,4.63,12.08,6.12,19.51,4.89
		c19.17-3.16,37.29-9.47,54.97-17.27c1.39-0.61,2.69-1.65,4.51-1.32c-2.92,1.47-3.71,4.31-4.83,6.91
		c-6.13,14.2-9.64,29.1-10.85,44.45c-1.22,15.49,1.97,30,11.34,42.81C291.84,526.41,293.23,527.43,295.55,526.76L295.55,526.76
		L295.55,526.76z"/>
	<path class="st2" d="M636.23,327.16c-5.71-2.6-11.49-5.01-17.31-7.32c-2.05-0.82-3.42-1.23-2.93,1.94c0.28,1.8-0.04,3.7-0.19,5.54
		c-0.81,9.63-5.8,16.93-12.95,23c-2.45,9.03-8.46,15.07-16.75,18.68c-3.23,1.41-4.48,2.88-4.21,6.31c0.18,2.35,0.64,4.84-0.5,7.15
		l0,0c-1.66,26.31-11.96,49.22-28.01,70.01c15.53,1.93,23,10.88,23.76,26.16c0.93-0.71,1.29-0.97,1.63-1.26
		c21.85-18.84,37.93-41.83,49.44-68.19c10.77-24.68,13-50.57,11.49-77.06C639.56,329.66,638.55,328.22,636.23,327.16z"/>
	<path class="st3" d="M393.07,168.72c0.01,0.91-0.09,1.8,0.81,2.51c2.49,1.94,7.97,1.77,9.84-0.62
		c5.56-7.09,12.42-12.76,19.59-18.07c9.04-6.7,18.4-12.89,29.27-16.32c4.32-1.36,7.15-0.18,9.24,3.82c1.29,2.46,2.36,4.99,3.12,7.7
		c3.12,11.12,3.57,22.58,3.96,33.96c0.29,8.5-0.58,17.06-1.85,25.53c-0.4,2.67-0.05,5.01,2.22,7.22
		c7.26,7.03,13.29,15.09,18.34,23.86c0.52,0.9,0.89,2.22,2.02,2.15c1.29-0.09,1.16-1.62,1.41-2.53c3.88-13.75,5.56-27.81,5.93-40.78
		c-0.09-4.74-0.42-8.21-0.59-11.65c-0.59-12.23-1.64-24.4-3.62-36.49c-2.06-12.59-5.1-24.9-10.55-36.5
		c-4.23-8.99-7.78-10.59-17.37-8.34c-11.7,2.75-21.86,8.78-31.92,14.98c-11.55,7.11-22.21,15.43-32.47,24.26
		c-2.23,1.92-5.33,3.62-5.83,6.68C393.6,156.24,392.98,162.47,393.07,168.72z"/>
	<path class="st1" d="M302.43,581.09c-0.71-11.15,1.37-21.62,7.58-31.08c0.63-0.96,1.38-1.85,2.06-2.78
		c2.84-3.93,2.86-3.99-1.51-5.89c-6.55-2.85-12.04-7.22-17.33-11.89c-6.92,5.24-12.05,11.94-15.09,20.01
		c-6.04,16.03-4.29,31.64,3.25,46.81c0.53,1.06,1.65,1.97,1.16,3.84c-1.57-2.45-3.54-1.98-5.72-1.57c-7.3,1.34-14.62,2.6-21.97,3.63
		c-7.83,1.1-15.71,1.9-24.38,2.92c2.71,1.25,4.65,2.25,6.66,3.06c7.96,3.22,15.92,6.44,23.59,10.31c9.52,4.81,11.22,9,8.13,18.99
		c2.03,1.76,4.71,1.23,6.92,1.36c9.08,0.51,18.13,2.16,27.24,1.52c7.42-0.52,14.94-0.75,22.05-3.5c6.41-2.47,10.11-6.65,9.5-13.86v0
		c-0.3-2.23-1.39-4.14-2.58-5.96c-4.23-6.46-10.13-11.21-16.36-15.59C307.05,597.33,303.01,590.33,302.43,581.09z"/>
	<path class="st3" d="M216.59,225.34c0.86-1.01,1-2.14,0.64-3.26c-1.77-5.43-2.3-11.02-2.73-16.68c-0.95-12.49-1.4-24.97,0.84-37.35
		c1.33-7.38,2.61-14.86,6.97-21.25c1.93-2.83,4.74-4.1,8.16-3.14c20.47,5.73,37.11,17.44,51.01,33.23c1.51,1.71,2.67,2.17,4.69,1.31
		c4.26-1.82,8.66-3.25,13.14-4.43c5.51-1.45,5.51-1.6,2.01-6.23c-0.7-0.92-1.38-1.86-2.17-2.7c-14.51-15.43-30.46-29.08-48.83-39.76
		c-8.02-4.66-16.05-9.17-25.42-10.77c-6.7-1.15-11.26,0.36-15.1,5.9c-0.85,1.23-1.6,2.55-2.28,3.89
		c-8.72,17.2-13.05,35.63-13.65,54.72c-0.5,16.06-1.3,32.22,1.22,48.24c1.23,7.82,2.69,15.6,5.4,24.2
		C204.96,241.17,210.14,232.85,216.59,225.34z"/>
	<path class="st2" d="M541.94,637.73c0.07-0.29,0.14-0.58,0.19-0.89C542.03,637.16,541.97,637.46,541.94,637.73z"/>
	<path class="st2" d="M440.69,625.91c-5,5.19-4.68,10.09,0.53,15.15c14.09,0.46,28.14,1.55,42.25,1.6
		c16.96,0.06,33.88,0.07,50.72-2.26c1.81-0.25,3.58-0.86,5.36-1.3v0v0c0.91-2.29,1.26-4.68,0.9-7.11
		c-0.99-6.69-5.15-10.12-12.63-10.28c-8.24-0.17-16.47-0.14-24.71-0.28c-1.44-0.02-3.02,0.05-4.54-1.2c10.94,0,21.47-0.09,32,0.04
		c5.57,0.07,8.87,3.42,10.86,8.35c1.08,2.69,0.86,5.46,0.7,8.24c-0.01,1.83,1.04,2.17,2.66,2.19c5.05,0.08,10-0.4,14.76-2.19
		c3.9-9.94-0.57-18.62-10.89-21.07c-4.66-1.11-9.44-1.05-14.19-1.21c-6.08-0.2-12.15-0.5-18.22-0.76
		c6.03-0.76,12.04-0.82,18.05-0.73c4.06,0.06,8.17-0.06,12.15,0.57c11.46,1.82,16.91,8.38,16.04,18.83
		c-0.12,1.49-0.49,2.97-0.74,4.45c4.25,0.49,8.42-0.73,12.65-0.6l0,0c0,0,0,0,0,0c6.12-4.68,6.92-11.26,6.07-18.15
		c-0.75-6.09-4.54-9.96-10.28-12c-3.88-1.38-7.87-1.85-11.96-1.94c-24.29-0.52-48.43,2.6-72.67,3.08
		c-8.35,0.17-16.46,0.45-24.14,4.78C454.14,616.19,446.57,619.81,440.69,625.91z"/>
	<path class="st1" d="M407.68,534.35c-3.72,2.31-7.1,5.21-11.14,7.01c-2.2,0.98-2.07,1.77-0.55,3.43
		c4.14,4.49,9.16,8.44,11.41,14.28c4.47,11.63,4.68,23.22-1.7,34.37c-1.21,2.11-2.95,3.84-5.09,5.09c-2.63,3.08-5.84,5.17-9.86,6.04
		c-1.91,0.41-3.74,1.15-5.4,2.25c-2.09,3.12-5.23,5.43-6.28,9.37c-1.34,5.05,0.1,8.99,4.54,11.83c7.93,5.08,16.78,7.66,25.88,9.29
		c9.39,1.68,18.84,3.2,28.44,3.04c-1.98-2.89-3.09-6.01-2.1-9.52c1.02-3.6,3.31-6.37,6.17-8.66c5.92-4.74,12.29-8.76,19.28-11.76
		c1.54-0.66,3.05-1.41,4.57-2.11c-0.55-0.62-0.95-0.69-1.36-0.69c-12.92-0.08-25.74-1.32-38.48-3.45c-3.22-0.54-3.56-1.05-1.68-3.61
		c8.55-11.64,11.84-24.77,11.32-39.04c-0.55-15.15-7.57-26.23-20.81-33.46C411.66,529.2,410.49,532.61,407.68,534.35z"/>
	<path class="st1" d="M554.56,454.43c-1.83-0.13-3.23,0.2-4.56,1.74c-15.79,18.31-35.66,30.52-58.28,38.53
		c-14.12,5-28.76,7.26-43.62,8.44c-3.81,1.31-7.74,0.44-11.61,0.67c-1.86,0.11-3.74,0.03-6.52,0.02c0.01,0.04,0.02,0.07,0.03,0.11
		c4.23,2.33,7.8,4.03,10.43,7.09c3.5,4.07,5.66,8.66,5.51,14.1c-0.03,0.95-0.06,1.55,0.96,1.76c14.67-0.43,29.08-2.75,43.42-5.72
		c29.34-6.09,56.07-17.69,79.75-36.3c4.52-3.55,5.65-6.9,4.59-12.26C572.69,462.69,564.66,455.12,554.56,454.43z"/>
	<path class="st1" d="M446.9,526.9c-0.39,0.03-0.78,0.06-1.17,0.09C446,527.1,446.37,527.09,446.9,526.9z"/>
	<path class="st4" d="M198.68,639.16c0.81-0.06,1.62-0.09,2.43-0.09c21.66-0.07,43.3-1.19,64.96-0.83
		c4.63-7.65,3.66-12.11-3.78-16.89c-1.75-1.12-3.63-2.07-5.53-2.91c-9.65-4.26-19.33-8.45-29-12.69c-0.98-0.43-1.94-0.69-3.02-0.6
		c-16.24,1.23-32.44-0.11-48.66-0.71c-10.26-0.38-19.8,1.81-27.76,8.9c-5.35,4.77-6.8,12.77-3.34,19.32
		c1.54,0.36,3.14,0.59,4.62,1.12c1.86,0.66,2.19-0.38,2.34-1.79c0.03-1.96-0.38-4.05,0.15-5.87c2.21-7.53,7.46-12.1,14.96-14.01
		c9.98-2.55,20.07-0.78,30.13-0.53c-2.64,0.39-5.29,0.29-7.93,0.41c-7.05,0.31-14.16,0.05-21.09,1.7
		c-10.52,2.51-15.14,9.01-14.17,19.74c3.4,2.43,7.53,1.9,11.32,2.72c1.32,0.28,1.78-0.56,1.84-1.84c0.09-1.69-0.5-3.49,0.64-5.05
		l0,0c1.8-7.68,7.08-11.43,14.48-12.53c8.9-1.32,17.8,0.29,26.7,0.31c0.09,0,0.18,0.32,0.36,0.68c-4.41,0.61-8.76,0.43-13.11,0.38
		c-5.32-0.06-10.66-0.53-15.93,0.74c-9.12,2.21-12.88,11.1-10.33,18.09C179.35,639.95,188.99,639.82,198.68,639.16z"/>
	<path class="st4" d="M151.94,631.99c0.07,0.42,0.15,0.85,0.23,1.26C152.18,632.9,152.11,632.48,151.94,631.99z"/>
	<path class="st4" d="M614.24,321.84c-0.09-2.64-0.9-4.11-3.62-5.04c-12.21-4.17-24.64-7.53-37.26-10.14
		c-5.32-1.1-5.33-1.03-7.76,3.67c-1.15-0.76-0.84-1.65-0.65-2.37c0.53-1.99-0.39-2.76-2.21-3.03c-10.45-1.55-20.94-2.63-31.49-3.29
		c-1.77-0.11-2.63,0.58-2.78,2.26c-0.27,3-0.45,6.02-0.77,9.02c-0.22,2.09,0.53,2.79,2.68,2.86c6.54,0.22,12.96,1.5,19.01,3.94
		c13.7,5.51,23.49,14.29,24.66,30.23c0.17,2.36-2.01,5.53,0.67,6.98c2.23,1.2,5.24-0.02,7.88-0.29
		C601.22,354.74,614.87,339.65,614.24,321.84z"/>
	<path class="st4" d="M566.56,291.65c5.77-8.29,14.19-10.04,23.49-8.75c6.98,0.97,14.65,8.95,16.29,16.33
		c0.07,0.33,0,0.69-0.01,1.04v0c0,0,0,0,0,0c2.54,3.01,5.37,5.81,6.76,9.63c0.29,0.8,0.9,1.33,1.67,1.69
		c7.91,3.62,15.49,7.87,23.38,12.53c-1.39-10.97-5.08-20.68-10.65-29.55c-16.52-26.33-39.87-35-70.91-24.88
		c-10.15,3.31-17.32,10.85-22.65,20.47c9.51,1.58,18.63,3.09,27.75,4.6C564.12,294.96,565.3,293.47,566.56,291.65z"/>
	<path class="st4" d="M562.84,294.98c-0.38-0.08-0.76-0.15-1.14-0.23C562.1,294.88,562.48,294.95,562.84,294.98z"/>
	<path class="st5" d="M261.81,179.62c-6.98-5-14.59-8.89-22.95-11.09c-2.77-0.73-5.64-1.22-8.49-1.43
		c-5.47-0.39-9.31,2.8-12.33,9.31c-1.55,3.35-2.22,6.72-2.08,10.39c0.15,4.16-0.04,8.33-0.08,12.5c0.1,7.7,0.79,15.31,3.22,22.78
		c0.61-0.3,0.86-0.35,1.01-0.5c14.06-14.98,30.68-26.45,48.86-35.8C267.79,182.33,264.32,181.42,261.81,179.62z"/>
	<path class="st5" d="M466.15,167.04c-3.26-8.93-15.53-13.75-25.38-8.09c-8.23,4.73-15.92,10.26-21.74,17.99
		c-0.51,0.67-0.91,1.33-0.99,2.16c17.08,7.59,32.48,17.75,46.38,30.22c0.1,0.09,0.4-0.06,0.84-0.13
		C466.83,195.2,467.92,181.16,466.15,167.04z"/>
	<path class="st6" d="M408.19,563.81c-1.5-6.86-6.54-11.32-10.75-16.36c-0.52-0.62-1.15-1.15-1.69-1.75
		c-2.39-2.67-2.25-3.53,0.79-5.28c5.64-3.23,11.23-6.53,15.53-11.56c0.74-0.86,1.63-1.28,2.78-0.82c-1.34-1.04-3.32-1.84-1.6-4.08
		c0,0,0,0,0,0c-4.03,4.2-9.09,6.74-14.42,8.75c-19.71,7.4-40.13,8.68-60.93,7.1c-12.25-0.93-24.06-3.48-35.38-8.22
		c-2.63-1.1-5.51-1.99-6.97-4.84c0,0,0,0,0,0l0,0c0.01,1.58-1.75,1.62-2.32,2.69c1.21-0.35,1.98,0.43,2.74,1.12
		c4.69,4.21,9.87,7.65,15.61,10.29c3.87,1.78,4.21,2.97,1.59,6.28c-8.13,10.32-10.71,22.18-9.75,34.97
		c0.46,6.11,2.97,11.37,7.68,15.47c1.48,1.29,2.99,2.56,4.5,3.83c-0.27-0.37-0.49-0.8-0.83-1.09c-8.29-7.04-10.17-16.29-8.96-26.49
		c1.24-10.53,6.25-19.33,13.1-27.19c1.43-1.64,3.23-3.04,0.39-5.49c12.32,5.94,25.2,5.68,38.03,5.83
		c12.93,0.14,25.36-2.19,37.79-7.95c-1.08,2.12-2.45,2.36-3.53,2.93c-4.43,2.32-4.45,2.29-0.78,5.92
		c14.32,14.16,17.99,33.16,9.81,50.66C410.08,588.48,410.98,576.57,408.19,563.81z"/>
	<path class="st6" d="M363.16,539.17c-10.95,0.63-21.97,0.49-32.92-1.16c-12.21-1.85-24.03-4.7-34.69-11.25
		c1.46,2.85,4.34,3.74,6.97,4.84c11.32,4.74,23.13,7.29,35.38,8.22c20.8,1.57,41.22,0.3,60.93-7.1c5.33-2,10.4-4.54,14.42-8.75
		c-3.11,1.06-5.4,3.49-8.31,4.92C391.76,535.4,377.63,538.33,363.16,539.17z"/>
	<polygon class="st6" points="295.55,526.76 295.55,526.76 295.55,526.76 	"/>
	<path class="st6" d="M303.42,582.12c-0.96-12.79,1.62-24.65,9.75-34.97c2.61-3.32,2.27-4.5-1.59-6.28
		c-5.74-2.64-10.92-6.09-15.61-10.29c-0.77-0.69-1.53-1.47-2.74-1.12c5.29,4.67,10.77,9.04,17.33,11.89
		c4.38,1.9,4.36,1.96,1.51,5.89c-0.67,0.93-1.43,1.82-2.06,2.78c-6.21,9.46-8.28,19.93-7.58,31.08c0.58,9.23,4.63,16.24,13.18,20.32
		c-1.51-1.26-3.02-2.53-4.5-3.83C306.4,593.48,303.88,588.23,303.42,582.12z"/>
	<path class="st6" d="M405.7,593.45c6.39-11.15,6.18-22.74,1.7-34.37c-2.25-5.85-7.27-9.79-11.41-14.28
		c-1.52-1.66-1.65-2.44,0.55-3.43c4.03-1.8,7.41-4.7,11.14-7.01c2.81-1.74,3.98-5.15,7.17-6.31c-1.14-0.46-2.04-0.04-2.78,0.82
		c-4.3,5.04-9.89,8.33-15.53,11.56c-3.05,1.75-3.19,2.61-0.79,5.28c0.54,0.6,1.17,1.13,1.69,1.75c4.21,5.04,9.25,9.5,10.75,16.36
		c2.79,12.76,1.88,24.67-7.58,34.73C402.76,597.29,404.5,595.56,405.7,593.45z"/>
	<path class="st7" d="M258.61,158.84c-8.25-5.69-17.04-10.4-26.78-13.06c-4.97-1.36-7.13-0.31-9.37,4.09
		c-2.46,4.8-3.74,9.98-4.81,15.22c-2.32,11.32-3.08,22.71-1.78,34.22c-0.5-6.02-0.61-12.1-0.06-18.07
		c0.49-5.29,3.35-9.85,7.57-13.29c2.42-1.97,5.36-1.96,8.31-1.7c7.78,0.69,14.89,3.54,21.71,7.09c4.73,2.46,9.26,5.34,13.46,8.66
		c1.18,0.93,3.05,1.63,2.09,3.79c3.36-1.55,6.66-3.29,10.11-4.6c2.75-1.04,2.19-2.01,0.69-3.79
		C273.64,170.12,266.37,164.19,258.61,158.84z"/>
	<path class="st7" d="M266.87,181.98c-4.21-3.31-8.73-6.2-13.46-8.66c-6.82-3.54-13.93-6.39-21.71-7.09
		c-2.95-0.26-5.89-0.27-8.31,1.7c-4.22,3.43-7.08,8-7.57,13.29c-0.55,5.97-0.44,12.05,0.06,18.07c0.04-4.17,0.23-8.34,0.08-12.5
		c-0.13-3.67,0.53-7.03,2.08-10.39c3.02-6.51,6.86-9.7,12.33-9.31c2.85,0.2,5.72,0.7,8.49,1.43c8.35,2.2,15.97,6.1,22.95,11.09
		c2.52,1.8,5.98,2.71,7.14,6.15C269.91,183.6,268.05,182.91,266.87,181.98z"/>
	<path class="st8" d="M357,415.92c8.33-0.73,16.65-1.42,24.86-3.02c11.15-2.18,21.68-6.05,31.43-11.94
		c2.61-1.58,4.91-3.49,7.06-5.62c1.2-1.19,2.28-2.7,4.3-2.56c-0.99-1.09-1.94-0.26-2.83,0.12c-29.22,12.64-60.03,14.03-91.18,12.86
		c-13.38-0.5-26.44-3.18-39.37-6.54c9.09,6.17,18.72,11.12,29.47,13.82C332.69,416.04,344.71,417.01,357,415.92z"/>
	<path class="st8" d="M292.9,400.99c14.23,10.86,30.79,15.07,48.22,16.24c10.5,0.71,20.98-0.62,31.44-1.89
		c11.82-1.44,23.05-4.56,33.86-9.5c6.97-3.18,12.83-7.77,18.24-13.06c-2.02-0.14-3.1,1.38-4.3,2.56c-2.15,2.14-4.45,4.05-7.06,5.62
		c-9.76,5.89-20.29,9.77-31.43,11.94c-8.21,1.6-16.53,2.29-24.86,3.02c-12.29,1.09-24.3,0.12-36.25-2.89
		c-10.75-2.7-20.38-7.65-29.47-13.82C291.81,399.81,292.27,400.51,292.9,400.99z"/>
	<path class="st7" d="M418.76,175.95c6.71-8.37,14.93-14.86,24.79-19.06c6.26-2.66,12.26-1.19,17.77,2.56
		c2.69,1.83,4.63,4.16,4.84,7.58c-0.29-7.93-1.62-15.68-4.33-23.13c-2.3-6.34-4.89-7.45-11.22-5.28c-0.55,0.19-1.1,0.37-1.63,0.61
		c-17.12,7.82-31.87,18.83-44.45,32.82c-1.35,1.5-0.86,2,0.74,2.54c4.28,1.45,8.52,3,12.77,4.5
		C417.32,177.83,418.04,176.85,418.76,175.95z"/>
	<path class="st7" d="M440.77,158.95c9.85-5.66,22.12-0.84,25.38,8.09c-0.2-3.42-2.14-5.75-4.84-7.58
		c-5.51-3.75-11.51-5.23-17.77-2.56c-9.85,4.19-18.08,10.69-24.79,19.06c-0.72,0.9-1.44,1.88-0.72,3.15
		c0.08-0.84,0.49-1.49,0.99-2.16C424.85,169.21,432.54,163.68,440.77,158.95z"/>
	<path class="st8" d="M433.68,641.34c-14.35-1.32-28.69-2.66-42.23-8.19c-2.7-1.1-5.26-2.45-7.73-4
		c-7.51-4.72-8.34-13.33-1.86-19.45c1.1-1.04,2.41-1.82,3.49-2.87c-6.21,2.48-10.21,7.19-12.37,13.27c-2,5.62-0.31,10.09,4.49,13.78
		c3.33,2.56,7.01,4.5,11,5.83c6.95,2.3,14.07,3.89,21.24,5.24c11.7,2.2,23.55,2.81,35.8,2.81c-2.53-2.47-5.05-4.93-7.58-7.4
		C436.74,641.65,435.13,641.47,433.68,641.34z"/>
	<path class="st8" d="M383.62,628.03c-4.44-2.84-5.88-6.79-4.54-11.83c1.05-3.93,4.19-6.25,6.28-9.37
		c-1.09,1.05-2.39,1.83-3.49,2.87c-6.48,6.12-5.65,14.74,1.86,19.45c2.47,1.55,5.02,2.89,7.73,4c13.54,5.52,27.89,6.86,42.23,8.19
		c1.45,0.13,3.06,0.31,4.25-0.98c-9.6,0.16-19.05-1.36-28.44-3.04C400.4,635.69,391.55,633.11,383.62,628.03z"/>
	<path class="st9" d="M329.15,226.63c5.38,5.48,12.1,7.21,19.6,7.51c11.05,0.44,16.56-8.03,18.39-15.29c0.45-1.77,0.29-2.8-2.01-2.8
		c-12.53,0.01-25.06-0.1-37.6-0.16c-0.71,1.26-1.04,2.76-2.39,3.59c0,0,0,0,0,0C325.54,222.38,327.18,224.62,329.15,226.63z"/>
	<path class="st10" d="M262.16,639.41c-1.39,0.02-2.78,0.05-4.17,0.01c-18.76-0.49-37.52,0.41-56.26,0.92
		c-7.66,0.21-15.25-0.19-22.87-0.27c-3.28-0.03-6.5-0.5-8.91-3.14c1.45,5.62,5.88,7.76,10.87,8.99c5.81,1.43,11.78,0.77,17.66,0.56
		c19.77-0.71,39.53-1.88,59.31-2.37c4.7-0.12,7.06-1.74,8.29-5.88C264.94,639.22,263.58,639.39,262.16,639.41z"/>
	<path class="st10" d="M201.73,640.34c18.74-0.51,37.5-1.41,56.26-0.92c1.39,0.04,2.78,0.01,4.17-0.01c1.41-0.02,2.78-0.2,3.9-1.17
		c-21.66-0.36-43.3,0.76-64.96,0.83c-0.81,0-1.62,0.04-2.43,0.09c-9.69,0.66-19.33,0.79-28.74-2.22c2.41,2.64,5.63,3.1,8.91,3.14
		C186.48,640.16,194.07,640.55,201.73,640.34z"/>
	<path class="st9" d="M329.45,213.78C329.45,213.78,329.45,213.78,329.45,213.78c12.06,0.21,24.13,0.38,36.19,0.65
		c1.82,0.04,2.4-0.62,2.49-2.37c0.26-4.86,0.66-9.72,1.08-14.57c0.15-1.68-0.15-2.58-2.14-2.56c-6.73,0.08-13.45,0.02-20.18,0.01
		C341.08,201.22,335.27,207.5,329.45,213.78C329.46,213.78,329.46,213.78,329.45,213.78z"/>
	<path class="st10" d="M501.02,643.75c-10.67,0.52-21.29-0.19-31.93-0.24c-8.33-0.04-16.65-0.78-24.97-1.38
		c-1.07-0.08-2.03-0.44-2.9-1.07c3.73,4.54,7.53,8.4,14.36,8.01c4.22-0.24,8.54-0.1,12.81-0.1c14.17,0,28.33-0.43,42.48-1.04
		c7.03-0.3,14.18-0.2,20.98-2.57c3.3-1.15,6.71-2.24,7.71-6.25c-4.4,3.57-9.85,3.29-14.94,3.61
		C516.77,643.21,508.88,643.37,501.02,643.75z"/>
	<path class="st10" d="M534.2,640.39c-16.84,2.34-33.76,2.32-50.72,2.26c-14.11-0.05-28.17-1.13-42.25-1.6
		c0.86,0.63,1.83,0.99,2.9,1.07c8.31,0.61,16.64,1.35,24.97,1.38c10.64,0.05,21.26,0.76,31.93,0.24c7.85-0.38,15.75-0.54,23.6-1.04
		c5.08-0.33,10.54-0.04,14.94-3.61v0C537.78,639.53,536.01,640.14,534.2,640.39z"/>
	<path class="st8" d="M496.47,366.24c-0.36,7.69,2.62,14.19,7.08,20.2c3.91,5.27,9.26,7.4,15.64,7.51c1.05,0.02,2.6-0.9,2.92,1.14
		c2.87-6.11,4.67-12.59,6.64-19.01c0.23-0.73,0.78-1.61-0.03-2.26c-0.63-0.5-1.3,0.14-1.93,0.33c-13.95,4.22-25.23-0.85-31.22-14.04
		C496.07,362.13,496.57,364.15,496.47,366.24z"/>
	<path class="st8" d="M499.22,381.59c4.05,6.97,8.91,12.5,17.64,13.32c1.77,0.17,3.57-1.05,5.26,0.18
		c-0.31-2.04-1.87-1.12-2.92-1.14c-6.38-0.11-11.73-2.25-15.64-7.51c-4.46-6.01-7.44-12.51-7.08-20.2c0.1-2.09-0.41-4.11-0.9-6.12
		C495.33,367.52,495.29,374.83,499.22,381.59z"/>
	<path class="st11" d="M327.2,172.98c5.27-0.33,10.55-0.52,15.82-0.76c6.08-7.88,12.69-15.31,19.36-22.69v0
		c-8.13-0.36-16.26-0.22-24.39,0.07c-3.41,4.07-7.65,7.25-11.59,10.74c-0.34,3.54-0.65,7.09-1.01,10.63
		C325.23,172.38,325.53,173.08,327.2,172.98z"/>
	<path class="st8" d="M445.03,525.33c-0.26-9.1-5.06-15.14-12.9-19.15c-0.84-0.43-1.77-0.88-2.13-2.24
		c-0.07-0.04-0.13-0.07-0.2-0.11c0.06,0,0.11,0,0.17,0c-0.01-0.05-0.03-0.09-0.04-0.15c6.08-0.76,12.17,0.26,18.17-0.55
		c-6.83-0.03-13.66,0.01-20.49-0.14c-1.69-0.04-2.16,0.68-2.54,2.09c-1.78,6.8-4.63,13.11-9.11,18.57c-1.63,1.99-1.04,2.8,1.16,3.09
		c9.52,1.25,19.06,1.01,28.6,0.24C445.2,526.78,445.05,526.12,445.03,525.33z"/>
	<path class="st8" d="M429.94,503.69c0.01,0.05,0.03,0.1,0.04,0.15c2.78,0,4.65,0.09,6.52-0.02c3.87-0.23,7.8,0.64,11.61-0.67
		C442.11,503.95,436.02,502.93,429.94,503.69z"/>
	<path class="st8" d="M445.94,525.13c0.15-5.45-2.01-10.03-5.51-14.1c-2.63-3.06-6.2-4.76-10.43-7.09c0.36,1.36,1.29,1.81,2.13,2.24
		c7.83,4.01,12.63,10.04,12.9,19.15c0.02,0.79,0.17,1.45,0.7,1.66c0.39-0.03,0.78-0.06,1.17-0.09
		C445.88,526.68,445.91,526.09,445.94,525.13z"/>
	<path class="st8" d="M190.99,399.09c4.03-0.7,7.85-1.85,11.37-4.01c7.6-4.66,11.79-11.53,13.24-20.2c0.32-1.93,0.6-3.86,1.03-5.77
		c-1.52,3.8-3.4,7.32-6.79,9.88c-7.2,5.43-17.42,5.96-25.54,1.23c-0.78-0.45-1.46-1.29-2.47-0.52c-0.84,0.64-0.38,1.48-0.25,2.24
		c1.11,6.63,2.45,13.19,5.02,19.45l0,0v0C187.13,398.88,189.38,399.37,190.99,399.09z"/>
	<path class="st8" d="M216.62,369.12c-0.43,1.91-0.71,3.84-1.03,5.77c-1.44,8.67-5.64,15.54-13.24,20.2
		c-3.52,2.16-7.33,3.3-11.37,4.01c-1.61,0.28-3.85-0.21-4.39,2.29v0c1.13-1.2,2.76-1.27,4.15-1.4
		C206.06,398.58,217.96,384.66,216.62,369.12z"/>
	<path class="st10" d="M567.59,291.75c-1.29,1.8-2.54,3.41-4.75,3.23c4.19,0.85,8.13,1.62,12.8-0.15
		c10.95-4.15,21.42-1.77,30.7,5.44c-2.05-4.13-3.9-8.31-7.44-11.56C590.08,280.6,574.57,282,567.59,291.75z"/>
	<path class="st10" d="M606.35,299.23c-1.64-7.38-9.31-15.36-16.29-16.33c-9.3-1.29-17.72,0.46-23.49,8.75
		c-1.27,1.82-2.44,3.31-4.87,3.1c0.38,0.08,0.76,0.15,1.14,0.23c2.21,0.18,3.46-1.43,4.75-3.23c6.98-9.75,22.49-11.15,31.31-3.05
		c3.53,3.25,5.39,7.43,7.44,11.56v0C606.35,299.92,606.42,299.56,606.35,299.23z"/>
	<path class="st11" d="M340.63,147.46c9.05,0.23,18.09,0.25,27.13-0.12c0.85-0.04,2.1,0.33,2.15-1.07
		c0.12-3.56,0.66-7.37-1.99-10.26c-3.74-4.07-8.42-6.48-14.11-6.51C350.28,136.12,345.33,141.7,340.63,147.46L340.63,147.46z"/>
	<path class="st9" d="M361.53,151.91c-5.85,5.91-11.11,12.33-16.25,18.84c-0.59,0.75-1.3,1.3-2.26,1.46
		c6.24-0.21,12.5-0.04,18.71-0.83c2.48-2.98,5.07-5.84,8.27-8.08c0,0,0,0,0,0c0.08-2.29,0.19-4.57,0.22-6.86
		c0.1-7.61,0.09-7.61-7.84-6.91v0C362.95,150.63,362.13,151.3,361.53,151.91z"/>
	<path class="st9" d="M345.28,170.76c5.14-6.52,10.4-12.93,16.25-18.84c0.61-0.61,1.42-1.28,0.85-2.38
		c-6.67,7.38-13.28,14.8-19.36,22.69C343.98,172.06,344.69,171.51,345.28,170.76z"/>
	<path class="st12" d="M326.59,637.29c-4.31,1.83-8.87,2.71-13.47,3.28c-10.4,1.29-20.79,0.89-31.17-0.29
		c-3.45-0.39-6.95-0.28-10.37-0.98c-1.11-0.23-2.75,0.12-2.73-1.85c-1.19,2.01-2.57,3.94-3.04,5.79c14.58,0,29.05,0.05,43.52-0.03
		c5.55-0.03,11.13-0.03,16.48-1.92c8.08-2.85,11.54-10.1,8.75-18.33c0,0,0,0,0,0C335.55,630.29,333.23,634.47,326.59,637.29z"/>
	<path class="st12" d="M325.05,636.82c-7.12,2.75-14.63,2.97-22.05,3.5c-9.1,0.64-18.16-1-27.24-1.52c-2.21-0.13-4.89,0.4-6.92-1.36
		c-0.02,1.98,1.63,1.63,2.73,1.85c3.42,0.7,6.92,0.59,10.37,0.98c10.39,1.18,20.78,1.58,31.17,0.29c4.61-0.57,9.16-1.45,13.47-3.28
		c6.65-2.82,8.96-6.99,7.96-14.33C335.15,630.17,331.46,634.35,325.05,636.82z"/>
	<path class="st9" d="M327.15,192.62c4.28,0.03,8.57,0.07,12.85,0.1c0,0,0,0,0,0c6.45-6.39,12.9-12.79,19.35-19.18c0,0,0,0,0,0
		c-6.13,0.25-12.26,0.5-18.38,0.76C336.8,180.73,331.75,186.51,327.15,192.62L327.15,192.62z"/>
	<path class="st9" d="M330.57,147.65c3.35-0.16,6.7-0.13,10.06-0.19l0,0c-0.08-0.35-0.11-0.74,0.1-1
		c4.46-5.57,8.3-11.63,13.08-16.95c-2.54-0.41-5.09-0.22-7.61,0.06c-9.79,1.1-15.71,6.39-17.68,15.44
		C328.09,147.03,328.44,147.75,330.57,147.65z"/>
	<path class="st9" d="M340.63,147.46L340.63,147.46L340.63,147.46c4.7-5.76,9.65-11.34,13.18-17.96
		c-4.78,5.32-8.62,11.38-13.08,16.95C340.52,146.72,340.55,147.12,340.63,147.46z"/>
	<path class="st13" d="M371.72,160.37c-0.65,15.38-0.12,30.8-1.59,46.17c-0.9,9.43-1.34,18.84-9.35,25.67
		c4.91-1.71,8.08-4.88,9.79-9.68c2.83-7.92,2.61-16.25,2.73-24.36c0.24-16.43,1.81-32.87,0.27-49.32c-0.23-2.43-0.32-4.84-1.93-7.32
		C370.78,148.15,371.98,154.22,371.72,160.37z"/>
	<path class="st14" d="M349.2,192.81C349.2,192.81,349.2,192.81,349.2,192.81c6.01,0.16,12.02,0.32,18.03,0.5
		c1.31,0.04,2.2-0.15,2.24-1.81c0.11-5.44,0.33-10.87,0.52-16.3c0.05-1.32-0.1-2.39-1.87-1.89c-5.48,5.56-10.96,11.12-16.42,16.69
		C350.83,190.89,350.03,191.87,349.2,192.81z"/>
	<path class="st10" d="M581.62,372.82c0.02-1.49,0.14-2.87,1.7-3.43c9.41-3.4,15.13-10.54,19.52-19.06
		c-6.23,4.09-12.67,7.61-20.36,8.03c-0.95,0.05-2.39,0.06-2,2c1.47,7.31,0.48,14.75,0.91,22.11l0,0
		C581.96,379.26,581.58,376.03,581.62,372.82z"/>
	<path class="st10" d="M581.89,375.31c-0.27-3.43,0.98-4.9,4.21-6.31c8.28-3.61,14.29-9.65,16.75-18.68
		c-4.38,8.53-10.11,15.66-19.52,19.06c-1.56,0.56-1.68,1.94-1.7,3.43c-0.05,3.22,0.34,6.44-0.23,9.64l0,0l0,0
		C582.53,380.15,582.07,377.66,581.89,375.31z"/>
	<path class="st11" d="M336.84,194.61c1.11,0.03,2.21,0.05,3.32,0.08C339.07,194.6,337.85,194.33,336.84,194.61z"/>
	<path class="st11" d="M324.06,206.72L324.06,206.72c-0.29,7.53-0.29,7.54,5.4,7.06c-0.06-2.29,1.91-3.36,3.13-4.76
		c4.4-5.05,8.95-9.99,14.31-14.09c-2.24-0.08-4.49-0.16-6.73-0.25c-2.17-0.04-3.83,0.86-5.41,2.39
		C331.29,200.4,327.63,203.52,324.06,206.72z"/>
	<path class="st11" d="M332.58,209.02c-1.22,1.39-3.19,2.46-3.13,4.76c0,0,0,0,0,0c5.81-6.28,11.62-12.56,17.43-18.84
		C341.53,199.04,336.98,203.97,332.58,209.02z"/>
	<path class="st15" d="M574.71,297.48c12.39,2.56,24.11,6.45,35.98,12.14C605.71,297.12,584.62,290.2,574.71,297.48z"/>
	<path class="st16" d="M327.14,192.62C327.15,192.62,327.15,192.62,327.14,192.62c-0.51-0.74-0.04-1.32,0.37-1.84
		c4.01-5.03,7.89-10.17,11.8-15.27c0.43-0.56,0.99-0.94,1.64-1.22c-4.61,0.15-9.22,0.35-13.84,0.41c-1.65,0.02-2.2,0.69-2.26,2.26
		c-0.17,4.27-0.34,8.54-0.75,12.79C323.87,192.28,324.68,193.19,327.14,192.62z"/>
	<path class="st16" d="M339.32,175.51c-3.92,5.1-7.79,10.24-11.8,15.27c-0.41,0.52-0.89,1.1-0.37,1.84
		c4.61-6.1,9.65-11.88,13.81-18.32C340.31,174.57,339.75,174.95,339.32,175.51z"/>
	<path class="st17" d="M358.36,175.88c-5.52,4.45-10.12,9.85-15.23,14.73c-0.93,0.9-1.92,1.67-3.14,2.11c0,0,0,0,0,0
		c3.07,0.03,6.13,0.06,9.2,0.09c0,0,0,0,0,0c-0.5-1.26,0.46-1.95,1.15-2.64c5.01-5.11,10.1-10.15,15.16-15.21
		c0.76-0.76,1.75-1.11,2.62-1.66c-2.93,0.08-5.85,0.16-8.78,0.23c0,0,0,0,0,0C359.84,174.66,359.05,175.32,358.36,175.88z"/>
	<path class="st17" d="M343.13,190.61c5.11-4.88,9.7-10.28,15.23-14.73c0.69-0.55,1.47-1.22,0.98-2.34
		c-6.45,6.39-12.9,12.79-19.35,19.18C341.22,192.27,342.2,191.5,343.13,190.61z"/>
	<path class="st17" d="M350.34,190.17c-0.68,0.7-1.65,1.38-1.15,2.64c0.83-0.94,1.63-1.92,2.51-2.81
		c5.46-5.57,10.94-11.13,16.42-16.69c-0.88,0.55-1.86,0.9-2.62,1.66C360.44,180.02,355.36,185.06,350.34,190.17z"/>
	<path class="st18" d="M167.53,634.78c-0.05,1.02-0.26,2.11-1.37,2.05c-4.29-0.24-8.93,0.64-12.17-3.4
		c1.97,8,9.94,12.84,19.02,11.44c-1.32-1.63-2.72-3.13-3.85-4.81c-2.26-3.33-1.11-7.17-1.37-10.8l0,0
		C167.23,631.07,167.62,632.94,167.53,634.78z"/>
	<path class="st18" d="M167.14,634.3c-0.06,1.28-0.52,2.13-1.84,1.84c-3.79-0.82-7.91-0.29-11.32-2.72
		c3.24,4.04,7.88,3.16,12.17,3.4c1.12,0.06,1.33-1.03,1.37-2.05c0.08-1.84-0.3-3.7,0.25-5.52l0,0l0,0
		C166.64,630.81,167.23,632.61,167.14,634.3z"/>
	<path class="st18" d="M543.83,639.82c-1.42-0.09-2-0.91-1.89-2.08c-0.72,3.1-2.41,5.72-5.65,8.09c5.08,0.24,9.14-0.46,13.17-1.28
		c4.57-0.93,8.11-3.32,10.1-7.69C554.84,640.61,549.3,640.16,543.83,639.82z"/>
	<path class="st18" d="M544.8,639.04c-1.63-0.03-2.67-0.37-2.66-2.19c-0.05,0.3-0.12,0.59-0.19,0.89c-0.11,1.17,0.47,2,1.89,2.08
		c5.47,0.34,11.01,0.8,15.73-2.96C554.8,638.64,549.85,639.13,544.8,639.04z"/>
	<path class="st19" d="M324.06,206.72c2.89-4.89,7.82-7.72,11.76-11.54c0.3-0.29,0.65-0.46,1.02-0.57
		c-3.63-0.08-7.27-0.16-10.9-0.29c-1.49-0.05-2.12,0.48-2.08,1.98C323.96,199.77,323.99,203.25,324.06,206.72L324.06,206.72z"/>
	<path class="st19" d="M324.06,206.72L324.06,206.72L324.06,206.72c3.58-3.2,7.24-6.32,10.69-9.65c1.58-1.53,3.24-2.42,5.41-2.39
		c-1.11-0.03-2.21-0.05-3.32-0.08c-0.37,0.1-0.72,0.28-1.02,0.57C331.87,199,326.95,201.83,324.06,206.72z"/>
	<path class="st20" d="M337.98,149.6c-2.67-0.05-5.34-0.03-8-0.16c-1.7-0.09-2.56,0.45-2.69,2.27c-0.2,2.88-0.59,5.75-0.91,8.63
		c0,0,0,0,0,0c0,0,0,0,0,0C329.37,155.81,333.79,152.82,337.98,149.6z"/>
	<path class="st20" d="M337.98,149.6c-4.2,3.22-8.61,6.2-11.59,10.74c0,0,0,0,0,0C330.34,156.85,334.57,153.67,337.98,149.6z"/>
	<path class="st18" d="M561.77,636.92c-1.34,1.92-2.68,3.84-4.14,5.93c7.43-0.29,13.3-2.62,16.79-6.54
		C570.27,637.82,566.1,639.1,561.77,636.92z"/>
	<path class="st18" d="M561.77,636.92c4.33,2.18,8.5,0.9,12.65-0.6l0,0C570.19,636.19,566.02,637.41,561.77,636.92z"/>
	<path class="st21" d="M149.86,634.72c-1.87-0.1-3.57-0.63-4.89-2.06c2.18,5.1,6.38,7.66,11.53,9.14c-2.59-2.37-3.69-5.35-4.34-8.54
		C152.15,634.31,151.36,634.79,149.86,634.72z"/>
	<path class="st21" d="M149.6,633.78c-1.49-0.53-3.08-0.76-4.62-1.12c1.32,1.42,3.02,1.96,4.89,2.06c1.5,0.08,2.28-0.41,2.31-1.46
		c-0.08-0.42-0.16-0.84-0.23-1.26C151.78,633.4,151.46,634.44,149.6,633.78z"/>
	<path class="st22" d="M361.73,171.39c10.15-0.2,8.24,1.68,8.28-8.09l0,0C367.62,166.39,364.9,169.12,361.73,171.39z"/>
	<path class="st22" d="M361.73,171.39c3.17-2.27,5.89-5,8.27-8.08C366.8,165.54,364.21,168.41,361.73,171.39z"/>
	<path class="st23" d="M314.28,183.86c0-0.92,0-1.86,0-2.82C314.22,182.03,314.14,182.99,314.28,183.86z"/>
	<path class="st23" d="M315,171.93c-1.63,1.29,0.1,3.5-1.34,4.84c0.43,0.81,0.6,1.63,0.65,2.45
		C314.37,176.83,314.53,174.37,315,171.93z"/>
	<path class="st23" d="M314.31,179.22c-0.02,0.61-0.02,1.22-0.03,1.82C314.32,180.44,314.35,179.83,314.31,179.22z"/>
	<path class="st23" d="M313.55,188.46c0.48-0.01,0.97-0.03,1.45-0.04c0-5.5,0-10.99,0-16.49c-0.48,2.44-0.64,4.9-0.69,7.29
		c0.04,0.61,0.01,1.22-0.03,1.82c0,0.96,0,1.9,0,2.82c-0.15-0.87-0.06-1.83,0-2.82c0-0.6,0.01-1.21,0.03-1.82
		c-0.05-0.82-0.22-1.65-0.65-2.45c-0.04,1.97-0.09,3.94-0.11,5.91C313.54,184.6,313.55,186.53,313.55,188.46z"/>
	<path class="st23" d="M181.09,347.71c0.48-0.34,0.95-0.7,1.41-1.06C181.99,346.95,181.5,347.28,181.09,347.71z"/>
	<path class="st23" d="M178.89,348.9c0.33,0.33,0.66,0.67,0.99,1c0.23-0.94,0.67-1.64,1.21-2.2
		C180.41,348.19,179.7,348.64,178.89,348.9z"/>
	<path class="st23" d="M182.5,346.65c0.99-0.58,2.08-1,2.97-1.57C184.36,345.3,183.42,345.94,182.5,346.65z"/>
	<path class="st23" d="M178.89,348.9c0.81-0.27,1.52-0.71,2.2-1.2c0.42-0.42,0.9-0.76,1.41-1.06c0.93-0.71,1.86-1.35,2.97-1.57
		c-0.9,0.57-1.99,1-2.97,1.57c-0.46,0.35-0.93,0.71-1.41,1.06c-0.55,0.56-0.98,1.26-1.21,2.2c2.28-2.31,5.02-3.96,7.89-5.49
		C184.04,344.51,181.05,345.93,178.89,348.9z"/>
	<path class="st24" d="M627.23,321.19c2.21,1.49,4.66,2.35,7.23,2.94c-2.08-1.4-3.91-3.21-6.5-3.65
		C628.11,321.12,627.97,321.46,627.23,321.19z"/>
	<path class="st24" d="M627.96,320.48c-0.24,0.24-0.49,0.47-0.73,0.71C627.97,321.46,628.11,321.12,627.96,320.48z"/>
	<path class="st25" d="M401.54,89.72c1.12-2.52,1.34-5.23,2.01-8.81c-1.72,2.59-2.5,4.53-2.8,6.68
		C402.47,87.76,401.58,88.9,401.54,89.72z"/>
	<path class="st25" d="M401.54,89.72c0.04-0.82,0.94-1.96-0.79-2.13C401.88,87.98,401.14,89.06,401.54,89.72z"/>
	<path class="st26" d="M327.53,215.88c-3.91-0.88-3.21,1.32-2.39,3.59c0,0,0,0,0,0C325.56,218.03,326.03,216.61,327.53,215.88z"/>
	<path class="st26" d="M327.53,215.88c-1.5,0.73-1.97,2.14-2.39,3.59C326.49,218.64,326.82,217.14,327.53,215.88z"/>
	<path class="st27" d="M90.63,333.12c-1.46,0.36-2.74,1.03-4.13,2.48c2.15-0.56,3.93-0.78,5.43-1.89
		C91.3,333.96,90.59,334.37,90.63,333.12z"/>
	<path class="st27" d="M91.93,333.72c-0.43-0.2-0.87-0.4-1.3-0.59C90.59,334.37,91.3,333.96,91.93,333.72z"/>
	<path class="st28" d="M256.97,338.51c-7.54-1.87-9.65-8.66-4.46-14.37c0.31-0.34,0.67-0.68,0.19-1.16
		c-5.78,3.16-6.82,8.16-2.76,13.11c2.36,2.88,5.49,4.18,9.08,4.57c5.11,0.56,10.21,0.09,15.3-0.32c1.85-0.15,2.99,0.24,4.01,1.87
		c1.41,2.25,3.17,4.29,4.75,6.44c1.31,1.79,2.51,2.02,4.15,0.22c2.13-2.34,3.95-4.88,5.54-7.57c0.97-1.65,2.12-2.41,4.09-2.61
		c36.12-3.68,72.12-2.63,108.04,2.51c1.65,0.23,2.74,0.78,3.62,2.21c1.96,3.16,4.33,6,6.96,8.67c1.99,2.02,3.34,1.79,5.08-0.21
		c1.77-2.02,3.42-4.12,4.76-6.42c0.83-1.42,1.75-1.85,3.38-1.57c2.17,0.37,4.39,0.46,6.59,0.58c4.09,0.22,8.15-0.06,11.98-1.61
		c3.88-1.58,6.24-5.67,5.8-9.81c-0.37-3.45-2.21-5.64-5.83-6.13c3.01,2.11,5.02,4.57,4.02,8.5c-1.09,4.3-4.07,6.17-8.25,6.84
		c-3.37,0.55-6.73,0.64-10.07,0.28c-10.85-1.15-21.68-2.47-32.53-3.67c-22.97-2.54-45.94-5.07-69.12-4.04
		c-20.65,0.92-41.23,2.91-61.86,4.14C265.27,339.23,261.09,339.53,256.97,338.51z M424.01,343.41c0.03,0.52,0.08,0.66,0.03,0.74
		c-1.66,2.76-3.62,7.43-5.95,7.01c-3.89-0.7-5.8-5.31-8.48-9.27C414.85,342.44,419.38,342.92,424.01,343.41z M280.9,339.91
		c3.52-0.17,7.03-0.43,10.58-0.65c0.09,1.4-0.75,2.13-1.32,2.93c-5.63,7.93-4.22,7.43-10.05-0.36
		C279.3,340.76,279.13,340,280.9,339.91z"/>
	<path class="st29" d="M384.77,289.66c9.44,13.47,21.31,22.61,31.45,22.06c26.67-0.53,42.3-7.6,52.44-24.76
		c0.95-1.61,1.66-3.28,1.79-5.21c1.26-19.2-4.66-35.75-18.63-49.04c-14.23-13.53-36.38-14.07-51.18-1.63
		c-6.81,5.73-11.44,13.02-15.2,20.96c-3.91,8.27-5.21,17.3-7.62,26c-0.26,0.96-0.25,1.81,0.55,2.55
		C381.14,283.16,382.65,286.63,384.77,289.66z M379.72,277.89c3-13.89,6.46-27.58,15.67-39.01c10-12.4,22.84-16.95,38.35-14.03
		c6.31,1.19,11.77,4.39,16.42,8.69c12.83,11.86,18.63,26.8,18.83,44.11c0.05,4.34-1.29,8.11-3.81,11.66
		c-10.2,14.39-24.5,20.28-46.49,20.52c-11.56,0.71-22.83-7.76-31.89-20.28c-2.24-3.1-3.77-6.69-6.47-9.46
		C379.69,279.44,379.53,278.76,379.72,277.89z"/>
	<path class="st30" d="M277.11,310.08c13.15,0.16,24.89-8.19,33.06-22.78c3.18-5.69,4.46-10.91,2.88-17.6
		c-2.68-11.37-5.43-22.56-12.07-32.38c-11.8-17.47-35.66-28.44-55.83-5.28c-9.77,11.22-16.49,24.03-19.86,38.59
		c-1.1,4.76-0.9,9.21,2.03,13.27C238.62,299.56,252.91,309.98,277.11,310.08z M226.9,271.6c4.07-17.18,11.83-32.25,25.38-43.81
		c10.72-9.15,23.65-9.53,35.32-1.52c12.21,8.38,18.08,20.83,21.62,34.64c1.32,5.16,2.2,10.44,3.32,15.66
		c0.18,0.82,0.3,1.57-0.11,2.36c-3.43,6.58-6.56,13.35-11.94,18.69c-7.69,7.65-17.04,10.96-26.83,10.65
		c-20-0.05-33.48-10.02-44.37-24.5C226.58,280.16,225.82,276.15,226.9,271.6z"/>
	<path class="st31" d="M418.09,351.16c2.33,0.42,4.3-4.24,5.95-7.01c0.05-0.08,0-0.22-0.03-0.74c-4.63-0.49-9.17-0.96-14.4-1.52
		C412.29,345.84,414.2,350.45,418.09,351.16z"/>
	<path class="st32" d="M290.15,342.19c0.57-0.8,1.41-1.53,1.32-2.93c-3.55,0.22-7.06,0.48-10.58,0.65c-1.76,0.09-1.6,0.85-0.79,1.92
		C285.93,349.62,284.53,350.12,290.15,342.19z"/>
	<path class="st33" d="M386.81,289.55c9.06,12.52,20.33,21,31.89,20.28c21.99-0.24,36.29-6.13,46.49-20.52
		c2.51-3.54,3.86-7.31,3.81-11.66c-0.2-17.31-6-32.25-18.83-44.11c-4.66-4.3-10.12-7.5-16.42-8.69
		c-15.51-2.93-28.34,1.62-38.35,14.03c-9.21,11.43-12.67,25.11-15.67,39.01c-0.19,0.87-0.02,1.55,0.61,2.21
		C383.04,282.87,384.56,286.46,386.81,289.55z M409.08,241.56c0.28-1.83,0.65-3.67,1.71-5.25c1.91-2.86,3.9-2.78,5.3,0.4
		c2.3,5.22,2.15,10.88,2.51,16.41c0.28,4.39,0.06,8.81,0.06,14.4c-0.34,5.66-0.7,12.5-1.17,19.33c-0.2,2.89-0.6,5.8-2.13,8.36
		c-1.44,2.4-3,2.34-4.33-0.14c-1.57-2.93-1.96-6.21-2.24-9.42C407.49,270.94,406.86,256.23,409.08,241.56z"/>
	<path class="st33" d="M273.66,308.27c9.79,0.31,19.14-3,26.83-10.65c5.38-5.34,8.51-12.11,11.94-18.69
		c0.41-0.78,0.29-1.54,0.11-2.36c-1.12-5.22-2-10.49-3.32-15.66c-3.53-13.81-9.41-26.26-21.62-34.64
		c-11.67-8.01-24.6-7.63-35.32,1.52c-13.55,11.56-21.31,26.63-25.38,43.81c-1.08,4.54-0.32,8.55,2.39,12.16
		C240.18,298.25,253.66,308.22,273.66,308.27z M278.94,242.59c0.25-2.04,1.05-4.03,1.67-6.01c0.4-1.27,1.15-2.4,2.64-2.4
		c1.55,0,2.08,1.22,2.49,2.5c1.01,3.1,1.84,6.27,1.91,9.52c0.12,6.26,0.03,12.52,0.03,18.78c0.07,7.99,0.53,16.02-0.54,23.98
		c-0.26,1.95-0.58,3.9-1.04,5.81c-0.26,1.09-0.55,2.46-1.95,2.61c-1.58,0.18-2.11-1.23-2.64-2.35c-0.49-1.04-0.9-2.15-1.11-3.28
		C277.29,275.45,276.89,259.05,278.94,242.59z"/>
	<path class="st34" d="M411.03,295.06c1.32,2.48,2.89,2.53,4.33,0.14c1.53-2.55,1.93-5.46,2.13-8.36
		c0.47-6.83,0.84-13.66,1.17-19.33c0-5.58,0.23-10.01-0.06-14.4c-0.36-5.53-0.21-11.19-2.51-16.41c-1.4-3.18-3.39-3.26-5.3-0.4
		c-1.06,1.59-1.43,3.42-1.71,5.25c-2.22,14.68-1.59,29.38-0.29,44.08C409.07,288.85,409.46,292.13,411.03,295.06z M415.32,289.91
		c-0.11,0.79-0.36,1.58-0.62,2.34c-0.29,0.84-0.35,2.07-1.44,2.11c-1.15,0.04-1.25-1.19-1.48-2.04c-1.58-6.09-2.55-12.34-1.85-18.54
		c0.41-3.63,3.68-6.15,6.77-9.53C416.9,273.58,416.39,281.76,415.32,289.91z M411.42,239.05c0.28-1.09,0.69-2.58,1.9-2.66
		c1.36-0.09,1.57,1.54,1.83,2.53c2.24,8.56,2.5,16.73-5.7,23.68C409.44,254.28,409.5,246.59,411.42,239.05z"/>
	<path class="st35" d="M281.52,295.04c0.53,1.12,1.06,2.53,2.64,2.35c1.4-0.16,1.69-1.52,1.95-2.61c0.45-1.91,0.77-3.86,1.04-5.81
		c1.07-7.96,0.61-15.98,0.54-23.98c0-6.26,0.09-12.52-0.03-18.78c-0.06-3.26-0.89-6.42-1.91-9.52c-0.42-1.27-0.95-2.5-2.49-2.5
		c-1.5,0-2.24,1.12-2.64,2.4c-0.63,1.98-1.42,3.97-1.67,6.01c-2.05,16.46-1.65,32.86,1.47,49.17
		C280.63,292.88,281.03,294,281.52,295.04z M279.55,254.86c-0.09-4.75,0.53-9.45,1.48-14.1c0.34-1.65,0.78-3.34,2.33-5.19
		c2.66,6.1,2.84,11.96,2.78,17.83c-0.01,1.03-0.8,2.17-1.49,3.06c-1.05,1.35-2.35,3.11-4.17,2.58
		C278.46,258.45,279.58,256.28,279.55,254.86z M286.34,265.24c0.03,10.39,0.08,20.05-1.99,29.88c-1.76-0.87-1.93-2.24-2.19-3.53
		c-1.05-5.21-1.81-10.45-2.18-15.77C279.63,270.99,282.13,268.11,286.34,265.24z"/>
	<path class="st36" d="M411.78,292.33c0.22,0.85,0.32,2.08,1.48,2.04c1.1-0.04,1.15-1.28,1.44-2.11c0.27-0.76,0.52-1.55,0.62-2.34
		c1.07-8.15,1.58-16.33,1.39-25.66c-3.1,3.39-6.36,5.9-6.77,9.53C409.23,279.99,410.2,286.24,411.78,292.33z"/>
	<path class="st37" d="M415.16,238.92c-0.26-0.99-0.47-2.62-1.83-2.53c-1.21,0.08-1.63,1.57-1.9,2.66
		c-1.92,7.54-1.98,15.23-1.97,23.55C417.65,255.65,417.4,247.48,415.16,238.92z"/>
	<path class="st38" d="M284.35,295.13c2.07-9.83,2.02-19.49,1.99-29.88c-4.21,2.87-6.71,5.75-6.37,10.59
		c0.38,5.32,1.13,10.56,2.18,15.77C282.42,292.88,282.59,294.25,284.35,295.13z"/>
	<path class="st39" d="M284.65,256.47c0.69-0.89,1.47-2.02,1.49-3.06c0.07-5.87-0.12-11.73-2.78-17.83c-1.56,1.84-2,3.54-2.33,5.19
		c-0.95,4.64-1.57,9.35-1.48,14.1c0.03,1.42-1.09,3.59,0.93,4.19C282.31,259.58,283.6,257.82,284.65,256.47z"/>
</g>
</svg>
