<svg xmlns="http://www.w3.org/2000/svg" viewBox="0 0 47.78 44.19"><defs><style>.cls-1{fill:#0d131a;}.cls-1,.cls-2,.cls-3,.cls-4,.cls-5{fill-rule:evenodd;}.cls-2{fill:#fceded;}.cls-3{fill:#f6c7ce;}.cls-4{fill:#fff;}.cls-5{fill:#00aeeb;}</style></defs><title>Asset 23@</title><g id="Layer_2" data-name="Layer 2"><g id="Layer_1-2" data-name="Layer 1"><path class="cls-1" d="M21.54,18.18l3.76-2.8v1c0,1,0,2,.1,2.93a7.74,7.74,0,0,0,.27,2l.32.41.45.61a.72.72,0,0,1,0,.55c-.12.36-.44.48-1,.35h0v.05l-.19.51a.7.7,0,0,1-.46.36q-.53.11-.93-.63l0,0a1,1,0,0,1-.75.24.5.5,0,0,1-.39-.47,2.61,2.61,0,0,1,.06-.82l.08-.63a6,6,0,0,0-.35-1.61l-.47-1-.34-.69-.21-.37Z"/><path class="cls-2" d="M24.52,18.81l.35,0a9.44,9.44,0,0,0,.35,2.75l.48.64c.23.29.34.48.32.55l-.35,0-.46,0c-.06,0-.13.19-.2.48s-.15.43-.25.45-.22-.09-.36-.36-.26-.39-.35-.38a1.21,1.21,0,0,0-.43.23c-.17.13-.28.18-.33.16s0-.22,0-.62l.1-.86a12,12,0,0,0-.38-2l-.13-.32a5,5,0,0,1,1.61-.65Z"/><path class="cls-3" d="M24.87,18.77l-.35,0a5,5,0,0,0-1.61.65l-.51-1.33,2.4-1.75.07,2.39Z"/><path class="cls-1" d="M47.61,24.09a14.17,14.17,0,0,1-.78,7.25,16.64,16.64,0,0,1-4.93,6.93A40.64,40.64,0,0,1,36,42.46a11.93,11.93,0,0,1-4.69,1.68c-1.58.18-2.57-.07-3-.77-.26-.47,0-1.2.81-2.2A25.57,25.57,0,0,1,33,37.56l1.53-1.15a8.61,8.61,0,0,1,1.85-1.07,3.56,3.56,0,0,1,2-.24,12.22,12.22,0,0,1,1.43.37l.44.07h.33a14,14,0,0,0,4.13-5.86,10.78,10.78,0,0,0,.67-5.57,6.21,6.21,0,0,0-1.08-2.75,4.33,4.33,0,0,0-1.88-1.53Q40,18.88,36.5,22a56.75,56.75,0,0,0-5.87,6.7l-.56.73-1.14,1.6-.79,1.15q-3.23,4.65-5.28,6-3,1.86-7.72.65Q9.89,37.48,8.68,30.4a24.09,24.09,0,0,1-.32-4.74l.15-2.15.3-.48,2.82.32-.09.52c-.08.54-.15,1.19-.2,2a21.86,21.86,0,0,0,.06,4q.66,5.79,4.48,6.72l3.73.12a6.45,6.45,0,0,0,3.54-1.93q1.53-1.64,2.61-3t2.79-3.86a32.19,32.19,0,0,1,7.81-8.51c2.56-1.76,4.82-2.21,6.76-1.34a7.47,7.47,0,0,1,2.8,2.05,8.17,8.17,0,0,1,1.69,4Z"/><path class="cls-3" d="M10.9,23.78l-.11.92q-.1,1.1-.12,2.25l-.59-.08a3.46,3.46,0,0,0-1,.69,21.75,21.75,0,0,1,.14-4l1.67.19Z"/><path class="cls-2" d="M46,24.15A7.68,7.68,0,0,0,44.71,21a4.28,4.28,0,0,0-2.18-1.75q-2.62-.82-6.06,2.1a58.42,58.42,0,0,0-6.85,7.71l-1,1.38-.95,1.38L25.26,35a12.92,12.92,0,0,1-2.5,2.38q-2.86,2-7.29.79a7.46,7.46,0,0,1-5-4.36,16.62,16.62,0,0,1-1.35-6.28,3.46,3.46,0,0,1,1-.69l.59.08a17.92,17.92,0,0,0,.8,6,5.89,5.89,0,0,0,4.11,4.19,7.87,7.87,0,0,0,6.61-.83,20.89,20.89,0,0,0,4.59-5.06q1.13-1.59,1.92-2.58a50.06,50.06,0,0,1,6.09-7.1q4.7-4.27,8.14-3a5.22,5.22,0,0,1,2.55,2,8.74,8.74,0,0,1,1.35,3.64,13.59,13.59,0,0,1-.57,6.41,14.7,14.7,0,0,1-4.54,6.69l-.59.5a50,50,0,0,1-5.32,3.5,13.82,13.82,0,0,1-4.87,2.07c-.86.11-1.43-.06-1.69-.53q-.21-.4,2.65-3a42.07,42.07,0,0,1,3.91-3.25,4,4,0,0,1,2.48-.6l1.75.31h.44l.19,0a15.21,15.21,0,0,0,4.47-6.19A11.27,11.27,0,0,0,46,24.15Z"/><path class="cls-2" d="M16,27.13a6.67,6.67,0,0,0,.11,1.41q.41,1,3.81,3.93l4.43,3.84a4.86,4.86,0,0,1,1.24,1.84,1.53,1.53,0,0,1-.18,1.13,1,1,0,0,1-.22.62.9.9,0,0,1-.59.36c-.42.76-1.17.66-2.25-.29a17.16,17.16,0,0,1-2.38-2.75,15.94,15.94,0,0,0-2.81-2.28L13.5,32.37a2.12,2.12,0,0,1-1-1.85,4.31,4.31,0,0,1,1.22-2.3l-.2-2.46a11.89,11.89,0,0,0,2.44-.8l0,2.17Z"/><path class="cls-3" d="M29.81,41.91A13.81,13.81,0,0,1,32,40.17c.53-.36,1.24-.79,2.14-1.29a15.24,15.24,0,0,1,1.69-.82,4.44,4.44,0,0,1,1.6-.38,4.85,4.85,0,0,1,1.77.31.55.55,0,0,1,.36.61,1.2,1.2,0,0,1-.64.8l-3.08,1.92a13.82,13.82,0,0,1-4.87,2.07c-.86.11-1.43-.06-1.69-.53,0-.06,0-.19.12-.37a3.55,3.55,0,0,1,.44-.58Z"/><path class="cls-3" d="M13.49,25.86a16.12,16.12,0,0,0,2.45-.9l0,2.21a2.5,2.5,0,0,0-1.23-.1,2.58,2.58,0,0,0-1,.3l-.24-1.51Z"/><path class="cls-3" d="M18.17,35.58a18.29,18.29,0,0,1,4.41,3,1.59,1.59,0,0,0,1.65.35,1.3,1.3,0,0,0,.89-1.52,2,2,0,0,1,.44,1,1.25,1.25,0,0,1-.11.87c-.15.61-.41.95-.76,1-.56.63-1.33.54-2.33-.27a13.54,13.54,0,0,1-2.42-2.76l-.76-.79-1-.85Z"/><path class="cls-1" d="M16.21,23.86v2.27c0,1.12.05,1.87.1,2.27a5.81,5.81,0,0,0,1.47,1.82,57.4,57.4,0,0,0,4.35,3.9l.32.27a17.22,17.22,0,0,1,2.75,2.67c.72,1,.86,1.77.44,2.41l0,.28a1.14,1.14,0,0,1-.35.58,1,1,0,0,1-.47.19.87.87,0,0,1-.45.46,1.08,1.08,0,0,1-.56.14,3.11,3.11,0,0,1-2-1.13,15.52,15.52,0,0,1-1.52-1.94l-.14-.19a5.16,5.16,0,0,0-.93-1L18,36l-1.38-1c-.46-.35-1-.72-1.6-1.11s-1.08-.75-1.36-1a6.06,6.06,0,0,1-1.11-1.09,1.85,1.85,0,0,1-.19-2,5.94,5.94,0,0,1,.92-1.46l.12-.13A15.07,15.07,0,0,0,13,25.3l-.06-.43,3.27-1Zm-2.39,1.26.31,3.23-.94,1.18c-.45.75-.49,1.36-.11,1.84a7.23,7.23,0,0,0,1.49,1.4l2.1,1.49,1.67,1.23,1.35,1.11a6.28,6.28,0,0,1,.84,1,9.75,9.75,0,0,0,1.74,1.95q1.29,1.07,2.07.69l0-.26a5.53,5.53,0,0,0-1.09-1.74l-.88-1,1.08.88a4.07,4.07,0,0,1,1.28,1.72c0,.07.08,0,.23-.11a.58.58,0,0,0,.09-.61,4.93,4.93,0,0,0-.77-1.27l-.62-.79a3.91,3.91,0,0,1,.62.45,3.78,3.78,0,0,1,1,1.15,2.76,2.76,0,0,0-.94-2l-2.5-2.17-1.05-.87-3.35-3c-1.1-1-1.67-1.75-1.71-2.12v-.81l0-1,0-2.16-1.89.57Z"/><path class="cls-2" d="M23,7.3A7.83,7.83,0,0,0,23,9.64a6.31,6.31,0,0,0,.75,2.24,5,5,0,0,0,2.34,1.83,7.33,7.33,0,0,0,2.5.75l.2.37a60.39,60.39,0,0,0-5.61,3.5,18,18,0,0,0-4.95,4.77,6.63,6.63,0,0,1-4.13,2.59A6.06,6.06,0,0,1,8.82,25a2.68,2.68,0,0,0-.88.6,5.85,5.85,0,0,0-.53,1.23l-.65,2A14.2,14.2,0,0,0,6.2,33.4a23.88,23.88,0,0,1-.26,5.65c-.34,2-.88,3-1.63,3a1.14,1.14,0,0,1-.92.62.9.9,0,0,1-1-.39q-1,.24-1.56-1.08a5.29,5.29,0,0,1-.46-2.34,13.5,13.5,0,0,1,1-3.85,24.7,24.7,0,0,1,1.7-3.81A14.94,14.94,0,0,0,4,29.05l.92-2.89a6.85,6.85,0,0,0,.36-2.38L5,21.52A9.12,9.12,0,0,1,5.18,18a10.44,10.44,0,0,1,1.58-3.34,8,8,0,0,1,4-2.5,27.91,27.91,0,0,1,5-1.13,11.8,11.8,0,0,0,4.18-1.58A32.64,32.64,0,0,0,23,7.3Z"/><path class="cls-3" d="M.53,40.07a9,9,0,0,1,.77-4.55,5.59,5.59,0,0,0,.45,3.13,1.79,1.79,0,0,0,1.52,1A2.43,2.43,0,0,0,5,38.92a3.85,3.85,0,0,0,1.14-2.07A13.14,13.14,0,0,1,5.71,40c-.33,1.14-.8,1.82-1.4,2a1.83,1.83,0,0,1-.91.57,1,1,0,0,1-.92-.26c-1.13.07-1.78-.7-1.95-2.3Z"/><path class="cls-1" d="M24.61,6.38l6,6.9.3.5-.5.28-4,2.45a44.14,44.14,0,0,0-5.67,4,11.28,11.28,0,0,0-1.92,2.29,6.39,6.39,0,0,1-1.26,1.47,7.56,7.56,0,0,1-2.49,1.38,9,9,0,0,1-4,.52,3.77,3.77,0,0,1-2.35-.86l-.53.37a7.13,7.13,0,0,0-.89,2,19.09,19.09,0,0,0-.75,2.75l-.11,1v2.89a37.46,37.46,0,0,1-.1,4.16,5.54,5.54,0,0,1-1.5,3.67,1,1,0,0,1-.49.18,1.38,1.38,0,0,1-1.55.6.82.82,0,0,1-.33-.19l-.16-.14a1.55,1.55,0,0,1-1.21-.22,2.25,2.25,0,0,1-.82-1.06,7.4,7.4,0,0,1,.15-4.81,19.91,19.91,0,0,1,1.58-3.84,29.66,29.66,0,0,0,1.59-3.58l1-3.06A7.55,7.55,0,0,0,5,24.09a10,10,0,0,0-.16-1.91,12,12,0,0,1,0-4,8.58,8.58,0,0,1,1.53-3.57,7.28,7.28,0,0,1,3.51-2.53,26.58,26.58,0,0,1,4.37-1l2-.39a14.5,14.5,0,0,0,5.05-2.45A24.46,24.46,0,0,0,23.7,6.29l.51-.58.4.67Zm-3,2.26a15.19,15.19,0,0,1-5.31,2.57l-5.25,1.15a7.59,7.59,0,0,0-4,2.71,9.09,9.09,0,0,0-1.7,4,9.8,9.8,0,0,0,0,3,12.43,12.43,0,0,1,.18,2,8,8,0,0,1-.36,2.1L3.7,30.88,3,32.26A14.33,14.33,0,0,0,2.13,34,18.35,18.35,0,0,0,.91,39c-.12,1.74.31,2.79,1.31,3.15a.25.25,0,0,0,.24-.1A3,3,0,0,0,3,40.3l0-1,0-.44.26.43a2.35,2.35,0,0,1,.24,1,3.24,3.24,0,0,1-.61,1.94l.27.13a1.06,1.06,0,0,0,.78-.19l.23-.27.09-.31a5.75,5.75,0,0,0,0-1.58L4.1,39l.17.29a3,3,0,0,1,.27.75,4.08,4.08,0,0,1,0,1.52,6,6,0,0,0,1.18-3.13,25.89,25.89,0,0,0,.19-3.61V33.78l0-2.09A10.55,10.55,0,0,1,6,30.35a20.57,20.57,0,0,1,.76-2.82,6.13,6.13,0,0,1,1.07-2.32l.81-.66a12.55,12.55,0,0,0,1.49-1.41A10.35,10.35,0,0,0,12,19.77a12.93,12.93,0,0,0,.64-2.36,4.11,4.11,0,0,0,0-1.3q-.08-.48.15-.54c.15,0,.24.11.3.44a5.6,5.6,0,0,1,0,1.36,13.06,13.06,0,0,1-.57,2.55,10.91,10.91,0,0,1-3.34,5,5.76,5.76,0,0,0,2.18.63A7.77,7.77,0,0,0,15.07,25a6.85,6.85,0,0,0,2.85-2.06c1.33-1.62,2.14-2.56,2.43-2.83A48.42,48.42,0,0,1,26.13,16c1.44-.9,2.78-1.72,4-2.44l-6-6.92a23.24,23.24,0,0,1-2.5,2Z"/><path class="cls-2" d="M20.53,13.25l-.4,2.05a5.79,5.79,0,0,0-.07,1.06,8.69,8.69,0,0,0,0,.94,2.67,2.67,0,0,0,.33.78c.18.32.24.5.19.52l-.49-.1-.55-.05q-.1,0-.24.63c-.08.34-.19.52-.32.52s-.23-.16-.37-.47l-.33-.6c-.09-.07-.27,0-.56.14s-.44.2-.48.15.07-.29.31-.67l.47-.78a5,5,0,0,0,0-2.68l-.44-1.44Z"/><path class="cls-1" d="M20.84,19.05l-.37.05-.4-.09L19.88,19l0,.14-.23.64a.66.66,0,0,1-.6.36.68.68,0,0,1-.56-.3l-.32-.6-.06-.12-.11.05c-.54.31-.91.29-1.11-.05a.64.64,0,0,1,0-.59l.4-.71.5-.72a4.76,4.76,0,0,0,0-1.48A9.14,9.14,0,0,0,17.44,14l-.21-.69c0-.17,0-.25.16-.24s.28.17.38.45a8.88,8.88,0,0,1,.42,1.69,4.44,4.44,0,0,1-.13,2.14l-.47.78c-.24.38-.34.6-.31.67s.2,0,.48-.15.47-.21.56-.14l.33.6c.14.31.26.47.37.47s.24-.18.32-.52.17-.6.24-.63l.55.05.49.1c.05,0,0-.2-.19-.52a2.67,2.67,0,0,1-.33-.78,8.69,8.69,0,0,1,0-.94,5.79,5.79,0,0,1,.07-1.06l.38-1.93a.46.46,0,0,1,.34-.2.25.25,0,0,1,.28.25,2.13,2.13,0,0,1-.18.64l-.32,1.35a6.45,6.45,0,0,0,0,1.85,2.23,2.23,0,0,0,.25.58l.25.48a.64.64,0,0,1,0,.41.56.56,0,0,1-.28.32Z"/><path class="cls-1" d="M41.15,6.4a7.77,7.77,0,0,1,.36,2.42,5.78,5.78,0,0,1-.8,3.11,4.76,4.76,0,0,1-2.14,1.81,6.69,6.69,0,0,1-1.19,2.16,4.61,4.61,0,0,1-3,1.74,5.84,5.84,0,0,1-4.42-.92,4.56,4.56,0,0,1-1.57-1.95,7.67,7.67,0,0,1-4-1.72,4.48,4.48,0,0,1-1.62-3,8.38,8.38,0,0,1-.06-2.45,11.39,11.39,0,0,1-1-2.53,13.16,13.16,0,0,1-.21-2.51A3.27,3.27,0,0,1,21.83.8c.24-.27.9-.35,2-.25a15.16,15.16,0,0,1,3.07.64A10,10,0,0,1,31.42,0a8.38,8.38,0,0,1,5.12,1.1A7.6,7.6,0,0,1,38.21.73a6.86,6.86,0,0,1,2,0,1.38,1.38,0,0,1,.79.29,1.87,1.87,0,0,1,.22.92,6.93,6.93,0,0,1-.05,1.52,3.68,3.68,0,0,1-.72,1.64,4.72,4.72,0,0,1,.65,1.35Z"/><path class="cls-2" d="M40.77,2a7.28,7.28,0,0,1-.11,1.31,2.8,2.8,0,0,1-.54,1.29c-.2-.34-.36-.47-.47-.4s-.06.15,0,.34l.21.41.55,1A7.53,7.53,0,0,1,41,8.87a5.45,5.45,0,0,1-.68,2.56,3.26,3.26,0,0,1-1.65,1.66l0-.54c0-.11,0-.17-.13-.15a.21.21,0,0,0-.18.18l-.21.69A5.19,5.19,0,0,1,37.34,15a4.16,4.16,0,0,1-3,2,5.31,5.31,0,0,1-4.27-1.15,5.52,5.52,0,0,1-1-1l-.32-.5-.28-.43c-.21-.28-.36-.37-.45-.28l.07.34.09.3a10.14,10.14,0,0,1-3.3-1.51,4,4,0,0,1-1.59-2.88,8.54,8.54,0,0,1,0-2.21l.1-.88q0-.54-.15-.57s-.1.12-.16.37L23,6.87A8.15,8.15,0,0,1,22.27,5a13.62,13.62,0,0,1-.2-2.1,3.71,3.71,0,0,1,.19-1.81c.19-.28,1-.24,2.53.11.74.18,1.46.38,2.17.61l1-.56A10.06,10.06,0,0,1,31.44.59,10.68,10.68,0,0,1,35.39,1a4.27,4.27,0,0,1,1.1.66l.6.51c.27.22.44.3.5.23S37.45,2,37,1.53l1.32-.25c1.41-.21,2.19-.2,2.37,0a1.49,1.49,0,0,1,.11.72Z"/><path class="cls-3" d="M24.32,5.09a.57.57,0,0,1-.55.29c-.29,0-.51-.25-.67-.7a5.27,5.27,0,0,1-.23-1.6l0-.86.65.63a4,4,0,0,1,.83,1,1.26,1.26,0,0,1-.06,1.22Z"/><path class="cls-4" d="M28.5,7c.18,0,.43.13.76.43a6.84,6.84,0,0,1,1,1.27,3.73,3.73,0,0,1,.52,1.78c0,.62,0,1-.17,1.15a1.07,1.07,0,0,1-.71.16l-1.27-.11A6.87,6.87,0,0,1,27,11.31c-.6-.23-.93-.51-1-.85a5.3,5.3,0,0,1,1.08-2.61A2,2,0,0,1,28.5,7Z"/><path class="cls-5" d="M28.74,7a2.21,2.21,0,0,1,1,.94A3.07,3.07,0,0,1,30,9.41a3.32,3.32,0,0,1-.27,1.35,2.44,2.44,0,0,1-.74,1l-1.59-.26a1.88,1.88,0,0,1-1.34-.81,2.83,2.83,0,0,1,.41-1.94,3.64,3.64,0,0,1,1.12-1.47c.45-.33.82-.41,1.13-.25Z"/><path class="cls-4" d="M27.19,10.6a.55.55,0,0,1-.47-.32,1.55,1.55,0,0,1,0-1.56.55.55,0,0,1,.47-.32.59.59,0,0,1,.48.32,1.7,1.7,0,0,1,0,1.56.59.59,0,0,1-.48.32Z"/><path class="cls-1" d="M30.67,7.86a2.84,2.84,0,0,0-.38-.64,2.09,2.09,0,0,0-.59-.52l-.16-.07-.05-.06.11-.06.23,0a1.87,1.87,0,0,1,.69.62,2.45,2.45,0,0,1,.33.64l0,.23v.15s-.13-.09-.23-.33Z"/><path class="cls-4" d="M36.67,11.79c-.36-.36-.35-1.17,0-2.42s.9-2,1.51-2.22.86.15,1,1A3.77,3.77,0,0,1,39.15,10a3,3,0,0,1-1.06,1.26c-.6.46-1.07.62-1.42.49Z"/><path class="cls-5" d="M37.15,8.16c.22-.36.39-.53.54-.5a1.4,1.4,0,0,1,.79.88,2.9,2.9,0,0,1,.1,1.64l-.24.92a1.68,1.68,0,0,1-.78.52,1.21,1.21,0,0,1-.84.15q-.31-.11-.33-.72a5.31,5.31,0,0,1,.21-1.53,5.75,5.75,0,0,1,.55-1.36Z"/><path class="cls-4" d="M37.08,10.71a.5.5,0,0,1-.43-.28,1.27,1.27,0,0,1-.16-.68,1.35,1.35,0,0,1,.16-.69.52.52,0,0,1,.43-.28.48.48,0,0,1,.4.28,1.31,1.31,0,0,1,.18.69,1.23,1.23,0,0,1-.18.68.46.46,0,0,1-.4.28Z"/><path class="cls-1" d="M36.4,7.82c-.08,0-.08-.14,0-.34a1.73,1.73,0,0,1,.28-.56,1,1,0,0,1,.41-.36c.17-.11.27-.13.29-.07a.12.12,0,0,1-.06.17,1,1,0,0,0-.49.41,3.16,3.16,0,0,0-.31.65c0,.09,0,.12-.11.1Z"/><path class="cls-1" d="M29.35,7.22a3.17,3.17,0,0,1,.8,2.22,3.63,3.63,0,0,1-.26,1.34,3.06,3.06,0,0,1-.69,1l-.42-.08a2.45,2.45,0,0,0,.75-.94,3.09,3.09,0,0,0,.3-1.34A2.67,2.67,0,0,0,29.39,8,2.38,2.38,0,0,0,28.34,7l1,.2Z"/><path class="cls-1" d="M30.16,8.77a5.89,5.89,0,0,0-.95-1.18c-.31-.29-.55-.43-.71-.42a1.83,1.83,0,0,0-1.19.68,4.32,4.32,0,0,0-1,2.08,1.27,1.27,0,0,0,0,.53.73.73,0,0,0,.28.41,4.24,4.24,0,0,0,2.1.66l1.2.12a.93.93,0,0,0,.65-.14,1.61,1.61,0,0,0,.15-1.08,3.52,3.52,0,0,0-.48-1.66Zm-.63-1.52a3.45,3.45,0,0,1,1,1.3A6,6,0,0,1,31,10.47a1.71,1.71,0,0,1-.25,1.32,1.31,1.31,0,0,1-.91.23l-1.39-.1a4.54,4.54,0,0,1-2.12-.73,1.05,1.05,0,0,1-.47-.62,1.44,1.44,0,0,1,0-.74A4.89,4.89,0,0,1,27,7.56a2,2,0,0,1,1.46-.78,1.57,1.57,0,0,1,1.06.47Z"/><path class="cls-1" d="M38.19,7.36c-.51.17-.95.78-1.31,1.82a3.25,3.25,0,0,0-.21,2.22.29.29,0,0,0,.28.21,1.9,1.9,0,0,0,1.22-.56A2.35,2.35,0,0,0,39,10a3.36,3.36,0,0,0,.08-1.72c-.14-.76-.45-1.06-.92-.9Zm.87-.16a1.94,1.94,0,0,1,.43,1.43,4.45,4.45,0,0,1-.22,1.47,2.75,2.75,0,0,1-.57.91,3.12,3.12,0,0,1-1,.7L37,12a.56.56,0,0,1-.61-.29,2.66,2.66,0,0,1,0-1.79,7.84,7.84,0,0,1,.62-1.74A2.3,2.3,0,0,1,38.05,7a.92.92,0,0,1,1,.22Z"/><path class="cls-1" d="M37.74,7.44a1.54,1.54,0,0,1,.87,1.1,3.72,3.72,0,0,1,.06,1.94l-.14.55-.38.23.26-.84a3.29,3.29,0,0,0-.08-1.66,1.36,1.36,0,0,0-.77-.92l-.23,0a1.11,1.11,0,0,1,.32-.38l.09,0Z"/></g></g></svg>