<?xml version="1.0" encoding="utf-8"?>
<!-- Generator: Adobe Illustrator 24.3.0, SVG Export Plug-In . SVG Version: 6.00 Build 0)  -->
<svg version="1.1" id="Layer_1" xmlns="http://www.w3.org/2000/svg" xmlns:xlink="http://www.w3.org/1999/xlink" x="0px" y="0px"
	 viewBox="0 0 720 720" style="enable-background:new 0 0 720 720;" xml:space="preserve">
<style type="text/css">
	.st0{fill:#231F20;}
	.st1{fill:#998D96;}
	.st2{fill:#0A0B0B;}
	.st3{fill:#FFFFFF;}
	.st4{fill:#968A92;}
	.st5{fill:#565457;}
	.st6{fill:#58575A;}
	.st7{fill:#535153;}
	.st8{fill:#272324;}
	.st9{fill:#252223;}
	.st10{fill:#282526;}
	.st11{fill:#282425;}
	.st12{fill:#272425;}
	.st13{fill:#2D282A;}
	.st14{fill:#2B2829;}
	.st15{fill:#2D2A2C;}
	.st16{fill:#2A2728;}
	.st17{fill:#2F2B2D;}
	.st18{fill:#2A2627;}
	.st19{fill:#252122;}
	.st20{fill:#292526;}
	.st21{fill:#5E5C5F;}
	.st22{fill:#8F848D;}
</style>
<g>
	<path class="st0" d="M545.03,343.71c-6.05-2.9-11.8-4.98-17.66-6.76c-2.45-0.74-4.04-1.98-5.2-4.38
		c-5.3-10.93-10.77-21.78-16.29-32.6c-1.09-2.15-1.29-4.08-0.62-6.43c1.35-4.76,2.23-9.65,3.53-14.42c0.74-2.72-0.13-3.92-2.81-4.34
		c-4.6-0.72-9.14-1.89-13.76-2.29c-4.61-0.4-8.09-2.34-11.46-5.39c-8.8-7.96-17.78-15.73-26.88-23.34
		c-2.46-2.06-3.47-4.14-3.25-7.28c0.26-3.69,0.06-7.41,0.06-11.7c-5.63,1.82-10.68,3.22-15.53,5.11c-2.56,1-4.42,0.77-6.61-0.76
		c-3.81-2.66-7.89-4.94-11.71-7.59c-1.69-1.17-2.89-1.41-4.02,0.47c-1.1,1.83-3.03,2.37-4.8,3.15c-7.81,3.45-15.67,6.82-23.1,11.06
		c-1.41,0.8-4.05,0.84-3.5,3.79c0.12,0.65-0.39,0.8-2.4,0.04c-5.13-1.95-10.24-3.96-15.37-5.94c-0.25,0.7-0.48,0.99-0.43,1.22
		c2.06,10.57-2.74,18.14-10.07,25.17c-10.36,9.94-17.8,22.24-25.61,34.17c-2.63,4.02-5.83,6.93-10.62,8.4
		c-7.01,2.14-13.86,4.84-20.74,7.41c-2.99,1.12-5.88,2.24-9.11,0.83c-2.18-0.95-2.31,0.49-2.63,2.18
		c-2.23,11.7-2.43,23.6-3.32,35.41c-0.7,9.3-3.21,16.86-12.03,21.44c-5.11,2.66-9.3,7.16-15.55,7.44c-1.15,0.05-1.21,1.03-1.54,1.89
		c-3.52,9.2-8.35,17.53-15.82,24.2c-4.29,3.83-6.17,9.11-7.7,14.5c-0.86,3.03-1.68,6.07-2.7,9.05c-1.7,4.96-4.41,8.87-8.46,12.7
		c-9.73,9.2-21.68,15.06-32,23.27c-8.91,7.09-18.46,4.28-27.87,1.77c-2.91-0.77-5.41-0.92-8.26-0.06
		c-9.39,2.82-16.89-0.01-22.24-8.31c-2.34-3.63-4.22-7.23-9.45-7.78c-3.97-0.42-6.69-3.77-9.32-6.71
		c-6.31-7.07-12.9-13.85-19.76-20.38c-2.53-2.41-5.75-3.72-8.35-5.96c-6.98-5.99-6.6-14.38-6.79-22.34
		c-0.21-9.09,2.85-17.73,4.92-26.48c0.44-1.86,0.38-3.41-0.17-5.21c-1.95-6.45-4.35-12.75-5.8-19.37c-0.5-2.3-0.31-3.94,1.13-5.75
		c2.15-2.7,4.12-5.55,6.04-8.41c1.8-2.69,2.54-6.49,0.1-8.18c-7.73-5.34-5.02-12.49-3.88-19.1c1.6-9.3,4.06-18.45,6.12-27.66
		c0.53-2.37,1.51-4.45,3-6.42c7.17-9.45,14.68-18.7,21.15-28.62c5.53-8.49,13.55-13.38,21.91-18.04c3.5-1.95,4.93-4.23,5.13-8.41
		c2.25-45.28,4.76-90.56,7.21-135.83c0.17-3.19,1.62-6.06,2.37-9.1c0.37-1.51,1.52-1.71,2.62-2.06c1.57-0.5,3.18-0.86,4.77-1.31
		c8.28-2.35,8.57-2.43,10.78,6.03c2.44,9.32,2.6,19.01,3.78,28.54c3.26,26.22,5.65,52.54,8.73,79.03c3.12-7.39,6.43-14.71,9.28-22.2
		c1.75-4.6,4.79-8.01,8.62-10.65c10.75-7.4,21.67-14.55,32.69-21.55c6.23-3.96,12.54-5.02,19.63-4.46
		c8.09,0.64,16.2,0.54,24.32,0.04c2.29-0.14,3.41-0.88,4.34-2.95c3.07-6.83,6.64-13.46,9.51-20.37c3.42-8.22,8.87-14.17,17.3-17.09
		c10.59-3.67,20.1-9.27,29.13-15.8c0.85-0.61,1.82-1.05,2.71-1.6c4.39-2.67,8.45-4.42,14.3-3.98c17.35,1.3,34.8,1.2,52.21,1.46
		c2.85,0.04,4.59,0.75,6.2,3.21c4.85,7.41,10.15,14.52,15.01,21.92c1.81,2.75,3.56,3.29,6.62,2.18c6.76-2.44,13.71-4.36,20.46-6.82
		c1.76-0.64,2.83-0.18,4.11,0.56c12.08,6.98,24.12,14.03,36.26,20.9c3.46,1.96,3.58,5.46,4.22,8.48c0.88,4.15,2.88,4.19,6.48,3.76
		c12.46-1.47,22.78-8.04,33.57-13.48c1.82-0.92,3.4-1.52,5.46-1.31c5.22,0.53,10.48,1.3,15.7,1.13c5.48-0.18,9.75,1.99,14.07,4.85
		c13.01,8.6,26.01,17.36,40.22,23.8c5.54,2.51,8,5.58,9.46,11.29c5.16,20.18,10.88,40.23,16.54,60.28c1.46,5.17,0.5,9.62-2.34,14.01
		c-3.99,6.17-7.66,12.55-11.68,18.7c-1.43,2.19-1.35,3.49,0.65,5.26c4.5,3.97,8.69,8.3,14.21,10.93c2.31,1.1,3.54,2.89,4.34,5.37
		c3.35,10.42,6.83,20.8,10.43,31.15c1.17,3.37,0.86,6.44-0.64,9.55c-7.36,15.25-14.7,30.5-22.06,45.76c-0.19,0.4-0.33,0.9-0.65,1.17
		c-4.27,3.66-1.88,6.36,0.99,9.46c4.9,5.28,8.99,11.4,14.3,16.2c6.69,6.05,6.19,13.41,4.81,20.66c-2.05,10.74-5.18,21.26-7.84,31.88
		c-0.52,2.08-1.56,3.76-3.11,5.31c-8.14,8.19-16.76,15.94-23.24,25.63c-1.06,1.59-2.89,1.39-4.44,1.69
		c-7.95,1.57-15.9,3.19-23.9,4.46c-2.55,0.41-3.63,1.58-4.25,3.81c-0.48,1.73-1.48,3.34-1.75,5.09
		c-1.83,11.68-8.98,18.11-20.05,20.99c-2.58,0.67-5.08,1.87-7.45,3.15c-6.77,3.66-13.77,5.62-21.52,4.03
		c-2.34-0.48-4.16-0.36-3.19,3.09c1.67,5.99-0.51,11.18-3.88,16.05c-3.62,5.23-8.14,9.61-12.84,13.83c-1.34,1.2-2.7,1.54-4.48,1.49
		c-7.21-0.18-14.43-0.07-21.64-0.32c-2.1-0.07-3.14,0.32-3,2.52c0.34,5.56-3.04,9.05-6.66,12.57c-5.6,5.45-11.21,10.91-16.4,16.75
		c-3.54,3.99-7.28,6.41-12.75,5.39c-2.86-0.53-3.35,0.89-2.58,3.28c1.67,5.24,0.47,10.01-2.15,14.68
		c-2.56,4.57-4.76,9.35-7.31,13.93c-1,1.8-1.03,3.13,0.81,4.09c4.04,2.09,5.62,5.64,5.81,9.88c0.15,3.29,2.22,4.22,4.9,4.56
		c3.56,0.45,6.77,1.25,7.73,5.44c0.24,1.06,0.98,1.87,2.31,1.12c8.25-4.69,17.32-2.23,26.01-3.11c8.13-0.83,14.9,1.38,21.05,6.63
		c2.45,2.09,5.29,5.46,8.14,4.94c2.63-0.48,3.3-4.93,4.83-7.62c0.94-1.65,1.88-2.88,4.04-3c1.76-0.1,3.76-0.39,5.19-1.31
		c8.15-5.22,12.18,2.52,17.73,5.45c0.91,0.48,0.73,1.54,0.8,2.44c0.25,3.14,0.25,6.34,0.88,9.41c1.8,8.88-5.25,12.64-10.17,17.33
		c-3.56,3.39-8.04,0.86-11.9-0.42c-3.93-1.3-6.82-0.95-8.9,2.94c-1.12,2.09-3.04,3.06-5.43,3.53c-4.27,0.83-8.45,2.08-12.7,3.01
		c-5.47,1.2-10.72,1.44-16.18-1.07c-5.96-2.74-12.33-4.71-18.68-6.45c-4.7-1.29-7.99-3.62-9.73-8.19c-0.53-1.38-1.42-2.61-2.46-4.5
		c-4.51,6.72-9.57,4.8-14.83,1.61c-2.17-1.31-4.57-2.25-6.91-3.25c-1.8-0.76-3.09-1.77-3.05-3.94c0.06-3.26-1.86-3.83-4.68-3.67
		c-7.1,0.39-11.47-5.19-17.04-8.14c-1.21-0.64-0.57-2.21-0.6-3.36c-0.08-2.39-0.02-4.79-0.02-7.08c-0.62-0.2-0.96-0.44-1.14-0.35
		c-5.67,2.93-10.55,1.47-15.79-1.75c-8.42-5.16-17.28-9.62-26.02-14.26c-2.04-1.08-3.04-2.36-3.45-4.73
		c-1.47-8.42-3.29-16.78-4.91-25.17c-0.27-1.42-0.66-2.8,0.3-4.31c5.53-8.65,8.84-18.34,12.65-27.78c0.9-2.22,2.01-3.8,4.19-4.9
		c4.68-2.36,9.18-5.08,13.86-7.46c2.06-1.05,2.7-2.43,2.58-4.64c-0.39-7.19-0.5-14.4-1.02-21.59c-0.17-2.29,0.29-3.97,1.68-5.74
		c6.23-7.9,12.43-15.83,18.43-23.91c1.26-1.69,2.58-1.74,4.23-1.71c6.61,0.11,13.22,0.06,19.81,0.41c2.44,0.13,3.39-0.46,3.17-2.85
		c-0.01-0.15,0.02-0.3,0-0.45c-1.67-10.56,2.35-18.22,11.17-24.19c5.3-3.59,9.12-10.08,14.77-12.23c5.65-2.15,12.75-0.82,19.18-0.43
		c3.67,0.22,4.95-0.98,5.3-4.4c0.68-6.64,3.21-12.01,9.23-15.92c5.27-3.43,9.2-8.59,13.15-13.53c2.08-2.6,4.56-4.74,6.94-7.02
		c2.83-2.71,5.91-3.92,9.73-3.46c3.08,0.37,4.99-0.66,5.7-3.99c0.58-2.77,2.06-5.35,2.64-8.12c2.12-10.13,8.53-16.83,16.99-22.02
		C541.55,346.21,543.07,345.07,545.03,343.71z"/>
	<path class="st1" d="M248.48,348.93c4.33,3.33,8.53,6.84,13.04,9.9c2.23,1.51,4.7,0.23,6.62-1.34c3.08-2.53,5.27-5.68,6.4-9.58
		c1.44-4.96,2.99-9.89,5.22-14.64c-0.58,7-1.09,14-1.75,20.99c-0.88,9.37-8.72,12.7-15.22,17.04c-3.51,2.34-7.09,3.78-12.02,3.09
		c-7.35-1.03-14.93,0.32-22.27,2.04c-3.29,0.77-5.69,2.24-7.69,5.42c-2.09,3.31-5.66,5.75-8.73,8.38
		c-7.09,6.07-12.3,13.48-16.07,21.95c-1.32,2.97-3.34,5.16-6.1,6.96c-7.81,5.08-15.5,10.33-23.16,15.63
		c-1.59,1.1-2.87,1.42-4.91,0.98c-11.61-2.54-21.95-0.84-30.04,9.03c-4.33,5.28-14.52,3.6-20.42-2.85
		c-6.49-7.09-12.77-14.38-19.99-20.76c-2.47-2.19-5.01-4.24-7.86-5.98c-4.71-2.87-6.17-7.53-7.07-12.84
		c-1.55-9.13,0-17.69,2.71-26.22c1.15,7.8-2.26,15.41-0.72,23.14c0.4,2,2.27,3.72,3.45,5.55c1.74-0.97,0.67-1.95,0.28-2.36
		c-3.3-3.53-2.52-7.75-2.28-11.93c0.79-13.61,1.53-27.22,2.26-40.83c0.01-0.2-0.33-0.42-0.77-0.94c-1.57,2.49-0.1,5.52-2,7.96
		c-2.15-4.96-3.55-9.91-4.61-14.96c-0.29-1.4,3.76-8.64,5.02-9.14c2.58-1.03,2.97-1.89,3.58-6.9c0.12-0.96-0.87-2.84,1.14-2.69
		c1.4,0.1,1.42,1.69,1.39,2.93c-0.18,8.18,3.1,15.49,5.68,22.99c0.84,2.45,2.8,3.49,4.92,4.24c3.96,1.39,7.96,2.64,12,3.78
		c1.5,0.43,2.23,0.73,2,2.64c-2.65,21.86-1.46,43.78-1.04,65.69c0.03,1.3,0,2.61,0,4.96c-4.1-3.85-7.5-7.04-10.91-10.24
		c-0.27,0.27-0.53,0.54-0.8,0.82c3.39,4.96,8.67,8.12,12.91,13.08c1.23-3.87,0.42-7.27,0.29-10.52
		c-0.79-19.67-1.05-39.34,0.45-58.99c0.33-4.29,1.53-8.51,2.35-12.76c0.87-4.48,0.28-7.65-4.15-10.82
		c-9.98-7.12-19.1-15.43-28.75-23.02c-3.93-3.09-3.8-6.77-3.58-11.18c0.55-11.05,6.29-19.72,12.02-28.46
		c1.87-2.85,3.49-5.91,6.92-9.21c-0.01,14.46-0.03,27.84-4.76,41.33c2.84-1.33,2.93-3.65,3.35-5.46c2.82-11.92,3.2-24.06,2.99-36.24
		c-0.01-0.69,0.29-1.64-0.64-1.94c-1.21-0.39-2.03,0.47-2.61,1.32c-3.33,4.82-6.59,9.68-9.88,14.52c-0.83,1.22-1.17,2.79-2.79,3.69
		c1.22-8.62,3.39-16.42,9.17-23.31c7.81-9.31,14.61-19.45,22.06-29.08c4.74-6.13,12.18-8.58,18.53-12.45c2.41-1.47,2.15,1.7,1.97,3
		c-1.2,8.91-2.78,17.77-3.82,26.69c-1.17,10.06-3.65,20.04-1.48,30.35c1.08,5.15,3.99,7.27,8.86,5.39c2.87-1.11,5.43-2.65,7.29-5.09
		c4.01-5.25,7.9-10.59,11.8-15.92c0.57-0.78,1.61-1.53,0.5-3.25c-3.58,4.69-6.36,9.79-10.87,14.31c-1.51-7.92-2.66-15.35-2.94-22.89
		c-0.78-21.35,2.09-42.56,2.47-63.87c0.39-21.77,2.6-43.46,2.62-65.24c0.01-10.63,0-21.26,0-32.68c-3.22,1.62-2.42,3.45-2.39,4.84
		c0.21,10.51,1.04,21.03,0.71,31.52c-0.76,24-2.4,47.97-3.06,71.97c-0.49,18.01-3.08,35.95-1.9,53.99
		c0.38,5.82,1.28,11.62,2.14,17.39c1.09,7.36-0.89,11.31-7.08,13.51c-3.59,1.27-5.53,0.05-6.53-3.74c-2.26-8.55-0.5-16.99,0.68-25.4
		c2.46-17.52,4.61-35.02,5.24-52.76c0.92-25.49,2.64-50.96,4.07-76.43c0.94-16.63,2.01-33.26,2.93-49.89
		c0.45-8.14,3.72-11.6,11.66-12.2c2.28-0.17,2.22,1.59,2.76,2.84c2.79,6.47,2.7,13.49,3.52,20.3c2.24,18.6,4.27,37.23,6.16,55.88
		c1.72,16.86,3.15,33.75,4.7,50.63c1.01,11.03,5.46,15.62,16.43,17.19c8.15,1.17,16.28,2.52,24.42,3.75
		c3.34,0.51,5.98,1.9,8.48,4.38c8.63,8.55,16.5,17.83,26.13,25.45c4.97,3.93,7.44,10.48,12.07,15.05c3.74,3.69,7,7.99,11.15,11.13
		c9.63,7.29,11.5,17.86,12.24,28.55c1.19,17.28-5.17,33.26-10.25,49.36c-0.69,2.17-2.48,4.11-4.1,5.85
		c-2.57,2.76-5.34,3.47-8.58,0.55c-3.2-2.88-6.76-5.37-10.16-8.03C249.17,348.18,248.82,348.55,248.48,348.93z"/>
	<path class="st1" d="M182.86,208.48c5.19-4.67,10.31-7.81,13.34-13.23c-3.7,3.06-7.34,6.2-11.13,9.15
		c-4.99,3.89-5.32,3.69-8.03-1.86c-4.22-8.63-4.06-17.34-0.57-26.06c2.89-7.23,6.06-14.35,9.25-21.86
		c6.93,7.7,7.31,18.27,13.01,26.16c-3.25-8.46-5-17.53-10.03-25.19c-1.83-2.78-1.33-4.45,1.02-6.41
		c8.1-6.75,17.16-12.11,25.86-17.99c2.49-1.68,5.26-2.95,7.64-4.76c6.73-5.1,14.05-6.33,22.41-5.35
		c13.02,1.53,26.08-0.71,39.14-0.79c3.1-0.02,5.83,0.56,8.57,2.09c12.98,7.23,26.05,14.3,39.08,21.45c4.79,2.63,4.76,2.64,1.39,6.63
		c-4.07,4.82-8.22,9.58-12.13,14.52c-2.83,3.58-2.13,6.1,2.36,8.93c-0.3-2.51-3.7-3.86-2.13-6.39c1.18-1.9,2.67-3.61,4.1-5.34
		c3.54-4.28,7.17-8.49,10.68-12.8c1.54-1.89,2.53-2.18,3.8,0.33c6.24,12.31,12.59,24.57,18.94,36.83c0.72,1.4,0.97,2.82,0.84,4.34
		c-0.14,1.76-1.02,3.42-2.31,4.22c-1.61,1-2.6-1.06-3.58-1.95c-3.28-2.99-6.79-5.53-11.02-7.07c3.17,3.53,7.55,5.56,10.86,8.94
		c1.79,1.83,2.38,3.28,1.49,5.78c-3.15,8.89-6.07,17.87-9.02,26.83c-0.93,2.83-2.79,4.68-5.03,6.61c-9.41,8.14-18,17.13-25.93,26.72
		c-4.97,6-10.5,9.03-18.87,7.02c-9.87-2.37-20.05-3.43-30.11-4.91c-1.35-0.2-2.2-0.78-3.03-1.64c-1.25-1.29-2.65-2.5-3.67-3.96
		c-10.99-15.79-26.89-26.9-39.29-41.33c-3.17-3.69-7.78-2.68-11.77-3.45C200.68,211.09,192.26,209.97,182.86,208.48z"/>
	<path class="st1" d="M534.02,117.18c-8.03-1.11-16.11-1.63-24.44-4.8c8.46-4.31,15.99-9.16,24.22-11.95
		c4.6-1.56,10.36,0.51,15.6,0.56c6.61,0.07,11.92,2.91,17.31,6.41c13.45,8.76,26.82,17.73,41.67,24.09
		c1.99,0.85,1.95,2.15,1.96,3.93c0.09,11.86-3.15,23.1-6.15,34.38c-0.7,2.65-0.1,5.79-3.85,7.97c5.51,0.57,7.48,4.81,10.97,7.09
		c-0.31-2.62-2.27-4.18-3.96-5.44c-2.87-2.14-2.83-4.5-2.05-7.49c1.91-7.39,3.82-14.78,5.39-22.25c0.7-3.3,0.6-6.78,0.91-10.86
		c2.07,2.41,2.1,4.81,2.69,6.92c4.8,17.16,9.12,34.47,14.38,51.48c2.53,8.16-0.74,13.74-5.63,20.14c-0.11-3.56,0.86-6.18,1.46-8.87
		c0.46-2.07,0.56-3.3-2.56-2.76c-6.36,1.11-11.33,3.5-14.8,9.4c-5.87,9.97-14.49,17.55-23.39,24.77c-0.82,0.66-1.53,1.46-2.37,2.08
		c-1.91,1.41-3.01,5.21-5.12,4.5c-2.4-0.81-1.72-4.62-2.52-7.08c-0.6-1.84-1.09-3.77-1.28-5.69c-0.42-4.37-2.78-4.85-6.19-3.28
		c-1.93,0.88-3.62,0.63-5.55-0.15c-11.81-4.78-23.71-9.32-35.48-14.2c-6.62-2.74-12.33-6.77-15.91-13.29
		c-1.52-2.76-3.07-5.55-5-8.02c-3.56-4.55-4.77-9.25-3.31-15.03c3.43-13.57-0.5-26.72-3.06-39.9c-1.39-7.19-2.98-14.35-4.63-21.49
		c-0.49-2.14,0.21-2.62,2.18-3.37c7.9-3.05,15.4-0.51,22.86,1.39C523.56,117.72,528.74,117.47,534.02,117.18z"/>
	<path class="st1" d="M349.38,118.89c0.54,9,0.13,8.22-8.56,12.74c-10.01,5.21-18.79,4.97-27.68-1.71
		c-1.54-1.16-3.51-1.71-5.15-2.75c-6.05-3.8-14.57-4.67-16.08-14.05c-1.05,2.02,0.17,3.38,0.42,5.18
		c-5.96-0.85-11.82-0.23-18.39-0.43c3.85-8.21,7.55-16.09,11.81-25.19c1.17,5.27,2.06,9.27,2.95,13.27
		c1.13-3.56-0.05-6.77-0.55-10.04c-1-6.48,1.13-10.25,7.17-13.4c6.65-3.47,14.13-5.04,20.49-9.17c6.04-3.92,12.17-7.7,18.22-11.62
		c2.12-1.37,3.47-2.01,4.05,1.46c1.13,6.82,5.24,12.36,8.46,18.26c1.83,3.36,5.51,4.31,8.62,5.18c7.19,1.99,14.43,4,21.92,4.62
		c0.33,0.03,0.68-0.3,1.54-0.72c-5.99-1.36-11.38-3.15-16.89-3.71c-12.86-1.29-17.64-10.52-21.18-20.84
		c-2.27-6.61-1.86-7.02,4.86-6.53c17.09,1.25,34.23,0.19,51.31,1.32c5.4,0.36,8.51,5.96,5.82,10.68
		c-3.07,5.4-6.73,10.43-10.39,15.46c0.42,0.31,0.83,0.62,1.25,0.94c2.39-3.36,4.93-6.62,7.15-10.09c5.25-8.21,5.27-8.31,10.69-0.3
		c6.66,9.85,14.35,18.88,21.81,28.1c1.97,2.44,4.71,3.64,7.12,5.4c4.72,3.44,7.68,7.73,7.58,13.94c-0.15,9.77-0.25,19.55,0.18,29.3
		c0.2,4.63-3.4,5.93-5.69,8.42c-0.98,1.06-1.89-0.15-2.64-0.83c-3.75-3.44-7.86-6.53-10.87-10.72c-0.97-1.36-1.98-2.76-3.93-2.54
		c-2.3,0.27-2.53,2.26-3.09,3.94c-1.25,3.69-3,7.3-3.61,11.1c-1.46,9.12-8.54,12.26-15.5,15.79c-2.75,1.39-3.79,0.45-4.18-2.23
		c-0.61-4.15-1.26-8.29-1.93-12.43c-0.95-5.9-3.75-10.6-8.68-14.15c-9.38-6.77-18.61-13.74-27.94-20.58
		c-1.66-1.21-3.14-2.61-5.47-2.89c-3.05-0.37-1.83-3.69-3.06-5.42C350.69,120.73,350.83,119.28,349.38,118.89z"/>
	<path class="st1" d="M641.93,297.46c-3.72,7.78-7.42,15.56-11.16,23.33c-2.86,5.94-5.89,11.81-8.63,17.81
		c-1.23,2.69-3.08,4.43-5.85,5.1c-13.52,3.29-27.06,6.52-40.59,9.76c-0.37,0.09-0.78,0.01-1.6,0.01c3.88-4.9,9.12-7.97,12.57-12.67
		c-0.28-0.3-0.56-0.59-0.84-0.89c-4.04,3.81-8.32,7.42-12.05,11.51c-2.7,2.96-4.53,2.89-7.75,0.57
		c-10.94-7.87-23.36-12.82-36.13-16.85c-2.95-0.93-4.76-2.52-6.1-5.32c-4.65-9.71-9.54-19.3-14.57-29.39
		c3.72,0.59,5.8,4.61,9.83,2.8c2.99-1.35,6.63-1.34,8.91-4.47c-1.65-0.76-2.45,0.48-3.44,0.96c-6.55,3.18-10.56,2.59-15.95-2.2
		c-1.13-1.01-1.15-1.94-0.85-3.17c1.13-4.65,2.36-9.28,3.3-13.97c0.5-2.49,1.61-2.3,3.47-1.56c7.49,2.98,14.59,7.05,22.96,7.92
		c-0.62,3.04-2.93,4.64-5,6.89c3.42,0.43,4.01-2.27,5.45-3.7c0.91-0.89,1.18-2.74,2.91-2.36c5.22,1.15,9.65-1.57,14.36-2.8
		c4.76-1.24,4.72-1.38,4.11,3.31c0.27,0.03,0.78,0.12,0.78,0.1c1.01-4.91,5.29-5.79,8.84-8.14c8.06-5.34,17.74-7.07,25.58-12.66
		c3.4-2.43,5.83-5.52,7.71-9.15c2.01-3.85,4.05-7.68,5.99-11.57c0.96-1.94,1.96-2.55,4.19-1.52c6.39,2.94,12.76,5.99,19.71,7.5
		c1.88,0.41,2.5,1.86,3.04,3.51c3.23,9.83,6.48,19.64,9.78,29.44c1.08,3.21,0.42,5.68-2.15,8.03c-6.29,5.72-12.72,11.29-19.14,16.91
		C630.33,307.12,635.74,301.97,641.93,297.46z"/>
	<path class="st1" d="M623.14,207.06c-2.06,8.92-2.95,16.97-8.02,24.05c-6.02,8.39-11.12,17.4-15.61,26.79
		c-3.98,8.31-12.53,11.16-20.51,14.18c-2.51,0.95-5.07,1.52-7.19,3.36c-4.61,3.98-10.84,4.12-16.1,6.56
		c-10.85,5.04-21.23,2.89-31.48-1.77c-5.17-2.35-10.33-4.85-15.49-7.05c-5.77-2.45-12.51-2.67-18.86-3.65
		c-1.9-0.29-3.38-0.98-4.78-2.2c-9.05-7.9-17.98-15.94-27.27-23.56c-3.52-2.88-4.75-5.93-4.63-10.36c0.24-9.45,0.01-9.5,8.94-12.47
		c5.13-1.7,9.49-4.64,12.82-8.74c6.48-7.98,14.6-14.26,21.72-21.56c1.72-1.76,2.59-1.24,3.67,0.61c2.13,3.62,4.66,7.02,6.61,10.74
		c4.29,8.18,11.13,13.06,19.53,16.29c11.48,4.42,22.89,9,34.29,13.62c1.92,0.78,3.62,1.2,5.55,0.16c2.97-1.59,4.34-0.18,4.89,2.75
		c0.63,3.38,1.39,6.74,2.04,10.12c0.29,1.5,0.52,3.09,2.16,3.64c1.48,0.5,2.57-0.56,3.53-1.51c11.43-11.22,24.37-21.03,32.7-35.14
		C614.08,207.76,618.69,208.78,623.14,207.06z"/>
	<path class="st1" d="M447.42,160.4c1.24,8.52,0.02,15.2-5.69,21.65c-10.54,11.91-20.05,24.73-29.96,37.19
		c-1.25,1.57-2.79,2.61-4.62,3.44c-9.14,4.16-18.51,7.87-26.98,13.39c-1.35,0.88-2.39,0.63-3.75,0.17
		c-12.89-4.36-12.92-4.34-13.24-18.31c-0.2-8.71-0.35-17.43-0.38-26.14c-0.01-2.78-0.54-5.26-1.86-7.74
		c-4.44-8.35-8.94-16.67-12.98-25.21c-4.17-8.82-8.48-17.3-19.8-20.59c8.58-3.56,15.93-6.84,23.47-9.59
		c1.86-0.68,4.27,0.22,6.25,1.71c9.95,7.5,20.02,14.85,30.06,22.25c4.85,3.57,6.51,8.82,7.49,14.38c0.75,4.28,1.38,8.58,1.87,12.89
		c0.27,2.3,1.22,2.76,3.27,1.99c5.24-1.97,9.84-5.11,14.6-7.95c1.44-0.86,1.69-2.37,2.16-3.8c2-5.97,4.14-11.89,6.03-17.9
		c0.85-2.71,2.04-2.91,3.52-0.78c3.06,4.38,7.66,7.19,11.06,11.17c2.44,2.85,4.4,2.98,6.76,0.15
		C445.35,161.99,446.24,161.42,447.42,160.4z"/>
	<path class="st1" d="M536.04,439.54c6-6.6,11.89-12.59,17.22-19.04c5.74-6.95,6.18-8.03,15.87-2.76
		c6.93,3.77,11.61,5.94,19.86,1.03c8.02-4.77,15.16-8.84,18.42-17.87c0.55-1.54,1.48-2.94,2.28-4.39c3.48-6.35,2.47-10.08-4.3-13.15
		c-5.2-2.36-10.2-5.05-15.32-7.52c-3.23-1.56-5.17-3.76-6.07-7.21c-1.15-4.42-5.56-9.22-3.66-12.81c1.76-3.34,8.1-2.7,12.41-3.87
		c7.36-2,14.84-3.53,22.23-5.42c2.04-0.52,3.37-0.14,4.71,1.44c6.89,8.12,14.14,15.96,20.68,24.36c3.32,4.27,1.97,9.97,1.02,14.76
		c-2.09,10.56-5.14,20.92-7.72,31.39c-0.39,1.57-1.31,2.64-2.37,3.72c-7.98,8.15-16.29,16-23.12,25.19c-1.21,1.62-2.8,1.5-4.36,1.8
		c-9.55,1.81-19.11,3.6-28.66,5.45c-1.03,0.2-1.96,0.57-3.04,0.11C560.27,449.73,548.43,444.76,536.04,439.54z"/>
	<path class="st1" d="M515.37,406.61c-2.21,1.47-4.59,2.74-6.59,4.45c-6.12,5.24-13.39,6.29-21.03,6.19
		c-1.38-0.02-3.54,0.75-3.85-1.22c-0.33-2.07-1.56-5.03,0.22-6.36c8.05-6.02,13.64-14.34,20.68-21.29c3.54-3.5,7.4-5.5,12.83-3.98
		c-0.37,3.64-2.18,7.08-3.37,10.65c-0.78,2.34-0.66,4.27,0.39,6.45c3.99,8.24,7.76,16.57,11.81,24.78c1.14,2.32,1.42,4.01-0.71,5.88
		c-1.56,1.37-2.88,3.08-4.1,4.78c-1.6,2.23-4.92,3.67-4.25,7.01c1.08,5.34,3.17,10.36,7.01,14.35c1.32,1.38,3.7,1.13,5.13,0.34
		c4.41-2.44,8.48-5.73,9.33-10.92c0.67-4.12,2.12-3.52,4.9-2.31c8.66,3.78,17.21,7.98,26.18,10.83c5.33,1.69,4.63,3.82,3.23,7.69
		c-4.91,13.57-4.82,13.6-17.9,19.18c-2.62,1.12-5.39,2.01-7.8,3.47c-8.51,5.18-17.66,4.7-26.95,3.43c-0.6-0.08-1.21-0.29-1.79-0.2
		c-9.32,1.44-15.38-3.93-21.4-9.85c-6.2-6.11-12.7-11.94-19.26-17.66c-2.72-2.37-2.29-3.49,0.65-4.96c1.86-0.93,3.61-1.36,5.6-0.89
		c4.97,1.16,9.73,2.72,14.25,5.27c7.98,4.5,16.06,4.98,24.36-0.97c-2.26-0.63-3.75,0.37-5.14,1.1c-6.24,3.29-12.33,1.86-17.91-1.2
		c-5.36-2.94-10.96-4.69-16.82-6.04c-3.09-0.71-4.84,2.08-7.49,2.32c-1.71-8.13,2.42-39.37,5.95-45.1c0.16,0.19,0.45,0.36,0.46,0.54
		c0.24,6.09,0.27,5.67,6.42,6.18c11.22,0.93,19.72-4.12,27.6-11C515.81,407.25,515.59,406.93,515.37,406.61z"/>
	<path class="st1" d="M527.84,366.55c0.09,1.45,0.39,2.93,0.23,4.35c-0.58,5.06,0.53,9.26,5.52,11.59c3.42,1.6,1.14,5.22,3.27,8.63
		c0.21-4.8,0.46-8.61,4.09-11.32c-3.27,2.12-6.01,2.9-8.83-0.3c-1.25-1.42-2.34-2.56-2.2-4.6c0.1-1.48,0.08-3.07-0.34-4.48
		c-2.54-8.46,1.52-13.89,8.01-18.48c11.5-8.14,13.55-8.09,26.38,1.8c-4.47,2.15-8.07,5.15-11.24,8.64c-3.1,3.4-6.08,6.88-8.41,11.74
		c2.59-0.72,3.08-2.61,4.02-3.87c3.89-5.21,7.96-10.2,13.63-13.59c1.83-1.1,3.61-2.15,5.72-0.31c1.69,1.48,3.81,0.98,5.58,0.25
		c3.44-1.41,5.04-0.01,5.82,3.18c0.11,0.43,0.41,0.83,0.47,1.26c1.79,11.85,9.97,17.68,20.24,21.56c1.26,0.48,2.51,0.99,3.74,1.54
		c7.16,3.21,8,5.56,4.41,12.35c-0.42,0.8-0.95,1.55-1.25,2.39c-3.43,9.43-9.49,16.01-19.59,18.31c-0.71,0.16-1.6,0.43-1.99,0.96
		c-3.48,4.8-7.02,3.65-10.82,0.39c-1.23-1.05-2.8-1.75-4.3-2.42c-11.21-5.02-12.59-3.36-17.84,3.11
		c-5.27,6.5-11.19,12.48-17.21,19.12c-6.24-13.15-12.2-25.71-18.38-38.74c3.4,0.3,5.59,3.12,9.28,3.3c-2-2.4-4.28-3.22-6.35-4.18
		c-2.37-1.09-3.34-2.05-2.24-4.96c3.42-9.07,6.44-18.3,9.61-27.46C527.17,366.4,527.5,366.47,527.84,366.55z"/>
	<path class="st1" d="M493.47,176.14c1.91-2.39,3.83-4.77,5.95-7.41c-0.16,16.47-3.42,22.29-17.89,32.13
		c-0.45-2.98,2.25-5.12,1.96-8.63c-2.75,3.1-3.47,6.48-4.73,9.51c-3.57,8.58-9.79,14.21-18.48,17.13
		c-8.66,2.91-17.37,5.67-26.08,8.47c-0.83,0.27-1.98,0.73-2.55,0.39c-4.88-2.95-9.76-5.93-14.41-9.22c-1.8-1.27,0.45-2.31,1.11-3.17
		c9.92-12.65,19.9-25.24,29.9-37.83c1.12-1.41,2.42-2.69,2.03-5.18c4.8,1.96,8.78,4.24,12.47,6.97c1.89,1.4,3.28,1.36,5.07-0.11
		c2.31-1.91,4.87-3.51,7.28-5.31c8.68-6.48,11.75-15.39,7.07-25.15c-4.81-10.02-5.17-18.94,2.04-27.8c1.75-2.15,2.86-4.83,4.53-7.72
		c3.18,7.1,4.26,14.04,5.61,20.88c1.74,8.81,3.13,17.69,4.99,26.47c0.77,3.64-0.27,6.31-2.59,8.9c-1.62,1.81-2.97,3.86-4.45,5.8
		C492.69,175.57,493.08,175.85,493.47,176.14z"/>
	<path class="st1" d="M423.27,88.82c7.82-2.53,14.96-4.74,22.02-7.2c1.65-0.57,2.8-0.34,4.17,0.46c4.65,2.74,9.34,5.41,14.03,8.08
		c1.39,0.79,2.02,1.95,2.55,3.48c1.5,4.34,2.18,9,5.52,12.77c-1.3-4.33-2.6-8.65-4.17-13.89c6.48,3.73,12.22,6.84,17.74,10.3
		c2.41,1.51,3.24,7.65,1.82,10.18c-2.78,4.97-5.3,10.13-8.47,14.84c-2.86,4.24-2.56,8.19-0.93,12.65c1.93,5.3,4.49,10.32,4.99,16.21
		c0.58,6.8-2.94,11.21-7.33,15.03c-8.53,7.42-8.56,6.96-18.69,2.05c-4.87-2.36-6.63-5.21-6.39-10.67
		c0.49-11.24-0.07-22.52,0.22-33.78c0.2-7.79-0.15-15.11-8.16-19.99c5.07-2.21,9.92-0.5,14.26-2.33c-4.23,0-8.48-0.26-12.68,0.08
		c-3.66,0.29-6.52-0.91-8.74-3.55C431.12,98.86,427.39,94,423.27,88.82z"/>
	<path class="st1" d="M360.58,195.7c0,17.23-0.02,33.58,0.03,49.93c0.01,1.8-0.67,3.09-1.83,4.38c-5.62,6.25-10.9,12.83-16.83,18.76
		c-3.09,3.09-8,3.49-11.89,5.65c-2.91,1.61-6.03,3.47-9.7,3.15c-1.04-0.09-1.77,0.5-2.16,1.34c-1.35,2.95-3.87,4.74-7.36,6.77
		c3.31,0.61,5.26-0.78,6.03-2.25c1.85-3.53,5.01-4.09,8.26-5.23c4.6-1.61,8.93-3.96,14-5.39c-5.58,8.03-11.16,16.06-16.75,24.08
		c-1.23,1.76-2.63,1.91-4.62,0.93c-2.61-1.28-5.24-2.69-9.07-3.24c2.73,2.97,6.26,2.85,8.84,5.41c-8.74,3.12-17.17,6.45-25.8,9.09
		c-4.62,1.41-6.96-0.98-6.37-5.95c1.16-9.92-3.66-18.37-6.69-27.19c-0.86-2.5-4.18-4.15-6.37-6.2c-1.6-1.5-3.19-3.01-4.4-5.24
		c10.4,1.75,20.85,3.23,31.17,5.37c5.63,1.17,10.23-0.12,13.98-3.99c8.23-8.5,16.19-17.26,24.26-25.92
		c0.61-0.66,1.05-1.65,1.79-1.98c8.02-3.55,9.66-11.32,12.16-18.43c1.99-5.64,3.6-11.42,5.41-17.12
		C357.37,200.31,357.86,198.08,360.58,195.7z"/>
	<path class="st1" d="M446.12,433.41c-1.38,4.19-2.62,7.52-3.55,10.92c-1.06,3.87,1,6.03,5.11,5.88c4.61-0.17,8.78-1.7,12.88-3.62
		c4.07-1.9,8.21-3.63,12.75-5.62c-0.39,5.5-0.68,10.64-1.14,15.76c-0.23,2.49,0.67,4.21,2.52,5.82c3.97,3.44,7.68,7.19,11.7,10.56
		c1.82,1.52,2.38,2.77,1.17,4.92c-1.17,2.08-2.27,4.28-2.94,6.56c-1.95,6.58-7.31,8.97-13.19,11.37c-0.55-4.51-1.74-8.56-4.12-13.2
		c-0.59,3.7,1.07,5.95,1.71,8.39c1.31,5.02,0.59,5.99-3.92,8.3c-9.86,5.04-19.03,3.61-27.98-2.11c-2.66-1.7-5.43-3.2-8.48-4.11
		c-1.67-0.5-2.93-1.53-2.03-3.24c1.28-2.45,1.26-4.32,0.66-7.25c-1.11-5.45-0.08-11.33,0.12-17.04c0.08-2.24,0.78-4.55,0.44-6.71
		c-1.15-7.45,2.04-12.46,7.95-16.57C439.28,439.98,442.27,436.81,446.12,433.41z"/>
	<path class="st1" d="M423.93,487.62c0.02,4.68-0.21,9.04,4.34,11.74c1.31,0.78,1.21,1.82,0.26,2.97c-1.05,1.27-1.87,2.75-2.96,3.97
		c-2.05,2.3-2.71,4.28-0.14,6.88c2.16,2.19,0.99,7.39-2.35,10.67c-5.47,5.37-11.42,10.14-19.16,13.03
		c-0.16-2.99-0.31-5.79-0.52-9.66c-1.84,2.7-1.35,4.7-1.24,6.49c0.19,2.91-0.72,4.16-3.77,3.67c-4.73-0.76-9.48-1.43-14.24-2
		c-1.48-0.18-2.09-0.68-2.15-2.19c-0.5-12.44-1.05-24.88-1.29-37.63c4.24,7.81,7.66,16.55,18.73,16.38
		c-9.3-1.87-13.4-8.79-16.68-16.67c-0.82-1.96-0.74-3.18,0.55-4.81c5.42-6.82,10.75-13.71,16-20.66c1.04-1.37,2.12-1.87,3.77-1.84
		c5.86,0.1,11.73,0.2,17.59,0.09c3.2-0.06,3.67,1.34,4.04,4.33c1.69,13.53-8.34,21.07-14.89,30.42c-0.79,1.12-2.57,1.67-2.12,4.42
		C414.13,501.08,418.35,493.8,423.93,487.62z"/>
	<path class="st1" d="M385.65,537.17c2.61,0.27,4.51,0.12,6.14,0.69c9.48,3.35,17.34-0.29,24.44-5.95
		c4.48-3.57,9.46-6.83,11.34-12.97c0.82-2.67,1.47-4.57-0.82-6.78c-1.71-1.66,1.79-9.51,4.16-9.67c1.19-0.08,1.73,1.06,2.48,1.74
		c7.06,6.5,14.19,12.94,21.1,19.6c2.11,2.03,4.2,3.03,7.13,2.86c3.44-0.2,6.91,0.15,10.35,0.01c2.49-0.1,3.19,0.97,2.89,3.22
		c-0.4,2.99-1.04,5.66-3.42,7.99c-7.39,7.25-14.54,14.75-21.74,22.19c-1.12,1.15-2.27,1.75-3.94,1.71
		c-10.8-0.27-21.59-0.49-32.39-0.65c-1.67-0.02-2.77-0.78-3.91-1.85C401.82,552.16,394.13,545.04,385.65,537.17z"/>
	<path class="st1" d="M373.52,578.9c7.71,2.38,14.63-2.61,22.17-4.57c1.57-0.41,2.42-1.67,3.23-2.97c1.6-2.54,3.32-5.01,4.83-7.6
		c1.48-2.53,2.78-4.87,5.5-1.11c0.92,1.27,2.43,0.92,3.76,0.98c6.59,0.32,13.18,0.73,19.78,0.94c2.11,0.07,3.12,0.6,3.63,2.88
		c0.95,4.25,1.11,8.22-1.06,12.19c-3.09,5.66-6.3,11.29-8.83,17.2c-1.73,4.04-4.47,5.83-8.46,6.94c-9.08,2.54-18.07,5.42-27.08,8.19
		c-1.9,0.58-3.55,0.82-5.53-0.29c-8.88-5.01-17.85-9.89-26.89-14.61c-2.38-1.25-2.57-2.16-0.96-4.24c2.93-3.8,5.62-7.78,8.33-11.74
		C367.7,578.48,370.3,578.89,373.52,578.9z"/>
	<path class="st1" d="M427.31,495.03c3.69,0.3,5.64,1.5,7.43,2.77c11.64,8.23,23.19,7.33,35.54,1.11
		c8.55-4.3,15.56-9.26,18.15-18.91c0.85-3.17,2.3-3.33,4.45-0.96c1.31,1.44,2.97,2.57,4.23,4.04c5.48,6.35,12.13,9.95,20.73,9.25
		c1.32-0.11,2.53,0.26,2.66,1.76c0.35,3.99,1.43,8.01-0.52,11.94c-3.56,7.16-9.08,12.64-14.93,17.88c-1,0.9-2.08,0.97-3.32,0.95
		c-13.52-0.26-27.03-0.49-40.55-0.71c-1.37-0.02-2.66-0.08-3.76-1.11C447.66,513.94,437.88,504.86,427.31,495.03z"/>
	<path class="st1" d="M232.54,378.31c0.16,3.48-1.16,6.64-1.44,9.97c2.44-2.04,2.49-4.96,2.84-7.62c0.26-1.99,0.91-2.8,2.91-3.16
		c2.84-0.5,5.66-0.63,8.52-0.68c5-0.08,5.47,0.35,3.26,4.7c-3.66,7.21-7.19,14.58-13.7,19.85c-1.5,1.22-3.04,2.39-4.67,3.67
		c-1.67-1.35-0.08-4.14-1.34-6.52c-1.52,1.6-1.4,3.37-0.77,4.71c1.62,3.47,0.68,6.6-0.6,9.83c-0.89,2.23-2.06,4.48-2.29,6.8
		c-1.21,12.2-9.88,19.04-18.55,25.63c-7.76,5.9-16.1,11.03-24.12,16.57c-7.95,5.49-16.17,2.83-24.21,0.64
		c-3.34-0.91-6.25-1.25-9.59-0.24c-9.6,2.92-17.53-0.98-21.54-10.15c-0.62-1.43-0.61-2.16,0.92-2.72c2.24-0.82,4.29-1.67,6.92-1.07
		c9.34,2.13,18.81,3.71,28.11,5.95c4.49,1.08,7.88-0.41,11.12-2.94c10.99-8.6,21.33-18.02,32.59-26.3c4.27-3.14,6.95-7.7,7.73-12.85
		c1.43-9.43,5.74-17.93,8.08-27.02C224.15,379.83,227.62,378.54,232.54,378.31z"/>
	<path class="st1" d="M360.25,537.39c0.48-2.6,2.22-4.09,4.45-5.24c3.19-1.65,6.34-3.39,9.49-5.13c4.49-2.49,4.8-2.47,4.89,2.85
		c0.08,4.6,0.52,8.32,5.57,10.54c1.94,0.85,5.9,2.13,4.53,6.33c-0.06,0.18,1.88-1.1,2.92-0.11c4.02,3.82,8.07,7.61,12.04,11.49
		c1,0.98,0.03,1.97-0.5,2.81c-2.07,3.3-4.22,6.55-6.27,9.87c-0.76,1.24-1.83,2.01-3.15,2.38c-7.07,1.98-13.63,6.13-21.61,4.07
		c-3.68-0.95-6.73,0.74-8.91,4.42c-2.71,4.56-6.18,8.66-9.85,13.67c-2.33-6.64-2.52-12.97-4.29-18.89
		c-2.16-7.24-1.63-13.84,2.66-20.35c2.43-3.69,3.67-8.16,5.45-12.27c2.92,2.24,1.12,5.33,1.16,7.93c0.09,5.53-0.21,5.54,5.87,4.72
		c3.56-0.74,7.2-0.97,10.21-1.51c1.18-0.12,0.39-0.8,0.62-0.24c-3.78,1.08-7.85,0.62-11.57,2.09c-5.2-0.03-5.13-0.03-4.99-5.28
		C359.08,546.78,358.63,541.99,360.25,537.39z"/>
	<path class="st1" d="M509.29,647.35c0.79,2.69-2,7.47-5.54,8.51c-6.45,1.89-13,3.48-19.7,4.23c-2.14,0.24-4.26,0.19-5.44-2.12
		c-1.13-2.22-1.46,1.02-3.11,0.34c-7.45-3.08-15.33-5.14-22.76-8.28c-3.48-1.47-4.44-5.78-6.07-9.08c-0.46-0.94,0.57-1.69,1.31-2.09
		c5.35-2.87,4.56-8.13,4.26-12.64c-0.11-1.68-0.15-2.2,1.12-2.75c3.16-1.37,6.31-2.6,9.93-2.45c5.09,0.22,10.24,0.42,15.3-0.04
		c6.53-0.59,11.96,1.21,16.95,5.36c3.3,2.74,7.03,4.97,10.57,7.42c4.37,3.02,5.51,7.65,3.2,13c-5.25,1.69-10.81,1.86-16.06,3.6
		c-0.68-0.42,0.41-0.44,0.05,0.04C498.64,649.4,503.83,647.66,509.29,647.35z"/>
	<path class="st2" d="M217.85,389.12c-1.15,3.89-1.71,6.82-2.86,9.5c-2.33,5.42-2.35,11.36-4.28,16.89
		c-2.47,7.07-9.15,9.69-14.05,14.1c-7.65,6.89-15.89,13.12-23.82,19.69c-2.53,2.1-5.02,3.3-8.53,2.49
		c-8.57-1.96-17.22-3.56-25.83-5.34c-0.82-0.17-2,0.15-2.34-0.91c-0.41-1.25,0.74-1.94,1.5-2.51c6.12-4.58,13-7.28,20.54-5.12
		c5.03,1.44,8.78,0.62,12.81-2.42c6.09-4.59,12.36-8.98,18.87-12.93c4.61-2.79,7.85-6.44,9.75-11.3
		C203.17,402.22,210.44,396.37,217.85,389.12z"/>
	<path class="st1" d="M417.85,629.47c-7.35,1.83-12.19-2.95-17.28-6.36c-3.08-2.06-1.1-6.1-1.37-9.23c-0.2-2.33,2.04-2.14,3.52-2.62
		c4.7-1.5,9.39-3.05,14.12-4.48c1.32-0.4,2.93-2.08,4.01,0.5c0.5,1.19,0.75,0.35,0.72-0.22c-0.15-2.7,2.5-2.06,3.65-3.16
		c2.39-2.28,4.25-1.21,6.13,0.6c2.73,2.64,3.96,10.12,1.65,12.85c-1.59,1.88-2.63,3.97-3.64,6.07
		C426.93,628.46,423.49,631.25,417.85,629.47z"/>
	<path class="st1" d="M512.69,628.48c-0.45-4.36,1.31-6.9,5.88-7.17c0.58-0.03,1.23-0.17,1.72-0.47c4.9-2.99,8.73-1.07,12.84,2.07
		c3.73,2.85,3.18,6.7,4.07,10.41c2.16,9-4.77,12.77-9.77,17.5c-2.06,1.94-4.83,0.07-7.23-0.57c-7.35-1.97-7.35-1.98-7.38-9.58
		c-0.01-2.83,0.35-5.62-2.36-7.78c-2.03-1.63,0.05-3.16,0.8-4.63c0.04-0.08,0.29-0.1,0.41-0.06c0.13,0.04,0.22,0.19,0.33,0.3
		c1.75,3.68,5.58,2,8.31,3.16c0.9,0.38,2.08-0.01,3.12,0.12c0.42,0.05,1.16-0.27,1.1,0.27c-2.81-0.48-5.86-0.6-8.84-1.21
		C514.18,630.53,512.58,630.7,512.69,628.48z"/>
	<path class="st1" d="M463.13,428.26c1.2,0,2.4,0,3.6,0c8.89,0,9.32,0.58,7.3,9.28c-0.23,0.99-0.58,1.75-1.45,2.05
		c-7.85,2.78-14.84,7.79-23.34,8.93c-4.65,0.62-6.24-0.77-4.81-5.26c1.35-4.25,3.14-8.38,5.01-12.44c0.82-1.78,2.49-2.9,4.72-2.84
		c2.99,0.08,5.98,0.02,8.97,0.02C463.13,428.09,463.13,428.17,463.13,428.26z"/>
	<path class="st1" d="M436.33,631.65c3.77,0.66,7.04,0.49,10.32,0.29c0.94-0.06,2.22-0.49,2.72,0.85c0.43,1.16-0.21,2.05-1.1,2.7
		c-3.38,2.49-6.77,4.96-10.17,7.43c-0.24,0.18-0.5,0.36-0.78,0.45c-1.99,0.63-15.04-6.01-15.83-8.02c-0.7-1.79-0.95-3.5,1.76-3.1
		c3.2,0.48,4.51-1.37,5.8-3.75c1.29-2.36,2.72-4.67,4.34-6.81c1.4-1.86,1.58-5.36,5.11-4.72c3.45,0.62,6.73,1.07,8.54,5.25
		c3.9,9.02,4.18,8.88-5.28,9.06C440.11,631.3,438.47,631.49,436.33,631.65z"/>
	<path class="st3" d="M87.88,325.71c5.29,6.39,15.45,8.22,16,18.48c2.05-0.97,0.5-2.73,1.48-3.7c8.07,2.76,5.05,9.65,5.9,15.16
		c-0.39,0.04-0.55,0.11-0.68,0.07c-5.72-1.65-13.12-1.54-16.4-6.36C89.64,342.68,87.8,334.32,87.88,325.71z"/>
	<path class="st1" d="M538,445.24c-0.12,4.14-5.42,10.95-9.28,11.97c-1.49,0.39-2.91,0.32-4.04-1.08c-2.78-3.43-4.64-7.27-5.5-11.6
		c-0.24-1.24-0.1-2.31,0.85-3.29c1.14-1.18,2.12-2.5,3.2-3.74c5.32-6.13,5.35-6.14,8.96,0.97c0.84,1.67,1.82,3.04,3.69,3.65
		C537.42,442.62,538.53,443.5,538,445.24z"/>
	<path class="st4" d="M630.44,250.04c-6.4-0.91-11.86-3.99-17.58-6.39c-3.39-1.42-0.75-2.97-0.11-4.49
		c0.87-2.05,2.02-2.26,3.64-0.71C620.76,242.66,624.97,247.09,630.44,250.04z"/>
	<path class="st5" d="M364.81,556.34c-5.42,2.29-6.73,1.28-6.53-4.32c0.1-2.7,1.29-5.61-0.61-8.21c0.86-2.14,1.72-4.28,2.58-6.42
		c-0.16,4.44-0.36,8.96-0.94,13.29c-0.7,5.27,1.35,6.07,5.53,5.71L364.81,556.34z"/>
	<path class="st6" d="M509.29,647.35c-5.3,1.97-11.07,1.76-16.38,3.73c5.11-2.89,10.72-3.74,16.4-4.32
		C509.3,646.96,509.29,647.15,509.29,647.35z"/>
	<path class="st7" d="M512.69,628.48c2.66,3.13,6.5,1.92,9.81,2.68c1.34,0.31,3.51-0.97,3.82,2.21c-3.73-1.58-7.56-1.39-11.29-1.97
		c-2.06-0.32-2.93-1-3.04-2.93C512.22,628.5,512.45,628.5,512.69,628.48z"/>
	<path class="st8" d="M151.97,375.38c2.91-5.48,4.94-11.38,7.77-16.9c1.37-2.68,1.51-4.23-1.83-5.19c-2.13-0.62-4.14-1.77-6.07-2.91
		c-3.59-2.11-5.76-1.11-7.3,2.63c-1.34,3.27-3.03,6.4-3.06,10.13c-4.02-5.46,4.73-9.89,0.89-15.33c10.97,0.44,20.24-5.02,30.02-8.57
		c11.39-4.13,22.62-8.68,34.09-13.12c-2.25,20.21-15.91,35.49-37.85,30.37c-4.73-1.11-6.6-0.03-8.26,4.11
		C158.26,365.84,156.35,371.25,151.97,375.38z"/>
	<path class="st9" d="M238.44,343.11c-6.85-0.82-12.71-6.73-13.35-13.59c-0.82-8.93-1.18-17.91-1.7-26.87
		c-0.02-0.4,0.27-0.81,1.26-1.32c0.42,4.69,0.89,9.38,1.23,14.08c0.21,2.84,0.26,5.69,0.31,8.53
		C226.33,332.77,229.6,339.61,238.44,343.11z"/>
	<path class="st10" d="M221.98,244.93c3.27,1.31,6.65,2.41,9.77,4.01c2.74,1.41,3.99,0.89,4.61-2.07c0.32-1.52,1.06-2.95,1.92-5.26
		c0.39,5.31-7.33,27.94-10.82,32.57c-0.76-1.94,0.6-3.16,1.06-4.51c1.45-4.24,2.82-8.52,4.57-12.64c1.6-3.76,1.11-6.02-3.17-7.28
		C227,248.89,224,247.86,221.98,244.93z"/>
	<path class="st11" d="M154.88,424.96c-4.05,1.15-7.54,2.13-11.03,3.13c-3.87,1.11-7.72,2.11-11.19,4.41
		c-3.02,2-5.65,0.52-5.98-3.14c-0.45-4.93,0.71-9.64,2.43-14.68c1.84,1.72,0.29,3.06,0.23,4.32c-0.07,1.47-0.62,2.92-0.81,4.39
		c-0.19,1.48-0.32,2.99-0.27,4.48c0.15,3.9,1.11,4.39,4.54,2.57c6.42-3.39,13.53-4.65,20.47-6.4
		C153.53,423.97,153.93,424.4,154.88,424.96z"/>
	<path class="st12" d="M215.11,316.18c-0.57-9.49,5.29-19.21-1.82-28.42c3.24,0.83,2.59,4.33,4.84,5.57
		c0.76-1.62,1.5-3.17,2.23-4.73c0.41,0.12,0.83,0.23,1.24,0.35C217.64,297.64,217.98,307.22,215.11,316.18z"/>
	<path class="st13" d="M208.72,246.52c-2.58,11.41-5.64,22.84,0.85,34.14C201.61,270.88,203.46,259.53,208.72,246.52z"/>
	<path class="st14" d="M172.35,417.37c12.06-2.23,15.39-12.27,20.95-21.59C191.82,405.83,180.32,420.53,172.35,417.37z"/>
	<path class="st0" d="M140.74,343.02c-1.55-4.06-1.46-18.35,0-22.83C140.74,328.57,140.74,335.8,140.74,343.02z"/>
	<path class="st15" d="M113.39,336.67c2.73-5.59,5.46-11.19,8.2-16.78c0.47,0.23,0.93,0.46,1.4,0.68
		c-2.7,5.61-5.41,11.21-8.11,16.82C114.37,337.15,113.88,336.91,113.39,336.67z"/>
	<path class="st16" d="M212.82,369.44c0.44-3.02,2.9-4.32,4.51-6.31c0.83-1.03,2.32-2.13,1.73-3.39c-0.76-1.64-2.65-0.74-4.07-0.74
		c-1.09,0-2.17,1.24-3.57-0.23c2.32-1.33,4.65-1.93,7.13-1.28c3.09,0.81,2.71,3.16,1.34,4.88
		C217.82,364.95,215.2,367.1,212.82,369.44z"/>
	<path class="st14" d="M155.57,67.21c-5.94,2.59-6.2,8.05-6.87,13.3C146.62,74.19,149.25,68.96,155.57,67.21z"/>
	<path class="st17" d="M132.96,419.55c-0.2-2.79,1.24-4.88,3.13-6.8C136.18,415.45,134.66,417.54,132.96,419.55z"/>
	<path class="st16" d="M315.59,173.02c-1.54,3.98-4.77,6.35-7.66,9.07c-5.82,5.46-12.49,9.76-18.98,14.32
		c-2.32,1.63-2.49,3.11-1.24,5.54c2.21,4.29,2.52,8.99,1.56,14.07c0.62-12.72-6.56-20.3-17.23-25.62c0.45-0.46,0.9-0.91,1.35-1.37
		c2.88,2.05,5.88,3.96,8.6,6.21c2.2,1.82,3.62,1.77,6.07-0.01C297.62,188.3,307.22,181.48,315.59,173.02z"/>
	<path class="st18" d="M251.65,208.02c-4.44-4.3-5.67-10.07-11.39-11.46c1.86-2.56,4.14,1,5.79-0.97c1.24-1.47,1.97-3.33,3.7-4.45
		c4.51-2.93,9.37-4.7,15.77-5.33c-2.52,2.28-4.83,2.19-6.82,2.88c-2.41,0.83-4.78,1.68-6.92,3.11c-5.27,3.53-5.76,5.92-2.26,11.16
		C250.31,204.14,251.46,205.17,251.65,208.02z"/>
	<path class="st18" d="M200.38,189.54c0.07-3.79-0.53-6.85,4.65-3.88c6.41,3.68,13.72,5.69,21.09,7.08
		c1.56,0.29,3.09,0.71,4.54,1.51c-5.53,0.51-10.66-1.24-15.77-2.85c-3.26-1.03-6.42-2.4-9.62-3.62
		C203.37,187.06,201.22,185.29,200.38,189.54z"/>
	<path class="st15" d="M286.2,228.36c-8.81-2.25-19.24,0.79-25.71-8.89c3.72,2.54,7.2,5.41,12.13,5.61
		c4.65,0.19,9.26,1.13,13.89,1.74C286.41,227.34,286.3,227.85,286.2,228.36z"/>
	<path class="st11" d="M540.13,121.12c2.96,0.67,4.6,2.69,5.67,5.08c8.12,18.03,17.43,35.52,24.68,53.94c0.91,2.3,2,2.16,3.69,1.64
		c4.65-1.43,9.29-2.86,14.1-3.85c-2.27,2.47-5.51,2.77-8.38,3.71c-7.95,2.6-7.98,2.5-7.78,10.5c0.05,1.91,0.01,3.83,0.01,5.67
		c-1.38,0.3-1.64-0.51-1.54-1.23c1.81-12.76-4.46-23.27-9.5-34.11c-4.87-10.46-9.92-20.84-14.71-31.34
		C544.72,127.53,542.78,124.16,540.13,121.12z"/>
	<path class="st19" d="M348.08,107.56c-1.55-5.08-2.5-10.21-2.09-15.44c0.46-0.03,0.93-0.06,1.39-0.1
		C347.61,97.2,347.85,102.38,348.08,107.56z"/>
	<path class="st18" d="M559.5,295.85c10.83,6.21,21.57,12.09,32.01,18.46c4.44,2.71,8.42,4.88,13.28,1.36
		c0.49-0.35,1.13-0.27,1.69,0.35c-2.36,3.23-8.16,1.72-9.25,7.28c-0.73,3.69-3.46,6.99-5.29,10.47c-0.4-0.21-0.8-0.41-1.2-0.62
		c1.44-2.99,2.55-6.21,4.4-8.91c2.43-3.54,1.01-5.55-2-7.26c-10.04-5.71-20.11-11.36-30.18-17.03
		C561.32,299.04,559.47,298.32,559.5,295.85z"/>
	<path class="st20" d="M559.89,387.5c-3.48,5.66-6.95,11.31-11.18,18.2c-0.64-4.79-1.16-8.31-1.57-11.85
		c-0.12-1.04,0.77-1.5,1.61-1.91c3.45-1.7,6.89-3.44,10.34-5.16C559.36,387.03,559.62,387.27,559.89,387.5z"/>
	<path class="st18" d="M287.34,295.44c6.31-0.38,10.82-7.94,18.21-4.05C298.54,289,294.23,297.32,287.34,295.44z"/>
	<path class="st16" d="M432.06,481.41c2.12-8.15,9.5-15.08,15.55-15.44c6.2-0.37,11.73,3.7,14.44,11.03
		c-2.27-1.15-3.07-3.09-4.3-4.55c-5.41-6.46-11.12-6.85-17.37-1.3C437.31,473.87,435.41,477.58,432.06,481.41z"/>
	<path class="st5" d="M364.85,556.39c4.07-1.98,8.52-1.57,12.87-1.8c-4.23,1.03-8.45,2.2-12.91,1.75
		C364.81,556.34,364.85,556.39,364.85,556.39z"/>
	<path class="st21" d="M483.94,633.87c-6.2,3.08-12.6,3.74-20.43,1.18c4.55-0.38,7.69,1.25,10.93,0.65
		C477.61,635.11,480.77,634.48,483.94,633.87z"/>
	<path class="st3" d="M176.44,345.81c0.22-0.19,0.64-0.46,0.6-0.55c-2.33-5.79,1.9-6.76,5.82-8.21c7.01-2.58,13.95-5.36,21.82-8.4
		c-2.58,10.27-6.13,19.12-15.42,23.99c-12.96,6.79-24.85,1.85-37.55-4.14c7.06-1.86,12.86-4.18,18.57-6.64
		c2.91-1.25,4.72-1.42,5.01,2.38C175.34,344.91,175.37,345.79,176.44,345.81z"/>
	<path class="st22" d="M556.33,390.17c-2.3,3.79-4.05,6.66-5.87,9.65C547.5,394.68,547.96,393.84,556.33,390.17z"/>
</g>
</svg>
