<?xml version="1.0" encoding="utf-8"?>
<!-- Generator: Adobe Illustrator 24.3.0, SVG Export Plug-In . SVG Version: 6.00 Build 0)  -->
<svg version="1.1" id="Layer_1" xmlns="http://www.w3.org/2000/svg" xmlns:xlink="http://www.w3.org/1999/xlink" x="0px" y="0px"
	 viewBox="0 0 720 720" style="enable-background:new 0 0 720 720;" xml:space="preserve">
<style type="text/css">
	.st0{fill:#010101;}
	.st1{fill:#FEE800;}
	.st2{fill:#D04461;}
	.st3{fill:#A09642;}
	.st4{fill:#030303;}
	.st5{fill:#070807;}
	.st6{fill:#090908;}
	.st7{fill:#0B0A08;}
	.st8{fill:#FFFFFF;}
	.st9{fill:#C92127;}
</style>
<g>
	<path class="st0" d="M648,223.74c-7.37,12.12-17.5,21.94-27.53,31.67c-26.44,25.64-55.97,47.21-88.33,64.86
		c-5.69,3.1-11.7,5.52-17.59,8.21c-8.82,4.02-17.68,3.3-26.87,1.65c-15.02-2.7-29.52-6.99-43.67-12.61
		c-1.12-0.44-2.26-0.81-4.14-1.48c14.36,21.66,20.44,44.62,16.37,69.81c-4.04,25-16.62,45.44-34.37,63.19
		c1.19,1.04,2.45,0.58,3.56,0.6c16.86,0.34,33.37,2.76,49.38,8.19c1.58,0.53,3.11,1.25,4.57,2.05c8.48,4.65,11.28,12.69,7.55,21.64
		c-2.19,5.24-5.76,9.54-9.64,13.59c-1.45,1.52-3.05,2.9-4.79,4.55c10.68,5.26,20.91,10.26,31.09,15.32
		c20.79,10.34,41.57,20.72,62.35,31.1c6.08,3.04,8.97,9.58,7.03,15.68c-0.53,1.66-1.46,2.95-2.71,4.13
		c-12.26,11.59-24.47,23.23-36.74,34.81c-6.96,6.57-12.37,7.03-20.43,1.93c-23.13-14.63-46.27-29.23-69.36-43.91
		c-1.82-1.16-3.06-1.38-4.98-0.07c-6.62,4.53-13.41,8.81-20.66,13.52c2.29,0.92,4.09,1.64,5.88,2.37
		c12.65,5.16,25.03,10.81,35.6,19.71c3.96,3.33,7.36,7.14,10.19,11.49c3.84,5.91,4.71,12.17,2.74,18.9
		c-3.72,12.72-11.41,21.06-24.85,23.89c-25.01,5.25-47.95,1.53-68.21-14.76c-7.52-6.05-12.92-13.88-17.42-22.3
		c-1.11-2.07-2.02-2.27-4.08-1.75c-13.65,3.41-27.37,6.5-41.4,8.01c-4.69,0.5-9.39,0.71-14.04,0.08c-2.35-0.32-2.62,0.29-2.29,2.36
		c1.7,10.66,1.77,21.36,0.52,32.07c-1.43,12.27-5.15,23.34-11.86,32.86c-5.52,7.82-9.52,11.21-12.07,12.8
		c-2.1,1.31-7.49,4.58-15.19,4.95c-9.78,0.47-16.82-4.07-19.35-5.75c-0.93-0.62-4.26-2.93-7.78-7.11
		c-5.14-6.09-8.2-13.45-9.71-21.62c-4.4-23.82-0.18-45.97,13.91-65.95c1.87-2.66,4.13-5,6.64-7.06c1.19-0.97,1.34-1.66,0.31-2.96
		c-10.22-12.83-13.56-27.92-13.86-43.86c-0.06-3.05-1.01-3.78-3.8-4.27c-23.31-4.11-45.49-11.35-65.22-24.81
		c-8.75-5.97-16.44-13.13-21.25-22.8c-4.42-8.87-2.24-17.38,6.02-22.87c10.04-6.67,21.45-8.56,33.25-8.47
		c4.34,0.03,8.68,0.54,13.01,0.83c-0.04-0.5-0.5-0.76-0.98-1.05c-28.12-17.06-44.6-42.24-51-74.15
		c-6.44-32.13-0.87-62.4,15.36-90.75c1.34-2.34,0.7-3.03-1.27-4.2c-22.02-13.08-43.17-27.43-62.83-43.89
		c-5.82-4.87-11.43-10-17.16-14.99c-2.26-1.97-3.11-4.46-3.29-7.4c-1.28-21.13-0.36-42.21,1.52-63.26
		c2.82-31.52,7.4-62.75,16.04-93.27c3.99-14.1,8.79-27.9,16.69-40.41c2.58-4.08,5.64-7.77,9.01-11.22
		c5.2-5.32,10.36-5.92,16.45-1.61c5.48,3.88,10.12,8.77,15.09,13.26c6.81,6.16,13.03,12.9,18.77,20.04
		c17.62,21.95,36.86,42.57,53.34,65.46c11.14,15.46,20.59,31.85,28.2,49.34c3,6.89,1.8,13.63,0.34,20.37
		c-3.84,17.6-9.75,34.58-15.95,51.45c-0.38,1.03-0.81,2.04-1.43,3.59c4.46-1.26,8.43-2.54,12.48-3.52
		c39.26-9.51,77.57-5.93,115.08,8.45c4.77,1.83,4.73,1.89,7.34-2.29c14.54-23.3,30.61-45.39,51.02-64
		c5.63-5.13,11.69-9.69,18.19-13.67c1.39-0.85,2.77-1.24,4.41-1.18c53.13,2.23,105.33,9.99,155.88,26.98
		c14.58,4.9,29.44,9.09,43.33,15.93c3.97,1.95,7.6,4.07,9.62,8.2C648,220.16,648,221.95,648,223.74z"/>
	<path class="st1" d="M424.11,442.41c-12.71,13.69-28.1,23.15-45.46,29.92c-26.5,10.33-53.73,16.85-82.27,16.01
		c-33.98-1.01-66.58-8.49-97.33-23.21c-10.88-5.21-20.17-12.66-28.72-22.23c5.73,1.27,9.9-0.68,13.58-3.97
		c3.61-3.22,6.07-7.25,7.22-11.86c4.1-16.38,0.03-30.69-12.29-42.1c-11.49-10.64-23.41-8.99-34.3,4.17
		c-1.31-4.33-1.65-8.62-1.97-12.88c-2.05-27.7,4.08-53.49,18.59-77.17c5.9-9.63,14.08-17.27,22.76-24.39
		c1.19-0.98,4.08-1.95,2.41-3.91c-1.68-1.96-3.05,0.82-4.24,1.79c-3.97,3.25-7.76,6.72-11.61,10.11c-2.26,2.16-4.07,4.01-5.37,5.38
		c-2.25,2.37-5.14,5.57-5.14,5.57c0,0-6.56-3.48-16.78-8.9c-18.68-12.84-32.25-22.15-33.38-22.99c-1.3-0.95-1.85-1.96-1.84-3.6
		c0.15-30.3,0.53-60.58,4.95-90.64c2.94-19.97,8.92-39.15,15.11-58.9c1.72,3.55,3.18,6.65,4.72,9.7c3.6,7.15,8.37,13.45,13.97,19.14
		c0.74,0.75,1.41,1.99,2.75,1.31c1.27-0.65,0.85-1.92,0.72-3.01c-1.45-11.77-1.41-23.64-2.15-35.46c-0.03-0.4,0.05-0.8,0.12-1.84
		c4.06,3.06,7.3,6.22,10.52,9.39c18.92,18.71,34.68,39.97,49.78,61.76c9.42,13.59,18.8,27.21,28.23,40.79
		c0.99,1.42,1.64,2.62,0.99,4.55c-3.11,9.2-6.04,18.46-9.76,27.45c-0.84,2.03-2.05,3.24-3.99,4.13c-4.27,1.94-8.46,4.05-12.65,6.16
		c-1.02,0.51-2.68,0.98-1.94,2.56c0.76,1.62,2.1,0.66,3.14,0.08c26.54-14.87,55.32-18.96,85.17-17.35
		c21.24,1.14,41.74,5.9,61.49,13.85c2.07,0.83,2.3,1.62,1.06,3.3c-0.79,1.07-1.42,2.27-2.06,3.45c-0.55,1.01-1.82,2.19-0.31,3.18
		c1.52,0.99,2.1-0.58,2.72-1.58c1.06-1.71,2.07-3.45,3.09-5.18c10.55-17.95,22.36-35.02,35.74-50.99c1.51-1.8,3.02-2.52,5.38-2.45
		c31.28,0.9,62.54,2.08,93.37,8.09c16.82,3.28,33.28,7.76,48.41,16.17c0.77,0.43,1.5,0.92,2.52,1.54
		c-6.05,4.76-11.91,9.36-17.76,13.98c-1.76,1.38-3.53,2.75-5.22,4.2c-0.96,0.82-2.66,1.4-2.15,3.04c0.52,1.69,2.23,1.13,3.49,1.14
		c9.27,0.11,18.55,0.16,27.82,0.22c0.97,0.01,1.94,0,3.97,0c-2.89,2.61-5,4.68-7.27,6.54c-31.67,26.04-61.58,42.88-83.6,54.15
		c-3.37,1.72-8.56,4.34-15.01,7.42c-6.12-1.92-10.92-3.91-14.14-5.36c-6.13-2.75-25.65-12.12-27.96-13.1
		c-0.33-0.14-0.29-0.12-1.24-0.47c-1.09-0.41-2.44-1.47-3.14,0.22c-0.68,1.63,0.99,2.01,2.03,2.5c7.68,3.61,15.37,7.18,23.07,10.73
		c1.43,0.66,2.7,1.34,3.71,2.69c23.8,31.69,25.17,74.54,3.37,107.83c-0.36,0.55-0.76,1.07-1.37,1.56c1.96-6.38,2.6-12.8,1.26-19.34
		c-3.81-18.6-22.74-30.85-41.91-27.12c-18.72,3.64-31.44,21.31-28.33,39.36c3.54,20.56,25.28,29.84,40.51,29.06
		C415.4,446.29,420.5,444.3,424.11,442.41z"/>
	<path class="st1" d="M277.72,609.32c-3.47-1.09-15.03-4.74-24.01-12.42c-11.59-9.92-15.06-23.27-16.69-29.76
		c-3.9-15.49-2.19-30.82,1.58-46.07c1.5-6.07,2.84-12.18,4.2-18.28c0.25-1.13,0.98-2.68-0.67-3.17c-1.76-0.53-1.86,1.22-2.12,2.32
		c-3.01,12.37-5.88,24.77-7.73,37.38c-0.24,1.61-0.31,2.77-2.52,2.37c-25.44-4.61-49.66-12.29-70.38-28.44
		c-6.27-4.88-11.81-10.63-15.32-17.95c-3.66-7.65-1.84-14.65,5.3-19.25c9.64-6.2,20.49-7.96,31.74-7.75
		c11.72,0.22,23.04,2.33,33.96,6.78c7.54,3.07,15.28,5.67,23.2,7.64c1.86,0.46,2.69,1.27,2.93,3.31c0.64,5.54,1.47,11.08,3.41,16.35
		c1.25,3.41,2.82,6.66,6.38,8.24c1.39,0.62,1.59,1.83,1.96,2.93c2.82,8.47,5.47,17,8.37,25.45c1.82,5.3,4.28,10.31,8.2,14.47
		c1.89,2,3.08,1.98,4.45-0.64c4.27-8.19,6.73-17,9.29-25.79c0.94-3.22,1.96-6.41,2.81-9.65c0.65-2.47,1.53-2.19,2.92-0.53
		c2.79,3.34,5.53,6.74,8.54,9.88c4.51,4.71,5.68,4.56,9.92-0.48c3.03-3.62,5.05-7.89,7.69-12.28c2.3,2.44,4.47,4.76,6.64,7.06
		c7.35,7.81,14.69,15.63,22.07,23.41c2.83,2.98,3.34,2.94,5.8-0.47c5.09-7.03,7.42-15.2,9.39-23.47c1.01-4.23,1.76-8.53,2.45-12.83
		c0.23-1.44,0.69-2.25,2.19-2.39c5.62-0.53,7.77-4.71,9.41-9.23c1.94-5.37,3.34-10.91,3.95-16.58c0.31-2.87,1.54-4.21,4.2-5.16
		c12.97-4.61,24.6-11.61,35.13-20.44c0.95-0.8,1.88-1.43,3.26-1.43c18.43,0.06,36.55,2.14,54.09,8.09c3.96,1.34,7.68,3.25,9.97,6.96
		c3.78,6.15,1.72,11.88-1.78,17.24c-4.89,7.46-11.3,13.52-18.47,18.76c-8.44,6.17-18.02,10.19-27.35,14.75
		c-14.22,6.96-29.2,9.37-44.76,9.73c-1.47,0.03-4.16-0.86-4.14,1.38c0.02,2.7,2.8,1.43,4.31,1.42c8.39-0.04,16.72-0.9,24.97-2.45
		c1.12-0.21,1.9-0.24,2.36,0.15c0.69,0.58,0.56,1.78,0.51,2.18c-1.37,12.98,1.7,20.84-5.21,33.82c-4.04,7.59-8.92,12.09-13.93,16.71
		c-5.66,5.22-10.47,8.22-17.57,12.64c-7.69,4.79-13.42,8.36-21.86,11.57c-6.61,2.52-12.25,3.79-23.58,6.08
		c-11.93,2.41-17.93,3.06-23.83,3.63c-10.28,1-19.83-2.06-26.1-3.42C283.41,610.87,280.97,610.34,277.72,609.32z"/>
	<path class="st1" d="M298.11,648.35c-0.99,6.77-3.39,23.11-10.8,33.76c-2.18,3.14-4.77,5.96-4.77,5.96
		c-1.44,1.57-3.91,4.09-7.36,6.74c-2.94,2.26-5.78,3.99-8.3,5.32c0.54-1.02,1.24-2.44,2.05-4.12c4.56-9.39,6.89-19.31,7.04-29.74
		c0.02-1.15,0.48-2.89-1.19-3.02c-2.04-0.17-1.59,1.73-1.64,2.97c-0.41,11.46-3.13,22.28-8.83,32.3c-1.09,1.91-2.23,2.67-4.53,2.29
		c-3.67-0.61-7.16-1.63-10.58-3.07c-1.94-0.82-2.39-1.71-1.54-3.79c3.4-8.28,6.21-16.75,7.14-25.73c0.18-1.77,0.23-3.57,0.23-5.35
		c0-0.88-0.54-1.49-1.49-1.43c-0.75,0.05-1.18,0.57-1.29,1.31c-0.06,0.44-0.08,0.89-0.1,1.34c-0.36,9.98-3.49,19.27-7,28.49
		c-0.76,1.98-1.4,2.04-2.95,0.82c-6.76-5.32-11.03-12.32-13.27-20.46c-5.61-20.38-3.16-40.02,6-58.94
		c2.32-5.41,4.85-9.44,6.81-12.17c2.37-3.33,4-4.91,6-5c2.19-0.1,3.9,1.63,4.57,2.29c6.96,6.73,24.57,14.45,37.43,16.29
		c1.52,0.22,5.34-0.14,7.29,2.29c0.79,0.98,0.92,1.93,1.24,5.15c0.91,9.01,0.92,6.24,0.9,11.42
		C299.17,640.37,298.56,645.27,298.11,648.35z"/>
	<path class="st1" d="M423.04,576.56c1.69,0.82,2.82,1.42,4.1,2.1c0,0,2.52,1.33,6.57,3.41c3.48,1.78,5.93,2.95,6.75,3.35
		c5.56,2.72,14.31,7,21.19,14.87c3.5,4.01,9.77,10.58,8.8,19.42c-0.34,3.1-1.21,6.03-2.72,9.37c-3.76-4.96-7.39-9.44-11.73-13.26
		c-4.13-3.64-8.63-6.7-13.66-8.96c-1.08-0.48-2.47-1.34-3.11,0.38c-0.53,1.42,0.88,1.8,1.88,2.25c9.95,4.53,17.37,11.95,23.73,20.63
		c1.09,1.49,1.37,2.69,0.12,4.12c-0.44,0.5-0.74,1.11-1.14,1.65c-4.53,6.11-5.86,6.44-12.57,3.2c-8.27-4-16.07-8.74-23.18-14.58
		c-0.43-0.35-0.86-0.71-1.31-1.04c-0.81-0.57-1.66-0.81-2.34,0.13c-0.57,0.8-0.17,1.5,0.48,2.04c1.19,1.01,2.39,2.02,3.62,2.97
		c6.66,5.12,13.83,9.41,21.38,13.09c1.04,0.51,2.34,0.69,3.17,2.11c-4.69,1.76-9.44,2.76-14.25,3.32
		c-21.33,2.48-40.84-1.85-57.7-15.76c-3.54-2.92-6.68-6.24-9.32-10.02c-0.73-0.93-1.6-2.05-2.58-3.34
		c-0.48-0.63-0.39-0.51-2.38-3.15c0,0-1-1.33-2.65-3.61c-1.46-2.03-1.62-2.3-1.58-2.71c0.15-1.42,2.54-2.2,4.29-2.86
		c3.43-1.29,6.42-3.54,9.75-5.06c5.21-2.37,8.88-5.03,13.68-8.51c9.91-7.18,14.87-10.77,18.29-14.71c0.83-0.96,2.83-3.37,5.71-3.57
		c1.38-0.1,2.71,0.33,4.37,0.85C419.15,574.84,420.22,575.2,423.04,576.56z"/>
	<path class="st2" d="M403.84,380.52c18.19-0.06,32.92,14.18,32.9,31.8c-0.02,17.44-14.63,31.65-32.66,31.78
		c-18.03,0.12-32.92-14.3-32.9-31.87C371.2,394.74,385.79,380.58,403.84,380.52z"/>
	<path class="st2" d="M189.83,415.75c-0.29,8.15-1.88,15.01-7.29,20.4c-5.39,5.37-9.14,5.37-15.29,0.99
		c-4.96-3.52-7.78-8.52-10.61-13.56c-4.67-8.31-8.02-17.16-10.54-26.35c-0.54-1.97-0.38-3.63,0.58-5.43
		c6-11.24,17.14-14.15,27.58-6.75C185.04,392.69,189.23,403.79,189.83,415.75z"/>
	<path class="st3" d="M424.11,442.41c-0.28-0.28-0.55-0.57-0.83-0.85c1.04-1.13,2.28-1.96,4.37-2.97
		C426.21,440.32,425.53,441.68,424.11,442.41z"/>
	<path class="st0" d="M341.93,328.94c0.14-8.11,3.24-16.24,11.88-21.11c8.76-4.93,17.46-3.5,25.65,1.71
		c7.37,4.69,12.04,11.49,14.4,19.86c1.51,5.36,1.72,10.77,0.25,16.2c-3.81,14-16.98,20.84-30.6,15.89
		C351.11,356.98,342.17,344.07,341.93,328.94z"/>
	<path class="st0" d="M176,338.36c0.03-12.73,8.16-25.13,19.46-29.67c12.31-4.95,24.44,1.39,27.38,14.3
		c3.06,13.43-4.5,29.12-16.95,35.18C190.69,365.57,175.96,355.81,176,338.36z"/>
	<path class="st4" d="M276.1,365.73c14.71-0.06,27.85,0.41,40.78,3.39c1.75,0.4,3.14,0.69,2.9,3.13c-2.31,23.45-6,46.68-11.35,69.63
		c-1.78,7.63-4.8,14.85-8.51,21.76c-1.22,2.27-2.54,4.46-4.4,6.28c-3.76,3.68-8.16,4.53-12.88,2.23
		c-5.66-2.76-9.44-7.53-12.36-12.83c-14.89-27.04-26.31-55.39-31.7-85.96c-0.89-5.06-0.91-5,4.3-5.6
		C254.43,366.44,265.99,365.48,276.1,365.73z"/>
	<path class="st5" d="M272.57,352.83c-2.26-0.36-4.79-0.72-4.76-3.61c0.04-2.83,2.45-3.47,4.79-3.47c2.34,0.01,4.75,0.65,4.75,3.51
		C277.36,352.16,274.83,352.48,272.57,352.83z"/>
	<path class="st6" d="M464.99,480.13c-4.42-0.16-9.07-1.82-13.79-3.09c-1-0.27-2.08-0.71-1.7-2.01c0.37-1.26,1.44-1.1,2.49-0.83
		c3.88,0.99,7.75,2.05,11.67,2.85c1.56,0.32,3.83,0.98,4.72-0.39c0.92-1.42-0.85-2.98-1.71-4.35c-1.54-2.47-3.51-4.6-5.63-6.59
		c-0.74-0.7-1.58-1.56-0.72-2.57c1.07-1.24,1.97-0.22,2.8,0.52c2.85,2.54,5.25,5.47,7.13,8.79c1.02,1.82,2.44,3.8,1.06,5.91
		C470,480.39,467.65,480.15,464.99,480.13z"/>
	<path class="st7" d="M148.45,486.49c0.01-2.36,0.9-3.86,2.26-5.1c2.81-2.56,6.42-3.48,9.86-4.73c0.79-0.28,1.61-0.16,1.95,0.76
		c0.4,1.08-0.28,1.66-1.18,2.03c-2.16,0.89-4.37,1.67-6.48,2.66c-1.62,0.76-3.37,1.8-3.37,3.79c0,2,2.04,2.5,3.49,3.15
		c1.81,0.82,3.78,1.29,5.67,1.95c0.77,0.27,1.43,0.73,1.26,1.7c-0.13,0.76-0.69,1.07-1.41,1.17c-2.47,0.34-10.17-3.39-11.4-5.61
		C148.72,487.6,148.57,486.83,148.45,486.49z"/>
	<path class="st8" d="M373.9,323.84c-0.17,6.91-5.35,12.31-11.65,12.16c-6.34-0.15-11.39-6.04-11.15-13.03
		c0.23-6.91,5.4-12.28,11.69-12.14C369.16,310.97,374.07,316.72,373.9,323.84z"/>
	<path class="st8" d="M195.21,323.83c-0.04-6.64,5.11-12.15,11.29-12.07c6.11,0.07,11.1,5.41,11.13,11.91
		c0.03,6.69-5.02,12.06-11.29,12.02C200.19,335.64,195.26,330.38,195.21,323.83z"/>
	<path class="st2" d="M250.45,404.39c0.02-4.3,1.45-8.15,4.08-11.47c7.23-9.12,15.87-16.59,26.19-22.06
		c3.23-1.71,6.61-2.26,10.33-1.97c7.68,0.6,15.37,1.04,22.93,2.61c1.28,0.27,2.9,0.14,2.66,2.5c-2.42,23.11-6.03,46.03-11.5,68.62
		c-1.63,6.73-4.4,13.12-7.64,19.26c-0.88,1.67-1.85,3.34-3.03,4.8c-3.56,4.42-7.76,4.97-12.3,1.59c-3.69-2.75-6.92-5.97-9.18-10.07
		c-8.22-14.88-15.23-30.31-21-46.3C251.11,409.48,250.47,406.99,250.45,404.39z"/>
	<path class="st9" d="M277.76,368.72c-12.18,8.31-23.59,16.6-29.94,30.32c-2.14-5.81-3.28-11.76-4.68-17.63
		c-0.67-2.81-1.03-5.7-1.57-8.54c-0.21-1.07-0.4-2.04,1.11-2.19C254.15,369.53,265.61,368.25,277.76,368.72z"/>
	<path class="st0" d="M261.01,283.86c0,0-9.43-14-7.71-14s17.71,0,17.71,0l-7.43-13.71l16.95,2.57c0,0-6.71-13.14-4.59-14.29
		c2.12-1.14,26.5,15.65,26.5,15.65l-21.91-10.8l3.34,12.86l-14.31-2.06l4.77,10.34l-15.6,2.29L261.01,283.86z"/>
</g>
</svg>
