<?xml version="1.0" encoding="utf-8"?>
<!-- Generator: Adobe Illustrator 24.0.2, SVG Export Plug-In . SVG Version: 6.00 Build 0)  -->
<svg version="1.1" id="Layer_1" xmlns="http://www.w3.org/2000/svg" xmlns:xlink="http://www.w3.org/1999/xlink" x="0px" y="0px"
	 viewBox="0 0 708.4 763.4" style="enable-background:new 0 0 708.4 763.4;" xml:space="preserve">
<style type="text/css">
	.st0{fill:#020202;}
	.st1{fill:#FCD824;}
	.st2{fill:#E82226;}
	.st3{fill:#080706;}
	.st4{fill:#030303;}
	.st5{fill:#0D0806;}
	.st6{fill:#151106;}
	.st7{fill:#100E07;}
	.st8{fill:#675C0F;}
	.st9{fill:#F8F9F9;}
	.st10{fill:#F1F3F3;}
	.st11{fill:#EC2226;}
</style>
<title>Asset 8@</title>
<g id="Layer_2_1_">
	<g id="Layer_1-2">
		<path class="st0" d="M273.1,268.9c-4.7-4.2-9.7-8.1-14.7-12c-36.4-28.1-75.8-52-114.5-76.7c-8.5-5.4-8.6-5.4-15.6,1.8
			c-26.3,27-52.6,54-78.9,80.9c-2.9,3-5.6,6.4-10.2,8.8c-2.7-13.6-5.8-26.6-11.9-38.3c-4-7.7-2.5-12.5,3.1-18.4
			C62.3,182,91.1,146,116.6,107.7c19.4-29.1,34-60.2,41.7-94.5c0.8-3.2,1.3-6.5,1.5-9.8c0.2-7.3-1.4-8.7-8.1-6.5
			c-4.8,1.5-9.4,3.4-13.8,5.8c-43,22.7-79.3,53.5-110.3,90.8c-18.7,22.6-35.3,46.8-49.8,72.3c-5.4,9.5-5.7,9.4-16.5,5.7
			c-14.2-4.9-28.8-8.4-43.8-9.2c-34.9-1.8-69.3,1.2-101.4,16.8c-7,3.3-13.9,3.3-21.3,1c-15.6-4.8-31.3-9-47-13.5
			c-44.5-12.7-89.8-19.3-136.1-18.3c-12,0.4-23.9,1.7-35.7,3.8c-8.3,1.4-10,5.9-5.2,12.6c1.4,1.9,3,3.6,4.7,5.2
			c8.3,8.2,17.8,15.1,28.2,20.5c35.1,18.6,73.2,30.8,112.6,35.9c13.1,1.8,26.2,3.2,39.2,4.3c0.5,3.6-1.6,5.6-2.7,7.9
			c-4.3,9-8.2,18.3-10.1,28.1c-3.5,18.3-8.8,36.2-15.8,53.4c-9.2,23.1-7,45.7,9.8,65.6c7.2,8.7,15.1,16.9,23.6,24.4
			c4,3.5,7.8,7.3,12,10.5c6.5,4.9,7.8,10.8,5.4,18.5c-2.9,9.2-4.4,18.8-5.7,28.3c-2.5,17.8-3.2,35.8-8,53.3
			c-6.4,23.2-10,46.7-12.6,70.6c-3.1,28.8,5,53.3,21.8,75.6c7.3,9.7,6.6,8.8-1.6,16.8c-10.1,9.9-18,21.4-24.6,33.8
			c-5.3,10-0.6,17.9,10.6,18.8c7.7,0.5,15.4-0.5,22.6-3.1c27.1-9.3,51.9-22.4,73.2-41.7c2.3-2.1,4.5-4,7.6-4.5
			c20-3.7,40.1-7.7,60.4-4.5c20.4,3.2,40.8,6.5,61.2,9.4c5.5,0.8,8.9,3.2,11.8,7.8C5,716.9,18.7,731.9,32.3,747
			c5.6,6.3,13.1,10.5,21.4,12c7.2,1.5,11.4-1.1,13.8-8c2.1-6.1,2.3-12.5,1.8-18.8C68,714.6,66,697,59.1,680.5
			c-1.9-4.7-1.2-8.3,2-11.9c12.9-14.6,20.3-31.9,23.5-51c0.9-5.2,3.4-8.9,7.9-11.9c41-27.4,81.7-55.1,124.4-79.9
			c4.6-2.6,9.3-5,13.6-9c-20.7-16.5-44.3-27.3-68-40.9c32.1-21,65-37.7,95.9-58.3c-5.2-6.5-11.5-10.3-18-13.6
			c-23.2-11.7-46.7-22.7-70.3-33.4c-2.9-1.3-6.5-1.7-8.2-4.8c0.1-1.4,0.8-2.7,1.9-3.5c27.4-22.4,53.4-46.4,83-65.8
			c8.6-5.6,17.3-11.3,25.7-17.3C277.5,275.7,277.8,273.2,273.1,268.9z M85.4,565.8c-2.4-9.9-4.2-17.8-6.2-25.7
			c-7.4-29.4-17.8-57.9-28.7-86.1c-6.7-17.3-10.3-35.5-16.3-54.8c26.3,6.8,52.3,15,77.9,24.5c-1.3,5.1-4.4,7.4-6.8,10
			c-11.4,12.6-22.9,25.1-34.3,37.7c-7.3,8.1-5.5,14.8,4.9,18.9c16.7,6.5,33.8,12.3,50.1,19.9c3.3,1.5,7,2.3,10.3,6.4L85.4,565.8z"/>
		<path class="st1" d="M-230.7,529c2.2,21,7.9,40.2,11.5,59.8c0.9,4.9,1.4,9.9,2.2,14.8c0.7,4,2.6,6.9,7.4,6.2
			c3.3-0.5,6.7,0.2,9.5,2c0.8,0.5,2.3,1.1,2.8,0.7c6.4-4.8,14.1-0.8,20.8-3.3c2.5-0.9,5.1-1.3,7.8-1.3c1.3,0,3,0.2,3.9-0.5
			c5.1-3.8,5.7-10.8,11-14.8c2.5-1.9,1.2-6-0.2-8.5c-4.4-7.7-2.8-15.4-1.1-23.3c4-18.8,4.7-37.6,1.1-56.6
			c-1.1-6.1-2.3-12.2-7.5-17.3c-0.2,2.4-0.2,4.8,0,7.2c3.1,22.1,2.8,44.6-0.8,66.7c-1.4,7.2-0.8,14.7,1.7,21.6
			c1.4,3.7,2.9,7.8-2.7,9.8c-1.7,0.6-1.7,2.6-2.3,4.2c-2.1,5.8-2.2,5.8-8.4,3.2c-1.4-0.6-2.7-1.2-3.4,0c-4.2,7.2-8.6,3.8-13.2,0
			c-1.3,1.5-2.4,2.7-3.4,4c-2.3,2.9-5,4-7,0.1c-1.8-3.3-3.5-3.2-6.3-1.5c-2.1,1.3-4.5,0.6-4.3-1.9c1-20.1-7.3-38.4-10.5-57.7
			c-4.4-26.7-3.2-53.1,1.2-79.5c1.1-6.6,2-13.2,3.6-19.6c2.3-9.3,3.1-9.5,11-4.6c2.6,1.5,5.1,3.1,7.8,4.5c1,0.3,2,0.4,3.1,0.4
			c-0.7-4.1-4.3-5.3-6.7-7.3c-14.3-12-29.2-23.3-42.1-36.9c-4.8-5.1-9.3-10.4-13.5-16c-2.7-3.5-3.4-6-0.2-10.3
			c11.5-15.1,9.2-36.5-4.9-49.6c-2.9-2.7-3.2-4.9-1.6-7.7c7.2-12.4,9-26.3,11.6-40c3.7-19.4,11.6-36.8,24.7-51.6
			c0.9-1,1.6-2.1,2.3-3.3c0.1-0.2-0.1-0.6-0.2-1.4c-2.8-2.3-5.6-0.3-7.7,1.3c-6.3,4.7-13.4,5.4-20.9,4.9
			c-19.7-1.2-38.8-5.7-58.3-8.4c-15.3-2.2-24.6-10.1-31.2-23.2c-4.8-9.5-10.9-18.3-14.6-28.4c-0.9-2.4-2.2-4.9-0.5-8.5
			c53.9,0.6,105.2,15.9,155.6,29.8c2.7,4-2.3,5.6-0.1,8.3c0.8,1,1.9,0.6,2.7,0.2c13.7-7.7,27.7-14.7,43-18.4
			c37.8-9.1,75.7-11.4,113.3,1.1c2.5,0.8,5,1.8,7.5,2.7c3,1.1,4.2,2.9,3.1,6.1c-1,2.9-3.1,5.9-0.5,9.7c4.2-1.8,5.7-5.7,7.6-8.9
			c16.9-28.3,35.3-55.7,55.1-82.1c17.6-23.4,38.7-43,61.6-61c4.8-3.8,6.7-3.2,7.9,2.9c4.5,24.1,5,48.3,0,72.5
			c-1.2,5.9-4.4,11.1-7.7,16.2c-13.2,20.2-28.9,38.3-45.3,55.8c-10.5,11.2-20.5,22.7-30.7,34.2c-2.3,2.6-5.1,5.1-5.6,8.8
			c0.7,0.4,1.5,0.8,2.3,1c3.1,0.3,5.1-4.3,8.1-2.4c3.2,2,4.1,5.9,5.5,9.3c10.9,26.8,13.4,54.7,11,83.4c-1.8,21.3-4,42.4-6.5,63.6
			c-1.7,14.6,0.8,28.5,6.3,42c3.6,8.9,7,18,10.8,26.9c2.1,5,1.9,8.6-3.1,11.9c-5.3,3.5-9.8,8.2-13,13.7c-3.9,6.9-2.7,9.8,5,11
			c6,0.9,12,1.1,17.9-0.6c4.4-1.3,6.5-0.1,8.1,4.3c4.8,13.2,8,26.8,12.1,40.1c1.1,3.5-0.2,5.7-2.5,7.9c-5.8,5.5-11.6,11-17.2,16.7
			c-2.3,2.3-6,4.2-4.6,8.2c1.5,4.3,5.8,3.7,9.3,4.2c6.9,0.8,13.9,1.5,21.6,0c2.8,29,1.1,56.5-15.2,81.1C53.2,674.3,36,682,17,686.3
			c-14.7,3.3-29.2,0.9-43.7-1c-12.2-1.5-24.5-3-36.6-5.2c-22-4-43.8-1.4-65.7,1c-14.2,1.6-28.5,4.3-42.7,4
			c-32.7-0.6-59-21.9-68.2-53.5c-3.1-11.2-4.3-22.9-3.7-34.5c1.1-22,5.3-43.6,10.6-64.9C-232.7,531.5-232.1,531-230.7,529z"/>
		<path class="st1" d="M70.6,480.1c16.8-20.4,32.6-39.6,49.2-59.6l-48-16.4c-9.5-3.2-18.9-6.4-28.3-9.6c-8.2-2.8-8.4-2.9-7.4-11.9
			c1.4-12.9,3.1-25.8,4.5-38.7c2-18.9,5.1-37.7,1.5-56.7c-0.6-3.4,0.8-5.6,3-7.9c30.2-31.5,60.3-63.1,90.3-94.7
			c2.6-2.7,4.5-4.1,8.3-1.4c41.3,29.2,82.7,58.3,124.2,87.4c0.5,0.3,0.7,1.1,1.4,2.5l-118,90.9c32.5,17.7,64.7,33.9,97.9,51.7
			c-10.5,7.6-21.1,13.4-31.3,19.8c-10.7,6.8-21.5,13.3-32.2,20c-10.4,6.4-20.7,12.9-32.2,20l68.5,39.1l-73.3,45.9l-17-29
			c-1.3-2.3,0.2-3.7,1.5-5.2l13-15.2L70.6,480.1z"/>
		<path class="st1" d="M65,747.7c-4.1-5-4.1-11.1-6.1-16.6c-0.9-2.5-1.4-5.1-2.4-7.6c-0.7-1.9-2.1-3.9-4.4-2.9c-2.7,1.2-1,3.3-0.3,5
			c3.9,9.5,7,19.2,8,29.5c-4.1,1-4.9-1.9-6.1-4.1c-3.7-6.7-7.4-13.4-11.1-20.1c-0.9-1.8-2-3.5-3.1-5.1c-0.8-1-1.8-2.1-3.4-1.4
			c-1.9,0.9-2,2.6-1.1,4.1c2.6,4.6,5.5,9.1,8.2,13.7c1.5,2.5,3,5.1,5,8.5c-3.1,0.3-4.8-1.2-6.3-2.5c-15-12.7-27.7-27.9-37.7-44.8
			c-3.5-5.9-2.9-6.9,3.7-7.1c13.5-0.5,26.1-4.2,38.3-10c7.3-3.5,7.9-3.1,11,4.5C64.6,709.2,66.1,728.3,65,747.7z"/>
		<path class="st1" d="M-251.8,724.2c8.4-16.5,18.4-29.4,31.5-39.9c2.8-2.3,6-3.2,9.3-1.5c16.4,8.6,34.1,10.2,52.4,9.2
			c-6.4,14.8-57.1,40-81.2,39.9c6.1-4.6,11-8.2,15.9-11.9c1.6-1.2,3.1-2.5,4.8-3.6c1.3-0.9,1.8-2.3,1.1-3.4
			c-0.9-1.4-2.8-1.8-4.2-0.8c-0.1,0.1-0.2,0.1-0.2,0.2c-2.4,1.7-4.8,3.6-7.1,5.5c-5.6,4.5-11.2,9.1-18.4,15
			c0.9-6.7,3.9-9.6,6.9-12.5c2.1-2.1,4.6-3.8,6.8-5.8c1.4-1.3,3.5-2.9,1.4-4.9c-1.7-1.6-2.9,0.5-4,1.5
			C-241.4,714.8-245.8,718.8-251.8,724.2z"/>
		<path class="st2" d="M-266.9,375.9c-3.5-3.6-3.5-8.5-4.1-12.9c-1.6-9.5-1.7-19.3-0.3-28.9c0.8-5.2,3.4-6,7.4-2.7
			c0.3,0.2,0.5,0.4,0.7,0.7C-251.7,342.9-253.7,366.3-266.9,375.9z"/>
		<path class="st0" d="M-102.6,281.9c-0.1-19,10.1-29.9,28.1-30.1c16.3-0.1,28.5,12.3,28.8,29.2c0.2,17.8-10.5,29-28.1,29.2
			C-91.7,310.4-102.5,299.9-102.6,281.9z"/>
		<path class="st3" d="M3.4,495.3c3.5,3.1,2.2,6.8,1.5,10.1c-6.6,29.3-13.6,58.5-32.3,83.1c-2,2.7-3.7,5.5-5,8.6
			c-0.9,2.1-2.3,4.5,1.6,6.3c2.8,1.3,1.7,4.8,0.3,7.1c-1.7,2.9-4.8,6.3-7.9,5c-7.8-3.4-14.5,2-21.9,1.5c-2.1-0.1-4.7,1.5-6.7,0.2
			c-4.4-2.8-9.7-2.1-13.8-3.7c-6.9-2.6-12.7-8.3-18.4-13.4c-1.7-1.5-0.6-5.2,0.4-7.7c4.2-9.8,4-20.2,4.6-30.4
			c1.4-22.3,5.6-44.3,12.5-65.5c1.7-5.2,3.2-10.8,8.3-14.2c1.9,2.3,0.7,4,0.1,5.9c-8.8,27.6-13.8,56.3-14.7,85.3
			c-0.3,6-1.5,11.9-3.6,17.5c-1.3,3.6-2.8,7.5,3.7,7.3c1.9-0.1,2.7,1.2,3.7,2.8c4.9,8.1,4.9,8.1,13.2,3.4c0.9,1.3,1.8,2.7,2.8,3.9
			c2.3,3,4.8,3.4,7.5,0.5c0.9-0.9,1.8-1.8,2.7-2.7c5.3,7.5,10.1-3.4,15.6-0.3c2,1.1,4.1-0.7,3.5-3.2c-1.5-6.2,1.2-11,4.6-15.7
			c18-24.7,27.4-53,34.4-82.4c0.6-2.6,1.2-5.2,2-7.7C2.1,496.3,2.8,495.9,3.4,495.3z"/>
		<path class="st4" d="M-240.4,283c0.2-8.7,4-16.9,10.5-22.6c9-8,20.1-6.1,26.1,4.3c4.9,8.5,5.6,17.8,2.9,27
			c-3.4,11.9-14,18.6-24.9,16.6C-235.2,306.6-240.9,297.7-240.4,283z"/>
		<path class="st5" d="M-66.4,343.9c0.3-19,12.9-31.9,30.9-31.8c17.3,0.1,31.7,14.6,31.6,31.8c-0.1,17.7-13.5,30.4-31.4,30
			C-54.8,373.4-66.7,361.9-66.4,343.9z"/>
		<path class="st6" d="M-202.6,341c2.8-0.3,3.8,1.1,5,2.1c4.3,3.9,9.2,5.1,14.7,2.9c5.9-2.4,12.5-2.4,18.4,0.1
			c10.9,4.2,20.7,3.5,29.3-5.1c0.6-0.5,1.7-0.5,3-0.9c1.3,4.5-1.3,7.3-4,9.5c-6.2,5.1-13.2,7.5-21.3,5.1c-9.6-2.8-19-4.5-29.2-1.5
			C-194.5,355.7-200.3,350.5-202.6,341z"/>
		<path class="st7" d="M-167.3,315.8c-6.8,7.6-9.9,8.5-14.3,4.6c-1.2-1.1-2.5-2.2-2.3-4.1c0.3-2.1,2.1-2.2,3.7-2.6
			C-175.8,312.4-171.1,313.2-167.3,315.8z"/>
		<path class="st8" d="M-254.4,219c4.6-3.5,8.5-3,12.7-3C-246.2,220.6-246.2,220.6-254.4,219z"/>
		<path class="st9" d="M-70.5,276.4c-0.1,7-4.9,11.7-12.1,11.8c-6.7,0.2-12.4-5-12.6-11.8c0-0.3,0-0.5,0-0.8
			c0-7.4,5.5-13.4,12.1-13.3C-76.2,262.4-70.4,268.8-70.5,276.4z"/>
		<path class="st10" d="M-223.7,277.6c0.1-7.1,3.6-12,8.3-11.5c3.6,0.4,7.1,5,7.2,9.6c0.1,6.2-3.8,11.7-8.5,11.8
			C-221.5,287.6-223.8,284.4-223.7,277.6z"/>
		<path class="st11" d="M-36.7,370.7c-14.3,0.1-24.7-10.9-25-26.5c-0.3-14,10.3-24.8,24.2-24.7c14.6,0.2,26.5,12,26.8,26.7
			C-10.3,359.5-22,370.5-36.7,370.7z"/>
	</g>
</g>
</svg>
