<?xml version="1.0" encoding="utf-8"?>
<!-- Generator: Adobe Illustrator 21.0.0, SVG Export Plug-In . SVG Version: 6.00 Build 0)  -->
<svg version="1.1" id="Layer_1" xmlns="http://www.w3.org/2000/svg" xmlns:xlink="http://www.w3.org/1999/xlink" x="0px" y="0px"
	 viewBox="0 0 720 720" style="enable-background:new 0 0 720 720;" xml:space="preserve">
<style type="text/css">
	.st0{fill:#6C1112;}
	.st1{fill:#EE5690;}
	.st2{fill:#EA2F2A;}
	.st3{fill:#BB3627;}
	.st4{fill:#FCD523;}
	.st5{fill:#A11C35;}
	.st6{fill:#E29B26;}
	.st7{fill:#4D1715;}
	.st8{fill:#FFFFFF;}
</style>
<path class="st0" d="M274.6,329.8c-1,2.4-2.1,4.9-3.1,7.3c-1.1,2.4-2.2,4.9-3.2,7.3c-0.2,0.4-0.3,0.7-0.4,1.1
	c-0.4,1.8,1,3.2,2.8,2.8c1-0.2,2-0.7,3-1c7.2-2.3,14.5-3.9,22-5c2.5-0.4,5-0.7,7.5-1.1c0.9-0.1,1.7-0.2,2.6-0.2
	c1.1,0,1.4,0.3,1.4,1.5c0,0.7-0.1,1.5-0.2,2.2c-1.3,9.3-2.6,18.6-3.8,27.9c-0.2,1.7-0.3,3.5-0.5,5.2c-0.3,3-1.6,5.2-4.3,6.8
	c-1.9,1.2-3.7,2.6-5.5,4c-0.5,0.4-1,0.8-1.8,1.3c-0.6-2.7-0.9-5.2-0.9-7.7c0-3.5,0.1-6.9-0.1-10.4c-0.1-2.5-0.5-5-1-7.5
	c-0.5-2.7-1.4-3.2-4.1-2.8c-3,0.5-6,1.1-9,1.7c-13.6,2.6-27.2,5.1-40.8,7.7c-0.4,0.1-0.8,0-1.4,0c1.1-4.5,2-9,3.1-13.3
	c1.7-6.6,3.5-13.1,5.2-19.7c0.3-1.1,0.9-2,1.6-2.9c1.3-1.4,2.4-3,3.6-4.6c1-1.3,1.9-2.6,3.1-4.3c0.1,0.9,0.1,1.4,0.1,1.8
	c-0.1,2.8-0.3,5.6-0.4,8.4c0,0.7,0.1,1.4,0.4,2.2c2.3-2.7,4.3-5.5,6.3-8.3c2-2.8,4-5.6,6.4-8.3c-0.2,0.7-0.3,1.5-0.5,2.2
	c-0.8,3.3-1.6,6.6-2.5,9.9c-0.3,1,0,1.5,1.2,1.7c1.8-2.9,3.6-5.8,5.4-8.7c0.1,0,0.2,0.1,0.3,0.1c0,1.5,0,3,0,4.5s0.1,3,0.2,5.1
	c2.7-2.5,4.6-5.1,7-7.3C274.4,329.6,274.5,329.7,274.6,329.8z"/>
<path class="st1" d="M600.5,357.4c0.1,0,0.1,0,0.2,0c3.9-0.2,4-0.3,5.9,3.2c2,3.7,3.7,7.5,5.5,11.3c0.6,1.2,0.2,2.4-0.1,3.5
	c-2.6,8.4-5.6,16.6-9.3,24.6c-0.5,1.1-1,2.3-1.6,3.4c-0.9,1.6-1.5,1.9-3.3,1.4c-8.3-2.6-16.8-4.6-25.4-6.3c-2-0.4-3.3-1.5-4.1-3.4
	c-2.5-6-4.1-12.2-5.5-18.5c-0.3-1.2,0.1-2.4,0.7-3.4c0.6-0.9,1.3-1.9,2.2-2.6c7.5-6.6,16-10.9,26-12.3
	C594.6,357.9,597.5,357.6,600.5,357.4C600.5,357.3,600.5,357.4,600.5,357.4z"/>
<path class="st2" d="M491.5,392.3c-1.5,0-3.1,0-4.6,0c-2.5,0-4.6-1-6.4-2.8c-4.2-4.3-6.5-9.5-7.4-15.4c-1.1-7.6-0.2-14.9,3.5-21.7
	c2.9-5.3,7.1-9,13.1-10.2c6.5-1.3,12.1,0.4,16.9,4.9c5.9,5.5,8.8,12.4,9.1,20.4c0.3,6.5-1.3,12.6-5,17.9c-1.2,1.7-2.8,3.2-4.2,4.8
	c-1,1-2.2,1.5-3.6,1.5C499,392,495.3,392.1,491.5,392.3L491.5,392.3z M659.8,356.4c0.2-8.6,1.9-16.9,5.8-24.5c1.3-2.6,3.1-5,4.9-7.3
	c0.7-0.9,1.9-1.7,3-2.1c1.5-0.6,2.6,0,3.2,1.5c0.1,0.2,0.2,0.5,0.2,0.8c0.5,3.6,2,6.9,3.5,10.2c2.4,5.2,2.3,10.6,1.5,16
	c-1.5,9.6-5.6,18-11.4,25.6c-1.3,1.8-2.2,1.9-4,0.4c-3.3-2.7-5-6.4-5.6-10.5C660.4,363.2,660.2,359.8,659.8,356.4z"/>
<path class="st3" d="M388.1,368c-3,2.8-5.8,5.2-8.3,7.9c-5.3,5.6-10.3,11.3-15.5,16.9c-3.7,4-7.4,7.9-11.2,11.7
	c-1.5,1.5-3.6,2.5-5.4,3.7c-0.5,0.3-1.1,0.4-1.7,0.5c-2.3,0.4-3.5-0.5-3.6-2.8c-0.1-1.6,0-3.2,0.3-4.8c2.6-11.1,7-21.5,13.5-30.9
	c0.5-0.8,1.1-1.6,1.9-2c0.7-0.5,1.8-0.8,2.6-0.8c8.6,0.8,17.3,0.4,26,0.5C387,367.9,387.4,367.9,388.1,368z M442.5,358.8
	c-0.1,0.3-0.1,0.5-0.2,0.6c-6.7,8.1-13.3,16.3-20,24.4c-3,3.6-6.1,7-9.4,10.3c-1.7,1.7-3.8,2.9-5.7,4.3c-0.6,0.4-1.5,0.7-2.2,0.9
	c-2,0.5-3.4-0.3-3.6-2.3c-0.2-1.6-0.2-3.3,0.2-4.8c1-3.5,2-6.9,3.4-10.2c2-4.9,4.4-9.6,6.6-14.3c0.6-1.3,1.4-2,2.9-2.2
	c9.3-1.2,18.5-3.4,27.4-6.5C441.9,358.9,442.1,358.9,442.5,358.8z"/>
<path class="st4" d="M564.7,487.1c-33,37.8-71.7,68-114,94c0.5,0.8,0.8,1.4,1.3,2.3c3.8-2.2,7.6-4.4,11.5-6.7c0,0.3,0.1,0.5,0,0.7
	c-4.7,8.8-9.5,17.6-15.8,25.4c-6,7.3-13.2,13.2-22,16.8c-1.3,0.5-2.6,0.9-4,1.3c-0.4,0.1-0.9,0.1-1.5,0.1c0.4-1.4,0.8-2.6,1.2-3.8
	c2.1-7.3,1.9-14.6,0.2-21.9c-2.1-9.3-6.3-17.7-11.6-25.5c-5.5-8-11.9-15.3-18.5-22.3c-10.2-10.9-20.9-21.3-31.8-31.5
	c-1.7-1.5-3.4-3.1-5.1-4.5c-6.9-5.6-12.1-12.5-16.5-20.1c-5.1-8.8-8.9-18.2-12.3-27.7c-3.7-10.5-7.4-21.1-11.1-31.7
	c-1.3-3.7-2.9-7.3-5.3-10.5c-4.4-5.7-10-8.7-17.3-8c-1.5,0.1-3.1,0.1-4.6-0.1c-2.3-0.2-3.1-1.3-2.7-3.5c0.4-1.9,1-3.7,1.7-5.5
	c1.1-2.7,2.3-5.4,3.6-8c0.3-0.6,0.8-1.2,1.3-1.7c10-9.9,21.7-16.9,35-21.3c7.4-2.4,15-4.3,22.8-4.8c1.3-0.1,2.7-0.1,4-0.1
	c0.3,0,0.5,0.1,0.9,0.1c-0.2,0.4-0.2,0.8-0.4,1.1c-6.8,10.1-11.3,21.1-13.8,33c-0.2,0.8-0.1,1.7-0.2,2.6c-0.4,4,4,7.4,8.1,5.6
	c1.1-0.5,2.1-1.1,3.1-1.7c4.1-2.7,7.6-6.1,10.8-9.7c5.5-6.1,10.8-12.3,16.4-18.3c3.1-3.3,6.4-6.4,9.7-9.5c3-2.8,6.5-4.2,10.7-4
	c3,0.1,6.1-0.4,9.2-0.6c0.3,0,0.6,0,1,0c0.3,0.8-0.2,1.3-0.5,1.9c-2.2,5.3-4.6,10.5-6.7,15.8c-1.1,2.8-1.7,5.7-2.4,8.6
	c-0.3,1.3-0.3,2.8-0.1,4.2c0.6,3.7,3.1,5.2,6.7,4.2c2.3-0.7,4.3-1.8,6.1-3.4c2.2-1.9,4.4-3.9,6.3-6.1c6-7,11.9-14.2,17.9-21.3
	c3.8-4.5,7.8-8.9,11.7-13.4c0.2-0.2,0.5-0.4,0.9-0.7c0.4,0.5,0.7,1,1.1,1.5c0.5,0.7,1.2,0.9,1.9,0.5c0.8-0.4,0.9-1.1,0.6-1.9
	s-0.5-1.7-0.8-2.5c-2.8-8.2-3.5-16.7-3.9-25.2c-0.5-12.6,0.6-25,2.3-37.5c1.5-11.3,3.7-22.5,7.3-33.3c0.3-0.8,0.5-1.5,0.8-2.3
	c0.8-1.6,2-1.9,3.1-0.6c4.9,5.5,11.1,8.8,17.6,11.9c2.5,1.2,3.6,0.9,5.5-1c2-2,4.2-3.9,6.1-6.1c1.3-1.5,2.3-3.2,3.4-4.9
	c0.4-0.6,0.6-1.3,0.7-2.1c0.3-1.6-0.2-2.5-1.8-2.7c-1.5-0.2-3-0.1-4.6-0.1c-6.7,0.2-13.5,0.4-20.2,0.7c-3.4,0.1-6.8,0.2-10.1-0.5
	c-2.9-0.6-5.7-1.2-8.5-2c-12.1-3.3-24.2-6.9-35.9-11.6c-2.7-1.1-4.9-2.6-6.7-4.8c-7.4-9-14.3-18.3-19.7-28.6
	c-4.1-7.7-7.2-15.7-9.4-24.1c-0.2-0.8-0.4-1.6-0.5-2.4c-0.2-1.7,0.3-2.4,2.1-2.3c1.5,0.1,2.9,0.3,4.3,0.6
	c24.4,5.3,48.2,12.6,70.8,23.2c10.6,5,21,10.5,30.6,17.2c5,3.5,9.8,7.3,14.2,11.6c1.4,1.4,3,1.8,5.1,1.3c-4.2-5.7-9.9-9.4-15.2-13.9
	c1.3-0.8,2.3-1.6,3.5-2.3c6.6-4,13.7-6.9,20.9-9.5c12.3-4.5,24.9-7.9,37.8-9.8c19.1-2.8,38.1-2.6,56.9,2.1c4.9,1.2,9.8,2.6,14.4,4.7
	c0.3,0.1,0.6,0.2,1,0.3c1.4,0.1,2.3-1.1,1.6-2.3c-0.5-0.7-0.6-1.4-0.6-2.2c0-1.9-0.8-3.5-1.8-5c-2.9-4.9-5.8-9.9-8.7-14.8
	c-7.9-13.2-14-27.2-18.5-41.9c-0.9-3-0.9-5.8-0.1-8.8c1.7-6.3,4.2-12.3,7-18.3c4-8.6,8.9-16.7,14.5-24.3c1.4-1.9,3.1-3.7,4.9-5.8
	c0.8,1.7,1.5,3,1.9,4.4c6.3,19.9,12.3,40,16.3,60.5c1.8,9.3,3.5,18.6,5,27.9c1.4,8.7,2.2,17.4,2.2,26.3c0,2.9,0,5.7,0,8.6
	c0,1.2,0.3,2.5,0.5,4c-0.8,0.1-1.5,0.1-2.1,0.2c-1.3,0.1-1.7,0.7-1.2,1.8c0.4,0.7,0.9,1.3,1.5,1.8c4.5,4.4,8.3,9.4,11.5,14.8
	c5.2,8.8,8.2,18.3,10,28.3c1.4,7.8,1.9,15.7,2.2,23.7c0.3,9.1,0.8,18.2,2.2,27.3c0.5,3.5,1.2,7,1.8,10.4c0.1,0.6,0.2,1.3,0.4,2
	c-0.4,0.3-0.7,0.5-1,0.7c-4.4,2.2-7.5,5.7-9.6,10.1c-4.8,10.1-7.1,20.6-5.9,31.8c0.3,2.8,0.9,5.5,1.6,8.2c1,3.7,3,6.8,6.1,9.2
	c0.4,0.3,0.8,0.5,1.3,0.7c-0.8,1-1.2,1.6-1.7,2.1c-11.5,12.2-24.5,22.4-39.1,30.5c-1.6,0.9-3,1-4.7,0.4c-5.3-1.9-10.5-3.7-15.8-5.6
	c-0.7-0.3-1.4-0.6-2.2-1c0.5-1.2,0.9-2.1,1.3-3.1c6.3-12.7,10.5-26,13.8-39.7c1-4.4,1.9-8.9,2.9-13.3c0.2-0.9,0.4-1.8,0.7-2.7
	c0.4-1.3,1.3-2.3,2.5-2.7c2.1-0.8,3.2-2.5,4.6-4c0.3-0.3,0.4-0.7,0.5-1.1c0.3-1-0.1-1.8-1-2.1c-0.9-0.4-1.6-0.1-2,0.7
	c-2.2,4.4-6.3,5.4-10.7,5.9c-3.6,0.4-7.2-0.1-10.8-0.5c-2.4-0.3-4.9-0.3-7.4,0c-4.8,0.4-8.7,2.6-12.1,6c-4.7,4.7-10.5,6.1-16.9,5.6
	c-3.5-0.3-6.8-1.3-9.9-3c-0.9-0.5-1.7-1.1-2.5-1.7c-0.9-0.6-1.8-0.8-2.7-0.2c0.9,2.9,1.9,5.6,2.5,8.5c0.8,3.8,1.3,7.8,2,11.6
	c1.7,8.7,3.8,17.3,7,25.6c0.1,0.2,0.2,0.5,0.3,1.1c-18.7-3.2-37.2-5.6-56.3-5.8c0.4-0.6,0.6-1,0.9-1.3c12.3-13.5,10-36-4.8-46.7
	c-9.1-6.6-22.1-4.6-28.9,4.5c-3,4-4.7,8.6-5.6,13.5c-1.2,6.5-1,13,1.1,19.3c1.4,4.2,3.6,7.9,6.9,10.8c0.2,0.2,0.4,0.4,0.6,0.7
	c-1.3,0.6-3.1,0.3-3.6,2.2c0.8,1.3,2.1,1.1,3.3,1.1c3.5-0.2,7-0.5,10.6-0.6c6.5-0.2,13-0.3,19.6-0.3c4.5,0,8.9,0.2,13.4,0.4
	c9.5,0.4,19,1.4,28.4,2.8c16.3,2.3,32.2,6,47.8,10.9c13.5,4.3,26.6,9.4,39.3,15.6c2.3,1.1,4.5,2.5,6.7,4c5.1,3.5,10.6,5.2,16.8,4.5
	c1-0.1,2.1-0.3,2.8,0.6s-0.1,1.8-0.5,2.6c-0.1,0.2-0.2,0.4-0.3,0.5c-1.1,2.4-0.6,3.8,1.7,5.1c1.3,0.7,2.6,1.4,3.8,2.2
	c0.9,0.6,1.7,1.4,2.9,2.3c-1,0.4-1.5,0.6-2.2,0.9c-0.6,0.2-1.2,0.3-1.7,0.5c-3.4,0.9-3.7,3.8-1.8,5.8c0.7,0.7,1.5,1.5,1.6,2.8
	c-1.2,0.2-2.4,0.4-3.5,0.6c-2,0.5-2.6,1.3-2.5,3.4c0.1,0.9,0.2,1.8,0.3,3c-1-0.1-1.7-0.1-2.5-0.2c-3-0.3-4.5,0.8-5.4,3.6
	c-0.1,0.4-0.3,0.9-0.4,1.3c-0.4,1-1.1,1.6-2.2,1.7c-0.4,0-0.8,0.1-1.2,0.1c-6.1-0.6-11.9,0.6-17.8,2c-5.8,1.4-11.5,2.7-17.3,4
	c-1.1,0.3-2.2,0.2-3.3-0.1c-2.1-0.5-4.3-0.6-6.5-0.8c-8.5-1-17-1.9-25.4-2.9c-7.9-1-15.8-2.3-23.7-3.3c-8-1.1-16.1-2.1-24.2-3
	c-5.8-0.6-11.5-1.2-17.3-1.5c-10-0.6-19.6,1-28.8,5.3c-10.6,4.9-18.8,12.5-25.2,22.1c-1.5,2.3-2.8,4.7-4.1,7.1
	c-0.4,0.8-0.7,1.9-0.7,2.8c0,1.4,1.4,2.6,2.8,2.6c1,0,2,0,3-0.3c7.9-1.9,15.6-4.5,22.8-8.4c6.3-3.3,12.8-5.8,19.9-7.1
	c4.8-0.9,9.5-0.9,14.3-0.6c1.3,0.1,2.5,0.1,3.8,0.2c3.7,0.1,7.5,0.2,11.2,0.1c9.3-0.2,18.5-0.5,27.8-0.7
	C562.8,487,563.5,487.1,564.7,487.1z M522.2,341.7c1.6-0.2,3.2-0.3,4.7-0.6c12.9-2.7,19.9-17.3,13.7-28.9
	c-4-7.6-10.7-10.8-19.2-10.4c-11.2,0.5-21.3,10.7-18.7,24.4C504.4,335.4,512.4,341.5,522.2,341.7z M659.3,305.2
	c0-5.6-1.6-10.9-4.7-15.2c-1.5-2.1-3.3-3.9-5.5-5.1c-4.9-2.6-10.3-1.4-13.3,3.2c-1.1,1.6-2,3.5-2.5,5.4c-1.6,7.3-0.4,14.2,3.7,20.4
	c1.1,1.7,2.7,3.2,4.3,4.4c5.5,4.2,11.9,2.9,15.5-3.1C658.7,312.3,659.4,308.9,659.3,305.2z M607.5,325.1c-0.1-1.1-0.3-1.6-1.4-1.6
	c-3.4-0.2-6.4,1-8.9,3.2c-1,0.9-0.9,1.8,0.3,2.4c1.9,1,3.8,1.7,5.8,2.6c0.8,0.3,1.5,0,1.8-0.7C605.9,329,606.7,327,607.5,325.1z
	 M85,270.5c-0.5-0.7-0.9-1.3-1.2-1.8c-13.1-22.1-26.1-44.3-39.2-66.4c-1.6-2.7-3.2-5.4-4.8-8.1c-1.2-1.9-1-2.6,1-3.6
	c4.1-2,8.3-4,12.5-5.9c21.6-10.1,43.9-18.1,66.5-25.6c27.1-8.9,54.6-16.4,82.5-22.3c16.4-3.5,32.9-6.5,49.6-8.6
	c10.8-1.4,21.7-2.5,32.6-3.7c0.4,0,0.8,0,1.3,0c-0.5,1.2-0.9,2.2-1.4,3.3c-15.3,33.8-29.2,68.2-42,103c-5,13.6-9.6,27.4-13.5,41.4
	c-0.7,2.5-1.4,5-2,7.5c-0.5,2.2,0.4,3.2,2.7,2.7c5-1.1,10-2.5,15-3.4c8.4-1.6,16.9-3,25.4-4.3c6.6-1,13.3-1.9,20-2.6
	c4.6-0.5,9.3-0.5,14-0.6c0.3,0,0.6,0.1,1.3,0.2c-5.1,8.1-9.7,16.1-13.9,24.4c-4.2,8.2-8.3,16.5-12.8,24.7c0-0.6,0-1.2,0.1-1.9
	c1.2-8.6,2.5-17.1,3.7-25.7c0.3-2.4,0.5-4.8,0.5-7.2c0.1-3.1-1-3.9-4-3.3c-12.1,2.4-24,5.7-35.7,9.5c-10.9,3.5-21.7,7.3-32.6,10.9
	c-0.8,0.3-1.6,0.5-2.5,0.7c-0.3,0.1-0.6,0-1.2,0c0-0.8-0.2-1.5-0.1-2.1c2-12.7,4.1-25.4,6.9-37.9c3.3-14.9,6.4-29.9,9.7-44.9
	c3.3-14.9,7.1-29.7,11.5-44.3c0.2-0.6,0.4-1.3,0.6-1.9c0.3-0.8,0.3-1.6-0.3-2.2c-0.6-0.6-1.3-0.5-2.1-0.3
	c-6.1,2.2-12.2,4.1-18.2,6.6c-17.1,6.9-33.2,15.8-48.7,25.8c-19.2,12.4-37.5,25.9-54.8,40.8c-8,6.9-15.2,14.5-22.2,22.4
	C87.9,267.4,86.5,268.8,85,270.5z M368.8,286.7c1.3-0.4,2.2-0.8,3.2-1.1c0.8-0.3,1.7-0.4,2.5-0.8c1.8-0.8,2.3-2.1,1.6-3.9
	c-0.3-0.9-0.7-1.7-1.2-2.8c0.8-0.2,1.4-0.4,2-0.5c0.5-0.1,0.9,0,1.4,0c2.9-0.2,3.8-1.5,2.9-4.2c0-0.1,0-0.1-0.1-0.2
	c-1-2.8-0.7-3.2,2.2-3c1.5,0.1,3,0.2,4.6,0.4c2,0.1,3.1-0.6,3.5-2.7c0-0.1,0-0.1,0-0.2c0.6-3,1.3-3.3,3.8-1.6
	c4,2.6,6.6,2.5,10.6-0.3c0.5-0.3,1-0.6,1.7-1c0.3,0.9,0.8,1.5,0.8,2.1c0.4,4.8,2.7,8.6,6,11.9c4.3,4.3,8.7,8.4,13,12.7
	c5.2,5.2,10,10.9,14.6,16.7c2.3,2.8,3,5.9,2.8,9.5c-0.8,11.1-0.3,22.1,2.3,33c0.6,2.4,0.3,3-2,4.1c-8.3,3.8-17,6.3-26,7.8
	c-2.7,0.4-5.4,0.7-8.1,1.1c-2.2,0.3-2.6,0.1-3.5-2c-4.1-9.4-9.1-18.4-14.8-27c-2.3-3.6-4.7-7.1-7.3-10.5c-1.4-1.8-3.2-3.4-4.9-5
	c-0.7-0.6-1.1-1.3-1.4-2.1c-1.5-4.6-2.5-9.3-3.2-14c-0.3-2.1-0.7-4.2-1.2-6.3c-0.9-3.3-2.5-6.2-5-8.5
	C369.6,287.6,369.4,287.3,368.8,286.7z M285.1,396c-2.1,2.8-4,5.5-8,6c-8.7,1.2-17.1,3.4-24.7,8.1c-1.4,0.8-2.6,1.8-3.9,2.7
	c-1.8,1.4-3.4,3-4,5.5c-11.5-0.4-22.5-3-32.9-7.7c0-0.1,0.1-0.3,0.1-0.4c0.5,0.1,1.1,0.2,1.6,0.4c4.1,1,8.1,2,12.2,3.1
	c0.4,0.1,0.8,0.2,1.2,0.3c0.6,0.2,1.3,0.2,1.4-0.6c0-0.4-0.3-1-0.7-1.2c-0.6-0.4-1.4-0.5-2.1-0.6c-6.9-1-13.6-3-20.1-5.7
	c-0.5-0.2-1-0.5-1.4-1.1c2.8,0.7,5.5,1.3,8.3,2c2.7,0.6,5.4,1.3,8.2,1.9c2.7,0.6,5.4,1.5,8.6,2.1c-0.7-1.7-1.8-2.1-3-2.4
	c-1.8-0.5-3.6-0.8-5.4-1.3c-6.5-1.6-13.1-3.3-19.2-5.9c-1.9-0.8-3.8-1.7-5.6-2.6c-0.6-0.3-1.3-0.7-1.8-1.3c-0.3-0.3-0.5-1-0.3-1.4
	s0.8-0.6,1.3-0.6c0.6,0,1.3,0.3,1.9,0.5c7,2.1,14.1,3.2,21.4,3.8c8.6,0.8,17.2,0.7,25.7-0.1c5.9-0.5,11.8-1.4,17.6-2.1
	c7.3-0.9,14.5-1.8,21.9-1.7c0.5,0,1.1,0,1.6,0C285,395.7,285,395.8,285.1,396z M382.5,658.2c1.1,0.6,1.8,0.9,2.3,1.3
	c1.3,1.1,2.8,1.8,4.4,2.2c2.4,0.5,4.4,0,5.8-2c0.9-1.3,1.8-2.7,2.4-4.1c1.8-3.8,3.6-7.7,5.4-11.7c0.7,0.9,1,1.9,1,3
	c0.2,6.9,0.6,13.8,1.7,20.7c0.9,6.1,2.3,12,4.2,17.8c0.2,0.7,0.4,1.4,0.3,2.2c-2.2-4.6-4.4-9.1-6.6-13.8c-0.9,0.4-1.7,0.8-2.6,1.2
	c0.3,0.7,0.5,1.3,0.8,1.8c2,4.3,3.9,8.6,5.9,12.9c0.5,1,0.9,2.1,1.2,3.2c0.3,0.9,0,1.6-1.1,1.8c-0.1-0.2-0.3-0.4-0.4-0.6
	c-2.2-4.5-4.4-9.1-6.6-13.7c-1-2.2-2-4.5-2.6-6.9c-0.5-1.7-1.5-2.3-3.3-2.8c0.3,1.7,0.5,3.2,0.8,4.7c1,4,2.9,7.7,4.8,11.4
	c1.3,2.5,2.6,5.1,4,7.8c-1.7,0.1-2.7-0.6-3.6-1.4c-2-1.8-4.1-3.6-6-5.6c-6.5-6.8-10.5-14.8-11.4-24.3
	C383.1,661.6,382.8,660.2,382.5,658.2z"/>
<path class="st5" d="M562.2,372.8c-1.1-5.7-2.1-11-3.2-16.7c1.2,0.3,2,0.4,2.8,0.6c4.1,1.2,8.2,1.8,12.4,1.4
	c6.1-0.7,11.3-3.3,15.8-7.5c1.1-1,2.1-2.1,3.2-3c1.2-1,2-1,3.1-0.1c2.7,2.3,5.1,4.9,7,7.9c0.1,0.1,0,0.3,0,0.6
	c-1,0.1-2.1,0.1-3.1,0.2c-7.6,0.4-14.9,1.7-21.9,4.8c-5.1,2.2-9.4,5.5-13.6,9C563.8,370.7,563.1,371.7,562.2,372.8z"/>
<path class="st6" d="M382.3,657.1c-1.2-3.8-2.3-7.5-3.6-11.1c-2.5-6.9-5.1-13.7-7.5-20.7c-1.6-4.8-2.8-9.7-4.1-14.6
	c-0.1-0.3-0.1-0.6-0.2-1.3c3.2,2.5,6,4.8,9,7s6.1,4.2,9.6,5.9c0.4-2.2-0.4-3.5-2-4.5c-6.3-4-11.9-8.7-17-14.2
	c-7.5-8-12.1-17.5-14.7-28.2c-2.9-12-5.9-23.9-9.8-35.6c-0.1-0.3-0.1-0.6-0.1-1c1.8,2.9,2.7,6.2,3.5,9.4c1.2-1.1,1.8-2.5,1.2-4.2
	c-0.9-2.7-1.9-5.4-3.1-8c-2.6-5.7-6.2-10.9-10.2-15.7c-7.8-9.2-15.8-18.2-23.7-27.3c-6.4-7.3-12.9-14.5-18.7-22.4
	c-5.9-8.1-10.7-16.7-13.3-26.4c-2.5-9.5-3-19-0.6-28.6c0.3-1,0.6-2,1-3c0.5-1.6,0.4-2.6-0.5-4.3c-1.3,1.2-2.2,2.6-2.7,4.1
	c-0.6,2-1,4-1.5,6c-0.1,0.5-0.2,1-0.3,1.6c-0.4,1.3-0.6,1.5-2,1.4c-1.3-0.1-2.5-0.3-3.8-0.4c-6.9-0.8-13.8-1.6-20.6-2.5
	c-0.2,0-0.4-0.1-0.6-0.3c0.1-1,0.6-1.9,1.3-2.6c1.3-1.2,2.6-2.4,4.1-3.5c4.9-3.5,10.5-5.7,16.4-7.1c3.5-0.9,7-1.4,10.6-2.1
	c1-0.2,2-0.5,3.1-0.8c1.5,1.5,1.9,1.4,3.2-0.3c0.9-1.1,1.7-2.2,2.6-3.3c0.1-0.1,0.2-0.1,0.5-0.3c0,1-0.5,1.8-0.9,2.5
	c-1.3,2.6-2.6,5.3-3.1,8.2c0,0.3-0.1,0.5-0.2,0.8c-0.4,3,0.7,4.6,3.8,4.9c2.1,0.2,4.3,0.2,6.4,0.1c5.6-0.3,9.9,2.2,13.5,6.2
	c2.7,3,4.5,6.5,5.8,10.2c3.1,8.6,6.2,17.3,9.2,26c3.5,10.2,7.1,20.4,12.1,30c2.8,5.4,6,10.6,9.6,15.4c2.5,3.3,5.4,6.1,8.5,8.8
	c16.4,14.4,31.8,29.8,46.3,46.1c6.1,6.8,11.5,14.2,15.9,22.3c4.3,8,6.8,16.5,7.2,25.5c0.2,4.7-0.7,9.3-2.1,13.7
	c-0.3,0.9-0.5,1.8-0.8,2.9c-5.2,1.8-10.9,2.3-16.8,2.7c1.6,5,2.2,10.1,1.7,15.1c-0.4,0.6-1,1.2-1.2,1.9c-1.8,5-3.9,9.9-6.4,14.6
	c-0.6,1-1.2,2.1-1.9,3c-1.1,1.4-2.6,2-4.3,1.5c-1.2-0.3-2.5-0.8-3.4-1.5C385,658.1,383.8,657.2,382.3,657.1z M268.4,333.7
	c-0.4-3.6,0.6-6.9-0.7-10.4c-1.8,3-3.5,5.6-5.2,8.3c-0.1,0-0.2-0.1-0.3-0.1c0.9-3.9,1.9-7.7,2.9-11.6c-0.5-0.3-1-0.5-1.6-0.8
	c-4,5.5-7.9,10.9-12.1,16.7c-0.4-4.4,0.9-8.2,0.2-12.3c-3.3,2.7-5.1,6.4-7.9,9.4c0.1-0.4,0-0.8,0.1-1.2c1.4-4.2,2.8-8.3,4.3-12.5
	c0.3-0.9,0.9-1.7,1.2-2.5c0.8-2.1-0.5-3.7-2.7-3.2c-1.2,0.2-2.3,0.8-3.4,1.1c-20.9,6.1-41.8,12.2-62.7,18.3
	c-0.8,0.2-1.5,0.4-2.6,0.6c0.1-0.9,0-1.7,0.2-2.4c5.5-27.1,10.6-54.4,17.9-81.1c0.9-3.5,2-6.9,2.9-10.4c0.9-3.3,0-4.4-3.3-3.7
	c-7.1,1.6-14.2,3.1-21.1,5.3c-24.6,7.6-48.7,16.5-72.1,27.2c-4,1.8-7.9,3.9-11.8,5.9c-0.5,0.3-1.1,0.6-1.6,0.8
	c-1.2,0.4-1.7,0.2-2.3-0.9c-0.4-0.8-0.7-1.6-1.1-2.5c0.3-0.4,0.7-0.9,1.1-1.3c5.3-5.8,10.5-11.7,16-17.3c8-8.1,16.8-15.2,25.8-22.1
	c15.4-11.9,31.2-23.2,47.9-33.2c14.9-8.9,30.4-16.9,46.8-22.8c3.3-1.2,6.7-2.3,10-3.4c0.3-0.1,0.6,0,1.1,0c-0.4,1.1-0.6,2.1-0.9,3
	c-4.9,16.3-9,32.7-12.7,49.3c-3.8,17.2-7.4,34.4-11,51.6c-1.5,7.4-2.6,15-3.9,22.4c-0.2,1.3-0.5,2.6-0.6,3.9c-0.1,0.6-0.1,1.3,0.1,2
	c0.2,0.9,0.8,1.5,1.7,1.4c1.1-0.1,2.2-0.3,3.3-0.7c7.6-2.6,15.2-5.4,22.8-7.9c12.9-4.3,25.9-8.1,39.2-11.2c2.2-0.5,4.4-1,6.6-1.4
	c2-0.4,2.6,0,2.4,1.9c-0.3,4-0.7,8-1.2,11.9c-1.1,7.9-2.3,15.7-3.4,23.5c-0.1,0.4-0.2,0.9,0,1.2c0.6,1.3,0,2.1-0.8,3
	c-2.2,2.4-4.4,4.8-6.6,7.2C269.3,333,269,333.2,268.4,333.7z M502.3,487.4c-6.2,1.5-12.1,3.8-17.7,6.7c-4,2.1-8.1,4-12.5,5.4
	c-3.4,1.1-6.8,2-10.1,3c-0.1,0-0.3,0.1-0.4,0.1c-1.2,0.1-2.5,0.5-3.5-0.7s-0.1-2.3,0.4-3.3c4.6-8.7,10.4-16.4,18.5-22.3
	c10-7.3,21.2-11.2,33.7-11.2c6.9,0,13.7,0.7,20.5,1.5c7.9,0.9,15.9,1.9,23.8,3c8,1.1,16.1,2.3,24.1,3.4c7.3,1,14.5,1.8,21.8,2.6
	c3,0.4,6.1,0.7,9.2,1.3c-0.5,0.2-1,0.4-1.5,0.5c-6,1.1-12,2.5-18.1,3.3c-10,1.3-20,2.3-30,3.1c-11.6,0.9-23.2,1.1-34.8,0.9
	c-6.1-0.1-12.3-0.3-18.4-0.3c-5.5,0.1-11.1,0.1-16.5,0.8c-3.1,0.4-6.1,0.3-9.1,0.5c-0.2,0-0.4,0-0.6,0c-0.7,0.1-1.4,0.3-1.3,1.2
	c0.1,0.8,0.8,0.7,1.4,0.7c4.1-0.2,8.1-0.4,12.2-0.5c2.9-0.1,5.9,0,8.8,0C502.3,487.1,502.3,487.3,502.3,487.4z M407.1,363.6
	c-0.6,0.1-1.1,0.2-1.6,0.3c-3.2,0.3-6.5,0.6-9.7,0.9c-2.5,0.3-2.8,0.2-3.6-2.3c-2.6-8.1-5.2-16.2-7.6-24.4
	c-1.5-5.2-2.6-10.6-3.9-15.9c-0.1-0.6-0.2-1.1,0.1-1.9c1,1.1,2.2,2.1,3,3.3c2.9,4.1,5.9,8.3,8.6,12.5c5.5,8.5,10.3,17.4,14.4,26.7
	C406.9,363,407,363.2,407.1,363.6z M623.2,197.2c-3.7-1.1-7.2-2.2-10.7-3.2c-1.1-0.3-1.7-1.2-2.2-2.2c-2.9-6-5.5-12.1-7.5-18.5
	c-3.4-10.2-5.6-20.7-7.5-31.2c-0.3-1.6-0.7-3.3-1-4.9c-0.1-0.6-0.2-1.3,0-2c0.2,0.4,0.4,0.7,0.5,1.1c4.8,15.2,11.3,29.6,19.6,43.2
	c2.5,4.1,5,8.4,7.4,12.6C622.6,193.5,623.4,195,623.2,197.2z M463.2,255.3c1.8,0.2,3.6,0.5,5.4,0.7c2.7,0.3,5.4,0.6,8.1,0.7
	c1.4,0,2.7-0.3,4.1-0.6c-1.8-1.3-3.8-1.7-5.7-2.1c-1.9-0.4-3.9-0.7-5.8-1.3c4-0.1,8-0.4,12-0.4s8-0.6,12.3-0.2
	c-0.3,1.2-0.4,2-0.8,2.7c-1.2,1.9-2.4,3.9-3.9,5.5c-1.8,2.1-4,3.9-6,5.9c-0.9,0.9-2,1.1-3.1,0.6c-5.5-2.6-10.9-5.4-15.4-9.5
	c-0.5-0.5-1-1-1.5-1.6C463.1,255.6,463.2,255.5,463.2,255.3z"/>
<path class="st7" d="M599.8,345.7c2.4,0.2,4.9,0.4,7.3,0.7c3,0.3,5.9,0.6,9,0.3c2.8-0.3,3.8,0.9,3.1,3.7c-1.3,5.3-2.6,10.6-3.9,15.9
	c-0.1,0.6-0.3,1.1-0.6,2.1c-4.8-7.8-9.2-15.5-15-22.2C599.7,346,599.7,345.9,599.8,345.7z"/>
<path class="st8" d="M516.8,313.7c0-5.1,3.6-9,8.4-9c4.7,0,8.8,4,8.8,8.8c0,5-4,9.2-8.8,9.2C520.3,322.7,516.8,318.9,516.8,313.7z"
	/>
<path class="st8" d="M645.6,304.7c-2.5-0.1-4.9-1.6-6.7-4.2c-1.9-2.9-2.5-6.1-1.7-9.5c1-4,4.8-6,8.5-4.3c1.4,0.6,2.8,1.7,3.7,2.9
	c2.5,3.1,3.5,6.7,2.5,10.7C651.3,303.2,649.3,304.8,645.6,304.7z"/>
<path d="M607.5,325.1c-0.8,2-1.5,3.9-2.4,5.9c-0.3,0.7-1.1,1-1.8,0.7c-2-0.8-3.9-1.6-5.8-2.6c-1.2-0.6-1.3-1.5-0.3-2.4
	c2.5-2.3,5.5-3.4,8.9-3.2C607.1,323.5,607.4,323.9,607.5,325.1z M637,314c-4.1-6.3-5.3-13.2-3.7-20.4c0.4-1.9,1.4-3.8,2.5-5.4
	c3-4.6,8.5-5.9,13.3-3.2c2.3,1.2,4,3,5.5,5.1c3.1,4.3,4.7,9.6,4.7,15.2c0.1,3.6-0.7,7-2.5,10.1c-3.6,6-10,7.3-15.5,3.1
	C639.6,317.2,638.1,315.7,637,314z M638.9,300.5c1.7,2.6,4.2,4,6.7,4.2c3.7,0.1,5.7-1.5,6.4-4.5c1-4,0-7.6-2.5-10.7
	c-1-1.2-2.3-2.2-3.7-2.9c-3.7-1.7-7.6,0.3-8.5,4.3C636.4,294.4,637,297.6,638.9,300.5z M628.4,414.2c-0.6,0.3-1.1,0.7-1.9,1.1
	c0.5,0.3,1,0.7,1.4,0.9c2.7,1.4,5.4,2.7,8,4.1c3.5,1.8,7,3.5,10.3,5.7c5.2,3.5,11,5,17.2,4.7c0.7,0,1.5-0.1,2.2,0
	c1.6,0.2,2.2,0.9,2.1,2.6c-0.1,0.8-0.3,1.6-0.6,2.3c-1,3.1-0.8,3.7,2,5.3c1.6,0.9,3.1,2.1,4.6,3.2c1,0.7,1.5,1.7,1.2,3
	s-1.2,1.9-2.3,2.2c-0.8,0.2-1.7,0.4-2.5,0.7c-0.6,0.2-1.1,0.6-1.8,1c0.7,1,1.2,1.7,1.7,2.5c0.5,0.7,0.9,1.5,1.3,2.3
	c0.5,0.9,0.8,1.9,0.1,2.8c-0.6,0.8-1.5,0.7-2.4,0.6c-1.3-0.1-2.6-0.1-4.2-0.2c0.1,0.9,0.2,1.5,0.3,2.1c0.2,0.9,0.5,1.8,0.5,2.7
	c0.1,1.3-0.3,1.7-1.5,1.8c-1.1,0.1-2.3,0-3.4,0c-2.1,0-2.9,0.5-3.7,2.4c-1.6,4.2-2.5,4.8-6.8,4.4c-6.2-0.6-12.2,0.6-18.1,2.3
	c-15.9,4.4-32.1,7.3-48.4,9.5c-4,0.5-8.1,1-12.1,1.5c-1.4,0.2-2.5,0.7-3.4,1.8c-13.4,16.5-28.8,30.8-45,44.5
	c-16,13.5-32.5,26.4-50,38c-2.1,1.4-3.5,3.2-4.7,5.3c-4.6,7.7-9.3,15.4-14,23c-4.1,6.5-9.2,12.2-15.5,16.8c-8,5.9-17,9.4-26.7,11
	c-1.5,0.3-3,0.4-4.5,0.7c-1.6,0.3-1.9,0.7-1.9,2.3c0,1.5,0.3,3,0.3,4.6c0.3,7.9,0.5,15.8,0.9,23.8c0.4,7.9,1.7,15.6,4.5,23
	c1.8,4.8,1.5,9.5-0.2,14.3c-0.6,1.8-1.9,2.9-3.9,2.9c-3,0.1-5.9-0.4-8.3-2.4c-8.2-6.8-14.5-14.9-17.2-25.4c-0.9-3.5-1.3-7.1-2-10.6
	c-1.6-7.8-4.4-15.2-7.2-22.6c-2.2-5.8-4.5-11.5-6.5-17.4c-1.5-4.1-2.1-8.4-2.2-12.8c0-1-0.2-2-1-2.8c-6.8-7.4-10.6-16.4-13.3-25.9
	c-2.3-8.4-4.4-16.9-6.8-25.3c-2-7.1-4.3-14.1-6.6-21.2c-1.4-4.3-3.8-8-6.7-11.3c-6.5-7.5-13.1-15-19.7-22.4
	c-7.5-8.4-15-16.6-21.6-25.7c-5.9-8.1-10.7-16.7-13.3-26.5c-1.6-5.9-2.4-11.9-2.2-18c0-0.4,0-0.8,0-1.2c-0.1-1.3-0.5-1.8-1.8-2
	c-1.9-0.3-3.8-0.4-5.8-0.7c-7.8-1-15.6-1.8-23.4-2.9c-7.9-1.2-15.7-3-23.3-5.4c-5.6-1.7-10.7-4.5-15.6-7.5c-2.3-1.4-4.5-2.9-6.8-4.2
	c-2.7-1.6-4.4-4.1-5.7-6.8c-1-1.9,0-3.6,2.1-3.6c2-0.1,4,0,5.9,0.5c8.4,2.2,16.8,3.5,25.4,3.8c10.2,0.4,20.2-0.3,30.3-1.8
	c8.4-1.2,16.8-2.4,25.2-2.5c1.6,0,3.2,0,4.8,0c3.6,0,4-0.4,3.8-4c-0.2-3.7-0.4-7.5-0.6-11.2c-0.1-3.2-0.3-6.4-0.3-9.6
	c-0.1-5.1-1-4.5-4.6-3.8c-13.7,2.6-27.3,5.2-41,7.8c-2.6,0.5-5.2,1-7.9,1.5s-3.4-0.2-2.7-2.9c3.7-15.4,7.1-30.9,12.2-45.9
	c0.9-2.6,1.8-5.1,2.9-8c-1.3,0.2-2.5,0.2-3.5,0.5c-21.1,6.1-42.2,12.3-63.3,18.4c-0.8,0.2-1.7,0.5-2.5,0.6c-1.5,0.3-2-0.2-1.8-1.7
	c0.2-1.4,0.5-2.8,0.8-4.1c3.7-17.7,7.2-35.5,11.1-53.2c2.6-11.6,5.7-23.1,8.6-34.7c0.2-0.7,0.4-1.4,0.5-2.1c0.3-1.6-0.1-2.1-1.8-1.9
	c-0.6,0.1-1.2,0.2-1.8,0.3c-14.5,3.4-28.7,8-42.7,13.2c-13.5,5-27,9.9-40.2,15.8c-6.4,2.9-12.7,6.2-19,9.3c-0.5,0.2-0.9,0.5-1.4,0.8
	c-1.6,0.7-2.4,0.5-3.5-0.9c-0.3-0.4-0.6-0.9-0.8-1.4c-15.9-26.9-31.8-53.8-47.6-80.7c0-0.1-0.1-0.1-0.1-0.2c-1.9-3.2-1.6-4.3,1.7-6
	c13-6.7,26.4-12.4,40-17.6c29.5-11.2,59.3-21.2,89.9-29c17.2-4.4,34.6-8.4,52.1-11.4c10.5-1.8,21-3.5,31.6-5
	c7.6-1.1,15.2-1.7,22.8-2.6c3.8-0.4,7.7-0.9,11.5-1.4c0.9-0.1,1.8-0.2,2.4,0.6c0.5,0.8,0.2,1.5-0.2,2.3
	c-9.5,19.7-17.9,39.8-26.1,60.1c-9.9,24.4-19,49.1-27.3,74c-2.1,6.3-3.8,12.6-5.7,18.9c-0.2,0.5-0.3,1.1-0.4,2
	c1.6-0.3,2.9-0.4,4.2-0.7c10.8-2.9,21.9-4.7,33-6.2c8.2-1.1,16.4-2.2,24.6-3c5.3-0.5,10.6-0.5,16-0.6c1.9,0,2.2,0.6,1.4,2.2
	c-0.2,0.4-0.4,0.7-0.6,1c-10.1,15.5-18.5,31.9-26.3,48.6c-3.3,7.2-6.6,14.4-9.8,21.7c-0.3,0.7-0.6,1.5-0.9,2.3
	c1.4,0.6,2.6,0.1,3.8-0.3c10.7-3.6,21.7-5.3,32.9-6.1c0.5,0,1.1,0,1.6,0.1c0.8,0.1,1.3,0.7,1.2,1.6c0,0.5-0.1,1.1-0.2,1.6
	c-2,8.7-3.2,17.5-4.2,26.4c-0.3,3-0.7,6-1,8.9c-0.1,1-0.5,2.1,0.4,3.3c0.6-0.3,1.3-0.7,1.9-1c8.6-4.7,17.5-8.5,27-10.8
	c7-1.6,14-2.6,21.2-2.7c10.8-0.1,21.6-0.1,32.4-0.1c0.8,0,1.6,0,2.5,0c-0.1-0.5-0.1-0.7-0.2-0.9c-4.7-13.2-8.2-26.7-11.6-40.3
	c-1.8-7-3.4-14-5-21c-0.4-1.8-0.8-3.7-0.9-5.5c-0.2-3-1.7-5.3-3.8-7.2c-0.6-0.6-1.3-1.2-1.8-1.9c-1.7-2.1-1.3-3.5,1.3-4.6
	c0.8-0.3,1.6-0.5,2.4-0.9c2.3-1,2.8-2,2.1-4.4c-0.7-2.3-0.2-3.1,2.2-3.6c3.5-0.7,3.5-0.7,2.8-4.1c-0.4-1.8,0.4-3.2,2.3-3.5
	c1.6-0.2,3.2-0.3,4.8-0.2c2.9,0.2,3.7-0.3,4.7-2.9c0.9-2.4,2.5-3.1,4.9-2.1c0.7,0.3,1.3,0.7,1.9,1c2.5,1.4,4.9,1.5,7.4,0.1
	c1-0.5,2-1.1,3-1.5c1.7-0.6,2.7-0.2,3.3,1.5c0.3,0.7,0.5,1.5,0.5,2.3c0.6,4.4,2.7,8.1,5.8,11.1c3.6,3.5,7.3,7,11,10.5
	c6.1,6,11.7,12.4,16.9,19.2c0.2,0.3,0.5,0.6,1,1.3c0.2-1.8,0.4-3.3,0.6-4.8c0.9-7.5,1.8-15.1,2.8-22.6c1.2-8.2,3.3-16.2,6.3-23.9
	c0.1-0.2,0.1-0.4,0.2-0.6c1-2.6,0.5-3.6-2.1-4.1c-17.1-3.3-33.3-9.4-49.3-16c-23.5-9.7-45.7-21.8-66.3-36.8
	c-7-5.1-13.8-10.2-19.8-16.4c-2.2-2.3-4.3-4.8-6.4-7.2c-0.3-0.4-0.6-0.7-0.8-1.1c-1-1.6-0.8-2.7,1-3.3c3-1,6-1.8,9.1-2.4
	c8.6-1.7,17.3-1.7,25.9-1c38.5,3,75.1,13,109.9,29.5c5.6,2.6,11,5.6,16.5,8.5c1.9,1,3.6,2.5,5.5,3.7c1.4,0.9,2.8,1.8,4.2,2.6
	c2.3,1.3,4.6,1.3,6.9,0c1.1-0.6,2.1-1.1,3.1-1.8c3.4-2.5,7.2-4.3,11-6c15-6.5,30.5-11.1,46.7-13.5c12.8-1.9,25.8-2.4,38.7-1.2
	c5.3,0.5,10.5,1.6,15.8,2.5c0.6,0.1,1.3,0.2,2.2,0.3c-0.2-0.7-0.3-1.2-0.5-1.7c-5.5-14.4-9.7-29.2-12.7-44.3
	c-1.7-8.6-3-17.3-3.9-26.1c-0.8-7.9-1.2-15.8-1.3-23.7c-0.2-10.9,0.3-21.8,1.3-32.7c1.2-13.3,3.3-26.5,6.1-39.7
	c0.1-0.6,0.3-1.2,0.6-2.1c1.6,1.2,3,2.4,3.9,3.9c2.3,3.5,4.5,7.1,6.5,10.8c5,9.3,8.8,19.3,12.5,29.2c1.3,3.4,2.7,6.7,4.5,9.8
	c0.8,1.3,1.1,3,1.6,4.5c0.2,0.5,0.2,1,0.4,1.5c5.7,15.2,9.8,30.8,13.5,46.6c2.8,11.9,5.3,23.9,7.1,36c1.5,10.1,2.8,20.3,3.1,30.6
	c0.1,4.9,0.1,9.7,0,14.6c0,1.9,0.5,3.4,1.8,4.9c8.7,9.8,14,21.5,17.2,34.1c2.5,9.7,3.5,19.5,3.6,29.5c0.2,11.9,0.9,23.7,3.2,35.4
	c1,5.4,2.5,10.6,4.7,15.7c2.4,5.7,3.8,11.6,3.7,17.9c-0.1,7.1-2.1,13.7-5.4,19.9c-3.8,7.2-8.8,13.5-14.4,19.4
	C653.8,397.7,641.5,406.4,628.4,414.2z M673.6,322.5c-1.1,0.5-2.3,1.2-3,2.1c-1.8,2.3-3.5,4.7-4.9,7.3c-3.9,7.7-5.6,15.9-5.8,24.5
	c0.4,3.4,0.6,6.8,1.1,10.1c0.6,4.1,2.3,7.8,5.6,10.5c1.8,1.4,2.6,1.3,4-0.4c5.8-7.7,9.9-16.1,11.4-25.7c0.9-5.5,0.9-10.8-1.5-16
	c-1.5-3.3-2.9-6.6-3.5-10.2c0-0.3-0.1-0.5-0.2-0.8C676.1,322.5,675,321.9,673.6,322.5z M610.4,191.8c0.5,1,1,1.8,2.2,2.2
	c3.5,1,7,2.1,10.7,3.2c0.2-2.2-0.6-3.7-1.5-5.2c-2.4-4.2-4.9-8.4-7.4-12.6c-8.3-13.6-14.8-28-19.6-43.2c-0.1-0.4-0.3-0.7-0.5-1.1
	c-0.2,0.7-0.1,1.4,0,2c0.3,1.6,0.7,3.2,1,4.9c1.9,10.5,4.2,21,7.5,31.2C604.9,179.6,607.5,185.8,610.4,191.8z M379.2,316.7
	c0.3,0.8,0.7,1.5,1.4,2.1c1.7,1.5,3.5,3.1,4.9,5c2.6,3.4,4.9,7,7.3,10.5c5.6,8.6,10.6,17.5,14.8,27c0.9,2.1,1.3,2.3,3.5,2
	c2.7-0.3,5.4-0.6,8.1-1.1c9-1.4,17.7-3.9,26-7.8c2.3-1.1,2.6-1.7,2-4.1c-2.6-10.9-3.1-21.9-2.3-33c0.3-3.6-0.5-6.6-2.8-9.5
	c-4.6-5.8-9.4-11.4-14.6-16.7c-4.3-4.3-8.7-8.5-13-12.7c-3.3-3.3-5.6-7.1-6-11.9c0-0.7-0.5-1.3-0.8-2.2c-0.7,0.4-1.3,0.7-1.7,1
	c-4,2.8-6.6,2.9-10.6,0.3c-2.5-1.6-3.2-1.4-3.8,1.6c0,0.1,0,0.1,0,0.2c-0.5,2-1.5,2.8-3.5,2.7c-1.5-0.1-3-0.2-4.6-0.3
	c-2.9-0.2-3.2,0.2-2.2,3c0,0.1,0,0.1,0.1,0.2c0.9,2.7,0,4-2.9,4.2c-0.5,0-1,0-1.4,0c-0.6,0.1-1.2,0.3-2,0.5c0.5,1.1,0.9,1.9,1.2,2.8
	c0.7,1.8,0.2,3.1-1.6,3.9c-0.8,0.4-1.6,0.5-2.5,0.8c-1,0.3-2,0.7-3.2,1.1c0.6,0.6,0.8,1,1.1,1.2c2.5,2.4,4.1,5.3,5,8.5
	c0.5,2,0.9,4.2,1.2,6.3C376.8,307.4,377.7,312.1,379.2,316.7z M441.7,359c-8.9,3.1-18,5.3-27.3,6.5c-1.4,0.2-2.3,0.9-2.9,2.2
	c-2.2,4.8-4.5,9.5-6.6,14.3c-1.4,3.3-2.4,6.8-3.4,10.2c-0.4,1.5-0.4,3.2-0.2,4.8c0.2,2,1.6,2.8,3.6,2.3c0.8-0.2,1.6-0.5,2.2-0.9
	c2-1.4,4-2.6,5.7-4.3c3.3-3.3,6.5-6.7,9.4-10.3c6.8-8.1,13.4-16.3,20-24.4c0.1-0.1,0.1-0.2,0.2-0.6
	C442.1,358.9,441.9,358.9,441.7,359z M392.1,362.5c0.8,2.5,1,2.5,3.6,2.3c3.3-0.3,6.5-0.6,9.7-0.9c0.5,0,1-0.2,1.6-0.3
	c-0.1-0.4-0.1-0.6-0.3-0.9c-4.1-9.3-8.9-18.2-14.4-26.7c-2.8-4.2-5.7-8.4-8.6-12.5c-0.9-1.2-2-2.2-3-3.3c-0.3,0.8-0.2,1.4-0.1,1.9
	c1.3,5.3,2.4,10.7,3.9,15.9C386.9,346.3,389.6,354.4,392.1,362.5z M342.7,401.1c-0.4,1.5-0.4,3.2-0.3,4.8c0.1,2.3,1.4,3.2,3.6,2.8
	c0.6-0.1,1.2-0.2,1.7-0.5c1.8-1.2,3.9-2.2,5.4-3.7c3.9-3.8,7.5-7.7,11.2-11.7c5.2-5.6,10.3-11.4,15.5-16.9c2.5-2.7,5.3-5.1,8.3-7.9
	c-0.7,0-1.1-0.1-1.5-0.1c-8.7-0.1-17.3,0.3-26-0.5c-0.8-0.1-1.9,0.3-2.6,0.8c-0.8,0.5-1.3,1.3-1.9,2
	C349.7,379.5,345.2,389.9,342.7,401.1z M89.2,265.8c7-7.9,14.2-15.5,22.2-22.4c17.3-14.9,35.7-28.4,54.8-40.8
	c15.5-10,31.6-18.9,48.7-25.8c6-2.4,12.1-4.4,18.2-6.6c0.7-0.3,1.5-0.3,2.1,0.3s0.6,1.4,0.3,2.2c-0.2,0.6-0.5,1.3-0.6,1.9
	c-4.5,14.6-8.2,29.4-11.5,44.3c-3.3,15-6.4,30-9.7,44.9c-2.8,12.6-4.9,25.2-6.9,37.9c-0.1,0.7,0,1.4,0.1,2.1c0.6,0,0.9,0.1,1.2,0
	c0.8-0.2,1.7-0.5,2.5-0.7c10.8-3.7,21.7-7.5,32.6-10.9c11.7-3.8,23.6-7,35.7-9.5c3-0.6,4.1,0.1,4,3.3c-0.1,2.4-0.2,4.8-0.5,7.2
	c-1.2,8.6-2.5,17.1-3.7,25.7c-0.1,0.6-0.1,1.2-0.1,1.8c4.5-8.2,8.6-16.4,12.8-24.7c4.2-8.3,8.8-16.4,13.9-24.4
	c-0.7-0.1-1-0.2-1.3-0.2c-4.7,0.2-9.3,0.2-14,0.6c-6.7,0.7-13.4,1.6-20,2.6c-8.5,1.3-17,2.7-25.4,4.3c-5,0.9-10,2.3-15,3.4
	c-2.3,0.5-3.2-0.5-2.7-2.7c0.6-2.5,1.3-5,2-7.5c4-14,8.5-27.8,13.5-41.4c12.8-34.8,26.8-69.2,42-103c0.5-1,0.9-2,1.4-3.3
	c-0.6,0-1,0-1.3,0c-10.8,1.2-21.7,2.3-32.5,3.7c-16.7,2.1-33.2,5.1-49.6,8.6c-27.9,5.9-55.4,13.4-82.5,22.3
	c-22.6,7.4-45,15.5-66.5,25.5c-4.2,2-8.3,3.9-12.5,5.9c-2.1,1-2.2,1.7-1,3.6c1.6,2.7,3.2,5.4,4.8,8.1c13.1,22.2,26.1,44.3,39.2,66.4
	c0.3,0.6,0.7,1.1,1.2,1.8C86.5,268.8,87.9,267.4,89.2,265.8z M243.7,332.8c2.8-3,4.6-6.7,7.9-9.4c0.7,4.1-0.7,8-0.2,12.3
	c4.2-5.8,8.1-11.3,12.1-16.7c0.6,0.3,1,0.6,1.6,0.8c-1,3.9-1.9,7.8-2.9,11.6c0.1,0.1,0.2,0.1,0.3,0.1c1.7-2.7,3.3-5.3,5.2-8.3
	c1.3,3.5,0.4,6.8,0.7,10.4c0.5-0.5,0.9-0.8,1.1-1.1c2.2-2.4,4.4-4.8,6.6-7.2c0.8-0.9,1.4-1.7,0.8-3c-0.2-0.3,0-0.8,0-1.2
	c1.1-7.8,2.3-15.7,3.4-23.5c0.5-4,0.9-7.9,1.2-11.9c0.1-2-0.5-2.3-2.4-1.9c-2.2,0.5-4.4,0.9-6.6,1.4c-13.2,3.1-26.3,6.9-39.2,11.2
	c-7.6,2.5-15.2,5.3-22.8,7.9c-1,0.4-2.2,0.6-3.3,0.7c-0.9,0.1-1.5-0.5-1.7-1.4c-0.1-0.6-0.1-1.3-0.1-2c0.2-1.3,0.4-2.6,0.6-3.9
	c1.3-7.5,2.3-15,3.9-22.4c3.5-17.2,7.2-34.4,11-51.6c3.6-16.6,7.7-33.1,12.7-49.3c0.3-0.9,0.6-1.9,0.9-3c-0.5,0-0.8-0.1-1.1,0
	c-3.4,1.1-6.7,2.2-10,3.4c-16.4,5.9-31.9,13.8-46.8,22.8c-16.7,10-32.5,21.3-47.9,33.2c-9,6.9-17.8,14.1-25.8,22.2
	c-5.5,5.6-10.7,11.5-16,17.3c-0.4,0.4-0.8,0.9-1.1,1.3c0.4,0.9,0.7,1.7,1.1,2.5c0.6,1.1,1.1,1.3,2.3,0.9c0.6-0.2,1.1-0.5,1.6-0.8
	c3.9-2,7.8-4,11.8-5.9c23.4-10.7,47.5-19.7,72.1-27.2c6.9-2.1,14-3.7,21.1-5.3c3.3-0.8,4.2,0.4,3.3,3.7c-0.9,3.5-1.9,6.9-2.9,10.4
	c-7.3,26.8-12.4,54-17.9,81.1c-0.1,0.7-0.1,1.4-0.2,2.4c1-0.2,1.8-0.4,2.5-0.6c20.9-6.1,41.8-12.2,62.7-18.3
	c1.1-0.3,2.2-0.9,3.4-1.2c2.2-0.4,3.5,1.2,2.7,3.2c-0.3,0.9-0.9,1.7-1.2,2.5c-1.5,4.2-2.8,8.3-4.3,12.5
	C243.7,332,243.8,332.4,243.7,332.8z M289,364.3c0.5,2.5,0.9,5,1,7.5c0.2,3.5,0.1,6.9,0.1,10.4c0,2.5,0.3,5,0.9,7.7
	c0.7-0.5,1.3-0.9,1.8-1.3c1.8-1.3,3.6-2.8,5.5-4c2.6-1.6,4-3.9,4.3-6.8c0.2-1.7,0.3-3.5,0.5-5.2c1.3-9.3,2.5-18.6,3.8-27.9
	c0.1-0.7,0.2-1.5,0.2-2.2c0-1.2-0.3-1.5-1.4-1.5c-0.9,0-1.7,0.1-2.6,0.2c-2.5,0.3-5,0.7-7.5,1.1c-7.5,1.1-14.8,2.7-22,5
	c-1,0.3-2,0.8-3,1c-1.8,0.4-3.1-1-2.8-2.8c0.1-0.4,0.3-0.8,0.4-1.1c1.1-2.4,2.2-4.9,3.2-7.3c1.1-2.4,2.1-4.9,3.1-7.3
	c-0.1-0.1-0.2-0.2-0.3-0.4c-2.3,2.2-4.3,4.8-7,7.3c-0.1-2-0.2-3.6-0.2-5.1s0-3,0-4.5c-0.1,0-0.2-0.1-0.3-0.1
	c-1.8,2.9-3.6,5.8-5.4,8.7c-1.2-0.2-1.5-0.7-1.2-1.7c0.9-3.3,1.7-6.6,2.5-9.9c0.2-0.7,0.3-1.5,0.5-2.2c-2.4,2.7-4.4,5.5-6.4,8.3
	s-4,5.7-6.3,8.3c-0.3-0.8-0.5-1.5-0.4-2.2c0.1-2.8,0.3-5.6,0.4-8.4c0-0.5-0.1-0.9-0.1-1.8c-1.2,1.7-2.1,3-3.1,4.3
	c-1.2,1.5-2.3,3.1-3.6,4.6c-0.8,0.9-1.3,1.8-1.6,2.9c-1.7,6.6-3.5,13.1-5.2,19.7c-1.1,4.4-2.1,8.8-3.1,13.3c0.6,0,1,0.1,1.4,0
	c13.6-2.6,27.2-5.1,40.8-7.7c3-0.6,6-1.2,9-1.7C287.6,361.1,288.5,361.6,289,364.3z M244.4,418.3c0.7-2.4,2.2-4.1,4-5.5
	c1.3-0.9,2.6-1.9,3.9-2.7c7.6-4.6,16-6.9,24.7-8.1c4-0.5,6-3.2,8-6c-0.1-0.1-0.2-0.3-0.2-0.4c-0.5,0-1.1,0-1.6,0
	c-7.3-0.1-14.6,0.8-21.9,1.7c-5.9,0.8-11.7,1.6-17.6,2.2c-8.6,0.8-17.2,0.8-25.7,0.1c-7.2-0.6-14.4-1.7-21.4-3.8
	c-0.6-0.2-1.3-0.5-1.9-0.5c-0.5,0-1.1,0.3-1.3,0.6c-0.2,0.4,0,1.1,0.3,1.4c0.5,0.5,1.1,0.9,1.8,1.3c1.9,0.9,3.7,1.8,5.6,2.6
	c6.2,2.7,12.7,4.3,19.2,5.9c1.8,0.4,3.6,0.8,5.4,1.3c1.1,0.3,2.2,0.7,3,2.4c-3.2-0.6-5.9-1.5-8.6-2.1c-2.7-0.6-5.4-1.3-8.2-1.9
	c-2.8-0.7-5.5-1.3-8.3-2c0.4,0.5,0.9,0.8,1.4,1.1c6.5,2.7,13.2,4.7,20.1,5.7c0.7,0.1,1.5,0.3,2.1,0.6c0.4,0.2,0.7,0.8,0.7,1.2
	c-0.1,0.8-0.8,0.8-1.4,0.6c-0.4-0.1-0.8-0.2-1.2-0.3c-4.1-1-8.1-2.1-12.2-3.1c-0.5-0.1-1.1-0.2-1.6-0.4c0,0.1-0.1,0.3-0.1,0.4
	C222,415.3,232.9,417.9,244.4,418.3z M405.6,667.5c-1.1-6.9-1.5-13.8-1.7-20.7c0-1.1-0.3-2.1-1-3c-1.8,4-3.6,7.9-5.4,11.7
	c-0.7,1.4-1.5,2.8-2.4,4.1c-1.4,2-3.5,2.6-5.8,2c-1.6-0.4-3.1-1-4.4-2.2c-0.5-0.5-1.3-0.8-2.3-1.3c0.3,2,0.6,3.5,0.8,5
	c1,9.4,4.9,17.5,11.4,24.3c1.9,2,3.9,3.8,6,5.6c0.9,0.8,2,1.5,3.6,1.4c-1.4-2.8-2.7-5.3-4-7.8c-1.9-3.7-3.8-7.3-4.8-11.4
	c-0.3-1.5-0.5-3-0.8-4.7c1.8,0.5,2.8,1.2,3.3,2.8c0.7,2.3,1.6,4.7,2.6,6.9c2.1,4.6,4.4,9.1,6.6,13.7c0.1,0.2,0.3,0.4,0.4,0.6
	c1.1-0.2,1.4-0.9,1.1-1.8c-0.3-1.1-0.7-2.1-1.2-3.2c-1.9-4.3-3.9-8.6-5.9-12.9c-0.3-0.6-0.5-1.2-0.8-1.8c0.9-0.4,1.7-0.8,2.6-1.2
	c2.3,4.7,4.5,9.3,6.6,13.8c0.1-0.8-0.1-1.5-0.3-2.2C407.9,679.5,406.5,673.5,405.6,667.5z M419.4,618.9c1.5-4.5,2.4-9,2.1-13.7
	c-0.4-9-3-17.5-7.2-25.5c-4.3-8.1-9.8-15.4-15.8-22.3c-14.5-16.3-29.9-31.7-46.3-46.1c-3-2.7-6-5.5-8.5-8.8
	c-3.7-4.8-6.9-10-9.6-15.4c-5-9.6-8.5-19.8-12.1-30c-3-8.7-6.1-17.3-9.2-26c-1.3-3.7-3.1-7.2-5.8-10.2c-3.6-4-7.9-6.5-13.5-6.2
	c-2.1,0.1-4.3,0.1-6.4-0.1c-3.1-0.3-4.2-1.8-3.8-4.9c0-0.3,0.1-0.5,0.2-0.8c0.5-2.9,1.8-5.6,3.1-8.2c0.4-0.8,1-1.5,0.9-2.5
	c-0.2,0.2-0.4,0.2-0.5,0.3c-0.9,1.1-1.7,2.2-2.6,3.3c-1.3,1.7-1.7,1.7-3.2,0.3c-1,0.3-2,0.6-3.1,0.8c-3.5,0.7-7.1,1.3-10.6,2.1
	c-5.8,1.5-11.4,3.6-16.4,7.1c-1.5,1-2.8,2.3-4.1,3.5c-0.7,0.7-1.2,1.5-1.3,2.6c0.3,0.1,0.5,0.2,0.6,0.3c6.9,0.8,13.8,1.7,20.6,2.5
	c1.3,0.2,2.5,0.4,3.8,0.4c1.4,0.1,1.6-0.1,2-1.4c0.1-0.5,0.2-1,0.3-1.6c0.5-2,0.9-4,1.5-6c0.5-1.6,1.4-3,2.7-4.1
	c0.9,1.7,1,2.7,0.5,4.3c-0.3,1-0.7,2-1,3c-2.4,9.6-1.9,19.2,0.6,28.6c2.6,9.7,7.4,18.4,13.3,26.4c5.8,7.8,12.3,15.1,18.7,22.4
	c8,9,15.9,18.1,23.7,27.3c4.1,4.8,7.6,10,10.2,15.7c1.2,2.6,2.2,5.3,3.1,8c0.6,1.7,0,3.1-1.2,4.2c-0.9-3.3-1.8-6.5-3.5-9.4
	c-0.1,0.4,0,0.7,0.1,1c3.9,11.7,6.9,23.7,9.8,35.6c2.6,10.7,7.2,20.1,14.7,28.2c5.1,5.4,10.7,10.2,17,14.2c1.6,1,2.4,2.4,2,4.5
	c-3.5-1.7-6.6-3.7-9.6-5.9s-5.8-4.5-9-7c0.1,0.7,0.1,1,0.2,1.3c1.4,4.9,2.5,9.8,4.1,14.6c2.3,6.9,5,13.8,7.5,20.7
	c1.3,3.6,2.4,7.3,3.6,11.1c1.5,0.1,2.8,1,4,2c1,0.7,2.2,1.2,3.4,1.5c1.7,0.5,3.2-0.1,4.3-1.5c0.7-1,1.4-2,1.9-3
	c2.5-4.7,4.6-9.6,6.4-14.6c0.3-0.7,0.8-1.3,1.2-1.9c0.5-5-0.1-10-1.7-15.1c6-0.4,11.6-0.8,16.8-2.7
	C419,620.6,419.1,619.7,419.4,618.9z M610.2,476.8c-3.1-0.7-6.2-1-9.2-1.3c-7.3-0.9-14.6-1.7-21.8-2.6c-8.1-1.1-16.1-2.3-24.1-3.4
	c-7.9-1-15.8-2.1-23.8-3c-6.8-0.8-13.6-1.5-20.5-1.5c-12.5,0-23.7,3.9-33.7,11.2c-8,5.8-13.9,13.6-18.5,22.3c-0.5,1-1.3,2.1-0.4,3.3
	c1,1.2,2.3,0.9,3.5,0.7c0.1,0,0.3-0.1,0.4-0.1c3.4-1,6.8-1.9,10.1-3c4.3-1.4,8.4-3.3,12.5-5.4c5.6-3,11.5-5.3,17.7-6.7
	c0-0.1,0-0.3,0-0.4c-2.9,0-5.8-0.1-8.8,0c-4.1,0.1-8.1,0.3-12.2,0.5c-0.6,0-1.3,0.1-1.4-0.7c-0.1-0.9,0.6-1.1,1.3-1.2
	c0.2,0,0.4,0,0.6,0c3-0.2,6.1-0.1,9.1-0.5c5.5-0.6,11-0.7,16.5-0.8c6.1-0.1,12.3,0.1,18.4,0.3c11.6,0.2,23.2,0,34.8-0.9
	c10-0.8,20-1.9,30-3.1c6.1-0.8,12-2.2,18.1-3.3C609.2,477.2,609.7,477,610.2,476.8z M596.2,347.5c-1.1-0.9-1.9-0.8-3.1,0.1
	c-1.1,0.9-2.1,2-3.2,3c-4.5,4.1-9.7,6.8-15.8,7.5c-4.3,0.5-8.3-0.2-12.4-1.4c-0.8-0.2-1.6-0.4-2.8-0.6c1.1,5.7,2.1,11,3.2,16.7
	c1-1.1,1.6-2,2.5-2.8c4.2-3.5,8.5-6.8,13.6-9c7-3.1,14.3-4.4,21.9-4.8c1,0,2.1-0.1,3.1-0.2c0-0.3,0-0.5,0-0.6
	C601.3,352.4,598.9,349.8,596.2,347.5z M614.6,368.3c0.3-1,0.5-1.5,0.6-2.1c1.3-5.3,2.6-10.6,3.9-15.9c0.7-2.8-0.3-4-3.1-3.7
	c-3,0.3-6,0.1-9-0.3c-2.4-0.3-4.9-0.5-7.3-0.7c-0.1,0.1-0.1,0.3-0.2,0.4C605.5,352.8,609.8,360.5,614.6,368.3z M562.9,376.6
	c1.4,6.3,3,12.6,5.5,18.5c0.8,1.9,2.1,3,4.1,3.4c8.6,1.6,17,3.7,25.4,6.3c1.7,0.5,2.4,0.2,3.3-1.4c0.6-1.1,1.1-2.3,1.6-3.4
	c3.7-8,6.7-16.2,9.3-24.6c0.3-1.1,0.7-2.3,0.1-3.5c-1.8-3.8-3.5-7.6-5.5-11.3c-1.9-3.5-2-3.4-5.9-3.2c-0.1,0-0.1,0-0.2,0
	c0,0,0-0.1,0-0.2c-2.9,0.3-5.8,0.6-8.7,1c-9.9,1.4-18.5,5.7-26,12.3c-0.8,0.7-1.5,1.7-2.2,2.6C563,374.2,562.6,375.4,562.9,376.6z
	 M603.2,406.3c0.8,0.4,1.5,0.8,2.2,1c5.3,1.9,10.6,3.7,15.8,5.6c1.7,0.6,3.1,0.5,4.7-0.4c14.6-8.1,27.6-18.3,39.1-30.5
	c0.5-0.5,0.9-1.1,1.7-2.1c-0.5-0.3-1-0.5-1.3-0.7c-3.1-2.3-5-5.5-6.1-9.2c-0.7-2.7-1.3-5.4-1.6-8.2c-1.2-11.2,1.1-21.7,5.9-31.8
	c2.1-4.4,5.2-7.9,9.6-10.1c0.3-0.2,0.6-0.4,1-0.7c-0.1-0.7-0.3-1.4-0.4-2c-0.6-3.5-1.3-6.9-1.8-10.4c-1.3-9-1.8-18.1-2.2-27.3
	c-0.3-7.9-0.8-15.8-2.2-23.7c-1.8-10-4.9-19.5-10-28.3c-3.2-5.4-7-10.3-11.5-14.8c-0.6-0.6-1.1-1.2-1.5-1.8
	c-0.6-1.1-0.1-1.7,1.2-1.8c0.6,0,1.3-0.1,2.1-0.2c-0.2-1.5-0.5-2.7-0.5-4c-0.1-2.9,0-5.7,0-8.6c-0.1-8.8-0.9-17.6-2.2-26.3
	c-1.5-9.3-3.2-18.6-5-27.9c-4-20.5-10.1-40.6-16.3-60.5c-0.4-1.4-1.2-2.7-1.9-4.4c-1.8,2.1-3.5,3.9-4.9,5.8
	c-5.7,7.6-10.5,15.7-14.5,24.3c-2.8,5.9-5.3,11.9-7,18.3c-0.8,3-0.8,5.8,0.1,8.8c4.6,14.7,10.6,28.7,18.5,41.9
	c2.9,4.9,5.8,9.9,8.7,14.8c0.9,1.6,1.7,3.2,1.8,5c0,0.8,0.1,1.5,0.6,2.2c0.8,1.2-0.2,2.5-1.6,2.3c-0.3,0-0.7-0.1-1-0.3
	c-4.6-2.1-9.5-3.5-14.4-4.7c-18.8-4.7-37.8-4.9-56.9-2.1c-13,1.9-25.5,5.3-37.8,9.8c-7.2,2.7-14.3,5.5-20.9,9.5
	c-1.1,0.7-2.2,1.4-3.5,2.3c5.3,4.5,11,8.3,15.2,14c-2.1,0.6-3.7,0.1-5.1-1.3c-4.4-4.3-9.2-8.1-14.2-11.6c-9.7-6.7-20-12.2-30.6-17.2
	c-22.7-10.6-46.4-17.9-70.8-23.2c-1.4-0.3-2.9-0.5-4.3-0.6c-1.8-0.1-2.3,0.5-2.1,2.3c0.1,0.8,0.3,1.6,0.5,2.4
	c2.2,8.4,5.3,16.5,9.4,24.1c5.5,10.3,12.3,19.6,19.7,28.6c1.8,2.2,4.1,3.8,6.7,4.8c11.7,4.7,23.8,8.2,35.9,11.6
	c2.8,0.8,5.7,1.4,8.5,2c3.3,0.7,6.7,0.6,10.1,0.5c6.7-0.3,13.5-0.5,20.2-0.7c1.5,0,3.1-0.1,4.6,0.1c1.6,0.2,2.1,1.1,1.8,2.7
	c-0.1,0.7-0.4,1.4-0.7,2c-1.1,1.7-2.1,3.4-3.4,4.9c-1.9,2.1-4,4-6.1,6.1c-1.9,1.9-3.1,2.2-5.5,1c-6.5-3.1-12.7-6.5-17.6-11.9
	c-1.1-1.3-2.4-1-3.1,0.6c-0.3,0.7-0.6,1.5-0.8,2.3c-3.6,10.8-5.8,22-7.3,33.3c-1.6,12.4-2.8,24.9-2.3,37.5c0.3,8.5,1.1,17,3.9,25.2
	c0.3,0.8,0.5,1.7,0.8,2.5s0.2,1.5-0.6,1.9c-0.8,0.4-1.4,0.2-1.9-0.5c-0.4-0.5-0.7-0.9-1.1-1.5c-0.4,0.3-0.7,0.5-0.9,0.7
	c-3.9,4.5-7.9,8.9-11.7,13.4c-6,7.1-11.8,14.3-17.9,21.3c-1.9,2.2-4.1,4.1-6.3,6.1c-1.8,1.5-3.8,2.7-6.1,3.3c-3.6,1-6.1-0.5-6.7-4.2
	c-0.2-1.4-0.2-2.8,0.1-4.2c0.6-2.9,1.3-5.9,2.4-8.6c2.1-5.3,4.5-10.5,6.7-15.8c0.2-0.6,0.8-1.1,0.5-1.9c-0.3,0-0.7,0-1,0
	c-3,0.2-6.1,0.7-9.2,0.6c-4.2-0.2-7.7,1.3-10.7,4c-3.3,3.1-6.6,6.2-9.7,9.5c-5.6,6-11,12.2-16.4,18.3c-3.3,3.7-6.7,7-10.8,9.7
	c-1,0.7-2,1.3-3.1,1.7c-4.2,1.7-8.5-1.7-8.1-5.6c0.1-0.9,0-1.8,0.2-2.6c2.5-11.9,7-22.9,13.8-33c0.2-0.3,0.3-0.7,0.4-1.1
	c-0.4-0.1-0.7-0.2-0.9-0.1c-1.3,0-2.7,0.1-4,0.1c-7.8,0.5-15.4,2.4-22.8,4.8c-13.3,4.4-25.1,11.3-35,21.3c-0.5,0.5-1,1.1-1.3,1.7
	c-1.2,2.7-2.5,5.3-3.6,8c-0.7,1.8-1.3,3.6-1.7,5.5c-0.5,2.2,0.4,3.3,2.7,3.5c1.5,0.1,3.1,0.2,4.6,0.1c7.3-0.7,13,2.3,17.3,8
	c2.4,3.2,4,6.8,5.3,10.5c3.7,10.5,7.4,21.1,11.1,31.7c3.4,9.6,7.2,18.9,12.3,27.7c4.4,7.6,9.6,14.5,16.5,20.1
	c1.8,1.4,3.4,2.9,5.1,4.5c10.9,10.2,21.6,20.6,31.8,31.5c6.6,7,13,14.3,18.5,22.3c5.4,7.8,9.6,16.1,11.7,25.5
	c1.6,7.3,1.9,14.7-0.2,21.9c-0.3,1.2-0.7,2.4-1.2,3.8c0.7,0,1.1,0,1.5-0.1c1.3-0.4,2.7-0.8,4-1.3c8.8-3.6,16-9.4,22-16.8
	c6.4-7.8,11.2-16.6,15.8-25.4c0.1-0.1,0-0.3,0-0.7c-3.9,2.3-7.7,4.5-11.5,6.7c-0.5-0.9-0.8-1.5-1.3-2.3c42.3-26,81-56.2,114-94
	c-1.1,0-1.8,0-2.6,0c-9.3,0.2-18.5,0.5-27.8,0.7c-3.7,0.1-7.5-0.1-11.2-0.1c-1.3,0-2.5-0.1-3.8-0.2c-4.8-0.3-9.6-0.3-14.3,0.6
	c-7,1.3-13.6,3.8-19.9,7.1c-7.2,3.9-14.9,6.5-22.8,8.4c-1,0.2-2,0.3-3,0.3c-1.4-0.1-2.8-1.2-2.8-2.6c0-0.9,0.2-2,0.7-2.8
	c1.3-2.4,2.6-4.8,4.1-7.1c6.3-9.7,14.6-17.3,25.2-22.2c9.2-4.2,18.8-5.9,28.8-5.3c5.8,0.4,11.5,0.9,17.3,1.5c8.1,0.9,16.1,2,24.2,3
	c7.9,1.1,15.8,2.3,23.7,3.3c8.5,1.1,16.9,2,25.4,2.9c2.2,0.3,4.4,0.4,6.5,0.8c1.2,0.3,2.2,0.3,3.3,0.1c5.8-1.3,11.5-2.6,17.3-4
	s11.7-2.6,17.8-2c0.4,0,0.8,0,1.2-0.1c1.1-0.1,1.8-0.7,2.2-1.7c0.2-0.4,0.3-0.9,0.4-1.3c0.9-2.8,2.4-3.8,5.4-3.6
	c0.8,0.1,1.5,0.1,2.5,0.2c-0.1-1.2-0.2-2.1-0.3-3c-0.2-2.1,0.5-3,2.5-3.4c1.1-0.3,2.3-0.4,3.5-0.6c-0.1-1.3-0.9-2-1.6-2.8
	c-1.9-2-1.5-4.9,1.8-5.8c0.6-0.2,1.2-0.3,1.7-0.5c0.6-0.2,1.2-0.5,2.2-0.9c-1.2-0.9-2-1.7-2.9-2.3c-1.2-0.8-2.5-1.5-3.8-2.2
	c-2.3-1.3-2.8-2.7-1.7-5.2c0.1-0.2,0.2-0.4,0.3-0.5c0.4-0.8,1.1-1.7,0.5-2.6c-0.7-0.9-1.8-0.7-2.8-0.6c-6.2,0.7-11.7-1-16.8-4.5
	c-2.1-1.5-4.4-2.8-6.7-4c-12.7-6.2-25.9-11.3-39.3-15.6c-15.6-4.9-31.6-8.6-47.8-10.9c-9.4-1.3-18.9-2.3-28.4-2.8
	c-4.5-0.2-8.9-0.4-13.4-0.4c-6.5,0-13,0.1-19.6,0.3c-3.5,0.1-7,0.4-10.6,0.6c-1.2,0.1-2.6,0.3-3.3-1.1c0.4-1.9,2.3-1.6,3.6-2.2
	c-0.3-0.3-0.4-0.5-0.6-0.7c-3.3-3-5.5-6.7-6.9-10.8c-2.1-6.3-2.3-12.8-1.1-19.3c0.9-4.9,2.6-9.5,5.6-13.5
	c6.8-9.1,19.8-11.1,28.9-4.5c14.8,10.7,17.1,33.2,4.8,46.7c-0.3,0.3-0.5,0.7-0.9,1.3c19.1,0.2,37.6,2.6,56.3,5.8
	c-0.2-0.6-0.2-0.8-0.3-1.1c-3.2-8.3-5.3-16.9-7-25.6c-0.8-3.9-1.2-7.8-2-11.6c-0.6-2.8-1.6-5.6-2.5-8.5c0.9-0.6,1.8-0.4,2.7,0.2
	c0.8,0.6,1.6,1.2,2.5,1.7c3.1,1.7,6.4,2.7,9.9,3c6.4,0.5,12.2-0.9,16.9-5.6c3.4-3.4,7.3-5.6,12.1-6c2.4-0.2,4.9-0.2,7.4,0
	c3.6,0.4,7.2,0.9,10.8,0.5c4.3-0.5,8.5-1.5,10.7-5.9c0.4-0.8,1.1-1.1,2-0.7s1.3,1.2,1,2.1c-0.1,0.4-0.3,0.8-0.5,1.1
	c-1.4,1.6-2.5,3.3-4.6,4c-1.3,0.5-2.1,1.4-2.5,2.7c-0.3,0.9-0.5,1.8-0.7,2.7c-1,4.4-1.8,8.9-2.9,13.3c-3.3,13.7-7.6,27.1-13.8,39.7
	C604.1,404.2,603.7,405.2,603.2,406.3z M510.7,385.6c3.8-5.4,5.3-11.4,5-17.9c-0.3-8-3.2-14.9-9.1-20.4c-4.8-4.5-10.5-6.3-16.9-4.9
	c-6,1.2-10.2,4.9-13.1,10.2c-3.7,6.8-4.6,14.1-3.5,21.7c0.8,5.9,3.2,11.1,7.4,15.4c1.8,1.8,3.9,2.8,6.4,2.8c1.5,0,3.1,0,4.6,0
	c0,0,0,0,0-0.1c3.8-0.2,7.6-0.3,11.4-0.5c1.4,0,2.7-0.5,3.6-1.5C507.9,388.8,509.5,387.3,510.7,385.6z M480.9,256.1
	c-1.4,0.3-2.7,0.7-4.1,0.6c-2.7-0.1-5.4-0.4-8.1-0.7c-1.8-0.2-3.6-0.5-5.4-0.7c0,0.1-0.1,0.3-0.1,0.4c0.5,0.5,0.9,1.1,1.5,1.5
	c4.5,4.1,9.9,6.9,15.4,9.5c1.1,0.5,2.2,0.3,3.1-0.6c2-2,4.1-3.8,6-5.9c1.5-1.7,2.7-3.6,3.9-5.5c0.4-0.6,0.5-1.5,0.8-2.7
	c-4.3-0.4-8.3,0.2-12.3,0.2s-8,0.3-12,0.4c1.9,0.6,3.9,0.9,5.8,1.3C477.1,254.4,479.1,254.9,480.9,256.1z M540.6,312.2
	c6.2,11.6-0.8,26.2-13.7,28.9c-1.5,0.3-3.1,0.4-4.7,0.6c-9.8-0.1-17.8-6.3-19.5-15.5c-2.6-13.7,7.5-23.9,18.7-24.4
	C529.9,301.4,536.6,304.6,540.6,312.2z M534,313.6c0-4.8-4.1-8.8-8.8-8.8c-4.8,0-8.4,3.8-8.4,9s3.5,9,8.4,9
	C530,322.8,534.1,318.6,534,313.6z"/>
</svg>
