<?xml version="1.0" encoding="utf-8"?>
<!-- Generator: Adobe Illustrator 21.0.0, SVG Export Plug-In . SVG Version: 6.00 Build 0)  -->
<svg version="1.1" id="Layer_1" xmlns="http://www.w3.org/2000/svg" xmlns:xlink="http://www.w3.org/1999/xlink" x="0px" y="0px"
	 viewBox="0 0 720 720" style="enable-background:new 0 0 720 720;" xml:space="preserve">
<style type="text/css">
	.st0{fill:#ED3F24;}
	.st1{fill:#FFFFFF;}
	.st2{fill:#8C1B1C;}
	.st3{fill:#E57473;}
	.st4{fill:#B1383E;}
	.st5{fill:#FAD622;}
	.st6{fill:#E3AA2E;}
	.st7{fill:#964121;}
</style>
<path class="st0" d="M430.8,521c0,9.7-3.5,18-10.3,24.9c-3.8,3.7-8.2,6.5-13.4,7.6c-7.4,1.5-14.4,0.4-20.7-3.8
	c-6.5-4.3-11.6-10.1-15.6-16.7c-0.7-1.2-1.2-2.6-1.5-4c-1.1-4.8-1.4-9.7-0.5-14.6c2.4-11.9,9-20.4,20.2-25.1
	c5.6-2.3,11.5-2.8,17.5-1.5c3.3,0.7,6.4,2.2,9.1,4.1C425.8,499,430.9,508.7,430.8,521z M588.9,519.4c0.5-10.8,3-21.1,8.2-30.6
	c2.1-3.8,4.5-7.4,7.3-10.7c2-2.5,4.4-4.5,7.2-6.1c1.5-0.8,3.1-1.5,4.8-1.8c3.9-0.7,7,0.5,9.3,3.7c1.8,2.5,2.5,5.4,3.1,8.3
	c1.3,6.9,0.3,13.6-2.4,20c-0.9,2.2-2,4.4-3.2,6.4c-5.1,8.8-11,17.1-17.6,24.9c-1.2,1.4-2.5,2.6-3.9,3.9c-0.6,0.6-1.4,1-2.2,1.4
	c-1.8,0.8-3.4,0.5-4.8-0.9c-0.6-0.6-1.1-1.3-1.6-2C589.8,530.9,588.6,525.3,588.9,519.4z"/>
<path d="M448.5,441.1c-0.2,7.4-2.8,14.5-8.5,20.2c-11.8,12-31,8.7-38.3-6.4c-5.2-10.8-3-24.3,5.4-32.8c4.6-4.7,10.2-7.4,16.9-7.5
	c8.2-0.1,14.6,3.5,19.4,10C446.9,429.3,448.4,434.7,448.5,441.1z M421.2,431.2c-0.2,3.4,1.1,6.3,3.8,8.5c3.3,2.8,8.1,2.8,11.4,0
	c4.4-3.7,5.9-11,0.5-16.3c-3.2-3.2-8.3-3.4-11.9-0.5C422.4,424.9,421.1,427.6,421.2,431.2z M595.5,429.2c0,3.2-0.5,6.3-1.5,9.3
	c-1.3,3.5-3.3,6.5-6.5,8.5c-3.5,2.3-7.3,2.7-11.3,1.6c-3.6-1-6.6-3-9.1-5.8c-5-5.5-7.8-12-8.6-19.4c-0.4-3.5-0.3-6.9,0.7-10.3
	c0.5-1.8,1.2-3.7,2.1-5.3c4.2-7.9,13-10.1,20.7-5.5c3,1.8,5.5,4.2,7.5,7.1C593.3,415.5,595.5,422,595.5,429.2z M576.1,420.8
	c-0.2-3.7-0.8-6.6-2.6-9.1c-0.8-1.2-1.8-2.2-3.1-2.9c-2-1-4-0.8-5.5,1c-0.7,0.9-1.3,1.9-1.7,3c-1.1,3-1.1,6-0.5,9.1
	c0.5,2.6,2,4.8,4.2,6.4c2.5,1.9,5.2,1.5,7-1c0.5-0.7,1-1.5,1.2-2.3C575.6,423.4,575.9,421.8,576.1,420.8z M563.9,475
	c0.7,0.7,0.4,1.4,0.2,2c-1.5,3.4-3.9,5.9-7.5,6.5c-3,0.5-3.9,2.3-4.4,4.8c-2,10.8-4.6,21.4-8.2,31.8c-3.2,9.6-7.2,18.8-12.2,27.6
	c-3.2,5.7-6.9,11.1-11.3,16c-2.2,2.5-4.5,4.8-7.2,6.6c-1.2,0.8-2.4,1.5-3.7,2.2c-6.1,3-12.6,0.1-15.4-3.5c-2.4-3-4.5-6.2-6.3-9.7
	c-3.4-6.4-5.5-13.3-7.4-20.3c-2.5-9.5-4.2-19.1-5.3-28.9c-0.4-4-0.8-8-1.1-12c-0.1-2.3-1.2-3.8-3.4-4.5c-3.3-1-6.1-2.9-8.5-5.2
	c-0.4-0.4-0.9-0.8-0.6-1.5c0.2-0.5,1.1-0.6,1.8-0.1c0.6,0.4,1.1,0.8,1.6,1.2c3.2,2.6,6.9,4.1,11,4.5c2.3,0.2,4.6-0.1,6.8-0.7
	c4.4-1.2,8.6-2.8,12.8-4.5c7.7-3.2,15.2-6.9,22.6-10.9c0.8-0.4,1.5-0.9,2.3-1.2c2.5-1.3,5.2-1.4,7.8-0.4c0.5,0.2,1.1,0.4,1.6,0.7
	c5.7,2.4,11.5,4.2,17.5,5.6c2.3,0.5,4.5,0.7,6.9,0.5c2.9-0.3,5.1-1.6,6.8-3.8c0.6-0.7,1.1-1.6,1.7-2.3
	C563.2,475.3,563.6,475.2,563.9,475z M533,540.7c0.7-1.4,1.2-2.3,1.6-3.1c5-10.5,8.8-21.5,11.7-32.8c1.5-5.8,2.7-11.6,4-17.4
	c0.6-2.7,0-3.5-2.6-4.1c-0.4-0.1-0.8-0.1-1.1-0.2c-3.7-1-7.4-2-11.1-3.1c-2.3-0.7-4.5-1.6-6.7-2.5c-2.8-1.1-5.3-1-8,0.4
	c-4.7,2.5-9.5,4.9-14.4,7.3c-8,4-16.3,7.4-25,9.3c-1,0.2-2.1,0.4-3.1,0.7c-1.4,0.4-1.7,0.8-1.8,2.2c0,0.7,0,1.3,0.1,2
	c0.5,5,1,9.9,1.5,14.9c0.3,3.1,0.7,3.9,4.2,2.6c3.2-1.3,6.5-2.3,10-2.7c12-1.6,22.2,1.5,30.2,10.9c3.4,4,6.4,8.4,8.9,13
	C531.8,538.8,532.3,539.5,533,540.7z M509.6,531.6c-7.5,0.1-13.8,2.8-19.1,7.8c-1.8,1.7-3,3.8-3.9,6c-0.7,1.8-0.8,3.5-0.1,5.3
	c1.9,5.2,4.3,10.1,7.6,14.5c1,1.3,2.1,2.5,3.3,3.6c3.4,3.1,7.3,3.6,11.5,1.7c2-0.9,3.9-2.2,5.4-3.7c2.2-2.1,4.5-4.3,6.3-6.7
	c3-3.9,5.8-8.1,8.7-12.2c0.4-0.6,0.8-1.3,1-2c1.1-2.8,0.7-5.3-1.5-7.4c-0.8-0.7-1.6-1.4-2.5-1.9
	C521.2,533.6,515.5,531.9,509.6,531.6z M484.9,544.8c0.2-0.1,0.4-0.1,0.4-0.1c0.3-0.5,0.7-0.9,0.9-1.5c1.4-2.9,3.5-5.3,6.1-7.2
	c8.3-6.2,17.4-7,27-4.1c2.2,0.7,4.2,1.8,6.3,2.7c0.3,0.1,0.7,0.1,1.1,0.2c-2.2-4.5-7-10.2-11.2-13.3c-4.8-3.6-10.2-5.5-16.3-5.7
	c-6.4-0.2-12.4,1.3-18.2,3.7c-1.8,0.7-2.1,1.3-1.8,3.4c0.4,2.3,0.8,4.5,1.3,6.8c0.9,3.9,1.9,7.8,2.8,11.7
	C483.8,542.7,484.1,543.9,484.9,544.8z M525,450.5c-2.2-0.1-4-1.1-5.2-3.2c-0.5-0.9-0.2-1.8,0.7-2.1c0.3-0.1,0.5-0.2,0.8-0.3
	c2.3-0.3,4.5-0.6,6.8-0.9c0.4,0,0.8,0,1.1,0.1c1.3,0.2,1.9,1.3,1.4,2.6C529.9,448.9,527.6,450.5,525,450.5z"/>
<path class="st1" d="M421.2,431.2c-0.2-3.5,1.2-6.3,3.9-8.4c3.6-2.8,8.6-2.6,11.9,0.5c5.4,5.3,3.9,12.6-0.5,16.3
	c-3.3,2.8-8.1,2.8-11.4,0C422.4,437.5,421,434.6,421.2,431.2z"/>
<path class="st1" d="M576.1,420.8c-0.2,0.9-0.5,2.5-1,4.1c-0.2,0.8-0.7,1.6-1.2,2.3c-1.8,2.5-4.5,2.9-7,1c-2.2-1.6-3.6-3.8-4.2-6.4
	c-0.6-3-0.7-6.1,0.5-9.1c0.4-1.1,1-2.1,1.7-3c1.5-1.7,3.5-2,5.5-1c1.3,0.7,2.3,1.7,3.1,2.9C575.3,414.3,576,417.1,576.1,420.8z"/>
<path class="st2" d="M533,540.7c-0.8-1.2-1.2-1.9-1.6-2.7c-2.5-4.7-5.5-9-8.9-13c-8-9.4-18.2-12.6-30.2-10.9
	c-3.4,0.5-6.8,1.5-10,2.7c-3.5,1.4-3.9,0.5-4.2-2.6c-0.5-5-1-9.9-1.5-14.9c-0.1-0.7-0.1-1.3-0.1-2c0-1.4,0.3-1.8,1.8-2.2
	c1-0.3,2.1-0.5,3.1-0.7c8.8-1.9,17-5.3,25-9.3c4.8-2.4,9.6-4.8,14.4-7.3c2.7-1.4,5.3-1.5,8-0.4c2.2,0.9,4.5,1.8,6.7,2.5
	c3.7,1.1,7.4,2.1,11.1,3.1c0.4,0.1,0.8,0.1,1.1,0.2c2.6,0.7,3.2,1.5,2.6,4.1c-1.3,5.8-2.5,11.6-4,17.4c-2.9,11.3-6.7,22.2-11.7,32.8
	C534.2,538.4,533.8,539.3,533,540.7z"/>
<path class="st3" d="M509.6,531.6c5.9,0.3,11.5,2,16.8,5c0.9,0.5,1.8,1.2,2.5,1.9c2.2,2.1,2.6,4.6,1.5,7.4c-0.3,0.7-0.6,1.4-1,2
	c-2.9,4.1-5.6,8.2-8.7,12.2c-1.9,2.4-4.1,4.5-6.3,6.7c-1.6,1.5-3.4,2.8-5.4,3.7c-4.2,1.9-8,1.4-11.5-1.7c-1.2-1.1-2.3-2.3-3.3-3.6
	c-3.3-4.4-5.7-9.3-7.6-14.5c-0.6-1.8-0.6-3.5,0.1-5.3c0.9-2.3,2.1-4.3,3.9-6C495.8,534.4,502.1,531.7,509.6,531.6z"/>
<path class="st4" d="M484.9,544.8c-0.8-0.9-1.1-2.1-1.4-3.3c-1-3.9-2-7.8-2.8-11.7c-0.5-2.2-0.9-4.5-1.3-6.8c-0.3-2.1,0-2.7,1.8-3.4
	c5.8-2.4,11.8-3.9,18.2-3.7c6,0.2,11.5,2.1,16.3,5.7c4.2,3.1,9,8.8,11.2,13.3c-0.5-0.1-0.8-0.1-1.1-0.2c-2.1-0.9-4.2-2.1-6.3-2.7
	c-9.6-3-18.8-2.1-27,4.1c-2.6,1.9-4.6,4.3-6.1,7.2c-0.3,0.5-0.6,1-0.9,1.5C485.3,544.7,485.2,544.7,484.9,544.8z"/>
<path class="st5" d="M461.4,586.4c0.3,3,0.5,5.7,0.8,8.5c0.2,1.7,0.4,3.4,0.5,5.2c0.4,4.9,0.5,9.8,0,14.7c-0.3,3.5-0.4,7.1-0.5,10.7
	c-0.2,6.8-1.1,13.6-2.1,20.3c-0.1,0.8-0.2,1.5-0.3,2.3c-0.2,1.5-1,2.5-2.5,2.8c-0.4,0.1-0.8,0.1-1.1,0.2c-0.6,0.2-0.9,0.6-1,1.3
	s0.1,1.4,0.8,1.7c0.8,0.3,1.6,0.6,2.5,0.8c0.6,0.2,1.3,0.2,2,0.3c0.5,0.1,1.1,0.2,1,0.8c0,0.4-0.4,0.8-0.8,1.1
	c-0.4,0.4-0.9,0.7-1.4,1c-3.2,2.1-6.7,3.8-10.3,5.2c-6.1,2.2-12.3,4.5-18.6,6c-11.1,2.7-22.3,2.8-33.4-0.1c-1.8-0.5-3.5-0.9-5.3-1.4
	c-0.4-0.1-0.8-0.5-1-0.9c-0.2-0.6,0.2-1.1,0.7-1.5c1.1-0.8,2.4-1.3,3.8-1.3c0.5,0,1,0.1,1.4,0.1c1,0,1.7-0.6,1.5-1.6
	c-0.2-1.1-0.5-2.2-0.9-3.3c-0.3-0.9-0.8-1.8-1.1-2.7c-0.2-0.7,0.2-1.4,1-1.4c1.1,0,2.3,0,3.5,0c1.4,0,2.9,0,4.3-0.1
	c1.3-0.1,2.1-1,2.2-2.3c0.1-1,0.1-1.9,0.2-2.9c0.3-1.8,1.2-2.5,3-2.1c2.1,0.5,4.1,1.1,6.1,1.7c0.7,0.2,1.4,0.5,2.2,0.7
	c1.6,0.3,2.8-0.3,3.5-1.8c0.3-0.6,0.4-1.3,0.7-1.9c0.5-1.1,1.1-1.5,2.3-1.2c0.8,0.2,1.6,0.6,2.4,1c1.2,0.6,2.4,1.2,3.6,1.8
	c0.5,0.2,1.1,0.4,1.6,0.5c0.7,0.1,1.3-0.2,1.7-0.8c0.4-0.7,0.3-1.3-0.1-1.9c-0.2-0.3-0.5-0.6-0.8-0.8c-2.7-1.8-5.4-3.3-8.5-4.2
	c-0.4-0.1-0.7-0.2-1.1-0.3c-1.7-0.3-3,0.3-4,1.7c-0.3,0.4-0.5,0.8-0.7,1.2c-1.1,1.7-1.5,1.8-3.6,1.3c-1.4-0.4-2.8-0.8-4.2-1.1
	c-1.2-0.2-2.5-0.3-3.7-0.4c-2,0-3.3,1-3.9,2.8c-0.4,1-0.6,2-0.9,3s-1,1.6-2.1,1.6c-1,0-1.9-0.2-2.9-0.3c-1,0-2.1-0.2-3.1,0
	c-2.5,0.5-3.6,2-3.3,4.6c0.1,0.9,0.3,1.7,0.5,2.5s0.1,1.5-0.5,2.1s-1.9,0.6-2.7,0c-0.7-0.5-1.3-1.2-1.9-1.8
	c-16.3-17.7-29-37.8-38.5-59.8c-8.3-19-14.1-38.8-18-59.1c-1.5-7.9-2.5-15.9-3.4-24c-0.1-1.3-0.3-2.7-0.5-4
	c-0.1-0.5-0.2-0.9-0.4-1.4c-0.3-0.7-0.9-1.1-1.6-1c-0.7,0-1.3,0.5-1.5,1.2c-0.2,0.9-0.2,1.9-0.3,2.8c0,0.8,0.3,1.6,0,2.4
	c-0.8,0.1-1.1-0.5-1.5-0.9c-9.2-9.5-19.5-17.6-31.5-23.5c-6.9-3.4-14.1-6-21.7-7.6c-5.9-1.2-11.3-3.6-16.4-6.9
	c-10-6.6-17.1-15.6-21.7-26.6c-3-7.3-5-14.9-6.2-22.7c-1.3-8.5-2.1-17.2-1.9-25.8c0.4-16.1,3.4-31.7,9.8-46.5
	c3.5-8,7.9-15.6,13.2-22.6c1-1.4,2.1-2.8,3.2-4.3c0.5,0.4,1.1,0.7,1.6,1.1c7.3,5.9,14.6,11.9,21.9,17.8c0.3,0.2,0.6,0.5,0.9,0.7
	c0.8,0.6,1,1.4,0.7,2.3c-0.2,0.8-0.6,1.6-0.9,2.4c-1.5,4-3.2,8-4.6,12.1c-1.8,5.6-3,11.3-3.4,17.2c-0.1,2.3,0,4.6,0.2,6.9
	c0.1,0.9,0.4,1.9,0.8,2.8c1.1,2.3,3.5,2.9,5.5,1.5c0.9-0.7,1.7-1.5,2.5-2.3c4.5-4.7,8.6-9.6,12.4-14.8c2.6-3.6,5.1-7.2,7.6-10.9
	c0.3-0.4,0.5-0.8,0.8-1.2c1.4-2,2-2.1,4.1-1c3,1.5,5.9,3.3,8.9,4.7c4.9,2.3,9.8,4.4,14.7,6.6c3.2,1.4,3.5,2,2.2,5.2
	c-1.6,4-3.5,7.9-4.4,12.2c-0.5,2.2-0.9,4.5-1.3,6.8c-0.1,0.8-0.1,1.7,0.1,2.6c0.4,1.8,1.5,2.7,3.3,2.5c1.1-0.1,2.3-0.3,3.3-0.8
	c1.8-0.8,3.7-1.7,5.4-2.8c5.8-3.7,11-8.1,16-12.7c0.6-0.6,1.3-1.2,2-1.7c1-0.7,2.1-0.9,3.3-0.4c0.6,0.3,0.9,0.8,0.8,1.4
	s-0.4,1.3-0.6,1.9c-4.6,11.5-7.6,23.4-9.2,35.6c-1.4,10.7-1.7,21.4-0.9,32.2c0.9,11.9,3.1,23.6,6.2,35.1c0.2,0.7,0.5,1.5,0.8,2.1
	c0.1,0.2,0.7,0.5,0.9,0.4c0.3-0.1,0.7-0.5,0.7-0.8c0-0.9-0.2-1.7-0.4-2.5c-0.9-3.5-1.8-6.9-2.6-10.3c-2.9-13.5-4.2-27.1-3.8-40.9
	c0.1-3,0.7-5.9,1.2-8.8c1-5.8,1.9-11.6,2.9-17.3c1.3-7.2,3.5-14.2,6.1-21c1.3-3.6,1.8-3.8,5.5-3.5c1,0.1,1.9,0.2,2.9,0.3
	c0.6,0,1.1,0,1.7-0.1s1-0.5,1.2-1.1c0.2-0.7,0-1.4-0.6-1.8s-1.4-0.8-2.1-1c-2.2-0.7-4.4-1.5-6.6-1.9c-8.9-1.6-17.5-4.6-25.9-7.9
	c-15.7-6.2-30.7-13.7-45.1-22.4c-1.9-1.2-3.1-2.6-3.9-4.7c-2.9-8.5-6-16.8-8.9-25.3c-2.8-8.1-4.7-16.4-6-24.9
	c-1-6.2-1.1-12.4-0.7-18.7c0.2-2.8,0.8-5.5,2-8.1c0.3-0.5,0.5-1,0.8-1.5c0.4-0.6,1-0.9,1.8-0.6c0.7,0.2,1.5,0.5,2.2,0.8
	c4.7,1.8,9.4,3.6,14.2,5.4c2,0.8,3.3,1.2,3.6,1.4c21.5,8.1,45.9,23.8,45.9,23.8c15.3,9.9,54.4,37.6,58,40.6c0.9,0.7,1.9,1.3,2.9,1.9
	c0.7,0.4,1.3,0,1.8-0.5s0.5-1.2,0-1.9c-0.5-0.7-1.1-1.3-1.6-2c-0.4-0.6-0.4-1.3,0.1-1.9s1.1-1,1.8-1.4c14.5-8.7,29.9-15.4,46.4-19.1
	c11.4-2.6,22.9-4.1,34.5-4.2c6.2-0.1,12.5,0.1,18.7,0.2c1.5,0,3.1,0.2,4.6,0.5c8.6,1.4,17.3,2.4,25.8,4.6c3.9,1,7.8,2.2,11.7,3.3
	c0.7,0.2,1.5,0.5,2.2,0.6s1.5,0.1,2.3,0c1.1-0.2,1.6-1.7,0.8-2.5c-0.5-0.5-1.1-1-1.8-1.4c-1-0.5-2.1-0.9-3.2-1.2
	c-0.6-0.2-1.3-0.3-1.9-0.5c-2.1-0.6-3.5-1.9-3.9-4.1c-0.7-3.4-1.5-6.8-2.1-10.1c-2-10.7-3.5-21.4-4.5-32.2
	c-1.3-14.4-1.8-28.8-1.2-43.2c0.6-12.4,2-24.7,4-36.9c0.1-0.8,0.4-1.6,0.7-2.6c0.8,0.3,1.5,0.4,2,0.6c2.3,1.2,4.6,2.4,6.8,3.7
	c20,11.7,36.4,27.2,49.3,46.4c1.5,2.2,2.3,4.6,2.3,7.3c-0.1,3.7,0,7.5,0.1,11.2c0.1,6.7,0.2,13.4,0.3,20.2
	c0.1,5.2-0.2,10.4-0.7,15.5c-0.6,6.1-1.3,12.2-2,18.3c-1.1,8.6-2.5,17.1-4.4,25.5c-0.2,0.8-0.4,1.5-0.6,2.2
	c-0.1,0.3-0.3,0.5-0.5,0.7c-1.2,0.4-1.8-0.4-2.6-1c-2.7-2-5.3-4.1-8-6.2c-0.6-0.5-1.3-0.9-1.9-1.3c-0.4-0.2-0.9-0.4-1.3-0.5
	c-0.6-0.2-1.1,0-1.6,0.4c-0.5,0.5-0.6,1.3-0.3,1.9s0.8,1.1,1.3,1.5c0.9,0.8,1.9,1.6,2.9,2.3c6.6,4.9,12.6,10.3,17.8,16.8
	c4.9,6.2,8.6,12.9,11.4,20.3c4.1,10.7,6.9,21.8,8.7,33.1c1.1,7,1.8,14.1,2.3,21.2c0.5,6,0.8,12.1,2.1,18c0.8,3.9,1.9,7.6,3.3,11.3
	c1.3,3.4,2.5,6.8,3.8,10.3c0.2,0.5,0.2,1.1,0.4,1.8c-0.8-0.1-1.5-0.1-2.1-0.2c-3.7-0.6-7,0.1-10.3,1.9c-4.2,2.3-7.6,5.5-10.5,9.3
	c-5.8,7.6-9.8,16-12.1,25.3c-1.2,4.7-1.9,9.4-2.2,14.2c-0.2,4.1-0.3,7.3,0.8,11.2c0.7,2.6,2.7,8.3,9,13.8c-0.3,1.3-1.3,1.9-2.1,2.6
	c-9.4,8.2-19.7,15-30.9,20.4c-14.4,7-29.5,11.9-45.2,15.1c-12.9,2.6-25.8,3.8-38.9,3.3c-1.6,0-3.3-0.2-4.9-0.3
	c-2.4-0.2-4.8-0.2-7.2,0.2c-1.1,0.2-2.3,0.2-3.4,0c-8.4-1.2-16.7-2.7-24.8-5c-15.3-4.4-29.4-11.2-42.4-20.4c-0.7-0.5-1.3-1-2-1.6
	c-0.9-0.6-1-0.8-1-0.8c0.1-0.2,1,0.2,2.6,0.4c0,0,0.5,0,1.4,0.1c3.3,0.4,6.5,0.1,9.7-0.6c9.9-2.2,17.2-8,21.9-16.8
	c4.9-9.3,6-19.2,3.2-29.3c-2.4-8.7-7.6-15.5-15.3-20.2c-11-6.8-27.4-7.8-40,5.4c-7.4,7.7-10.5,17-10,27.6c0.1,1.8,0.4,3.6,0.3,5.6
	c-1.2-0.3-1.4-1.5-2.1-2c-0.2-0.1-0.6-0.2-0.8-0.1c-0.2,0.1-0.5,0.5-0.4,0.6c0.1,0.7,0.2,1.4,0.5,1.9c0.6,1.1,1.3,2.1,2,3.1
	c7.8,10.9,17.2,20.1,28,27.9c17.2,12.3,36.2,20.5,57,24.3c2.8,0.5,5.7,1.1,8.5,1.6C460,585.9,460.7,586.2,461.4,586.4z M448.5,441.1
	c0-6.4-1.6-11.8-5.1-16.5c-4.8-6.5-11.2-10.1-19.4-10c-6.7,0.1-12.3,2.8-16.9,7.5c-8.5,8.5-10.7,22-5.4,32.8
	c7.3,15.2,26.5,18.4,38.3,6.4C445.7,455.5,448.2,448.5,448.5,441.1z M595.5,429.2c-0.1-7.2-2.2-13.8-6.2-19.7
	c-2-2.9-4.5-5.3-7.5-7.1c-7.7-4.7-16.5-2.4-20.7,5.5c-0.9,1.7-1.6,3.5-2.1,5.3c-1,3.4-1,6.8-0.7,10.3c0.8,7.4,3.6,13.9,8.6,19.4
	c2.5,2.7,5.5,4.8,9.1,5.8c4,1.1,7.8,0.7,11.3-1.6c3.2-2,5.3-5,6.5-8.5C595.1,435.6,595.5,432.4,595.5,429.2z M563.9,475
	c-0.3,0.1-0.7,0.3-0.9,0.5c-0.6,0.7-1.1,1.5-1.7,2.3c-1.8,2.2-4,3.5-6.8,3.8c-2.3,0.3-4.6,0.1-6.9-0.5c-6-1.4-11.9-3.2-17.5-5.6
	c-0.5-0.2-1.1-0.5-1.6-0.7c-2.7-1-5.3-0.9-7.8,0.4c-0.8,0.4-1.5,0.8-2.3,1.2c-7.3,4-14.8,7.7-22.6,10.9c-4.2,1.7-8.4,3.3-12.8,4.5
	c-2.2,0.6-4.5,0.9-6.8,0.7c-4.2-0.3-7.8-1.9-11-4.5c-0.5-0.4-1-0.9-1.6-1.2c-0.7-0.5-1.6-0.4-1.8,0.1c-0.3,0.7,0.2,1.1,0.6,1.5
	c2.5,2.3,5.3,4.1,8.5,5.2c2.2,0.7,3.2,2.1,3.4,4.5c0.3,4,0.6,8,1.1,12c1,9.8,2.7,19.4,5.3,28.9c1.9,7,4,13.8,7.4,20.3
	c1.8,3.4,3.9,6.6,6.3,9.7c2.8,3.6,9.4,6.4,15.4,3.5c1.3-0.6,2.5-1.4,3.7-2.2c2.7-1.8,5-4.2,7.2-6.6c4.3-4.9,8-10.3,11.3-16
	c5-8.8,8.9-18.1,12.2-27.6c3.5-10.4,6.1-21,8.2-31.8c0.5-2.6,1.4-4.3,4.4-4.8c3.6-0.6,6.1-3.1,7.5-6.5
	C564.3,476.4,564.6,475.7,563.9,475z M525,450.5c2.6,0,4.9-1.7,5.7-3.9c0.5-1.3-0.1-2.3-1.4-2.6c-0.4-0.1-0.8-0.1-1.1-0.1
	c-2.3,0.3-4.5,0.6-6.8,0.9c-0.3,0-0.6,0.1-0.8,0.3c-0.9,0.4-1.2,1.3-0.7,2.1C520.9,449.4,522.8,450.4,525,450.5z M648.7,594.1
	c-0.5-0.7-0.3-1.3,0.2-1.8c0.9-1,1.9-1.9,2.8-2.9c0.3-0.3,0.5-0.5,0.8-0.8c0.6-0.6,0.7-1.2,0.3-1.5c-0.6-0.4-1.1-0.2-1.6,0.1
	c-1.2,0.8-2.3,1.8-3.4,2.7c-0.5,0.4-1.1,0.8-1.5,1.3c-1.2,1.3-2.7,1.7-4.5,1.5c-3.1-0.3-6.1-0.4-9.2-0.7c-9.5-1-19-2.4-28.4-4.5
	c-14.7-3.2-28.9-7.9-42.6-13.9c-0.8-0.4-1.8-0.6-2.5-1.6c0.6-0.3,1-0.6,1.5-0.8c5.9-2.5,11.3-5.7,16.2-9.8c1.3-1.1,2.8-2,4.3-2.9
	c14.8-9.8,27.4-22,37.4-36.6c3.7-5.3,6.8-10.9,9.2-16.9c1.9-4.6,3.1-9.3,3.7-14.2c0.4-3.1-0.1-6.1-0.7-9.1c-0.4-1.8-0.8-3.5-1.1-5.3
	c0.9-0.4,1.2,0.2,1.5,0.6c3,3,6.1,5.9,9,8.9c16.2,17,31.1,35,44.9,54c0.7,0.9,1.3,1.9,2,2.8c0.7,0.9,1.4,1.8,2.1,2.8
	c-1.1,1.9-2.8,2.7-4.7,3.6c-0.4-0.6-0.7-1.1-1-1.7c-0.5-1-0.9-2.1-1.6-3c-1-1.4-2.7-1.6-4.1-0.7c-0.5,0.3-0.9,0.7-1.3,1.2
	c-3,3.9-5.3,8.3-6.8,12.9c-0.1,0.3,0,0.5,0,0.8c0.6,0.5,1,0.1,1.3-0.2c0.5-0.6,0.8-1.3,1.2-1.9c1.7-2.9,3.3-5.8,5-8.7
	c0.3-0.5,0.7-1,1-1.4c0.8-0.9,1.8-0.8,2.3,0.2s0.8,2.2,1.3,3.2c0.5,1.3,0.7,2.8,1.7,4.1c0.5-0.4,1-0.6,1.3-1c3.3-4.4,8-6.4,13.1-7.8
	c0.2,0,0.4,0,0.8,0.1c0,0.4,0.2,0.8,0.2,1.3c-0.4,1.6-0.8,3.2-1.2,4.7c-0.2,0.7-0.4,1.5-0.5,2.3c-0.1,1.2,0.5,1.8,1.8,1.6
	c0.8-0.1,1.5-0.4,2.2-0.5c1.3-0.3,2.6-0.6,4-0.7c1.2-0.1,1.8,0.8,1.3,1.9c-0.4,0.9-0.8,1.7-1.3,2.6c-0.5,0.8-1,1.7-1.4,2.5
	c-0.8,1.7-0.3,2.5,1.5,2.7c0.9,0.1,1.7,0,2.6,0.1c0.5,0.1,1,0.3,1.7,0.5c-0.3,0.6-0.5,1-0.8,1.3c-6.7,6.7-13.8,13-22,18.1
	c-7.7,4.7-15.8,8.3-24.6,10.2c-4.4,1-8.8,1-13.2,0.8C649,594.3,648.8,594.2,648.7,594.1z M353,305.8c0.5-0.4,0.9-0.7,1.3-0.9
	c13.5-6.8,27.2-12.9,41.8-16.9c10.1-2.8,20.4-4.6,30.9-4.9c3.2-0.1,6.2,0.5,9.2,1.8c7.2,3.2,14.3,6.5,21.2,10.3
	c1.6,0.9,3.1,1.8,4.4,3.1c-0.1,0.8-0.6,0.8-1.1,0.8c-1,0-1.9,0-2.9,0c-6.7-0.3-13.4,0.1-20.1,0.9c-11.3,1.4-22.2,4.1-32.9,8.2
	c-7.8,3-15.3,6.6-22.5,10.8c-1.2,0.7-2.3,1.4-3.5,2c-1.5,0.8-2.9,0.8-4.4-0.1c-0.3-0.1-0.5-0.3-0.7-0.5c-6.5-4.5-13-8.9-19.4-13.4
	C353.8,306.7,353.5,306.3,353,305.8z M220.3,471.4c-1.1,0.1-1.4,1-1.8,1.7c-1.5,2.8-3,5.6-4.3,8.5c-2.3,4.9-5,9.5-7.8,14.1
	c-0.3,0.5-0.7,0.9-1.1,1.5c-0.3-0.5-0.6-0.7-0.7-1.1c-0.6-2-0.8-4-0.8-6c-0.3-12.1,2.2-23.6,6.6-34.8c2.8-7.1,6.1-13.9,10.1-20.4
	c0.3-0.5,0.7-0.9,1.2-1.5c0.3,0.6,0.6,1,0.7,1.4c1,3.4,1.8,6.9,2.9,10.3c2.7,8.3,6.6,16,12.3,22.6c1.4,1.5,1.6,3.1,0.8,5
	c-3.1,7.5-6.8,14.6-12,20.9c-3.1,3.9-6.7,7.1-11.4,9c-0.4,0.1-0.7,0.3-1.1,0.3c-0.2,0-0.4-0.1-0.6-0.1c-0.1-0.8,0.5-1.4,0.9-1.9
	c5.1-7.3,9.8-14.9,14.1-22.7c0.4-0.7,0.7-1.4,1.1-2c0.3-0.5,0.3-0.9-0.2-1.3c-0.4-0.3-1-0.1-1.5,0.5c-0.4,0.6-0.9,1.3-1.3,1.9
	c-2.7,4.4-5.4,8.9-8.1,13.3c-2.6,4.3-5.6,8.3-8.7,12.2c-0.1,0.1-0.2,0.3-0.4,0.5c-0.5,0.5-1,1-1.7,0.8c-0.8-0.2-1.3-0.9-1.5-1.6
	c-0.3-0.9-0.2-1.7,0.2-2.5c0.3-0.5,0.6-1,0.9-1.5c4.2-6.4,7.6-13.1,10.9-19.9c0.8-1.6,1.4-3.4,2.1-5.1
	C220.6,472.8,220.6,472.7,220.3,471.4z M375.7,269.5c-1,0.3-2,0.6-3,0.8c-14.8,3.7-28.9,9.2-41.9,17.2c-1,0.6-2,1.2-3,1.8
	c-1,0.6-2,0.6-3,0.1c-0.2-0.1-0.3-0.2-0.5-0.3c-5.7-2.9-11.5-5.8-17.2-8.7c-0.6-0.3-1.1-0.7-1.7-1c0.5-1.1,1.5-1.1,2.2-1.3
	c3.5-1,7-2.1,10.5-2.9c9.3-2.1,18.6-3.6,28.1-4.8c7.4-0.9,14.9-1.7,22.4-1.8c1.9,0,3.8,0.1,5.8,0.1c0.4,0,0.9,0.1,1.3,0.2
	C375.7,269.2,375.7,269.3,375.7,269.5z M322.9,244.3c0,0.4,0,0.7-0.1,1.1c-0.1,6.2-0.9,12.2-1.6,18.4c-0.2,1.5-0.3,3.1-0.5,4.6
	c-0.2,1.8-1.2,2.9-3,3.5c-4,1.4-8,2.8-11.9,4.2c-0.3,0.1-0.5,0.2-0.8,0.3c-1,0.4-1.7,0.5-2.1,0.2c-0.6-0.3-0.4-1.5-0.3-2.2
	c0.2-1.7-0.3,0.6-0.6-10.1c0-1.7,0-1.3-0.1-2.6c-0.1-2.8-0.4-5.6-0.6-8.3c0-0.3-0.1-0.6-0.1-1c0.1,0.3,0.1,0.7,0.2,1.1
	c1.4,3,2.8,6,4.1,9c1.1-6.3,2.2-12.7,3.3-19c1.4,4.1,2.8,8.2,4.1,12.3c1-2.5,2-5.1,2.9-7.6c0.8,1.6,1.6,3.2,2.3,4.8L322.9,244.3z
	 M322.4,213.2c-9.8,2.1-19.5,4.2-29.3,6.2c-6.6,1.4-13.2,2.8-19.7,4.2c-0.9,0.2-1.9,0.3-2.9,0.4c-2.3,0.1-3.4-0.7-3.8-3
	c-0.2-0.8-0.3-1.7-0.3-2.6c-0.1-1.1-0.1-2.1-0.1-3.2c-0.1-9.5-0.3-19-0.4-28.5c-0.1-10.5-0.3-20.9-0.2-31.4
	c0.2-16.5-0.1-33-0.7-49.6c0-1,0-1.9-0.6-2.8c-0.8-0.6-1.6-0.6-2.5-0.5c-1.1,0.1-2.3,0.2-3.4,0.4c-6.6,1.2-13.3,2.3-19.8,3.5
	c-17.7,3.4-35.4,7.1-52.9,11.3c-10.8,2.6-21.7,5.2-32.3,8.4c-1.2,0.4-2.4,0.7-3.7,0.8c-2.3,0.1-4.5,0.7-6.8,1.2
	c-2.8,0.8-5.6,1.5-8.3,2.3c-11.7,3.3-23.5,6.7-34.8,11.1c-9.1,3.5-18.3,7-27.5,10.3c-19.5,7-38.5,15-57.2,23.7c-1,0.5-2,1.1-2.9,1.8
	c-1.1,1-1.2,2.1-0.3,3.3c0.7,0.9,1.5,1.8,2.2,2.7c15.7,19.1,31.3,38.2,47,57.3c11.4,13.8,22.9,27.4,34.4,41.1
	c0.6,0.7,1.1,1.3,1.7,1.9c0.8,0.7,1.5,1,2.3,0.9c-0.1,0-0.2,0-0.3,0c10.6-11.5,22.5-23.3,35.8-35c42.3-37.1,85.2-61.5,121.2-77.6
	l5.7,62.1l59.2-15.6l2,23.3c0.3-3.3,0.8-6.7,0.9-10c0.1-3.4,0.4-6.7,0.9-10c0.3-1.9,0.6-3.8,0.6-5.7
	C325.7,212.9,325.3,212.6,322.4,213.2z"/>
<path d="M710.5,561.9c-0.7-0.2-1.5-0.2-2.3-0.4c-0.5-0.1-1-0.3-1.5-0.4c0-0.4-0.1-0.6,0-0.8c0.4-0.9,0.8-1.7,1.2-2.6
	c0.5-1.1,1-2.1,1.3-3.2c0.4-1.4-0.3-2.5-1.8-2.7c-0.6-0.1-1.1,0-1.7,0c-1.8,0.2-3.6,0.4-5.9,0.7c0.2-1.3,0.4-2.2,0.5-3.2
	c0.2-1,0.6-2.1,0.7-3.1c0.3-2.3-1-3.7-3.4-3.4c-0.6,0.1-1.1,0.3-1.7,0.4c-0.8,0.3-1.6,0.6-2.4,0.9c-1.7,0.6-2.3,0.5-3.5-0.9
	c-0.7-0.8-1.3-1.7-1.9-2.5c-2.7-3.7-5.4-7.4-8.2-11.1c-14.2-18.8-29.3-36.8-46.4-53.1c-0.8-0.7-1.5-1.5-2.2-2.3
	c-2.6-2.9-4.7-6.1-6-9.8c-1.7-4.8-3.4-9.6-5-14.4c-1.3-3.7-2.4-7.5-2.8-11.5c-0.5-5-1-9.9-1.3-14.9c-0.6-8.1-1.5-16.1-3-24
	c-1.7-9-3.8-17.8-6.9-26.4c-3.8-10.6-9.2-20.3-17-28.5c-0.3-0.3-0.7-0.7-1-1.1c-0.6-0.9-0.9-1.9-0.7-3c0.1-0.6,0.2-1.1,0.3-1.7
	c1.9-8.4,3.5-16.9,4.8-25.5c1.3-8.5,2.2-17,2.7-25.5c0.3-5.1,0.6-10.2,0.8-15.3c0.5-11.4,0.1-22.9-0.9-34.2
	c-0.2-1.8-0.5-3.6-0.6-5.4c-0.6-7.2-1.5-14.3-2.7-21.4c-2.3-12.9-5.3-25.6-9.4-38c-6.1-18.4-14.4-35.8-25.1-52
	c-0.6-1-1.3-1.9-2.1-2.8c-1.6-1.7-3.2-1.6-4.6,0.2c-0.8,1.1-1.5,2.4-2.2,3.7c-5.1,10.2-9.4,20.9-12.6,31.8
	c-4.8,16.1-8.1,32.6-10,49.3c-1.2,10.8-1.8,21.6-1.9,32.5c0,12.7,0.4,25.4,1.9,38c0.9,7.8,1.9,15.6,3.3,23.4
	c0.9,4.8,1.8,9.6,2.7,14.5c0.1,0.4,0,0.9,0.1,1.3c-0.4,0.1-0.6,0.3-0.7,0.2c-0.5-0.1-0.9-0.2-1.4-0.3c-12.1-2.8-24.3-4.7-36.7-5.1
	c-3.8-0.1-7.7-0.2-11.5-0.2c-2.8,0-5-0.8-7.1-2.7c-1.4-1.3-2.9-2.6-4.4-3.7c-10.4-7.9-21.3-14.7-33.2-20.1
	c-23.6-10.7-48.3-16.3-74.3-15.5c-8.6,0.3-17.1,0.9-25.5,2.4c-3.7,0.7-7.4,1.4-11,2.1c-1.6,0.3-2.1-0.1-2.1-1.7c0-0.7,0.1-1.3,0.2-2
	c0.3-3.6,0.6-7.3,0.9-10.9c0.4-4.7,0.8-9.4,1.3-14.1c0.7-7,1.4-14,2.1-20.9c0.2-2.5,0.4-5,0.6-7.5c0.1-0.9,0-1.9-0.1-2.9
	c-0.1-0.8-0.8-1.4-1.6-1.4c-1.1,0-2.3,0.1-3.4,0.3c-13.7,2.9-27.4,5.9-41.1,8.8c-3.5,0.7-7,1.5-10.4,2.1c-1.9,0.4-2.7-0.3-2.8-2.3
	c-0.1-1.8-0.2-3.7-0.2-5.5c-0.1-11.7-0.2-23.4-0.3-35.2c-0.1-13.3-0.3-26.5-0.4-39.8c-0.1-10.3-0.1-20.6-0.2-30.8c0-1.3,0-2.7-0.1-4
	c0-0.9-0.2-1.7-0.4-2.6c-0.3-1.2-0.8-1.7-2-1.7c-1,0-2.1,0.1-3.2,0.3c-9.2,1.6-18.4,3.1-27.5,4.8c-22.3,4.1-44.4,9.1-66.3,14.8
	c-6.1,1.6-12.2,3.4-18.4,4.8c-20.1,4.5-39.8,10.1-59.1,17.4c-27.9,10.5-55.3,22-82.1,35.1c-0.5,0.3-1,0.5-1.5,0.9
	c-1.1,0.8-1.4,1.8-0.7,3c0.5,0.9,1.2,1.8,1.8,2.6c3.6,4.4,7.2,8.8,10.8,13.1c24.3,29.6,48.7,59.2,73.4,88.5c0.9,1,1.7,2.1,2.6,3
	c1.8,1.9,3.2,2,5.3,0.5c1.3-0.9,2.4-1.9,3.7-2.8c19.3-14.3,38.9-28.1,59.2-41c17.3-10.9,35-21.2,53.2-30.5c0.9-0.5,1.9-0.9,2.9-1.3
	c0.8-0.3,1.6,0,1.9,0.8c0.3,0.7,0.5,1.5,0.7,2.2c2.8,12.5,5.7,25.1,8.5,37.6c0.1,0.5,0.1,1.1,0.1,1.8c-0.9,0-1.7,0.1-2.4,0
	c-3.7-0.3-7.5-0.7-11.2-1.1c-6.2-0.6-12.5-0.9-18.6-2.1c-1.3-0.3-2.7-0.3-4-0.2c-1.5,0.1-2.2,1-1.9,2.6c0.2,0.9,0.5,1.9,0.9,2.7
	c1,2.3,2.1,4.5,3.2,6.8c9,17.3,20.3,33,33.6,47.3c4.3,4.6,8.9,9,13.3,13.6c0.7,0.7,1.6,1.2,1.6,2.4c-0.4,0.5-0.8,1.2-1.3,1.8
	c-15.2,19.2-23.2,41.1-25.1,65.4c-0.7,9-0.4,18.1,0.7,27c0.8,6.4-0.5,12.2-3.8,17.6c-2.7,4.4-5,9.1-7,13.9c-5.2,12.3-8,25-7.8,38.4
	c0.1,4.5,1.1,8.8,2.8,12.9c1.1,2.7,2,3.2,4.8,3.1c4-0.1,7.5-1.5,10.8-3.6c2.7-1.8,5-4,7.1-6.3c3.7-4.1,6.7-8.7,9.1-13.6
	c1.4-2.8,2.7-5.7,4-8.6c0.3-0.7,0.8-1.3,1.2-1.9c0.5,0.3,0.9,0.4,1.1,0.7c1.4,1.1,2.8,2.3,4.2,3.5c6.2,4.9,13.1,8.3,20.9,9.9
	c7.1,1.4,13.8,3.9,20.4,7.1c13.6,6.6,25,16.1,34.9,27.4c1.4,1.6,2.2,3.6,2.5,5.7c0.9,5.7,1.8,11.4,2.9,17
	c4.3,22.6,11.4,44.4,21.5,65.2c9.5,19.6,21.3,37.5,36.6,53.2c1.2,1.2,1.6,2.3,0.7,3.8c-0.2,0.3-0.3,0.7-0.5,1.1
	c-0.4,1.4-0.1,2.2,1.1,2.8c0.7,0.3,1.4,0.6,2.1,0.8c12.8,4,25.8,4.9,39,2.3c11.4-2.3,22-6.7,32.2-12.3c1.8-1,3.3-2.3,4.7-3.8
	c0.4-0.4,0.8-0.9,1-1.4c0.4-0.8,0.2-1.6-0.5-2c-0.6-0.3-1.2-0.5-1.9-0.8c-1.4-0.6-1.8-1.2-1.6-2.7c0.2-1.8,0.5-3.6,0.8-5.4
	c0.9-6.8,1.8-13.5,2.1-20.3c0.2-4.8,0.4-9.6,0.4-14.4c0.1-6-0.1-12.1-1-18.1c-0.2-1.1-0.2-2.3-0.2-3.5c0-1.1,0.5-1.6,1.6-1.5
	c1.1,0,2.1,0.1,3.2,0.2c5.2,0.2,10.4,0.6,15.5,0.6c4.4,0,8.8-0.5,13.2-0.8c10.9-0.8,21.5-2.8,32-5.7c6.4-1.7,12.7-3.8,18.9-6.2
	c2.4-0.9,4.6-0.7,6.9,0.5c3.5,1.8,7,3.5,10.7,5.1c8.1,3.5,16.4,6.5,25,8.5c10.9,2.6,21.9,3.9,33,5c9.2,1,18.4,1.9,27.5,2.8
	c2.2,0.2,4.4,0.2,6.6-0.2c4.1-0.7,8.1-1.7,12-3c10.7-3.7,20.1-9.4,28.7-16.7c3.7-3.2,7.3-6.5,11-9.8c0.4-0.3,0.7-0.7,1-1
	C713.2,564.5,712.6,562.5,710.5,561.9z M625.7,474.3c1.8,2.5,2.5,5.4,3.1,8.3c1.3,6.9,0.3,13.6-2.4,20c-0.9,2.2-2,4.3-3.2,6.4
	c-5.1,8.8-11,17.1-17.6,24.9c-1.2,1.4-2.5,2.6-3.9,3.8c-0.6,0.6-1.4,1-2.2,1.4c-1.8,0.8-3.4,0.5-4.8-0.9c-0.6-0.6-1.1-1.3-1.6-2
	c-3.3-5-4.6-10.5-4.2-16.4c0.5-10.8,3-21.1,8.2-30.6c2.1-3.8,4.5-7.4,7.3-10.7c2-2.5,4.4-4.5,7.2-6.1c1.5-0.8,3.1-1.5,4.8-1.8
	C620.3,469.9,623.4,471.1,625.7,474.3z M468.9,304.7c1.2,1.2,2.7,2.1,4,3.2c-0.4,0.9-1.1,0.8-1.7,0.8c-3.5,0.4-7.1,0.8-10.6,1.2
	c-22.8,2.9-44,10.3-63.6,22.4c-0.6,0.4-1.3,0.8-2,1.2c-0.8,0.5-1.6,0.6-2.4,0c-3.8-2.9-7.7-5.8-11.5-8.7c-0.2-0.2-0.3-0.5-0.5-0.9
	c0.7-0.5,1.4-1,2.1-1.4c13.3-8,27.5-13.6,42.5-17.3c7.2-1.7,14.6-2.4,22-2.7c4.5-0.2,9-0.3,13.5-0.7
	C463.9,301.7,466.6,302.4,468.9,304.7z M436.2,285.2c7.2,3.2,14.3,6.5,21.2,10.3c1.6,0.9,3.1,1.8,4.4,3.1c-0.1,0.8-0.6,0.8-1.1,0.8
	c-1,0-1.9,0-2.9,0c-6.7-0.3-13.4,0.1-20.1,0.9c-11.3,1.4-22.2,4.1-32.9,8.2c-7.8,3-15.3,6.6-22.5,10.8c-1.2,0.7-2.3,1.4-3.5,2
	c-1.5,0.8-2.9,0.8-4.4-0.1c-0.3-0.1-0.5-0.3-0.7-0.5c-6.5-4.5-13-8.9-19.4-13.4c-0.4-0.3-0.8-0.8-1.3-1.3c0.5-0.4,0.9-0.7,1.3-0.9
	c13.5-6.8,27.2-12.9,41.8-16.9c10.1-2.8,20.4-4.6,30.9-4.9C430.2,283.3,433.2,283.9,436.2,285.2z M398,271.5
	c9.7,1.9,19.2,4.7,28.4,8.4c0.4,0.2,0.8,0.4,1.2,0.6c-0.2,0.8-0.8,0.6-1.2,0.7c-3.3,0.4-6.7,0.7-10,1c-9.5,0.9-18.7,3.2-27.7,6.2
	c-11.9,3.9-23.4,8.7-34.4,14.6c-2.8,1.5-5,1.5-7.7-0.2c-4.6-3-9.5-5.8-14.3-8.6c-0.9-0.5-1.9-1-2.7-2.2c1.1-0.7,1.9-1.4,2.8-1.9
	c15.5-9.7,32.2-16.1,50.2-19.1C387.8,270.1,392.9,270.5,398,271.5z M346.3,270.7c7.4-0.9,14.9-1.7,22.4-1.8c1.9,0,3.8,0.1,5.8,0.1
	c0.4,0,0.9,0.1,1.3,0.2c0,0.2,0,0.4,0,0.6c-1,0.3-2,0.6-3,0.8c-14.8,3.7-28.9,9.2-41.9,17.2c-1,0.6-2,1.2-3,1.8c-1,0.6-2,0.6-3,0.1
	c-0.2-0.1-0.3-0.2-0.5-0.3c-5.7-2.9-11.5-5.8-17.2-8.7c-0.6-0.3-1.1-0.7-1.7-1c0.5-1,1.5-1.1,2.2-1.3c3.5-1,7-2.1,10.5-2.9
	C327.5,273.4,336.9,271.9,346.3,270.7z M245.9,258.4c-2.8-0.7-4.4-1.2-5.3-1.5c-0.7-0.2-1.3-0.3-2-0.5h-0.1c-0.8,0-1.9,0-2.8-0.8
	c-0.9-0.8-1.1-2-1.2-3l0,0c-1.3-5.6-2.7-11.2-4-16.8c-0.8-3.8-1.7-7.5-2.5-11.3c-1.1-4.6-2.3-9.3-3.4-13.9l0,0
	c0-0.1-0.1-0.1-0.1-0.2c-0.6-0.9-1.1-1.3-1.6-1.5c-0.6-0.2-1.3-0.2-2.1,0c-1,0.3-1.9,0.6-2.9,1.1c-0.6,0.3-0.9,0.4-0.7,0.3
	c-0.1,0-0.2,0.1-0.3,0.1c-2.7,1.4-16.2,8.4-29.4,15.9c-9.8,5.7-19.5,11.6-29,17.7c-8.1,5.4-16.2,10.7-24.2,16.1
	c-0.9,0.6-1.9,1.3-2.8,1.9c-11.5,8.3-18.8,13.5-23.1,16.7c-1.8,1.3-3.5,2.6-5.3,4c-0.5,0.4-1,0.7-1.5,1.1c-0.1,0.1-0.1,0.1-0.2,0.2
	c-0.4,0.3-0.8,0.7-1.5,0.9c-0.2,0.1-0.4,0.1-0.5,0.1c-0.8,0.1-1.5-0.2-2.3-0.9c-0.6-0.6-1.2-1.3-1.7-1.9
	c-11.5-13.7-23-27.4-34.4-41.1c-15.7-19-31.3-38.2-47-57.3c-0.7-0.9-1.5-1.7-2.2-2.7c-0.9-1.2-0.8-2.4,0.3-3.3
	c0.9-0.7,1.9-1.4,2.9-1.8c18.7-8.7,37.7-16.7,57.2-23.7c9.2-3.3,18.4-6.8,27.5-10.3c11.4-4.4,23.1-7.8,34.8-11.1
	c2.8-0.8,5.5-1.5,8.3-2.3c2.2-0.6,4.4-1.2,6.8-1.2c1.2,0,2.5-0.4,3.6-0.8c10.7-3.2,21.5-5.8,32.3-8.4c17.5-4.2,35.2-8,52.9-11.4
	c6.6-1.3,13.2-2.4,19.9-3.5c1.1-0.2,2.3-0.3,3.4-0.4c0.9-0.1,1.7-0.1,2.5,0.5c0.6,0.8,0.6,1.8,0.6,2.8c0.6,16.5,0.9,33,0.7,49.6
	c-0.1,10.5,0.1,20.9,0.2,31.4c0.1,9.5,0.3,19,0.4,28.5c0,1.1,0,2.1,0.1,3.2c0.1,0.9,0.1,1.7,0.3,2.6c0.5,2.3,1.5,3.1,3.8,3
	c1,0,1.9-0.2,2.8-0.4c6.6-1.4,13.2-2.8,19.7-4.2c9.8-2.1,19.5-4.2,29.3-6.2c2.8-0.6,3.3-0.3,3.1,2.6c-0.1,1.9-0.3,3.8-0.6,5.7
	c-0.5,3.3-0.8,6.7-0.9,10c-0.1,3.4-0.6,6.7-0.9,10l0.2,2l0,0c-0.4,5.2-0.7,9.5-0.9,12.4c-0.1,1.3-0.2,2.5-0.3,3.8
	c-0.5,7.9-0.5,9.6-1.8,11.1c-1,1.2-2.2,1.5-4.6,2.1c-3.1,0.9-7.6,2.2-13.2,4.3c-0.4-8-0.7-15.9-1.1-23.9l0,0v-0.1
	c0-0.3-0.1-0.6-0.1-1c0-0.1,0-0.2-0.1-0.3c-0.2-1.1-0.7-2.1-1.3-3.1c-0.5-0.9-1.1-1.4-1.7-1.7c-1.1-0.3-2.2,0.5-3.8,1.4
	c-1.2,0.6-2.4,1.1-3.7,1.5c-0.5,0.2-1.1,0.4-1.6,0.7c-0.1,0-0.2,0.1-0.3,0.1c-2.2,1-3.4,1.4-4.8,1.9c-1.8,0.7-3.6,1.4-5.4,2.2
	c-2.2,0.9-8.7,3.7-12.9,5.3h-0.1c-0.4,0.2-0.7,0.3-1.1,0.4c-0.2,0.1-0.4,0.2-0.6,0.2c-0.9,0.3-1.9,0.6-3.2,0.5
	c-1-0.1-2.3-0.4-2.9-0.6c-0.5-0.1-1-0.3-1.6-0.4C247.8,259,245.9,258.4,245.9,258.4z M297.9,272.5c0,0.3,0,0.6,0,0.9
	c-0.1,1.3-0.6,1.8-2,2c-2.2,0.3-3.9-0.6-3.9-0.6c-2.2-1.1-12.6-5.4-26.8-11.4c0.7-0.4,1.1-0.7,1.6-0.9c8.4-3.5,16.9-6.9,25.3-10.4
	c0.5-0.2,1.1-0.4,1.6-0.6c1.3-0.3,2.3,0.2,2.8,1.4c0.4,0.9,0.6,1.8,0.8,2.8c0.3,2.3,0.5,4.6,0.6,6.9
	C298,265.8,297.9,269.2,297.9,272.5z M239.3,471.9c-4.2,9.6-7.3,14.4-7.3,14.4c-0.4,0.6-0.8,1.3-1.4,2.1c-0.2,0.3-0.4,0.6-0.6,0.9
	c-0.2,0.3-0.4,0.7-0.7,1l0,0c-0.9,1.2-1.7,2.4-2.7,3.5c-3.1,3.8-6.7,7.1-11.4,9c-0.3,0.1-0.7,0.3-1.1,0.3c-0.2,0-0.4-0.1-0.6-0.1
	c-0.1-0.8,0.5-1.3,0.9-1.9c2.6-3.6,5-7.4,7.4-11.1l0,0l0.1-0.1c2-3.3,4-6.6,5.9-10c0.7-1.3,1.4-2.6,2.1-3.9c0-0.1,0-0.2,0-0.2l0,0
	c0-0.1,0-0.2-0.1-0.3l0,0c-0.1-0.1-0.1-0.2-0.2-0.3c-0.1-0.1-0.2-0.1-0.3-0.1s-0.1,0-0.2,0c-0.1,0-0.1,0-0.2,0h-0.1
	c-0.1,0-0.2,0.1-0.3,0.1c0,0-0.1,0-0.1,0.1l0,0c-0.6,0.8-1.4,2.2-2.5,3.8c-0.2,0.4-0.4,0.7-0.6,1c-0.2,0.3-0.3,0.6-0.5,0.8
	c-0.5,0.8-1,1.7-1.7,2.9c-0.7,1.2-1.8,3-3.1,5.1l0,0c-0.4,0.6-0.8,1.3-1.2,1.9c-2.6,4.3-5.6,8.3-8.7,12.2c-0.1,0.1-0.2,0.3-0.4,0.5
	c-0.5,0.5-1,1-1.7,0.8c-0.8-0.2-1.3-0.8-1.5-1.6c-0.3-0.9-0.2-1.7,0.2-2.5c0.3-0.5,0.6-1,0.9-1.5c3.3-5,6.1-10.3,8.8-15.6
	c1.1-2.2,1.9-4.2,2.5-5.6s2-5.2,1.5-5.4c-0.4-0.2-1.8,1.9-2.4,2.9c-1.2,2.3-2.4,4.6-3.6,7c-2.3,4.9-5,9.5-7.8,14.1
	c-0.3,0.5-0.7,0.9-1.1,1.5c-0.3-0.5-0.6-0.7-0.7-1.1c-0.6-2-0.8-4-0.8-6c-0.3-12.1,2.2-23.7,6.7-34.8c0.3-0.6,0.5-1.3,0.8-1.9
	c0-0.1,0-0.2,0.1-0.3c0.7-2.3,2.1-5,4.8-10.4c2.3-4.5,4.3-8.1,5.8-10.6c0.2,1.2,0.5,2.7,1,4.5c0.8,2.8,1.5,5.7,2.4,8.4
	c0.6,1.8,1.3,3.6,2,5.3c3.6,8.2,10.2,17.2,11.4,18.4c0.1,0.1,0.7,0.6,0.8,1.4C239.6,471.1,239.4,471.7,239.3,471.9z M475.6,585.6
	c-16-0.8-29-3.9-37.5-6.4c-7-1.8-15.6-4.7-25-9.5c-6.4-3.3-11.8-6.8-16.4-10.2c-0.3-0.2-0.7-0.4-1-0.7c-0.7-0.5-1.3-1-2-1.6
	c-0.8-0.5-1-0.7-1-0.8l0,0l0,0l0,0c0.1-0.2,1,0.2,2.6,0.4c0,0,0.5,0,1.4,0.1c3.3,0.4,6.5,0.1,9.7-0.6c9.9-2.2,17.2-8,21.9-16.8
	c4.9-9.3,6-19.2,3.2-29.4c-2.4-8.7-7.6-15.5-15.3-20.2c-11-6.8-27.4-7.8-40,5.4c-7.4,7.7-10.5,17-10,27.6c0.1,1.8,0.4,3.6,0.3,5.6
	c-1.2-0.3-1.3-1.5-2.1-2c-0.2-0.1-0.6-0.2-0.8-0.1c-0.2,0.1-0.5,0.5-0.4,0.7c0.1,0.6,0.2,1.3,0.5,1.9c0.6,1.1,1.3,2.1,2,3.1
	c7.8,10.9,17.2,20.2,28,28c17.2,12.3,36.2,20.5,57,24.3c2.8,0.5,5.7,1.1,8.5,1.6c0.7,0.2,1.4,0.5,2.1,0.7v0.1
	c0.4,4.5,0.9,9,1.3,13.5l0,0l0,0c0.4,5.3,0.6,11.1,0.4,17.5c-0.2,7-0.9,13.5-1.7,19.1c0,0.1,0,0.2,0,0.3c-0.3,2.9-0.8,5.8-1.2,8.7
	c-0.1,0.8-0.2,1.5-0.3,2.3c0,0.1,0,0.1,0,0.2c0,0,0,0,0,0.1c-0.2,1-0.7,1.8-1.5,2.3c-0.4,0.2-0.7,0.3-0.9,0.3
	c-0.4,0.1-0.8,0.1-1.1,0.2c-0.6,0.2-0.9,0.6-1,1.3s0.1,1.4,0.8,1.7c0.8,0.3,1.6,0.6,2.5,0.8c0.6,0.2,1.3,0.2,2,0.3
	c0.5,0.1,1.1,0.2,1,0.8c0,0.4-0.4,0.8-0.8,1.1c-0.4,0.4-0.9,0.7-1.4,1c-3.2,2.1-6.7,3.8-10.3,5.2c-6.1,2.2-12.3,4.5-18.6,6
	c-11.1,2.7-22.3,2.8-33.4-0.1c-1.8-0.5-3.5-0.9-5.3-1.4c-0.4-0.1-0.8-0.5-1-0.9c-0.2-0.6,0.2-1.1,0.7-1.5c1.1-0.8,2.4-1.3,3.8-1.3
	c0.5,0,1,0.1,1.4,0.1c1,0,1.7-0.6,1.5-1.6c-0.2-1.1-0.5-2.2-0.9-3.3c-0.3-0.9-0.8-1.8-1.1-2.7c-0.2-0.7,0.2-1.4,1-1.4
	c1.2,0,2.3,0,3.5,0c1.4,0,2.9,0,4.3-0.1c1.3-0.1,2.1-1,2.2-2.3c0.1-1,0.1-1.9,0.2-2.9c0.3-1.8,1.2-2.5,3-2.1
	c2.1,0.5,4.1,1.1,6.1,1.7c0.7,0.2,1.4,0.5,2.2,0.7c1.6,0.3,2.8-0.3,3.5-1.8c0.3-0.6,0.4-1.3,0.7-1.9c0.5-1.1,1.1-1.5,2.3-1.2
	c0.8,0.2,1.6,0.6,2.4,1c1.2,0.6,2.4,1.2,3.6,1.8c0.5,0.2,1.1,0.4,1.6,0.5c0.7,0.1,1.3-0.2,1.7-0.8c0.4-0.7,0.3-1.3-0.1-1.9
	c-0.2-0.3-0.5-0.6-0.8-0.8c-2.7-1.8-5.4-3.3-8.5-4.2c-0.4-0.1-0.7-0.2-1.1-0.3c-1.7-0.3-3,0.3-4,1.7c-0.3,0.4-0.5,0.8-0.7,1.2
	c-1.1,1.7-1.5,1.8-3.6,1.3c-1.4-0.4-2.8-0.8-4.2-1.1c-1.2-0.2-2.5-0.3-3.7-0.4c-2,0-3.3,1-3.9,2.8c-0.4,1-0.6,2-0.9,3
	s-1,1.6-2.1,1.6c-1,0-1.9-0.2-2.9-0.3c-1,0-2.1-0.2-3.1,0c-2.5,0.5-3.6,2-3.3,4.6c0.1,0.9,0.3,1.7,0.5,2.5s0.1,1.5-0.5,2.1
	s-1.9,0.6-2.7,0c-0.7-0.5-1.3-1.2-1.9-1.8c-16.3-17.7-29-37.8-38.5-59.8c-8.3-19-14.1-38.8-18-59.1c-1.5-7.9-2.5-15.9-3.4-24
	c-0.2-1.3-0.3-2.7-0.5-4c-0.1-0.5-0.2-0.9-0.4-1.4c-0.3-0.7-0.9-1.1-1.6-1c-0.7,0-1.3,0.5-1.5,1.2l0,0l0,0c0.1,2.4,0.2,4.8,0.3,7.2
	c-1.6-2-4-4.8-7.2-7.9c-5.2-4.9-10.8-9.2-16.8-13.1c-4.2-2.6-9-5.3-14.7-7.8c-0.3-0.1-0.7-0.3-1-0.4c-1.3-0.5-2.6-1-3.9-1.5
	c-7.4-2.6-10.5-1.8-18.1-5.2c-3.5-1.3-6.8-3-9.9-5.1c-3.3-2.2-6.2-4.6-8.9-7.3c-0.2-0.2-0.4-0.4-0.6-0.6
	c-8.3-8.3-12.3-17.8-14.2-24.2c-1.9-5.6-3.3-11.4-4.2-17.3c-1.3-8.5-2.1-17.2-1.9-25.8c0.4-16.1,3.4-31.7,9.8-46.5
	c3.5-8,7.9-15.6,13.2-22.6c1-1.4,2.1-2.8,3.2-4.3c0.5,0.4,1.1,0.7,1.6,1.1c7.3,5.9,14.6,11.9,21.9,17.8c0.3,0.2,0.6,0.5,0.9,0.7
	c0.8,0.6,1,1.4,0.7,2.3c-0.2,0.8-0.6,1.6-0.9,2.4c-1.5,4-3.2,8-4.6,12.1c-1.8,5.6-3,11.3-3.4,17.2c-0.1,2.3,0,4.6,0.2,6.9
	c0.1,0.9,0.3,1.9,0.8,2.8c1.1,2.3,3.5,2.9,5.5,1.5c0.9-0.7,1.7-1.5,2.5-2.3c4.5-4.7,8.6-9.6,12.4-14.8c2.6-3.6,5.1-7.2,7.6-10.8
	c0.3-0.4,0.5-0.8,0.8-1.2c1.4-2,2-2.1,4.1-1c3,1.5,5.9,3.3,8.9,4.7c4.9,2.3,9.8,4.4,14.7,6.6c3.2,1.4,3.5,2,2.2,5.2
	c-1.6,4-3.5,7.9-4.4,12.2c-0.5,2.2-0.9,4.5-1.3,6.8c-0.1,0.8-0.1,1.7,0.1,2.6c0.4,1.8,1.5,2.7,3.3,2.5c1.1-0.1,2.3-0.3,3.3-0.8
	c1.8-0.8,3.7-1.7,5.4-2.8c5.8-3.7,11-8.1,16-12.7c0.6-0.6,1.3-1.2,2-1.7c1-0.7,2.1-0.9,3.3-0.3c0.6,0.3,0.9,0.8,0.8,1.4
	c-0.1,0.7-0.4,1.3-0.6,1.9c-4.6,11.5-7.6,23.4-9.2,35.6c-1.4,10.7-1.7,21.4-0.9,32.2c0.9,11.9,3.1,23.6,6.2,35.1
	c0.2,0.7,0.5,1.5,0.8,2.1c0.1,0.2,0.7,0.5,0.9,0.4c0.3-0.1,0.7-0.5,0.7-0.8c0-0.8-0.2-1.7-0.4-2.5c-0.8-3.5-1.8-6.9-2.6-10.3
	c-2.9-13.5-4.2-27.1-3.8-40.9c0-0.9,0.1-1.8,0.2-2.7l-0.1,0.1c1.3-8.7,2.5-15.4,3.5-20.6c0.2-1,0.3-2,0.5-3c0.5-2.6,1.1-5.2,1.7-7.8
	c0.5-2.3,0.8-3.3,0.8-3.3c1.9-6.3,3.9-11.2,5.1-14.1c0.6,0.2,1.3,0.4,2.2,0.5c0.5,0,1.1,0,1.7,0.1c0.6,0,1.2,0.1,1.9,0.2
	c1.1,0,3.3-0.2,3.8-0.8c0-0.1,0.1-0.2,0.1-0.2V387c0-1-3.1-2.6-5.1-3.4c-0.4-0.2-1.2-0.4-4.3-1.1c-0.8-0.2-1.4-0.3-2.1-0.4
	c-0.4-0.1-0.9-0.2-1.3-0.3c-0.5-0.1-1-0.2-1.4-0.3h0.1c-7.2-1.7-14.2-4.2-21.1-6.9c-15.7-6.2-30.7-13.7-45.1-22.4
	c-1.9-1.2-3.1-2.6-3.9-4.7c-2.9-8.5-6-16.8-8.9-25.3c-2.8-8.1-4.7-16.4-6-24.9c-1-6.2-1.1-12.4-0.7-18.7c0.2-2.8,0.8-5.5,2-8
	c0.3-0.5,0.5-1.1,0.8-1.5c0.4-0.6,1-0.9,1.8-0.7c0.7,0.2,1.5,0.5,2.2,0.8c4.7,1.8,9.4,3.6,14.2,5.4c2,0.8,3.3,1.2,3.6,1.4
	c21.5,8.1,45.9,23.8,45.9,23.8c15.3,9.9,54.4,37.6,58,40.6c0.9,0.7,1.9,1.3,2.9,1.8c0.7,0.4,1.3,0,1.8-0.5s0.5-1.2,0-1.8
	c-0.5-0.7-1.1-1.3-1.6-2c-0.4-0.6-0.4-1.3,0.1-1.8s1.1-1,1.8-1.4c14.5-8.7,29.9-15.4,46.4-19.1c11.4-2.6,22.9-4.1,34.5-4.2
	c6.2-0.1,12.5,0.1,18.7,0.2c1.5,0,3.1,0.2,4.6,0.5c8.6,1.4,17.3,2.4,25.8,4.7c3.9,1,7.8,2.2,11.7,3.3c0.7,0.2,1.5,0.5,2.2,0.6
	s1.5,0.1,2.3,0c1.1-0.2,1.6-1.7,0.8-2.5c-0.5-0.5-1.1-1-1.8-1.4c-1-0.5-2.1-0.9-3.2-1.2c-0.6-0.2-1.3-0.3-1.9-0.5
	c-2.1-0.6-3.5-1.9-3.9-4.1c-0.7-3.4-1.5-6.8-2.1-10.1c-2-10.7-3.5-21.4-4.5-32.2c-1.3-14.4-1.8-28.8-1.2-43.2
	c0.6-12.4,2-24.7,4-36.9c0.1-0.8,0.4-1.6,0.7-2.6c0.8,0.3,1.5,0.4,2,0.7c2.3,1.2,4.6,2.4,6.8,3.7c20,11.7,36.4,27.2,49.3,46.4
	c1.5,2.2,2.3,4.6,2.3,7.3c-0.1,3.7,0,7.5,0.1,11.2c0.1,6.7,0.2,13.4,0.3,20.2c0,0,0,0,0,0.1l0,0c0.5,0.1,0.1,12.6-1.5,26.6
	c-1.6,14.1-3.8,21.7-4.4,27.4c-0.2,1.5-0.6,2.9-0.9,4.4c-0.3,2-0.5,3.5-1.5,3.9c-0.4,0.2-0.8,0.1-1.1,0c0,0,0,0-0.1-0.1
	c-0.5-0.2-0.9-0.6-1.4-1c-0.4-0.3-0.7-0.6-1.1-0.9c-0.1,0-0.1-0.1-0.2-0.1c-1.6-1.2-3.2-2.4-4.7-3.7c-0.7-0.5-1.3-1-2-1.5
	c-0.6-0.5-1.3-0.9-1.9-1.3c-0.4-0.2-0.9-0.4-1.3-0.5c-0.6-0.2-1.1,0-1.6,0.4c-0.5,0.5-0.6,1.3-0.3,1.9s0.8,1.1,1.3,1.5
	c0.9,0.8,1.9,1.6,2.9,2.3c6.6,4.9,12.6,10.3,17.8,16.8c4.9,6.2,8.6,12.9,11.4,20.3c4.1,10.7,6.9,21.8,8.7,33.1
	c1.1,7,1.8,14.1,2.3,21.2c0.5,6,0.8,12.1,2.1,18c0.8,3.9,1.9,7.6,3.3,11.3c1.3,3.4,2.5,6.8,3.8,10.3c0.2,0.5,0.2,1.1,0.4,1.8
	c-0.8-0.1-1.5-0.1-2.1-0.2c-3.7-0.6-7,0.1-10.3,1.9c-4.2,2.3-7.6,5.5-10.5,9.3c-5.8,7.6-9.8,16-12.1,25.3c-1.2,4.7-1.9,9.4-2.2,14.2
	c-0.2,4.1-0.3,7.3,0.8,11.2c0.7,2.6,2.7,8.3,9,13.8c-0.3,1-0.9,1.6-1.5,2.1c0.1,0,0.1-0.1,0.2-0.1c-1.1,0.9-2.2,1.8-3.3,2.7
	c-1.9,1.6-3.8,3.1-5.7,4.7c0,0-9.3,7.2-20.8,13.2C521.3,588,475.6,585.6,475.6,585.6z M386.4,550c-6.5-4.3-11.6-10.1-15.6-16.7
	c-0.7-1.2-1.2-2.6-1.5-4c-1.1-4.8-1.4-9.7-0.5-14.6c2.4-11.8,9-20.4,20.2-25.1c5.6-2.3,11.5-2.8,17.5-1.5c3.3,0.7,6.4,2.2,9.1,4.1
	c10,7.1,15.1,16.8,15,29.2c0,9.7-3.5,18-10.3,24.9c-3.8,3.7-8.2,6.5-13.4,7.6C399.8,555.3,392.8,554.2,386.4,550z M275.5,352
	c0.2-0.4,0.5-0.8,0.9-1.2c2.6,1.2,5.3,1.8,7.6,3.5c2.1,1.6,4.6,2.8,6.9,4.1c3,1.8,3.3,2.5,1.3,5.4c-5.5,8-11.1,15.9-17.7,23
	c-0.9,0.9-1.6,1.9-2.4,2.9c-0.8,1.1-1.7,1.9-3.1,1.5c-1.5-0.4-2-1.7-2-3.1c0-1.7,0-3.5,0-5.2C267.6,371.9,270.9,361.8,275.5,352z
	 M326.8,379.5c0.2-0.5,0.5-1.1,0.7-1.5c0.5-0.8,1.1-1,2-0.8c0.6,0.1,1.1,0.3,1.7,0.5c4.4,1.6,8.9,3.1,13.3,4.7
	c0.8,0.3,1.5,0.7,2.5,1.1c-0.4,0.6-0.6,1-0.9,1.3c-4.2,3.9-8.4,7.9-13.2,11.1c-2.2,1.5-4.6,2.8-6.9,4.1c-0.9,0.5-2,0.8-3,1
	c-0.8,0.2-1.6-0.4-1.7-1.2c-0.1-1-0.2-2.1,0-3.1c0.5-2.3,1-4.5,1.7-6.7C324.1,386.5,325.5,383,326.8,379.5z M709,565.7
	c-6.7,6.7-13.8,13-22,18.1c-7.7,4.7-15.8,8.3-24.6,10.2c-4.4,1-8.8,1-13.2,0.8c-0.2,0-0.4-0.1-0.6-0.2c-0.5-0.7-0.3-1.3,0.2-1.8
	c0.9-1,1.9-1.9,2.8-2.9c0.3-0.3,0.5-0.5,0.8-0.8c0.6-0.6,0.7-1.2,0.3-1.5c-0.6-0.4-1.1-0.2-1.6,0.1c-1.2,0.8-2.3,1.8-3.4,2.7
	c-0.3,0.2-0.6,0.4-0.8,0.7l0,0c-0.3,0.3-0.6,0.5-0.9,0.8c-0.1,0.1-0.3,0.3-0.4,0.4c-0.6,0.5-1.2,1-1.8,1.5
	c-6.6-0.5-13.7-1.2-21.2-2.2c-7.7-1.1-14.8-2.4-21.5-3.8c-6-1.6-12.2-3.4-18.6-5.6c-1.9-0.6-3.8-1.3-5.7-2
	c-6.5-2.3-12.7-4.7-18.5-7.2c0.2-0.1,0.5-0.3,0.7-0.4l0,0c0.4-0.2,0.8-0.4,1.2-0.6c5.5-3.3,11.1-6.6,16.6-10l0,0
	c1.3-1.1,2.8-2,4.3-2.9c14.8-9.8,27.4-22,37.4-36.6c3.7-5.3,6.8-10.9,9.2-16.9c1.9-4.6,3.1-9.3,3.7-14.2c0.4-3.1-0.1-6.1-0.7-9.2
	c-0.4-1.8-0.8-3.5-1.1-5.3c0.9-0.4,1.2,0.2,1.5,0.6c3,3,6.1,5.9,9,8.9c16.2,17,31.1,35,44.9,54c0.7,0.9,1.3,1.9,2,2.8
	c0.7,0.9,1.4,1.8,2.1,2.8c-1.1,1.9-2.8,2.7-4.7,3.6c-0.4-0.6-0.7-1.1-1-1.7c-0.5-1-0.9-2.1-1.6-3c-1-1.4-2.7-1.6-4.1-0.7
	c-0.5,0.3-0.9,0.7-1.3,1.2c-3,3.9-5.3,8.3-6.8,12.9c-0.1,0.3,0,0.5,0,0.8c0.6,0.5,1,0.1,1.3-0.2c0.5-0.6,0.8-1.3,1.2-1.9
	c1.7-2.9,3.3-5.8,5-8.7c0.3-0.5,0.7-1,1-1.4c0.8-0.9,1.8-0.8,2.3,0.2s0.8,2.2,1.3,3.2c0.5,1.3,0.7,2.8,1.7,4.1c0.5-0.4,1-0.6,1.3-1
	c3.3-4.4,8-6.4,13.1-7.8c0.2,0,0.4,0,0.8,0.1c0,0.4,0.2,0.8,0.2,1.3c-0.4,1.6-0.8,3.2-1.2,4.7c-0.2,0.7-0.4,1.5-0.5,2.3
	c-0.1,1.2,0.5,1.8,1.8,1.6c0.8-0.1,1.5-0.4,2.2-0.5c1.3-0.3,2.6-0.6,4-0.7c1.2-0.1,1.8,0.8,1.3,1.9c-0.4,0.9-0.8,1.7-1.3,2.6
	c-0.5,0.8-1,1.7-1.4,2.5c-0.8,1.7-0.3,2.5,1.5,2.7c0.9,0.1,1.7,0,2.6,0.1c0.5,0.1,1,0.3,1.7,0.5C709.5,564.9,709.4,565.4,709,565.7z
	"/>
<path class="st6" d="M221.7,489.6c1.9-3,3.8-6.1,5.6-9.5c0.9-1.6,1.7-3.1,2.4-4.6c0-0.3-0.1-0.6-0.3-0.8c-0.3-0.2-0.8-0.2-1.2,0.1
	c-0.6,0.8-1.4,2.2-2.5,3.8c-1.1,1.7-1.6,2.7-2.9,4.7c-0.7,1.2-1.8,3-3.1,5.1c-0.6-0.5-1.4-1.3-2.2-2.3c-0.8-1.1-1.3-2.1-1.7-2.9
	c1.2-2.5,2.2-4.7,2.8-6.3c0.6-1.4,2-5.2,1.5-5.4c-0.4-0.2-1.8,2-2.5,3c-0.5,0.7-0.7,1.3-2.1,4c-0.5,0.9-0.9,1.7-1.1,2.2
	c-0.6-1.1-1.4-2.8-2.2-4.8c-0.9-2.4-4.4-12.1-1.1-22.9c0.7-2.3,2.1-5,4.8-10.4c2.3-4.5,4.3-8.1,5.8-10.6c0.3,1.3,0.6,3.2,1.2,5.4
	c0.7,2.7,1.8,7,3.3,11c3.3,8.6,10.9,19,12.2,20.3c0.1,0.1,0.6,0.6,0.8,1.4c0.1,0.6-0.1,1.2-0.2,1.4c-4.1,9.6-7.3,14.4-7.3,14.4
	c-0.7,1-1.6,2.4-2.6,4c-0.9,0.3-2.2,0.5-3.9,0.5C223.8,490.3,222.5,489.9,221.7,489.6z M457.4,650.8c0.5-10.2,0.2-23-2.3-37.4
	c-2-11.7-5.1-21.8-8.1-30c3.1,0.6,6.2,1.2,9.3,1.8c1.7,0.4,3.4,0.8,5.1,1.2c0.4,4.5,0.9,9.1,1.3,13.6c0.4,5.3,0.6,11.1,0.5,17.5
	c-0.2,7-0.9,13.5-1.7,19.1c-0.5,3.8-1,7.6-1.5,11.3c-0.1,0.5-0.3,1.6-1.3,2.3C458.2,650.6,457.7,650.7,457.4,650.8z M576.9,561.4
	c-6.2,3.7-12.3,7.4-18.5,11.1c5.8,2.5,12.1,4.9,18.7,7.2c8.4,3,16.5,5.4,24.2,7.5c6.7,1.4,13.8,2.8,21.5,3.8
	c7.5,1,14.5,1.8,21.2,2.2c1-0.9,2.1-1.8,3.1-2.7c-11.7-1.9-26.8-5.7-43.3-13.4C593,572.1,584,566.6,576.9,561.4z M592.9,275
	c-0.5-0.1-0.6,14.6-6.3,32.3c-3.4,10.5-7.7,18.7-10.8,24.1c1.6,1.3,3.3,2.6,5,3.9c0.9,0.7,1.8,1.4,2.8,2c0.3,0.1,0.7,0.1,1.1,0
	c1-0.4,1.2-1.9,1.5-3.9c0.3-1.5,0.7-2.9,0.9-4.4c0.7-5.7,2.8-13.2,4.4-27.4C593,287.6,593.4,275,592.9,275z M351.2,381.5
	c1.3-0.5,3.1-1.1,5.4-1.7c2.8-0.7,7-1.8,11.6-1.5c2.8,0.2,10.2,0.6,12.7,4.6c3.5,5.7-4.7,16.6-12.9,27.3c-5.3,7-13.1,16.2-24,25.8
	c4-26,6.6-34.7,6.6-34.7c1.9-6.3,3.9-11.2,5.1-14.1c1.2,0.4,3.1,0.9,5.5,0.8c1.1,0,4-0.1,4.3-1c0.2-1-3-2.7-5.1-3.5
	c-0.4-0.2-1.2-0.4-4.3-1.1C354.1,382,352.4,381.7,351.2,381.5z M223.2,388.7c7.6,49.3,24.3,66.9,38.4,73.8c12.5,6,26.7,5.5,42,18.5
	c11.1,9.5,16.8,21,19.8,29c0.1,2.4,0.2,4.8,0.3,7.2c-1.7-2.1-4.1-4.9-7.4-8.1c-4.1-4-14-13-31.3-20.7c-12.3-5.4-14.3-2.6-25.6-8.4
	c-4.4-2.2-10.6-5.5-16.7-11.6c-8.4-8.4-12.3-17.9-14.3-24.4c-2-6.4-3.8-14-4.9-22.7C221.8,408.6,222.2,397.4,223.2,388.7z
	 M392.7,556c2.3,1,5.7,2.5,9.9,4.2c14,5.7,27.3,10,35.1,12c30.8,8.2,64.5,5,64.5,5c19.1-2.4,43.2-7.8,68.9-20
	c8.5-4,16.2-8.4,23.2-12.8c-1.1,0.9-2.2,1.8-3.3,2.7c-1.9,1.6-3.8,3.1-5.7,4.7c0,0-9.3,7.2-20.8,13.2c-43.2,22.5-89,20.1-89,20.1
	c-16-0.8-29-3.9-37.5-6.4c-7-1.8-15.6-4.7-25-9.5C404.7,565,397.9,560.2,392.7,556z M323.2,243.6l-2.2-25.2L261.8,234l-5.7-62.1
	c-36,16.1-79,40.5-121.2,77.6c-13.3,11.7-25.2,23.5-35.8,35c0.2,0,0.5,0,0.8-0.1c0.7-0.2,1.1-0.5,1.5-0.9c0.5-0.5,1.2-0.8,1.7-1.3
	c0.8-0.7,8.4-6.3,30.2-21.9c8.8-5.9,17.7-11.7,26.5-17.6c7.9-5.2,15.6-9.9,26-15.9c15.3-8.7,31.6-17.1,31.6-17.1
	c-1.5,0.9,3.4-1.9,5.1-1.4c0.6,0.2,1.3,0.6,2.1,1.8c1.2,4.8,2.4,9.6,3.5,14.5l6.3,27.5c0,1,0.3,2.3,1.2,3.1s2.2,0.8,2.9,0.8
	c1.2,0,0.4,0.2,7.3,2c0,0,2.1,0.6,11.7,2.7c0,0,1.8,0.6,3.2,0.7c1.3,0.1,2.3-0.2,3.2-0.6c4.7-1.7,15.2-6.2,15.5-6.3
	c4.8-2,5.3-1.9,9.7-3.9c1.7-0.8,3.6-1.3,5.3-2.2c1.6-0.9,2.8-1.8,4-1.3c0.7,0.3,1,0.8,1.5,1.6s1.2,2.3,1.5,4.5c1.4,3,2.8,6,4.1,9
	c1.1-6.3,2.2-12.7,3.3-19c1.4,4.1,2.8,8.2,4.1,12.3c1-2.6,2-5.1,2.9-7.6c0.8,1.6,1.6,3.2,2.4,4.8L323.2,243.6z"/>
<path class="st7" d="M329.5,291.6c1.1-0.7,1.9-1.4,2.8-1.9c15.5-9.6,32.2-16.1,50.2-19.1c5.2-0.9,10.3-0.4,15.5,0.6
	c9.7,1.9,19.2,4.7,28.4,8.4c0.4,0.2,0.8,0.4,1.2,0.6c-0.2,0.8-0.8,0.6-1.2,0.7c-3.3,0.4-6.7,0.7-10,1c-9.5,0.9-18.7,3.2-27.7,6.2
	c-11.9,3.9-23.4,8.7-34.4,14.6c-2.8,1.5-5,1.5-7.7-0.2c-4.6-3-9.5-5.8-14.3-8.6C331.3,293.2,330.3,292.8,329.5,291.6z M380.6,323.7
	c0.7-0.5,1.4-1,2.1-1.4c13.3-8,27.5-13.6,42.5-17.3c7.2-1.7,14.6-2.4,22-2.7c4.5-0.2,9-0.3,13.5-0.7c3.2-0.3,5.8,0.4,8.1,2.7
	c1.2,1.2,2.7,2.1,4,3.2c-0.4,0.9-1.1,0.8-1.7,0.8c-3.5,0.4-7.1,0.8-10.6,1.2c-22.8,2.9-44,10.3-63.6,22.4c-0.6,0.4-1.3,0.8-2,1.2
	c-0.8,0.5-1.6,0.6-2.4,0c-3.8-2.9-7.7-5.8-11.5-8.7C380.9,324.4,380.9,324.1,380.6,323.7z M276.4,350.4c2.6,1.2,5.3,1.8,7.6,3.5
	c2.1,1.6,4.6,2.8,6.9,4.1c3,1.8,3.3,2.5,1.3,5.4c-5.5,8-11.1,15.9-17.7,23c-0.9,0.9-1.6,1.9-2.4,2.9c-0.8,1.1-1.7,1.9-3.1,1.5
	c-1.5-0.4-2-1.7-2-3.1c0-1.7,0-3.5,0-5.2c0.6-10.9,3.9-21.1,8.5-30.9C275.7,351.2,276,350.8,276.4,350.4z M346.9,383.1
	c-0.4,0.6-0.6,1-0.9,1.3c-4.2,3.9-8.4,7.9-13.2,11.1c-2.2,1.5-4.6,2.8-6.9,4.1c-0.9,0.5-2,0.8-3,1c-0.8,0.2-1.6-0.4-1.7-1.2
	c-0.1-1-0.2-2.1,0-3.1c0.5-2.3,1-4.5,1.7-6.7c1.2-3.5,2.6-7,3.9-10.5c0.2-0.5,0.5-1.1,0.7-1.5c0.5-0.8,1.1-1,2-0.8
	c0.6,0.1,1.1,0.3,1.6,0.5c4.4,1.6,8.9,3.1,13.3,4.7C345.2,382.3,345.9,382.7,346.9,383.1z M301.3,253.4l4.1,9l3.3-19l4.1,12.3
	l2.9-7.6l2.4,4.8c1.7-3.1,3.3-6.2,5-9.3c-0.4,5.3-0.7,9.5-0.9,12.4c-0.1,1.3-0.2,2.5-0.3,3.8c-0.5,7.9-0.5,9.6-1.8,11.1
	c-1,1.2-2.2,1.4-4.6,2.1c-3.1,0.9-7.6,2.2-13.2,4.3C302.1,269.3,301.7,261.3,301.3,253.4z"/>
</svg>
