<?xml version="1.0" encoding="utf-8"?>
<!-- Generator: Adobe Illustrator 21.0.0, SVG Export Plug-In . SVG Version: 6.00 Build 0)  -->
<svg version="1.1" id="Layer_1" xmlns="http://www.w3.org/2000/svg" xmlns:xlink="http://www.w3.org/1999/xlink" x="0px" y="0px"
	 viewBox="0 0 720 720" style="enable-background:new 0 0 720 720;" xml:space="preserve">
<style type="text/css">
	.st0{fill:#DDA03F;}
	.st1{fill:#FDD13E;}
	.st2{fill:#EA5D67;}
	.st3{fill:#C15C28;}
	.st4{fill:#EF3924;}
	.st5{fill:#8C411F;}
	.st6{fill:#7E1D1E;}
	.st7{fill:#AC4148;}
	.st8{fill:#FFFFFF;}
</style>
<path class="st0" d="M163.1,486.6c-5.4,0.2-10.7,0.7-15.9,0.6c-6.6-0.1-13.1-0.6-19.7-1.2c-5.9-0.5-11.8-1.2-17.7-1.7
	c-10.7-0.9-21.1-2.9-31.3-6c-5.2-1.6-10.3-3.5-15.4-5.3c-0.4-0.1-0.8-0.3-1.2-0.6c1.3-0.3,2.6-0.1,3.9,0c3.7,0.4,7.3,1,11,1.1
	c4.5,0.1,9,0,13.5-0.3c12.2-0.7,24.2-3,36-6.2c3.6-1,6.9-2.4,9.4-5.7c0.7,0.5,1.4,0.8,1.9,1.3c17.1,14,36.3,24,57.9,29.4
	c10.9,2.7,22,4,33.2,3.4c17.5-0.9,34.2-4.9,50.1-12.1c3.9-1.8,7.7-3.9,11.6-5.8c0.8-0.4,1.6-0.6,2.8-1c0,1,0,1.6,0,2.2
	c-0.1,2.1-0.4,4.1-0.4,6.2c-0.1,9.8,3.5,18.3,9.9,25.6c5,5.6,11.3,9.2,18.3,11.5c5,1.7,10.1,2.7,15.4,2.8c8.7,0.1,16.5-2.5,23.6-7.5
	c4.5-3.2,8.5-6.9,11.9-11.3c0.1-0.2,0.4-0.4,0.7-0.7c0.4,0.4,0.8,0.8,1.1,1.3c6.2,8.2,12.5,16.3,18.7,24.5c0.6,0.8,1.3,1.6,2,2.3
	c2.6,2.4,5.7,2.8,8.7,1.1c1.3-0.8,2.6-1.8,3.6-2.9c4.4-4.9,8.4-10,11.3-15.9c0.1-0.2,0.3-0.4,0.6-0.9c0,0.6,0,0.9,0,1.1
	c-1.6,7.2-4.1,14.1-7.8,20.5c-5.7,10-14.5,15.9-25.6,18.5c-9.5,2.3-18.8,1.2-28-2.1c-8.7-3.1-16.8-7.2-24.8-11.8
	c-5.1-2.9-10.2-5.9-15.4-8.6c-9.8-5.2-20.1-8.7-31.2-10c-9.3-1-18.6-0.4-27.6,2.5c-8.2,2.6-16.5,4.4-25.1,4.3
	c-12.4-0.1-23.5-3.8-32.7-12.3c-2.3-2.1-4.4-4.5-6.5-6.9c-5.7-6.8-11.6-13.4-18.5-18.9c-3.1-2.5-6.4-4.6-9.6-6.8
	c-0.3-0.2-0.7-0.4-1-0.5c-1.1-0.4-1.8,0.1-1.9,1.2C163.1,485.3,163.1,485.9,163.1,486.6z M637.6,288.9c-5-0.4-9.9-0.8-14.8-1.1
	c-7.3-0.4-14.5-0.8-21.8-1.1c-8.4-0.4-16.9-0.6-25.3-0.9c-7.6-0.3-15.2-0.6-22.8-1c-10.3-0.6-20.6,0.1-30.9,0.8
	c-2.8,0.2-5.5,0.3-8.3,0.4c-2.6,0.1-3.6,0.9-4.2,3.4c-1.4,6.5-2.8,13-4.2,19.5c-2.3,10.7-4.5,21.3-6.8,32c-0.1,0.3-0.2,0.6-0.2,0.9
	c-0.4,2-1.5,3.2-3.5,3.6c-3.5,0.8-6.9,1.7-10.3,2.5c-6.1,1.5-12.2,3-18.2,4.4c-0.3,0.1-0.5,0.1-0.8,0.2c-3.2,0.9-4.2,2.4-3.8,5.6
	c0.6,4.9,1,9.8,0.6,14.7c0,0.4-0.2,0.8-0.4,1.7c-1.7-2.7-2.5-5.3-4-7.9c-1.1,2.9-2,5.4-3.1,8.3c-1.1-2.5-2.1-4.5-3.1-6.9
	c-1.4,2.4-1.7,5-3.1,7.5c-1.5-2.1-3-4-4.5-6.1c-1.2,0.9-1.8,1.9-2.2,3c-0.4,1.1-0.7,2.2-1.2,3.4c-1-0.7-1.4-1.3-1.1-2.4
	c0.2-0.7,0.2-1.6,0-2.3c-1.6-4.8-3.4-9.6-5-14.4c-2.4-7.1-4.8-14.2-7.1-21.3c-0.2-0.5-0.3-1-0.5-1.8c1.3,0.1,2.4,0.1,3.6,0.3
	c7.4,0.9,14.9,1.7,22.3,2.6c7.7,0.9,15.4,1.9,23,2.9c4.4,0.5,8.7,1.1,13,1.7c0.5,0.1,0.9,0.1,1.4,0.1c2.1,0,3.3-0.9,3.4-3.1
	c0.1-2.5,0-5-0.1-7.5c-0.5-12.5-1-25-1.5-37.5c-0.2-6.1-0.3-12.1-0.5-18.2c-0.4-11.1-1-22.3-1.4-33.4c-0.1-2.4,0-4.8,0-7.2
	c0-0.7,0.1-1.4,0.3-2.1c0.1-0.8,0.6-1.1,1.4-0.9c0.6,0.2,1.1,0.4,1.6,0.5c23.4,8.4,46.9,16.8,70.3,25.2
	c21.5,7.8,42.7,16.3,63.3,26.1c3.5,1.7,7,3.5,10.5,5.2C637.7,288.6,637.6,288.8,637.6,288.9z"/>
<path class="st1" d="M410,225c-0.4-3.3-0.7-3.5-3.7-2.2c-22,9.4-42.8,20.9-62.3,34.7c-14.2,10-27.5,21-40,33
	c-3.2,3.1-6.2,6.4-9.3,9.6c-1,1-1.6,1.2-3.4,0.5c0-0.4-0.2-1,0-1.2c0.9-1.2,1.8-2.4,2.8-3.6c-0.3-1.1-1.3-1.8-2.2-2.3
	c-5.7-3.6-11.4-7.1-17.5-9.9c-17.3-7.9-35.5-11.1-54.4-11.3c-6.8-0.1-13.5,0.5-20.3,1c-7.1,0.5-14.1,1.2-21.1,3
	c-5.2,1.3-10.3,2.9-15.5,4.3c-0.7,0.2-1.4,0.3-2.1,0.4c-0.2,0-0.6-0.3-0.7-0.5c-0.1-0.2,0-0.7,0.2-0.9c0.8-0.5,1.7-1,2.5-1.5
	c0.9-0.6,1.9-1.1,2.7-1.8c1.8-1.8,3.6-3.7,5.3-5.6c6.8-8.1,13.5-16.2,20.2-24.3c5.3-6.4,10.6-12.7,15.6-19.3
	c10.3-13.8,7.5-8.8,14.5-24.1c1-2.2,1.5-4.5,1.3-6.9c-0.2-1.5-0.3-3-0.4-4.4c-1.2-9.7-3.8-19-7.7-27.9c-2-4.5-4.3-8.8-6.5-13.2
	c-0.9-1.8-1.5-1.8-3-0.5c-0.2,0.2-0.5,0.4-0.7,0.7c-2.1,2.2-4.3,4.4-6.4,6.7c-19.5,21.2-34.8,45.1-45.6,71.9
	c-7.1,17.6-12,35.7-14.9,54.4c-0.6,4.1-1.3,8.3-1.9,12.4c-0.2,1.1,0,2.3,0,3.5c0.1,0.1,0.3,0.1,0.4,0.2c0.4-0.5,0.9-1,1.3-1.5
	c2.3-2.9,4.8-5.6,7.8-7.8c0.2-0.1,0.4-0.2,0.8-0.3c0.3,0.4,0.5,0.8,0.7,1.2c-1,0.9-1.9,1.6-2.9,2.5c-3,2.7-5.6,5.7-7.4,9.4
	c-1.7,3.5-3.6,7-5.6,10.4c-5.2,9.1-8.5,18.9-10,29.3c-0.8,5.6-1.4,11.1-2.3,16.7c-1.9,11.7-5.1,23-10,33.9c-0.8,1.8-1.6,3.5-2.5,5.3
	c-0.3,0.6-0.6,1.1-0.1,1.8c0.2,0,0.4,0,0.6-0.1c0.4-0.3,0.9-0.6,1.2-0.9c3.3-3,7.1-4.2,11.6-3.9c5.7,0.5,10.3,3,13.3,7.9
	c1.2,1.9,2.1,4,3,6.1c2,5.1,2.3,10.4,1.9,15.8c-0.3,3.9-0.6,7.7-2,11.4c-1.8,4.7-5,7.7-10.1,8.6c-0.6,0.1-1.5-0.1-2,0.4
	c0,0-0.2,0.2-0.3,0.4c-0.3,0.8,0.6,2.3,1.8,3.5c24.3,24,49.7,34,49.7,34c1.1,0.5,5.9,2.3,12.4,4.3c5.1,1.6,12.8,3.9,22.1,5.1
	c4.2,0.5,5.2,0.6,5.2,0.5c0-0.2-2.8-0.7-7.5-2.1c0,0-1.3-0.4-2.6-0.8c-3.9-1.3-12-7.1-17.9-18.5c-1.3-2.5-3.5-7.5-5-14.4
	c-2-8.9-2.2-18-0.8-27.3c0.4-2.4,0.5-4.7-0.5-7c-1-2.4-0.5-4,1.5-5.6c2.1-1.7,4.2-3.5,6.4-5.1c2.5-1.8,5-3.7,7.8-5.1
	c4.9-2.4,9.8-1.9,14.1,1.6c1.5,1.2,3,2.3,4.4,3.5c2.1,1.9,4.5,3.5,6.3,5.7c10.5,12.2,15.3,26.2,12.5,42.3
	c-1.1,6.4-3.3,12.5-6.7,18.1c-1.8,3-4.3,6.4-8.8,9.1c-4.4,2.7-8.9,3.3-10.8,3.6c-2.2,0.3-4,0.3-5.4,0.3c1.1,0.2,2.1,0.4,3.2,0.6
	c4.2,0.8,9.1,1.4,14.7,1.5c3.2,0.1,9.9-0.1,18.3-1.2c5-0.7,9.9-1.4,14.6-3.4c2.4-1,5-1.8,7.5-2.7c16.9-6.3,22.9-10.9,24.6-12.2
	c1.5-1.1,2.6-2.1,3.3-2.7c-3.2-0.3-5.7-1.2-7.3-1.9c-0.9-0.4-2.1-0.9-3.6-1.9c-1-0.7-2.8-1.9-4.1-3.9c-1.1-1.6-1.8-3.5-2-5.7
	c-0.6-4.8-0.1-9.4,1.1-14c3-11.1,10.2-18.9,19.9-24.6c1.1-0.7,2.5-1.2,3.8-1.5c5.8-1.5,11.2-1.1,15.8,3.1c3.8,3.5,5.5,8,5.8,13.1
	c0,0.8,0.1,1.6,0.2,2.9c0.8-0.6,1.4-0.9,1.7-1.4c0.9-1.5,1.7-3,2.5-4.5c5.1-9.6,7.3-20.1,8.1-30.9c0.5-6.9,0.5-13.9,0.5-20.9
	c0-3.3-0.2-6.6-0.6-9.9c-1-7.6-2.2-15.2-3.3-22.8c-0.3-2.1-0.7-4.2-1.3-6.2s-1.6-3.9-2.4-5.9c-0.2-0.4-0.4-0.8-0.6-1.3
	c-0.6,0.7-1,1.2-1.5,1.7c-1.7,2-3.8,2.8-6.4,2.5c-4.3-0.5-8.3-4.2-9.6-8.8c-0.5-1.9-0.6-3.8,0.1-5.7c0.4-1.3,1.3-2.1,2.6-2.2
	c0.5-0.1,0.9-0.2,1.3-0.2c8.5-1.1,16.9-3,25.1-5.4c9.3-2.7,18.5-5.6,27.8-8.5c1.5-0.5,2.9-1.1,4.2-1.9c11.3-6.7,21.7-14.6,32.2-22.5
	c0.7-0.5,1.3-1.3,1.6-2.1c2.3-5.3,4.9-10.6,6.1-16.3c1.5-6.6,2.8-13.3,3.8-19.9C410.4,237.9,410.7,231.5,410,225z M167.3,374
	c-1.3,5.7-6.7,12.9-14.8,14.2c-8.3,1.3-15.8-3.3-17.9-11.5c-1.7-6.6-0.9-12.8,3.8-18.1c2.3-2.6,5.2-4.2,8.4-5.3
	c0.4-0.1,0.9-0.3,1.3-0.4c3.3-1,3.3-1,3.1-4.8c0.6,0.7,0.9,1,1.3,1.4c3.5,4.1,7,8.3,10.4,12.5c1.3,1.5,2.4,3.2,3.3,5
	C167.5,369.2,167.9,371.5,167.3,374z M206.6,394.6c-1.3,1.6-2.8,3-4.4,4.3c-1.4,1.1-2.5,0.9-3.5-0.5c-1.1-1.6-2.2-3.3-3.1-5.1
	c-1-2-0.4-3.1,1.8-3.7c0.9-0.2,1.8-0.3,2.7-0.4c0-0.1,0.1-0.1,0.1-0.2c1.9,0.5,3.8,0.8,5.5,1.5C207.6,391.4,208,393,206.6,394.6z
	 M292.6,390.7c-0.7,2.5-1.9,4.6-3.7,6.4c-2.8,2.8-5.9,5-9.7,6.1c-2.5,0.7-5,0.7-7.5,0.1c-8.9-2.1-14.4-8-15.8-17.2
	c-0.1-0.9,0-1.8,0.2-2.7c0.5-2,0.8-3.9-0.6-5.9c0.7-0.5,1.2-0.9,1.8-1.3c8.3-4.5,16.6-8.9,24.9-13.4c0.7-0.4,1.3-0.9,2.1,0
	c-0.3,1.9-2.6,1.7-3.4,3.3c0.7,0.4,1.4,0.8,2.1,1.2C291.1,372.1,295,381.6,292.6,390.7z M425.1,332.1c0.3,1.4,0.3,2.6,0.7,3.7
	c3.8,11.3,7.6,22.6,11.4,34c0.2,0.6,0.5,1.2,0.7,1.8c-0.7,0.2-1.6,0.3-2.1,0.7c-0.5,0.5-0.8,1.3-1,2c-0.4,1.1-0.8,2.3-1.5,3.4
	c-0.1-0.4-0.3-0.8-0.4-1.2c-3.4-14.8-6.7-29.7-10.1-44.5c-0.8-3.6-0.5-4.1,3.1-5c11.7-3,23.3-6.1,35-9.1c0.3-0.1,0.6-0.2,0.9-0.3
	c2.9-0.8,3.7-1.8,3.9-4.8c0.3-3.9,0.5-7.7,0.8-11.6c0.7-9.8,1.5-19.6,2.2-29.3c0.6-7.5,1.1-14.9,1.7-22.4s1.1-15.1,1.7-22.6
	c0.5-6.1,0.9-12.1,1.4-18.1c0.1-1.1,0.2-2.2,0.4-3.3c0.2-1.9,1.3-3.1,3.2-3.4c1.8-0.3,3.7-0.6,5.5-0.9c10-1.4,19.9-2.8,29.9-4.1
	c10.2-1.3,20.5-2.6,30.7-3.7c9.5-1.1,19-1.3,28.6-1.6c8.3-0.3,16.5-0.7,24.8-1c3.6-0.1,7.2-0.2,10.8-0.3c5.7-0.1,11.5-0.2,17.2-0.1
	c12.5,0.2,24.9,0.4,37.3,1.4c10.1,0.8,20.2,1.6,30.3,2.5c1.4,0.1,2.8,0.3,4.2,0.5c1.4,0.3,1.7,0.8,1.3,2.2c-0.1,0.4-0.3,0.7-0.4,1.1
	c-7.2,16.3-14.3,32.6-21.6,48.8c-4.2,9.3-8.7,18.6-13.2,27.8c-1.3,2.8-3,5.4-4.6,8.1c-1.1,1.8-2.3,3.6-3.3,5.5
	c-1.3,2.2-3.1,3.2-5.6,2.8c-0.9-0.1-1.8-0.2-2.7-0.5c-0.5-0.1-0.9-0.4-1.3-0.7c-0.4-0.2-0.8-0.5-1.2-0.6c-2.7-1.1-5.6-2-8.2-3.4
	c-13.7-7-27.8-13-42-18.8c-20.2-8.2-40.8-15.4-61.4-22.6c-12.5-4.4-25-9.1-37.5-13.6c-0.9-0.3-1.7-0.6-2.6-0.8
	c-1.9-0.4-3,0.3-3.3,2.2c-0.2,1.1-0.3,2.2-0.3,3.3c0.3,7.7,0.6,15.5,0.9,23.2c0.1,3,0,6.1,0.1,9.1c0.3,9.9,0.7,19.9,1.1,29.8
	c0.3,8.9,0.6,17.8,0.9,26.7c0.1,4.1,0.3,8.3,0.5,12.4c0,0.3,0,0.5,0,0.8c-0.1,2.1-0.6,2.7-2.7,2.4c-3.4-0.4-6.8-0.9-10.2-1.3
	c-7.7-1-15.5-2-23.2-2.9c-7.2-0.9-14.5-1.7-21.7-2.6c-2.7-0.3-5.4-0.6-8.1-0.9C426,332,425.6,332.1,425.1,332.1z M415.1,437.2
	c0.7,2.9,1.4,5.7,2.1,8.6c1.8,7.5,2.8,15.2,3.6,22.9c0.9,8.6,1.4,17.3,1,25.9c-0.2,3.7-0.4,7.5-1.5,11.1c-1.6,5.4-3.8,10.7-7.2,15.3
	c-2.4,3.3-5,6.4-7.6,9.5c-0.8,1-1.9,1.8-3,2.4c-2.2,1.3-4.5,1.1-6.5-0.6c-0.7-0.6-1.3-1.3-1.9-2c-6.5-8.5-13-17-19.6-25.5
	c-0.7-1-0.8-1.8-0.2-2.8c0.7-1.1,1.3-2.4,2-3.6c5.3-10.4,6.6-21.2,3.3-32.5c-0.8-2.6-2-5-3.1-7.5c-0.9-1.8-1.9-3.5-3-5.3
	c-0.4,0.2-0.8,0.3-1.2,0.5c0,0.3,0,0.5,0.1,0.6c0.6,1.1,1.2,2.3,1.8,3.4c5.6,9.6,7.2,19.9,4.3,30.6c-4.4,16-14.5,27.1-30.2,32.8
	c-6.5,2.4-13.3,2.4-20.1,0.9c-7-1.5-13.7-3.9-19.4-8.4c-10.5-8.4-15.5-19.4-14.2-33c0.1-1.6,0-3.2,0.1-4.8c0-0.8,0.1-1.7,0.3-2.5
	c2.7-12.1,9.2-22,18.4-30.3c4.8-4.3,10-7.9,16-10.3c0.5-0.2,0.9-0.5,1.4-0.7c-0.2-0.5-0.4-0.9-0.6-1.3c-2.6,0.7-4.7,2.4-7.7,3.2
	c0.2-0.9,0.2-1.5,0.5-1.9c5.3-10.2,7.4-21.1,8.3-32.4c0.8-9.6,0.8-19.2-0.1-28.8c-0.7-6.8-1.8-13.5-2.8-20.3c-0.5-3-1-6.1-1.2-9.4
	c0.7,0.5,1.3,1.1,2,1.6c8.6,7,15.6,15.3,21.5,24.7c4.5,7.2,8.7,14.5,12.5,22c6.6,13.2,13.1,26.5,19.7,39.7c0.5,1,1,2,1.6,2.9
	s1.2,1.9,2,2.6c2.4,2.4,4.7,1.8,5.8-1.5c1.3-4,0.8-8,0.2-12c-3-20-11.2-37.9-21.4-55c-0.7-1.3-1.7-2.4-1.7-4.2
	c0.7,0.4,1.2,0.6,1.8,1c9.7,6,17.3,14,22.4,24.3c2.4,4.9,3.7,10.2,4.8,15.5c2.1,9.5,3.3,19.2,4.3,28.9c0.7,6.7,1.5,13.5,2.3,20.2
	c0.1,1,0.3,2,0.7,3c0.8,2,3,2.4,4.5,0.7c0.4-0.5,0.7-1.1,1-1.7c2.3-4.9,3.4-10,3.5-15.4c0-0.5,0.1-1,0.1-1.5
	C414.8,437.2,414.9,437.2,415.1,437.2z M317.2,478.4c1.6,0.3,2.2-0.6,2.8-1.4c1.5-1.7,3-3.6,4.7-5.1c1.5-1.4,3.3-2.5,5-3.5
	c1.7-0.9,2.5-0.4,2.8,1.5c0.1,0.8,0.1,1.7,0.2,2.5c0.1,1.9,0.3,3.7,0.5,5.6c0.2,1.7,0.9,2.1,2.5,1.3c0.4-0.2,0.8-0.5,1.2-0.7
	c1.6-0.8,3.2-1.7,4.8-2.5c1.9-0.9,2.8-0.4,3,1.7c0.2,1.4,0.3,2.8,0.5,4.2c0.3,2.1,1.5,3.4,3.6,3.8s4.2,0.8,6.3,1.2
	c1.9,0.3,2.4,1,1.7,2.8c-0.6,1.5-1.6,2.8-2.5,4.1c-1.2,1.9-1.1,3.1,0.8,4.2c1.1,0.7,2.4,1.2,3.6,1.8c0.7,0.4,1.4,0.9,2.1,1.3
	c-1.3,1.8-3,2.6-4.5,3.7c-2.5,1.8-3.2,2.6-3.8,4.4c1.7-1,3.1-2,4.6-2.9c1.9-1.2,3.4-2.8,5.5-3.6c1.2-0.4,1.4-1.6,0.6-2.5
	c-0.5-0.7-1.4-1.1-2.1-1.5c-0.7-0.3-1.5-0.4-2.2-0.7c-2.7-0.9-3.3-2.3-2.3-4.9c0.5-1.3,1.2-2.5,1.8-3.9c1-2.3,0.5-3.3-2-3.9
	c-1.9-0.4-3.8-0.7-5.7-1.1c-2.7-0.6-3.4-1.3-3.9-4.1c-0.2-1.3-0.2-2.7-0.5-4c-0.3-2.1-1.1-2.8-3.2-2.4c-1.5,0.3-3,1-4.5,1.6
	c-1.2,0.5-2.3,1.1-3.6,1.7c-0.2-1.2-0.3-2.1-0.4-2.9c-0.2-1.9-0.3-3.9-0.5-5.8c-0.3-2.5-1.5-3.3-3.8-2.5c-0.8,0.3-1.5,0.6-2.3,1
	C323.4,469.7,320.3,473.9,317.2,478.4z M316.8,489c1.3,2.5,2.4,4.9,3.8,7.1c0.9,1.5,2.1,2.8,3.4,4c1.2,1.2,2.6,1.1,3.7,0.3
	c0.8-0.6,1.6-1.2,2.5-1.8c0.8-0.5,1.2-1.2,1.1-2.1s-0.5-1.8-1.5-2.1c-1.3-0.3-2-1.3-3-2c-1.6-1.3-3.3-2.5-5-3.6
	C320.2,487.9,318.6,487.9,316.8,489z M310.6,486.4c-1.6-0.6-3-1.2-4.5-1.6c-0.9-0.3-1.9-0.5-2.8-0.4c-3.2,0.3-4.5,2.5-3.1,5.4
	c1,2.1,2.5,3.7,4.4,5c0.3,0.2,0.7,0.4,1.4,0.7c-1.4-2.4-2.5-4.5-3.7-6.4c-0.4-0.7-0.9-1.3-0.4-2.1c0.6-0.9,1.5-1,2.4-0.8
	c1.1,0.2,2.1,0.5,3.2,0.7C308.5,487,309.5,487.2,310.6,486.4z M22.1,435.9c1.5-0.8,2.6-1.4,3.7-2c1-0.5,2-1,2.9-1.6
	c1.9-1.4,2.4-3.3,1.5-5.5c-0.3-0.8-0.8-1.5-1.2-2.2c-0.6-1.2-1.1-2.4-1.8-4c1.1,0.1,1.9,0.1,2.6,0.3c3.9,0.8,7.5,2.3,11.1,3.9
	c1.3,0.6,2.6,1.1,4.1,1.4c-0.4-0.5-0.7-1.1-1.1-1.6c-1.3-1.9-1.2-2.4,0.7-3.5c4-2.4,8-4.8,12-7c11.4-6.2,23.4-10.8,36.2-13.3
	c2.8-0.6,5.7-1,8.6-1.4c2.1-0.3,2.6,0.3,2.4,2.4c-0.1,1-0.3,1.9-0.4,2.9c-1,7.2,0.3,14,3.5,20.5c4.5,9.3,10.3,17.6,17.3,25.1
	c2.8,3,5.9,5.7,8.9,8.6c0.5,0.4,0.9,0.9,1.4,1.3c-0.4,1.1-1.2,1.8-2,2.4c-1.9,1.6-4.3,2.4-6.6,3c-8.9,2.4-17.9,4.4-27,5.4
	c-5.3,0.5-10.6,0.8-15.8,1.1c-5.8,0.4-11.4-0.4-17.2-1.2c-2.2-0.3-4.5-0.3-6.8-0.4c-0.8-0.1-1.7-0.2-2.4-0.5
	c-4.6-1.8-8.8-4.4-12.7-7.3c-0.9-0.7-1.9-1.4-2.8-2.1c-1.7-1.3-3.5-1.5-5.4-0.3c-2.5,1.6-5.4,2.1-8.2,2.6c-0.1,0-0.2-0.1-0.6-0.3
	c0.3-1.4,0.6-2.8,1-4.2c0.3-1.4,0.8-2.7,1.1-4.1c0.6-2.6-0.4-4.1-2.9-4.8c-1-0.3-2.1-0.6-3.1-0.9c-0.2-0.1-0.4-0.3-0.6-0.5
	c1-1.7,2.4-2.9,3.8-4.1c0.2-0.2,0.4-0.3,0.6-0.4c1.7-1.4,1.7-2.7,0-4.1c-0.8-0.6-1.6-1.1-2.4-1.6C23.7,437.3,23.1,436.8,22.1,435.9z
	 M40.7,446.3c1.5-1.2,2-2.8,2.3-4.5c0.8-3.8,0.1-7.3-1.4-10.8c-0.3-0.6-0.5-1.3-0.8-2.1c2.9-0.4,5.5,1.6,8.5,0.1c-2.2-0.8-4-1.5-6-2
	c-0.7-0.2-1.5-0.2-2.3-0.1c-1.9,0.2-2.5,1-1.9,2.8c0.1,0.3,0.2,0.6,0.3,0.9C33,437.1,33.6,443.5,40.7,446.3z"/>
<path class="st2" d="M231.8,455.8c-0.4,9.4-3.4,17.8-9,25.3c-3.4,4.5-7.9,7.1-13.3,8.4c-2.1,0.5-4.1,0.3-6.2-0.8
	c-4.9-2.8-8.7-6.6-11.7-11.3c-2.8-4.2-4.9-8.8-6.9-13.4c-2.9-6.9-1.6-13.3,2.9-19.1c0.2-0.3,0.4-0.5,0.6-0.7
	c4.5-3.3,9.2-6.3,14.9-7.1c8.9-1.3,16.6,1.3,22.7,7.9c1.8,2,3.5,4.1,5.2,6.3c0.4,0.5,0.6,1.1,0.6,1.7
	C231.9,453.9,231.8,454.8,231.8,455.8z"/>
<path class="st3" d="M336.2,345.1c1.7,0.9,3.4,1.7,5.1,2.5c6.3,3.2,12.6,6.4,19,9.5c2.8,1.4,5,3.2,6.7,5.9
	c8.7,13.6,15.6,28,20.4,43.5c2,6.4,3,13,3.9,19.5c0.4,2.5-0.1,5-1,7.4c-0.6,1.5-1.4,1.7-2.5,0.6s-2.1-2.4-2.9-3.9
	c-4.2-8.4-8.3-16.8-12.5-25.1c-6.3-12.7-12.4-25.5-20.1-37.5c-4.4-6.9-9.1-13.5-14.4-19.7c-0.7-0.8-1.5-1.6-2.2-2.4
	C336,345.3,336.1,345.2,336.2,345.1z"/>
<path class="st4" d="M286.9,470.3c-1.5,0-7.1-0.1-11.3-4.4c-3-3.1-3.8-6.6-4.1-9c-0.7-7.1,1.3-13.6,4.5-19.7
	c3.7-7.2,9.5-12.5,16.5-16.5c4.5-2.5,13.2-2.9,17.9,1.5c3.9,3.7,5.3,8.3,5.2,13.5c0,2.6-1,4.6-3,6.4c-7.1,6.3-12.5,13.9-16,22.7
	c-0.2,0.5-0.8,1.7-2.1,2.9c-1.3,1.3-2.7,1.8-3.2,2C289.4,470.4,287.8,470.4,286.9,470.3z M117.6,396.3c5.3-0.1,8.7,2,11.7,5.1
	c3.7,3.9,5.5,8.7,6.6,13.8c1.3,6.1,0.9,12.2-0.7,18.2c-0.7,2.8-2,5.3-3.9,7.5c-4.1,4.5-10.3,4.4-13.8-0.5
	c-5.5-7.7-10-15.9-12.3-25.2c-1.4-5.8,0.1-10.7,4.1-14.9C111.8,397.4,114.6,396.3,117.6,396.3z"/>
<path class="st0" d="M400.8,594.7c-1-2.4-1.3-5-1.8-7.5c-0.5-2.8-1-5.6-1.5-8.4c-0.2-0.9-0.5-1.7-1.2-2.6c-0.1,0.8-0.2,1.7-0.2,2.5
	c0,5.7,0.8,11.2,3.1,16.4c0.1,0.4,0.5,0.8,0.4,1.1c-0.1,0.6-0.4,1.5-0.8,1.8c-0.7,0.5-1.5,0.2-2-0.6c-0.4-0.7-0.7-1.4-0.9-2.1
	c-1.4-4.7-2.7-9.4-4-14.1c-0.3-1.1-0.5-2.2-2-3.2c0.2,1.8,0.1,3.2,0.5,4.5c0.7,2.7,1.5,5.3,2.3,8c0.6,2,1.3,4,1.9,6.1
	c0.1,0.3,0.1,0.7,0.2,1.4c-0.6-0.5-1-0.8-1.3-1.2c-3.8-4.1-6.8-8.7-8.9-13.8c-3.3-8-6.3-16.1-9.5-24.3c2-0.7,3.8-0.9,5.6-1.2
	c3.4-0.6,6.7-1.1,10.1-1.9c3.1-0.7,5.9-2.2,8.5-4c2.1-1.5,2.8-1.2,3.2,1.4c2.2,13.3,2,26.6-0.4,39.9c-0.1,0.7-0.5,1.3-0.8,2
	C401.1,594.8,401,594.8,400.8,594.7z"/>
<path class="st5" d="M423,402.4c1.2,0.6,2,1.1,2.9,1.4c5.9,2.2,11.9,4.3,17.8,6.5c2.9,1.1,5.8,2.6,8.6,3.9c0.7,0.3,1.3,0.7,2,1.1
	c0,0.1,0,0.3-0.1,0.4c-2.1,0.4-4.2,0.8-6.4,1.1c-1.1,0.2-2.3,0.3-3.5,0.4c-3.3,0.4-4.3,1.8-3.6,5c1,4,2.1,8,3.2,12
	c1.5,5.4,2.9,10.8,4.4,16.3c0.1,0.3,0.1,0.5,0.2,0.8c0.4,2,0.1,2.6-1.9,3c-2.9,0.6-5.8,1.1-8.7,1.7c-4.2,0.9-8.3,1.9-12.5,2.8
	c-0.4,0.1-0.8,0.2-1.1,0.3c-1.3,0.2-1.9-0.2-2.3-1.5c-0.2-0.9-0.2-1.8-0.4-2.7c-0.4-1.9-0.9-3.8-1.3-5.7c-0.4-1.9,0-2.7,1.8-3.2
	c1.2-0.3,2.5-0.4,3.8-0.7c0.6-0.1,1.1-0.2,1.7-0.4c1.5-0.5,2.1-1.5,1.7-3c-0.3-1.1-0.7-2.2-1.1-3.3c-4-10-8.1-20.1-12.2-30.1
	c-1.3-3.3-1-4,2.5-4.9c0.8-0.2,1.6-0.5,2.4-0.7C421.8,402.7,422.5,402.5,423,402.4z M454.9,379.1c1.1-3,2.1-5.6,3.1-8.5
	c0.7,1.4,1.1,2.4,1.6,3.4c1,2,1.4,2.1,3.6,1.3c0,0.5,0.1,0.9,0.1,1.3c-0.3,4.1,0.5,8.1,0.8,12.1c0.4,5.3,0.7,10.5,1.1,15.8
	c0.1,2.2,0.3,4.4,0.4,6.6c0,1.6-0.5,2.3-2,2.7c-2.8,0.6-5.5,1.1-8.4,1.6c-0.2-0.5-0.5-0.9-0.6-1.3c-3.8-10.2-7.5-20.5-11.2-30.7
	c-0.6-1.6-1.1-3.3-1.5-5c-0.1-0.6-0.1-1.3,0.1-1.8c0.5-1.5,1-3,1.7-4.9c1.9,2.5,3.5,4.8,5.3,7.3c0.9-2.4,1.6-4.5,2.5-6.9
	C452.7,374.5,453.7,376.6,454.9,379.1z"/>
<path class="st6" d="M182.3,449.3c-0.9-2.7-1.1-5.4-1-8.1c0.1-5,0.4-9.9,0.7-14.9c0.2-4.5,2.1-8.1,5.6-10.8c2.7-2.1,5.6-4.1,8.6-5.9
	c3.5-2.2,7.2-2.1,10.8,0c3,1.7,5.8,3.6,8.2,6.1c2.7,2.9,5.2,5.9,7.8,8.9c0.3,0.3,0.5,0.7,0.5,1.3c-0.7-0.3-1.4-0.6-2-1
	c-6.6-3.7-12.9-3.2-19.2,0.8c-6.7,4.3-12.1,9.8-16.1,16.7C185,444.7,183.7,447,182.3,449.3z"/>
<path class="st3" d="M393.6,383.4c3,3,5.4,6.4,7,10.1c5.2,11.6,9.3,23.6,11.5,36.2c1.1,6.7,1.3,13.4-1.1,19.9
	c-0.5,1.5-1.2,3-1.9,4.4c-0.2,0.4-0.9,1-1.3,0.9c-0.4,0-0.9-0.7-1-1.2c-0.5-2.3-0.9-4.7-1.1-7.1c-0.9-7.5-1.5-15-2.4-22.5
	c-1.3-10.7-2.9-21.4-6.1-31.7c-0.8-2.5-1.8-5-2.8-7.4C394.1,384.6,393.9,384,393.6,383.4z"/>
<path class="st7" d="M231.4,450.1c-0.2-0.4-0.4-0.8-0.6-1.1c-1.3-1.5-2.6-3.1-3.9-4.6c-7.2-8.4-19.8-11.2-30.2-6.5
	c-2.2,1-4.3,2.3-6.7,3.5c0.3-0.6,0.5-1,0.8-1.4c3.7-5.5,8.4-9.8,14.4-12.9s11.7-2.4,17.3,1c3.6,2.2,6.1,5.3,7.3,9.4
	c1,3.5,2,7.1,2.2,10.8c0,0.5,0,1,0,1.4C231.7,449.9,231.6,450,231.4,450.1z"/>
<path class="st3" d="M452.2,412.3c-8.8-4.4-17.9-7-26.7-10.4c0-0.1,0-0.3,0-0.4c2-0.7,4.1-1.4,6.1-2c0.4-0.1,0.9-0.2,1.3-0.4
	c4.2-1.1,5.3-3.1,4.3-7.3c-0.9-3.8-1.7-7.5-2.7-11.3c-0.2-0.9-0.1-1.6,0.3-2.4c0.5-1,0.8-2.2,1.2-3.2c0.2-0.5,0.4-0.9,0.6-1.6
	c0.4,0.4,0.7,0.6,0.9,0.9c0.6,1.3,1.2,2.5,2.4,3.5c0.3,0.3,0.4,0.8,0.5,1.2c1,2.9,1.8,5.8,2.9,8.6c2.7,7.6,5.5,15.1,8.3,22.7
	C451.8,410.9,451.9,411.4,452.2,412.3z"/>
<path class="st8" d="M262.7,379.5c0.3-1,0.4-2,0.9-2.8c1.7-2.8,4.1-4.8,7.1-6c1.8-0.7,3.4-0.4,4.8,1c2.6,2.7,3.7,5.9,3,9.5
	c-0.5,2.3-1.9,3.9-4.1,4.8c-2.1,0.9-4.4,1-6.6,0.5c-1.7-0.4-3.1-1.5-3.8-3C263.4,382.3,263.1,380.9,262.7,379.5z M163.5,366.9
	c-0.1,3.3-2.8,7.3-5.9,8.5c-4.2,1.6-9-1.7-8.9-6.2c0.1-4.7,4-8.6,8.7-8.7c0.3,0,0.5,0,0.8,0C160.4,360.8,163.9,364.3,163.5,366.9z"
	/>
<path class="st0" d="M210.8,225.3c-0.8,1.7-1.5,3.4-2.3,5c-6.1,12.7-12.8,25-21.1,36.4c-0.9,1.3-1.9,2.6-2.9,3.9
	c-0.8,1-1.9,1.6-3.2,1.9c-3.8,0.7-7.5,1.7-11.4,2.4C183.9,258.8,196.9,241.7,210.8,225.3z M314.9,328.6c1.2,1.5,2.6,1.6,4.1,1.3
	c0.8-0.1,1.7-0.6,2.2,0.4c0.5,0.9-0.1,1.6-0.7,2.2c-0.5,0.6-1.1,1.3-1.6,1.9c-1.4,1.7-3.2,2.2-5.4,1.8c-4.7-1-8.6-6.4-8-11.1
	c0.2-1.8,0.7-2.3,2.3-2.5c15.5-2.1,30.4-6.7,45.3-11.4c1.1-0.4,2.2-0.6,3.3-1c0.1,0.1,0.1,0.3,0.2,0.4c-0.5,0.3-1.1,0.7-1.6,1
	c-10.8,6.4-22.2,11.3-34.1,15C319,327.2,317,327.9,314.9,328.6z M269.3,539.3c-3-0.9-5.1-3-7-5.4c0.6,3.1,2.5,5.4,5,7.4
	c-1.7-0.4-3.5-1.4-5.8-3.4c-1.7-1.5-3.3-3.1-4.8-4.5c0.3,2.4,1,3.4,5.1,7.5c-3.2,0.2-10-5.3-11.9-9.6c0.8-0.3,1.6-0.7,2.5-1
	c3.3-0.9,6.7-1.9,10.1-2.7c0.7-0.2,1.4-0.1,2.1,0c1.1,0.2,1.9,0.8,2,2c0.1,1,0.1,2,0.4,2.9C267.7,534.7,268.5,536.9,269.3,539.3z
	 M288.7,471.8c1.7-0.3,3.4-0.6,5.1-0.9c0.2,0.6,0.3,1.6-0.1,2.6c-0.5,1.1-1.5,1.6-1.9,1.8c-12,6.4-15,7.5-15,7.5
	c-10.4,3.9-10.8,4.6-16.3,6c-3.3,0.9-6,1.4-7.9,1.7c2.3-0.8,5.5-2,9.5-3.6c0,0,0.6-0.2,1.1-0.5c8.9-3.6,14.7-5.9,20.2-10.1
	C284.7,475.5,286.6,474,288.7,471.8z M319.4,489.7c0.4,0.1,0.9,0.1,1.2,0.3c1.6,1,3.3,2,4.8,3.3c1.1,1,2.1,2.1,3.6,2.6
	c0.4,0.1,0.7,0.3,1.2,0.6c-1.5,1.2-2.5,2-3.6,2.7c-0.3,0.2-1.1,0-1.4-0.2c-0.8-0.7-1.7-1.4-2.3-2.3c-1.4-2.1-2.5-4.3-3.8-6.5
	C319.1,490,319.3,489.9,319.4,489.7z M40.1,444.1c-4.1-1.5-5.1-7.5-0.6-11c1.3,0.8,1.8,2.1,1.8,3.4
	C41.2,439.1,40.8,441.6,40.1,444.1z"/>
<path d="M329.7,494.5c-1.3-0.3-2-1.3-3-2c-1.6-1.3-3.3-2.5-5-3.6c-1.5-1-3.2-0.9-5,0.2c1.3,2.5,2.4,4.9,3.8,7.1
	c0.9,1.5,2.1,2.8,3.4,4c1.2,1.2,2.6,1.1,3.7,0.3c0.8-0.6,1.6-1.2,2.5-1.8c0.8-0.5,1.2-1.2,1.1-2.1
	C331.1,495.6,330.7,494.7,329.7,494.5z M326.5,499.2c-0.3,0.2-1.1,0-1.4-0.2c-0.8-0.7-1.7-1.4-2.3-2.3c-1.3-2.1-2.5-4.3-3.8-6.5
	c0.1-0.1,0.2-0.3,0.3-0.4c0.4,0.1,0.9,0.1,1.2,0.3c1.6,1,3.3,2,4.8,3.3c1.1,1,2.1,2.1,3.6,2.6c0.4,0.1,0.7,0.3,1.2,0.6
	C328.6,497.6,327.6,498.5,326.5,499.2z M363.3,500.3c0.8,1,0.5,2.1-0.6,2.5c-2.1,0.8-3.6,2.4-5.5,3.6c-1.5,0.9-2.9,1.8-4.6,2.9
	c0.6-1.8,1.3-2.6,3.8-4.4c1.5-1.1,3.2-2,4.5-3.7c-0.8-0.5-1.4-1-2.1-1.3c-1.2-0.6-2.5-1.1-3.6-1.8c-1.9-1.2-2-2.4-0.8-4.2
	c0.9-1.3,1.8-2.7,2.5-4.1c0.7-1.8,0.2-2.4-1.7-2.8c-2.1-0.4-4.2-0.8-6.3-1.2c-2.1-0.4-3.3-1.7-3.6-3.8c-0.2-1.4-0.3-2.8-0.5-4.2
	c-0.3-2.1-1.1-2.6-3-1.7c-1.6,0.8-3.2,1.7-4.8,2.5c-0.4,0.2-0.8,0.5-1.2,0.7c-1.6,0.8-2.3,0.4-2.5-1.3c-0.2-1.9-0.3-3.7-0.5-5.6
	c-0.1-0.8-0.1-1.7-0.2-2.5c-0.3-1.9-1.1-2.4-2.8-1.5c-1.8,1-3.5,2.2-5,3.5c-1.7,1.5-3.1,3.4-4.7,5.2c-0.7,0.8-1.3,1.7-2.8,1.4
	c3-4.6,6.2-8.7,10.9-11.3c0.7-0.4,1.5-0.8,2.3-1c2.4-0.8,3.6-0.1,3.8,2.5c0.2,1.9,0.3,3.9,0.5,5.8c0.1,0.9,0.3,1.8,0.4,2.9
	c1.3-0.6,2.5-1.2,3.6-1.7c1.5-0.6,3-1.3,4.5-1.6c2.1-0.4,2.8,0.3,3.2,2.4c0.2,1.3,0.2,2.7,0.5,4c0.4,2.8,1.1,3.5,3.9,4.1
	c1.9,0.4,3.8,0.7,5.7,1.1c2.5,0.6,3,1.6,2,3.9c-0.5,1.3-1.3,2.5-1.8,3.9c-1,2.6-0.4,4,2.3,4.9c0.7,0.3,1.5,0.3,2.2,0.7
	C362,499.2,362.8,499.6,363.3,500.3z M180.6,430.5c-1.5,9.4-1.3,18.5,0.8,27.3c1.6,6.8,3.7,11.8,5,14.3c5.9,11.4,14,17.2,17.9,18.5
	c1.2,0.4,2.6,0.8,2.6,0.8l0,0c1.9-0.3,6.4-0.9,10.8-3.6c4.4-2.7,6.9-6,8.8-9.1c3.4-5.6,5.6-11.7,6.7-18.1c2.8-16.1-2-30.1-12.5-42.3
	c-1.8-2.1-4.2-3.8-6.3-5.7c-1.4-1.2-2.9-2.3-4.4-3.5c-4.4-3.5-9.2-4-14.1-1.6c-2.8,1.4-5.3,3.3-7.8,5.1c-2.2,1.6-4.3,3.4-6.4,5.1
	c-2,1.6-2.6,3.2-1.5,5.7C181.1,425.8,181,428.1,180.6,430.5z M231.8,455.8c-0.4,9.4-3.4,17.8-9,25.3c-3.4,4.5-7.9,7.1-13.3,8.4
	c-2,0.5-4.1,0.3-6.2-0.8c-4.9-2.8-8.7-6.7-11.7-11.3c-2.8-4.2-4.9-8.8-6.9-13.4c-2.9-6.9-1.6-13.3,2.9-19.1c0.2-0.3,0.4-0.5,0.6-0.7
	c4.5-3.3,9.2-6.3,14.8-7.1c8.9-1.3,16.6,1.3,22.7,7.9c1.8,2,3.5,4.1,5.2,6.3c0.4,0.5,0.6,1.1,0.6,1.7
	C231.9,453.9,231.8,454.8,231.8,455.8z M229.7,437.6c1,3.5,2,7.1,2.2,10.8c0,0.5,0,1,0,1.4c-0.2,0.1-0.3,0.3-0.5,0.4
	c-0.2-0.4-0.4-0.8-0.6-1.1c-1.3-1.5-2.6-3.1-3.9-4.6c-7.2-8.4-19.8-11.2-30.2-6.5c-2.2,1-4.3,2.3-6.7,3.5c0.3-0.6,0.5-1,0.8-1.4
	c3.7-5.5,8.4-9.8,14.4-12.9s11.7-2.4,17.3,1C226.1,430.3,228.5,433.4,229.7,437.6z M181.3,441.2c0.1-5,0.5-9.9,0.7-14.9
	c0.2-4.5,2.2-8.1,5.6-10.8c2.7-2.1,5.6-4.1,8.6-5.9c3.5-2.2,7.2-2.1,10.8,0c3,1.7,5.8,3.6,8.2,6.1c2.7,2.9,5.2,5.9,7.8,8.9
	c0.3,0.3,0.5,0.7,0.5,1.3c-0.7-0.3-1.4-0.6-2-1c-6.6-3.7-12.9-3.2-19.2,0.8c-6.7,4.3-12.1,9.8-16.1,16.7c-1.3,2.3-2.6,4.5-4,6.8
	C181.4,446.6,181.3,443.9,181.3,441.2z M306.1,484.7c1.5,0.4,2.9,1,4.5,1.6c-1.1,0.9-2.1,0.7-3.1,0.5c-1.1-0.2-2.1-0.5-3.2-0.7
	c-0.9-0.2-1.8-0.1-2.4,0.8c-0.5,0.8,0,1.5,0.4,2.1c1.2,2,2.3,4,3.7,6.4c-0.7-0.4-1.1-0.5-1.4-0.7c-1.9-1.3-3.4-2.9-4.4-5
	c-1.4-2.9-0.1-5.2,3.2-5.4C304.2,484.3,305.2,484.5,306.1,484.7z M41,427c-1.9,0.2-2.5,1-1.9,2.8c0.1,0.3,0.2,0.6,0.3,0.8
	c-6.3,6.4-5.8,12.9,1.3,15.7c1.5-1.2,2-2.8,2.3-4.5c0.8-3.8,0.1-7.3-1.4-10.8c-0.3-0.6-0.5-1.3-0.8-2.1c2.9-0.4,5.5,1.6,8.5,0.1
	c-2.2-0.8-4-1.5-6-2C42.6,426.9,41.8,426.9,41,427z M41.2,436.5c0,2.6-0.4,5.1-1.1,7.6c-4.1-1.5-5.1-7.5-0.6-11
	C40.8,433.9,41.2,435.2,41.2,436.5z M152.6,388.2c8.1-1.3,13.4-8.5,14.8-14.2c0.6-2.5,0.2-4.8-1-6.9c-1-1.7-2.1-3.4-3.3-5
	c-3.4-4.2-6.9-8.3-10.4-12.5c-0.3-0.4-0.7-0.7-1.3-1.4c0.2,3.8,0.2,3.8-3.1,4.8c-0.4,0.1-0.9,0.2-1.3,0.4c-3.2,1.1-6.2,2.7-8.4,5.3
	c-4.7,5.3-5.5,11.5-3.8,18.1C136.8,384.9,144.3,389.6,152.6,388.2z M157.4,360.4c0.3,0,0.5,0,0.8,0c2.2,0.3,5.7,3.9,5.3,6.4
	c0,3.3-2.8,7.3-5.8,8.5c-4.2,1.6-9-1.7-8.9-6.2C148.8,364.4,152.8,360.5,157.4,360.4z M256,383.4c-0.2,0.9-0.4,1.8-0.2,2.7
	c1.5,9.2,6.9,15,15.8,17.2c2.5,0.6,5,0.6,7.5-0.1c3.8-1,6.9-3.3,9.7-6.1c1.9-1.8,3.1-4,3.7-6.4c2.5-9.1-1.4-18.6-9.5-23.3
	c-0.7-0.4-1.4-0.8-2.1-1.2c0.7-1.6,3.1-1.5,3.4-3.3c-0.8-0.9-1.5-0.3-2.1,0c-8.3,4.5-16.6,8.9-24.9,13.4c-0.6,0.3-1.1,0.8-1.8,1.3
	C256.8,379.5,256.5,381.5,256,383.4z M263.6,376.7c1.7-2.8,4.1-4.8,7.1-6c1.8-0.7,3.4-0.3,4.8,1c2.6,2.7,3.7,5.8,3,9.5
	c-0.5,2.3-1.9,3.9-4.1,4.8s-4.4,1-6.6,0.5c-1.7-0.4-3.1-1.5-3.8-3c-0.6-1.3-0.9-2.7-1.3-4C263,378.5,263.1,377.5,263.6,376.7z
	 M698.3,191c-6.7-0.5-13.4-1-20.1-1.4c-8.3-0.5-16.6-0.9-24.9-1.3c-6.1-0.3-12.3-0.4-18.4-0.5c-8.1-0.2-16.1-0.3-24.2-0.4
	c-9.3,0-18.6,0.1-27.9,0.2c-7,0.1-13.9,0.2-20.9,0.4c-10.5,0.2-20.8,1.6-31.2,3c-8,1.1-16.1,2.3-24.2,3.3
	c-9.9,1.3-19.8,2.4-29.8,3.6c-1.5,0.2-3.1,0.4-4.6,0.7c-0.7,0.2-1.5,0.7-1.7,1.3c-0.5,1.4-0.8,3-0.9,4.5c-0.3,5.3-0.5,10.6-0.8,15.9
	c-1,15.2-1.9,30.4-3,45.6c-0.9,12.8-1.9,25.5-2.9,38.2c-0.2,2.9-0.5,5.8-0.8,8.9c-15,4.1-29.9,8.3-45,12.4
	c6.3,22.5,11.8,45,16.6,67.6c-0.8,0.3-1.4,0.6-2,0.8c-5.4,2.2-10.8,4.3-16.2,6.4c-1.4,0.5-2.2,1.5-2.2,2.8c0,1.4,0,2.9,0.3,4.2
	c1.8,6.8,4.7,13.1,7.7,19.4c1.8,3.8,3.4,7.7,4.9,11.6c0.4,1,0.5,2.3,0.7,3.4c0.1,0.8-0.3,1.3-1.2,1.4c-1.3,0.2-2.5,0.6-3.8,0.9
	c-1.6,0.4-2.2,0.1-2.8-1.5c-0.2-0.5-0.3-1.1-0.4-1.7c-0.4-1.9-0.8-3.8-1.3-5.7c-2.6-9.3-5.3-18.5-7.9-27.7c-0.9-3.1-1.5-6.3-2.7-9.3
	c-4.4-10.8-11-20.1-20-27.7c-4.8-4.1-10-7.5-15.4-10.7c-11.9-7.1-24.3-13.2-36.8-19c-1.5-0.7-3.1-1.4-4.6-2.1
	c-1.2-0.6-2.3-1.4-2.4-2.8c-0.1-2.2,0-4.4,0-6.5c5.1-2.6,10-5.1,15-7.6c6.9-3.6,14-7,20.7-11c19.6-11.7,37.2-26.1,52.8-42.8
	c8.6-9.2,16.4-19,22.7-29.8c4.2-7.3,8-14.7,11.9-22.2c1.7-3.2,3.2-6.5,4.6-9.8c1-2.4,0-3.8-2.5-4c-1.3-0.1-2.8-0.1-4,0.1
	c-3.6,0.8-7.2,1.6-10.7,2.7c-13.4,4.5-26.3,10.4-39,16.6c-24.5,12-47.5,26.4-69.5,42.3c-11,7.9-21.2,16.7-31.7,25.2
	c-0.5,0.4-1.1,0.9-1.6,1.3c-0.4-0.3-0.8-0.4-1.1-0.6c-7.9-4.6-16-8.6-24.4-12.2c-15-6.4-30.6-9.8-46.8-10.1c-10.7-0.2-21.4,0.2-32,2
	c-0.6,0.1-1.3,0.1-2.2,0.2c0.4-0.7,0.6-1.1,0.9-1.5c9-14.7,17.3-29.8,24.8-45.3c6.2-12.9,12-26,17-39.5c5.2-14,10.1-28,15.2-42
	c2-5.5,3.9-10.9,4.8-16.7c0.2-1.6,0.3-3.2,0.3-4.8c-0.1-1.8-1-2.4-2.8-2.1c-0.8,0.1-1.5,0.3-2.2,0.6c-7.2,2.6-14,5.9-20.5,10.1
	c-14.4,9.2-26.8,20.6-37.7,33.7c-13.3,15.9-24.4,33.3-33.6,51.9c-11.5,23.2-18.9,47.7-21.8,73.5c-1.2,10.5-4.4,20.4-9.6,29.6
	c-1.6,2.8-2.8,5.8-4,8.8c-2.3,6.3-3,12.9-3.9,19.5c-1.2,9.2-2.8,18.2-5.1,27.2c-1.8,6.6-4,13-6.8,19.3c-1.2,2.9-3,4.4-6.2,4.7
	c-3,0.3-5.9,0.9-8.8,1.5c-14.2,2.9-27.4,8.3-39.7,15.9c-2.3,1.5-4.8,2.7-7.4,3.8c-3.2,1.3-6.5,1.2-9.6-0.3c-1.7-0.8-3.5-1.2-5.4-1.5
	c-2-0.4-3.5,0.6-4.2,2.5c-0.6,1.7-0.1,3.2,0.7,4.6c0.4,0.8,1,1.5,1.3,2.4c0.8,1.8,0.4,3.3-1.2,4.5c-0.7,0.5-1.6,0.9-2.3,1.4
	c-1,0.8-2.1,1.5-2.9,2.5c-1.7,2.1-1.4,4,0.8,5.6c2.5,1.8,2.5,2.4,0.4,4.7c-0.3,0.4-0.7,0.7-1,1.2c-0.4,0.5-0.8,1.1-1,1.6
	c-0.7,1.7-0.3,2.8,1.4,3.6c0.7,0.3,1.4,0.6,2.1,1c2.2,1.3,2.9,3.1,2.4,5.6c-0.2,0.9-0.6,1.7-0.8,2.6c-0.3,1.2-0.7,2.4-0.8,3.6
	c-0.3,2.7,1.1,4.2,3.8,4.1c1.3-0.1,2.6-0.3,3.8-0.7c1.8-0.6,3.6-1.4,5.3-2.2c2-0.9,3.8-0.7,5.4,0.6c0.4,0.3,0.8,0.7,1.2,1
	c3.1,2.5,6.5,4.7,10.2,6.3c20.5,9.3,42,15.1,64.4,17.4c10.3,1.1,20.7,1.3,31.1,0.9c4.4-0.2,8.9-0.5,13.3-0.4
	c6.4,0.2,12.2,2.5,16.6,7.3c3.9,4.2,7.6,8.7,11.3,13c2.5,2.9,5,6,7.7,8.7c6.5,6.4,14.2,10.9,23.2,13c7.9,1.9,15.8,1.7,23.6,0.2
	c2.6-0.5,4.3,0.3,5.8,2.4c3.7,5,8.6,8.1,14.5,9.7c2.6,0.7,5.3,0.5,7.5-1.3c2-1.7,2.5-3.5,0.7-5.6c-0.9-1.1-1.7-2.3-2.3-3.5
	c-1-2.1-1.4-4.4-1-6.7c6.3-1,12.6-1.1,18.8-0.3c8.8,1.1,16.9,3.9,24.7,8c11.5,6,23,12,34.6,17.9c7.2,3.7,14.7,6.6,22.9,7.5
	c2.1,0.2,3.1,1.2,3.7,3.2c2.5,9.3,6.6,18,10.7,26.7c1.9,4.1,4.8,7.7,8.4,10.5c3,2.4,6.1,2.3,9-0.3c2.4-2.1,4-4.8,4.5-7.9
	c0.5-3.9,1-7.8,1.1-11.7c0.5-9.4-0.4-18.8-1.3-28.2c-0.2-2.3,0.3-4,1.9-5.6c4.1-4,7.2-8.6,9.6-13.8c4.7-10,6.8-20.7,7.7-31.6
	c0.9-11.4,0.3-22.7-0.6-34c-0.1-1-0.1-1.9-0.1-2.9c0-1.1,0.6-1.8,1.6-2.2c0.5-0.2,1-0.3,1.5-0.4c7.3-1.5,14.5-3,21.8-4.4
	c4.2-0.8,5.1-2.3,4-6.4c-2-7.3-4-14.5-6-21.8c-0.5-2-1.2-4-1.6-6c-0.4-1.9,0.2-2.6,2-3c0.3-0.1,0.6-0.1,1-0.2
	c3.5-0.6,7-1.2,10.5-1.7c2.4-0.4,4.7-0.7,7.1-1.1c2.5-0.5,3.4-1.6,3.4-4.2c0-0.8-0.1-1.5-0.1-2.3c-0.6-7.8-1.2-15.7-1.8-23.5
	c-0.5-6.5-0.9-13-1.4-19.5c-0.2-2.5-0.4-5-0.5-7.5c-0.2-3.1,0.5-4,3.6-4.8c0.2,0,0.4-0.1,0.6-0.1c2.8-0.7,5.7-1.3,8.5-2
	c6.1-1.5,12.3-3.1,18.4-4.5c2.9-0.7,4.6-2.4,5.2-5.3c0.1-0.3,0.1-0.6,0.2-0.9c3.5-16.7,7-33.5,10.6-50.2c0.5-2.5,1.3-3.1,3.8-3.1
	c2.7,0,5.3-0.1,7.9-0.1c10.8-0.1,21.6-0.3,32.3-0.4c11.9,0,23.8,0.3,35.6,1c8.6,0.5,17.3,1.1,25.9,1.7c8.8,0.7,17.5,1.4,26.2,2.1
	c2.1,0.2,4.1,0.3,6.2,0.4c2.2,0.1,3.9-0.8,5.2-2.5c0.5-0.7,1-1.4,1.4-2.1c10.9-19.7,21.5-39.6,31.1-60c4-8.6,7.9-17.3,10.9-26.3
	c1.3-3.8,2.1-7.7,2.8-11.8C700.7,191.2,699.5,191.1,698.3,191z M425.5,401.5c2-0.7,4.1-1.4,6.1-2c0.4-0.1,0.9-0.2,1.3-0.3
	c4.2-1.1,5.3-3.1,4.3-7.3c-0.9-3.8-1.7-7.5-2.7-11.3c-0.2-0.9-0.1-1.6,0.3-2.4c0.5-1,0.8-2.2,1.2-3.2c0.2-0.5,0.4-0.9,0.6-1.6
	c0.4,0.4,0.7,0.6,0.9,0.9c0.6,1.3,1.2,2.5,2.4,3.5c0.3,0.3,0.4,0.8,0.5,1.2c1,2.9,1.8,5.8,2.9,8.6c2.7,7.6,5.5,15.1,8.3,22.7
	c0.2,0.5,0.3,1.1,0.6,2c-8.8-4.4-17.9-7-26.7-10.4C425.5,401.8,425.5,401.6,425.5,401.5z M400.6,393.6c5.2,11.6,9.3,23.6,11.5,36.2
	c1.1,6.7,1.3,13.4-1.1,19.9c-0.5,1.5-1.2,3-1.9,4.4c-0.2,0.4-0.9,1-1.3,0.9c-0.4,0-0.9-0.7-1-1.2c-0.5-2.3-0.9-4.7-1.1-7.1
	c-0.9-7.5-1.5-15-2.4-22.5c-1.3-10.7-2.9-21.4-6.2-31.7c-0.8-2.5-1.8-5-2.8-7.4c-0.2-0.6-0.5-1.2-0.7-1.7
	C396.6,386.4,399,389.8,400.6,393.6z M336.2,345.1c1.7,0.9,3.4,1.7,5.2,2.5c6.3,3.2,12.6,6.4,19,9.5c2.8,1.4,5,3.2,6.7,5.9
	c8.7,13.6,15.7,28,20.4,43.5c2,6.4,3,13,3.9,19.5c0.4,2.5-0.1,5-1,7.4c-0.6,1.5-1.4,1.7-2.5,0.6s-2.2-2.4-2.9-3.8
	c-4.2-8.4-8.3-16.8-12.5-25.1c-6.3-12.7-12.4-25.5-20.1-37.5c-4.4-6.8-9.1-13.5-14.3-19.7c-0.7-0.8-1.5-1.6-2.2-2.4
	C336,345.3,336.1,345.2,336.2,345.1z M355.1,311.6c-10.8,6.4-22.2,11.3-34.1,15c-2,0.6-4,1.3-6.1,2c1.2,1.5,2.6,1.6,4.2,1.3
	c0.8-0.1,1.7-0.6,2.2,0.4c0.5,0.9-0.1,1.6-0.7,2.2c-0.5,0.6-1.1,1.3-1.6,1.9c-1.4,1.7-3.2,2.2-5.4,1.8c-4.7-1-8.6-6.4-8-11.1
	c0.2-1.8,0.7-2.3,2.3-2.5c15.5-2.1,30.4-6.7,45.3-11.4c1.1-0.4,2.2-0.6,3.3-1c0.1,0.1,0.1,0.3,0.2,0.4
	C356.2,310.9,355.7,311.3,355.1,311.6z M208.4,230.3c-6.1,12.7-12.8,25-21.1,36.4c-1,1.3-1.9,2.6-2.9,3.8c-0.8,1-1.9,1.6-3.2,1.9
	c-3.8,0.7-7.5,1.7-11.4,2.4c14.2-16.1,27.1-33.1,41-49.6C210,227,209.2,228.6,208.4,230.3z M105.9,398.8c0.8-1.7,1.7-3.5,2.5-5.3
	c4.9-10.8,8-22.2,10-33.9c0.9-5.5,1.5-11.1,2.3-16.7c1.5-10.4,4.8-20.2,10-29.3c2-3.4,3.9-6.9,5.6-10.4c1.8-3.7,4.4-6.7,7.3-9.4
	c0.9-0.8,1.9-1.6,2.9-2.5c-0.3-0.4-0.5-0.8-0.7-1.2c-0.3,0.1-0.6,0.2-0.8,0.3c-3,2.2-5.5,4.9-7.8,7.8c-0.4,0.5-0.9,1-1.3,1.5
	c-0.2-0.1-0.3-0.1-0.4-0.2c0-1.2-0.1-2.4,0-3.5c0.6-4.2,1.2-8.3,1.9-12.4c3-18.7,7.9-36.8,14.9-54.4c10.8-26.8,26-50.7,45.6-71.9
	c2.1-2.3,4.3-4.5,6.4-6.7c0.2-0.2,0.5-0.5,0.7-0.7c1.5-1.3,2-1.3,3,0.5c2.3,4.3,4.5,8.7,6.5,13.2c3.9,8.9,6.5,18.2,7.7,27.9
	c0.2,1.5,0.3,3,0.5,4.4c0.3,2.4-0.2,4.7-1.3,6.9c-7,15.3-4.2,10.3-14.5,24.1c-4.9,6.6-10.3,12.9-15.6,19.3
	c-6.7,8.1-13.4,16.2-20.2,24.3c-1.7,2-3.5,3.8-5.3,5.6c-0.8,0.8-1.8,1.2-2.7,1.8c-0.8,0.5-1.7,0.9-2.5,1.5c-0.2,0.1-0.3,0.6-0.2,0.9
	c0.1,0.2,0.5,0.5,0.7,0.5c0.7-0.1,1.4-0.2,2.1-0.4c5.2-1.4,10.3-3,15.5-4.3c6.9-1.7,14-2.5,21-3c6.8-0.5,13.5-1.1,20.3-1
	c18.8,0.3,37.1,3.5,54.4,11.3c6.1,2.8,11.8,6.3,17.5,9.9c0.9,0.6,1.8,1.2,2.2,2.3c-1,1.2-1.9,2.4-2.8,3.6c-0.2,0.3,0,0.8,0,1.2
	c1.8,0.7,2.4,0.5,3.4-0.5c3.1-3.2,6.1-6.5,9.3-9.6c12.5-12,25.8-23.1,40-33c19.6-13.7,40.4-25.2,62.3-34.7c3-1.3,3.3-1.1,3.7,2.2
	c0.8,6.5,0.4,12.9-0.6,19.3c-1.1,6.7-2.3,13.3-3.8,19.9c-1.3,5.7-3.8,11-6.2,16.3c-0.3,0.8-1,1.6-1.6,2.1
	c-10.5,7.9-20.9,15.8-32.2,22.5c-1.3,0.8-2.8,1.4-4.2,1.9c-9.2,2.9-18.5,5.7-27.8,8.5c-8.2,2.4-16.6,4.3-25.1,5.4
	c-0.4,0.1-0.9,0.2-1.3,0.2c-1.4,0.2-2.2,1-2.6,2.2c-0.7,1.9-0.6,3.8-0.1,5.7c1.3,4.6,5.3,8.3,9.6,8.8c2.6,0.3,4.7-0.5,6.4-2.5
	c0.5-0.5,0.9-1.1,1.5-1.7c0.3,0.5,0.5,0.9,0.6,1.3c0.8,2,1.8,3.9,2.4,5.9s1,4.1,1.3,6.2c1.2,7.6,2.3,15.2,3.3,22.8
	c0.4,3.3,0.6,6.6,0.6,9.8c0,7,0,14-0.5,20.9c-0.8,10.7-3,21.2-8.1,30.9c-0.8,1.5-1.6,3.1-2.5,4.5c-0.3,0.5-0.9,0.7-1.7,1.4
	c-0.1-1.3-0.2-2.1-0.2-2.9c-0.3-5.1-2-9.7-5.8-13.1c-4.6-4.2-10-4.6-15.8-3.1c-1.3,0.3-2.6,0.8-3.8,1.5
	c-9.7,5.7-16.9,13.5-19.9,24.6c-1.2,4.6-1.7,9.3-1.1,14c0.3,2.2,0.9,4.1,2,5.7c1.3,2,3.1,3.2,4.1,3.9c1.4,1,2.7,1.5,3.6,1.9
	c1.6,0.7,4.1,1.5,7.3,1.9c-0.7,0.6-1.8,1.5-3.3,2.7c-1.7,1.3-7.7,5.9-24.6,12.2c-2.5,0.9-5,1.7-7.5,2.7c-4.7,2-9.6,2.8-14.6,3.4
	c-8.5,1.1-15.2,1.3-18.3,1.2c-1.8,0-3.6-0.2-5.3-0.3c-0.4,0-1.4-0.1-3.7-0.4c-1.6-0.2-3.2-0.4-4.6-0.7c-0.3,0-0.5-0.1-0.8-0.1
	c-0.1,0-0.2,0-0.3-0.1l0,0c-7.3-1.3-13.4-3.1-17.6-4.4c-6.5-2-11.2-3.9-12.4-4.3c0,0-25.4-10-49.7-34c-1.2-1.2-2.1-2.7-1.8-3.5
	c0.1-0.2,0.3-0.4,0.3-0.4c0.5-0.5,1.3-0.3,2-0.4c5.1-0.9,8.3-3.9,10.1-8.6c1.4-3.7,1.7-7.5,2-11.4c0.4-5.4,0.1-10.7-1.9-15.8
	c-0.8-2.1-1.8-4.1-3-6.1c-3-4.9-7.5-7.4-13.3-7.9c-4.5-0.4-8.3,0.8-11.6,3.9c-0.4,0.3-0.8,0.6-1.2,0.9c-0.2,0.1-0.4,0.1-0.6,0.1
	C105.3,399.9,105.7,399.4,105.9,398.8z M291.2,469.7c-1.8,0.7-3.4,0.7-4.3,0.6c-1.5,0-7.1-0.1-11.3-4.4c-3-3.1-3.8-6.6-4.1-9
	c-0.7-7.1,1.3-13.6,4.5-19.7c3.7-7.2,9.5-12.5,16.5-16.5c4.5-2.5,13.2-2.9,17.9,1.5c3.9,3.7,5.3,8.3,5.2,13.5c0,2.6-1,4.6-3,6.4
	c-7.1,6.3-12.5,13.9-16,22.7c-0.2,0.5-0.8,1.7-2.1,2.9C293.1,468.9,291.7,469.5,291.2,469.7z M293.6,473.6c-0.5,1.1-1.5,1.6-1.9,1.8
	c-12,6.4-15,7.5-15,7.5c-10.4,3.9-10.8,4.6-16.3,6c-3.3,0.9-6,1.4-7.9,1.7c2.3-0.8,5.5-2,9.5-3.6c0,0,0.6-0.2,1.1-0.5
	c8.9-3.6,14.7-5.9,20.2-10.1c1.3-1,3.2-2.5,5.3-4.7c1.7-0.3,3.4-0.6,5.1-0.9C293.9,471.6,294.1,472.6,293.6,473.6z M109.2,400.1
	c2.6-2.7,5.4-3.8,8.4-3.8c5.3-0.1,8.7,2,11.7,5.1c3.7,3.9,5.5,8.7,6.6,13.8c1.3,6.1,0.9,12.2-0.7,18.2c-0.7,2.8-2,5.3-3.9,7.5
	c-4.1,4.5-10.3,4.4-13.8-0.5c-5.5-7.7-10-15.9-12.3-25.2C103.6,409.2,105.1,404.3,109.2,400.1z M56.8,470c-4.6-1.8-8.8-4.3-12.7-7.3
	c-0.9-0.7-1.9-1.4-2.8-2.1c-1.7-1.3-3.5-1.5-5.4-0.3c-2.5,1.6-5.4,2.1-8.2,2.6c-0.1,0-0.2-0.1-0.6-0.3c0.3-1.4,0.6-2.8,1-4.2
	c0.3-1.4,0.8-2.7,1.1-4.1c0.6-2.6-0.4-4.1-2.9-4.8c-1.1-0.3-2.1-0.6-3.2-0.9c-0.2-0.1-0.4-0.3-0.7-0.5c1-1.7,2.4-2.9,3.8-4.1
	c0.2-0.2,0.4-0.3,0.6-0.4c1.7-1.4,1.7-2.7,0-4.1c-0.8-0.6-1.6-1.1-2.4-1.7c-0.7-0.5-1.3-1.1-2.3-1.9c1.5-0.8,2.6-1.4,3.7-2
	c1-0.5,2-1,2.9-1.6c1.9-1.4,2.4-3.3,1.5-5.5c-0.3-0.8-0.8-1.5-1.2-2.2c-0.6-1.2-1.1-2.4-1.8-4c1.1,0.1,1.9,0.1,2.6,0.3
	c3.9,0.8,7.5,2.3,11.1,3.9c1.3,0.6,2.6,1.1,4.1,1.4c-0.4-0.5-0.7-1.1-1.1-1.7c-1.3-1.9-1.2-2.4,0.7-3.5c4-2.4,8-4.8,12-7
	c11.4-6.2,23.4-10.8,36.2-13.3c2.8-0.6,5.7-1,8.6-1.4c2.1-0.3,2.6,0.3,2.4,2.4c-0.1,1-0.3,1.9-0.4,2.9c-1,7.2,0.3,14,3.5,20.5
	c4.5,9.3,10.3,17.6,17.3,25.1c2.8,3,5.9,5.7,8.9,8.6c0.5,0.4,0.9,0.8,1.4,1.3c-0.4,1.1-1.2,1.8-2,2.4c-1.9,1.6-4.3,2.4-6.6,3
	c-8.9,2.5-17.9,4.5-27,5.5c-5.3,0.5-10.5,0.8-15.8,1.1c-5.8,0.4-11.4-0.4-17.1-1.2c-2.2-0.3-4.5-0.3-6.8-0.4
	C58.4,470.4,57.5,470.3,56.8,470z M269.3,539.3c-3-0.9-5.1-3-7-5.4c0.6,3.1,2.5,5.4,5,7.4c-1.7-0.4-3.5-1.4-5.8-3.4
	c-1.7-1.5-3.3-3.1-4.8-4.5c0.3,2.4,1,3.4,5.1,7.5c-3.2,0.2-10-5.3-11.9-9.6c0.8-0.3,1.6-0.7,2.5-1c3.3-0.9,6.7-1.9,10.1-2.7
	c0.7-0.2,1.4-0.1,2.1,0c1.1,0.2,1.9,0.8,2,2c0.1,1,0.1,2,0.4,2.9C267.7,534.7,268.5,536.9,269.3,539.3z M402.1,592.9
	c-0.1,0.7-0.5,1.3-0.8,2c-0.2,0-0.4-0.1-0.6-0.1c-1-2.4-1.3-5-1.8-7.5c-0.5-2.8-1-5.6-1.5-8.4c-0.2-0.9-0.5-1.7-1.2-2.6
	c-0.1,0.8-0.2,1.7-0.2,2.5c0,5.7,0.8,11.2,3.1,16.4c0.2,0.4,0.5,0.8,0.4,1.1c-0.1,0.6-0.3,1.5-0.8,1.8c-0.7,0.5-1.5,0.2-2-0.6
	c-0.4-0.7-0.7-1.4-0.9-2.1c-1.4-4.7-2.7-9.4-4-14.1c-0.3-1.1-0.5-2.2-2-3.2c0.2,1.8,0.1,3.2,0.5,4.5c0.7,2.7,1.5,5.3,2.3,8
	c0.6,2,1.3,4.1,1.9,6.1c0.1,0.3,0.1,0.7,0.2,1.4c-0.6-0.5-1-0.8-1.3-1.2c-3.8-4.1-6.8-8.7-8.9-13.8c-3.3-8-6.3-16.1-9.5-24.3
	c2-0.7,3.8-0.9,5.6-1.2c3.4-0.6,6.7-1.1,10.1-1.9c3.1-0.7,5.9-2.2,8.5-4c2.1-1.5,2.8-1.2,3.2,1.4
	C404.7,566.3,404.5,579.6,402.1,592.9z M418.7,515.7c-1.6,7.2-4.1,14.1-7.8,20.5c-5.7,10-14.5,15.9-25.6,18.5
	c-9.5,2.3-18.8,1.2-28-2.1c-8.7-3.1-16.8-7.2-24.8-11.8c-5.1-2.9-10.2-5.9-15.4-8.6c-9.8-5.2-20.1-8.7-31.2-10
	c-9.3-1-18.6-0.4-27.6,2.5c-8.2,2.6-16.5,4.4-25.1,4.3c-12.4-0.1-23.5-3.8-32.7-12.3c-2.3-2.1-4.4-4.5-6.5-6.9
	c-5.7-6.8-11.6-13.4-18.5-18.9c-3.1-2.5-6.4-4.6-9.6-6.8c-0.3-0.2-0.7-0.4-1-0.5c-1.1-0.4-1.8,0.1-1.9,1.2c-0.1,0.5,0,1,0,1.8
	c-5.4,0.2-10.7,0.7-15.9,0.6c-6.6-0.1-13.1-0.6-19.7-1.2c-5.9-0.5-11.8-1.2-17.7-1.7c-10.7-0.9-21.1-2.9-31.3-6
	c-5.2-1.6-10.3-3.5-15.4-5.3c-0.4-0.1-0.8-0.3-1.2-0.6c1.3-0.3,2.6-0.1,3.9,0c3.7,0.4,7.3,1,11,1.1c4.5,0.1,9,0,13.5-0.3
	c12.2-0.7,24.2-3,36-6.2c3.6-1,7-2.4,9.4-5.7c0.7,0.5,1.4,0.8,2,1.3c17.1,14,36.3,24,57.9,29.4c10.9,2.7,22,4,33.2,3.4
	c17.5-0.9,34.2-4.9,50.1-12.2c3.9-1.8,7.7-3.9,11.6-5.8c0.8-0.4,1.6-0.6,2.8-1c0,1,0,1.6,0,2.2c-0.1,2.1-0.4,4.1-0.4,6.2
	c-0.1,9.8,3.5,18.3,9.9,25.6c5,5.6,11.3,9.1,18.3,11.5c5,1.7,10.1,2.7,15.4,2.8c8.7,0.1,16.5-2.5,23.6-7.5
	c4.5-3.2,8.5-6.9,11.9-11.3c0.2-0.2,0.4-0.4,0.7-0.7c0.4,0.4,0.8,0.8,1.1,1.3c6.2,8.2,12.5,16.3,18.7,24.4c0.6,0.8,1.3,1.6,2,2.3
	c2.6,2.4,5.7,2.8,8.7,1.1c1.3-0.8,2.6-1.8,3.6-2.9c4.4-4.9,8.4-10,11.3-15.9c0.1-0.2,0.3-0.4,0.6-0.9
	C418.7,515.2,418.8,515.5,418.7,515.7z M421.8,494.6c-0.2,3.7-0.4,7.5-1.5,11.1c-1.6,5.4-3.8,10.7-7.2,15.3c-2.4,3.3-5,6.4-7.6,9.5
	c-0.8,1-1.9,1.8-3,2.4c-2.2,1.3-4.5,1.1-6.5-0.6c-0.7-0.6-1.3-1.3-1.9-2c-6.5-8.5-13-17-19.6-25.5c-0.7-1-0.8-1.8-0.2-2.8
	c0.7-1.2,1.3-2.4,2-3.6c5.3-10.4,6.6-21.2,3.3-32.5c-0.8-2.6-2-5-3.1-7.5c-0.9-1.8-1.9-3.5-3-5.3c-0.4,0.2-0.8,0.3-1.2,0.5
	c0,0.3,0,0.5,0.1,0.6c0.6,1.2,1.2,2.3,1.8,3.4c5.6,9.6,7.2,19.9,4.3,30.6c-4.4,16-14.5,27.1-30.2,32.8c-6.5,2.4-13.3,2.4-20.1,0.9
	c-7-1.5-13.7-3.9-19.3-8.4c-10.5-8.4-15.5-19.4-14.2-33c0.2-1.6,0-3.2,0.1-4.8c0-0.8,0.1-1.7,0.3-2.5c2.7-12.1,9.2-22,18.4-30.3
	c4.8-4.3,10-7.9,16-10.3c0.5-0.2,0.9-0.5,1.4-0.7c-0.2-0.5-0.4-0.9-0.6-1.3c-2.6,0.7-4.7,2.4-7.7,3.2c0.2-0.9,0.2-1.5,0.5-1.9
	c5.3-10.2,7.4-21.1,8.3-32.4c0.8-9.6,0.8-19.2-0.1-28.8c-0.7-6.8-1.8-13.5-2.8-20.3c-0.5-3-1-6.1-1.2-9.4c0.7,0.5,1.3,1.1,2,1.6
	c8.6,7,15.6,15.3,21.5,24.7c4.5,7.2,8.7,14.5,12.5,22c6.6,13.2,13.1,26.5,19.7,39.7c0.5,1,1,2,1.6,2.9s1.2,1.8,2,2.6
	c2.4,2.4,4.7,1.8,5.8-1.5c1.3-4,0.8-8,0.2-12c-3-20-11.2-37.9-21.4-55c-0.7-1.3-1.7-2.4-1.7-4.2c0.7,0.4,1.2,0.6,1.8,1
	c9.7,6,17.3,14,22.4,24.3c2.4,4.9,3.7,10.2,4.8,15.5c2.1,9.5,3.3,19.2,4.3,28.9c0.7,6.7,1.5,13.5,2.3,20.2c0.1,1,0.3,2,0.7,3
	c0.8,2,3,2.4,4.5,0.7c0.4-0.5,0.7-1.1,1-1.7c2.3-4.9,3.4-10,3.5-15.4c0-0.5,0.1-1,0.1-1.5c0.2,0,0.3,0,0.5,0
	c0.7,2.9,1.4,5.7,2.1,8.6c1.8,7.5,2.8,15.2,3.6,22.9C421.7,477.3,422.2,485.9,421.8,494.6z M454.3,415.7c-2.1,0.4-4.2,0.8-6.4,1.1
	c-1.1,0.2-2.3,0.3-3.5,0.4c-3.3,0.4-4.3,1.8-3.6,5c1,4,2.1,8,3.2,12c1.5,5.4,2.9,10.8,4.4,16.3c0.1,0.3,0.1,0.5,0.2,0.8
	c0.4,2,0.1,2.6-1.9,3c-2.9,0.6-5.8,1.1-8.7,1.7c-4.2,0.9-8.3,1.9-12.5,2.8c-0.4,0.1-0.8,0.2-1.1,0.3c-1.3,0.2-1.9-0.2-2.3-1.5
	c-0.2-0.9-0.2-1.8-0.4-2.7c-0.4-1.9-0.9-3.8-1.3-5.7s0-2.7,1.8-3.2c1.2-0.3,2.5-0.4,3.8-0.7c0.6-0.1,1.1-0.2,1.7-0.4
	c1.5-0.5,2.1-1.5,1.7-3c-0.3-1.1-0.7-2.2-1.1-3.3c-4-10-8.1-20.1-12.2-30.1c-1.3-3.3-1-4,2.5-4.9c0.8-0.2,1.6-0.5,2.4-0.7
	c0.7-0.2,1.5-0.4,2-0.6c1.2,0.6,2,1.1,2.9,1.4c5.9,2.2,11.9,4.3,17.8,6.5c2.9,1.1,5.8,2.6,8.6,3.9c0.7,0.3,1.3,0.7,2,1.1
	C454.4,415.4,454.3,415.6,454.3,415.7z M465.7,411.2c0,1.6-0.5,2.3-2,2.7c-2.8,0.6-5.5,1.1-8.4,1.6c-0.2-0.5-0.5-0.9-0.6-1.3
	c-3.8-10.2-7.5-20.5-11.2-30.7c-0.6-1.6-1.1-3.3-1.5-5c-0.2-0.6-0.1-1.3,0.1-1.8c0.5-1.5,1-3,1.7-4.9c1.9,2.5,3.5,4.8,5.3,7.3
	c0.9-2.4,1.6-4.5,2.5-6.9c1.1,2.4,2.1,4.5,3.3,7c1.1-3,2.1-5.6,3.1-8.5c0.7,1.4,1.1,2.4,1.6,3.4c1,2,1.4,2.1,3.6,1.3
	c0,0.5,0.1,0.9,0.1,1.3c-0.3,4.1,0.5,8.1,0.8,12.2c0.4,5.3,0.7,10.5,1.1,15.8C465.4,406.8,465.6,409,465.7,411.2z M637.6,288.9
	c-5-0.4-9.9-0.8-14.8-1.1c-7.3-0.4-14.5-0.8-21.8-1.1c-8.4-0.4-16.9-0.6-25.3-0.9c-7.6-0.3-15.2-0.6-22.8-1
	c-10.3-0.6-20.6,0.1-30.9,0.8c-2.8,0.2-5.5,0.3-8.3,0.4c-2.6,0.1-3.6,0.9-4.2,3.4c-1.4,6.5-2.8,13-4.2,19.5
	c-2.3,10.7-4.5,21.3-6.8,32c-0.1,0.3-0.2,0.6-0.2,0.9c-0.4,2-1.5,3.2-3.5,3.6c-3.5,0.8-6.9,1.7-10.3,2.5c-6.1,1.5-12.2,3-18.2,4.4
	c-0.3,0.1-0.5,0.1-0.8,0.2c-3.2,0.8-4.2,2.4-3.8,5.6c0.6,4.9,1,9.8,0.6,14.7c0,0.4-0.2,0.8-0.4,1.7c-1.7-2.7-2.5-5.3-4-7.9
	c-1.1,2.9-2,5.4-3.1,8.3c-1.1-2.5-2.1-4.5-3.1-6.8c-1.4,2.4-1.7,5-3.1,7.5c-1.5-2.1-3-4-4.5-6.1c-1.2,0.8-1.8,1.9-2.2,3
	c-0.4,1.1-0.7,2.2-1.2,3.4c-1-0.7-1.4-1.3-1.1-2.4c0.2-0.7,0.2-1.6,0-2.3c-1.6-4.8-3.4-9.6-5-14.4c-2.4-7.1-4.8-14.2-7.1-21.3
	c-0.2-0.5-0.3-1-0.5-1.8c1.3,0.1,2.4,0.2,3.6,0.3c7.4,0.8,14.9,1.7,22.3,2.6c7.7,0.9,15.4,1.9,23,2.9c4.4,0.5,8.7,1.1,13,1.7
	c0.5,0.1,0.9,0.1,1.4,0.1c2.1,0,3.3-0.9,3.4-3.1c0.1-2.5,0-5-0.1-7.5c-0.5-12.5-1-25-1.5-37.5c-0.2-6.1-0.3-12.1-0.5-18.2
	c-0.4-11.2-1-22.3-1.4-33.5c-0.1-2.4,0-4.8,0-7.2c0-0.7,0.2-1.4,0.3-2.1c0.1-0.8,0.6-1.1,1.4-0.9c0.6,0.2,1.1,0.4,1.7,0.5
	c23.4,8.4,46.9,16.8,70.3,25.2c21.5,7.8,42.7,16.3,63.3,26.1c3.5,1.7,7,3.5,10.5,5.2C637.7,288.6,637.6,288.7,637.6,288.9z
	 M697.7,196.8c-0.1,0.4-0.3,0.7-0.4,1.1c-7.2,16.3-14.3,32.6-21.6,48.8c-4.2,9.4-8.7,18.6-13.2,27.8c-1.3,2.8-3,5.4-4.6,8.1
	c-1.1,1.8-2.3,3.6-3.3,5.5c-1.3,2.2-3.1,3.2-5.6,2.8c-0.9-0.1-1.8-0.2-2.7-0.5c-0.5-0.1-0.9-0.4-1.3-0.7c-0.4-0.2-0.8-0.5-1.2-0.6
	c-2.7-1.1-5.6-2-8.2-3.4c-13.7-7-27.8-13-42-18.8c-20.2-8.2-40.8-15.3-61.4-22.5c-12.5-4.4-25-9.1-37.5-13.6
	c-0.8-0.3-1.7-0.6-2.6-0.8c-1.9-0.4-3,0.3-3.3,2.2c-0.2,1.1-0.3,2.2-0.3,3.3c0.3,7.7,0.7,15.5,0.9,23.2c0.1,3,0,6.1,0.2,9.1
	c0.3,9.9,0.7,19.9,1.1,29.8c0.3,8.9,0.6,17.8,0.9,26.7c0.1,4.1,0.3,8.3,0.5,12.4c0,0.3,0,0.5,0,0.8c-0.1,2.1-0.6,2.7-2.7,2.4
	c-3.4-0.4-6.8-0.9-10.2-1.3c-7.7-1-15.5-2-23.2-2.9c-7.2-0.9-14.5-1.7-21.7-2.6c-2.7-0.3-5.4-0.6-8.1-0.9c-0.3-0.1-0.6,0-1.2,0
	c0.3,1.4,0.3,2.6,0.7,3.7c3.8,11.3,7.6,22.6,11.4,34c0.2,0.6,0.5,1.2,0.7,1.8c-0.7,0.2-1.6,0.3-2.1,0.7c-0.5,0.5-0.8,1.3-1,2
	c-0.4,1.1-0.8,2.3-1.5,3.4c-0.1-0.4-0.3-0.8-0.4-1.2c-3.4-14.8-6.7-29.7-10.1-44.5c-0.8-3.6-0.5-4.1,3.1-5c11.7-3,23.3-6.1,35-9.1
	c0.3-0.1,0.6-0.2,0.9-0.3c2.9-0.8,3.7-1.8,3.9-4.8c0.3-3.9,0.5-7.7,0.8-11.6c0.7-9.8,1.5-19.6,2.2-29.3c0.6-7.5,1.1-14.9,1.7-22.4
	s1.1-15,1.7-22.6c0.5-6,0.9-12.1,1.4-18.1c0.1-1.1,0.2-2.2,0.4-3.3c0.2-1.9,1.3-3.1,3.2-3.4c1.8-0.3,3.7-0.6,5.5-0.9
	c10-1.4,19.9-2.8,29.9-4.1c10.2-1.3,20.5-2.6,30.7-3.7c9.5-1.1,19-1.3,28.6-1.6c8.3-0.3,16.5-0.7,24.8-1c3.6-0.1,7.2-0.2,10.8-0.3
	c5.7-0.1,11.5-0.2,17.2-0.1c12.5,0.2,24.9,0.4,37.3,1.4c10.1,0.8,20.2,1.6,30.3,2.5c1.4,0.1,2.8,0.3,4.2,0.5
	C697.8,194.9,698.1,195.4,697.7,196.8z M195.6,393.4c-1-2-0.4-3.1,1.8-3.7c0.9-0.2,1.8-0.3,2.7-0.4c0-0.1,0-0.1,0.1-0.2
	c1.8,0.5,3.8,0.8,5.5,1.5c2,0.8,2.4,2.4,1,4c-1.3,1.6-2.8,3-4.4,4.3c-1.4,1.1-2.5,0.9-3.5-0.5C197.6,396.8,196.5,395.1,195.6,393.4z
	"/>
</svg>
