<?xml version="1.0" encoding="utf-8"?>
<!-- Generator: Adobe Illustrator 21.0.0, SVG Export Plug-In . SVG Version: 6.00 Build 0)  -->
<svg version="1.1" id="Layer_1" xmlns="http://www.w3.org/2000/svg" xmlns:xlink="http://www.w3.org/1999/xlink" x="0px" y="0px"
	 viewBox="0 0 720 720" style="enable-background:new 0 0 720 720;" xml:space="preserve">
<style type="text/css">
	.st0{fill:#F5B2B6;}
	.st1{fill:#F09820;}
	.st2{fill:#FFFFFF;}
	.st3{fill:#FEE200;}
	.st4{fill:#E21F26;}
	.st5{fill:#050605;}
</style>
<path class="st0" d="M290.5,300.1c6.8,24.3,17.5,45,31.1,54.9c20.1-10.8,31.4-30.6,39.6-53.2C339.2,282.4,314.6,279.9,290.5,300.1
	L290.5,300.1z"/>
<path class="st1" d="M387.8,82.3c8.1,3,18.2,7.6,28.9,14.7c12.2,8.2,21.2,16.9,27.4,24c-14.2,10.3-29.5,19-40,28.4
	c-1.5-0.6-3-1.1-4.5-1.8c-1.4-0.6-2.8-1.1-4.1-1.7c-2.6-8.9-5.1-19.7-6.6-32.1C387.6,101.9,387.4,91.3,387.8,82.3z M449.1,188.3
	c9.9,11.3,12.2,31.9,13.9,51.4l133.5,65.4l6.9-11.2c-33-41.9-66-83.7-98.9-125.6c-7.1,4-15.6,8.1-25.6,11.8
	C467.8,184.2,457.7,186.7,449.1,188.3z M463.4,244.9l34.4,81.1c-6.4,5.2-12.9,10.5-19.3,15.7c-5.7-2.7-11.4-5.5-17.1-8.2
	c1.9-2.9,4.1-7.2,5.3-12.6c2.9-13.5-2.7-24.6-4.7-28.1c-0.7-2.3-1.5-5.7-1.8-9.9c-0.5-6.7,0.7-11.5,1.5-15.6
	C462.6,262,463.6,254.5,463.4,244.9z M480.2,440.3c1.1-0.1,2.3-0.1,3.4-0.2c-3,7.8-7,16.6-12.3,25.9c-4.1,7.2-8.3,13.5-12.3,19.1
	c-2.8-13.5-5.5-26.9-8.2-40.4c0.2-0.7-1.7-11.1-1.5-11.9C453.3,445.2,470.6,439.7,480.2,440.3z M303.9,409.2
	c19.8,11.5,20.7,10.9,40.8,1.7C330,411.6,318,412.4,303.9,409.2z"/>
<path class="st2" d="M263.5,204.3c-5.8,0-11.3,4.8-12.1,10.8s3.2,10.8,9,10.8c5.8,0,11.2-4.8,12.1-10.8S269.3,204.3,263.5,204.3z"/>
<path class="st2" d="M404.3,214.7c-5.6-1.6-10.8,2-11.6,8c-0.8,6,3.1,12.1,8.8,13.7c5.6,1.6,10.8-2,11.6-8S410,216.3,404.3,214.7z"
	/>
<path class="st3" d="M389,79.8c15.8,0.2,33.4,1.3,52.5,3.8c17.4,2.3,33.4,5.5,47.5,8.9c-15.4,8.4-31.6,18.3-42.8,26.8
	c-6.7-6.8-15.3-14.5-26-21.9C408.9,89.5,398.1,83.8,389,79.8z M573.4,112.2c43.1,10,84.8,26.9,125.8,47.1
	c-16.1,20.9-32.4,42.8-48.7,65.7s-31.7,45.5-46.1,67.5c-16.2-20.8-32.5-41.6-48.8-62.4c-16.4-20.8-32.9-41.6-49.4-62.4
	c10.7-7.5,21.9-16,33.4-25.4C552.1,132.1,563.3,122,573.4,112.2z M564.7,406.5c0.8-2.5,2.3-5.2,4.4-7.1c-2.3-0.8-5.4-2.6-6.7-4.5
	c-0.6-2.6,0.4-5.8,2.9-7.5c-5.1-1.9-7.7-3.7-7.1-6c-2.7,1.7-7.5,2-10.7,0.1c-24.3-14.3-49.2-27.3-65.8-36c-4.4-2.3-6.3-2.3-11-5.4
	c-1.5-1-3.8-2.6-7.2-3.2c-1.8-0.3-3.3-0.2-4.3-0.1c-0.7,0.3-1.8,0.9-3,1.8c-5.5,4-6.4,9.1-10.2,14.9c-2,3-4,4.9-8,8.6
	c-9.8,9.1-19.7,13.5-19.8,13.2c-0.2-0.3,12.9-9.3,18.4-14.9c1.4-1.5,2.8-3,2.8-3c1.1-1.3,2.8-3.2,4.6-5.6c1.8-2.3,3.9-5.4,6-9.1
	c-3,1.9-7.4,3.7-12.7,3.7c-14.9,0-26.1-14.5-25.2-32.3c1-17.8,13.8-32.3,28.7-32.3c7.4,0,13.9,3.6,18.5,9.4
	c-0.3-2.9-0.6-5.9-1.1-9.1c3.2-29.9,6.7-72.1-12.1-95.3c14.6-2.7,35.7-8.4,58.4-21.4c17.6-10.1,30.7-21.5,39.8-30.7
	c4.3-11.2,8.5-23.4,12.5-36.5c3.4-11.4,6.2-22.3,8.6-32.7C506.2,76.9,454,115,405.7,150.7c3.4,1.7,8.2,3.3,9.4,6.3
	c-39.4-23.8-116.9-31.2-167.1-6.1c-97.1-17.1-138.5-16.6-162.7-11.1c7.4,24.7,20.4,45.9,47.1,57.8c24.8,1.7,59.1,3.6,78.8,0.8
	c0.8-3.4,6.5-11.5,8.6-15.4c-16,35.7-22.3,62.3-24.1,84.6c4.6-4.7,10.6-7.5,17.2-7.5c14.8,0,26.7,14.3,26.7,32s-12,32-26.7,32
	c-5.6,0-10.7-2-15-5.5c6,20.3,22.2,44.1,42.5,62.3c-7.3-5.6-16.8-14-25.7-26c-10.3-13.9-16-27.3-19.2-36.9c-2.1-2-9.8-9.8-11-22.5
	c-1.4-14.7,7.1-24.8,8.6-26.5c0.6-4.6,1.2-9.2,1.8-13.9c-4.4-4.6-8.8-9.1-13.1-13.7c-5.6-5.9-11.1-11.7-16.7-17.6
	c-0.6-2.8-4-6.5-4.7-9.3c-2.8,1.4-6.5,1.5-9.3,3.6c-4.3-4.7-7.9-5.7-12.1-10.4c-0.9,2.6-1.7,5.1-2.6,7.7c-3,0.9-6.9,0.7-9.9-0.2
	c1.1,4.2,1,7.5-0.4,10.5c-1.9,0.3-8.2,5.6-10.1,4c0.5,3.8,3.5,7.4,2.8,11.3c-3,1.5-5.8,0.5-8.7,2c3.2,4.1,5.9,7.6,9.2,11.7
	c1.7,69.1,28.6,117.8,62.4,161.5c1.9-4.5,3.9-9,5.8-13.5c-1,5.7-2.5,14.1-4.5,24.3c-3.4,17.8-6.2,30.9-7.3,36
	c-9.2,43.8-13.8,65.6-15.1,77.3c-6.5,57.3,6.3,75.7,10.2,80.7c4.7,6.1,9.8,10.2,13.5,12.8c-11.9,8.8-18.2,16.3-21.4,21.5
	c-6.2,10.3-1.4,6.6,6.1,2.7c7.1-3.6,14.1-8,21.1-12.8c-4.8,3.5-9.8,7-13.8,10.9c-9.6,9.3-4.6,7.9,5.2,5.8
	c18.4-4,37.7-13.3,56.6-23.8c-8.7-0.4-13.6-0.7-17.9-1.9c71.1-8.5,135.3-8.4,213.2,0c-3.4,1.1-6.8,2.1-10.2,3.2
	c19.6,12.2,33.4,24.3,63,25.7c-4.1-16.9-12.3-26.9-25.2-38.5c3.5-4.4,8.3-11.5,12-21c13.7-35.9-4.9-67.3-16.4-117.9
	c-4-17.9-8.5-43.7-9-76.2c1,4.4,1.5,8.9,2.5,13.2c4.2,18.6,8,12.2,27,12.3c22.4,0.1,49.8-6.5,78.2-7.7c0.4-2.6,0.7-3.5,1-6.2
	c0.3-1.5,0.7-3,1-4.5c3.9-2.1,10.9-3.3,14.8-5.4C569.5,411.4,566.9,408.4,564.7,406.5z M329.9,242.2c3.2,0,5.9,1,5.9,2.3
	s-2.6,2.3-5.9,2.3c-3.2,0-5.9-1-5.9-2.3C324.1,243.2,326.7,242.2,329.9,242.2z M251.9,241.5c-11.4,0-19.3-9.4-17.6-21.1
	s12.2-21.1,23.6-21.1c11.4,0,19.3,9.4,17.6,21.1C273.8,232,263.3,241.5,251.9,241.5z M298.1,406.6c18.1,4.8,33.5,3.7,52.5,2.6
	C324.8,423.1,323.6,424,298.1,406.6z M367.4,289.3c-4.6,27.7-20.3,53.1-46.3,68.8c-16.6-17.5-31-39-36-77.1c-6-1.8-10-5.5-12.7-10.6
	c15.9,14.4,34.7,9.6,54-6.2c18.4,16.2,38.6,25.1,62.7,15.5C383.5,286.8,374.6,287.2,367.4,289.3z M405.6,253.7
	c-11-3-18.6-14.9-17.1-26.6c1.5-11.7,11.7-18.7,22.6-15.6c11,3,18.6,15,17.1,26.6C426.6,249.7,416.5,256.7,405.6,253.7z"/>
<path class="st4" d="M287.6,281l2.9,19.1c23.9-20,48.6-16.9,70.8,1.5l3.2-14.8c-14.2-3.1-27.1-8.9-38.6-18.1
	C314,277,301.3,281.6,287.6,281L287.6,281z M290.6,300.2l0.2,1.3h0.2L290.6,300.2z M440.5,282.9c-14,0-26.2,14-27.1,31.3
	s9.7,31.3,23.8,31.3c4.3,0,8.4-1.3,12-3.6c8.4-5.2,14.4-15.7,15.1-27.7c0.5-8.7-2-16.5-6.3-22.2
	C453.7,286.3,447.5,282.9,440.5,282.9z M238.1,292.2c0-16.9-11.4-30.5-25.4-30.5c-6.2,0-11.9,2.7-16.3,7.1c-5.6,5.6-9.1,14-9.1,23.4
	c0,10.5,4.4,19.7,11.1,25.2c4.1,3.3,9,5.3,14.3,5.3C226.7,322.7,238.1,309,238.1,292.2z"/>
<path class="st5" d="M298,406.7c25.5,17.4,26.7,16.6,52.5,2.6C331.6,410.4,316.2,411.5,298,406.7z M303.9,409.4
	c14.1,3.2,26,2.4,40.8,1.7C324.6,420.3,323.7,420.8,303.9,409.4z M324.1,244.6c0-1.3,2.6-2.3,5.8-2.3c3.2,0,5.9,1,5.9,2.3
	s-2.6,2.3-5.9,2.3C326.7,246.9,324.1,245.9,324.1,244.6z M428.2,238.2c1.5-11.7-6.1-23.6-17.1-26.7c-10.9-3-21.1,4-22.6,15.7
	s6.1,23.6,17.1,26.6C416.5,256.9,426.6,249.9,428.2,238.2z M413.1,228.6c-0.8,6-6,9.6-11.6,8s-9.6-7.7-8.8-13.7c0.8-6,6-9.6,11.6-8
	C409.9,216.4,413.9,222.6,413.1,228.6z M257.8,199.4c-11.4,0-21.9,9.4-23.6,21.1c-1.6,11.7,6.2,21.1,17.6,21.1
	c11.4,0,21.9-9.4,23.6-21.1C277.1,208.8,269.2,199.4,257.8,199.4z M272.5,215.2c-0.8,6-6.3,10.8-12.1,10.8c-5.8,0-9.9-4.8-9-10.8
	c0.8-6,6.3-10.8,12.1-10.8C269.3,204.4,273.4,209.3,272.5,215.2z M326.3,264.3c-19.3,15.8-38.1,20.6-54,6.2
	c2.7,5.1,6.7,8.8,12.7,10.6c5,38.2,19.4,59.7,36,77.1c26-15.6,41.7-41,46.3-68.8c7.2-2.1,16.2-2.5,21.7-9.6
	C364.9,289.4,344.7,280.4,326.3,264.3z M361.3,301.8c-2.1-1.8-4.3-3.4-6.4-4.9c2.1,1.5,4.2,3.2,6.3,5.1
	c-8.2,22.6-19.6,42.4-39.6,53.2c-13.4-9.8-24-30.1-30.8-54.1l0.2,0.6h-0.2l-0.2-1.3c0-0.1,0-0.1,0-0.2c1-0.9,2-1.7,3.1-2.4
	c-1,0.8-2,1.6-3.1,2.4l-2.9-19.1c13.7,0.6,26.3-4,38.4-12.2c11.4,9.1,24.4,15,38.6,18.1L361.3,301.8z M627.6,127.3
	c-17.8-6.5-35.1-12-51.6-16.9c11.2-7.9,24.9-19.4,37.6-35.9c5.9-7.6,10.6-15.1,14.3-21.9c-18.8,1.5-41.5,4.9-66.6,11.8
	c-28.4,7.8-51.9,18.1-70.1,27.5c-14.7-3.9-31.4-7.5-50.1-10.1c-20.8-2.8-39.8-3.7-56.3-3.6c0.3,10.5,1,22.1,2.6,34.4
	c1.4,11.5,3.3,22.2,5.4,31.9c-15.5-5.7-93.2-22.9-145,4.9c-76.6-12.9-153.2-27.9-229.8,8.7c52.6,39.8,120.2,45.2,191.3,42.2
	c-5.6,16.7-12,35.3-13,52.9C184,241,167,229.1,160.8,212.7c-3.3,1.2-6.6,2.5-9.9,3.7c-5.9-4.1-9.5-8-13.5-12.2c0.1,1.4,0,3.5-1,6
	c-0.6,1.4-1.3,2.6-1.9,3.4c-1.6,0-3.2,0-4.9,0c-1.7,0.1-3.3,0.2-4.8,0.3c-0.1,1.8-0.2,3.8-0.2,5.7c0,1.6,0,3.1,0,4.6
	c-1.1,0.8-2.8,1.9-5,2.6c-2.8,0.9-5.2,0.9-6.6,0.8c0.8,2,1.5,4.5,2,7.2c0.3,1.6,0.5,3.2,0.6,4.6c-0.8,0.4-1.8,0.9-3,1.2
	c-2.4,0.7-4.5,0.6-5.8,0.4c1.7,2.4,3.5,4.9,5.2,7.4c1.8,2.6,3.5,5.1,5.2,7.6c0.2,9.8,1.1,23,4,38.4c1.2,6.5,4.9,24.4,15.5,50
	c7.9,19.2,21.5,47.2,44.9,78.9c-37.2,133.8-32.1,188-4.6,209.1c-19.8,17.4-25.8,28.9-16.1,33.7c17.1,1.1,28.4,6.3,84.4-28.7
	c55.5-5.7,113.4-6.4,177.4,0.5c-18.3,0.9,51,37.6,66.3,28.1c-1.5-10-4.5-23.6-26.3-41c38.5-34.1,2.5-93.5-3.3-135.5
	c3.9-5.6,7.8-11.8,11.6-18.4c6.4-11,11.6-21.5,15.8-31.3c14.5-2.4,29.7-4.4,45.7-6c8.1-0.8,16-1.4,23.7-1.9c0-4.1,2.3-7.8,2.3-11.9
	c2.6-0.8,5.2-1.7,7.9-2.7c3.3-1.2,6.4-2.3,9.5-3.5c-1.8-1.6-3.6-3.3-5.4-5c-1-0.9-1.9-1.8-2.9-2.7c0.2-0.9,0.6-2.1,1.2-3.3
	c1.4-2.6,3.3-4.1,4.4-4.8c-1.1-0.1-3.2-0.5-5.4-2c-1.7-1.2-2.8-2.5-3.4-3.4c0.1-0.8,0.4-2.1,1.2-3.5c1.4-2.3,3.5-3.3,4.3-3.7
	c-3.4,0.8-6.7-0.1-8.6-2.4c-1.2-1.5-1.5-3.1-1.6-4c-1.9,0.9-4.8,1.9-8.2,1.6c-4.7-0.4-7.6-3-12.8-6.4c-4.3-2.8-9-5.1-13.3-7.9
	c-6.2-3.9-18.2-10.8-44-23.9c6.5-4.8,12.9-9.5,19.4-14.3c-5.9-14.4-11.8-28.8-17.9-43.2c-5.8-13.9-11.6-27.8-17.5-41.6
	c21.8,11.3,44.1,22.6,66.8,33.8c22,10.9,43.7,21.4,65.2,31.6c15.9-23.9,32.3-48,49.2-72.4c18.6-26.8,37.1-52.8,55.6-78.2
	C679.5,147.6,654.7,137.1,627.6,127.3z M441.5,83.8c17.4,2.3,33.3,5.5,47.5,9c-15.4,8.4-31.6,18.3-42.8,26.8
	c-6.7-6.8-15.3-14.5-26-21.9C408.9,89.6,398.1,84,389,80C404.7,80.2,422.4,81.2,441.5,83.8z M389,114c-1.4-11.9-1.6-22.5-1.1-31.5
	c8.1,3,18.2,7.6,28.9,14.7c12.2,8.2,21.2,17,27.4,24c-14.2,10.3-29.5,19-40,28.4c-1.5-0.6-3-1.1-4.5-1.8c-1.4-0.6-2.8-1.2-4.1-1.7
	C392.9,137.2,390.4,126.4,389,114z M471.3,466.1c-4.1,7.2-8.3,13.5-12.3,19.1c-2.8-13.5-5.5-26.9-8.2-40.4
	c0.2-0.7-1.7-11.2-1.5-11.9c4,12.4,21.3,7,30.9,7.6c1.1-0.1,2.3-0.1,3.4-0.2C480.5,448.1,476.6,456.9,471.3,466.1z M481.7,345.7
	c16.6,8.6,41.5,21.7,65.8,36c3.2,1.9,8,1.6,10.7-0.1c-0.6,2.3,2,4.2,7.1,6c-2.5,1.7-3.5,4.9-2.9,7.5c1.3,1.9,4.4,3.7,6.7,4.5
	c-2.2,2-3.6,4.6-4.4,7.1c2.2,2,4.8,5,7,6.9c-3.9,2.1-10.9,3.3-14.8,5.4c-0.4,1.5-0.7,3-1,4.5c-0.4,2.6-0.6,3.5-1,6.2
	c-28.4,1.2-55.8,7.8-78.2,7.7c-19-0.1-22.8,6.4-27-12.3c-1-4.4-1.5-8.8-2.5-13.2c0.5,32.5,5,58.3,9,76.2
	c11.5,50.6,30.1,82,16.4,117.9c-3.6,9.5-8.5,16.6-12,21c12.9,11.6,21.1,21.6,25.2,38.5c-29.5-1.4-43.4-13.5-63-25.7
	c3.4-1.1,6.8-2.1,10.2-3.2c-77.9-8.4-142.1-8.5-213.2,0c4.3,1.2,9.2,1.5,17.9,1.9c-18.9,10.5-38.2,19.7-56.6,23.8
	c-9.8,2.1-14.8,3.6-5.2-5.8c4-3.9,8.9-7.4,13.8-10.9c-7,4.8-14.1,9.1-21.1,12.8c-7.4,3.9-12.3,7.6-6-2.7c3.2-5.3,9.6-12.8,21.4-21.5
	c-3.7-2.6-8.8-6.7-13.5-12.8c-3.9-5-16.7-23.3-10.2-80.7c1.3-11.7,5.9-33.6,15.2-77.3c1.1-5.1,3.9-18.2,7.3-36
	c2-10.2,3.5-18.7,4.5-24.3c-1.9,4.5-3.8,9-5.8,13.5c-33.8-43.7-60.7-92.4-62.4-161.5c-3.2-4.1-5.9-7.7-9.2-11.7c3-1.5,5.8-0.5,8.7-2
	c0.8-3.8-2.3-7.5-2.8-11.3c1.9,1.6,8.2-3.7,10.1-4c1.4-3,1.5-6.3,0.4-10.5c3,0.9,6.9,1.1,9.9,0.2c0.9-2.6,1.7-5.1,2.6-7.7
	c4.3,4.7,7.9,5.7,12.1,10.4c2.8-2.1,6.5-2.2,9.3-3.6c0.6,2.8,4,6.5,4.7,9.3c5.5,5.8,11.1,11.7,16.7,17.6c4.4,4.6,8.8,9.2,13.1,13.7
	c-0.6,4.6-1.2,9.2-1.8,13.9c-1.5,1.8-9.9,11.9-8.6,26.5c1.2,12.8,8.9,20.6,11,22.5c3.2,9.5,8.8,22.9,19.2,36.9
	c8.9,12,18.3,20.4,25.7,26c-20.3-18.2-36.5-42-42.5-62.3c4.3,3.5,9.5,5.5,15,5.5c14.8,0,26.7-14.3,26.7-32s-12-32-26.7-32
	c-6.5,0-12.5,2.8-17.2,7.5c1.8-22.3,8-48.9,24.1-84.6c-2.1,3.9-7.8,12-8.6,15.3c-19.7,2.8-54,0.9-78.8-0.8
	c-26.7-11.8-39.7-33.1-47.1-57.8c24.2-5.5,65.6-5.9,162.7,11.1c50.2-25.2,127.8-17.8,167.1,6c-1.2-3-6-4.6-9.4-6.3
	c48.3-35.7,100.5-73.8,159.7-85.2c-2.4,10.4-5.2,21.3-8.6,32.7c-3.9,13.1-8.1,25.3-12.5,36.5c-9.1,9.2-22.1,20.6-39.8,30.7
	c-22.7,13-43.9,18.8-58.4,21.5c18.7,23.2,15.2,65.5,12.1,95.3c0.5,3.1,0.8,6.1,1.1,9.1c-4.5-5.8-11.1-9.4-18.5-9.4
	c-14.9,0-27.7,14.4-28.7,32.3c-1,17.8,10.3,32.3,25.2,32.3c5.3,0,9.7-1.8,12.7-3.7c-2.2,3.7-4.3,6.8-6,9.1c-1.8,2.4-3.5,4.4-4.6,5.6
	c0,0-1.4,1.5-2.8,3c-5.5,5.7-18.6,14.6-18.3,14.9c0.2,0.3,10-4.1,19.8-13.2c4-3.8,6.1-5.7,8-8.6c3.8-5.8,4.7-10.9,10.2-14.9
	c1.2-0.9,2.3-1.4,3-1.8c1-0.1,2.5-0.2,4.3,0.1c3.4,0.6,5.7,2.2,7.2,3.2C475.4,343.3,477.4,343.4,481.7,345.7z M196.3,268.9
	c4.4-4.4,10.1-7.1,16.3-7.1c14,0,25.5,13.7,25.5,30.5s-11.4,30.5-25.5,30.5c-5.3,0-10.2-2-14.3-5.3c-6.7-5.5-11.1-14.7-11.1-25.2
	C187.1,282.9,190.7,274.5,196.3,268.9z M464.3,314.3c-0.6,12-6.7,22.4-15.1,27.7c-3.7,2.3-7.8,3.6-12,3.6c-14,0-24.7-14-23.8-31.3
	c0.9-17.3,13.1-31.3,27.1-31.3c7,0,13.1,3.5,17.4,9.1C462.3,297.7,464.7,305.6,464.3,314.3z M497.7,326.1
	c-6.4,5.2-12.8,10.5-19.3,15.7c-5.7-2.7-11.4-5.5-17.1-8.2c1.9-2.9,4.1-7.2,5.3-12.6c2.9-13.5-2.7-24.6-4.7-28.1
	c-0.7-2.3-1.5-5.7-1.8-9.9c-0.5-6.7,0.7-11.5,1.5-15.6c1-5.2,2-12.7,1.8-22.3L497.7,326.1z M596.4,305.2L463,239.9
	c-1.7-19.6-4-40.1-13.9-51.4c8.6-1.6,18.7-4.1,29.7-8.1c10-3.7,18.5-7.8,25.6-11.8c33,41.9,66,83.7,98.9,125.6L596.4,305.2z
	 M604.4,292.7c-16.2-20.8-32.5-41.6-48.8-62.4c-16.4-20.8-32.9-41.6-49.4-62.4c10.7-7.5,21.9-16,33.4-25.4
	c12.5-10.2,23.7-20.4,33.8-30.1c43.1,10,84.8,26.9,125.8,47.1c-16.1,20.8-32.4,42.8-48.7,65.7C634.1,248.1,618.8,270.6,604.4,292.7z
	"/>
</svg>
