<?xml version="1.0" encoding="utf-8"?>
<!-- Generator: Adobe Illustrator 24.3.0, SVG Export Plug-In . SVG Version: 6.00 Build 0)  -->
<svg version="1.1" id="Layer_1" xmlns="http://www.w3.org/2000/svg" xmlns:xlink="http://www.w3.org/1999/xlink" x="0px" y="0px"
	 viewBox="0 0 720 720" style="enable-background:new 0 0 720 720;" xml:space="preserve">
<style type="text/css">
	.st0{fill-rule:evenodd;clip-rule:evenodd;fill:#211815;}
	.st1{fill-rule:evenodd;clip-rule:evenodd;fill:#7283AB;}
	.st2{fill-rule:evenodd;clip-rule:evenodd;fill:#E3EEDC;}
	.st3{fill-rule:evenodd;clip-rule:evenodd;fill:#565B6D;}
	.st4{fill-rule:evenodd;clip-rule:evenodd;fill:#7383AB;}
	.st5{fill-rule:evenodd;clip-rule:evenodd;fill:#9AB3CC;}
	.st6{fill-rule:evenodd;clip-rule:evenodd;fill:#201614;}
	.st7{fill-rule:evenodd;clip-rule:evenodd;fill:#FFFFFF;}
	.st8{fill-rule:evenodd;clip-rule:evenodd;fill:#D2CAE3;}
	.st9{fill-rule:evenodd;clip-rule:evenodd;fill:#E46E85;}
	.st10{fill-rule:evenodd;clip-rule:evenodd;fill:#AF5058;}
	.st11{fill-rule:evenodd;clip-rule:evenodd;fill:#241815;}
	.st12{fill-rule:evenodd;clip-rule:evenodd;fill:#DD7F80;}
</style>
<g>
	<path class="st0" d="M289.46,396.83c-1.6-5.72-3.24-11.36-4.42-17.13c-4.49-21.92-6.05-44.03-4.46-66.36
		c3.37-47.36,23.98-86.66,56.46-120.32c10.65-11.03,21.51-21.92,34.36-30.46c17.43-11.58,35.47-22,55.67-28.11
		c14.93-4.52,30.2-7.05,45.78-7.74c15.71-0.69,31.4-0.16,46.76,3.28c22.13,4.96,42,14.8,59.98,28.74
		c17.88,13.87,31.54,31.24,43.37,50.24c15.06,24.18,26.95,49.77,33.79,77.53c3.82,15.48,6.98,31.09,7.85,47.06
		c1.84,33.49-4.98,64.9-22.46,93.82c-8.79,14.54-18.65,28.15-31.41,39.49c-2.99,2.66-6.05,5.25-9.2,7.71
		c-1.33,1.04-1.12,1.5-0.01,2.51c8.3,7.56,17.52,13.91,26.66,20.37c10.75,7.59,21.15,15.66,31.59,23.66
		c11.57,8.86,19.12,20.58,22.98,34.6c1.55,5.62,1.5,11.43,0.58,17.17c-1.65,10.21-8.14,15.66-17.88,17.78
		c-16.69,3.64-32.53,1.15-47.82-6.28c-11.9-5.79-21.84-13.91-30.81-23.57c-14.22-15.32-25.78-32.45-35.85-50.68
		c-0.1-0.18-0.18-0.36-0.28-0.54c-0.87-1.52-1.02-3.94-2.45-4.46c-1.27-0.45-3.16,0.8-4.76,1.33c-21.25,7.11-43.05,10.4-65.45,9.34
		c-26.13-1.24-52.03-4.04-76.96-12.67c-2.17-0.75-4.37-1.46-6.49-2.34c-1.23-0.51-1.8-0.31-2.49,0.9
		c-5.55,9.72-11.26,19.35-17.84,28.4c-11.04,15.17-22.82,29.65-37.85,41.22c-13.82,10.64-29.15,17.65-46.37,20.4
		c-9.53,1.52-18.81,0.45-27.55-3.88c-9.07-4.49-13.6-11.96-13.86-21.98c-0.54-21.02,7.95-37.98,23.58-51.62
		c8.35-7.29,17.39-13.62,27.02-19.13c10.18-5.82,20.31-11.72,30.44-17.61c3.58-2.08,6.92-4.52,10.3-6.9
		c0.89-0.63,1.25-0.99,0.17-1.86c-9.9-8.02-18.77-17.05-26.35-27.32c-0.53-0.72-1.25-1-2-1.31c-3.32-1.36-6.74-2.52-9.95-4.1
		c-3.84-1.88-7.78-2.4-12-2.25c-15.42,0.54-30.8-0.15-46.11-2.02c-17.93-2.2-35.07-7.39-51.87-13.88
		c-22.09-8.53-41.79-21.11-60.58-35.28c-20.24-15.25-38.61-32.42-54.79-51.98c-17.06-20.63-28.02-44.13-34.38-69.97
		c-3.58-14.55-4.98-29.36-5.87-44.28c-0.94-15.81,0.66-31.35,4.78-46.53c4.66-17.18,15.08-29.51,32.59-34.93
		c6.45-1.99,13.09-1.95,19.76-1.75c31.17,0.91,72.17,22.18,92.87,60.73c11.49,21.42,21.17,43.61,29.67,66.34
		c13.84,36.99,31.37,72.15,52.04,105.77c6.44,10.47,13.66,20.39,20.96,30.25C289.09,396.45,289.28,396.64,289.46,396.83z"/>
	<path class="st1" d="M281.54,323.53c0.21-38.34,12.92-72.57,34.78-103.54c15.25-21.59,33.73-40.29,55.24-55.64
		c16.53-11.8,34.3-21.61,53.8-27.85c12.23-3.91,24.76-6.38,37.54-7.62c17.71-1.72,35.34-1.13,52.87,1.76
		c10.76,1.77,20.89,5.64,30.88,9.91c17.02,7.27,31.52,18.17,45.02,30.62c11.24,10.37,19.75,22.86,28.07,35.5
		c14.32,21.76,25.29,45.17,32.89,70.07c4.41,14.45,7.36,29.27,9.3,44.27c0.58,4.5,1.21,9,1.16,13.55
		c-0.68,5.77-3.59,10.71-6.02,15.8c-4.32,9.06-11.15,16.22-17.98,23.37c-4.68,4.9-9.61,9.52-14.98,13.66
		c-0.77,0.6-1.41,1.74-2.72,1.2c-0.35-2.62,0.66-5.07,1.02-7.6c1.47-10.33,1.49-20.69,0.66-31.04c-1.48-18.56-7.65-35.6-17.68-51.21
		c-5.93-9.22-13.01-17.46-21.24-24.79c-8.48-7.56-17.74-13.84-27.89-18.85c-4.07-2.01-8.22-3.88-12.49-5.46
		c-1.41-0.52-1.99-1.28-1.82-2.88c0.54-4.99-0.83-9.5-3.6-13.67c-7.26-10.98-17.47-17.29-30.46-18.78c-7.51-0.86-15-0.53-22.11,2.72
		c-10.96,5.01-18.66,12.88-21.98,24.63c-0.52,1.84-1.51,2.66-3.29,3.05c-9.59,2.12-18.78,5.42-27.49,9.91
		c-10.7,5.51-20.78,11.92-29.91,19.88c-10.74,9.36-19.82,20.07-27.09,32.25c-7.04,11.78-11.97,24.42-14.91,37.89
		c-2.34,10.71-2.75,21.5-2.37,32.36c0.18,5,1.06,9.97,2.15,14.88c0.23,1.04,0.65,2.09,0.31,3.2c-1.05,0.96-1.93,0.05-2.74-0.37
		c-8.66-4.51-17.07-9.45-25-15.18c-7.97-5.76-15.7-11.83-23.14-18.24c-5.87-5.05-11.2-10.63-15.91-16.78
		c-4-5.22-7.95-10.47-11.41-16.08C282.09,326.93,281.06,325.45,281.54,323.53z"/>
	<path class="st2" d="M94.25,348.17c-11.24-11.44-21.64-23.57-30.08-37.27C52.98,292.75,46,272.99,41.73,252.19
		c-2.96-14.47-4.07-29.15-4.27-43.86c-0.19-14.09,1.52-28.09,6-41.48c5.36-16.02,16.04-27.02,32.83-31.14
		c8.14-2,16.52-1.76,24.68-0.38c36.83,6.22,64.62,25.75,83.22,58.06c13.38,23.26,23.17,48.17,32.64,73.2
		c-0.93,0.21-0.97,0.25-1.8-0.86c-2.38-3.22-4.92-6.34-7.87-9.02c-13.2-12.01-27.94-21.23-45.86-24.32
		c-10.82-1.86-21.67-2.13-32.5,0.1c-2.73,0.56-5.38,1.35-7.95,2.44c-0.78,0.33-1.59,0.86-2.5,0.29c-4.72-9.52-9.23-19.15-13.47-28.9
		c-1.43-3.29-2.94-6.53-4.41-9.8c-0.21-0.47-0.33-1.01-1.2-1.35c0.21,3.14,0.7,6.01,1.4,8.85c2.83,11.59,6.81,22.83,10.85,34.03
		c0.14,0.38,0.25,0.77,0.37,1.16c0.22,0.84-0.2,1.43-0.77,1.96c-12.06,11.44-17.84,25.91-20.3,41.99
		c-1.36,8.91-2.31,17.88-2.04,26.9c0.3,10.44,1.38,20.8,3.85,30.99c0.38,1.58,0.92,3.12,1.49,4.64
		C94.41,346.47,94.92,347.3,94.25,348.17z"/>
	<path class="st3" d="M621.61,388.69c9.21-6.87,17.12-15.09,24.76-23.64c7.92-8.85,13.06-19.14,16.58-30.36
		c0.02-0.06,0.09-0.09,0.14-0.14c0.86,8.33,0.21,16.63-0.33,24.94c-0.86,13.34-4.09,26.14-8.33,38.73
		c-4.21,12.48-10.62,23.85-17.57,34.97c-6.46,10.34-13.91,19.88-22.57,28.43c-6.37,6.29-13.44,11.77-20.48,17.29
		c-13.09,10.27-27.78,17.64-43.2,23.56c-13.4,5.15-27.25,8.68-41.54,10.54c-11.25,1.47-22.5,1.74-33.81,1.3
		c-10.65-0.41-21.23-1.55-31.8-2.77c-10.27-1.18-20.32-3.59-30.34-6.23c-20.12-5.3-38.6-14.16-55.92-25.43
		c-12.19-7.93-23.28-17.35-33.03-28.16c-9.6-10.63-18.19-22.09-24.47-35.06c-6.57-13.57-11.8-27.63-14.34-42.56
		c-1.3-7.66-2.38-15.34-3.05-23.1c-0.67-7.78-0.83-15.56-0.76-23.35c0.01-1.38-0.96-2.76-0.02-4.14c-0.06,1.43,0.6,2.65,1.33,3.77
		c6.69,10.35,13.8,20.4,22.74,28.95c8.01,7.66,16.75,14.49,25.67,21.07c8.66,6.4,17.82,12,27.39,16.94
		c0.71,0.37,1.49,0.62,2.23,0.92c0.85,0.44,0.89,1.3,1.07,2.08c3.69,15.37,10.27,29.39,19.43,42.26
		c4.93,6.94,10.42,13.36,16.48,19.32c8.27,8.15,17.26,15.37,27.95,20.07c11.9,5.23,24.21,9.22,37.14,11.06
		c7.8,1.11,15.61,1.81,23.5,1.63c21.94-0.49,43.15-4.34,63.13-13.75c11.54-5.44,22.09-12.37,31.69-20.81
		c12.19-10.71,21.98-23.28,29.21-37.74c4.52-9.05,8.19-18.49,10.09-28.51C620.72,390.01,620.78,389.15,621.61,388.69z"/>
	<path class="st4" d="M352.92,554.1c-2.76,3.55-6.11,6.51-9.43,9.49c-12.1,10.85-25.56,19.35-41.31,23.95
		c-6.07,1.77-12.2,3.25-18.52,3.34c-9.48,0.13-18.49-1.7-26.02-7.99c-4.67-3.9-7.03-9.1-7.39-15.09
		c-1.29-21.56,7.22-38.85,23.27-52.79c1.54-1.34,3.06-2.68,4.81-3.73c5.56-3.33,11.75-4.89,18-6.12c6.24-1.23,12.59-1.93,18.98-1.78
		c13.99,0.31,24.56,6.62,31.41,18.71c3.6,6.35,5.19,13.5,6.25,20.72c0.41,2.82,0.49,5.66,0.44,8.51
		C353.4,552.28,353.3,553.21,352.92,554.1z"/>
	<path class="st4" d="M645.21,512.07c10.78,8.05,22.23,15.31,29.14,27.56c4.54,8.04,8.18,16.23,8.14,25.62
		c-0.03,6.96-0.84,13.75-6.39,18.85c-3.86,3.54-8.72,4.85-13.69,5.73c-18.53,3.31-35.4-1.31-51.39-10.6
		c-10.2-5.93-18.38-14.05-26.09-22.77c-2.72-3.56-3.2-7.82-3.82-12.05c-1.04-7.13,0.15-14.01,1.96-20.88
		c2.67-10.12,9.18-15.98,19.33-18.01c13.14-2.63,25.88-1.53,38.15,4.07C642.15,510.32,643.63,511.27,645.21,512.07z"/>
	<path class="st4" d="M148.01,309.34c6.87,10.65,13.99,21.13,21.86,31.09c16.93,21.42,37.39,39.02,59.27,55.1
		c19.47,14.3,40.38,26.14,62.37,36.09c0.23,0.1,0.45,0.24,0.65,0.68c-0.63,0-1.25-0.01-1.88,0c-10.38,0.13-20.74,0.13-31.11-0.48
		c-24.26-1.42-47.44-7.28-69.83-16.55c-6.64-2.75-13.15-5.76-19.56-9.01c-0.65-0.33-1.24-0.8-1.86-1.21
		c-7.56-7.6-13.57-16.32-18.64-25.72c-3.44-6.36-5.6-13.2-7.65-20.09c-2.39-8.04-3.82-16.18-3.54-24.62
		C138.4,324.98,141.24,316.41,148.01,309.34z"/>
	<path class="st5" d="M118.36,235.21c4.3-1.59,8.59-3.24,13.19-3.8c5.96-0.73,11.9-1.26,17.96-0.83c5.88,0.42,11.68,1.04,17.4,2.44
		c10.94,2.69,20.64,7.9,29.77,14.37c7.51,5.33,14.19,11.46,19.52,19.01c0.16,0.23,0.34,0.44,0.65,0.19
		c2.79,6.81,5.57,13.63,8.37,20.44c8.11,19.76,17.92,38.67,28.45,57.23c0.17,0.29,0.31,0.6,0.47,0.9c-1.28,0.36-1.63-0.76-2.15-1.45
		c-3.22-4.28-6.42-8.57-10.04-12.53c-6.81-7.46-14.51-13.83-23.44-18.62c-11.99-6.42-24.8-10.12-38.34-11.34
		c-6.51-0.59-12.99-0.74-19.32,1.31c-0.59,0.19-1.19,0.33-1.72-0.18C143.05,281.48,129.44,259.11,118.36,235.21z"/>
	<path class="st5" d="M148.01,309.34c0.14,0.95-0.53,1.45-1.07,2.07c-4.57,5.26-7.01,11.42-7.9,18.3
		c-1.74,13.34,1.68,25.86,5.94,38.25c3.76,10.94,9.81,20.58,16.97,29.58c1.81,2.27,3.66,4.52,5.74,6.55
		c0.25,0.24,0.76,0.49,0.24,0.95c-12.84-7.18-25-15.39-36.7-24.3c-12.84-9.78-25.03-20.3-36.36-31.8c-0.23-0.23-0.41-0.52-0.61-0.78
		c-1.37-4.23-2.75-8.45-3.46-12.87c-1.03-6.46-1.99-12.91-2.29-19.46c-0.18-3.92-0.49-7.84-0.29-11.75
		c0.65-12.26,1.63-24.51,5.62-36.25c3.14-9.24,7.75-17.68,14.46-24.88c1.18-1.27,2.98-1.96,3.59-3.76
		c5.6,14.56,12.15,28.67,19.63,42.35C136.69,291.01,142.34,300.18,148.01,309.34z"/>
	<path class="st4" d="M159.12,302.36c5.46-1.73,11.07-2.26,16.78-2.01c7.91,0.34,15.67,1.67,23.26,3.83
		c10.81,3.08,20.9,7.72,29.92,14.52c8.37,6.31,15.43,13.89,21.59,22.35c1.05,1.44,1.8,3.18,3.46,4.12
		c4.45,7.99,9.04,15.9,13.91,23.65c6.11,9.71,12.85,18.98,19.66,28.2c0.39,0.52,0.74,1.07,1.22,1.74
		C256.55,390.01,195.33,353.05,159.12,302.36z"/>
	<path class="st3" d="M352.92,554.1c0.1-7.05-0.57-14-2.51-20.83c-2.22-7.8-5.32-15.06-11.7-20.45c-5.32-4.5-11.25-7.79-18.3-8.44
		c-14.12-1.32-27.69,1.01-40.72,6.58c-0.42,0.18-0.91,0.22-1.36,0.33c2.71-2.78,6.02-4.78,9.14-7.02
		c8.82-6.34,18.56-11.16,27.86-16.72c8.59-5.13,17.47-9.8,25.52-15.81c1.11-0.83,1.81-0.94,3.04,0.09
		c13.83,11.61,29.68,19.83,46.04,27.16c1.11,0.5,2,0.77,1.08,2.24c-5.49,8.76-10.6,17.76-16.56,26.22
		c-6.44,9.13-13.32,17.92-20.91,26.14C353.36,553.77,353.13,553.92,352.92,554.1z"/>
	<path class="st3" d="M192,341.47c8.64,7.72,17.58,15.07,26.97,21.85c17.96,12.96,36.64,24.67,57.4,32.73
		c4.22,1.64,8.51,3.14,12.85,4.44c1.89,0.57,2.69,1.69,3.33,3.35c4.19,10.85,9.34,21.19,16.16,30.65c0.74,1.02,1.68,1.94,2.15,3.37
		c-1.9-0.06-3.4-1.01-4.96-1.64c-22.95-9.39-44.94-20.63-65.5-34.54c-11.96-8.09-23.44-16.8-34.34-26.28
		c-6.96-6.05-13.93-12.08-20.24-18.81c-8.44-9-16.3-18.49-23.5-28.51c-0.07-0.1-0.08-0.26-0.12-0.38c0.7-0.43,1.13,0.16,1.62,0.46
		c7.92,4.88,16.18,9.06,24.97,12.15C189.86,340.69,190.8,341.44,192,341.47z"/>
	<path class="st3" d="M645.21,512.07c-3.02-0.6-5.56-2.39-8.41-3.43c-8.76-3.2-17.71-4.61-27.05-3.55
		c-4.38,0.5-8.71,1.07-12.84,2.66c-6.15,2.35-10.2,6.84-12.32,12.97c-2.13,6.15-3.54,12.49-3.29,19.05
		c0.22,5.76,1.15,11.41,3.62,16.7c-4.04-4.36-7.95-8.84-11.44-13.65c-6.84-9.41-13.22-19.12-19.02-29.21
		c-1.45-2.52-2.56-5.23-3.93-7.79c-0.68-1.28-0.24-1.65,0.96-2.12c11.78-4.54,23.04-10.16,33.74-16.85
		c4.19-2.62,8.07-5.7,11.93-8.78c1.18-0.94,1.87-1.49,3.4-0.04c7.73,7.32,16.55,13.29,25.18,19.48c6.21,4.45,12.34,9.01,18.49,13.53
		C644.62,511.31,644.89,511.72,645.21,512.07z"/>
	<path class="st4" d="M192,341.47c-0.28,0.42-0.65,0.4-1.07,0.26c-9.34-3.33-18.25-7.53-26.72-12.7c-0.69-0.42-1.34-0.89-2.02-1.34
		c-4.95-6.39-9.16-13.27-13.51-20.07c-10.34-16.19-19.82-32.85-27.71-50.39c-7.49-16.65-13.57-33.8-18.38-51.41
		c-0.07-0.25-0.09-0.52,0.12-0.88c0.87,1.98,1.73,3.96,2.61,5.93c0.91,2.04,1.83,4.08,2.75,6.12
		c13.77,30.47,29.32,59.91,49.97,86.42c9.98,12.8,20.32,25.26,32.16,36.42C190.8,340.39,191.4,340.93,192,341.47z"/>
	<path class="st6" d="M454.67,184.13c-0.16,11.7-3.74,22.39-9.96,32.19c-8.93,14.07-20.9,24.49-36.97,29.67
		c-7.55,2.43-15.29,3.07-23.02,0.84c-12.87-3.72-20-12.68-22.49-25.51c-2.08-10.74-0.08-21.06,4.29-30.91
		c6.8-15.31,17.48-27.18,32.32-35.08c9.32-4.96,19.28-7.5,29.82-5.43c13.94,2.75,22.03,11.68,25.13,25.34
		C454.45,178.16,454.69,181.13,454.67,184.13z"/>
	<path class="st6" d="M526.2,173.73c-0.23-3.64,0.39-7.38,1.93-10.91c3.51-8.1,10.05-11.84,18.58-12.28
		c9.49-0.49,18.05,2.7,25.99,7.52c17.61,10.69,30.24,25.57,36.81,45.25c2.31,6.9,3.02,14.02,1.09,21.22
		c-2.17,8.09-8.75,13.71-17.04,14.82c-7.54,1.01-14.65-0.53-21.34-3.67c-21.09-9.89-35.67-25.88-43.66-47.78
		C526.93,183.43,526.04,178.76,526.2,173.73z"/>
	<path class="st0" d="M621.61,388.69c-2.21,11.67-6.3,22.7-11.82,33.15c-7.08,13.42-16.4,25.13-27.75,35.28
		c-8.71,7.78-18.3,14.23-28.63,19.52c-12.73,6.52-26.27,10.69-40.38,13.08c-7.01,1.19-14.05,1.87-21.16,2.13
		c-3.72,0.14-7.45,0.35-11.17,0.26c-15.06-0.35-29.61-3.27-43.85-8.22c-13.79-4.8-25.91-12-36.56-22.07
		c-12.61-11.92-23.02-25.35-30.52-41c-3.93-8.2-6.97-16.73-8.86-25.64c-0.84-5.34-2.12-10.61-2.48-16.04
		c-0.74-10.94-0.41-21.79,1.75-32.58c4.77-23.9,15.6-44.71,32.21-62.42c18.69-19.92,41.26-33.47,67.92-39.92
		c1.81-0.44,2.59-1.18,3.08-3.03c4.31-16.32,20.52-26.93,34.81-27.72c12.54-0.69,23.84,2.27,33.32,10.71
		c5.18,4.61,9.35,10.01,10.87,17.03c0.41,1.88,0.55,3.81,0.17,5.66c-0.3,1.46,0.28,1.79,1.44,2.25
		c11.21,4.42,21.93,9.76,31.59,17.04c21.75,16.4,36.92,37.42,44.48,63.72c4.14,14.39,4.68,29.1,3.69,43.94
		C623.4,378.84,622.46,383.75,621.61,388.69z"/>
	<path class="st7" d="M425.12,151c6.77,0.46,12.8,2.75,17.82,7.35c6.32,5.79,9.43,13.18,10.05,21.59
		c1.29,17.51-5.45,32.2-16.57,45.13c-8.26,9.61-18.38,16.6-30.72,20.03c-6.57,1.82-13.24,2.28-19.9,0.56
		c-12.23-3.16-20.66-12.9-22.39-25.64c-0.35-2.54-0.54-5.07-0.36-8.19c1.53,3.12,3.01,5.64,4.97,7.88
		c4.65,5.35,10.75,7.39,17.54,7.72c13.27,0.63,25.02-3.54,35.13-12c11.13-9.31,18.21-21.1,19.88-35.69
		c1.05-9.16-0.98-17.53-7.88-24.23C430.5,153.4,427.89,152.1,425.12,151z"/>
	<path class="st7" d="M411.04,163.68c-0.41,10.03-4.52,17.08-12.5,21.81c-2.33,1.38-4.91,1.94-7.58,1.95c-3.69,0-6.24-2.02-7.1-5.48
		c-1.71-6.89,1.52-15.88,7.25-20.17c3.15-2.36,6.53-4.36,10.08-6.07c3.96-1.91,6.53-1.03,8.52,2.87
		C410.6,160.35,411.05,162.37,411.04,163.68z"/>
	<path class="st7" d="M550.65,219.15c4.26,1.56,8.3,2.58,12.51,2.83c4.29,0.26,8.56,0.09,12.76-0.76
		c8.63-1.74,13.89-8.56,14.29-18.07c0.42-9.86-2.42-18.73-8.02-26.76c-8.63-12.38-20.04-20.78-35.15-24.12
		c0.94-0.63,1.85-0.36,2.7-0.32c7.9,0.42,15.13,3.09,21.81,7.1c17.61,10.58,30.18,25.38,36.67,45.02c2.06,6.25,2.76,12.7,1.18,19.24
		c-2.06,8.53-8.48,14.03-17.26,14.74c-5.15,0.42-10.12-0.42-15.01-2.01C568.48,233.23,556.67,225.79,550.65,219.15z"/>
	<path class="st7" d="M528.28,170.19c-0.14-5.01,1.56-8.29,3.86-11.3c1.13-1.49,2.71-2.18,4.66-1.88c1.98,0.3,3.81,0.9,5.42,2.12
		c6.79,5.15,9.96,14.49,7.7,22.74c-0.94,3.44-3,5.06-6.62,5.18c-4.32,0.14-7.75-1.61-10.43-4.94
		C530.1,178.67,528.31,173.58,528.28,170.19z"/>
	<path class="st8" d="M619.67,390.38c-1.4,8.21-4.3,15.94-7.67,23.49c-10.51,23.55-27.04,41.8-48.78,55.53
		c-15.83,9.99-33.08,16.01-51.45,19.07c-13.58,2.26-27.26,2.98-40.94,1.56c-20.67-2.13-40.32-7.71-57.71-19.53
		c-10.56-7.18-19.37-16.36-27.21-26.39c-11.18-14.33-19.34-30.18-23.24-48.06c2.68,0.56,4.95,2.1,7.37,3.22
		c5.97,2.75,12.05,5.22,18.14,7.66c0.75,0.3,1.52,0.58,2.19,1.06c0.72,0.61,0.93,1.48,1.17,2.32c2.29,8.13,5.38,15.93,10.05,23.01
		c6.61,10.01,13.9,19.4,24.22,25.95c1.03,0.66,2.04,1.34,3.18,1.8c2.21,0.89,4.06,0.37,5.19-1.39c1.13-1.77,0.86-3.31-0.91-5.07
		c-0.58-0.58-1.21-1.1-1.9-1.52c-5.99-3.7-10.67-8.7-14.66-14.45c-4.85-6.99-9.08-14.3-11.93-22.35c-0.34-0.95-1.13-1.96-0.04-2.96
		c0.54-0.16,1.08-0.07,1.6,0.09c7.67,2.42,15.52,4.09,23.42,5.58c0.26,0.05,0.53,0.13,0.78,0.22c0.82,0.34,1.17,1.09,1.57,1.8
		c6.7,11.78,16,20.96,27.77,27.64c6.55,3.72,13.71,5.76,20.99,7.53c9.66,2.35,19.46,2.88,29.29,2.36
		c13.19-0.7,25.83-3.91,37.93-9.24c8.24-3.63,15.54-8.6,21.72-15.12c6.85-7.23,12.66-15.21,16.52-24.49
		c0.41-0.98,0.67-2.08,1.59-2.79c3.43-0.68,6.51-2.3,9.65-3.73c7.07-3.22,13.5-7.52,19.8-12.03
		C618.02,390.67,618.64,389.85,619.67,390.38z"/>
	<path class="st2" d="M390.27,408.25c-6.2-2.31-12.36-4.76-18.35-7.58c-3.12-1.47-6.41-2.6-9.25-4.62
		c-7.69-33.01-1.81-63.77,16.22-92.1c17.67-27.77,42.8-46.2,74.07-56.3c3.02-0.97,6.13-1.64,9.47-2.52
		c-0.48,4.46,0.76,8.14,3.6,11.25c3.29,4.75,7.58,8.33,12.73,10.93c0.8,0.4,2.07,0.5,1.94,1.91c-1.01,0.99-2.37,0.9-3.61,1.13
		c-11.39,2.11-22.45,5.25-32.81,10.56c-8.92,4.57-16.98,10.39-24.53,16.97c-6.37,5.55-12.34,11.45-16.86,18.62
		c-8.01,12.72-14.5,26.11-16.66,41.19c-1.18,8.27-1.48,16.57-0.42,24.91c1.02,8.03,2.56,15.93,4.62,23.74
		C390.59,406.99,390.86,407.66,390.27,408.25z"/>
	<path class="st2" d="M619.67,390.38c-3.36,1.74-6.23,4.21-9.37,6.27c-6.53,4.26-13.46,7.67-20.7,10.49c-0.53,0.2-1,0.47-1.44-0.12
		c-0.63-0.78-0.24-1.57,0.03-2.31c2.9-8.16,4.49-16.61,5.42-25.18c0.8-7.36,0.61-14.72-0.12-22.09c-0.79-8.06-2.31-15.95-4.67-23.69
		c-4.68-15.32-12.25-28.83-24.24-39.77c-11.95-10.91-25.59-18.37-41.43-21.74c-0.86-0.18-1.72-0.37-2.51-0.79
		c-1.57-1-0.79-1.56,0.4-1.93c2.59-0.8,5.17-1.59,7.67-2.66c6.6-2.83,11.62-7.31,14.79-13.82c0.43-0.89,0.74-2.23,2.3-1.54
		c14.07,5.53,26.81,13.19,38.06,23.36c17.08,15.45,29.02,34.12,35.03,56.36c5.11,18.92,5.09,38.06,1.25,57.23
		C620,389.08,620.16,389.82,619.67,390.38z"/>
	<path class="st9" d="M467.59,234.72c3.46-6.83,8.79-11.7,15.47-15.35c7.44-4.06,15.3-5.01,23.61-4.31
		c7.09,0.59,13.46,2.9,19.35,6.76c1.42,0.93,2.82,1.88,3.98,3.15c1.74,1.73,3.24,3.64,4.31,5.86c3.23,6.69,1.68,13.48-4.88,17.7
		c-5.61,3.61-11.93,5.17-18.43,5.9c-9.04,1.01-18.12,0.74-27.15-0.35c-3.31-0.4-6.49-1.31-9.49-2.85c-5.3-2.72-7.33-7.33-7.62-12.96
		C466.66,237,467.44,235.93,467.59,234.72z"/>
	<path class="st10" d="M467.59,234.72c0.31,1.74-0.34,3.4-0.15,5.21c0.8,7.55,5.68,10.94,12.28,12.76
		c4.32,1.19,8.79,1.45,13.21,1.58c5.94,0.17,11.91,0.45,17.83-0.36c6.65-0.91,13.2-2.33,18.87-6.18c6.41-4.35,7.44-11.61,3.22-18.38
		c-0.92-1.49-2.21-2.73-2.87-4.39c5.94,5.04,10.53,10.94,11.31,18.99c0.5,5.21-2.45,8.62-6.6,11.27
		c-5.15,3.28-10.99,4.46-16.83,5.63c-9.36,1.87-18.83,2-28.32,1.61c-4.6-0.19-9.16-0.84-13.61-2.05c-3.06-0.82-5.75-2.43-8.12-4.49
		c-3.2-2.77-4.57-6.28-3.88-10.53C464.55,241.62,465.49,237.97,467.59,234.72z"/>
	<path class="st8" d="M545.8,251.49c-0.82-0.1-1.22,0.38-1.52,1.05c-4.39,9.89-12.68,14.67-22.62,17.35
		c-0.3,0.08-2.09-0.57-1.08,1.08c-0.7,0.7-1.52,0.38-2.29,0.22c-9.24-2-18.59-2.69-28.02-2.36c-2.16,0.08-4.31,0.39-6.46,0.62
		c-1.07,0.11-2.16,0.38-3.11-0.41c-2.77-1.9-6.01-3.07-8.53-5.34c-2.39-2.15-5.08-4.06-6.14-7.33c5.61,5.18,12.63,6.56,19.86,7.22
		c14.03,1.28,27.91,0.41,41.48-3.57c5.6-1.64,10.78-4.14,13.98-9.44c0.36-0.59,0.69-0.71,1.31-0.44
		C543.7,250.59,544.84,250.82,545.8,251.49z"/>
	<path class="st6" d="M480.7,269.04c5.39-0.43,10.76-0.98,16.18-0.92c8.01,0.09,15.88,1.28,23.71,2.85
		c5.85,1.46,11.76,2.77,17.3,5.18c24.45,10.64,41.66,28.12,50.21,53.65c8.4,25.09,8.96,50.24,0.53,75.46
		c-0.19,0.57-0.31,1.17-0.45,1.76c-4.86,11.76-11.91,21.98-21.23,30.67c-8.59,8.02-18.88,12.88-29.91,16.35
		c-22.57,7.11-45.16,7.23-67.56-0.59c-16.71-5.84-29.08-17.04-37.88-32.29c-0.3-0.52-0.63-1.02-0.94-1.53
		c-0.91-0.41-1.14-1.3-1.47-2.1c-3.99-9.57-6.73-19.48-7.97-29.79c-1.3-10.81,0.22-21.35,3.1-31.77c2.7-9.76,6.98-18.63,13.66-26.32
		c11.5-13.26,25.54-21.84,43.31-23.23c11.07-0.86,21.91,0.95,32.57,3.92c6.72,1.88,13.16,4.48,18.8,8.57
		c9.05,6.58,15.95,15.04,20.71,25.2c5.14,10.96,6.88,22.61,5.97,34.53c-1,13.08-5.69,24.74-15.08,34.29
		c-4.19,4.27-8.97,7.63-14.14,10.53c-8.43,4.26-17.4,6.36-26.82,6.07c-7.62-0.23-15.03-1.71-21.87-5.33
		c-5.69-3.15-10.83-6.99-15.06-11.95c-5.47-6.41-8.14-14.07-9.34-22.24c-1.76-12.02,0.7-23.37,6.31-34.04
		c3.24-6.17,8.33-10.5,14.68-13.26c9.4-4.09,19.11-4.67,28.83-1.52c12.25,3.98,19.04,12.87,21.58,25.28
		c1.24,6.09,1.29,12.14-0.53,18.11c-1.77,5.81-4.7,10.82-10.14,13.99c-3.55,2.06-7.51,2.74-11.5,3.17
		c-5.65,0.6-11.09-0.09-16.1-3.05c-3.21-1.9-5.63-4.43-6.9-7.99c-0.89-2.51-0.49-4.45,1.17-5.73c1.57-1.21,3.81-1.14,5.88,0.3
		c1.78,1.24,3.39,2.71,5.19,3.93c1.87,1.26,3.86,1.92,6.13,1.79c4.25-0.25,8.37-0.92,11.86-3.65c1.7-1.33,3.08-2.91,3.48-5.09
		c1.27-6.92,0.27-13.54-3.06-19.7c-3.09-5.73-7.99-9.07-14.5-10.03c-4.78-0.7-9.48-0.41-14.08,1.03c-5.19,1.62-9.08,4.92-11.42,9.79
		c-3.88,8.08-5.3,16.62-4.11,25.54c2.17,16.29,15.86,25.62,28.8,27.35c12.39,1.65,23.4-1.46,33.18-9.11
		c6.65-5.2,11.13-12.03,13.06-20.14c4.43-18.62,1.08-35.55-11.61-50.43c-7.49-8.78-17.27-12.79-28.05-15.25
		c-7.58-1.73-15.27-2.53-23.03-2.05c-6.79,0.42-13.31,2.19-19.14,5.74c-9,5.49-16.54,12.57-21.51,22
		c-4.22,8.01-6.47,16.67-7.45,25.65c-1.53,14.02,1.74,27.21,7.04,40.03c1.36,3.28,3.33,6.21,5.45,9.04
		c9.48,12.19,21.66,19.92,36.89,23.11c9.06,1.9,18.17,2.43,27.28,1.86c14.88-0.92,29-4.86,41.62-13.07
		c7.85-5.1,13.79-12.15,18.83-19.97c6.07-9.77,8.9-20.59,10.44-31.85c0.79-5.8,1.04-11.63,0.74-17.45
		c-0.87-16.98-4.85-33.16-13.78-47.78c-5.38-8.8-13.06-15.52-21.31-21.59c-8.49-6.23-18.21-9.47-28.33-11.84
		c-9.72-2.27-19.56-3.21-29.48-2.56c-12.35,0.8-24.21,3.83-35.59,8.75c-10.4,4.5-19.35,11.14-27.81,18.55
		c-14.75,12.92-23.33,29.48-27.57,48.27c-2.98,13.17-1.57,26.43,1.42,39.52c1.15,5.03,2.49,10,4.09,14.91
		c0.31,0.95,0.73,1.91,0.53,2.97c1.17,4.12,2.89,8.02,4.8,11.83c3.39,6.75,7.62,12.96,12.37,18.81c2.46,3.04,5.56,5.34,8.73,7.56
		c0.94,0.66,1.93,1.26,2.84,1.96c2.23,1.75,2.8,4.19,1.5,6.26c-1.32,2.11-3.99,2.75-6.46,1.32c-4.47-2.58-8.74-5.48-12.35-9.2
		c-11.55-11.9-20.54-25.34-24.82-41.58c-0.2-0.78-0.53-1.53-0.8-2.29c-1.22-5.47-2.61-10.91-3.7-16.42
		c-4.98-25.33-0.24-48.79,12.82-70.9c7.3-12.35,17.34-21.93,28.61-30.47c15.38-11.64,32.8-18.24,51.76-21.06
		C480.09,269.36,480.39,269.17,480.7,269.04z"/>
	<path class="st2" d="M404.46,413.58c-2.24-5.54-3.65-11.32-5-17.11c-2.83-12.11-4.02-24.33-2.29-36.74
		c0.62-4.45,1.61-8.8,3.13-13.02c12.56-34.88,37.66-55.53,73.15-64.26c19.35-4.76,38.51-3.16,57.05,3.52
		c20.38,7.34,35.56,20.92,43.98,41.14c10.44,25.09,11.55,50.64,2.31,76.39c-1.32,3.69-3.01,7.24-5.34,10.44
		c-0.76,0.71-1.65,1.14-2.64,1.45c-11.13,3.51-22.39,6.43-33.99,7.92c-1.07,0.14-2.15,0.24-3.23,0.36c-0.62,0.07-1.41,0.29-1.62-0.7
		c15.03-8.14,24.83-20.47,27.73-37.32c4.45-25.88-3.08-47.87-23.47-64.9c-6.4-5.35-14.15-8.19-22.14-10.29
		c-10.96-2.87-22.06-4.59-33.4-3.16c-9.55,1.2-18.41,4.38-26.35,9.97c-17.1,12.05-26.54,28.67-29.9,49.13
		c-2.89,17.6,0.51,34.23,7.04,50.47c0.37,0.93,0.77,1.85,1.16,2.77c-8.61-1.35-17.06-3.37-25.39-5.93
		C405,413.63,404.72,413.62,404.46,413.58z"/>
	<path class="st11" d="M497.82,247.8c-2.5,0-5.01,0-7.51,0c-0.54,0-1.09,0-1.61,0.1c-0.47,0.09-0.75,1.05-1.33,0.48
		c-0.59-0.58,0.06-1.12,0.39-1.58c5.95-8.08,13.83-12.15,23.97-11.21c4.71,0.44,8.13,3.07,10.65,6.98c0.92,1.42,0.69,2.24-1.04,2.81
		c-5.08,1.69-10.35,2.02-15.61,2.38C503.11,247.95,500.46,247.8,497.82,247.8z"/>
	<path class="st2" d="M446.16,422.09c-2.43-2.79-4.26-5.97-5.68-9.35c-5.4-12.86-8.62-26.16-7.04-40.23
		c1.9-16.98,8.13-31.76,21.85-42.84c8.8-7.11,18.66-10.9,29.9-11.12c9.93-0.19,19.62,1.48,28.97,4.75
		c17.51,6.13,27.33,19.17,31.59,36.66c2.45,10.04,2.29,20.17-1.25,30.08c-6.7,18.74-25.85,28.8-43.75,27.02
		c-5.97-0.59-11.48-2.32-16.65-5.43c-14.51-8.73-16.99-24.69-14.61-36.63c0.52-2.58,1.26-5.14,2.11-7.64
		c3.35-9.89,10.05-15.04,20.5-15.69c7.93-0.5,15.28,0.99,20.36,7.78c5.21,6.96,6.58,14.94,4.88,23.35
		c-0.87,4.26-4.48,6.19-8.18,7.48c-6.17,2.14-12.11,2.08-17.15-2.95c-1.09-1.09-2.33-2.05-3.92-2.46c-3.01-0.77-5.37,1.36-4.72,4.39
		c0.84,3.88,3.21,6.81,6.53,8.69c9.38,5.32,19,4.6,28.14-0.32c6.57-3.53,9.03-10.22,10.24-17.25c1.02-5.92,0.33-11.78-1.37-17.5
		c-3.49-11.73-11.2-19.13-23.13-21.93c-8.57-2.01-16.99-1.33-25.12,2.08c-6.48,2.71-11.67,7.06-14.87,13.31
		c-6.6,12.88-8.8,26.35-4.74,40.58c3.17,11.12,10.02,19.21,19.72,25.12c0.92,0.56,1.83,1.14,2.75,1.72
		c-0.47,1.29-1.62,0.95-2.55,1.01c-4.19,0.27-8.37-0.28-12.54-0.48c-5.99-0.3-11.99-0.75-17.96-1.48
		C447.64,422.69,446.84,422.61,446.16,422.09z"/>
	<path class="st8" d="M446.16,422.09c6.36,0.52,12.71,1.23,19.08,1.51c5.18,0.22,10.36,0.8,15.57,0.5c0.24-0.01,0.46-0.23,0.69-0.36
		c16.27,7.37,32.43,6.84,48.46-0.77c1.45,0.72,2.92,0.01,4.3-0.17c12.7-1.64,25.02-4.9,37.18-8.86
		c-6.01,9.75-13.55,18.07-23.9,23.19c-24.01,11.88-48.88,13.82-74.35,5.28C461.99,438.66,453.27,431.39,446.16,422.09z"/>
	<path class="st12" d="M489.83,246.18c5.57-6.61,12.27-9.74,20.54-9.43c4.28,0.16,7.63,2.06,10.22,5.44
		c0.89,1.16,0.96,1.66-0.67,2.12c-6.73,1.91-13.64,2.03-20.54,2.28C496.34,246.7,493.29,246.72,489.83,246.18z"/>
</g>
</svg>
