<?xml version="1.0" encoding="utf-8"?>
<!-- Generator: Adobe Illustrator 24.3.0, SVG Export Plug-In . SVG Version: 6.00 Build 0)  -->
<svg version="1.1" id="Layer_1" xmlns="http://www.w3.org/2000/svg" xmlns:xlink="http://www.w3.org/1999/xlink" x="0px" y="0px"
	 viewBox="0 0 720 720" style="enable-background:new 0 0 720 720;" xml:space="preserve">
<style type="text/css">
	.st0{fill:#11161C;}
	.st1{fill:#FDED7C;}
	.st2{fill:#00273C;}
	.st3{fill:#FBD03E;}
	.st4{fill:#E31E26;}
	.st5{fill:#DBCC6B;}
	.st6{fill:#CF7386;}
	.st7{fill:#00273B;}
	.st8{fill:#EA8498;}
	.st9{fill:#00263B;}
	.st10{fill:#8F311D;}
	.st11{fill:#8C311C;}
	.st12{fill:#E8E8E8;}
	.st13{fill:#EFEEEE;}
	.st14{fill:#DFE0E0;}
	.st15{fill:#13191D;}
	.st16{fill:#14191D;}
	.st17{fill:#272B25;}
	.st18{fill:#545438;}
	.st19{fill:#1C2020;}
	.st20{fill:#FFFFFF;}
	.st21{fill:#D42027;}
	.st22{fill:#EEC3C7;}
</style>
<g>
	<path class="st0" d="M144,183.14c3-0.77,5.66,0.56,8.27,1.57c18.82,7.3,37.6,14.71,56.39,22.1c4.06,1.6,8.11,3.23,12.73,5.06
		c-3.39-6.44-7.61-11.75-10.77-18.36c12.73,3.37,24.22,8.35,36.62,12.88c-1.15-1.99-2-3.51-2.89-5.01
		c-17.64-29.9-35.29-59.78-52.89-89.7c-1.39-2.37-2.52-4.89-3.71-7.37c-0.3-0.62-0.58-1.49,0.08-1.99c0.62-0.48,1.34-0.06,1.98,0.3
		c2.87,1.6,5.4,3.68,7.9,5.79c16.63,14.04,33.24,28.1,49.86,42.15c0.53,0.45,1.08,0.88,1.96,1.59c-0.11-3.27-1.3-5.84-2.05-8.49
		c-1.09-3.82-2.39-7.58-3.47-11.41c-0.37-1.32-1-3.18,0.45-3.95c1.2-0.64,2.41,0.77,3.31,1.71c3.67,3.84,7.18,7.85,10.95,11.58
		c4.26,4.2,8.74,8.17,12.81,11.95c-2.63-11.83-5.44-24.26-8.14-36.71c-3.41-15.75-7.15-31.44-9.8-47.36
		c-0.43-2.61-0.65-5.27-0.77-7.92c-0.04-0.91-0.19-2.29,0.99-2.65c0.95-0.29,1.66,0.69,2.22,1.37c1.63,1.96,3.3,3.91,4.74,6
		c16.06,23.3,31.05,47.3,46.49,71c0.49,0.75,0.76,1.68,1.98,2.29c0.55-5.7,1.07-11.25,1.64-16.8c0.76-7.41,1.55-14.82,2.37-22.23
		c0.12-1.09,0.18-2.67,1.4-2.79c1.46-0.14,1.68,1.56,2.03,2.64c3.31,10.31,5.51,20.91,8.32,31.35c0.95,3.53,1.83,7.08,2.74,10.62
		c1.21-0.14,1.06-1.22,1.31-1.89c7.27-19.49,14.5-39,21.73-58.51c1.06-2.87,2.15-5.74,3.75-8.36c0.41-0.68,0.84-1.58,1.81-1.39
		c0.93,0.18,1.04,1.16,1.23,1.93c0.85,3.5,1.01,7.08,1.14,10.65c0.69,17.78,1.16,35.56,1.3,53.35c0,0.37,0.04,0.74,0.08,1.65
		c5.98-8.11,11.55-15.84,17.31-23.45c14.61-19.32,29.27-38.59,43.97-57.83c1.66-2.17,3.68-4.06,5.53-6.07c0.41,0,0.82,0,1.23,0
		c0.84,4.29-0.57,8.31-1.57,12.34c-7.53,30.31-15.13,60.6-22.71,90.9c-0.09,0.38-0.12,0.78-0.23,1.61
		c11.98-10.06,22.95-20.68,35.38-29.83c-6.87,21.72-16.28,42.34-24.42,63.98c4.92-2.93,8.25-7.26,13.68-9.82
		c-1.2,7.28-5.02,12.9-7.75,19.82c1.64-1.14,2.73-1.86,3.79-2.63c18.33-13.36,36.64-26.73,54.99-40.07
		c1.89-1.38,3.93-2.57,5.93-3.79c0.4-0.24,1.1-0.46,1.4-0.28c0.63,0.39,0.35,1.09,0.07,1.64c-1.41,2.71-2.7,5.5-4.3,8.1
		c-16.31,26.54-33.44,52.55-50.32,78.73c-0.99,1.54-1.98,3.08-2.97,4.62c0.08,0.14,0.16,0.27,0.24,0.41
		c2.07-1.17,4.11-2.38,6.21-3.5c2.7-1.44,5.42-2.84,8.17-4.18c0.69-0.34,1.62-0.91,2.28-0.26c0.74,0.72-0.07,1.53-0.45,2.16
		c-1.33,2.17-2.67,4.35-4.16,6.42c-5.08,7.05-10.22,14.04-15.33,21.06c-0.6,0.82-1.17,1.66-1.79,2.54c1.14,0.47,1.83-0.32,2.6-0.65
		c10.51-4.47,21-8.98,31.52-13.42c1.49-0.63,3.1-1.01,4.67-1.45c0.58-0.16,1.33-0.26,1.7,0.28c0.39,0.56-0.07,1.18-0.38,1.69
		c-1.92,3.17-4.39,5.9-6.89,8.59c-7.5,8.1-15.02,16.18-22.61,24.19c-1.64,1.73-2.18,2.69-0.04,4.72
		c16.22,15.4,26.9,34.55,36.13,54.58c5.9,12.79,10.83,25.98,13.9,39.78c0.44,1.98,0.7,4.04,0.72,6.07c0.05,3.88-1.32,4.88-5.17,4.08
		c-0.59-0.12-1.15-0.33-1.74-0.51c-1.01,9.6-1.01,9.6-7.46,6.39c-1.56,6.48-1.92,6.58-7.42,1.82c-0.13,0.24-0.33,0.48-0.4,0.76
		c-0.35,1.38-0.41,3.33-1.83,3.64c-1.68,0.36-2.29-1.69-3.25-2.8c-0.53-0.61-0.96-1.33-1.29-2.07c-1-2.27-1.67-4.54-5.07-2.43
		c-1.69,1.05-3.37,0.07-3.23-2.4c0.01-0.1-0.04-0.21-0.01-0.3c1.61-5.33-1.63-8.81-4.66-12.42c-3.93-4.69-7.81-9.42-11.99-13.98
		c2.56,5.87,5.24,11.65,7.58,17.57c7.03,17.76,11.93,36.21,17.35,54.48c1.8,6.06,4,11.99,5.84,18.04
		c4.06,13.37,12.92,23.75,21.31,34.42c2.02,2.56,3.85,6.45,6.41,7.08c2.66,0.65,5.32-3.15,8.11-4.81c2.63-1.57,5.19-3.25,7.8-4.84
		c0.59-0.36,1.33-0.86,1.99-0.39c0.7,0.51,0.27,1.35,0.12,2.01c-0.82,3.52-2.69,6.6-4.19,9.83c-1.46,3.15-4.01,6.26-4.09,9.43
		c-0.08,3.06,3.6,5.44,5.04,8.45c1.41,2.96,3.29,4.24,6.68,3.6c1.96-0.37,4.07,0.02,6.11,0.17c0.73,0.06,1.88-0.29,2.05,0.79
		c0.14,0.93-0.9,1.31-1.58,1.68c-1.78,0.98-3.65,1.81-5.44,2.79c-0.69,0.38-2.02,0.36-1.74,1.62c0.33,1.47,1.61,0.92,2.55,0.85
		c10.69-0.82,21.38-1.67,32.07-2.51c0.29-0.02,0.59,0,0.95,0c-0.12,1.47-1.4,1.72-2.26,2.28c-7.87,5.17-16.41,9.1-24.73,13.43
		c-0.93,0.48-2.44,0.52-2.51,1.87c-0.09,1.7,1.55,1.93,2.7,2.49c15.95,7.78,31.92,15.53,47.86,23.33c2.71,1.33,5.32,2.84,7.98,4.27
		c0,0.41,0,0.82,0,1.23c-1.74,1.32-3.77,0.93-5.63,0.7c-15.58-1.87-30.71-5.71-44.75-10.31c7.53,4.74,15.77,10.01,23.54,15.98
		c0.93,0.71,2.29,1.57,1.51,2.96c-0.75,1.33-2.23,0.69-3.37,0.4c-8.12-2.08-16.1-4.67-24.18-6.92c-4.68-1.31-4.51-1.25-6.29,3.14
		c-3.11,7.67-6.09,15.45-11.83,21.68c-1.45,1.57-0.71,2.69,0.32,3.99c5.77,7.22,10.47,15.12,14.65,23.34
		c1.82,3.58,3.04,7.36,3.75,11.32c0.36,2.01,0.29,4.09-1.33,5.4c-1.63,1.31-1.49,2.67-1.16,4.35c0.32,1.59,0.74,3.29-1.08,4.39
		c-1.02,0-2.05,0-3.07,0c-1.81-1.42-3.61-2.85-5.43-4.27c-0.42-0.33-0.82-1.01-1.35-0.01c-1.18,2.25-2.91,1.34-4.45,0.57
		c-4.33-2.15-8.07-5.17-11.82-8.16c-10.15-8.08-19.49-17.16-30.38-24.31c-7.51-4.93-14.91-10.07-22.66-14.58
		c-6.1-3.55-13.1-5.05-19.89-6.92c-24.73-6.81-49.91-10.68-75.57-10.91c-16.52-0.15-32.81,1.73-48.66,6.68
		c-1.47,0.46-2.55,1.09-3.41,2.65c-1.4,2.54-4.08,3.94-6.56,5.36c-11.09,6.35-22.88,11.23-34.52,16.43
		c-11.74,5.25-23.24,10.97-34.7,16.79c-1.91,0.97-3.85,1.88-5.83,2.68c-3.6,1.45-4.66,0.62-4.28-3.44
		c-1.63,0.93-3.15,1.82-4.71,2.66c-0.94,0.51-2.03,0.78-2.93,0.18c-1.1-0.73-0.37-1.84-0.2-2.81c0.41-2.44,1.93-4.4,2.89-6.67
		c-1.37-0.19-2.81,1.53-3.77,0.25c-0.99-1.33-0.04-2.98,0.66-4.3c5.17-9.8,12.13-18.17,20.71-25.13c2.02-1.63,1.92-2.49,0.46-4.39
		c-5.84-7.61-8.52-16.45-9.11-25.9c-1.21-19.26,4.09-37.18,11.71-54.56c5.43-12.38,12.07-24.14,20.19-34.93
		c8.39-11.15,12.92-23.78,15.78-37.16c5.07-23.71,7.07-47.68,5.5-71.89c-0.62-9.56-1.88-19.06-3.97-28.43
		c-1.24-0.11-1.8,0.73-2.5,1.22c-12.63,8.73-26.11,15.97-39.78,22.89c-4.76,2.41-9.04,5.56-13.42,8.56
		c-3.37,2.31-3.35,2.34-5.25-1.19c-0.19-0.35-0.39-0.7-0.7-1.27c-0.77,0.76-1.46,1.41-2.13,2.09c-3.46,3.52-4.77,3.2-6.12-1.5
		c-4.9,3.59-5.16,3.49-6.03-2.28c-0.1,0-0.21-0.04-0.29-0.01c-5.61,2.1-5.8,1.84-5.21-4.19c0.87-8.91,4.44-16.64,9.46-23.92
		c12.76-18.51,26.26-36.48,39.89-54.35c0.79-1.03,1.58-2.06,2.73-3.55c-5.81,0.6-11.03,1.16-16.26,1.66
		c-1.83,0.18-3.67,0.26-5.5,0.28c-0.86,0.01-2.08,0.28-2.35-0.86c-0.25-1.06,0.87-1.6,1.62-1.99c3.34-1.76,6.73-3.41,10.11-5.08
		c2.09-1.02,4.2-2,6.77-3.22c-24.84-10.98-49.68-20.69-74.04-31.47c0.15-0.51,0.29-1.01,0.44-1.52c20.12-0.44,40.07,2.53,60.75,3.33
		c-5.55-3.57-10.68-6.84-15.79-10.16c-1.88-1.22-3.75-2.48-5.54-3.83c-0.67-0.51-1.87-1.1-1.49-2.07c0.41-1.03,1.57-0.51,2.46-0.38
		c5.77,0.87,11.28,2.8,16.92,4.22c2.83,0.71,5.64,1.48,8.71,1.72c-3.71-3-7.43-6-11.14-9c-19.61-15.88-39.23-31.76-58.82-47.68
		c-1.57-1.28-2.88-2.87-4.31-4.32C144,183.55,144,183.35,144,183.14z"/>
	<path class="st1" d="M356.84,329.64c1.2-3.28,0.99-7.13,3.96-9.72c0.32-0.28,0.61-1.15,0.45-1.34c-1.8-2.06-0.16-3.81,0.54-5.52
		c0.69-1.71,1.14-3.93,3.44-4.24c2.02-0.27,6.62,3.05,7.4,4.94c0.31,0.75,0.2,1.34-0.16,2.02c-0.57,1.08-1.09,2.2-1.56,3.32
		c-0.42,1-1.31,2.25-0.29,3.09c1,0.82,2.15-0.15,3.02-0.81c1.21-0.92,2-1.32,3.04,0.39c1.49,2.46,3.92,1.83,6.05,1.04
		c6.98-2.61,11.81-7.48,14.73-14.31c3.27-7.65,5.2-15.68,6.69-23.83c0.07-0.37,0.14-0.73,0.29-1.56c2.26,1.97,4.2,3.74,6.23,5.39
		c1.17,0.95,0.46,1.42-0.26,2.09c-1.41,1.3-3.16,2.24-4.44,4.1c1.62,0.75,3.21,0.74,4.75,0.48c1.74-0.29,2.15,0.37,1.97,1.97
		c-0.44,3.82-0.69,7.66-0.52,11.99c3.3-2.24,4.58-5.65,7.11-7.98c4.25,5.51,6.89,12.16,12.28,17.72c0.55-4.54-0.69-8.14-1.21-11.79
		c-0.34-2.42-0.82-4.84-1.4-7.21c-0.32-1.33,0.11-2.23,1.1-2.9c1.36-0.92,1.76,0.58,2.35,1.19c19.4,19.86,32.86,43.36,42.33,69.29
		c3.08,8.44,6.13,16.89,8.16,25.66c0.45,1.95,1.6,4.49,0.07,5.79c-1.31,1.11-3.27-0.97-4.97-1.57c-0.37-0.13-0.74-0.29-1.52-0.61
		c0,2.41,0.03,4.58-0.01,6.75c-0.02,0.99,0.42,2.25-0.53,2.87c-1.02,0.67-1.84-0.45-2.71-0.9c-1.07-0.55-2.1-1.18-3.17-1.79
		c-0.64,1.4-0.68,2.73-0.81,4.05c-0.08,0.78,0.18,1.87-0.7,2.19c-0.82,0.3-1.41-0.64-2.04-1.1c-1.21-0.88-2.35-1.88-3.62-2.91
		c-0.61,1.63-1.13,3.03-1.72,4.62c-2.25-1.81-3.22-4.21-4.44-6.39c-0.88-1.57-1.65-2.52-3.39-0.97c-0.74,0.66-1.81,1.41-2.77,0.76
		c-0.95-0.64-0.68-2-0.35-2.84c1.71-4.3-0.47-7.26-3.01-10.37c-12.04-14.76-25.01-28.64-38.77-41.8c-2-1.91-3.9-4.1-7.06-4.97
		c0.04,1.75,1.06,2.6,1.94,3.51c5.85,6.14,11.71,12.29,17.58,18.41c0.92,0.97,1.8,1.92,2.25,3.23
		c7.78,22.49,14.69,45.23,19.72,68.51c0.12,0.57,0.19,1.16,0.32,2c-4.63-1.02-8.55-3.56-13.5-3.89
		c5.17,6.29,10.34,12.59,16.07,19.56c-5.23-1.12-9.74-1.91-14.74-1.99c1.4,2.15,3.39,3.03,5.13,4.12
		c6.77,4.23,13.32,8.76,19.32,14.04c4.61,4.05,8.72,8.46,12.14,13.69c7.4,11.31,16.59,21.26,25.01,31.79
		c12.18,15.23,21.47,32.14,23.28,51.82c1.33,14.39-3.17,27.82-11.7,39.68c-4.88,2.84-10.3,2.35-15.55,2.21
		c-20.29-0.55-39.72-6.21-59.38-10.44c-20.69-4.46-41.34-9.24-62.47-10.91c-22.36-1.77-44.73-2.07-66.63,4.19
		c-10.49,3-19.86,7.97-27.75,15.64c-4.78,4.64-10.08,8.54-16.2,11.42c-15.37,7.24-30.16,15.54-44.23,25.09
		c-1.63,1.11-1.76,1.05-3.03,0.11c0.69-3.39,3.02-5.7,5.27-8.08c0.94-1,2.32-1.77,2.12-3.49c-2.49,0.6-2.45,0.63-7.03,6.5
		c-2.12,2.71-5.08,4.31-8.89,6.02c1.8-6.64,5.93-11.29,8.84-16.7c-3.61,1.29-5.43,4.85-8.68,6.89c-0.33-1.67,0.6-2.73,1.24-3.78
		c5.55-9,12.93-16.29,21.18-22.78c1.33-1.04,2.07-0.6,3.11,0.31c4.92,4.28,10.6,6.88,17.15,7.38c5,0.38,9.75-0.7,14.39-2.47
		c-4.7-0.15-9.37,0.26-13.97-0.59c-14.84-2.76-22.93-12.54-26.63-26.41c-3.78-14.17-2.01-28.18,2.15-42
		c5.85-19.45,15.18-37.29,26.54-53.95c10.78-15.8,16.34-33.26,19.02-51.84c2.98-20.69,4.01-41.5,2.6-62.39
		c-0.97-14.43-4-28.47-7.51-42.47c-3.64-14.52-4.99-29.39-5.28-44.35c-0.07-3.66,1.06-7.06,2.28-10.41
		c5.32-14.68,13.07-27.9,24.07-39.08c2.81-2.86,6.01-5.23,9.58-7.07c5.66-2.91,8.23-2.68,13.04,1.49c3.71,3.21,7.38,6.48,10.87,9.92
		c3.54,3.5,7.7,5.75,12.51,6.69c8.3,1.63,15.6,5.28,22.33,10.3c13.51,10.07,24.96,22.01,33.52,36.61c0.47,0.79,0.94,1.58,1.46,2.34
		c3.79,5.61,5.57,6.11,11.93,3.12c-2.4,7.29-6.97,12.31-13.56,15.52c-2.15,1.04-3.98,0.6-4.97-1.85c-0.34-0.85-0.87-1.63-1.14-2.5
		c-1.88-6.11-6.41-8.79-12.34-10.04c-13.43-2.82-24.7-9.41-33.68-19.83c-0.76-0.89-1.44-1.89-3.18-2.47
		c5.2,7.42,4.88,16.05,7.7,23.73c2.41,6.55,4.5,13.21,10.22,17.8c2.84,2.28,5.66,4.86,10.05,3.06c-0.62,2.46-2.06,3.08-4.13,2.54
		c-2.94-0.77-5.31-2.58-7.61-4.45c-7.17-5.87-12.97-13.01-18.63-20.28c-0.93-1.2-1.94-2.34-2.93-3.54
		c-0.97,0.88,0.27,1.37,0.07,2.01c1.07,2.76,1.59,5.66,2.27,8.52c2.35,9.93,8.56,16.99,17.05,22.12
		C349.37,340.6,353.88,338.7,356.84,329.64z"/>
	<path class="st2" d="M320.04,190.24c8-2.12,15.43-1.36,22.91-0.4c7.94,1.03,15.62,2.86,22.74,6.59
		c19.15,10.02,31.3,25.21,34.83,46.9c1.59,9.76,2.86,19.57,2.35,29.44c-0.51,9.75-1.51,19.53-7.2,28c-0.67,1.01-1.49,1.95-2.38,2.77
		c-2.06,1.9-4.74,1.64-6.24-0.7c-2.64-4.12-4.64-8.61-7.55-12.58c-5.87-8.01-12.81-14.99-20.38-21.39
		c-4.92-4.15-10.09-7.89-15.59-11.23c-4.41-2.68-9.02-4.84-14.08-5.72c-5.46-0.95-9.92-3.56-13.8-7.32
		c-3.73-3.62-7.64-7.04-11.62-10.38c-5.35-4.5-7.61-5-14.56-0.93c-7.1,4.16-12.62,10.23-17.94,16.46
		c-7.25,8.49-12.66,17.95-16.01,28.61c-0.37,1.19-0.11,2.7-1.83,3.91c0.59-5.28,1.03-10.17,1.7-15.04
		c0.66-4.72,1.41-9.44,2.71-14.04c0.55-1.95,0.12-3.29-2.02-3.92c-1.25-0.37-2.4-1.07-3.78-1.7c0.72-1.21,1.8-1.22,2.88-1.24
		c1.02-0.02,2.12,0.14,3.03-0.19c0.9-0.32,2.36,0.08,2.62-1.09c0.24-1.05-1.23-1.16-1.81-1.82c-2.08-2.39-4.86-3.98-7.87-6.58
		c3.72,0.66,6.67,1.27,9.66,1.65c1,0.12,2.52,0.68,3.05-0.53c0.45-1.02-0.6-2.08-1.18-3c-0.8-1.27-1.77-2.42-2.66-3.61
		c0.32-0.3,0.48-0.57,0.58-0.54c5.29,1.21,5.16,1.12,8.43-3.4c8.36-11.56,18-21.83,30.44-29.15c2.91-1.71,3.07-1.66,3.47,1.59
		c1.04,8.66,1.29,17.42,3.65,25.89c0.6,2.17,0.62,2.33,1.97,3.91c0.84-0.92,0.39-1.86,0.16-2.83c-2.16-9.13-2.83-18.44-3.44-27.77
		c-0.37-5.61-0.51-11.2-0.53-16.8c0-1.33-0.22-3.03,1.16-3.54c1.67-0.62,2.3,1.19,3.18,2.25c8.31,9.92,15.98,20.31,22.99,31.19
		c3.42,5.31,6.78,10.67,9.64,16.31c0.69,1.36,1.47,2.63,3.7,3.6c-3.34-8.06-7.52-14.87-11.62-21.7
		C329.74,203.38,325.27,196.83,320.04,190.24z"/>
	<path class="st3" d="M381.44,203.45c-14.98-12.51-32.62-17.04-51.71-17.19c-3.08-0.02-6.12,0.29-9.1,1.04
		c-1.84,0.46-2.99-0.02-4.14-1.53c-2.66-3.49-5.47-6.88-8.87-9.7c-2.62-2.17-3.51-1.8-4.19,1.46c-0.8,3.84-0.83,7.76-0.47,11.59
		c0.33,3.54-0.89,5.54-4.04,6.7c-0.57,0.21-1.1,0.51-1.65,0.77c-1.29-0.65-1.4-1.96-1.64-3.13c-2.07-10.11-4.2-20.21-6.44-30.29
		c-0.16-0.7-0.33-1.4-0.33-2.12c0.01-2.02,0.87-2.58,2.73-1.68c1.65,0.8,3.05,2.05,5.22,2.88c-0.19-2.11-0.82-3.9-1.25-5.71
		c-0.88-3.68-1.85-7.33-2.72-11.02c-0.27-1.16-0.9-2.73,0.43-3.33c1.15-0.52,1.89,0.96,2.48,1.84c2.93,4.4,6.22,8.55,8.87,13.13
		c-1.19-2.03-1.5-4.33-2.08-6.55c-1.58-6.14-3.09-12.29-4.61-18.45c-0.33-1.34-1.04-2.74,0.01-4.1c4.13,6.05,8.25,12.11,12.86,18.86
		c2.34-13.69,3.04-26.76,4.82-39.77c4.21,14.2,7.15,28.75,12.03,42.9c10.31-22.74,18.35-46.26,27.88-69.33
		c0.38,22.63,0.76,45.26,1.14,67.89c0.37,0.06,0.75,0.12,1.12,0.18c21.51-30,44.02-59.24,66.68-88.58
		c-1.09,4.55-2.14,9.11-3.26,13.65c-4.17,16.85-8.36,33.69-12.57,50.53c-0.39,1.56-0.92,3.08-1.38,4.63
		c-4.55,12.57-10.58,24.51-15.72,36.83c-2.39,5.75-4.89,11.45-7.5,17.41c1.8-1.43,3.03-3.15,4.89-4.08c0.53-0.26,1.12-0.64,1.7-0.18
		c0.45,0.36,0.41,0.94,0.24,1.41c-2.78,7.56-5.26,15.23-8.68,22.55C382.08,203.24,381.74,203.36,381.44,203.45z"/>
	<path class="st4" d="M381.44,203.45c3.07-8.06,6.14-16.13,9.21-24.19c-0.16-0.12-0.32-0.23-0.48-0.35
		c-2.33,2.04-4.66,4.08-7.48,6.53c0.69-3.32,2.04-5.69,3.11-8.15c6.72-15.41,13.48-30.8,20.25-46.19c0.32-0.73,0.81-1.38,1.22-2.07
		c-1.23,7.77-3.56,15.28-5.22,22.95c-0.79,3.67-1.61,7.34-2.09,11.25c12.16-8.82,22.83-19.27,34.37-28.86
		c-8.07,21.34-17.18,42.27-24.7,63.92c5.25-2.81,9.19-7.23,14.68-11.21c-3.22,7.28-6.07,13.74-8.93,20.2
		c22.19-14.5,43.41-30.18,65.11-45.33c-18.85,30.54-38.55,60.54-57.17,91.2c0.18,0.2,0.36,0.4,0.54,0.6
		c5.35-2.85,10.71-5.7,16.06-8.55c-6.85,11.12-15.13,21.18-21.82,32.59c13.57-5.74,27.14-11.48,40.7-17.22
		c-2.02,4.26-5.18,7.36-8.16,10.58c-7.77,8.41-15.64,16.73-23.56,25c-1.42,1.48-1.7,2.71-0.93,4.59c1.65,4.06,2.77,8.29,3.38,12.68
		c-3.7-5.82-6.47-12.13-9.75-18.49c-2.41,2.79-3.48,6.06-5.97,9.5c0.72-3.4,1.23-5.95,1.79-8.49c0.75-3.4,0.46-3.7-2.99-3.09
		c-0.38,0.07-0.78,0.01-1.23,0.01c3.92-3.83,4.15-4.16-0.32-7.32c-4.69-3.32-6.48-6.98-5.76-12.94c1.37-11.33-0.05-22.59-2.76-33.71
		c-1.03-4.24,0.84-8.47,1.32-12.71c1.53-13.28,3.73-26.51,3.45-39.95c-0.03-1.57,0.51-3.75-1.25-4.41
		c-1.67-0.62-2.84,1.25-3.96,2.36c-5.98,5.9-11.41,12.3-16.21,19.18C384.08,205.98,382.97,205.89,381.44,203.45z"/>
	<path class="st4" d="M297.95,128.07c1.83,9.62,4.73,18.98,7,28.49c0.16,0.69,0.56,1.32,0.15,2.36
		c-3.92-5.61-7.74-11.09-11.55-16.56c-0.2,0.08-0.39,0.15-0.59,0.23c1.73,7.03,3.45,14.05,5.36,21.8c-3.21-1.97-5.83-3.57-9.2-5.64
		c2.83,13.11,5.49,25.48,8.16,37.85c-4.49,3.07-9.01,6.09-13.14,9.65c-1.56-0.47-2.01-1.96-2.73-3.14
		c-5.58-9.12-11.47-18.04-16.9-26.85c1.41,6.07,2.3,12.54,3.47,18.94c0.73,4.02,1.54,8.02,2.1,12.07c0.14,0.97,0.68,2.27-0.44,2.77
		c-1.12,0.5-1.76-0.75-2.34-1.52c-5.09-6.75-10.22-13.48-14.88-19.89c0.99,4.76,2.04,9.99,2.81,15.27c0.11,0.74,0.37,1.75-0.67,2.12
		c-0.88,0.31-1.53-0.35-2.17-0.85c-2.41-1.92-4.02-4.59-6.23-6.71c-14.74-24.98-29.48-49.95-44.22-74.93
		c-2.65-4.48-5.28-8.97-8.07-13.71c1.27-0.1,1.71,0.82,2.29,1.31c17.01,14.37,33.66,29.18,51.12,43.02
		c1.44,1.14,2.94,2.21,4.45,3.25c0.64,0.44,1.32,1.26,2.16,0.76c0.96-0.58,0.61-1.7,0.41-2.53c-0.63-2.57-1.32-5.13-2.12-7.66
		c-1.28-4.06-2.66-8.08-3.77-12.24c9.19,8.25,17.15,17.67,26.83,25.48c-5.33-31.61-13.19-62.63-19.02-94.89
		c3.15,3.35,5.14,6.55,7.22,9.66c11.35,16.98,22.64,34.01,33.95,51.03C297.64,127.31,297.78,127.7,297.95,128.07z"/>
	<path class="st4" d="M251.63,270.93c-0.8,7.63-0.99,15.26-0.85,22.95c0.1,5.67-0.83,11.35-1.69,17c-0.32-5.7-0.64-11.4-1.02-18.13
		c-2.63,5.57-4.89,10.36-7.15,15.14c-0.21-0.03-0.42-0.07-0.64-0.1c0.31-4.68,0.48-9.37,0.99-14.03c0.24-2.26,0.34-3.27-2.6-2.86
		c-7.83,1.1-15.73,1.78-23.73,2.25c5.34-2.65,10.67-5.29,16.63-8.25c-24.36-10.35-48.06-20.43-71.76-30.5
		c0.05-0.19,0.1-0.38,0.15-0.58c20.84,1.76,41.69,3.52,63.5,5.37c-8.57-6.73-17.65-11.14-25.74-17.17
		c10.19,2.76,20.37,5.51,30.56,8.27c0.2-0.35,0.4-0.71,0.61-1.06c-25.5-20.42-51-40.84-76.49-61.26c0.09-0.18,0.18-0.36,0.27-0.54
		c24.57,9.6,49.14,19.2,74.52,29.11c-2.91-6.79-7.12-11.92-10.3-17.97c2.05,0.09,3.54,1.02,5.09,1.65
		c10.49,4.26,20.96,8.57,31.44,12.86c-0.75,1.04-1.82,0.78-2.8,0.58c-5.81-1.15-11.69-1.92-17.63-3.06
		c1.74,2.64,4.16,4.56,6.21,6.82c0.6,0.67,1.47,1.37,1.09,2.36c-0.39,1.01-1.51,0.89-2.41,0.94c-1.43,0.08-2.86-0.01-4.85-0.58
		c3.76,2.09,6.93,3.97,10.07,5.88c0.68,0.41,1.74,0.87,1.46,1.73c-0.33,1-1.51,0.88-2.42,0.76c-1.72-0.24-3.39-0.75-5.09-1.1
		c-10.26-2.08-20.56-3.97-29.47-6.16c3.19,1.13,7.24,3.5,11.43,5.57c7.52,3.71,15.01,7.46,22.49,11.25
		c0.81,0.41,2.03,0.85,1.89,1.79c-0.18,1.25-1.57,1.04-2.54,1.11c-4.29,0.3-8.52-1.07-12.88-0.5c3.47,3.51,6.98,6.93,10.4,10.45
		c0.83,0.85,2.09,1.72,1.52,3.09c-0.57,1.37-2.08,1.06-3.26,1.09c-2.75,0.09-5.51-0.03-8.69,0.07c3.95,2.69,7.72,4.99,11.49,7.27
		c3.41,2.06,6.73,4.27,10.13,6.35C250.4,269.33,251.26,269.89,251.63,270.93z"/>
	<path class="st1" d="M204.11,381.93c-1.14,1.39-1.74,0.63-2.47-0.49c-2.22-3.4-2.25-3.37-4.95-0.66c-3.04,3.06-3.04,3.06-4.84-2.78
		c-1.44,2.21-2.59,3.99-3.75,5.77c-0.34-0.25-0.67-0.51-1.01-0.76c-0.1-0.34-0.27-0.68-0.3-1.03c-0.27-2.92-0.55-5.43-4.51-2.75
		c-1.63,1.11-1.39-0.81-1.26-1.67c1.04-7.03,2.98-13.73,6.95-19.75c5.57-8.44,11.51-16.62,17.6-24.68
		c9.42-12.47,18.95-24.85,28.44-37.26c0.56-0.73,1.08-1.52,1.78-2.08c0.81-0.64,2-0.99,2.88-0.54c0.73,0.37,0.31,1.49,0.26,2.28
		c-0.31,5.51-0.67,11.01-0.95,16.52c-0.05,1.08-0.28,2.25,0.74,3.73c3.31-4.05,4.74-8.94,7.46-13.64c1.13,6.14,1.2,11.98,3.09,18.11
		c2.02-3.97,1.96-7.82,3.15-12.33c1.04,9.8,2.83,18.56,4.51,27.35c0.86,2.16-0.66,3.16-2.06,4.21
		c-11.52,8.59-22.86,17.41-34.4,25.96c-3.19,2.37-6.23,4.94-9.46,7.26C207.76,375.05,206.62,379,204.11,381.93z"/>
	<path class="st5" d="M208.95,645.74c0.71,0.85,1.33,0.15,1.84-0.21c14.44-10.24,29.97-18.58,45.91-26.18
		c5.82-2.77,10.76-6.63,15.29-11.03c9.29-9.05,20.6-14.01,32.96-17.07c17.62-4.35,35.59-4.14,53.48-3.53
		c12.04,0.41,24.02,2.29,35.91,4.44c23.68,4.29,47.01,10.19,70.6,14.93c8.37,1.68,16.85,2.78,25.37,2.96
		c4.61,0.1,9.3-0.58,13.87-1.62c-3.08,4.54-7.99,5.67-12.87,6.76c-3.55,0.79-7.16,1.36-10.74,2.41c2.44,1,4.98,0.8,7.48,0.53
		c2.32-0.25,4.76-0.42,6.88-1.28c3.6-1.47,5.78-0.02,7.67,2.75c0.68,1,1.39,1.99,2.09,2.98c-1.45,1.24-3.3,0.91-4.95,1.11
		c-8.8,1.06-17.05,3.62-24.54,8.46c-0.52,0.33-1.12,0.48-1.66,0.75c-8.93-6.62-17.63-13.58-27.95-18.68
		c0.96-0.13,1.62-0.22,2.96-0.4c-5.78-2.73-11.23-4.5-16.71-6.15c-33.01-9.98-66.66-15.15-101.21-13.1
		c-16.29,0.96-32.25,3.64-47.12,10.87c-2.82,1.37-5.66,2.74-7.82,5.36c4.87-1.51,9.73-3.02,15.24-4.73
		c-1.2,1.93-2.53,2.77-3.85,3.58c-7.32,4.52-15.22,7.9-23.09,11.28c-16.62,7.14-32.67,15.4-48.51,24.1
		c-1.61,0.88-3.21,1.81-5.04,2.18C209.28,647.43,208.32,647.38,208.95,645.74z"/>
	<path class="st3" d="M251.63,270.93c-8.55-5.3-17.1-10.6-25.64-15.91c0.06-0.22,0.12-0.44,0.18-0.67c4.41,0,8.82,0,13.74,0
		c-5.09-5-9.75-9.58-14.41-14.16c0.23-0.29,0.45-0.59,0.68-0.88c5.57,0.35,11.15,0.69,16.72,1.04c0.06-0.21,0.11-0.42,0.17-0.63
		c-12.88-6.42-25.75-12.85-38.63-19.27c0.06-0.15,0.12-0.3,0.18-0.46c13.11,2.68,26.22,5.37,39.34,8.05
		c0.06-0.17,0.12-0.35,0.18-0.52c-4.19-2.46-8.37-4.93-13.21-7.78c3.46,0,6.17,0,9.49,0c-3.29-3.46-6.26-6.57-9.7-10.18
		c8.08,1.25,15.39,2.38,22.69,3.51c2.08-0.15,0.57-1.23,0.32-1.67c-2.47-4.35-5.02-8.65-7.55-12.97c3.23,1.81,5.22,5.07,8.72,7.52
		c-1.23-6.71-2.38-12.93-3.52-19.15c0.14-0.07,0.29-0.15,0.43-0.22c5.84,7.79,11.68,15.58,17.51,23.37
		c0.15-0.08,0.29-0.16,0.44-0.25c-2.08-11.71-4.16-23.43-6.23-35.14c7.3,10.34,14.26,20.8,20.61,31.66
		c-7.02,6.33-13.16,13.42-18.01,21.55c-1.01,1.69-1.91,1.64-3.41,0.76c-2.91-1.69-5.9-3.24-9.08-4.4c-1.05-0.38-2.07-0.81-3.6-0.4
		c3.35,4.06,7.17,7.45,10.25,12.02c-6.11-0.16-11.45-2.12-17.15-2.54c4.29,3.39,8.58,6.79,13.56,10.73
		c-5.79,0.54-10.85,1-16.39,1.52c2.21,1.97,4.68,2.44,6.91,3.36c2.44,1.01,5.86,1.26,7.13,3.06c1.29,1.83-0.63,4.96-0.99,7.55
		C252.82,263.27,252.21,267.1,251.63,270.93z"/>
	<path class="st1" d="M473.54,632.9c0.43-1.77,2.19-2.06,3.4-2.75c8.57-4.94,17.87-7.34,27.75-7.56c5.98,8.53,11.52,17.32,15.46,27
		c0.68,1.67,2.39,4.27,0.41,5.22c-2.39,1.15-2.5-2.16-3.5-3.58c-1.25-1.79-1.84-4.05-4.01-5.61c-0.8,1.74,0.11,2.94,0.68,4.08
		c1.93,3.84,3.53,7.79,4.78,11.9c0.17,0.57,0.6,1.19,0.09,1.71c-0.66,0.67-1.37,0.12-1.93-0.23c-3.15-1.97-5.88-4.35-7.59-7.76
		c-0.82-1.63-1.8-3.19-2.79-4.73c-0.37-0.57-0.99-1.36-1.72-0.93c-0.91,0.53-0.37,1.45-0.02,2.15c0.97,1.9,2.06,3.75,2.98,5.68
		c0.42,0.87,1.22,2.09,0.5,2.8c-0.99,0.97-2.1-0.15-2.96-0.74c-5.91-4.05-11.03-9.05-16.47-13.68
		C483.58,641.56,478.57,637.22,473.54,632.9z"/>
	<path class="st2" d="M426.43,371.24c3.62,5.69,5.67,11.23,7.81,16.69c7.7,19.65,13.44,39.92,19.16,60.21
		c2.13,7.53,4.87,14.89,7.34,22.33c0.19,0.56,0.65,1.07,0.11,2.26c-6.67-6.04-13.9-11.1-21.17-16.27c2.72,0.38,5.44,0.76,8.16,1.15
		c0.55,0.08,1.19,0.66,1.57-0.19c0.3-0.67-0.19-1.14-0.59-1.62c-4.1-4.92-8.2-9.85-12.3-14.77c-0.37-0.45-0.98-0.78-0.66-1.84
		c2.41,0.98,4.79,1.99,7.21,2.91c1.73,0.66,2.85,0.95,2.37-1.87c-2.08-12.26-5.49-24.18-9.06-36.05
		c-3.13-10.44-6.63-20.76-9.95-31.14C426.36,372.77,426.43,372.45,426.43,371.24z"/>
	<path class="st5" d="M204.11,381.93c1.65-4.47,4.13-8.18,8.09-11.12c14.53-10.78,28.89-21.78,43.34-32.66
		c1.01-0.76,1.38-1.71,1.41-2.88c0.94,3.85,1.82,7.71,2.84,11.54c0.39,1.46-0.41,2-1.4,2.63c-14.02,8.93-28.22,17.58-42.97,25.25
		C211.4,376.78,208.03,379.76,204.11,381.93z"/>
	<path class="st2" d="M399.5,229.62c-2.2-5.54-5.25-10.56-8.56-15.45c-1.38-2.03-4.38-3.53-3.88-6.12c0.43-2.23,2.36-4.22,3.81-6.18
		c3.7-4.98,7.02-10.26,11.43-14.68c0.55-0.55,1.04-1.55,1.92-1.25c0.98,0.34,0.52,1.42,0.55,2.18c0.21,5.72-0.85,11.35-1.37,17.01
		c-0.71,7.77-1.92,15.49-2.92,23.23C400.44,228.75,400.51,229.19,399.5,229.62z"/>
	<path class="st5" d="M356.84,329.64c0.09,2.22-0.89,4.12-1.79,6.04c-1.38,2.95-3.88,3.83-6.83,3.27c-2.98-0.57-5.85-1.46-8.48-3.19
		c-9.52-6.26-15.43-14.82-17.11-26.15c-0.22-1.49-0.99-2.92-0.59-4.49c5.2,7.97,11.2,15.23,18.52,21.35
		c2.5,2.09,5.05,4.11,8.06,5.44C352.7,333.72,354.41,333.24,356.84,329.64z"/>
	<path class="st2" d="M561.38,580.6c-3.48,0.42-6.17-0.63-8.85-1.22c-10.21-2.24-20.35-4.79-30.53-7.14
		c-1.4-0.32-1.89-1.06-1.83-2.34c0.13-2.57-0.56-5.03-0.97-7.53c-0.12-0.71-0.52-1.5,0.09-2c0.66-0.54,1.34,0.15,1.94,0.44
		c6.34,3.05,12.67,6.12,19.01,9.18c6.42,3.11,12.85,6.22,19.27,9.35C560.01,579.59,560.45,579.97,561.38,580.6z"/>
	<path class="st6" d="M340.74,313.93c-1.94-0.8-2.89-2.32-3.55-4.28c-1.99-5.87-3.39-11.88-4.92-18.62
		c5.91,6.95,12.87,11.03,20.71,13.73c0.91,0.31,1.76,0.69,1.87,1.77c0.33,3.1,1.45,6.18,0.33,9.33c-2.27-3.54-5.68-3.18-9.14-2.67
		C344.28,313.44,342.63,314.52,340.74,313.93z"/>
	<path class="st7" d="M536.45,541c-1.89,1.23-2.99,2.07-4.19,2.72c-4.39,2.36-8.84,4.63-13.22,7c-1.48,0.8-2.46,0.67-3.08-0.99
		c-0.78-2.09-2.53-4.34-2.19-6.22c0.52-2.95,3.73-1.21,5.62-1.46C524.73,541.37,530.14,540.77,536.45,541z"/>
	<path class="st8" d="M340.74,313.93c3.67-1.44,7.35-2.45,11.4-1.62c2.17,0.44,3.2,1.35,3.04,3.55c0.09,1.57-0.44,3-1.16,4.34
		c-0.64,1.19-1.03,3.05-2.78,2.75c-1.77-0.3-3.55-1.32-3.97-3.26c-0.23-1.09-0.44-1.39-1.53-1.62
		C343.43,317.59,342.33,315.43,340.74,313.93z"/>
	<path class="st9" d="M535.53,587.65c-5.39-0.82-10.74-2.09-15.78-4.06c-2.19-0.86-0.67-3.76-0.05-5.5
		c0.74-2.08,1.99-0.23,2.81,0.26c4.48,2.73,8.9,5.57,13.34,8.37C535.75,587.03,535.64,587.34,535.53,587.65z"/>
	<path class="st9" d="M502.4,506.18c-1.6,3.8-3.02,7.14-4.41,10.44c-0.34-0.06-0.47-0.04-0.54-0.09c-5.09-4.17-5.07-4.55,0.17-8.02
		C498.98,507.61,500.38,506.83,502.4,506.18z"/>
	<path class="st10" d="M356.87,313.13c0-0.92-0.06-1.83,0.01-2.74c0.1-1.25-1.39-3.08-0.01-3.57c1.27-0.45,3.07,0.55,4.62,0.97
		c1.22,0.33,0.59,1.06,0.23,1.62c-1.3,1.98-1.96,4.23-2.75,6.42c-0.25,0.7-0.21,1.82-1.43,1.53c-0.96-0.23-0.61-1.14-0.64-1.8
		c-0.04-0.81-0.01-1.63-0.01-2.44C356.89,313.13,356.88,313.13,356.87,313.13z"/>
	<path class="st11" d="M351.65,328.01c-2.17-0.17-4.02-1.75-5.81-3.43c-0.75-0.7-0.11-1.34,0.23-1.89c0.62-1,1.18-0.31,1.68,0.19
		c2.09,2.06,4.31,3.08,7.01,1c0.24-0.18,0.82-0.12,1.13,0.04c0.47,0.25,0.19,0.72,0.02,1.06C355.11,326.55,354.19,328,351.65,328.01
		z"/>
	<path class="st12" d="M346.45,318.78c-0.15,1.73-1.03,2.84-1.9,4.27c-1.07-0.97-2.44-2.18-2.07-3.05
		C342.98,318.82,344.74,318.72,346.45,318.78z"/>
	<path class="st13" d="M360.38,318.89c-1.26,1.82-2.67,2.66-4.33,3.2C355.99,318.42,355.99,318.42,360.38,318.89z"/>
	<path class="st14" d="M371.14,321.25c0.76-1.97,1.42-3.4,2.46-4.66C375.26,318.9,375.26,318.9,371.14,321.25z"/>
	<path class="st15" d="M388.38,551.78c-9.56-10.85-5.99-48.58,5.6-58.4C385.05,512.19,383.11,531.63,388.38,551.78z"/>
	<path class="st16" d="M362.27,292.25c-6.35-1.21-12.17-2.8-17.59-5.87c-3.74-2.12-5.48-5.17-6.23-9.22
		c-0.61-3.25-0.13-6.78-2.37-9.65C342.84,266.6,359.97,282.65,362.27,292.25z"/>
	<path class="st17" d="M364.62,288.84c-0.15-4.77-1.81-8.26-3.9-11.99C365.25,278.83,366.94,283.67,364.62,288.84z"/>
	<path class="st18" d="M379.27,312.34c-1.17-1.18-0.79-2.6-0.77-4.03C380.61,309.62,380.69,310.1,379.27,312.34z"/>
	<path class="st19" d="M189.49,371.77c3.11-0.47,5.06-3.27,8.65-3.41c-2.4,3.01-5.28,4.41-8.27,5.61c-1.19,0.48-2.1-0.08-2.16-1.33
		c-0.21-3.81,0.74-7.3,3.23-10.29C190.96,365.57,189.52,368.54,189.49,371.77z"/>
	<path class="st20" d="M350.02,286.85c-7.64-2.21-11.22-7.94-10.67-17.17c4.27,3.01,8.22,6.18,11.85,9.73
		c0.48,0.47,1.2,0.91,0.43,1.74C350.14,282.75,350.05,284.8,350.02,286.85z"/>
	<path class="st21" d="M354.44,285.16c0.26,1.59-0.73,4.36,2.86,2.15c1.46-0.9,1.48,1.87,2.5,2.76c-2.66,0.24-5.04-0.63-7.17-1.75
		c-2.32-1.21-1.08-3.38-0.5-5.14c0.32-0.98,0.92-2.08,2.09-0.6C353.86,283.47,353.46,284.37,354.44,285.16z"/>
	<path class="st22" d="M354.44,285.16c-0.77,0.11-1.63,0.36-1.9-0.72c-0.35-1.39,0.76-1.56,1.68-1.87
		C355.16,283.36,355.38,284.21,354.44,285.16z"/>
</g>
</svg>
