<?xml version="1.0" encoding="utf-8"?>
<!-- Generator: Adobe Illustrator 24.3.0, SVG Export Plug-In . SVG Version: 6.00 Build 0)  -->
<svg version="1.1" id="Layer_1" xmlns="http://www.w3.org/2000/svg" xmlns:xlink="http://www.w3.org/1999/xlink" x="0px" y="0px"
	 viewBox="0 0 720 720" style="enable-background:new 0 0 720 720;" xml:space="preserve">
<style type="text/css">
	.st0{fill:#5D7991;}
	.st1{fill:#678FAF;}
	.st2{fill:#658CAE;}
	.st3{fill:#5B768E;}
	.st4{fill:#485D77;}
	.st5{fill:#A24A68;}
	.st6{fill:#454548;}
	.st7{fill:#5E7B96;}
	.st8{fill:#465D75;}
	.st9{fill:#612D4A;}
	.st10{fill:#58595B;}
	.st11{fill:#585C5F;}
	.st12{fill:#FFFFFF;}
	.st13{fill:#C86C87;}
	.st14{fill:#974361;}
	.st15{fill:#C15479;}
	.st16{fill:url(#SVGID_1_);}
	.st17{fill:#B25071;}
	.st18{fill:#5B748D;}
	.st19{fill:url(#SVGID_2_);}
</style>
<g>
	<path d="M647.72,664.28c-2.27-17.38-21.69-60.62-52.34-84.93c-27-21.42-56.11-39.7-62.2-43.47c-0.13-0.09-0.26-0.17-0.39-0.26
		c1.25-4.05,5.86-20.7,2-34.31c-3.66-12.91-9.82-18.68-11.89-20.31c0.76-3.08,3.09-14.66-0.45-29.05
		c-3.43-13.93-10.76-18.57-13.41-19.83c1.05-5.7,5.08-35.1-18.83-51.18c1.48-4.53,7.15-25.49-6.41-44.7
		c-8.05-14.71-23.9-17.64-27.8-18.15c-1.22-5.04-8.68-31.39-32.18-41.06c-9.79-4.89-19.36-5.92-25.65-5.92
		c-1.83,0-3.48,0.08-4.9,0.2c-0.24-0.17-0.54-0.25-0.84-0.2c-1.41,0.23-2.77,0.51-4.09,0.82c-2.43-4.12-14.71-22.32-42.62-23
		c-16.85-0.74-29.82,9.05-35.54,14.32c-0.2,0.04-0.39,0.12-0.55,0.27c-0.11,0.1-0.87,0.83-1.96,2.04
		c-2.96-2.35-12.57-8.88-27.83-8.88c-4.67,0-9.5,0.63-14.36,1.87c-28.77,7.33-36.4,34.01-37.5,38.57c-0.19,0.08-0.45,0.18-0.73,0.3
		c-1.6,0.59-2.6,1.05-2.76,1.13c-0.12,0.06-0.23,0.15-0.32,0.24c-9.71,4.58-32.15,17.56-33.12,39.88c0,0.03-0.02,0.05-0.02,0.07
		c-0.04,0.64-0.07,1.26-0.08,1.89c-4.36,2.15-26.03,13.97-27.65,36.66c-1.09,15.33-0.25,23.59,0.58,27.74
		c-0.09,0.24-0.12,0.51-0.04,0.77c0.04,0.12,0.25,0.74,0.66,1.71c0.03,0.08,0.05,0.17,0.08,0.24c-4.49,3.63-28.52,24.66-20.87,53.2
		c-14.51-16.47-42.46-56.82-42.46-123.15c0-94.42,69.29-162.32,133.67-185.45c42.13-15.13,88.59-27.33,138.11-36.26l1.94-0.35
		c9.38-1.71,18.32-10.2,19.94-18.94c1.06-5.74-1.13-10.93-6.14-14.89c-0.04-0.06-0.07-0.12-0.13-0.17
		c-0.14-0.12-0.31-0.23-0.45-0.34c5.23-2.35,18.08-9.77,15.38-24.89c-2.29-12.8-11.68-14.89-17.28-14.96
		c-0.89-0.08-1.88-0.15-2.94-0.2c1.33-3.5,2.7-10.23-2.52-16.88c-3.55-4.52-9.35-6.72-17.72-6.72c-8.14,0-18.92,1.95-34.95,6.32
		C302.71,31,185.08,81.47,115.83,185.35c-32.65,48.97-47.88,108.33-42.9,167.16c5.05,59.63,30.5,110.9,71.68,144.43l0.02,1.29
		c-1.97,2.69-13.59,20.23,3.86,38.47c-0.05,0.13-0.12,0.33-0.18,0.49c-0.52,1.05-0.97,2.14-1.32,3.29
		c-0.07,0.23-0.04,0.45,0.02,0.66c-2.46,8.06-6.1,23.7-0.98,33.37c5.39,10.18,7.61,13.66,11.5,13.48c-2.66,3-7.28,7.66-11.37,9.07
		c-3.67,1.27-7.19,4.83-9.21,9.28c-1.82,4.03-2.12,8.18-0.81,11.41c2.88,7.08,9.21,11.23,16.05,10.43
		c-2.11,5.66-3.24,14.69,4.16,18.4c1.84,0.92,3.89,1.39,6.07,1.39c7.1,0,13.84-4.86,15.96-6.54c1.4,0.85,4.54,2.55,7.24,2.55
		c2.84,6.56,23.87,51.99,62.18,53.88c38.02,1.85,51.36-35.7,53.33-42.05c2.89,0.12,12.36,0.47,23.61,0.47
		c13.99,0,32.89-0.55,44.21-3.16c3.92,4.11,30.09,30.52,57.49,33.14c2.92,0.28,5.82,0.42,8.61,0.42c26.82,0,44.77-12.69,48.21-34
		c1.94-0.21,6.17-1.08,8.13-4.77c2.69,1.37,9.66,4.52,16.7,4.52c5.87,0,10.39-2.18,13.42-6.48c4.91-6.95,3.9-12.35,2.19-15.65
		c-2.27-4.39-6.96-7.1-9.99-7.1l-0.45,0.01c-3.2,0-10.96-3.28-13.16-7.76c-1.02-2.07-0.7-4.12,0.96-6.26c1.7-2.18,3.39-4,4.88-5.61
		c4.07-4.39,7.37-8,7.58-15.32c1.3,1.67,2.35,2.82,3.16,3.44c5.98,7.83,15.96,22.83,24.2,44.65c3.23,8.55,5.86,16.77,8.41,24.73
		c7.39,23.07,13.23,41.3,26.74,41.3l0.22,0c6.02-0.09,10.75-1.97,14.06-5.6c4.08-4.46,6.05-11.55,5.99-21.57
		c4.06,8.2,12.79,22.43,24.11,21.63c13.18-0.89,16-10.01,16.56-13c1.62-0.33,5.03-1.37,7.64-4.6
		C647.52,675.71,648.55,670.67,647.72,664.28z"/>
	<path class="st0" d="M520.38,452.52c3.09,12.54,1.49,23.04,0.66,26.96c-5.92-4.56-10.77-6.22-11.02-6.3
		c-0.6-0.2-1.26,0.13-1.46,0.73c-0.2,0.61,0.12,1.26,0.73,1.47c0.06,0.02,5.15,1.78,11.13,6.57l-0.01,0.03l0.28,0.18
		c0.94,0.77,1.9,1.6,2.86,2.52c0.05,0.04,0.1,0.06,0.15,0.1c2.56,2.73,6.46,8.08,9.03,17.18c3.46,12.21-0.4,27.54-1.79,32.33
		c-8.66-5.88-15.61-11.39-21.16-16.32c4.57-19.55-12.74-28.73-12.92-28.82c-0.57-0.3-1.27-0.07-1.56,0.5
		c-0.29,0.57-0.07,1.27,0.5,1.56c0.16,0.08,15.15,8.03,12,24.97c-11.01-10.12-15.87-17.48-17.3-19.87
		c0.57-11.71-2.31-20.94-6.11-27.87c2.67-1.75,9.49-6.84,15.83-16.76c5.59-8.75,7.44-12.15,8.48-17.19
		C511.23,435.87,517.39,440.36,520.38,452.52z"/>
	<path class="st1" d="M479.78,527.52c-0.07,0.02-0.14,0.02-0.2,0.05c-0.54,0.27-0.75,0.89-0.54,1.44
		c-4.12,8.04-8.62,12.63-13.56,17.64c-0.86,0.87-1.73,1.76-2.61,2.67c-4.24,4.4-8.98,6.73-13.96,6.61
		c-4.58-0.07-8.91-2.23-12.54-6.24c-1.94-2.15-2.76-4.47-2.5-7.09c0.7-7.06,8.91-13.89,12.42-16.49
		c8.14-6.06,16.18-13.38,17.21-30.07c0.9-14.64-6.92-21.83-9.58-23.85c0.6-0.66,1.2-1.34,1.79-2.07c4.51-5.56,5.77-12.71,5.02-19.48
		c3.38,1.36,11.92,5.34,17.62,12.72c1.09,1.41,2.16,2.99,3.2,4.73c-0.01,0.2,0.02,0.4,0.12,0.59c0.12,0.21,0.3,0.36,0.5,0.46
		c3.61,6.45,6.42,15.04,6.09,25.97c-0.38,0.34-0.53,0.89-0.29,1.38c0.03,0.05,0.09,0.17,0.19,0.36c-0.26,4.47-1.03,9.3-2.49,14.53
		C483.79,518.05,481.83,523.25,479.78,527.52z"/>
	<path class="st2" d="M388.34,438.7c-0.94-9.09,0.01-17.51,2.25-22.58c6.36-14.43,8.7-33.39-3.82-43.37
		c-12.37-9.85-25.3,1.45-25.42,1.57c-0.01,0-0.01,0.01-0.01,0.01c-3.61-2.53-5.81-7.4-6.55-14.5c-0.29-2.83-0.02-5.46,0.65-7.9
		c20.48-11.47,43.53-6.92,60.43,12.05c11.45,12.87,10.6,26.98,7.67,38.24c-0.23,0.23-0.37,0.54-0.35,0.88
		c0,0.08,0.03,0.14,0.05,0.21c-0.98,3.56-2.14,6.8-3.14,9.6c-0.44,1.25-0.86,2.4-1.21,3.46c-3.69,11.08-6.93,25.99-1.38,34.09
		c2.86,4.17,7.28,5.23,11.01,5.23c3.64,0,6.62-1,6.87-1.09c0.6-0.21,0.92-0.87,0.72-1.47c-0.21-0.6-0.87-0.93-1.47-0.72
		c-0.11,0.04-10.53,3.55-15.2-3.26c-2.37-3.47-2.91-8.47-2.44-13.9c0.18-0.14,0.34-0.32,0.42-0.56c0.03-0.08,2.56-7.48,19.59-7.88
		c7.27-0.12,14.14,4.78,18.3,13.25c4.09,8.34,5.25,20.41-1.39,28.6c-12.29,15.14-25.81,13.65-45.02,5.96
		c-8.66-3.47-13.63-11.92-16.27-18.4c-2.19-5.37-3.54-11.11-4.18-16.64C388.52,439.28,388.48,438.97,388.34,438.7z"/>
	<path class="st3" d="M165.77,409.91c2.75,5.47,9.09,15.25,21.7,22.17c-4.74,4.26-20.79,19.73-22.8,35.56
		c-0.38,2.99-0.63,5.89-0.79,8.75c-3.38-2.16-11.59-7.58-17.24-12.69l-0.02-1.39l-0.05-0.33
		C138.12,434.71,160.6,414.18,165.77,409.91z"/>
	<path class="st4" d="M157.57,644.52c-7.4-3.7-3.6-14.16-2.51-16.77c6.97-0.59,13.35-4.23,17.87-7.6
		c-2.47,4.71-2.57,8.46-2.14,11.83c0.46,3.59,3.37,6.35,5.78,8.06c-2.38,1.79-8.15,5.62-13.97,5.62
		C160.78,645.66,159.09,645.28,157.57,644.52z"/>
	<path class="st5" d="M248.1,695.56c-18.33-0.9-32.6-12.26-42.66-24.25c6.82,2.73,22.17,7.8,45.6,9.46c1.9,0.14,3.74,0.2,5.52,0.2
		c18.5,0,30.24-6.89,36.37-11.92C285.84,681.37,272.12,696.79,248.1,695.56z"/>
	<path class="st6" d="M370.37,651.06l-0.46-0.5l-0.66,0.16c-11.01,2.69-30.18,3.25-44.32,3.25c-13.43,0-24.3-0.5-24.41-0.51
		l-0.93-0.04l-0.24,0.91c-0.03,0.12-0.95,3.45-3.07,8.17c0,0-0.01,0.01-0.01,0.01c-0.14,0.18-13.97,18.16-45.06,15.94
		c-31.44-2.24-48.59-10.91-48.76-11c-0.03-0.02-0.07-0.02-0.1-0.03c-7.67-10.06-12.38-19.81-14.04-23.51
		c3.11-0.33,6.92-1.79,10.87-5.87c4.24-4.38,7.78-8.82,10.62-13.31c1.23,2.8,3.95,5.96,8.89,5.96c0.07,0,0.15,0,0.22,0
		c4.74-0.09,7.91-2.2,9.73-3.95c0.45,1.75,1.01,3.5,1.73,5.23c5.5,13.27,12.8,22.34,20.55,25.54c2.12,0.87,4.24,1.31,6.34,1.31
		c2.07,0,4.12-0.42,6.14-1.27c2.97-1.24,4.93-3.25,5.82-5.99c1.11-3.41,0.47-7.92-1.82-13.41c2.39-1.58,8.43-5.93,10.72-10.8
		c0.69,0.92,1.42,1.85,2.21,2.78c8.12,9.6,14.9,15.47,23.17,15.47c1.88,0,3.83-0.3,5.9-0.93c4.52-1.38,7.56-4.07,8.78-7.79
		c1.44-4.39,0.23-9.86-3.42-15.63c5.41-0.52,10.74-4.28,14.92-10.71c2.26-3.47,2.83-6.77,2.8-9.3c4.97,5.15,10.87,8.08,16.5,8.93
		c-1.06,2.3-2.23,4.23-3.38,6.12c-0.63,1.04-1.25,2.07-1.85,3.13c-3.75,6.74-6.3,19.07,2.02,25.4c2.74,2.09,5.93,3.17,9.2,3.17
		c1.15,0,2.32-0.13,3.48-0.41c6.38-1.48,12.2-6.92,16.39-15.3c3.56-7.13,6.18-13.7,7.94-20.03c0.18,0.31,0.35,0.62,0.58,0.9
		c0.68,0.82,1.58,1.49,2.64,2.06c-0.23,2.35-1.88,20.99,2.81,32.7c4.52,11.29,9.12,17.92,19.27,18.41c0.28,0.01,0.54,0.02,0.81,0.02
		c4.2,0,7.9-1.61,10.47-4.58c2.18-2.52,4.41-7.02,3.61-14.55c3.66,3.37,7.59,6.1,10.51,7.94c2.9,1.83,6.48,2.77,10.07,2.77
		c2.3,0,4.59-0.39,6.71-1.18c4.74-1.77,8.16-5.4,9.63-10.22c0.21-0.7,0.38-1.37,0.51-2.03c1.11,0.96,3.09,2.55,5.65,4.1
		c-2.75,5.92-16.98,33.35-45.1,34.09c-0.19,0.01-0.37,0.07-0.52,0.16C394.56,676.89,370.63,651.34,370.37,651.06z"/>
	<path class="st7" d="M254.95,601.66c-1.63,10.46,2.04,22.53,6.16,29.34c1.44,2.39,2.62,4.6,3.57,6.67c-0.03,0.25,0,0.51,0.14,0.75
		c0.08,0.13,0.2,0.22,0.32,0.3c2.19,5.09,2.86,9.18,1.89,12.14c-0.68,2.09-2.16,3.59-4.51,4.57c-3.49,1.46-7.1,1.44-10.71-0.05
		c-7.18-2.96-14.03-11.59-19.29-24.29c-0.9-2.17-1.54-4.37-1.99-6.57c0.03-0.05,0.05-0.08,0.06-0.1c0.31-0.53,0.15-1.2-0.36-1.54
		c-2.52-15.72,4.65-31.09,5.68-33.2C242.03,596.52,247.67,600.15,254.95,601.66z"/>
	<path class="st8" d="M276.52,625.13c-1.25,4.5-7.41,9.08-10.07,10.88c-0.93-1.96-2.04-4.03-3.36-6.22
		c-3.9-6.46-7.39-17.87-5.86-27.75c2.22,0.31,4.59,0.47,7.18,0.47c1.34,0,2.75-0.05,4.21-0.12
		C269.48,610.91,271.65,617.95,276.52,625.13z"/>
	<path class="st3" d="M410.31,614.54c0.11,2.39,0.64,10.9,2.88,18.61c1.21,4.18,3.92,8.06,7.1,11.45c0,0.05-0.01,0.1,0,0.15
		c1.27,6.57,0.33,12.09-2.66,15.54c-2.26,2.61-5.6,3.95-9.41,3.76c-7.97-0.38-12.32-4.66-17.24-16.96
		c-4.1-10.26-3.05-26.82-2.71-30.9c2.23,0.7,5.04,1.05,8.46,1.05C401.94,617.24,406.59,616.01,410.31,614.54z"/>
	<path class="st9" d="M435.24,684.37c-2.05,0-4.16-0.1-6.29-0.26c23.93-4.97,36.33-28.35,39.14-34.33
		c3.37,1.78,7.42,3.26,11.66,3.26c0.42,0,0.84-0.06,1.26-0.09C477.49,672.65,460.53,684.37,435.24,684.37z"/>
	<path class="st10" d="M306.55,376.39c6.15-6.15,14.75-7.39,22.87-6.67c-1.33-3.06-2.33-6.24-2.91-9.52
		c-2.02-0.97-15.07-6.66-24,3.98c-2.62,3.12-5.06,7.58-7.63,12.3c-6.4,11.73-14.19,26-29.23,26c-1.24,0-2.54-0.14-3.87-0.34
		c0.45,1.38,1.01,2.81,1.73,4.3c0.03,0.06,0.06,0.11,0.09,0.17C281.33,408.02,295.28,390.87,306.55,376.39z"/>
	<path class="st11" d="M356.93,395.63c-12.76-5.09-22.58-14.6-27.51-25.91c-8.12-0.72-16.72,0.52-22.87,6.67
		c-11.26,14.48-25.21,31.63-42.96,30.22c2.86,5.87,6.85,11.56,10.71,17.07c2.87,4.09,5.76,8.23,8.26,12.51
		c3.18,3.13,13.55,8.91,46.18,6.59c40.81-2.9,43.75-37.87,43.95-43.68C367.63,398.91,362.29,397.77,356.93,395.63z"/>
	<path class="st2" d="M521.83,631.38c-1.95-3.77-5.93-5.85-7.94-5.85l-0.45,0.01c-3.71,0-12.53-3.53-15.24-9.06
		c-0.98-2-1.56-5.13,1.21-8.7c1.76-2.26,3.49-4.13,5.01-5.77c4.61-4.97,7.67-8.28,6.87-17.04c-2.68-3.87-6.08-9.25-10.16-16.14
		c-10.56-17.82-18.01-31.87-20.82-37.28c-4.03,7.39-8.41,11.87-13.19,16.72c-0.85,0.87-1.72,1.75-2.59,2.66
		c-4.62,4.79-9.93,7.32-15.39,7.32c-0.09,0-0.19,0-0.28,0c-5.24-0.08-10.15-2.5-14.22-7c-2.37-2.62-3.41-5.61-3.09-8.87
		c0.78-7.98,9.59-15.33,13.33-18.12c8.03-5.98,15.32-12.64,16.28-28.36c0.86-14.07-6.89-20.59-8.89-22.03
		c-6.29,6.18-13.02,8.69-20.5,8.69c-7.14,0-14.97-2.27-23.76-5.79c-7.45-2.98-13.53-9.78-17.56-19.67
		c-1.79-4.37-3.08-9.26-3.87-14.2c-2.89,4.09-9.9,10.93-25.52,14.05c-0.08,0.02-0.15,0.02-0.23,0.02c-0.54,0-1.02-0.38-1.13-0.93
		c-0.12-0.63,0.28-1.24,0.91-1.36c19.4-3.88,24.66-13.68,25.48-15.5c-1-9.12-0.26-18.06,2.36-24c3.05-6.91,5.14-14.89,4.98-22.27
		c-4.91,3.97-11.33,6.07-18.45,6.21c-0.22,6.17-3.32,42.93-46.1,45.97c-5.21,0.37-9.87,0.54-14.05,0.54
		c-16.09,0-24.99-2.44-29.9-5.01c3.27,6.61,5.27,13.63,4.58,21.4c2.34,0.99,9.61,3.44,21.32,2.09c0.63-0.08,1.21,0.38,1.28,1.02
		c0.07,0.64-0.38,1.21-1.02,1.28c-2.56,0.3-4.92,0.42-7.08,0.42c-7.44,0-12.4-1.48-14.8-2.42c-0.32,2.02-0.81,4.09-1.53,6.22
		c-5.89,17.38-16.35,26.14-31.17,26.14c-3.2,0-6.61-0.41-10.22-1.23c-15.61-3.55-19.36-22.34-18.3-29.58
		c0.37-2.53,2.15-11.21,9.43-16.43c4.38-3.15,9.84-4.32,16.22-3.54c-1.78-2.16-3.74-4.26-5.64-6.3l-0.78-0.84
		c-7.95-8.53-17.32-24.35-16.85-51.29c0.45-25.39,36.33-34.87,37.86-35.26c0.62-0.17,1.25,0.21,1.41,0.83
		c0.16,0.62-0.21,1.25-0.83,1.41c-0.36,0.09-35.7,9.43-36.12,33.06c-0.46,26.17,8.57,41.45,16.22,49.67l0.78,0.84
		c8.55,9.15,20.26,21.68,6.6,35.58c-0.23,0.23-0.53,0.34-0.83,0.34c-0.29,0-0.59-0.11-0.81-0.33c-0.46-0.45-0.46-1.18-0.01-1.64
		c8.46-8.6,6.15-16.39,0.99-23.51c-0.12,0.02-0.24,0.03-0.37,0.01c-6.62-1.21-12.17-0.24-16.48,2.85
		c-5.2,3.73-7.79,10.14-8.49,14.89c-0.94,6.4,2.59,23.82,16.52,26.99c19.22,4.36,31.86-3.28,38.68-23.39
		c0.79-2.33,1.3-4.57,1.59-6.76c-0.15-0.32-0.17-0.7,0.02-1.04c0.02-0.04,0.07-0.07,0.09-0.11c0.87-8.91-2.06-16.76-6.48-24.36
		c-1.44-1.48-1.75-2.63-1.78-2.79c-0.01-0.05,0-0.1,0-0.15c-2.03-3.22-4.27-6.43-6.55-9.67c-3.95-5.63-8.04-11.46-10.99-17.55
		c-0.99-2.05-1.72-4-2.24-5.87c-0.37-0.26-0.57-0.73-0.46-1.2c0.02-0.09,0.07-0.16,0.11-0.24c-3.7-16.67,10.04-25.62,10.2-25.72
		c0.54-0.34,1.25-0.18,1.6,0.36c0.34,0.54,0.18,1.26-0.36,1.6c-0.58,0.37-12.6,8.26-9.17,23.33c16.73,3.2,24.71-11.41,31.76-24.33
		c2.63-4.83,5.12-9.38,7.89-12.68c8.66-10.31,20.93-6.89,25.39-5.16c-0.08-0.69-0.16-1.39-0.2-2.08c-0.45-8.11,1-15.13,3.49-21.15
		c-2.29-0.8-13.06-4-28.32,0.65c-17.08,5.21-23.12,21.95-23.18,22.12c-0.17,0.48-0.61,0.78-1.09,0.78c-0.13,0-0.26-0.02-0.38-0.06
		c-0.6-0.21-0.92-0.87-0.71-1.48c0.17-0.47,2.84-7.81,9.56-14.45c-3.07-2.9-16.99-14.99-34.83-14.13
		c-19.96,0.95-28.12,23.25-28.2,23.48c-0.17,0.47-0.62,0.77-1.09,0.77c-0.13,0-0.26-0.02-0.39-0.07c-0.6-0.21-0.92-0.88-0.7-1.48
		c0.09-0.24,8.78-23.99,30.28-25.02c19.17-0.92,33.55,11.86,36.63,14.85c3.49-3.06,7.9-5.84,13.43-7.52
		c2.34-0.71,4.57-1.25,6.69-1.64c-3.53-16.54-23.55-25.06-23.76-25.14c-0.59-0.25-0.87-0.92-0.63-1.51
		c0.25-0.59,0.92-0.87,1.51-0.63c0.89,0.37,21.46,9.1,25.16,26.9c11.47-1.67,19.12,0.77,20.96,1.45
		c8.88-18.75,27.79-26.92,28.05-27.03c0.59-0.25,1.27,0.03,1.52,0.62c0.25,0.59-0.03,1.27-0.62,1.52
		c-0.33,0.14-32.95,14.26-31.06,48.04c1.11,19.92,16.61,33.01,29.55,38.16c13.78,5.49,27.37,4.17,35.47-3.44
		c-0.66-6.07-3.03-11.57-7.94-15.48c-9.45-7.53-19.14-1.11-21.76,0.93c3.2,1.22,6.06,0.54,6.09,0.53c0.62-0.17,1.25,0.21,1.41,0.83
		c0.16,0.62-0.21,1.25-0.83,1.41c-0.09,0.03-1.16,0.29-2.74,0.29c-1.98,0-4.76-0.42-7.44-2.28c-4.22-2.92-6.77-8.37-7.59-16.2
		c-0.29-2.81-0.08-5.43,0.49-7.88c-0.04-0.05-0.09-0.08-0.12-0.14c-0.32-0.55-0.14-1.26,0.41-1.58c0.07-0.05,0.15-0.08,0.22-0.12
		c4.85-15.12,23.63-22.92,23.86-23.02c0.6-0.24,1.27,0.05,1.51,0.64c0.24,0.59-0.05,1.27-0.64,1.51
		c-0.2,0.08-16.04,6.67-21.62,19.21c20.89-10.46,43.96-5.38,61,13.75c11.85,13.31,11.33,27.7,8.47,39.3
		c16.36-1.27,27.04-6.32,31.73-15.05c7.91-14.73-3.86-35.31-3.98-35.51c-0.32-0.55-0.14-1.26,0.42-1.58
		c0.55-0.32,1.26-0.14,1.58,0.42c0.52,0.89,12.54,21.89,4.03,37.77c-5.16,9.62-16.74,15.11-34.4,16.33c-1,3.54-2.15,6.78-3.15,9.58
		c-0.44,1.23-0.85,2.37-1.19,3.41c-1.38,4.13-2.69,8.81-3.49,13.41c2.68-2.61,8.19-5.74,19.34-6.01
		c8.23-0.18,15.87,5.24,20.44,14.54c1.32,2.69,2.35,5.76,2.95,8.97c2.08,0.73,12.81,4.82,19.85,13.94c1.03,1.34,2.06,2.84,3.05,4.46
		c2.54-1.7,9.06-6.63,15.04-15.99c7.7-12.04,8.03-13.37,9.22-23.94c0.02-0.17,0.08-0.33,0.17-0.46
		c0.77-10.37-0.36-30.64-18.25-42.92c-2.01,4.65-5.56,10.27-11.75,15.09c3,2.76,16.19,16.55,3.06,35.06
		c-0.23,0.32-0.58,0.49-0.95,0.49c-0.23,0-0.47-0.07-0.67-0.21c-0.52-0.37-0.64-1.09-0.28-1.61c12.97-18.29-1.55-31.06-3.09-32.34
		c-1.59,1.1-3.28,2.15-5.19,3.12c-0.17,0.08-0.34,0.12-0.52,0.12c-0.42,0-0.83-0.23-1.04-0.64c-0.29-0.57-0.06-1.27,0.51-1.56
		c18.52-9.34,20.2-26.9,20.21-27.08c0.01-0.16,0.06-0.3,0.13-0.44c1.33-8.46,1.47-22.46-7.83-35.64
		c-6.13-11.2-17.32-15.15-23.13-16.49c-0.12,0.05-0.25,0.07-0.39,0.07c-0.11,0-0.22-0.02-0.34-0.05c-0.85-0.26-1.7-0.46-2.54-0.63
		c-0.27-0.03-0.46-0.05-0.47-0.06l-0.87-0.07l-0.03-0.14c-8.39-1.39-15.58,0.7-15.67,0.72c-0.62,0.18-1.26-0.17-1.44-0.78
		c-0.18-0.61,0.17-1.26,0.78-1.44c0.35-0.1,7.32-2.11,15.77-0.93c-1.72-6.48-9.27-29.73-30.65-38.53
		c-9.46-4.73-18.65-5.71-24.69-5.71c-5.18,0-8.85,0.7-9.84,0.91c-5.96,1.51-10.89,3.93-14.86,6.55c-0.05,0.17-0.14,0.32-0.27,0.46
		c-0.24,0.24-0.57,0.35-0.89,0.33c-7.97,5.59-11.71,11.74-11.77,11.85c-0.22,0.37-0.6,0.57-1,0.57c-0.2,0-0.4-0.05-0.59-0.16
		c-0.55-0.33-0.74-1.04-0.41-1.59c0.25-0.42,3.94-6.47,11.72-12.11c-3.31-2.6-12.65-8.41-25.31-3.41
		c-15.79,6.23-19.71,21.88-19.75,22.04c-0.13,0.53-0.6,0.89-1.13,0.89c-0.09,0-0.18-0.01-0.27-0.03c-0.62-0.15-1-0.78-0.86-1.4
		c0.17-0.69,4.25-16.98,21.15-23.65c14.32-5.65,25,1.65,28.13,4.2c3.75-2.46,8.34-4.71,13.8-6.29c-2.83-4.58-14.62-20.7-40.38-21.33
		c-0.6-0.03-1.18-0.04-1.75-0.04c-20.43,0-35.01,16.62-35.16,16.78l-0.78,0.91l-0.03-0.03c-2.99,3.68-7.13,9.77-8.48,16.68
		c-0.11,0.55-0.59,0.94-1.14,0.94c-0.07,0-0.15-0.01-0.22-0.02c-0.63-0.12-1.04-0.73-0.92-1.36c1.46-7.48,5.83-13.92,8.99-17.78
		c-2.79-2.16-12-8.33-26.32-8.33c-4.47,0-9.11,0.6-13.78,1.79c-25.45,6.48-33.57,28.81-35.47,35.53c7.57-2.24,21.31-4.6,36.32,1.05
		c0.6,0.22,0.9,0.89,0.68,1.49c-0.23,0.6-0.89,0.9-1.49,0.68c-16.98-6.39-32.61-1.93-38.31,0.17c-7.05,2.97-35.3,16.48-34.45,41.59
		l0.03,0.78l-0.1,0.04c0.11,9.04,2.96,16.45,2.99,16.53c0.23,0.6-0.06,1.27-0.65,1.5c-0.14,0.06-0.28,0.08-0.42,0.08
		c-0.46,0-0.9-0.28-1.08-0.73c-0.13-0.34-2.84-7.34-3.13-16.28c-5.67,2.99-23.93,14.14-25.36,34.23
		c-1.34,18.78,0.28,26.62,1.03,29.13c1.83,4.24,8.2,16.53,23.22,24.21c0.35,0.18,0.58,0.51,0.62,0.9c0.04,0.38-0.11,0.77-0.41,1.02
		c-0.21,0.18-21.08,17.9-23.27,35.2c-2.42,19.08-1.46,45.31,16.89,61.9c7.74,7,14.66,10.04,20.61,9.05c5.9-0.99,8.76-5.68,9.27-6.61
		c1.83-3.31,2.38-8.99-5.39-17.19c-6.43-6.79-17.09-20.35-16.14-34.82c0.93-14.32,4.36-20.22,7.25-23.76
		c0.4-0.5,1.13-0.57,1.63-0.17c0.5,0.4,0.57,1.13,0.17,1.63c-2.46,3.02-5.83,8.63-6.73,22.45c-0.89,13.59,9.34,26.56,15.51,33.07
		c9.19,9.7,7.54,16.63,5.74,19.9c-0.6,1.09-3.97,6.61-10.92,7.77c-0.86,0.14-1.73,0.21-2.61,0.21c-6.02,0-12.7-3.3-19.93-9.83
		c-5.82-5.26-10.28-11.79-13.39-19.41c-0.96-0.51-12.53-6.76-21.78-13.52l0.01,0.41l-0.27,0.33c-0.58,0.71-13.71,17.26,3.06,35.29
		c4.65-7.21,12.23-11.45,12.63-11.67c0.56-0.3,1.26-0.1,1.57,0.46c0.31,0.56,0.1,1.26-0.46,1.57c-0.1,0.05-8.99,5.04-13.03,13.07
		c-1.78,5.09-8.02,24.72-2.38,35.36c5.03,9.49,6.85,12.25,9.24,12.25c0.65,0,1.45-0.18,2.6-0.58c2.56-4.08,5.06-10.39,4.85-19.3
		c-0.02-0.64,0.49-1.17,1.13-1.18c0.57-0.03,1.17,0.49,1.18,1.13c0.18,7.89-1.6,13.82-3.78,18.13l0.71-0.26l-2.03,2.63
		c-2.79,4.48-5.72,6.56-5.95,6.72c-0.02,0.02-0.05,0.01-0.08,0.02c-2.66,2.56-5.92,5.18-9.03,6.26c-3.08,1.07-6.1,4.15-7.86,8.04
		c-1.56,3.45-1.84,6.94-0.77,9.58c2.66,6.52,8.62,10.09,14.83,8.79c0.15-0.08,0.31-0.13,0.49-0.14c0.08,0,0.16-0.02,0.24-0.02
		l2.38-0.64l-0.21,0.43c11.62-1.72,21.63-12.55,21.73-12.67c0.19-0.21,0.43-0.31,0.69-0.35c0.16-0.17,0.3-0.34,0.46-0.52
		c8.36-8.99,12.51-20.04,11.39-30.32c-0.07-0.64,0.39-1.21,1.03-1.28c0.64-0.05,1.21,0.39,1.28,1.03c1.19,10.95-3.19,22.67-12,32.15
		c-7.32,7.87-8.37,13.02-7.69,18.32c0.62,4.85,7.68,8.19,7.75,8.23c0.19,0.09,0.34,0.24,0.45,0.4c0.15,0.07,0.31,0.14,0.46,0.22
		c0.17,0.02,0.33,0.06,0.49,0.15c0.12,0.07,1.35,0.75,3.29,0.98c0.29,0.02,0.57,0.02,0.83-0.02l0.91-0.14l0.09,0.22
		c2.73-0.14,6.3-1.31,10.14-5.27c12.61-13.02,18.83-26.51,18.5-40.1c-0.02-0.64,0.49-1.17,1.13-1.19c0.57-0.04,1.17,0.49,1.19,1.13
		c0.21,8.71-2.13,17.35-6.96,25.84c0.24,1.07,1.68,6.26,7.32,6.26c0.06,0,0.12,0,0.18,0c5.09-0.1,8.04-2.99,9.17-4.39
		c-3.23-17.74,5.51-34.82,5.94-35.64c0.1-0.18,0.24-0.31,0.4-0.42c-1.29-1.52-2.6-3.18-3.97-4.99c-12.19-16.2-2.96-43-2.56-44.13
		c0.21-0.6,0.87-0.92,1.48-0.71c0.6,0.21,0.92,0.87,0.71,1.48c-0.09,0.27-9.22,26.77,2.22,41.97
		c11.64,15.46,19.21,19.36,36.16,18.54c-0.22-3.05-0.32-6.3-0.32-9.81c0-16.44,11.54-31.35,12.04-31.98
		c0.39-0.51,1.12-0.59,1.63-0.2c0.5,0.4,0.59,1.12,0.2,1.63c-0.11,0.15-11.54,14.92-11.54,30.55c0,16.28,1.81,26.69,11.69,38.38
		c10.88,12.88,17.85,16.49,26.63,13.82c3.77-1.15,6.28-3.33,7.26-6.3c1.33-4.04-0.15-9.35-4.11-15.03c-0.26-0.17-0.44-0.43-0.5-0.73
		c-0.06-0.08-0.1-0.15-0.16-0.23c-7.46-10.05-10.89-19.85-10.48-29.95c0.34-8.47,3.53-16.77,3.66-17.12c0.23-0.6,0.9-0.89,1.5-0.66
		c0.6,0.23,0.89,0.9,0.66,1.5c-0.03,0.08-3.18,8.3-3.51,16.37c-0.39,9.56,2.89,18.87,10.02,28.48c0.05,0.07,0.09,0.14,0.15,0.21
		c5.13,0.13,10.38-3.35,14.53-9.72c3.29-5.06,2.46-9.63,1.99-11.28c-3.94-5.17-7.03-11.97-8.48-20.53
		c-3.49-20.61,6.34-28.46,6.76-28.79c0.51-0.39,1.23-0.3,1.62,0.21c0.39,0.51,0.3,1.23-0.21,1.62c-0.09,0.07-9.14,7.43-5.89,26.57
		c1.31,7.75,4.02,13.97,7.47,18.77c0.29,0.11,0.53,0.32,0.66,0.63c0.02,0.04,0.08,0.2,0.16,0.45c5.19,6.65,11.85,10.26,18.1,11.03
		c1.3-3.38,2.37-7.62,2.93-13.54c1.31-13.92-6.71-25.06-6.79-25.17c-0.38-0.52-0.26-1.24,0.25-1.62c0.52-0.38,1.24-0.26,1.62,0.25
		c0.35,0.48,8.62,11.97,7.22,26.76c-1.16,12.3-4.56,17.91-7.57,22.86c-0.62,1.02-1.22,2.01-1.8,3.05c-3.36,6.04-5.75,17,1.4,22.44
		c3.15,2.4,6.97,3.23,10.76,2.35c5.69-1.32,10.97-6.32,14.84-14.08c7.73-15.47,10.97-28.25,10.4-41.64
		c-0.16-0.2-0.27-0.44-0.27-0.72c0-0.23,0.08-0.43,0.2-0.6c-0.08-1.4-0.19-2.8-0.36-4.22c-1.99-17.06-5.63-23.58-5.66-23.65
		c-0.32-0.55-0.12-1.26,0.43-1.58c0.55-0.32,1.26-0.13,1.58,0.42c0.16,0.27,3.9,6.9,5.96,24.54c0.15,1.3,0.26,2.6,0.34,3.88
		c7.82-0.25,13.76-2.69,17.65-7.33c7.4-8.84,5.03-22.73,5.01-22.86c-0.11-0.63,0.31-1.23,0.94-1.34c0.63-0.1,1.23,0.31,1.34,0.94
		c0.11,0.61,2.58,15.09-5.51,24.76c-4.32,5.15-10.82,7.87-19.29,8.15c0.2,5.52-0.24,10.95-1.34,16.48c0,0.08,0.02,0.15,0,0.22
		c-0.39,2.1-0.07,3.73,0.97,4.98c1.78,2.14,5.67,3.22,11.56,3.22c12.06,0,21.22-7.19,21.32-7.26c0.07-0.06,0.15-0.11,0.23-0.15
		c17.35-8.11,15.58-39.23,15.57-39.54c-0.04-0.64,0.44-1.19,1.08-1.23c0.63-0.06,1.19,0.44,1.23,1.08
		c0.09,1.34,1.88,32.88-16.77,41.73c-0.57,0.44-3.04,2.26-6.83,4.03c0.02,0.08,0.05,0.16,0.06,0.24c0,0.1,0.31,10.09,2.81,18.68
		c2.65,9.12,13.25,16.91,19.33,20.74c4.17,2.62,9.95,3.17,14.73,1.38c2.86-1.07,6.62-3.45,8.22-8.73c3-9.87-3.5-14.65-10.25-18.03
		c-6.15-3.08-13.35-12.2-13.66-12.59c-0.4-0.5-0.31-1.23,0.2-1.62c0.5-0.4,1.23-0.31,1.62,0.2c0.07,0.09,7.18,9.1,12.87,11.94
		c6.1,3.05,12.62,7.58,12.26,15.99c0.1,0.05,0.2,0.1,0.29,0.18c0.05,0.05,2.67,2.52,6.54,4.83c0.17-0.01,0.34,0,0.51,0.07
		c0.28,0.11,0.47,0.32,0.6,0.57c3.64,2,8.19,3.66,12.73,3.17l0.02-0.17l1.01,0c0.01,0,0.06,0,0.13-0.01
		c0.47-0.09,0.95-0.17,1.42-0.32c0.22-0.07,0.44-0.05,0.65,0.01c1.87-0.44,4.38-1.52,5.27-4.19l0.44-1.34l0.31,0.18
		c1.69-2.54,2.3-5,1.83-7.48c-1.21-6.44-9.32-11.46-14.18-14.47c-1.09-0.67-2-1.24-2.65-1.71c-1.75-1.25-2.71-2.72-2.84-4.39
		c-0.22-2.62,1.76-4.63,1.84-4.71c0.05-0.05,0.1-0.09,0.16-0.13c0.05-0.03,4.94-3.45,11.43-10.43c6.3-6.78,7.2-17.64,7.21-17.75
		c0.05-0.64,0.61-1.15,1.24-1.06c0.64,0.05,1.12,0.6,1.07,1.24c-0.04,0.48-0.96,11.77-7.82,19.15c-6.22,6.7-10.92,10.13-11.7,10.68
		c-0.24,0.28-1.23,1.48-1.11,2.84c0.08,0.95,0.71,1.86,1.88,2.69c0.62,0.44,1.49,0.98,2.53,1.62c5.17,3.2,13.84,8.56,15.23,16.01
		c0.57,3.01-0.14,6.03-2.07,9.02c2.56,1.28,9.14,4.24,15.57,4.24c5.07,0,8.95-1.85,11.53-5.5
		C524.04,638.63,523.25,634.11,521.83,631.38z M207.61,359.25c-0.21,0.12-20.51,11.73-20.38,28.93
		c0.13,17.22,11.47,24.63,11.59,24.71c0.54,0.34,0.7,1.06,0.36,1.6c-0.22,0.35-0.6,0.54-0.98,0.54c-0.21,0-0.42-0.06-0.62-0.18
		c-0.51-0.32-12.52-8.11-12.66-26.64c-0.15-18.58,20.67-30.48,21.56-30.97c0.56-0.31,1.26-0.12,1.58,0.44
		C208.36,358.23,208.17,358.94,207.61,359.25z"/>
	<g>
		<path class="st12" d="M292.73,392.91c-7.85,0-14.24,6.39-14.24,14.24s6.39,14.24,14.24,14.24c7.85,0,14.24-6.39,14.24-14.24
			S300.59,392.91,292.73,392.91z"/>
		<path d="M292.73,390.01c-9.45,0-17.13,7.69-17.13,17.13c0,9.45,7.69,17.13,17.13,17.13s17.13-7.68,17.13-17.13
			C309.87,397.7,302.18,390.01,292.73,390.01z M292.73,421.39c-7.85,0-14.24-6.39-14.24-14.24s6.39-14.24,14.24-14.24
			c7.85,0,14.24,6.39,14.24,14.24S300.59,421.39,292.73,421.39z"/>
		
			<ellipse transform="matrix(0.7071 -0.7071 0.7071 0.7071 -187.2588 357.5252)" class="st12" cx="337.94" cy="404.8" rx="14.66" ry="14.66"/>
		<path d="M337.94,387.25c-9.68,0-17.56,7.88-17.56,17.56s7.88,17.56,17.56,17.56c9.68,0,17.56-7.88,17.56-17.56
			S347.62,387.25,337.94,387.25z M337.94,419.47c-8.09,0-14.66-6.58-14.66-14.66c0-8.08,6.58-14.66,14.66-14.66
			c8.09,0,14.66,6.58,14.66,14.66C352.61,412.89,346.03,419.47,337.94,419.47z"/>
	</g>
	<path d="M293.94,397.57c0,1.02-0.83,1.85-1.85,1.85c-1.02,0-1.85-0.83-1.85-1.85c0-1.02,0.83-1.85,1.85-1.85
		C293.11,395.72,293.94,396.55,293.94,397.57z"/>
	<path d="M338.65,395.86c0,1.02-0.83,1.85-1.85,1.85c-1.02,0-1.85-0.83-1.85-1.85c0-1.02,0.83-1.84,1.85-1.84
		C337.83,394.02,338.65,394.84,338.65,395.86z"/>
	<path class="st13" d="M365.08,20.14c-0.6-0.03-1.2-0.06-1.84-0.06c-7.93,0-18.52,1.92-34.34,6.24
		c-5.39,1.47-14.96,4.92-27.35,10.43c-0.28,6.28,0.07,15.33,3.97,18.53c8.06-3.13,16.64-5.91,25.31-7.81
		c18.36-4.03,32.51-5.66,42.69-6.09C374.98,33.02,372.72,23.15,365.08,20.14z"/>
	<path class="st14" d="M379.14,25.92c-2.87-3.65-7.38-5.5-14.06-5.78c7.64,3.01,9.89,12.89,8.45,21.25c2.8-0.12,5.31-0.15,7.51-0.1
		C382.25,38.63,384.17,32.32,379.14,25.92z"/>
	<path class="st14" d="M401.43,56.92c-0.97-5.42-3.34-8.66-6.21-10.57c-0.81,14.28-10.79,25.72-24.36,30.93
		c6.61,0.09,11.64,0.96,15.07,2.63C388.84,78.85,404.2,72.47,401.43,56.92z"/>
	<path class="st13" d="M395.22,46.35c-1.14-0.76-2.34-1.33-3.58-1.71c-0.18,0.04-0.38,0.05-0.58,0c-0.95-0.28-2.65-0.57-5.04-0.77
		c-2.54,0.01-6.3-0.27-6.3-0.27c-9.87-0.07-25.82,1.18-48.39,6.13c-8.9,1.95-17.69,4.83-25.93,8.08c-1.35,2.64-3.28,8.03-1.96,15.68
		c1.46,8.48,4.36,12.86,5.68,14.47c6.61-2.31,13.66-4.36,20.77-5.76c17.44-3.43,31.02-5.06,40.97-4.92
		C384.44,72.07,394.41,60.63,395.22,46.35z"/>
	<path class="st15" d="M594.14,673.24c-0.04-1.26-0.1-2.55-0.2-3.91l-0.11-1.45c-1.25-5.31-4.17-15.03-11.03-30.95
		c-18.87-0.76-29.07,7.67-34.1,14.22c1.03,3.13,2.03,6.22,3,9.26c0.82,2.56,1.62,5.04,2.41,7.45c4.32,4.31,9.12,7.66,14.88,9.58
		C576.91,682.18,587.42,680.42,594.14,673.24z"/>
	<path class="st14" d="M568.99,677.43c-5.76-1.92-10.56-5.27-14.88-9.58c6.07,18.52,11.67,32.24,22.13,32.24h0.19
		c5.42-0.08,9.48-1.67,12.38-4.85c3.93-4.3,5.68-11.54,5.33-22C587.42,680.42,576.91,682.18,568.99,677.43z"/>
	<linearGradient id="SVGID_1_" gradientUnits="userSpaceOnUse" x1="480.162" y1="510.0679" x2="592.0848" y2="638.3931">
		<stop  offset="0" style="stop-color:#5B7489"/>
		<stop  offset="0.2774" style="stop-color:#63829A"/>
		<stop  offset="0.6532" style="stop-color:#6B8EAA"/>
		<stop  offset="1" style="stop-color:#6D93B0"/>
	</linearGradient>
	<path class="st16" d="M594.12,581.18c-25.98-20.61-53.89-38.28-61.26-42.86c-0.03-0.02-0.06-0.01-0.09-0.03
		c-0.21-0.14-0.4-0.27-0.6-0.4c-0.73-0.45-1.16-0.71-1.19-0.73l-0.79-0.48l0.03-0.09c-9.1-6.13-16.36-11.86-22.11-16.97
		c-0.31-0.1-0.55-0.32-0.67-0.6c-9.35-8.39-14.6-15.04-17.24-18.88c-0.41,3.73-1.13,7.67-2.31,11.87
		c-1.98,7.08-4.06,12.55-6.26,17.03c1.96,3.81,9.83,18.91,21.51,38.62c4.59,7.74,7.84,12.78,10.14,16.1
		c0.09,0.1,2.14,2.27,5.28,6.36c0.3,0.15,0.51,0.43,0.59,0.77c6.14,8.13,15.97,23.13,24.1,44.67c2.01,5.32,3.78,10.5,5.45,15.58
		c5.02-6.54,15.23-14.98,34.1-14.22c-0.16-0.36-0.31-0.71-0.47-1.08c-12.13-27.91-34.4-48.7-34.62-48.9
		c-0.47-0.43-0.5-1.17-0.06-1.64c0.43-0.47,1.17-0.5,1.64-0.06c0.23,0.21,22.85,21.33,35.17,49.68c0.14,0.32,0.27,0.62,0.4,0.94
		c3.07-3.69,13.75-15.21,26.41-13.82c-17.3-26.12-40.2-44.66-40.46-44.87c-0.5-0.4-0.58-1.13-0.18-1.63c0.4-0.5,1.13-0.58,1.62-0.18
		c0.27,0.21,23.74,19.22,41.3,45.94c1.78-1.26,5.76-3.45,12.08-3.73C617.33,604.34,606.69,591.15,594.12,581.18z"/>
	<path class="st17" d="M643.6,655.76c-3.06-10.3-9.22-24.27-17.97-38.2c-6.32,0.28-10.3,2.46-12.08,3.73
		c2.32,3.54,4.55,7.2,6.6,10.98c7.13,13.17,11.45,22.79,13.98,30.16C638.05,661.27,641.39,659.22,643.6,655.76z"/>
	<path class="st14" d="M643.6,655.76c-2.21,3.46-5.55,5.5-9.47,6.67c3.06,8.92,3.49,14.54,3.01,19.05c1.41-0.35,3.95-1.27,5.91-3.71
		c2.44-3.03,3.3-7.46,2.55-13.18C645.28,662.14,644.61,659.15,643.6,655.76z"/>
	<path class="st15" d="M634.06,670.5c-1.71-7.79-6.14-19-15.95-37.12c-2.12-3.92-4.43-7.71-6.85-11.36
		c-12.67-1.38-23.35,10.14-26.41,13.82c8.28,19.19,10.96,29.53,11.82,34.17c0.35,0.81,0.88,2,1.57,3.41
		C610.34,679.73,626.11,682,634.06,670.5z"/>
	<path class="st14" d="M634.06,670.5c-7.95,11.5-23.72,9.24-35.82,2.93c3.7,7.59,12.03,21.83,22.22,21.12
		c9.38-0.64,12.72-5.76,13.91-9.04c-0.11-0.22-0.17-0.48-0.11-0.74C635.05,681.06,635.48,676.95,634.06,670.5z"/>
	<path class="st13" d="M314.04,118.93c21.57-4.9,39.65-8.06,49.11-9.48c17.85-2.68,24.24-15.88,26.49-23.72
		c-1.17-1.29-2.62-2.5-4.39-3.58l-0.06-0.04c-7.77-4.06-26.16-3.29-54.83,2.36c-7.21,1.42-14.38,3.52-21.08,5.89
		C307.91,94.97,305.09,108.41,314.04,118.93z"/>
	<path class="st14" d="M389.64,85.73c-2.24,7.84-8.63,21.04-26.49,23.72c-9.46,1.42-27.55,4.59-49.11,9.48
		c1.75,2.06,3.95,4.01,6.7,5.76c16.92-4.03,34.27-7.67,52.03-10.87l1.93-0.35c8.37-1.52,16.64-9.35,18.07-17.09
		C393.52,92.39,392.41,88.79,389.64,85.73z"/>
	<path class="st18" d="M314.04,118.93c-37.08,8.42-84.48,21.98-116.2,40.69c-46.67,27.52-120.6,109.05-98.58,186.57
		c-0.1-2.75-0.17-5.53-0.17-8.37c0-43.05,14.74-84.48,42.62-119.8c24.57-31.12,57.45-55.21,92.58-67.83
		c27.13-9.75,56.08-18.26,86.45-25.49C317.98,122.94,315.79,120.99,314.04,118.93z"/>
	<linearGradient id="SVGID_2_" gradientUnits="userSpaceOnUse" x1="271.3822" y1="453.2517" x2="182.6149" y2="187.9141">
		<stop  offset="0" style="stop-color:#5B7489"/>
		<stop  offset="0.2774" style="stop-color:#63829A"/>
		<stop  offset="0.6532" style="stop-color:#6B8EAA"/>
		<stop  offset="1" style="stop-color:#6D93B0"/>
	</linearGradient>
	<path class="st19" d="M197.84,159.62c31.72-18.71,79.12-32.27,116.2-40.69c-8.94-10.52-6.12-23.96-4.76-28.58
		c-20.12,7.1-35.99,16.52-36.2,16.64c-0.19,0.11-0.39,0.16-0.59,0.16c-0.39,0-0.78-0.2-0.99-0.56c-0.33-0.55-0.15-1.26,0.4-1.59
		c0.21-0.13,16.59-9.85,37.25-17.06c-1.32-1.62-4.22-5.99-5.68-14.47c-1.32-7.65,0.61-13.04,1.96-15.68
		c-25.78,10.15-46.01,23.89-46.27,24.07c-0.2,0.14-0.43,0.2-0.65,0.2c-0.37,0-0.73-0.18-0.96-0.5c-0.36-0.53-0.23-1.25,0.3-1.61
		c0.27-0.19,21.2-14.39,47.7-24.69c-3.91-3.2-4.26-12.25-3.97-18.53c-45.62,20.3-129.46,68.67-183.62,149.91
		C50.52,287.77,62.35,424.3,143.8,493.11c0.03,0.02,0.06,0.02,0.08,0.05c7.23,6.15,18.78,12.86,23.76,15.64
		c-2.96-8.67-4.26-18.65-3.89-29.75c-2.04-1.27-10.54-6.68-17.07-12.23l0.01,0.64l-2.04-2.18c-0.67-0.72-1.41-1.52-2.16-2.38
		c-0.38-0.41-0.75-0.81-1.09-1.2c-0.03-0.03-0.04-0.07-0.06-0.11c-14.27-16.5-39.9-54.4-42.08-115.4
		C77.23,268.67,151.16,187.15,197.84,159.62z"/>
</g>
</svg>
