<?xml version="1.0" encoding="utf-8"?>
<!-- Generator: Adobe Illustrator 24.3.0, SVG Export Plug-In . SVG Version: 6.00 Build 0)  -->
<svg version="1.1" id="Layer_1" xmlns="http://www.w3.org/2000/svg" xmlns:xlink="http://www.w3.org/1999/xlink" x="0px" y="0px"
	 viewBox="0 0 720 720" style="enable-background:new 0 0 720 720;" xml:space="preserve">
<style type="text/css">
	.st0{fill-rule:evenodd;clip-rule:evenodd;fill:#211714;}
	.st1{fill-rule:evenodd;clip-rule:evenodd;fill:#E2BAD4;}
	.st2{fill-rule:evenodd;clip-rule:evenodd;fill:#916E87;}
	.st3{fill-rule:evenodd;clip-rule:evenodd;fill:#B182B9;}
	.st4{fill-rule:evenodd;clip-rule:evenodd;fill:#604A56;}
	.st5{fill-rule:evenodd;clip-rule:evenodd;fill:#B5AAA8;}
	.st6{fill-rule:evenodd;clip-rule:evenodd;fill:#E1DCD9;}
	.st7{fill-rule:evenodd;clip-rule:evenodd;fill:#C8DEE7;}
	.st8{fill-rule:evenodd;clip-rule:evenodd;fill:#839DBA;}
	.st9{fill-rule:evenodd;clip-rule:evenodd;fill:#FFFFFF;}
	.st10{fill-rule:evenodd;clip-rule:evenodd;fill:#B4C5BB;}
	.st11{fill-rule:evenodd;clip-rule:evenodd;fill:#DDEEE9;}
	.st12{fill-rule:evenodd;clip-rule:evenodd;fill:#B4A9A7;}
	.st13{fill-rule:evenodd;clip-rule:evenodd;fill:#B181B8;}
	.st14{fill-rule:evenodd;clip-rule:evenodd;fill:#221715;}
</style>
<g>
	<path class="st0" d="M397.49,584.16c-5.41,12.57-11.49,24.3-19.53,34.93c-3.31,4.38-7.12,8.3-11.19,11.99
		c-5.95,5.4-12.52,5.79-19.41,2.47c-9.05-4.36-16.65-10.72-23.51-17.98c-5.79-6.13-11.07-12.67-15.44-19.91
		c-1.47,1.41-2.88,2.76-4.28,4.1c-3.31,3.17-7.29,4.66-11.83,4.82c-15.49,0.55-30.32-2.04-44.35-9.47
		c-1.12,5.02-2.21,9.96-3.32,14.89c-1.84,8.19-3.68,16.39-7.07,24.14c-1.5,3.43-3.26,6.7-5.43,9.74c-2.13,2.98-5.06,4.52-8.71,4.59
		c-10.3,0.2-18.65-3.69-25-11.85c-2.68-3.45-3.39-7.2-2.18-11.41c2.31-8.04,6.92-14.78,12.07-21.13
		c5.31-6.54,11.42-12.36,17.94-17.71c1.33-1.09,1.38-1.62,0.15-2.81c-7.85-7.54-15.49-15.3-22.51-23.61
		c-11.51-13.64-19.41-29.09-22.48-46.82c-1.71-9.87-0.09-19.08,5.31-27.59c4.27-6.72,9.06-13.03,14.39-18.93
		c0.61-0.67,1.46-1.19,1.76-2.37c-7.78-0.32-15.33-1.69-22.71-3.76c-27.15-7.63-44.33-25.49-52.7-52.08
		c-6.65-21.1-11.36-42.71-16.27-64.27c-6.65-29.22-13.94-58.31-26.24-85.78c-10.23-22.85-21.08-45.43-31.69-68.11
		c-6.97-14.9-12.95-30.18-16.07-46.37c-2.25-11.68-1.46-23.27,4-34.13c5.89-11.7,13.89-15.61,27-14.33
		c19.76,1.93,37.51,9.54,54.82,18.54c17.55,9.12,32.59,21.69,47.26,34.73c22.3,19.83,42.92,41.25,60.65,65.34
		c0.28,0.38,0.6,0.73,1.06,1.28c0.54-1.46,0.01-2.71-0.13-3.96c-0.3-2.73,0.91-3.66,3.53-2.82c4.34,1.4,7.53,3.85,9.63,8.15
		c7.14,14.59,14.22,29.23,22.78,43.08c1.98,3.19,4.07,6.31,6.59,9.27c0.18-3.22,0.36-6.43,0.55-9.65c1.12-19.15,4.87-37.9,8.9-56.58
		c5.9-27.35,15.13-53.65,25.76-79.48c2.18-5.29,4.97-10.29,8.5-14.82c2.24-2.88,3.69-2.57,5.2,0.83c2.2,4.96,1.79,9.99,0.85,15.15
		c-2.89,15.91-5.79,31.83-7.82,47.89c-1.31,10.32-2,20.7-2.12,31.1c-0.23,19.62,0.15,39.22,1.98,58.77
		c0.59,6.29,1.49,12.55,2.26,18.89c0.84-0.27,0.96-0.87,1.24-1.32c16.25-25.93,35.48-49.51,56.57-71.61
		c0.93-0.97,1.9-1.94,2.99-2.71c2.09-1.47,3.27-0.97,3.94,1.5c0.2,0.75,0.11,1.6,0.8,2.38c3.61-3.91,7.19-7.8,10.8-11.67
		c15.64-16.79,31.22-33.66,48.82-48.46c25.73-21.63,54.19-38.88,84.65-52.99c26.42-12.25,54.1-19.84,82.93-23.46
		c12.38-1.56,24.81-2.46,37.29-1.37c7.45,0.65,14.51,2.81,20.91,6.63c9.32,5.56,13.9,14.18,14.48,24.83
		c1.08,19.76-4.11,37.53-16.71,53.14c-8.19,10.16-17.52,19.25-26.02,29.11c-16.2,18.82-28.13,40.24-38.19,62.79
		c-6.12,13.71-11.02,27.84-14.06,42.57c-0.73,3.5-1.15,7.05-1.22,10.63c-0.25,14.13-0.35,28.27-1.43,42.37
		c-1.77,23.01-5.13,45.78-13.81,67.31c-8.71,21.59-23.81,37-46.19,44.65c-0.29,0.1-0.58,0.22-0.86,0.35
		c-0.06,0.03-0.08,0.13-0.18,0.33c2.41,2.53,4.99,4.97,6.83,8.06c3.51,5.91,5.26,12.39,6.12,19.11c4.36,34.2-5.26,64.47-26.13,91.45
		c-1.62,2.09-1.47,3.22,0.04,5.18c8.34,10.78,18,20.31,27.72,29.79c4.15,4.05,8.24,8.14,11.94,12.62c2.95,3.57,3.23,7.21,1.07,11.22
		c-4.2,7.81-10.91,11.77-19.49,13.25c-12.1,2.09-22.21-2.09-29.03-12.25c-2.27-3.38-4.08-6.97-5.73-10.67
		c-4.16-9.28-7.7-18.77-9.82-28.73c-0.39-1.82-0.92-1.73-2.29-1.02c-15.61,8.09-32.39,11.85-49.78,13.13
		c-9.12,0.68-17.14-2.59-24.32-8.03c-5.21-3.94-9.94-8.4-13.75-13.77C398.3,585.11,397.99,584.78,397.49,584.16z"/>
	<path class="st1" d="M454.78,158.21c18.51-16.9,38.16-32.18,60.41-44.04c30.67-16.36,63.15-27.07,97.39-32.6
		c11.37-1.84,22.82-2.9,34.36-2.93c7.31-0.02,14.31,1.54,21.17,3.94c8.62,3.02,12.91,9.16,13.95,18.15
		c1.4,12.06-0.85,23.51-4.77,34.8c-0.48,1.38-0.95,1.31-2.13,0.81c-7.16-3.05-14.7-4.48-22.43-4.85
		c-29.09-1.39-56.14,5.81-82.09,18.67c-28.46,14.11-54.43,31.91-79.28,51.49c-23.63,18.61-45.57,39.01-65.28,61.77
		c-1.1,0.7-1.8-0.21-2.51-0.72c-5.72-4.13-11.91-7.24-18.84-8.76c-0.62-0.14-1.22-0.35-1.81-0.58c-1.62-0.62-2.16-1.69-1.57-3.38
		c1.12-3.23,2.6-6.3,3.93-9.44c6.16-14.57,14.13-28.17,22.09-41.81c7.16-12.28,15.14-23.99,23.31-35.6
		C451.91,161.38,453.41,159.86,454.78,158.21z"/>
	<path class="st1" d="M427.59,264.42c13.09-15.61,27.69-29.72,42.9-43.21c11.65-10.33,11.66-10.4,26.49-14.88
		c20.24-6.12,40.88-10.2,61.98-12.08c17.87-1.6,35.5-0.77,52.88,3.89c4.15,1.11,8.05,2.88,11.98,4.58c1.09,0.47,1.22,0.89,0.56,1.91
		c-9.06,13.92-16.86,28.52-23.41,43.79c-0.45,1.05-1.14,1.34-2.15,1.47c-54.5,7.23-104.61,26.86-152.17,53.74
		c-0.81,0.46-1.67,0.81-2.51,1.21c-1.55-0.73-0.88-2.16-0.95-3.29c-0.43-7.81-1.63-15.43-5.39-22.44c-2.3-4.28-5.1-8.19-8.64-11.55
		C428.31,266.73,426.97,266.02,427.59,264.42z"/>
	<path class="st2" d="M335.59,303.89c-6.54,2-12.32,5.19-17.08,10.23c-11.94,12.62-12.24,33.45-0.56,46.31
		c0.8,0.88,1.6,1.75,2.4,2.62c0.33,0.38,0.57,0.85,0.44,1.31c-1.01,3.59-2.09,7.14-5.18,9.61c-4.41-2.48-5.54-2.33-9.22,1.38
		c-0.95,0.95-1.82,1.99-2.63,3.07c-2.26,3-2.69,6.15-1.4,9.82c1.84,5.28,1.52,5.17-3.22,8.16c-3.36,2.12-6.11,1.74-9.08-0.56
		c-6.33-4.88-9.96-11.58-13.03-18.72c-5.25-12.23-7.58-25.11-8.67-38.29c-0.57-6.86,0.17-13.6,1-20.36c0.1-0.79,1.08-2.13-0.38-2.38
		c-1.06-0.18-0.89,1.22-1.11,2.01c-0.08,0.29-0.26,0.55-0.52,1.11c-2.04-2.35-3.76-4.67-5.3-7.13
		c-9.17-14.62-14.48-30.78-18.81-47.31c-4.07-15.57-6.88-31.38-9-47.32c-0.26-1.96-0.39-3.94-0.6-5.91
		c-0.14-1.33,0.37-1.82,1.63-1.29c3.08,1.29,5.99,2.6,7.58,6.02c2.24,4.81,4.91,9.41,7.04,14.28c2.02,6.28,2.83,12.85,4.79,19.14
		c4.41,14.16,9.9,27.82,18.31,40.15c0.68,1,1.17,2.06,1.56,3.19c0.27,0.59,0.05,1.75,1.02,1.58c0.9-0.15,0.53-1.21,0.49-1.85
		c-0.48-8.24-0.16-16.49,0.06-24.73c0.39-14.2,2.3-28.24,4.79-42.21c4.3-24.13,10.17-47.84,18.44-70.94
		c3.66-10.22,7.32-20.44,11.56-30.44c2.14-5.05,4.79-9.84,8-14.3c0.48-0.67,0.88-1.78,1.82-1.62c0.77,0.13,0.84,1.23,1.17,1.94
		c2.39,5.19,1.1,10.42,0.19,15.64c-2.84,16.21-5.75,32.41-7.83,48.75c-0.24,1.88-0.4,3.78-0.59,5.66
		c-2.6,12.33-5.84,24.54-7.08,37.14c-0.7,7.1-1.35,14.2-1.77,21.34c-0.35,5.95-0.45,11.9-0.36,17.84c0.2,12.45,0.7,24.9,2.87,37.21
		c0.25,1.42,0.44,2.83-0.3,4.17c-0.19,0.56-0.91,0.91-0.7,1.69c1.06,0.31,1.37-0.63,1.87-1.12c4.49-4.45,7.98-9.65,11.1-15.11
		c9.21-16.13,20.85-30.51,32.3-45.02c8.36-10.61,17.37-20.64,26.85-30.25c0.76-0.77,1.55-2.1,2.64-1.68
		c0.81,0.31,0.69,1.8,0.86,2.81c0.44,2.73,0.89,5.47-0.08,8.19c-1.72,3.18-4.37,5.62-6.63,8.37c-6.12,7.46-10.89,15.79-15.72,24.08
		c-6.08,10.43-11.81,21.02-16.08,32.35c-2.32,6.16-4.4,12.41-6.48,18.66C336.62,302.13,336.45,303.18,335.59,303.89z"/>
	<path class="st1" d="M226.72,337.28c-5.1-3.53-9.97-6.8-14.72-10.23c-28.22-20.3-59.11-35.76-90.68-49.96
		c-9.15-4.11-18.98-6.12-28.72-8.32c-1.02-0.23-1.65-0.56-2.07-1.6c-6.85-17.08-15.28-33.44-22.84-50.2
		c-0.98-2.17-0.42-2.83,1.46-3.51c5.51-2.01,11.26-2.6,17.05-2.94c20.51-1.22,40.19,3.13,59.69,8.85c13,3.82,25.29,9.23,37.05,15.9
		c0.83,0.47,1.63,0.92,2.27,1.68c19.3,22.89,37.88,46.31,53.77,71.75c1.09,1.75,2.96,3.51,2.99,5.29c0.03,1.94-2.84,2.54-4.32,3.88
		C231.93,323.06,228.3,329.39,226.72,337.28z"/>
	<path class="st1" d="M248.49,311.65c-0.05,0.06-0.1,0.15-0.17,0.17c-4.46,1.64-4.38,1.58-6.98-2.44
		c-29.95-46.27-64.07-88.99-106.57-124.51c-12.52-10.47-25.82-19.85-41.1-25.92c-13.88-5.51-28.14-6.67-42.69-2.73
		c-2.31,0.63-4.53,1.47-6.64,2.56c-0.99,0.51-1.45,0.55-1.85-0.7c-3.03-9.5-5.35-19.1-4.6-29.19c0.13-1.77,0.55-3.42,1.42-4.98
		c5.65-10.15,14.04-15.63,25.84-16.35c12.87-0.78,24.62,2.79,36.08,7.94c16.38,7.36,30.48,18.18,44.15,29.58
		c27.96,23.33,52.51,49.76,72.46,80.33c0.56,0.86,1.06,1.76,1.59,2.64c4.16,8.33,6.94,17.22,10.02,25.96
		c6.36,18.04,12.72,36.08,18.75,54.23C248.58,309.34,249.27,310.45,248.49,311.65z"/>
	<path class="st1" d="M438.06,338.24c10.32-5.07,21.01-9.26,31.68-13.5c23.43-9.32,47.16-17.7,71.9-22.95
		c13.9-2.95,27.92-5.05,42.06-6.32c2.02-0.18,2.66,0.11,2.56,2.41c-0.46,10.46-0.57,20.94-0.96,31.41
		c-1,26.66-4.32,52.92-13.34,78.22c-1.12,3.14-2.42,6.2-3.91,9.18c-0.2,0.4-0.47,0.77-0.9,1.48c-0.46-1.65-0.81-2.98-1.21-4.3
		c-3.42-11.25-11.21-19.24-20.15-26.16c-18.26-14.15-39.04-23.1-61.26-29c-17.11-4.55-34.54-6.62-52.19-7.16
		c-0.52-0.54-0.46-1.19-0.17-1.77c1.77-3.53,3.24-7.2,5.04-10.72C437.4,338.7,437.74,338.47,438.06,338.24z"/>
	<path class="st1" d="M433.37,353.42c38.91,0.98,75.26,10.35,107.65,32.75c5.58,3.86,10.56,8.39,15.02,13.49
		c5.03,5.75,8.33,12.3,9.46,19.91c0.14,0.92,0.1,1.67-0.41,2.47c-9.78,15.27-22.66,26.62-40.27,32.06
		c-0.95,0.29-1.67,0.47-2.59-0.27c-13.77-11.01-29.23-18.96-45.68-25.11c-0.96-0.36-1.85-0.88-2.77-1.32
		c-12.21-8.84-23.01-19.13-32.31-31.02c-5.97-7.63-11.98-15.21-16.28-23.97c-0.6-1.21-1.1-2.46-1.58-3.72
		c-0.6-1.56-0.55-3.1,0.18-4.62c1.65-3.45,3.91-6.53,5.94-9.75C430.61,352.96,432.01,353.13,433.37,353.42z"/>
	<path class="st1" d="M254.2,415.45c-0.25,3.09-0.25,6.17,0.37,9.24c0.19,0.97,0.45,1.92-0.87,2.59
		c-9.85,5.01-18.98,11.17-27.82,17.77c-6.93,5.17-13.7,10.56-19.91,16.6c-0.66,0.64-1.3,1.06-2.28,0.99
		c-17.02-1.2-33.28-4.87-47.31-15.19c-8-5.88-14.51-13.23-19.69-21.75c-0.86-1.42-0.97-2.63-0.55-4.2
		c5.06-18.57,16.58-31.93,33.06-41.42c16.56-9.53,34.43-14.74,53.36-16.6c1.32-0.13,2.46,0.14,3.62,0.77
		c4.86,2.66,9.77,5.25,14.65,7.86c0.81,1.04,0.29,2.11,0.11,3.19c-2.08,11.96-0.81,23.21,7.07,33.05c1.39,1.74,3.05,3.22,4.58,4.82
		C253.21,413.85,254,414.44,254.2,415.45z"/>
	<path class="st1" d="M476.28,430.63c17.61,6.16,33.69,15.04,47.99,27.07c7.29,6.13,10.42,14.45,11.84,23.48
		c3.45,21.94,0.69,43.13-8.12,63.53c-0.12,0.28-0.33,0.51-0.62,0.94c-4.23-7.71-9.06-14.85-14.36-21.7
		c-19.97-25.81-45.5-43.86-76.1-54.91c-1.19-0.43-2.4-0.81-3.6-1.22c-1.49-0.8-2.18-2.26-2.99-3.62
		c-4.33-7.3-8.58-14.65-14.18-21.12c-2.99-3.46-2.45-5.7,1.66-7.95c4.02-2.21,8.49-3.19,12.94-3.93c9.47-1.56,18.98-2.92,28.63-2.62
		C465.05,428.77,470.75,429,476.28,430.63z"/>
	<path class="st1" d="M486.79,207.26c6.54-5.02,13.05-10.08,19.62-15.05c24.12-18.25,49.7-34.03,77.45-46.25
		c21.15-9.32,43.24-13.37,66.22-12.93c8.93,0.17,17.64,1.71,25.93,5.48c-1.83,4.95-4.72,9.28-7.89,13.46
		c-6.59,8.68-13.97,16.65-21.47,24.53c-7.07,7.43-13.6,15.31-19.35,23.81c-0.88,1.31-1.54,1.53-3,0.83
		c-12.72-6.17-26.41-8.41-40.33-9.09c-25.6-1.24-50.57,3.07-75.3,9.2c-7.3,1.81-14.44,4.14-21.57,6.51
		C487,207.6,486.89,207.43,486.79,207.26z"/>
	<path class="st1" d="M450.07,521.61c15.76,10.84,30.02,23.36,42.87,37.55c7.79,8.6,14.79,17.81,21.98,26.88
		c7.47,9.43,16.31,17.54,24.82,25.99c3.61,3.58,7.15,7.21,10.45,11.08c2.75,3.22,2.92,6.44,0.89,10.05
		c-3.68,6.52-9.24,10.21-16.51,11.67c-11.54,2.33-22.54-0.62-29.38-11.84c-3.24-5.31-5.65-10.98-8.05-16.68
		c-3.09-7.33-5.34-14.91-7.09-22.65c-0.6-2.65-0.88-2.81-3.32-1.51c-8.31,4.43-17.11,7.47-26.21,9.77c-1.83,0.46-2.63,0.17-3.4-1.58
		c-5.13-11.61-10.79-22.95-17.32-33.85c-3.56-5.94-7.92-11.29-12.2-16.7c0.39-2.26,2.17-3.59,3.59-5.07
		c4.22-4.39,8.53-8.7,12.91-12.92c2.31-2.22,3.8-4.79,4.53-7.89C448.81,523.06,448.57,521.73,450.07,521.61z"/>
	<path class="st1" d="M283.29,549.4c-3.98,8.37-7.9,16.76-10.62,25.66c-2.3,7.51-4.16,15.12-5.63,22.83
		c-0.35,1.86-0.76,2.71-2.96,1.97c-5.05-1.68-10.07-3.35-14.73-5.97c-2.36-1.33-2.66-1.14-3.25,1.51
		c-2.37,10.67-4.28,21.46-7.72,31.86c-1.74,5.28-3.96,10.35-7.11,14.99c-2.09,3.08-4.94,4.66-8.62,4.61
		c-9.46-0.13-17.21-3.76-22.99-11.39c-2.18-2.87-2.8-5.93-1.87-9.4c2.28-8.5,7.23-15.5,12.77-22.05
		c5.38-6.36,11.34-12.21,17.98-17.31c1.43-1.1,1.61-1.84,0.25-3.14c-3.38-3.24-6.57-6.68-10-9.86c-1.43-1.32-1.46-2.39-0.79-4.1
		c9.76-24.54,23.14-47.06,38.28-68.6c1.32-1.88,2.7-3.72,4.05-5.57c1.64,0.45,1.36,1.94,1.53,3.07c1.23,8.19,3.26,16.18,6.26,23.9
		c3.33,8.56,7.89,16.44,13.57,23.66C282.43,547.06,283.46,547.95,283.29,549.4z"/>
	<path class="st1" d="M443.82,307.35c6.47-4.18,13.33-7.64,20.12-11.24c34.13-18.13,70.08-31.4,107.75-40
		c8.42-1.92,16.95-3.35,25.52-4.44c0.68-0.09,1.38-0.01,2.26-0.01c-2.5,6.28-5.01,12.44-6.99,18.79
		c-2.22,7.11-4.25,14.28-5.58,21.62c-0.22,1.19-0.52,1.71-1.86,1.8c-32.59,2.23-63.97,9.97-94.54,21.19
		c-16.96,6.23-33.8,12.75-50.23,20.26c-0.21,0.1-0.46,0.1-0.7,0.14c-1.47-0.53-0.59-1.6-0.38-2.3c1.77-5.86,2.99-11.82,3.7-17.9
		c0.2-1.66,0.19-3.32,0.22-4.98C443.11,309.24,443.09,308.21,443.82,307.35z"/>
	<path class="st1" d="M91.85,270.39c7.23,1.45,13.9,3.1,20.45,5.18c11.77,3.73,22.53,9.74,33.65,14.93
		c27.94,13.05,53.8,29.5,78.77,47.44c0.87,0.63,1.8,1.09,1.68,2.56c-0.76,9.77,2.22,18.28,8.84,25.52c0.3,0.33,0.54,0.71,0.6,1.39
		c-0.88-0.46-1.77-0.9-2.64-1.37c-29.62-16.01-60.7-28.42-93.09-37.51c-10.14-2.85-20.42-5.29-31-5.99
		c-1.44-0.09-1.56-0.91-1.84-1.95c-4.23-15.68-8.58-31.33-14.15-46.61C92.74,272.94,92.38,271.9,91.85,270.39z"/>
	<path class="st1" d="M180.33,231.37c-1.02,0.3-1.52-0.34-2.11-0.65c-22.73-11.78-46.98-18.54-72.32-21.43
		c-10.9-1.24-21.87-1.1-32.71,1.22c-2.03,0.44-3.98,1.08-5.84,1.97c-0.92,0.44-1.45,0.55-1.99-0.61
		c-7.42-16.03-15.76-31.66-21.21-48.56c-0.6-1.85-0.24-2.59,1.48-3.34c9.36-4.07,19.14-4.91,29.15-3.97
		c13.71,1.3,25.7,7.1,37.17,14.28c16.79,10.51,31.37,23.72,45.6,37.35c7.11,6.81,14.01,13.84,20.56,21.2
		C178.83,229.64,179.54,230.46,180.33,231.37z"/>
	<path class="st1" d="M134.36,421.38c-3.2-6.15-5.04-12.45-6.94-18.74c-6.54-21.72-11.2-43.91-16.22-66.01
		c-0.79-3.48-1.6-6.95-2.55-10.39c-0.45-1.63-0.49-2.22,1.59-1.99c13.38,1.46,26.36,4.71,39.16,8.71
		c23.78,7.44,47.06,16.18,69.29,27.53c0.7,0.36,1.39,0.72,2.62,1.35c-5.77,0.6-10.94,1.37-16.04,2.59
		c-16.25,3.87-31.63,9.68-45.28,19.65c-12.03,8.79-20.24,20.18-24.65,34.37C135.08,419.34,134.76,420.21,134.36,421.38z"/>
	<path class="st3" d="M454.78,158.21c-3.37,4.86-6.77,9.69-10.12,14.57c-12.47,18.15-23.75,37.01-33.61,56.69
		c-3.32,6.64-6.05,13.58-9.07,20.37c-0.74,1.66-0.41,2.71,1.49,3.11c8.11,1.72,15.35,5.3,21.92,10.31c0.17,0.13,0.46,0.11,0.69,0.16
		c-16.82,20.37-33.49,40.86-49.4,61.88c-0.78-0.1-0.8-0.65-0.97-1.04c-3.99-9.23-10.69-15.62-20.1-19.12
		c-1.27-0.47-2.03-0.72-1.25-2.4c17.14-36.77,36.41-72.27,61.83-104.12c11.52-14.43,24.4-27.57,37.98-40.05
		C454.34,158.42,454.57,158.33,454.78,158.21z"/>
	<path class="st2" d="M338.49,487.38c-8.58,2.41-17.34,2.74-26.16,2.13c-7.89-0.55-15.27-2.7-21.87-7.17
		c-0.85-0.58-1.63-1.26-2.44-1.9c-0.61-0.49-1.22-0.98-1.68-1.68c4.39,0.28,8.6,0.15,12.8-0.4c0.77-0.1,1.77,0.08,2.01-0.86
		c0.26-1.01-0.77-1.24-1.43-1.62c-3.35-1.92-6.86-3.63-9.8-6.84c1.8,0.17,3.23,0.29,4.66,0.46c0.66,0.08,1.36,0.14,1.72-0.47
		c0.44-0.73-0.3-1.13-0.71-1.57c-2.79-2.91-5.58-5.81-8.73-9.07c2.1,0.33,3.64,0.6,5.19,0.81c0.65,0.09,1.33,0.01,1.62-0.69
		c0.25-0.6-0.15-1.06-0.56-1.46c-0.51-0.5-1-1.03-1.53-1.5c-6.62-5.83-11.76-12.85-16.43-20.27c-1.11-1.77-1.86-3.66-2.35-5.68
		c-2.24-9.23-4.49-18.46-6.74-27.69c-0.08-0.31-0.08-0.68-0.26-0.91c-2.75-3.55-0.45-6.07,1.75-8.61c0.57-0.65,1.18-1.26,2.1-2.24
		c0.16,2.87,0.31,5.35,0.85,7.77c0.86,3.81,2.37,7.39,3.77,11c0.31,0.79,0.6,1.8,1.72,1.67c1.09-0.12,1.19-1.18,1.41-1.99
		c1.37-5.11,2.14-10.42,4.88-15.09c0.32-0.54,0.66-1.07,1.13-1.84c1.89,2.31,4,4.16,6.06,6.07c1.81,3.06,3.42,6.25,5.5,9.15
		c2.73,3.8,5.59,7.46,9.35,10.37c3.93,3.04,8.17,3.92,12.96,2.83c6.84-1.56,13.34-4.04,19.69-6.98c1.15-0.53,2.33-1.01,3.62-1.1
		c2.73-0.19,3.99,1.19,3.52,3.91c-0.11,0.62-0.18,1.25-0.26,1.88c-2.64,8.93-7.6,16.28-14.74,22.28
		c-6.93,5.82-13.98,11.48-21.4,16.66c-0.51,0.35-1.11,0.66-1.26,1.38c0.47,0.78,1.26,0.5,1.91,0.51c4.44,0.02,8.88,0.17,13.3-0.52
		c0.83-0.13,1.98-0.59,2.42,0.3c0.49,0.99-0.59,1.7-1.23,2.35c-1.96,1.97-3.82,4.03-6.05,5.72c-0.59,0.45-1.35,0.87-1.38,1.83
		c0.8,0.58,1.69,0.35,2.52,0.24c5.03-0.67,10.06-1.4,14.97-2.75c0.38-0.1,0.76-0.23,1.16-0.26c0.56-0.05,1.2-0.1,1.5,0.45
		c0.32,0.59-0.14,1.06-0.53,1.44c-0.86,0.83-1.79,1.56-2.75,2.28c-3.24,2.43-6.45,4.9-9.92,6.99c-0.59,0.36-1.3,0.65-1.52,1.56
		c1.08,0.67,2.28,0.44,3.41,0.34c8.41-0.75,16.64-2.4,24.68-4.94c0.9-0.29,1.79-0.7,2.78-0.49c1.68,0.9,0.68,2.06,0.15,2.97
		C348.75,481.47,344.58,485.58,338.49,487.38z"/>
	<path class="st1" d="M434.26,470.15c36.83,12.12,65.2,35.12,86.33,67.35c1.87,2.85,3.45,5.88,5.23,8.79
		c0.58,0.96,0.74,1.77,0.2,2.85c-4.43,8.89-9.34,17.48-15.69,25.18c-0.99,1.2-1.43,1.19-2.4-0.04
		c-16.46-20.88-35.26-39.31-57.23-54.4c-0.26-0.18-0.47-0.41-0.71-0.62c-1.29-2.51-0.73-5.28-1.02-7.91
		c-0.92-8.53-3.46-16.53-7-24.29c-2.3-5.04-4.77-9.99-7.26-14.94C434.41,471.51,433.9,470.92,434.26,470.15z"/>
	<path class="st1" d="M671.56,81.97c-3.08-0.99-6.05-1.99-9.05-2.88c-8.45-2.52-17.11-2.37-25.76-1.81
		c-31.28,2-61.4,9.25-90.55,20.62c-32.13,12.53-60.64,30.83-86.62,53.48c-35.53,30.96-63.62,67.62-85.81,109.02
		c-7.38,13.77-14.44,27.7-20.95,41.91c-0.58,1.27-1.12,1.93-2.61,1.36c-1.69-0.65-0.62-1.7-0.4-2.5
		c7.09-25.8,17.29-50.34,29.82-73.95c2.45-4.62,5.23-9.15,4.49-14.75c-0.09-0.71,0.41-1.17,0.84-1.64
		c20.15-21.7,39.76-43.95,62.73-62.8c25.17-20.65,52.86-37.23,82.44-50.79c25.3-11.6,51.78-18.84,79.29-22.55
		c11.98-1.62,24.01-2.39,36.1-1.83c8.8,0.41,17,2.86,24.5,7.54C670.59,80.75,671.29,81.04,671.56,81.97z"/>
	<path class="st4" d="M338.49,487.38c3.46-2.02,7.07-3.8,9.69-7.02c1.35-1.66,2.56-3.4,3.59-5.27c0.27-0.5,0.82-1.1,0-1.64
		c0.26-1.27,1.44-1.35,2.33-1.75c1.77-0.79,3.38-1.75,4.45-3.43c5.57-8.7,10.63-17.66,13.65-27.62c1.27-4.2,2.01-8.47,1.87-12.88
		c-0.06-1.92-0.46-3.49-2.84-3.57c-1.28-0.05-1.34-1-1.08-1.89c1.51-5.14-0.07-9.88-1.92-14.56c-1.05-2.65-2.26-2.87-4.5-1.12
		c-0.58,0.45-1,1.51-1.9,1.04c-0.77-0.4-0.65-1.4-0.61-2.18c0.22-3.8-0.33-7.42-2.16-10.81c-1.73-3.2-2.95-3.39-5.53-0.79
		c-2.34,2.35-3.96,5.03-4.63,8.38c-0.92,4.58-2.06,9.13-3.96,13.43c-0.36,0.82-0.43,1.92-1.62,2.15c0.01-0.47-0.05-0.96,0.03-1.42
		c0.61-3.55-0.71-4.77-4.14-3.51c-3.19,1.17-6.25,2.67-9.4,3.95c-4.47,1.82-9.1,3.23-13.83,4.14c-5.3,1.01-9.78-0.96-13.62-4.59
		c-5.63-5.31-10.33-11.27-12.91-18.68c4.67,3.33,8.76,1.51,12.8-1.36c1.74-1.23,2.31-0.96,2.35,1.17c0.08,3.88-0.01,7.77-0.06,11.66
		c-0.01,0.53-0.44,1.09,0.13,1.53c0.71,0.55,1.18-0.11,1.66-0.44c5.22-3.48,8.4-8.52,10.69-14.19c1.22-3.01,2.12-6.15,1.94-9.46
		c-0.07-1.27,0.57-2.06,1.4-2.85c4.01-3.84,7.88-7.82,10.88-12.54c0.62-0.98,1.21-0.94,2.16-0.66c8.34,2.44,16.55,2.24,24.54-1.39
		c1.06-0.48,1.77-0.21,2.58,0.41c15.03,11.61,23.61,26.77,26.18,45.65c2.67,19.53-3.67,36.29-15.41,51.18
		c-7.83,9.93-18.05,17.05-30.49,20.51C340.04,487.2,339.29,487.45,338.49,487.38z"/>
	<path class="st1" d="M260.37,492.17c-6.9,9.98-13.83,19.93-20.24,30.25c-8.85,14.25-16.49,29.09-22.8,44.63
		c-0.44,1.09-0.95,2.15-1.54,3.48c-6.81-7.35-13.76-14.3-18.88-22.8c-2.21-3.67-4.35-7.37-6.31-11.18
		c-0.69-1.35-0.62-2.41-0.03-3.77c4.41-10.14,10.73-19.05,17.77-27.48c13.53-16.19,27.94-31.46,45.95-42.85
		c2.41-1.53,4.78-3.11,7.44-4.19c1.82,0.88,0.76,2.38,0.56,3.48c-1.17,6.49-1.43,13.06-1.68,19.62c-0.06,1.51,0.07,3,0.29,4.5
		C261.21,488,261.24,490.13,260.37,492.17z"/>
	<path class="st3" d="M433.37,353.42c-1.98-0.14-3.11,0.78-4.03,2.57c-1.41,2.73-3.2,5.27-4.82,7.9c-0.99,1.61-0.95,3.23-0.25,4.99
		c3.09,7.73,7.84,14.46,12.84,21c6.35,8.3,12.92,16.42,20.61,23.56c4.52,4.2,9.34,8.05,14.11,11.96c0.73,0.6,1.56,1.09,1.94,2.02
		c-7.34-2.49-14.63-5.13-22.03-7.45c-15.19-4.75-30.4-9.48-46.1-12.32c-5.77-1.04-11.57-1.85-17.38-2.64
		c-1.34-0.18-2.12-0.52-2.52-1.92c-2.77-9.78-7.5-18.48-14.58-25.81c-1.17-1.21-0.75-1.7,0.42-2.47
		c10.67-7.01,21.47-13.79,32.75-19.8c0.86-0.46,1.75-0.77,2.7-0.83c8.39-0.57,16.78-1.07,25.19-1.01
		C432.62,353.16,433,353.33,433.37,353.42z"/>
	<path class="st1" d="M188.71,532.47c-3.82-10.12-6.86-19.9-6.09-30.47c0.39-5.36,2.33-10.19,5.05-14.71
		c8.45-14.06,19.61-25.65,32.46-35.75c9.88-7.77,20.21-14.83,31.04-21.18c0.94-0.55,1.86-1.2,3.18-1.39
		c-0.11,1.54-0.05,3.06-0.36,4.49c-0.81,3.69-0.06,7.04,1.72,10.3c1.98,3.62,3.8,7.32,5.77,10.94c0.49,0.9,0.74,1.35-0.42,1.96
		c-17.55,9.24-31.8,22.5-44.93,37.08c-8.4,9.33-16.54,18.87-22.79,29.84C191.77,526.32,190.42,529.17,188.71,532.47z"/>
	<path class="st1" d="M39.5,120.33c1.74-7.92,4.62-15.18,11.46-20.11c3.85-2.78,8.33-3.34,12.92-3.25
		c11.97,0.24,23.3,3.37,34.44,7.5c24.61,9.12,45.9,23.51,65.5,40.69c25.09,21.98,48.25,45.74,67.98,72.73
		c0.52,0.71,1.01,1.37,1.13,2.29c1.55,12.11,3.87,24.08,6.15,36.14c-0.49-0.82-1-1.63-1.47-2.46
		c-26.6-47.1-60.84-87.58-104.02-120.34c-13.4-10.17-27.55-18.92-43.67-24.22c-9.75-3.21-19.58-4.25-29.77-2.76
		c-8.53,1.25-14.71,5.88-19.72,12.51C40.11,119.45,39.81,119.9,39.5,120.33z"/>
	<path class="st5" d="M337.52,535.07c2.5-1.18,4.2-3.35,6.28-5.05c1.82-1.5,2.63-1.37,3.79,0.74c1.43,2.62,2.07,2.66,3.91,0.23
		c1.05-1.39,2.1-2.79,3.08-4.23c0.93-1.38,1.62-3.1,3.72-1.34c0.51,0.42,1.26-0.01,1.65-0.57c1.06-1.56,1.67-0.82,2.25,0.38
		c0.31,0.63,0.54,1.5,1.35,1.52c0.93,0.03,1.24-0.89,1.57-1.59c0.89-1.86,1.7-3.75,2.6-5.61c0.53-1.08,1.25-1.36,2.11-0.24
		c0.34,0.44,0.74,0.84,1.17,1.19c1.58,1.27,2.79,0.98,3.45-0.94c0.44-1.26,0.58-2.63,0.96-3.92c0.82-2.83,1.78-3.74,4.6-3.24
		c2.89,0.51,4.03-0.79,4.89-3.18c0.57-1.59,1.38-2.66,3.29-3.61c1.74-0.86,2.99-1.4,4.94-1.34c1.57,0.05,1.22-1.74,1.11-2.88
		c-0.4-4.15-0.42-4.15,3.59-2.48c2.26,0.94,3.04,0.42,3.08-2.04c0.02-1.1,0-2.2,0.18-3.32c4.09,11.95,5.53,24.25,5,37.14
		c-0.75-0.67-1.34-1.24-1.98-1.74c-1.98-1.55-3.24-1.11-3.49,1.4c-0.29,2.84-0.2,5.73-1.93,8.25c-0.79,0.08-0.84-0.8-1.33-1.13
		c-0.46-0.3-0.87-0.71-1.37-0.9c-0.68-0.25-5.6,2.26-5.93,2.98c-0.57,1.22-1.03,2.49-1.66,3.68c-0.58,1.1-0.71,3.32-2.82,1.1
		c-0.81-0.85-1.79,0.17-2.29,0.99c-1.24,2.03-2.44,4.08-3.56,6.17c-0.53,1.01-1.09,1.84-2.34,1.48c-3.16-0.89-5.28,0.1-6.17,3.31
		c-1.12-0.1-1.24-1.06-1.74-1.6c-1.67-1.8-2.96-1.72-4,0.49c-1.17,2.5-2.14,5.11-3.29,7.9c-0.43-0.54-0.76-0.99-1.13-1.41
		c-1.83-2.08-3.31-2.12-5.49-0.28c-2.43,2.06-3.96,4.87-6.04,7.39c-1.42-3.98-2.92-4.67-6.69-2.93c-1.7,0.79-3.21,2.01-4.8,3.03
		c-0.78-0.69-0.86-1.68-0.97-2.6c-1.07-9.2-0.91-18.42-0.56-27.64C336.56,537.43,336.61,536.1,337.52,535.07z"/>
	<path class="st3" d="M476.28,430.63c-3.92-0.35-7.84-0.71-11.76-1.07c-5.13-0.47-10.24-0.43-15.38,0.01
		c-5.74,0.49-11.45,1.14-17.12,2.08c-4.59,0.76-9.14,1.79-13.41,3.75c-0.57,0.26-1.14,0.56-1.64,0.94
		c-2.69,2.06-3.03,3.06-0.81,5.63c6.84,7.89,11.71,17.04,17.15,25.84c-9.35-2.42-18.77-4.53-28.34-5.89
		c-4.79-0.68-9.6-1.19-14.43-1.3c-1.49-0.04-2.48-0.44-3.32-1.74c-1.45-2.26-4.11-4.24-4.45-6.6c-0.33-2.32,1.63-4.94,2.54-7.45
		c4.27-11.73,4.75-23.68,1.99-35.79c-0.43-1.89-0.42-2.57,1.97-2.29c18.26,2.1,35.92,6.79,53.44,12.13
		c10.68,3.26,21.35,6.55,31.7,10.8C475.04,429.96,475.65,430.32,476.28,430.63z"/>
	<path class="st3" d="M427.59,264.42c0.01,1.11,0.91,1.63,1.58,2.26c8.56,8.16,13.14,18.15,14.27,29.91
		c0.26,2.73-0.1,5.53,0.69,8.21c-4.69,2.92-9.37,5.84-14.06,8.76c-17.65,10.97-34.81,22.67-51.61,34.89
		c-0.64,0.47-1.29,0.91-2.22,1.57c1.83-5.77,2.79-11.34,1.83-17.08c-0.03-0.16,0.01-0.34-0.05-0.47c-1.88-3.98,0.31-6.71,2.61-9.7
		c15.14-19.67,30.76-38.95,46.58-58.08C427.31,264.58,427.46,264.51,427.59,264.42z"/>
	<path class="st5" d="M349.91,485.41c11.2-5.51,20.31-13.41,27.12-23.88c1.55-2.38,2.86-4.91,4.43-7.63
		c3.14,3.92,5.93,7.8,8.18,12.06c2.96,5.62,5.63,11.37,7.93,17.28c1.61,4.13,1.68,8.52,1.75,12.89c0.02,1.02-0.23,1.6-1.36,0.97
		c-0.14-0.07-0.28-0.14-0.43-0.2c-1.64-0.6-3.42-1.51-4.96-0.25c-1.55,1.27-0.07,2.96-0.05,4.46c0.01,0.38,0.12,0.75,0.18,1.09
		c-0.71,0.7-1.25,0.02-1.81-0.07c-0.62-0.09-1.51-0.57-1.81-0.06c-1.35,2.27-4.92,2.22-5.37,5.46c-0.33,2.41-1.73,3.5-4.46,3.23
		c-3.21-0.32-4.49,0.99-5.46,4.39c-0.39,1.36-0.37,2.83-1.13,4.08c-0.88-0.01-1.21-0.74-1.7-1.22c-1.82-1.76-3.29-1.67-4.57,0.52
		c-0.99,1.69-1.73,3.53-2.72,5.61c-1.34-2.07-2.75-3.27-4.61-0.9c-0.42,0.53-0.88,0.12-1.26-0.11c-1.64-0.96-2.66-0.18-3.57,1.14
		c-1.44,2.08-2.93,4.14-4.4,6.2c-0.92-0.36-1.02-1.26-1.55-1.82c-1.73-1.81-3.18-1.9-5.16-0.3c-1.72,1.39-3.09,3.19-5.07,4.27
		c-0.88-1.02-0.72-2.24-0.58-3.4c1.44-11.85,3.56-23.56,7.93-34.73C346.61,491.37,347.62,488.06,349.91,485.41z"/>
	<path class="st5" d="M338,571.23c1.93-1.5,3.74-3.22,6.08-4.07c2.38-0.86,3.05-0.43,3.49,2.06c0.14,0.8,0.26,1.66,1.12,1.95
		c1.06,0.36,1.54-0.54,2.09-1.2c1.87-2.26,3.27-4.88,5.46-6.89c2.06-1.89,2.97-1.7,4.23,0.85c0.43,0.86,0.4,2.3,1.78,2.18
		c1.26-0.11,1.27-1.44,1.63-2.38c0.9-2.37,1.82-4.73,2.72-7.1c0.56-1.46,1.23-1.49,2.05-0.2c0.21,0.33,0.44,0.66,0.62,1.01
		c0.39,0.74,0.28,1.99,1.35,2.04c1.13,0.05,1.5-1.12,1.77-1.98c0.82-2.52,2.38-3.51,5.01-2.91c1.83,0.42,2.97-0.5,3.72-2.17
		c1.01-2.24,2.25-4.35,3.72-6.34c2.59,2.36,3,2.28,4.5-0.87c0.41-0.86,0.72-1.77,1.16-2.6c0.63-1.18,0.67-3.1,2.9-2.5
		c0.24,0.06,0.72-0.36,0.93-0.67c1.06-1.5,1.75-1.02,2.59,0.27c1.25,1.91,2.06,1.82,3.22-0.12c1.73-2.89,1.99-6.13,2.25-9.88
		c2.04,1.95,3.83,3.53,3.72,6.28c-0.71,17.2-4.52,33.71-11.05,49.62c-0.6,1.46-1.08,1.18-1.9,0.28c-0.48-0.53-1.02-1.01-1.6-1.41
		c-1.77-1.22-2.84-0.96-3.75,1.02c-1.03,2.22-2.06,4.42-3.81,6.17c-1.18-0.64-0.78-2.9-2.49-2.54c-1.75,0.36-1.35,2.3-1.89,3.54
		c-0.15,0.36-0.12,0.78-0.24,1.16c-0.46,1.5-0.55,3.64-1.95,4.13c-1.27,0.44-2.05-1.6-2.99-2.58c-1.31-1.36-2.41-1.48-3.37,0.25
		c-0.56,1.01-0.89,0.65-1.53,0.04c-2.09-2.02-2.98-1.75-3.74,1.14c-0.45,1.74-1.04,3.4-1.84,5.17c-0.89-1.43-1.61-2.75-2.49-3.96
		c-1.46-2-2.74-2.08-4.12-0.11c-1.01,1.44-1.6,1.88-2.89,0.23c-1.4-1.8-2.68-1.54-3.85,0.48c-0.63,1.09-1,2.34-2.04,3.16
		c-1.17,0.24-1.49-0.76-1.89-1.44c-5.06-8.71-7.6-18.22-8.8-28.15C337.86,571.86,337.99,571.55,338,571.23z"/>
	<path class="st6" d="M349.91,485.41c-1.54,3.72-3.23,7.39-4.58,11.17c-3.12,8.72-5.27,17.69-6.37,26.91
		c-0.36,3.05-1.16,6.06-0.94,9.17c-0.47,0.53-0.75,0.39-0.98-0.22c-0.48-1.28-1.32-1.8-2.56-0.95c-0.51,0.35-0.81,0.42-1.09-0.15
		c-0.89-1.85-2.19-1.14-3.38-0.47c-1.72,0.98-3.45,1.97-5.05,3.13c-1.22,0.88-1.95,0.79-2.54-0.59c-0.31-0.73-0.66-1.44-1.06-2.13
		c-1.3-2.27-2.76-2.79-5.13-1.86c-0.29,0.12-0.58,0.26-0.87,0.38c-4.35,1.82-4.35,1.82-5.73-2.61c-0.83-2.66-1.88-3.12-4.43-1.98
		c-5.24,2.36-5.2,2.34-7.77-2.73c-0.64-1.26-0.91-3.02-2.77-3.26c-1.09-0.14-1.79,0.68-3.74,4.12c-1.54-2.84-3.18-5.49-3.06-8.62
		c0.36-9.26,2.43-18.19,5.61-26.88c0.35-0.96,0.57-1.47,1.78-0.9c10.43,4.93,21.49,4.92,32.64,4.05
		C335.56,490.4,342.89,488.52,349.91,485.41z"/>
	<path class="st3" d="M434.26,470.15c5.96,11.36,12.15,22.63,14.52,35.44c0.84,4.5,1.41,9.06,1.21,13.67
		c-8.65-5.88-17.21-11.89-26.34-17.02c-6.02-3.38-12.29-6.24-18.68-8.81c-1.51-0.6-2.4-1.44-2.95-3.04
		c-3.15-9.24-7.11-18.13-11.72-26.73c-0.22-0.4-0.39-0.83-0.71-1.5c6.16,0.42,12.05,0.85,17.89,1.84
		c8.28,1.41,16.51,3.02,24.59,5.32C432.82,469.53,433.53,469.87,434.26,470.15z"/>
	<path class="st1" d="M426.7,551.65c6.17,6.89,11.25,14.52,15.67,22.62c4.74,8.7,9.15,17.56,13.23,26.59
		c0.71,1.56,0.61,2.09-1.25,2.4c-5.94,0.98-11.86,2.05-17.9,2.34c-7.76,0.37-14.71-1.93-21.04-6.24c-3.8-2.59-7.4-5.44-10.37-9.01
		c1.01-4.55,2.56-8.94,4.06-13.34c3.17-9.32,9.04-16.96,15.21-24.41C424.89,551.88,425.55,551.09,426.7,551.65z"/>
	<path class="st3" d="M443.82,307.35c0.25,8.97-1.42,17.63-4.07,26.14c-0.19,0.62-0.75,1.26-0.19,1.97
		c-9.33,4.54-18.71,8.96-27.92,13.76c-14.09,7.34-27.76,15.36-40.94,24.23c-1.41,0.95-2.3,1.11-3.59-0.23
		c-1.81-1.87-3.92-3.46-6.14-5.38c2.77-1.81,5.42-3.64,7.64-6.01c1.47-1.57,3.03-3.11,3.99-5.02c1.49-2.97,3.91-4.86,6.5-6.75
		c20.22-14.72,40.96-28.65,62.43-41.5C442.26,308.11,443.05,307.75,443.82,307.35z"/>
	<path class="st6" d="M337.52,535.07c-0.59,5.75-0.41,11.53-0.5,17.29c-0.09,5.54,0.6,11.03,1.02,16.53
		c-1.06,1.51-1.91,0.34-2.73-0.26c-3.14-2.32-3.35-2.32-6.1,0.48c-3.13,3.18-3.6,3.1-5.3-0.93c-1.75-4.16-2.25-4.32-6.26-2.02
		c-0.55,0.31-1.13,0.57-1.67,0.9c-1.21,0.74-2.04,0.49-2.61-0.85c-0.56-1.31-1.21-2.58-1.83-3.86c-0.81-1.68-1.98-2.1-3.68-1.17
		c-1.62,0.89-3.3,2.95-4.95,2.15c-1.42-0.69-0.94-3.32-1.59-5.01c-0.2-0.52-0.31-1.07-0.53-1.58c-0.85-1.95-1.8-2.27-3.41-0.86
		c-1.3,1.14-1.94,0.87-2.97-0.38c-2.7-3.28-3.45-7.2-4.22-11.19c-1.44-7.56-2.51-15.15-2.59-23.05c0.97,0.67,1.06,1.69,1.55,2.45
		c1.22,1.92,2.4,1.98,3.56,0.11c0.57-0.92,0.81-2.6,1.83-2.51c1.1,0.09,1.29,1.79,1.87,2.8c0.04,0.07,0.07,0.15,0.09,0.22
		c1.25,4.97,3.05,5.82,8.19,3.07c2.86-1.53,3-1.46,3.73,1.61c0.15,0.62,0.32,1.23,0.4,1.86c0.25,2.06,1.47,2.47,3.22,1.89
		c1.58-0.52,3.17-1.03,4.68-1.71c1.57-0.7,2.5-0.23,3.31,1.19c2.79,4.89,2.82,4.88,7.56,2.04c0.75-0.45,1.48-0.92,2.24-1.35
		c0.99-0.57,2.08-1.62,2.54,0.52c0.11,0.49,0.84,0.97,1.05,0.76C335.26,532.41,336.15,534.83,337.52,535.07z"/>
	<path class="st3" d="M283.29,549.4c-3.66-5.15-7.53-10.14-10.58-15.71c-5.06-9.24-8.33-19.06-10.49-29.32
		c-0.62-2.97-0.48-6.12-1.89-8.92c4.28-6.31,9.04-12.23,14.07-17.95c1.14-1.29,2.14-1.48,3.87-1.07c3.46,0.81,6.3,2.33,8.52,5.11
		c0.63,0.79,1.54,1.36,2.38,1.96c3.26,2.33,3.32,2.33,2.01,6.03c-5.82,16.41-6.4,33.19-3.52,50.2c0.2,1.2,0.05,2.1-0.57,3.11
		C285.75,544.97,284.54,547.2,283.29,549.4z"/>
	<path class="st3" d="M450.07,521.61c-0.11,0.11-0.31,0.2-0.33,0.32c-0.66,5.75-4.37,9.54-8.27,13.33
		c-4.81,4.66-9.74,9.23-13.89,14.54c-5.92-6.72-12.15-13.14-18.47-19.49c-0.69-0.69-1.18-1.39-1.17-2.47
		c0.02-10.82-1.09-21.5-4.13-31.94c-0.06-0.21-0.01-0.46-0.01-1.1C420.84,501.23,435.64,511.08,450.07,521.61z"/>
	<path class="st1" d="M291.23,556.49c1.59,4.55,3.15,9.11,4.78,13.64c2.74,7.62,6.14,14.94,10.29,21.89
		c0.93,1.55,0.58,2.38-0.41,3.67c-5.42,7.07-12.99,7.83-20.99,7.34c-4.98-0.31-9.94-0.87-14.86-1.75c-1.3-0.23-1.91-0.54-1.62-2.1
		c3.18-16.64,7.97-32.74,15.87-47.81c0.11-0.21,0.28-0.38,0.43-0.57c1.06-0.25,1.57,0.58,2.12,1.16
		C288.29,553.48,290,554.76,291.23,556.49z"/>
	<path class="st6" d="M338,571.23c1.39,3.63,1.39,7.54,2.34,11.26c1.54,6.02,3.69,11.78,6.69,17.22c0.42,0.75,0.82,1.53,1.55,2.05
		c-0.6,1.74-1.41,2-2.53,0.39c-0.32-0.46-0.66-0.89-1-1.33c-1.65-2.12-2.4-2.27-4-0.1c-1.41,1.92-2.52,1.64-3.96,0.21
		c-0.95-0.95-2.06-1.75-3.04-2.67c-1.54-1.43-2.93-1.39-4.24,0.28c-0.2,0.25-0.39,0.5-0.58,0.76c-1.98,2.74-1.97,2.74-4.36,0.4
		c-1.93-1.9-2.41-1.84-3.86,0.51c-1.2-2.11-2.3-4.22-3.56-6.23c-1.52-2.43-2.7-2.53-4.17-0.09c-1.27,2.08-1.89,1.71-3.19,0.03
		c-7.54-9.7-11.4-21.12-15.42-32.48c-0.47-1.34-0.86-2.7-1.45-4.55c1.64,1.83,3.1,2.23,4.65,0.7c0.81-0.81,1.3-0.71,1.58,0.45
		c0.41,1.69,0.85,3.38,1.31,5.06c0.68,2.45,1.51,2.85,3.78,1.89c0.51-0.22,1-0.48,1.49-0.74c3.6-1.95,3.6-1.96,5.44,1.9
		c1.77,3.7,2.52,3.94,6.19,1.96c3.53-1.9,3.53-1.9,5.12,1.71c1.8,4.1,3.51,4.43,6.8,1.31c0.46-0.44,0.93-0.88,1.32-1.37
		c0.97-1.21,1.82-1.08,2.99-0.13C335.04,570.53,336.08,572.12,338,571.23z"/>
	<path class="st6" d="M377.62,616.59c-3.88,5.58-8.46,10.49-13.83,14.66c-4.77,3.69-9.93,3.34-15.07,1.06
		c-7.41-3.3-13.7-8.26-19.55-13.79c-5.9-5.58-11.14-11.74-15.86-18.34c-0.91-1.27-1.49-2.25,0-3.5c0.82-0.69,1.09-1.92,2.24-2.67
		c1.39,2.44,2.72,4.86,4.13,7.24c0.5,0.84,0.78,2.1,2.11,1.94c1.28-0.16,0.83-1.54,1.45-2.43c0.82,0.29,1.26,1.05,1.83,1.62
		c1.67,1.68,2.87,1.63,4.29-0.22c2.54-3.29,2.54-3.29,5.81-0.63c0.31,0.25,0.62,0.5,0.93,0.75c3.1,2.54,3.38,2.52,6.16-0.49
		c0.21-0.23,0.47-0.42,0.7-0.62c4.21,4.43,4.21,4.43,6.36,2.88c1.45-0.25,1.85,1.01,2.48,1.83c3.2,4.15,6.36,8.31,10.56,11.55
		c0.82,0.63,1.65,1.23,2.48,1.84c2.59,1.88,5.15,1.76,7.72-0.02c1.24-0.86,2.4-1.82,3.59-2.75
		C376.58,616.15,377.23,615.39,377.62,616.59z"/>
	<path class="st7" d="M376.49,333.98c1.37,13.93-5.49,26.81-17.53,32.95c-12.47,6.36-26.68,4.47-37.13-4.93
		c-0.15-0.98,0.59-1.22,1.26-1.42c3.29-1,5.15-3.49,6.73-6.32c0.38-0.68,0.34-1.81,1.56-1.77c11.63,8.98,26.86,2.56,30.14-9.77
		c0.99-3.73,0.71-7.37-0.3-11.02c-0.25-0.87,0.2-1.3,0.93-1.65c3.02-1.47,11.24,0.04,13.5,2.51
		C376.03,332.97,376.3,333.45,376.49,333.98z"/>
	<path class="st4" d="M307.02,298.21c-0.49-3.91-0.81-7.84-1.51-11.71c-0.8-4.37-0.93-8.79-1.24-13.18
		c-0.7-9.88-0.93-19.8-0.47-29.69c0.51-11.26,1.38-22.5,3.12-33.67c1.48-9.53,3.51-18.91,6.18-28.16c0.13-0.44,0.38-0.85,0.58-1.27
		c-0.84,8.34-0.88,16.72-1.26,25.09c-0.21,4.81-0.42,9.65,0.21,14.47c0.11,0.86,0.09,1.74,0.08,2.61
		c-0.23,12.59,0.58,25.15,1.58,37.68c0.57,7.14,1.78,14.23,2.69,21.35c0.17,1.28,0.04,2.46-0.67,3.64
		C313.56,289.9,310.48,294.19,307.02,298.21z"/>
	<path class="st4" d="M335.59,303.89c2.54-8.9,5.59-17.63,9.11-26.18c5.71-13.88,13.51-26.66,21.18-39.5
		c4.2-7.03,9.45-13.24,14.71-19.46c0.35-0.41,0.84-0.71,1.26-1.06c0.19,1.18-0.4,2.14-0.89,3.14c-4.2,8.7-8.98,17.11-12.97,25.92
		c-7.95,17.53-14.76,35.47-19.89,54.03c-0.47,1.71-1.1,2.4-2.88,2.23C341.98,302.71,338.8,303.5,335.59,303.89z"/>
	<path class="st3" d="M254.2,415.45c-7.97-6.61-13.3-14.64-14.43-25.24c-0.59-5.58-0.43-11.02,0.88-16.45
		c0.13-0.53,0.11-1.1,0.16-1.65c9.08,4.7,17.77,10.03,26.11,15.93c0.75,0.53,1.49,0.94,0.49,1.97c-6.79,6.98-9.73,15.96-12.85,24.84
		C254.48,415.07,254.32,415.25,254.2,415.45z"/>
	<path class="st5" d="M377.62,616.59c-1.77-0.05-2.47,1.59-3.65,2.42c-4.16,2.93-6.01,3.08-10.24,0.17
		c-5.22-3.59-9.05-8.49-12.76-13.5c-0.47-0.64-0.86-1.33-1.64-1.65c0.86-1.42,1.76-2.81,2.54-4.27c0.54-1,0.93-0.98,1.72-0.2
		c2.35,2.33,2.7,2.33,4.72-0.26c0.84-1.08,1.39-1.13,2.09,0.01c0.79,1.28,1.59,2.55,2.06,4c0.21,0.65,0.41,1.44,1.37,1.39
		c0.86-0.04,1.19-0.69,1.45-1.37c0.84-2.22,1.66-4.44,2.5-6.72c0.14,0.05,0.39,0.08,0.55,0.21c0.83,0.71,0.9,2.3,2.12,2.38
		c1.27,0.08,1.24-1.44,1.79-2.24c0.48-0.7,0.85-0.54,1.3-0.05c0.32,0.35,0.65,0.7,0.97,1.05c2.71,2.95,4.16,2.69,5.66-1.12
		c0.6-1.53,0.95-3.17,1.41-4.75c2.23,2.07,2.91,2.02,4.69-0.45c1.11-1.54,2.17-3.12,2.82-4.94c0.45-1.25,1.04-1.34,2.07-0.5
		c2.52,2.05,2.6,2.26,1.21,5.27c-3.71,7.99-8.11,15.59-12.98,22.92C378.87,615.18,378.22,615.86,377.62,616.59z"/>
	<path class="st3" d="M426.7,551.65c-2.16,0.41-2.79,2.48-3.97,3.86c-7.42,8.62-12.74,18.38-15.58,29.45
		c-0.48,1.87-1.02,3.75-2.12,5.39c-2.59-2.05-4.27-4.84-6.22-7.42c-0.5-0.66-0.33-1.32-0.08-2.02c5.66-15.61,8.9-31.67,9.23-48.3
		c0-0.15,0.09-0.3,0.21-0.66C414.78,538.2,421.01,544.67,426.7,551.65z"/>
	<path class="st8" d="M376.49,333.98c-3.93-3.43-8.49-4.4-13.54-3.5c-0.77,0.14-1.61,0.16-1.73,1.22
		c-2.57-6.37-7.03-10.6-13.78-12.26c-1.8-0.44-3.63-0.48-5.44-0.31c-1.19,0.11-1.63-0.33-2.02-1.39c-2.22-5.92-7.12-8.75-13.28-7.76
		c5.83-5.02,18.24-6.98,27.64-3.52C367.15,311.18,374.57,320.41,376.49,333.98z"/>
	<path class="st6" d="M263.73,443.52c-2.58-2.61-4.91-5.37-5.57-9.16c-0.69-3.9-1.41-7.79-2.2-11.67c-0.7-3.47-0.22-6.75,1.07-10.01
		c1.84-4.61,3.53-9.28,5.81-14.06c2.32,4.75,2.89,9.64,4.13,14.32c1.47,5.59,2.86,11.2,4.16,16.83c0.62,2.68,1.69,5.09,3.23,7.34
		c3.53,5.17,6.78,10.54,11.25,14.99c-0.63,1.83-2.05,1.06-3.11,0.78c-2.37-0.62-4.62-1.64-6.87-2.59
		C271.42,448.49,267.21,446.63,263.73,443.52z"/>
	<path class="st3" d="M248.49,311.65c-1.54-5.98-3.78-11.74-5.79-17.57c-7.37-21.32-14.5-42.72-22.67-63.75
		c-0.28-0.72-0.39-1.52-0.58-2.28c5.43,7.42,10.19,15.27,14.79,23.22c0.63,1.1,1.17,2.26,1.89,3.3c4.72,6.86,6.62,14.82,8.92,22.63
		c3.23,10.97,7.32,21.59,13.09,31.51c0.19,0.33,0.34,0.7,0.65,1.34C255.14,310.02,251.79,310.71,248.49,311.65z"/>
	<path class="st8" d="M331.38,352.49c-1.27,2.5-2.61,4.9-4.7,6.9c-1.43,1.38-3.55,1.17-4.85,2.61
		c-13.82-12.31-13.58-32.7-3.88-44.21c-0.38,2.24-0.57,4.23,0.02,6.21c0.95,3.21,2.83,5.66,5.83,7.15c1.07,0.53,1.52,1.02,1.23,2.34
		C323.34,341.07,325.63,347.37,331.38,352.49z"/>
	<path class="st7" d="M244.06,352.57c4.56,7.57,14.38,12.36,25.43,7.13c1.06,3.54,2.12,7.06,3.16,10.58
		c0.38,1.29-0.78,1.4-1.49,1.73c-11.66,5.43-26.03,2.47-34.64-7.11c-0.37-0.44-0.33-1,0.07-1.26c3.75-2.5,5.84-5.98,6.36-10.45
		C243,352.76,243.5,352.44,244.06,352.57z"/>
	<path class="st4" d="M274.54,293.02c-5.05-6.65-9.11-13.91-12.46-21.51c-4.47-10.14-8.17-20.57-10.53-31.43
		c-0.68-3.15-1.41-6.31-1.66-9.54c2.94,5.6,5.8,11.24,8.84,16.78c4.37,7.98,8.82,15.91,14.2,23.27c0.93,1.27,1.3,2.58,1.27,4.17
		C274.1,280.86,274.07,286.95,274.54,293.02z"/>
	<path class="st8" d="M244.06,352.57c-0.48,0.21-0.77,0.6-0.79,1.1c-0.18,4.47-2.26,7.78-6.09,10.04c-0.45,0.27-0.6,0.71-0.66,1.2
		c-10.37-10.74-11.64-29.44-2.57-40.2c-0.57,2.94-0.21,5.6,1.14,8.06c1.33,2.45,3.32,4.2,5.96,5.18c0.59,0.22,1.09,0.4,0.91,1.33
		C241.05,343.95,241.74,348.4,244.06,352.57z"/>
	<path class="st9" d="M328.98,330.74c-5.44-0.04-9.66-4.28-9.63-9.67c0.03-5.51,4.33-9.64,9.96-9.56c5.37,0.07,9.68,4.46,9.58,9.78
		C338.79,326.6,334.41,330.77,328.98,330.74z"/>
	<path class="st9" d="M244.94,336.94c-5.45-0.05-9.57-4.25-9.51-9.72c0.06-5.3,4.28-9.49,9.54-9.47c5.31,0.01,9.64,4.44,9.56,9.76
		C254.47,332.78,250.18,336.99,244.94,336.94z"/>
	<path class="st3" d="M260.37,492.17c-0.16-3.93-0.52-7.87-0.44-11.8c0.14-6.99,0.62-13.98,2.02-20.86c0.1-0.49,0.28-0.9-0.22-1.25
		c0.87-0.83,1.53-0.64,2.64-0.06c3.95,2.03,5.95,5.28,7.1,9.41c0.59,2.11,1.73,4.07,2.74,6.04c0.38,0.73,0.51,1.2-0.13,1.84
		C269.02,480.64,264.85,486.53,260.37,492.17z"/>
	<path class="st10" d="M306.95,377.26c0.03-0.07,0.03-0.18,0.08-0.22c1.58-1.35,2.9-3.77,5.28-2.9c2.77,1.01,4.85,3.34,5.11,6.39
		c0.88,10.55-2.29,19.69-10.13,27.03c-0.22,0.2-0.53,0.3-1.09,0.61c0.13-1.4,0.24-2.54,0.34-3.68c3.11-6.42,4.49-13.09,3.16-20.23
		C309.24,381.7,308.1,379.5,306.95,377.26z"/>
	<path class="st11" d="M275.41,377.66c1.9,4.21,3.69,8.26,6.36,11.83c0.47,0.62,0.41,1.08-0.01,1.67
		c-3.45,4.84-4.26,10.64-5.84,16.16C270.29,400.78,269.95,385.74,275.41,377.66z"/>
	<path class="st8" d="M243.03,316.17c3.66-2.4,7.16-3.44,10.8-4.11c0.7-0.13,1.41-0.24,2.12-0.3c2.3-0.21,4.23,0.06,5.56,2.46
		c1.22,2.2,2.99,4.09,4.52,6.11c0.29,0.38,0.72,0.7,0.86,1.12c0.39,1.15,0.45,2.5-0.14,3.45c-0.47,0.75-1.56-0.1-2.36-0.26
		c-2.37-0.47-4.74-0.4-7.11-0.16c-0.72,0.07-1.3,0.34-1.68-0.67C253.52,318.33,249.44,315.84,243.03,316.17z"/>
	<path class="st5" d="M297.77,476.64c-6.98,1.3-13.07,0.03-19.11-1.71c-1.7-0.49-2.88-1.57-3.64-3.16
		c-1.37-2.86-2.48-5.81-3.58-8.97c1.09-0.12,1.84,0.52,2.64,0.88c3.83,1.71,7.6,3.54,11.72,4.51c0.51,0.12,1.08,0.38,1.44,0.74
		C290.17,471.95,293.48,474.47,297.77,476.64z"/>
	<path class="st6" d="M273.06,461.29c-5.9-2.12-10.2-5.91-12.6-11.8c-2.2-5.39-6.77-10.09-4.57-16.61c0-0.01,0.17,0.11,0.19,0.25
		c1.35,7.95,7.04,12.68,12.87,17.3c0.93,0.73,1.89,1.43,2.84,2.15c2.64,1.73,4.36,4.25,5.91,6.91c0.39,0.67,0.88,1.42,0.26,2.17
		c-0.58,0.72-1.44,0.59-2.19,0.35C274.89,461.71,273.99,461.44,273.06,461.29z"/>
	<path class="st3" d="M438.06,338.24c-1.65,3.63-3.29,7.25-4.95,10.88c-0.35,0.78-0.87,1.5-0.76,2.42
		c-7.19-0.08-14.38,0.2-21.66,0.39C419.64,346.95,428.68,342.25,438.06,338.24z"/>
	<path class="st3" d="M251.1,375.63c7.43,1.58,14.52,0.74,21.37-2.45c0.37-0.17,0.93-0.64,1.18,0.07c0.31,0.86,1.2,1.7,0.61,2.65
		c-2.06,3.35-3.29,7.01-4.25,10.79c-0.26,1.04-0.88,0.89-1.6,0.37C262.82,383.05,257.03,379.32,251.1,375.63z"/>
	<path class="st4" d="M315.62,373.97c1.54-2.56,3.24-5.05,4.16-7.93c0.31-0.97,0.76-1.92,0.58-2.99c2.86,2.37,5.73,4.73,9.22,6.13
		c1.05,0.42,0.53,0.87,0.16,1.41c-2.83,4.12-6.08,7.87-10.23,11.55C319.11,378.83,317.76,376.18,315.62,373.97z"/>
	<path class="st11" d="M306.95,377.26c1.75,0.75,2.27,2.44,2.69,3.99c2.08,7.66,1.72,15.13-2.14,22.23c-0.21,0.39-0.63,0.67-0.95,1
		c0.02-5.58-0.41-11.15-2.46-16.36C302.31,383.62,303.89,380.32,306.95,377.26z"/>
	<path class="st5" d="M273.06,461.29c0.87-0.13,1.72-0.18,2.57,0.13c0.68,0.24,1.56,0.54,2.01-0.02c0.52-0.64-0.27-1.27-0.61-1.86
		c-1.47-2.53-3.34-4.76-5.24-6.97c3.77,2.01,7.64,3.77,11.77,4.98c0.81,0.24,1.41,1.22,2.06,1.91c2.38,2.52,4.75,5.06,7.52,8.02
		C285.51,467.16,279.24,464.37,273.06,461.29z"/>
	<path class="st12" d="M263.73,443.52c5.56,3.32,11.35,6.14,17.47,8.27c1.41,0.49,2.86,1.54,4.42,0.31c1.58,1.65,3.16,3.3,4.88,5.1
		C279.91,455.71,270.94,451.37,263.73,443.52z"/>
	<path class="st13" d="M291.23,556.49c-2.63-1.37-4.17-3.99-6.51-5.7c0.84-2.3,2.16-4.33,3.59-6.78
		C289.34,548.44,290.28,552.47,291.23,556.49z"/>
	<path class="st14" d="M343.32,417.87c2.57-5.21,3.97-10.8,5.12-16.44c0.83-4.08,3.34-6.93,6.26-9.51c1.39-1.23,2.83-0.77,3.83,0.74
		c1.87,2.81,3.17,5.83,3.3,9.26c0.07,1.79,0.01,3.59,0.01,5.51c4.69-4.1,5.76-3.8,7.74,2.06c1.53,4.53,2.86,9.09,0.72,14
		c1.26,0.31,2.62-0.33,3.53,0.86c1.02,1.33,0.82,2.84,0.85,4.33c0.13,7.04-2.05,13.53-4.7,19.92c-2.86,6.9-6.77,13.23-10.57,19.62
		c-1.8,3.04-4.9,3.8-7.66,5.25c-7.02,2.23-14.14,4.08-21.45,5.1c-2.97,0.41-5.99,0.48-9,0.68c-0.63,0.04-1.39,0.11-1.67-0.59
		c-0.35-0.9,0.48-1.26,1.05-1.62c4.66-2.88,9.08-6.1,13.32-9.56c0.48-0.39,1.06-0.68,1.38-1.54c-3.39,0.74-6.59,1.55-9.83,2.12
		c-3.19,0.56-6.42,0.89-9.64,1.28c-0.67,0.08-1.58,0.34-1.88-0.53c-0.28-0.82,0.57-1.23,1.09-1.66c3.1-2.59,6.03-5.35,9.14-8.88
		c-5.57,1.14-10.65,1.19-15.74,1.07c-1.1-0.02-2.75,0.68-3.2-0.67c-0.44-1.33,1.22-1.84,2.14-2.5c8.14-5.8,15.95-12.01,23.48-18.59
		C337.12,432.19,340.56,425.28,343.32,417.87z"/>
	<path class="st5" d="M346.66,414.52c1.33-4.71,2.72-9.39,3.83-14.17c0.65-2.78,2.71-4.8,4.69-6.74c1.24-1.22,1.97-0.22,2.55,0.82
		c1.86,3.32,2.89,6.85,2.58,10.69c-1.13,13.96-4.91,27.22-10.65,39.94c-1.09,2.41-3.4,3.4-5.44,4.72
		c-1.79-3.78-1.88-7.78-1.47-11.83C343.54,430.05,344.6,422.2,346.66,414.52z"/>
	<path class="st6" d="M346.66,414.52c0.4,3.1-0.82,5.99-1.31,8.96c-0.87,5.3-1.4,10.63-2.07,15.94c-0.45,3.51,0.76,6.89,0.95,10.36
		c-6.63,3.96-13.93,5.92-21.48,7.07c-4.59,0.7-9.2,1.16-14.44,0.83c1.53-1.13,2.64-1.95,3.76-2.76c5.97-4.33,11.63-9.04,17.35-13.69
		c6.64-5.39,11.39-12.02,14.42-19.96C344.71,418.99,345.71,416.77,346.66,414.52z"/>
	<path class="st5" d="M347.07,462.17c3.92-1.47,6.35-4.5,8.49-7.91c5.34-8.48,10.18-17.19,13.4-26.72c0.25-0.75,0.46-1.48,1.32-1.85
		c1.72-0.75,2.53-0.33,2.61,1.52c0.22,5.05-0.47,9.96-2.13,14.74c-3.22,9.27-7.93,17.79-13.24,26c-0.52,0.81-1.13,1.54-2.03,1.95
		c-4.39,2.03-8.92,3.63-13.67,4.58c-0.17-0.38-0.17-0.81,0.06-1.12c2.23-3.1,3.3-6.7,4.52-10.24
		C346.52,462.74,346.8,462.45,347.07,462.17z"/>
	<path class="st5" d="M349.48,448.33c3.45-4.94,5.15-10.65,6.99-16.27c2.05-6.24,3.83-12.57,4.59-19.12
		c0.32-2.77,2.4-4.34,4.19-6.08c0.78-0.76,1.45-0.41,1.79,0.55c1.91,5.28,3.68,10.33,1.59,16.28c-4.06,11.52-9.45,22.27-16.33,32.32
		c-1.32,1.93-2.92,3.5-5.24,4.17C347.09,456.07,348.3,452.21,349.48,448.33z"/>
	<path class="st6" d="M349.48,448.33c-0.15,4.08-1.39,7.94-2.43,11.85c-9.36,3.7-19.03,6.12-29.71,7.37
		c3.54-3.18,6.41-6.09,9.1-9.17c0.52-0.6,1.24-0.7,1.91-0.85C335.98,455.79,343.21,453.16,349.48,448.33z"/>
	<path class="st6" d="M347.07,462.17c-0.86,4.48-2.64,8.57-5.26,12.31c-5.81,1.54-11.67,2.74-17.73,2.97
		c-0.13-0.97,0.69-1.02,1.12-1.32c4.75-3.29,9.35-6.74,13.62-10.65C341.09,463.41,344.3,463.24,347.07,462.17z"/>
</g>
</svg>
