<?xml version="1.0" encoding="utf-8"?>
<!-- Generator: Adobe Illustrator 24.3.0, SVG Export Plug-In . SVG Version: 6.00 Build 0)  -->
<svg version="1.1" id="Layer_1" xmlns="http://www.w3.org/2000/svg" xmlns:xlink="http://www.w3.org/1999/xlink" x="0px" y="0px"
	 viewBox="0 0 720 720" style="enable-background:new 0 0 720 720;" xml:space="preserve">
<style type="text/css">
	.st0{fill:#221714;}
	.st1{fill:#D38D79;}
	.st2{fill:#E97A63;}
	.st3{fill:#AF5058;}
	.st4{fill:#B36A5F;}
	.st5{fill:#824741;}
	.st6{fill:#A05C53;}
	.st7{fill:#EFE9D7;}
	.st8{fill:#D5C5BF;}
	.st9{fill:#D38D78;}
	.st10{fill:#AE4F57;}
	.st11{fill:#824641;}
	.st12{fill:#272423;}
	.st13{fill:#221814;}
	.st14{fill:#FFFFFF;}
	.st15{fill:#9C7965;}
	.st16{fill:#B79780;}
	.st17{fill:#6A554C;}
	.st18{fill:#6A534A;}
	.st19{fill:#9C7864;}
	.st20{fill:#6B544B;}
</style>
<g>
	<path class="st0" d="M460.28,292.33c-0.05-0.04-0.1-0.08-0.13-0.14c0,0.08,0,0.16,0,0.25C460.2,292.4,460.24,292.37,460.28,292.33z
		"/>
	<path class="st0" d="M664.4,332.28c6.24-5.08,10.68-11.53,13.73-18.94c6.77-16.42,7.25-33.29,3.65-50.48
		c-5.28-25.26-18.74-44.52-41.56-56.95c-1-0.55-0.91-1.1-0.74-1.98c2.2-11.87,1.73-23.61-1.17-35.35
		c-5.77-23.36-19.47-40.29-41.05-50.71c-9.67-4.68-20.21-6.01-30.86-6.26c-11.83-0.27-23.47,0.94-34.62,5.22
		c-6.94,2.66-13.28,6.47-19.43,10.59c-1.02,0.68-1.66,0.73-2.67-0.07c-2.23-1.76-4.76-3.04-7.32-4.28
		c-14.11-6.84-28.91-8.7-44.23-5.79c-16.83,3.2-31.13,11.09-42.49,24.01c-0.88,1-1.73,1.19-2.87,1.12
		c-11.31-0.67-21.73,2.29-31.59,7.64c-14.2,7.71-25.18,18.33-30.89,33.8c-1.75,4.74-3.31,9.52-4.14,14.51
		c-0.16,0.98-0.4,1.46-1.51,1.42c-5.09-0.16-9.76,1.33-14.26,3.83c-0.02-0.41-0.05-0.74-0.06-1.07c-0.35-19.65-1.65-39.23-4.6-58.68
		c-1.04-6.83-2.09-13.66-4.63-20.15c-0.85-2.17-1.62-2.52-3.83-1.78c-3.15,1.06-6.16,2.43-9.01,4.16
		c-13.18,8.02-24.16,18.4-33.19,30.87c-1.08,1.49-2.04,3.05-3.13,4.69c-0.18-0.49-0.32-0.8-0.41-1.14
		c-5.45-20.48-27.9-37.98-55.16-27.9c-0.66,0.25-1.27,0.47-1.99,0.27c-8.17-2.18-16.46-2.19-24.69-0.69
		c-15.76,2.86-27.47,11.12-33.6,26.35c-0.52,1.29-1.18,1.92-2.53,2.28c-12.9,3.44-22.35,11.13-28.11,23.21
		c-2.01,4.21-2.95,8.75-3.72,13.32c-1.87,11.07-0.83,21.71,4.68,31.98c-0.94-0.06-1.77-0.08-2.59-0.16
		c-13.06-1.26-26.1-1.22-39.08,0.91c-16.65,2.74-32.49,7.71-46.93,16.65c-2.19,1.36-2.26,1.57-0.61,3.57
		c13.27,16.07,27.09,31.61,42.7,45.49c11.13,9.89,22.43,19.51,35.63,26.61c9,4.84,18.37,8.64,28.59,9.93
		c1.32,0.17,1.83,0.91,2.32,1.97c6.38,13.96,15.07,26.33,25.51,37.56c5.21,5.61,11.27,9.19,18.74,10.6c2.94,0.55,2.86,0.64,2.7,3.69
		c-0.72,13.84-0.92,27.65,2.06,41.3c0.29,1.33-0.03,1.86-1.29,2.43c-9.32,4.22-18.37,8.95-27.1,14.3
		c-6.77,4.15-13.76,7.94-20.83,11.58c-3.8,1.96-7.69,3.76-11.95,4.57c-1.73,0.33-3.19,0.15-4.61-1.07
		c-1.78-1.52-3.67-2.95-5.67-4.17c-3.85-2.34-7.87-4.26-12.55-4.4c-5.27-0.16-9.4,2.72-13.78,4.92c-1.74,0.88-2.61,2.62-3.1,4.49
		c-0.98,3.73-1.11,7.5-0.64,11.32c0.19,1.57,0.67,3.2,0.44,4.71c-0.83,5.57,1.37,9.53,5.69,12.88c9.12,7.05,19.12,12.62,29.25,18.03
		c5.79,3.1,11.78,4.19,18.2,3.62c14.88-1.31,29.66-3.35,44.29-6.37c16.57-3.42,33.03-7.38,49.85-9.48c0.79-0.1,1.47-0.09,2.18,0.29
		c4.17,2.21,8.58,3.81,13.11,5.05c1.07,0.29,1.3,0.59,0.84,1.67c-1.11,2.62-2.45,5.1-4.07,7.43c-6.32,9.08-12.79,18.06-19.59,26.78
		c-6.43,8.23-13.01,16.34-20.36,23.79c-4.02,4.07-8.7,6.63-14.56,7.09c-3.63,0.29-7.33,0.29-10.86,1.43
		c-6.45,2.09-10.39,10.02-7.66,15.62c1.87,3.86,4.98,6.88,7.53,10.27c2,2.66,5.39,3.78,8.56,4.81c0.96,0.31,1.51,0.77,1.88,1.68
		c1.58,3.9,4.54,5.97,8.7,6.35c12.98,1.17,25.78,0.23,38.5-2.71c8.03-1.86,14.64-5.52,20.29-11.6c7.82-8.4,16.04-16.43,23.69-25
		c14.13-15.83,29.06-30.98,41.15-48.54c0.68-0.99,1.48-1.04,2.47-1.04c6.51,0.01,12.98-0.48,19.41-1.59
		c4.96-0.86,9.84-2.04,14.81-3.32c0.35,5.41-0.32,10.62-0.8,15.84c-0.81,8.76-2.33,17.37-4.85,25.82
		c-1.59,5.35-4.77,9.07-10.05,11.01c-2.46,0.9-4.86,1.96-7.16,3.24c-1.41,0.79-2.67,1.74-3.51,3.15c-2.63,4.46-4.62,9.06-3.94,14.46
		c0.37,2.97,1.21,5.64,3.28,7.87c0.79,0.85,1.77,1.58,2.11,2.77c1,3.45,3.6,4.91,6.88,5.43c6.77,1.06,13.51,0.51,20.25-0.4
		c10.62-1.45,20.56-4.65,29.46-10.84c4.51-3.14,7.55-7.14,9.1-12.42c3.59-12.26,7.54-24.4,12.01-36.37
		c4.89-13.07,10.18-25.97,17.31-38.03c0.66-1.12,1.17-1.52,2.52-1.02c4.98,1.85,10.03,3.52,15.02,5.33c4.3,1.56,8.54,3.25,12,6.39
		c14.13,12.81,24.13,28.31,30.15,46.39c1.93,5.79,1.52,11.23-2.12,16.34c-1.55,2.18-3.04,4.48-4.02,7
		c-2.1,5.38-0.82,9.26,4.12,11.53c3.72,1.71,7.57,2.52,11.64,2.5c0.68,0,1.33-0.14,2.02,0.2c6.03,2.92,12.37,2.38,18.71,1.54
		c1.05-0.14,2.01-0.15,3.05-0.02c5.3,0.7,10.5,1,14.64-3.47c2.05-2.21,3.35-4.76,3.98-7.62c2.63-11.88,2.74-23.93,1.38-35.9
		c-1.52-13.33-6-25.95-11.47-38.14c-4.61-10.27-7.81-20.82-8.19-32.09c-0.22-6.33-2.71-11.02-8.59-13.7
		c-0.25-0.11-0.48-0.28-0.71-0.42c-3.46-2.04-5.95-4.87-7.28-8.71c-2.51-7.24-4.96-14.5-7.65-21.67
		c-5.63-15.03-8.53-31.07-16.62-45.19c-0.53-0.91,0.08-1.05,0.72-1.22c2.6-0.7,5.19-1.46,7.88-1.71c11.87-1.1,23.74-1.45,35.63-0.35
		c8.62,0.8,17.15,1.98,25.26,5.29c1.21,0.49,1.82,1.13,2.27,2.36c3.57,9.92,9.62,17.75,19.09,22.81c6.68,3.57,13.9,4.61,21.25,4.68
		c16.54,0.16,31.65-4.79,45.76-13.28c15.3-9.21,22.75-22.9,23.38-40.45c0.46-13.04-2.22-25.54-7.4-37.51
		C663.77,333.89,663.24,333.22,664.4,332.28z M535.52,117.14c11.69-4.16,23.93-4.65,36.24-3.77c9.53,0.68,18.84,2.43,27.31,6.96
		c19.34,10.35,32.02,26.05,37.53,47.45c2.96,11.49,3.66,23,1.71,34.7c-0.3,1.76-0.68,2.13-2.55,1.42
		c-12.89-4.96-26.24-6.87-40.05-5.89c-11.22,0.79-22.26,2.35-32.79,6.45c-3.85,1.5-7.59,3.26-11.39,4.91
		c-4.4,2.72-8.87,5.32-12.77,8.77c-0.97,0.86-1.35-0.18-1.73-0.71c-2.36-3.25-3.67-6.97-4.33-10.87
		c-1.28-7.52-0.72-14.86,2.74-21.79c1.05-2.1,2.26-4.12,4.02-5.74c1.44-2,3.44-3.34,5.45-4.69c0.65-0.43,2.18-0.7,1.44-1.77
		c-0.63-0.92-1.6,0.21-2.29,0.65c-7.08,4.46-11.21,10.97-12.68,19.09c-1.36,7.54-1.01,15,2.24,22.13c0.69,1.52,1.52,2.95,2.54,4.26
		c0.61,0.79,0.51,1.28-0.2,1.9c-18,15.49-28.45,36.05-38.33,57c-1.91,4.06-3.67,8.19-5.5,12.29c-5.71,13.42-10.07,27.32-14.97,41.04
		c-3.34,9.35-7.6,18.27-15,25.26c-1.75,1.66-3.46,3.89-5.58,4.5c-2.22,0.63-4.06-2.02-6.18-3.02c-1.12-0.53-2.79-1.08-3.03-1.94
		c-0.28-1.01,1.39-1.82,2.2-2.73c4.93-5.47,6.67-12.27,8.16-19.2c2.96-13.78,2.53-27.73,2.21-41.68c-0.11-4.47-0.37-8.97,0.22-13.44
		c-0.08-16.67,0.42-33.31,2.57-49.87c2.9-22.4,8.08-44.17,18.74-64.29C493.44,141.87,511.3,125.75,535.52,117.14z M443.79,123.1
		c19.76-8.08,39.47-7.69,58.8,1.7c2.42,1.17,4.78,2.47,6.99,4.3c-2.19,1.73-4.38,3.29-6.36,5.08
		c-11.92,10.79-20.94,23.65-27.24,38.43c-4.2,9.86-8.04,19.84-10.1,30.41c-0.04,0.19-0.18,0.37-0.28,0.55
		c-0.83,4.33-1.67,8.65-2.48,12.98c-0.28,1.5-1.42,1.12-2.28,1.01c-8.78-1.12-15.57-5.35-20.03-13.07
		c-2.17-3.75-3.56-7.77-3.8-12.13c-0.81-6.5-0.39-12.83,2.85-18.7c1.52-2.77,3.69-4.98,6.26-6.81c0.49-0.35,1.52-0.68,0.89-1.52
		c-0.6-0.81-1.23,0.01-1.75,0.37c-5.91,4.15-9,9.93-9.74,17.05c-1,9.69,0.44,18.77,6.84,26.51c4.85,5.86,11.15,9.14,18.78,9.68
		c1.09,0.08,1.52,0.16,1.31,1.52c-2.36,15.38-3.62,30.84-3.62,46.41c0,7.67-0.22,15.33-0.34,23c0.02,10.92,0.58,21.86-0.45,32.75
		c-0.66,7-2.06,13.92-4.37,20.6c-1.45,4.19-4.01,7.69-7.16,10.79c-0.73,0.72-1.37,0.8-2.17,0.25c-0.28-0.2-0.61-0.33-0.91-0.5
		c-1.5-0.85-3.52-1.36-4.36-2.64c-0.8-1.24,0.55-3.08,0.83-4.68c2.11-11.9,0.55-23.37-3.98-34.49c-1.33-3.26-2.85-6.43-4.28-9.65
		c-5.67-12.08-13.07-23.22-18.92-35.22c-8.25-16.91-13.56-34.46-14.54-53.35c-1.05-20.33,2.36-39.79,10.43-58.4
		C415.51,139.42,428.2,129.48,443.79,123.1z M350.96,186.18c4.96-14.22,14.15-24.8,26.9-32.54c10.25-6.22,21.12-10.2,33.3-9.85
		c0.66,0.02,1.33,0.07,2.17,0.11c-0.18,0.42-0.26,0.67-0.39,0.88c-8.63,13.02-12.67,27.66-14.99,42.86
		c-2.58,16.88-1.62,33.63,2.25,50.22c0.36,1.53-0.15,1.53-1.3,1.14c-4.93-1.65-9.08-4.32-11.8-8.9c-0.34-0.58-0.57-1.75-1.56-1.11
		c-0.77,0.49-0.01,1.26,0.3,1.8c2.95,5.05,7.46,8.08,12.95,9.65c1.58,0.46,2.32,1.09,2.81,2.69c4.66,15.22,11.85,29.3,19.7,43.07
		c1.64,2.88,3.25,5.78,4.88,8.67c5.59,10.7,11.2,21.4,12.73,33.63c0.85,6.82,0.87,13.61-1.08,20.3c-0.35,1.21-0.63,1.56-1.88,0.87
		c-2.84-1.57-5.76-2.98-8.67-4.43c-0.7-0.35-1.32-0.67-1.53-1.54c-3.03-12.62-10.97-21.91-20.47-30.14
		c-0.41-0.35-0.75-0.79-1.12-1.19c-12.84-11.14-26.23-21.72-36.9-35.12c-11.09-13.92-17.97-29.72-20.42-47.38
		C344.78,215.02,345.98,200.45,350.96,186.18z M332.85,203.95c3.53-1.66,7.23-2.69,11.17-2.8c1.26-0.03,1.63,0.23,1.43,1.63
		c-3.74,26.56,2.77,50.63,18.24,72.28c6.04,8.45,13.56,15.66,21.25,22.67c5.61,5.13,11.79,9.61,17.18,14.99
		c6.62,6.14,13.64,11.93,17.85,20.21c1.71,3.37,3.32,6.79,4.16,10.79c-2.44-0.79-4.67-1.55-6.93-2.23c-2.56-0.76-5.2-0.54-7.82-0.54
		c-0.67,0-1.44,0.26-1.97-0.35c-3.31-3.85-7.76-6.13-11.94-8.78c-11.48-6.31-23.92-10.44-35.84-15.73
		c-6.63-2.94-13.25-5.92-19.41-9.8c-3.06-1.93-5.86-4.15-8.34-6.79c-0.88-0.93-1.24-1.86-1.15-3.14c0.66-9.46,0.54-18.93,0.04-28.4
		c-0.18-3.39-0.26-6.84-1.34-10.04c-1.49-4.41-1.24-8.78-0.75-13.25c1.31-12.11,1.78-24.27,1.6-36.44
		C330.25,206.08,331.13,204.76,332.85,203.95z M405.82,341.19c-13.1,2.85-24.83,8.73-36.76,14.09c-3.4,1.52-6.8,3.04-10.21,4.55
		c-3.47,1.54-7.02,1.94-10.69,0.74c-0.59-0.19-1.2-0.33-1.79-0.51c-3.19-0.93-6.45-1.97-9.06-3.97c-2.76-2.11-2.47-5.91-3.58-8.93
		c-4.91-13.37-4.9-27.2-3.6-41.14c0.17-1.77,0.25-3.55,0.4-5.7c9.56,9.49,21.47,13.96,33.01,19.02c9.28,4.07,18.9,7.37,27.93,12.04
		c3.75,1.94,7.36,4.09,10.81,6.52C403.58,338.82,404.75,339.85,405.82,341.19z M319.54,124.14c1.97,4.63,2.86,9.11,3.67,13.61
		c1.39,7.72,2.47,15.49,3.25,23.29c0.58,5.83,0.94,11.67,1.34,17.52c0.34,5.02,0.9,10.03,0.77,15.07
		c0.93,18.32,0.19,36.59-1.73,55.31c-1.54-2.83-2.79-5.25-4.15-7.6c-2.09-3.59-4.59-6.89-7.5-9.86c-0.85-0.87-0.8-1.51-0.38-2.52
		c1.22-2.94,1.99-6,2.18-9.2c-1.31-1.09-2.3,0.05-3.73,0.65c0.9-2.72,2.2-5.05,2.71-7.64c0.46-2.36,1-4.71,1.43-7.08
		c0.1-0.55,0.32-1.35-0.48-1.62c-0.62-0.21-0.99,0.38-1.36,0.77c-2.88,3.07-5.75,6.16-8.62,9.24c-0.37,0.4-0.76,0.79-1.49,1.56
		C305.01,184.21,306.56,153.52,319.54,124.14z M122.78,213.72c-0.88-5.79-0.54-11.56,0.43-17.31c0.04-0.26,0.22-0.49,0.34-0.74
		c2.44-14.99,10.61-25.86,24.62-31.39c14.73-5.81,29.87-5.34,44.69,0.4c3.74,1.45,7.14,3.62,10.01,6.49
		c2.89,1.85,5.22,4.32,7.32,6.97c7.49,9.48,12.11,20.25,13.7,32.21c0.84,6.37,0.91,12.81-0.14,19.21c-0.13,0.79-0.73,2.1,0.45,2.3
		c0.95,0.15,0.91-1.24,1-1.98c1.42-12.54,0.59-24.79-4.42-36.58c-3.48-8.18-8.17-15.5-14.67-21.61c-6.17-5.43-13.08-9.51-21.2-11.2
		c-8.81-1.83-17.69-1.9-26.6-0.66c-0.32,0.05-0.66,0.01-1.17,0.01c2.44-6.71,6.21-12.32,11.64-16.73c7.76-6.3,16.7-9.48,26.66-10.17
		c6.47-0.45,12.89-0.35,19.1,1.56c11.24,3.45,19.65,10.68,26.17,20.3c4.23,6.24,6.47,13.22,7.81,20.56c0.86,2.5,0.91,5.13,1.05,7.7
		c0.45,8.13,0.85,16.29-2.9,23.94c-0.27,0.55-1.14,1.45-0.03,1.9c0.86,0.35,1.04-0.7,1.31-1.27c3.17-6.67,3.67-13.75,3.3-21
		c-0.28-5.5-0.87-10.96-2.25-16.3c-2.38-9.53-7-17.81-13.91-24.8c-4.52-4.57-9.75-8.12-15.55-10.85c-0.49-0.23-0.97-0.49-1.46-0.75
		c-0.04-0.02-0.03-0.13-0.05-0.19c18.46-6.94,40.55,0.18,50.48,22.44c3.08,7.23,3.34,14.7,1.83,22.3
		c-1.53,7.64-4.2,14.74-10.01,20.27c-0.4,0.38-0.89,0.83-0.54,1.43c0.47,0.81,0.89,0.02,1.35-0.12c1.35-0.42,2.7-0.31,4.03,0.15
		c14.36,1.95,21.71,10.02,24.81,23.31c0.98,4.19,1.04,8.49,1.15,12.77c0.03,1.28-0.15,2.56-0.43,3.9c-2.46-4.1-5.81-7.52-7.86-11.86
		c-3.34-7.05-7.95-12.95-15.49-15.95c-0.73-0.29-1.44-0.89-2.31-0.41c-0.07,0.46,0.19,0.66,0.53,0.79
		c10.2,4.16,15.23,12.56,18.28,22.48c2.16,7.02,2.82,14.24,1.5,21.5c-1.02,5.63-3.89,10.43-7.43,14.85
		c-0.71,1.21-1.91,1.89-3.04,2.98c0.58-8.15-0.13-15.76-4.05-22.78c-1.14-1.31-2.18-2.74-3.87-3.59c2.85,3.95,5.13,8.11,5.7,13
		c1.82,8.65,1.01,16.95-3.14,24.77c-0.69,0.06-0.75-0.37-0.83-0.65c-1.71-6.39-6.48-10.1-11.74-13.36c-4.6-2.85-9.59-4.89-14.6-6.9
		c-4.34-1.75-8.11-4.13-10.52-8.53c-2.67-4.88-6.79-8.51-11.77-11.07c-1.16-0.6-1.18-0.56-2.64-0.37
		c4.95,3.14,9.64,6.56,12.88,11.57c3.21,4.96,5.17,10.33,5.63,16.24c-0.82,0.28-1.18-0.36-1.63-0.71
		c-10.94-8.25-23.53-12.27-36.88-14.26c-2.79-0.42-5.62-0.61-8.45-0.79c-0.87-0.06-1.4-0.44-1.92-1.01
		c-1.53-1.69-3.04-3.4-4.63-5.04c-0.69-0.71-0.75-1.08,0.1-1.74c10.49-8.2,11.8-19.22,9.24-31.21c-1.62-7.58-5.36-14.04-11.64-18.83
		c-12.17-9.28-28.98-2.43-31.34,12.74c-0.64,4.16-0.58,8.25,0.94,12.24c2.52,6.61,8.63,10.22,15.28,8.72
		c5.05-1.14,7.44-5.11,6.7-10.31c-0.06-0.44-0.21-0.85-0.74-0.81c-0.56,0.04-0.54,0.52-0.57,0.93c-0.01,0.14-0.02,0.28,0,0.41
		c1.06,8.08-7.87,10.61-13.92,7.13c-2.61-1.5-4.44-3.79-5.38-6.63c-2.49-7.53-1.63-14.61,3.39-20.9c5.27-6.6,17.11-9.62,26.39-1.02
		c6.53,6.05,9.67,13.67,10.35,22.38c0.53,6.78-0.52,13.23-4.49,18.98c-1.44,2.09-3.3,3.7-5.29,5.22c-0.84,0.64-1.43,0.48-2.18-0.16
		c-11.81-10.04-25.85-14.83-40.87-17.26c-2.65-0.43-5.31-0.9-7.99-1.11c-1.36-0.11-2.14-0.73-2.83-1.73
		C124.59,223.79,123.55,218.79,122.78,213.72z M114.7,319.89c-4.53-1.49-8.18-4.56-12.02-7.24c-8.55-5.99-16.28-13-24.12-19.87
		c-0.26-0.22-0.45-0.52-0.67-0.78c0,0,0,0,0,0c-8.84-7.85-16.97-16.41-24.79-25.25c-4.62-5.22-9.08-10.57-13.61-15.87
		c-0.44-0.52-0.87-1.05-1.54-1.87c5.92-0.51,11.52,0.03,17.12,0.27c5.56,0.41,11.14,0.69,16.69,1.27c6.64,0.7,13.27,1.48,19.81,2.85
		c11.62,2.43,23.12,5.32,33.81,10.68c11.72,5.87,22.09,13.36,29.25,24.65c0.26,0.4,0.49,0.82,0.87,1.47
		c-2.28-0.32-3.98-1.51-5.83-2.26c-4.99-2.05-10.06-3.8-15.25-5.27c-0.4-0.11-0.8-0.22-1.21-0.25c-0.45-0.03-1.02-0.19-1.24,0.43
		c-0.2,0.56,0.17,0.93,0.54,1.24c1.16,0.98,2.35,1.92,3.52,2.89c2.43,2.03,5.01,3.89,7.68,6.64c-1.54,0-2.57-0.01-3.61,0
		c-3.59,0.04-7.19-0.11-10.76,0.37c-0.57,0.08-1.37-0.27-1.57,0.58c-0.17,0.72,0.47,1.12,0.94,1.49c4.63,3.61,9.3,7.17,14.45,10.02
		c0.29,0.16,0.57,0.34,1.21,0.73c-3.82,0.89-7.28,1.7-10.73,2.51c-0.65,0.15-1.51,0.03-1.69,0.9c-0.21,0.99,0.74,1.24,1.33,1.62
		c2.48,1.59,4.99,3.14,7.69,4.83c-1.23,0.53-2.17,0.95-3.13,1.33c-0.58,0.23-1.3,0.31-1.35,1.08c-0.06,0.83,0.64,1.15,1.23,1.51
		c1,0.59,2.12,0.98,2.99,1.9c-0.84,0.48-1.69,0.62-2.57,0.6C130.21,322.91,122.3,322.39,114.7,319.89z M185.08,379.42
		c-3.41-1.14-6.36-2.95-8.93-5.46c-11.92-11.61-21.4-24.94-28.35-40.06c-0.75-1.64-1.47-2.74-3.64-3.01
		c-8.27-1.05-16.07-3.77-23.46-7.77c3.16,0.34,6.32,0.71,9.49,1.02c3.99,0.39,7.98,0.74,11.95-0.17c0.67-0.15,1.51-0.15,1.69-0.94
		c0.2-0.89-0.7-1.07-1.26-1.4c-1.18-0.7-2.37-1.37-3.64-2.09c0.64-0.96,1.65-0.91,2.38-1.34c0.64-0.37,1.58-0.5,1.62-1.41
		c0.03-0.77-0.77-1.09-1.34-1.45c-2.32-1.48-4.65-2.94-7.34-4.63c3.87-0.9,7.35-1.71,10.82-2.52c0.77-0.18,1.87-0.1,1.99-1.11
		c0.11-0.91-0.96-1.07-1.59-1.4c-5.35-2.78-10.18-6.31-14.89-10.03c0.02-0.24,0.04-0.48,0.06-0.72c4.45,0,8.9,0.01,13.35-0.01
		c0.78-0.01,1.87,0.32,2.15-0.72c0.23-0.84-0.73-1.24-1.28-1.71c-2.99-2.55-6-5.08-9.4-7.95c5.43,1.52,10.24,3.3,14.95,5.35
		c2.09,0.91,4.15,1.9,6.22,2.84c0.52,0.24,1.03,0.96,1.62,0.25c0.44-0.52-0.01-1.03-0.28-1.51c-3.99-6.88-8.86-13.02-15.08-18.03
		c-1.61-1.3-3.26-2.54-4.89-3.81c-3.34-1.94-6.64-3.96-10.04-5.79c-11.82-6.36-24.65-9.7-37.73-12.09
		c-16.28-2.97-32.74-4.27-49.29-4.31c-0.24,0-0.49,0-1.38,0c4.1-2.5,7.78-4.47,11.61-6.14c15.5-6.74,31.71-10.52,48.57-11.24
		c17.7-0.76,35.24,0.6,52.33,5.49c14.18,4.06,26.31,11.43,35.38,23.34c0.42,0.55,0.86,1.08,1.31,1.61c0.39,0.45,0.8,1.18,1.47,0.63
		c0.55-0.45,0.01-0.99-0.28-1.45c-0.14-0.22-0.24-0.46-0.52-1c4.93,0.11,9.55,0.64,14.08,1.73c9.85,2.37,19.41,5.5,27.82,11.4
		c1.19,0.83,2.28,1.8,3.48,2.61c1.57,1.06,2.43,0.59,2.47-1.34c0.06-3.42-0.97-6.64-1.99-10.09c6.58,4.29,14.17,5.91,20.62,10.01
		c5.25,3.34,9.96,7.02,11.63,13.42c0.19,0.73,0.49,1.55,1.36,1.67c1.01,0.15,1.43-0.7,1.83-1.42c1.37-2.49,2.47-5.1,3.11-7.88
		c0.26-1.11,0.77-1.98,1.64-2.77c9.93-9.01,13.48-20.23,11.43-33.35c-0.35-2.24-0.8-4.47-1.31-7.24c1.6,2.48,2.93,4.54,4.25,6.6
		c0.33,0.52,0.56,1.2,1.33,1.11c0.91-0.1,0.97-0.89,1.03-1.57c0.93-10.96,0.11-21.65-6.15-31.11c-4.39-6.64-11.1-9.97-18.78-11.46
		c-1.34-0.26-2.7-0.43-4.01-0.63c-0.25-0.49,0.09-0.72,0.28-0.97c7.29-9.31,9.5-20.07,8.87-31.58c-0.09-1.54,0.33-2.68,1.05-3.84
		c6-9.77,13.75-18.01,22.48-25.34c6.05-5.08,12.46-9.67,19.87-12.63c0.67-0.27,1.33-0.71,2.26-0.55c-2.2,5.7-4.54,11.3-6.24,17.12
		c-3.77,12.91-5.95,26.09-7,39.5c-0.92,11.74-0.92,23.49-0.65,35.24c0.02,0.78-0.33,1.85,0.64,2.21c0.96,0.36,1.42-0.68,1.96-1.24
		c2.31-2.38,4.56-4.82,6.87-7.21c0.45-0.47,0.75-1.18,1.73-1.26c-0.33,3.88-1.62,7.41-3.11,10.88c-0.38,0.89-0.81,1.76-1.21,2.64
		c-0.17,0.37-0.41,0.77-0.08,1.16c0.38,0.44,0.9,0.37,1.34,0.16c0.93-0.43,1.83-0.93,2.96-1.52c-0.33,2.94-1.05,5.54-2.26,8.21
		c-1.3-0.97-2.5-1.88-3.72-2.76c-0.34-0.24-0.8-0.43-1.08,0.04c-0.19,0.32,0.03,0.67,0.31,0.91c0.26,0.23,0.54,0.43,0.81,0.65
		c12.59,10.6,19.23,24.1,20.04,40.55c0.68,13.91,0.03,27.77-1.09,41.64c-1.07,13.34-0.2,26.53,4.57,39.22
		c5.84,15.55,2.17,29.43-7.33,42.29c-2.1,2.84-4.44,5.48-7.03,7.89c-1.46,1.37-2.95,2.72-4.87,3.45c-3.5,1.79-7.37,2.29-11.16,2.83
		c-10.62,1.5-21.22,1.25-31.7-1.18c-8.45-1.96-15.99-6.01-23.4-10.37c-6.08-3.57-12.13-7.35-19.21-8.53
		c-6.12-1.02-12.32-1.52-18.49-2.26C201.42,382.73,193.08,382.09,185.08,379.42z M171.28,504.69c-0.02,1.17-0.13,1.78-1.6,1.98
		c-7.57,1.03-15.16,1.77-22.76,2.52c-6.17,0.61-11.67-0.73-17.08-3.54c-10.55-5.49-20.9-11.25-30.13-18.84
		c-2.61-2.14-4.27-4.66-3.94-8.17c0.14-1.49-0.39-3.03,0.37-4.47c0.44-7.25,5.07-8.79,12.24-6.68c2,0.59,3.75,1.74,5.22,3.27
		c0.28,0.29,0.64,0.71,1.04,0.39c0.49-0.39,0.14-0.85-0.13-1.27c-2.79-4.24-11.92-6.18-16.21-3.46c-1.12,0.71-1.62,1.3-2.78,3.24
		c-1.51-3.56,0.32-11.14,3.15-13.03c4.24-2.83,11.01-2.27,14.44,1.15c0.41,0.41,0.76,1.57,1.51,0.77c0.5-0.53-0.31-1.25-0.77-1.71
		c-2.18-2.21-4.87-3.31-7.95-3.62c3.26-1.21,6.57-1.43,9.96-0.34c4.54,1.46,8.62,3.81,12.13,6.97c2.41,2.18,4.87,2.42,7.82,1.65
		c6.29-1.64,11.93-4.72,17.51-7.89c2.73-1.55,5.69-1.88,8.96-2.74c-1.78,2.92-3.53,5.41-4.6,8.27c-0.31,0.83-0.9,1.72-0.25,2.54
		c0.66,0.83,1.58,0.13,2.33,0.01c3.15-0.5,3.15-0.55,2.35,2.54c-0.28,1.07-0.58,2.13-0.9,3.18c-0.14,0.46-0.42,0.92-0.06,1.37
		c0.46,0.57,1.01,0.23,1.52,0.06c2.88-0.95,5.76-1.92,8.64-2.87c0.31-0.1,0.64-0.15,1.24-0.29c-1.71,3.95-3.34,7.65-4.92,11.37
		c-0.33,0.78-1.24,1.62-0.56,2.47c0.79,0.98,1.59-0.22,2.41-0.34c0.39-0.06,0.77-0.23,1.29-0.38c0.1,1.4-0.46,2.52-0.74,3.7
		c0,0.14,0.03,0.28-0.01,0.41c-0.26,0.98-0.89,2.12-0.03,2.92c0.83,0.78,1.77-0.23,2.68-0.38c0.32-0.05,0.64-0.13,1.23-0.26
		c-1.16,3.76-1.78,7.38-2.3,11.04C171.18,499.06,171.34,501.87,171.28,504.69z M222,496.55c-12.58,2.48-25.12,5.14-37.69,7.69
		c-3.31,0.67-6.66,1.14-9.97,1.8c-1.41,0.28-1.8-0.14-1.8-1.54c0.01-6.39,0.78-12.66,2.75-18.76c0.21-0.66,0.89-1.41,0.11-2.09
		c-0.7-0.61-1.43-0.05-2.16,0.07c-0.59,0.1-1.23,0.78-1.73,0.26c-0.51-0.55-0.15-1.29,0.23-1.89c0.22-1.01,0.45-2.01,0.65-3.02
		c0.14-0.66,0.45-1.38-0.14-1.95c-0.64-0.63-1.29-0.04-1.93,0.1c-0.32,0.07-0.62,0.2-1.42,0.47c1.3-3.01,2.43-5.63,3.57-8.24
		c0.52-1.21,1.06-2.4,1.57-3.61c0.21-0.51,0.48-1.07,0.08-1.57c-0.48-0.6-1.11-0.37-1.71-0.17c-3.07,1.01-6.14,2.01-9.37,3.07
		c0.02-1.97,0.74-3.63,1.16-5.34c0.63-2.6,0.55-2.71-1.98-2.15c-1,0.23-2.01,0.42-3.28,0.68c0.48-2.27,1.65-4.01,2.74-5.78
		c0.77-1.23,1.59-2.43,2.35-3.66c0.28-0.45,0.79-0.89,0.41-1.49c-0.39-0.62-0.97-0.32-1.5-0.2c-0.53,0.11-1.08,0.2-2.2,0.41
		c1.65-0.97,2.84-1.65,4-2.36c9.48-5.83,19.2-11.23,29.38-15.75c0.57-0.25,1.47-1.52,1.99-0.18c0.45,1.16,1.73,2.7-0.34,3.74
		c-1.11,0.56-2.24,1.08-3.36,1.62c-1.75,0.84-1.83,1.51-0.12,2.7c2.27,1.57,4.66,2.98,6.71,4.86c0.2,0.18,0.46,0.31,0.5,0.78
		c-0.8-0.24-1.62-0.47-2.42-0.74c-0.64-0.21-1.49-0.84-1.88-0.16c-0.48,0.84,0.58,1.25,1.14,1.7c2.52,2.04,5.18,3.92,7.32,6.39
		c3.13,2.82,5.17,6.46,7.27,10.01c6.12,10.36,14.08,19.11,23.2,26.85c1.87,1.59,4.02,2.86,6.13,4.35
		C234.13,494.47,228.03,495.36,222,496.55z M279.82,576.45c-5.64,6.07-11.67,11.77-17.35,17.79c-3.8,4.04-8.4,6.36-13.62,7.77
		c-7.86,2.12-15.8,3.56-23.97,3.91c-4.07,0.17-8.13,0.19-12.2,0.27c-0.8,0.02-1.67,0.21-2.4-0.36c-7.15-0.14-10.15-2.56-11.39-9.17
		c-0.4-2.14,0.13-3.05,2.2-3.76c4.5-1.55,9.01-3.08,13.5-4.66c0.57-0.2,1.68-0.36,1.32-1.22c-0.33-0.79-1.2-0.18-1.82,0.02
		c-4.39,1.45-8.77,2.91-13.17,4.36c-2.91,0.96-3.56,1.7-3.45,4.78c0.05,1.53-0.46,1.62-1.62,1.08c-2.51-1.16-5-2.31-7.03-4.3
		c-1.36-1.33-1.96-2.83-1.68-4.66c0.24-1.63,0.6-3.25,0.94-4.87c0.37-1.71,1.7-2.5,3.2-2.9c2.46-0.66,4.96-1.16,7.44-1.73
		c0.65-0.15,1.66-0.17,1.53-1.02c-0.15-0.99-1.06-0.49-1.7-0.37c-1.76,0.35-3.5,0.75-5.27,1.03c-4.26,0.67-6.94,2.83-7.24,7.38
		c-0.05,0.72-0.24,1.44-0.42,2.48c-2.74-2.91-5.06-5.68-4.17-9.8c1.06-4.9,3.87-8.26,8.94-9.17c3.52-0.63,7.11-0.9,10.67-1.24
		c5.14-0.5,9.31-2.94,12.89-6.45c8.35-8.2,15.56-17.4,22.77-26.58c2.11-2.68,5.14-4.13,7.77-6.12c0.88-0.66,1.04,0.01,1.04,0.73
		c0.03,2.07,0.03,4.15,0.08,6.22c0.05,1.94,0.53,2.17,2.22,1.14c3.19-1.95,5.95-4.39,8.57-7.82c0,3.31-0.01,6.04,0,8.77
		c0.01,2.44,0.36,2.68,2.42,1.43c1.29-0.79,2.01-0.84,2.41,0.86c0.36,1.54,0.93,3.03,1.44,4.53c0.2,0.58,0.32,1.31,1,1.48
		c0.8,0.2,0.96-0.63,1.31-1.09c0.86-1.16,1.7-2.33,2.91-3.99c0.12,4.49,0.95,8.34,1.39,12.25c0.97,3.57,1.79,7.16,3.48,10.52
		c1.85,3.67,3.87,7.18,7.05,9.85C280.99,574.81,280.77,575.43,279.82,576.45z M410.69,566.66c-1.72,5.16-2.84,10.53-4.95,15.56
		c-2.28,5.44-7.11,8.32-11.91,11.1c-8.14,4.71-17.06,6.91-26.33,7.95c-5.15,0.58-10.25,1.02-15.46,0.45
		c-7.35-0.8-7.87-2.89-8.83-9.36c-0.17-1.15-0.49-2.47,0.38-3.58c0.83-1.76,2.6-2.2,4.17-2.82c2.7-1.08,5.34-2.28,7.86-3.72
		c0.55-0.31,1.58-0.58,1.17-1.41c-0.45-0.9-1.22-0.12-1.77,0.15c-2.65,1.34-5.29,2.7-8.1,3.7c-3.71,1.32-6.06,3.58-5.32,8.15
		c-1.74-0.96-2.17-2.51-2.34-3.87c-0.3-2.44-0.72-4.88-0.39-7.4c0.27-2.14,1.4-3.42,3.2-4.21c2.4-1.05,4.84-2.02,7.38-2.72
		c0.68-0.18,1.86-0.21,1.65-1.14c-0.23-1.01-1.24-0.41-1.93-0.25c-2.67,0.61-5.16,1.81-8.02,2.81c0.82-2.41,1.95-4.11,3.85-5.28
		c2.07-1.28,4.27-2.33,6.54-3.09c6.9-2.3,10.75-7.15,12.39-14.05c0.89-3.75,2-7.46,2.58-11.28c0.33-2.18,1.84-3.28,3.68-4.11
		c4.46-2.03,7.81-1.05,10.57,2.91c1.93,2.77,4.06,5.4,6.1,8.09v0c4.26,4.85,8.96,9.18,14.55,12.49c2.52,1.5,5.29,2.35,8.04,3.26
		C410.28,565.29,411.08,565.49,410.69,566.66z M436.53,504.1c-10.56,17.98-17.47,37.49-24.06,57.14c-1.05,3.14-0.48,2.99-3.94,1.95
		c-7.41-2.22-13.07-7.01-18.29-12.43c-1.28-1.33-2.37-2.85-3.55-4.28c-1.61-2.06-3.54-3.95-4.78-6.22
		c-2.63-4.82-7.61-5.04-11.9-3.52c-0.84,0.3-1.62,0.75-2.66,1.24c0.55-5.31,1.08-10.46,1.61-15.62c0.1-2.83,0.23-5.65,0.29-8.48
		c0.02-0.83,0.33-1.24,1.11-1.49c13.31-4.37,26.12-10.14,39.59-14.08c2.78-0.81,5.58-1.52,8.43-2.04c1.45-0.27,2.75-0.1,4.16,0.52
		c4.35,1.92,8.79,3.66,13.22,5.39C436.86,502.62,437.18,503,436.53,504.1z M544.71,534.33c2.8,8.82,5.29,17.7,5.2,27.08
		c-0.07,6.84,0.21,13.69-0.47,20.51c-0.38,3.85-1.06,7.65-2.64,11.22c-2.28,5.16-8.04,7.85-14.22,6.68
		c-4.35-0.83-4.93-1.63-5.16-6.18c-0.19-3.78,0.57-7.41,1.33-11.05c0.11-0.52,0.53-1.21-0.18-1.44c-0.88-0.29-0.92,0.63-1.06,1.15
		c-1.41,5.43-2.76,10.87-0.46,16.4c0.42,1-0.31,1.16-0.85,1.16c-5.01,0.03-10.09,0.89-14.98-0.97c-2-0.76-3.43-2.03-3.63-4.33
		c-0.45-3.87,0.52-7.52,1.8-11.11c0.18-0.52,0.42-1.03,0.54-1.56c0.12-0.5,0.43-1.16-0.35-1.38c-0.61-0.16-0.82,0.41-0.98,0.85
		c-0.42,1.16-0.86,2.33-1.19,3.52c-0.78,2.77-1.81,5.49-1.53,8.45c0.31,1.47,0.63,2.93,1,4.7c-5.5-0.77-11.04-0.87-14.63-5.97
		c-0.97-2.2-0.58-4.36,0.45-6.37c1.22-2.39,2.5-4.78,4.03-6.99c3.66-5.32,4.08-10.91,2.17-16.96c-2.07-6.55-4.77-12.81-8.12-18.78
		c-0.72-1.29-0.85-2.36-0.23-3.68c1.51-3.24,3.59-6.05,6.18-8.49c2.72-2.56,6.09-1.95,9.26-1.68c2.51,0.21,4.99,1,7.35,1.98
		c4.11,0.84,8.22,1.65,12.32,2.55c5.78,1.27,11.53,0.66,17.26-0.22C543.96,533.27,544.38,533.3,544.71,534.33z M493.9,404.82
		c3.23,7.63,5.14,15.7,7.8,23.52c3.81,11.17,7.54,22.36,11.62,33.43c1.45,3.95,4.04,6.86,7.56,9.02c0.71,0.43,1.4,0.9,2.14,1.27
		c4.53,2.24,6.32,6.04,6.54,10.91c0.43,9.51,2.31,18.76,5.92,27.58c2.51,6.13,5.49,12.06,7.49,18.4c0.99,3.14,1.01,2.91-2.26,3.43
		c-9.99,1.57-19.46-0.96-28.97-3.31c-0.33-0.08-0.62-0.29-0.92-0.43c-2.76-0.64-5.51-1.26-8.37-1.27c-3-0.01-5.51,0.98-7.6,3.17
		c-2.45,2.57-4.41,5.45-6.02,8.93c-2.16-3.21-4.18-6.21-6.2-9.21c-4.41-6.05-9.3-11.65-15.1-16.43c-4.09-3.37-8.99-5.1-13.88-6.81
		c-9.52-3.32-18.97-6.81-28.37-10.47c-6.76-2.63-11.26-7.13-14.44-13.47c-2.35-4.68-4.76-9.37-7.81-13.67
		c-0.24-0.34-0.44-0.72-0.74-1c-0.49-0.46-0.77-1.75-1.63-1.09c-0.81,0.62,0.39,1.24,0.59,1.91c3.42,3.83,4.92,8.77,7.55,13.05
		c1.44,2.35,2.73,4.81,4.19,7.15c1.29,2.06,3.04,3.73,5.34,5.34c-4.93,0.95-9.42,2.31-13.89,3.75c-11.1,3.6-21.79,8.31-32.87,11.95
		c-12,3.96-24.32,6.26-37.01,6.23c-0.4,0-0.8-0.04-1.19-0.07c-0.17-0.73,0.35-1.08,0.67-1.48c9.57-12.17,19.15-24.32,28.74-36.47
		c0.21-0.27,0.5-0.47,0.75-0.7c0.42-0.62,0.84-1.25,1.28-1.87c0.28-0.4,0.65-0.88,0.22-1.29c-0.56-0.53-1.01-0.01-1.36,0.42
		c-1.73,2.15-3.44,4.33-5.17,6.48c-13,16.16-25.67,32.58-38.11,49.17c-6.51,8.69-14.11,16.49-21.38,24.55
		c-5.05,5.59-10.11,11.18-15.16,16.77c-1.72,1.91-1.73,1.93-3.58,0.07c-5.19-5.23-8.02-11.63-9.26-18.81
		c-1.05-4.24-1.4-8.58-1.7-12.92c-0.05-0.66,0.24-1.56-0.57-1.85c-0.93-0.34-1.27,0.61-1.71,1.19c-0.95,1.27-1.85,2.57-3.01,4.18
		c-0.64-1.92-1.2-3.56-1.74-5.2c-0.81-2.44-0.8-2.44-3.1-1.25c-0.29,0.15-0.6,0.28-1.2,0.56c0-3.18,0.01-6.12-0.01-9.06
		c0-0.81,0.16-1.81-0.84-2.12c-0.9-0.28-1.31,0.61-1.75,1.19c-2.2,2.97-4.75,5.55-8.51,7.65c0-2.7,0.03-5.07-0.01-7.44
		c-0.04-2.07-0.6-2.36-2.34-1.26c-0.92,0.58-1.8,1.24-2.85,1.97c-0.04-0.79,0.41-1.13,0.7-1.53c2.95-4.09,5.75-8.31,8.91-12.24
		c6.65-8.25,10.13-17.79,12.22-28.01c3.32-16.25,7.31-32.32,12.93-47.95c0.16-0.45,0.3-0.92,0.4-1.39c0.05-0.26-0.01-0.56-0.34-0.66
		c-0.32-0.09-0.55,0.08-0.68,0.33c-0.24,0.5-0.45,1.01-0.64,1.52c-2.44,6.32-4.46,12.77-6.35,19.27c0,0,0,0,0,0c0,0,0,0,0,0.01
		c-0.66,2.36-1.32,4.72-1.98,7.08c-2.59,10.72-4.43,21.62-7.56,32.22c-0.29,0.98-0.57,1.45-1.84,1.11
		c-13.08-3.52-23.95-10.46-32.64-20.83c-4.19-4.07-7.61-8.75-10.73-13.66c-3.85-6.06-7.25-12.45-13.25-16.77
		c0.38-0.56,0.72-0.32,0.99-0.22c0.53,0.19,1.08,0.51,1.46-0.14c0.37-0.61-0.13-1.02-0.51-1.42c-2.36-2.45-4.96-4.61-7.84-6.43
		c-0.56-0.36-1.09-0.76-1.81-1.27c1.11-0.56,2.02-1.02,2.92-1.49c2.41-1.26,2.65-1.88,1.95-4.44c-0.4-1.46-0.69-2.96-1.02-4.44
		c-1.4-6.31-2.31-12.68-2.38-19.15c-0.04-4.27-0.01-8.54-0.01-12.81c-0.11-3.66-0.07-7.32,0.41-10.96c0.11-0.82,0.15-1.43,1.33-1.28
		c10.4,1.32,20.81,2.51,31.21,3.87c5.95,0.78,11.07,3.76,16.18,6.65c6.37,3.61,12.64,7.38,19.52,10.02c9.27,3.55,18.9,4.41,28.7,4.2
		c1.17-0.03,2.35,0.01,3.52,0.01c4.91-0.26,9.73-1.1,14.52-2.17c3.39-0.76,6.37-2.26,8.91-4.61c8.9-8.24,15.07-18.11,17.78-30.02
		c1.03-4.52,0.62-9.05-0.05-13.59c0.68-0.3,1.06,0.2,1.5,0.43c2.78,1.41,5.69,2.47,8.66,3.42c4.71,1.51,9.21,1.11,13.7-0.94
		c9.05-4.13,18.12-8.21,27.23-12.19c4.37-1.91,8.89-3.43,13.47-4.76c7.26-2.11,14.46-2.25,21.44,1
		c19.15,8.94,37.77,18.76,53.34,33.41C483.88,385.75,489.84,394.66,493.9,404.82z M663.77,337.67c4.35,10.66,6.62,21.8,6.39,33.31
		c-0.38,18.16-8.03,32.16-24.14,41.31c-10.21,5.8-20.94,9.98-32.57,11.52c-9.52,1.27-19.08,1.33-28.18-2.3
		c-11.81-4.7-19.05-13.71-22.49-25.71c-4.39-15.32,0.43-28.11,11.59-38.84c2.66-2.55,5.94-4.24,9.55-5.19
		c9.85-3.22,22.81-2.93,30.28,5.48c4.63,5.21,6.39,11.28,4.85,18.07c-1.18,5.23-4.8,8.19-9.99,9.36c-0.73,0.16-2.29-0.13-2.03,1.11
		c0.22,1,1.56,0.42,2.37,0.24c8.75-1.93,13.23-9.45,11.26-18.87c-2.2-10.57-9.92-17.47-21.58-18.56c-8.89-0.83-17.35,0.87-24.7,6.42
		c-2.22,1.68-4.02,3.78-5.83,5.86c-5.62,7.04-8.25,15.21-8.96,24.06c-0.21,2.61,0.31,5.22,0.85,7.79c0.14,0.65,0.26,1.31,0.43,2.15
		c-4.54-1.45-8.78-3.09-13.28-3.86c-5.1-0.87-10.24-1.42-15.38-1.89c-6.27-0.58-12.57-0.68-18.84-0.36
		c-7.77,0.39-15.62,0.25-23.12,2.84c-0.89,0.31-1.35,0.08-1.85-0.68c-4.36-6.62-9.56-12.5-15.71-17.52
		c-0.44-0.36-1.37-0.76-0.05-1.39c6-2.85,10.91-7.24,15.91-11.48c6.33-5.38,12-11.44,17.67-17.49c0.27-0.3,0.63-0.52,0.94-0.78
		c6.17-6.85,12.92-13.07,20.19-18.73c11.92-9.28,24.68-17.07,39.47-20.89c19.98-5.16,40.02-5.97,59.84,0.56
		c11.21,3.7,20.93,9.95,28.48,19.23c0.56,0.69,0.99,1.49,1.48,2.23c0,0,0,0,0,0C660.03,328.45,661.89,333.08,663.77,337.67z
		 M662.14,330.5c-5.07-9.68-12.54-17.06-21.85-22.65c-6.96-3.88-14.21-6.96-22.09-8.53c-11.62-2.33-23.29-2.57-35.01-1.22
		c-3.6,0.41-3.85,0.53-4.1-2.53c-0.97-12.07,2.61-22.44,11.9-30.55c9.02-8.75,23.8-10.07,32.93-2.63c6.09,4.97,8.31,11.8,7.96,19.53
		c-0.15,3.33-0.89,6.54-2.13,9.64c-0.27,0.68-0.64,1.54,0.65,1.68c6.9-13.21,2.07-33.63-16.01-36.7c-9.62-1.64-18.07,1.4-25.18,7.97
		c-8.43,7.8-11.91,17.72-11.9,29.02c0,0.55,0.15,1.09,0.25,1.64c0.62,3.44,0.62,3.47-2.86,4.14c-14.67,2.84-28.09,8.58-40.23,17.3
		c-0.78,0.56-1.62,1.04-2.43,1.56c-5.29,3.99-10.49,8.07-15.38,12.55c-5.82,5.33-11.18,11.1-16.63,16.78
		c-7.33,7.65-15.03,14.87-23.82,20.85c-5.11,3.48-5.13,3.39-10.02-0.28c-2.75-2.07-5.59-4.02-8.47-6.08
		c1.87-1.62,3.67-3.11,5.41-4.68c5.93-5.37,9.59-12.27,12.82-19.4c4.13-9.13,6.69-18.84,10.03-28.27c0.23-0.64,0.53-1.25,0.79-1.88
		c4.55-12.69,9.95-25.02,15.8-37.17c5.87-12.19,12.46-23.93,20.76-34.61c14.93-19.21,34.25-31.19,58.48-34.95
		c8.85-1.37,17.72-2.1,26.66-1.58c21.57,1.24,39.9,9.32,54.01,26.06c0.89,1.05,1.63,2.23,2.44,3.35
		c4.89,6.06,8.86,12.71,11.46,20.03c4.02,11.31,6.38,23.01,6.22,35.05c-0.16,12.88-2.92,25.17-9.65,36.35
		c-2.37,3.94-5.38,7.34-8.77,10.43C663.39,331.38,662.82,331.81,662.14,330.5z"/>
	<path class="st1" d="M475.91,378.25c-15.57-14.65-34.18-24.47-53.34-33.41c-6.99-3.26-14.18-3.11-21.44-1
		c-4.58,1.33-9.1,2.86-13.47,4.76c-9.11,3.97-18.18,8.05-27.23,12.19c-4.49,2.05-8.99,2.45-13.7,0.94
		c-2.96-0.95-5.88-2.01-8.66-3.42c-0.44-0.22-0.82-0.73-1.5-0.43c0.67,4.54,1.08,9.08,0.05,13.59
		c-2.71,11.91-8.87,21.78-17.78,30.02c-2.54,2.35-5.52,3.86-8.91,4.61c-4.79,1.07-9.61,1.91-14.52,2.17c-5,0.2-9.44,2.82-14.39,3.27
		c-5.44,0.49-10.65-0.9-15.9-1.89c-11.87-2.24-23.68-4.91-35.62-6.69c-8.75-1.31-17.6-1.97-26.19-4.29
		c-2.13-0.58-4.25-1.2-6.21-2.25c-0.81-0.43-1.62-0.78-2.56-0.66c0,4.27-0.04,8.54,0.01,12.81c0.07,6.47,0.98,12.84,2.38,19.15
		c0.66-5.07,2.57-9.57,6.36-13.1c4.64-4.32,9.57-4.83,15.16-1.84c8,4.28,14.28,10.56,20.04,17.38
		c8.45,10.01,17.55,19.28,28.47,26.62c0.69,0.46,1.37,0.91,1.82,1.63c0,0,0,0,0,0c1.89-6.5,3.91-12.95,6.35-19.27
		c0.2-0.51,0.4-1.02,0.64-1.52c0.12-0.25,0.36-0.42,0.68-0.33c0.33,0.1,0.39,0.4,0.34,0.66c-0.09,0.47-0.23,0.93-0.4,1.39
		c-5.61,15.63-9.61,31.71-12.93,47.95c-2.09,10.22-5.56,19.77-12.22,28.01c-3.16,3.93-5.96,8.15-8.91,12.24
		c-0.29,0.4-0.74,0.74-0.7,1.53c1.05-0.73,1.93-1.38,2.85-1.97c1.74-1.1,2.31-0.81,2.34,1.26c0.04,2.37,0.01,4.75,0.01,7.44
		c3.76-2.1,6.31-4.68,8.51-7.65c0.43-0.59,0.84-1.47,1.75-1.19c1,0.31,0.84,1.31,0.84,2.12c0.02,2.94,0.01,5.88,0.01,9.06
		c0.6-0.28,0.9-0.41,1.2-0.56c2.31-1.19,2.3-1.19,3.1,1.25c0.54,1.65,1.1,3.29,1.74,5.2c1.15-1.61,2.06-2.91,3.01-4.18
		c0.43-0.58,0.77-1.53,1.71-1.19c0.8,0.29,0.52,1.19,0.57,1.85c0.3,4.34,0.66,8.68,1.7,12.92c4.6-5.48,9.18-10.97,13.8-16.42
		c4.23-4.99,8.49-9.95,12.74-14.92c4.74-5.54,9.48-11.1,14.24-16.63c3.68-4.28,7.38-8.55,11.08-12.82
		c3.49-4.02,7.17-7.88,11.1-11.46c6.53-5.93,13.26-11.65,21.11-15.82c4.25-2.26,7-1.54,9.95,2.36c2.03,2.69,2.17,2.66,5.36,1.8
		c5.31-1.42,10.79-2.26,15.86-4.5c4.11-1.81,8.19-3.67,12.21-5.65c1.82-0.9,3.04-0.31,4.15,1.04c3.81,4.62,7.83,9.08,11.35,13.91
		c4.06,5.57,9.67,7.8,16.11,9.04c9.94,1.92,19.95,1.11,29.94,1.08c2.26-0.01,4.65-0.09,6.97-0.63c1.66-0.38,2.52-1.08,2.84-2.74
		c2.03-10.53,4.13-21.05,7.03-31.37c3.19-11.34,5.91-22.86,11.35-33.41c1.96-3.8,3.7-7.71,5.72-11.49
		C489.84,394.66,483.88,385.75,475.91,378.25z"/>
	<path class="st1" d="M164.3,295.57c2.27,5.37,4.71,10.77,8.56,15.31c2.63,3.1,5.39,6.04,8.6,8.58c1.19,0.94,1.42,0.33,1.86-0.5
		c0.74-1.76,1.92-3.21,3.33-4.45c7.11-6.24,15.22-10.47,24.79-10.71c7.35-0.18,13.94,2.34,18.42,8.58
		c6.66,9.29,10.31,19.75,11.63,31.08c0.18,1.58-0.31,2.5-1.65,3.4c-4.25,2.84-9.06,4.33-13.77,6.06c0.44,1.08,1.57,1.04,2.4,1.45
		c8.51,4.23,16.94,8.64,25.95,11.81c4.58,1.61,7.6,5.17,10.47,8.98c3.3,4.4,5.81,9.45,9.81,13.24c7.96,7.52,17.17,12.76,28.32,14.07
		c3.56,0.42,7.09,0.88,10.68,0.76c1.92-0.73,3.4-2.09,4.87-3.45c2.59-2.41,4.93-5.05,7.03-7.89c9.5-12.87,13.17-26.75,7.33-42.29
		c-4.76-12.69-5.64-25.88-4.57-39.22c1.11-13.87,1.77-27.72,1.09-41.64c-0.8-16.45-7.45-29.95-20.04-40.55
		c-0.26-0.22-0.54-0.43-0.81-0.65c-0.28-0.24-0.5-0.59-0.31-0.91c0.28-0.47,0.74-0.29,1.08-0.04c1.22,0.88,2.42,1.79,3.72,2.76
		c1.21-2.67,1.92-5.27,2.26-8.21c-1.13,0.58-2.03,1.09-2.96,1.52c-0.44,0.2-0.96,0.28-1.34-0.16c-0.33-0.38-0.09-0.78,0.08-1.16
		c0.4-0.88,0.83-1.75,1.21-2.64c1.49-3.47,2.78-7,3.11-10.88c-0.97,0.08-1.28,0.79-1.73,1.26c-2.31,2.39-4.56,4.83-6.87,7.21
		c-0.54,0.56-1,1.6-1.96,1.24c-0.97-0.36-0.63-1.43-0.64-2.21c-0.27-11.76-0.27-23.5,0.65-35.24c1.05-13.41,3.23-26.58,7-39.5
		c1.7-5.82,4.05-11.42,6.24-17.12c-0.93-0.16-1.58,0.28-2.26,0.55c-7.41,2.97-13.82,7.55-19.87,12.63
		c-8.73,7.33-16.48,15.58-22.48,25.34c-0.72,1.17-1.14,2.31-1.05,3.84c0.63,11.51-1.58,22.27-8.87,31.58
		c-0.2,0.25-0.54,0.48-0.28,0.97c1.31,0.2,2.67,0.37,4.01,0.63c7.68,1.48,14.39,4.82,18.78,11.46c6.26,9.46,7.07,20.15,6.15,31.11
		c-0.06,0.68-0.12,1.47-1.03,1.57c-0.77,0.09-1-0.6-1.33-1.11c-1.32-2.06-2.66-4.12-4.25-6.6c0.5,2.77,0.96,5,1.31,7.24
		c2.05,13.12-1.5,24.34-11.43,33.35c-0.87,0.79-1.38,1.66-1.64,2.77c-0.64,2.78-1.74,5.38-3.11,7.88c-0.4,0.72-0.82,1.57-1.83,1.42
		c-0.87-0.13-1.17-0.94-1.36-1.67c-1.68-6.39-6.38-10.08-11.63-13.42c-6.44-4.1-14.04-5.72-20.62-10.01
		c1.02,3.45,2.06,6.67,1.99,10.09c-0.03,1.93-0.9,2.4-2.47,1.34c-1.2-0.81-2.3-1.78-3.48-2.61c-8.41-5.9-17.97-9.03-27.82-11.4
		c-4.54-1.09-9.16-1.62-14.08-1.73c0.28,0.53,0.38,0.78,0.52,1c0.29,0.46,0.83,1,0.28,1.45c-0.68,0.56-1.08-0.17-1.47-0.63
		c-0.45-0.53-0.89-1.06-1.31-1.61c-9.07-11.91-21.21-19.28-35.38-23.34c-17.09-4.9-34.63-6.25-52.33-5.49
		c-16.87,0.72-33.07,4.5-48.57,11.24c-3.84,1.67-7.51,3.64-11.61,6.14c0.89,0,1.14,0,1.38,0c16.55,0.03,33.01,1.33,49.29,4.31
		c13.08,2.39,25.91,5.73,37.73,12.09c3.4,1.83,6.7,3.86,10.04,5.79c3.96,1.06,7.05,3.67,10.37,5.86
		C155.86,280.45,160.81,287.33,164.3,295.57z M300.81,266.18c1.54-3.41,3.84-6.22,6.95-8.32c2.24-1.52,3.25-1.46,5.43,0.16
		c5.95,4.44,9.43,10.54,11.62,17.47c1.08,3.42,1.8,6.94,2.12,10.11c-0.58,8.65-2.93,16.27-8.08,22.86c-1.94,2.48-2.63,2.6-4.98,0.38
		c-8.34-7.86-13.38-17.44-14.77-28.87C298.53,275.22,298.82,270.59,300.81,266.18z M292.05,366.95c4.36-4.3,9.98-6.27,15.78-7.7
		c1.47-0.36,2.98-0.61,4.48-0.78c5.47-0.62,8.91,3.43,7.33,8.66c-1.11,3.68-3,6.94-5.56,9.82c-2.01,2.26-4.36,3.6-6.78,3.16
		c-5.2-0.14-9.44-1.38-13.45-3.27C289.04,374.58,288.31,370.65,292.05,366.95z"/>
	<path class="st2" d="M481.46,164.49c-10.66,20.12-15.83,41.89-18.74,64.29c-2.15,16.55-2.65,33.2-2.57,49.87c0,4.38,0,8.77,0,13.54
		c0.04,0.06,0.08,0.1,0.13,0.14c2.32-1.88,4-3.8,5.97-5.4c5.14-4.17,11.07-5.56,17.42-4.77c3.43,0.43,5.84,2.9,7.41,6.03
		c0.3,0.59,0.23,1.41,1.03,1.69c1.83-4.1,3.59-8.23,5.5-12.29c9.88-20.95,20.33-41.51,38.33-57c0.71-0.61,0.81-1.11,0.2-1.9
		c-1.02-1.3-1.85-2.74-2.54-4.26c-3.24-7.13-3.6-14.58-2.24-22.13c1.47-8.13,5.6-14.64,12.68-19.09c0.7-0.44,1.66-1.56,2.29-0.65
		c0.74,1.08-0.79,1.34-1.44,1.77c-2.01,1.35-4.01,2.69-5.45,4.69c-0.97,4.97-1.32,9.96,0.23,14.87c2.07,6.57,5.64,12.05,11.85,15.47
		c3.79-1.64,7.54-3.41,11.39-4.91c10.54-4.1,21.58-5.66,32.79-6.45c13.8-0.98,27.16,0.94,40.05,5.89c1.87,0.72,2.25,0.35,2.55-1.42
		c1.95-11.7,1.25-23.22-1.71-34.7c-5.51-21.41-18.2-37.1-37.53-47.45c-8.47-4.53-17.78-6.28-27.31-6.96
		c-12.31-0.87-24.55-0.38-36.24,3.77C511.3,125.75,493.44,141.87,481.46,164.49z"/>
	<path class="st2" d="M661.45,290.21c3.45-5.44,5.08-11.55,6.3-17.8c1.59-8.12,1.51-16.33,1.15-24.51
		c-0.28-6.52-1.59-12.93-4.02-19.06c-0.81-1.12-1.55-2.3-2.44-3.35c-14.12-16.74-32.44-24.82-54.01-26.06
		c-8.94-0.51-17.81,0.21-26.66,1.58c-24.23,3.77-43.55,15.74-58.48,34.95c-8.3,10.68-14.89,22.43-20.76,34.61
		c-5.85,12.15-11.25,24.47-15.8,37.17c0.34,1.28,0.79,0.24,1.03-0.01c3.9-4.21,8.61-7.33,13.68-9.86
		c6.85-3.41,14.11-4.97,21.78-3.89c5.1,0.72,8.03,6.22,8.77,10.6c0.77,4.52,0.37,9.05,0.01,13.57c0.81-0.52,1.65-1,2.43-1.56
		c12.14-8.72,25.56-14.46,40.23-17.3c3.48-0.67,3.48-0.7,2.86-4.14c-0.1-0.54-0.25-1.09-0.25-1.64c-0.01-11.3,3.47-21.22,11.9-29.02
		c7.1-6.57,15.55-9.61,25.18-7.97c18.07,3.07,22.91,23.5,16.01,36.7c-2.65,2.13-5.44,4.09-8.97,4.27c-4.18,0.2-8.34-0.69-9.48-5
		c-0.42-1.58,0.16-2.85,0.78-4.14c1.31-2.73,2.61-5.48,3.22-8.47c1.69-8.28-2.76-16.59-13.07-16.96c-4.09-0.15-8.06,0.63-11.89,2.08
		c-9.29,8.11-12.87,18.48-11.9,30.55c0.25,3.06,0.5,2.95,4.1,2.53c11.73-1.35,23.4-1.11,35.01,1.22c7.87,1.58,15.13,4.65,22.09,8.53
		C649.54,304.61,656.29,298.34,661.45,290.21z"/>
	<path class="st2" d="M398.19,213.72c0.98,18.9,6.3,36.45,14.54,53.35c5.86,12,13.25,23.14,18.92,35.22
		c1.96-5.27,5.52-9.3,9.96-12.59c5.26-3.9,11.08-3.8,16.87,0.17c0.12-7.67,0.34-15.33,0.34-23c0.01-15.57,1.26-31.03,3.62-46.41
		c0.21-1.36-0.23-1.44-1.31-1.52c-7.63-0.54-13.93-3.81-18.78-9.68c-6.41-7.74-7.85-16.82-6.84-26.51
		c0.74-7.12,3.83-12.9,9.74-17.05c0.52-0.36,1.15-1.18,1.75-0.37c0.62,0.84-0.4,1.17-0.89,1.52c-2.58,1.83-4.74,4.04-6.26,6.81
		c-3.23,5.87-3.65,12.2-2.85,18.7c3.21,7.6,9.71,10.34,17.2,11.63c3.83,0.66,7.63,0.62,11.39-0.42c0.1-0.18,0.24-0.36,0.28-0.55
		c2.07-10.57,5.9-20.55,10.1-30.41c6.3-14.78,15.32-27.64,27.24-38.43c1.98-1.79,4.18-3.35,6.36-5.08c-2.21-1.83-4.58-3.13-6.99-4.3
		c-19.34-9.39-39.04-9.78-58.8-1.7c-15.58,6.38-28.28,16.32-35.17,32.21C400.55,173.92,397.14,193.38,398.19,213.72z"/>
	<path class="st2" d="M578.2,369.18c1.02,12.56,7.83,20.69,19.99,24.17c12.55,3.59,25.01,2.7,36.63-2.88
		c12.27-5.89,19.74-16.2,22.97-29.48c1.75-7.21,2.51-14.53,2.01-21.91c-0.29-4.43-0.78-8.92-2.82-13.02
		c-0.21-0.43-0.48-0.85-0.37-1.37c0,0,0,0,0,0c0,0,0,0,0,0c-0.49-0.75-0.92-1.54-1.48-2.23c-7.55-9.29-17.28-15.54-28.48-19.23
		c-19.83-6.53-39.87-5.72-59.84-0.56c-14.79,3.82-27.55,11.61-39.47,20.89c-7.26,5.66-14.02,11.88-20.19,18.73
		c-0.82,2.33-1.92,4.55-2.23,7.06c-0.76,6.22,1.09,7.44,6.28,7.83c4.76,0.36,9.27-1.12,13.88-1.84c6.58-1.03,13.11-1.33,19.75-0.75
		c4.67,0.41,9.31,0.84,13.82,2.17c3.45,1.02,6.56,2.85,9.9,4.15c1.81-2.09,3.6-4.18,5.83-5.86c7.35-5.55,15.81-7.25,24.7-6.42
		c11.66,1.09,19.37,7.99,21.58,18.56c1.97,9.42-2.51,16.94-11.26,18.87c-0.81,0.18-2.15,0.77-2.37-0.24
		c-0.27-1.24,1.3-0.95,2.03-1.11c5.2-1.17,8.81-4.13,9.99-9.36c1.53-6.78-0.22-12.86-4.85-18.07c-7.46-8.41-20.42-8.7-30.28-5.48
		C579.56,356.78,577.68,362.75,578.2,369.18z"/>
	<path class="st3" d="M130.43,229.84c2.68,0.21,5.33,0.68,7.99,1.11c15.02,2.44,29.07,7.22,40.87,17.26
		c0.74,0.63,1.34,0.8,2.18,0.16c1.99-1.52,3.85-3.13,5.29-5.22c3.97-5.75,5.02-12.2,4.49-18.98c-0.68-8.71-3.82-16.33-10.35-22.38
		c-9.28-8.59-21.12-5.57-26.39,1.02c-5.02,6.29-5.88,13.38-3.39,20.9c0.94,2.84,2.77,5.13,5.38,6.63
		c6.05,3.48,14.98,0.96,13.92-7.13c-0.02-0.14-0.01-0.28,0-0.41c0.03-0.41,0.01-0.89,0.57-0.93c0.52-0.04,0.67,0.37,0.74,0.81
		c0.74,5.2-1.66,9.17-6.7,10.31c-6.65,1.51-12.76-2.1-15.28-8.72c-1.52-3.99-1.58-8.08-0.94-12.24
		c2.35-15.17,19.17-22.02,31.34-12.74c6.28,4.79,10.02,11.25,11.64,18.83c2.56,12,1.24,23.02-9.24,31.21
		c-0.85,0.66-0.79,1.03-0.1,1.74c1.59,1.63,3.1,3.35,4.63,5.04c0.52,0.58,1.05,0.96,1.92,1.01c2.82,0.18,5.65,0.37,8.45,0.79
		c13.35,2,25.94,6.01,36.88,14.26c0.45,0.34,0.81,0.98,1.63,0.71c-0.46-5.91-2.42-11.29-5.63-16.24c-3.24-5-7.93-8.43-12.88-11.57
		c1.46-0.19,1.48-0.23,2.64,0.37c4.98,2.56,9.1,6.19,11.77,11.07c2.41,4.4,6.17,6.78,10.52,8.53c5.01,2.01,9.99,4.05,14.6,6.9
		c5.26,3.25,10.02,6.97,11.74,13.36c0.07,0.28,0.14,0.71,0.83,0.65c4.14-7.82,4.95-16.11,3.14-24.77c-0.13,0.18-0.25,0.72-0.36,0.51
		c-2.95-5.08-8.23-6.65-13.11-8.84c-7.68-3.45-15.66-6.12-23.56-8.98c-3.75-1.35-6.89-3.74-10.05-6.08
		c-0.37-0.28-1.01-0.41-0.95-0.97c0.06-0.67,0.76-0.71,1.26-0.88c3.65-1.26,7.32-2.46,10.94-3.79c4.87-1.79,9.57-3.92,13.53-7.39
		c3.02-2.64,4.22-6.26,5.14-9.95c0.31-1.25,0.87-1.91,1.91-2.43c1.41-0.71,2.79-1.45,4.09-2.39c3.11-2.25,4.08-5.22,3.57-8.86
		c-0.05-0.34-0.22-0.66,0.1-0.95c-1.33-0.46-2.68-0.57-4.03-0.15c-0.46,0.14-0.88,0.93-1.35,0.12c-0.35-0.6,0.14-1.05,0.54-1.43
		c5.81-5.54,8.48-12.63,10.01-20.27c1.52-7.6,1.25-15.07-1.83-22.3c-0.02,2.76-0.09,5.51-0.05,8.27c0.02,1.69-0.48,3.25-0.95,4.83
		c-0.47,1.59-1.43,1.77-2.56,0.67c-1.98-1.93-4.25-3.47-6.42-5.16c-1.8-1.4-3.75-2.26-5.98-2.53c-1.5-0.18-2.37,0.48-2.84,2
		c-0.62,2,0.05,4.11-0.73,6.07c1.38,5.35,1.97,10.8,2.25,16.3c0.37,7.24-0.13,14.32-3.3,21c-0.27,0.57-0.46,1.62-1.31,1.27
		c-1.11-0.45-0.24-1.35,0.03-1.9c3.75-7.65,3.34-15.81,2.9-23.94c-0.14-2.57-0.19-5.2-1.05-7.7c-1.58-0.94-3.06-2.07-5.13-1.27
		c-0.79,0.31-1.56-0.42-2.29-0.79c-1.39-0.68-2.23-0.62-2.69,1.2c-0.27,1.08,0.4,2.83-0.81,3.15c-1.35,0.36-1.7-1.54-2.6-2.34
		c-2.04-1.82-4.34-3.17-6.81-4.27c-1.39-0.62-2.45-0.16-3,1.25c-0.53,1.34-1.05,2.68-1.23,4.15c-0.16,1.33-0.83,1.73-1.82,0.53
		c-2.39-2.88-4.97-5.53-8.08-7.66c-1.45-0.99-2.98-1.78-4.66-2.17c-2.35-0.56-3.39,0.45-3.21,2.86c0.04,0.56,0.67,1.17-0.07,1.71
		c6.5,6.11,11.18,13.43,14.67,21.61c5.01,11.78,5.84,24.04,4.42,36.58c-0.08,0.74-0.04,2.13-1,1.98c-1.19-0.19-0.58-1.5-0.45-2.3
		c1.05-6.4,0.98-12.83,0.14-19.21c-1.58-11.96-6.21-22.73-13.7-32.21c-2.09-2.65-4.42-5.12-7.32-6.97c1.54,2.99,3.28,5.86,4.34,9.09
		c1.21,3.7,1.95,7.44,1.89,11.34c-0.06,3.36-2.31,5.23-5.58,4.36c-3.35-0.89-6.52-2.28-9.23-4.5c-7.16-5.86-15.18-9.98-24.22-12.01
		c-6.59-1.48-13.2-1.41-19.89-0.5c-6.11,0.84-11.81,2.63-17.02,5.93c-4.02,2.55-6.83,6.15-8.83,10.42
		c-0.21,0.45-0.21,0.45-0.79,0.36c-0.11,0.25-0.29,0.48-0.34,0.74c-0.97,5.75-1.31,11.52-0.43,17.31c0.77,5.07,1.8,10.07,4.82,14.4
		C128.29,229.11,129.07,229.74,130.43,229.84z"/>
	<path class="st4" d="M482.71,431.47c-3.95,12.47-7.32,25.09-10.02,37.89c-0.74,3.52-1.36,7.06-2.07,10.59
		c-0.7,3.48-1.33,4.18-4.86,4.58c-2.47,0.27-4.94,0.57-7.43,0.58c-6.09,0.03-12.18,0.14-18.26-0.03c-5.4-0.15-10.73-1.05-15.91-2.63
		c-4.02-1.23-7.25-3.6-9.89-6.88c-3.9-4.85-7.85-9.66-11.83-14.44c-1.18-1.41-2.39-1.86-4.16-1.12c-2.87,1.21-5.66,2.61-8.44,3.98
		c-5.02,2.46-10.32,3.96-15.72,5.18c-1.49,0.34-2.98,0.63-4.43,1.1c-1.78,0.58-3.19,0.11-4.44-1.31c-4.78-5.45-5.96-5.68-12.06-1.9
		c-10.36,6.42-19.4,14.39-27.54,23.44c-9.57,10.63-18.75,21.62-28.1,32.44c-7.91,9.15-15.65,18.45-23.43,27.72
		c-0.88,1.05-1.44,2.57-3.11,2.79c1.24,7.18,4.07,13.58,9.26,18.81c1.85,1.86,1.86,1.84,3.58-0.07
		c5.05-5.59,10.11-11.17,15.16-16.77c7.27-8.06,14.87-15.85,21.38-24.55c12.44-16.6,25.1-33.02,38.11-49.17
		c1.73-2.16,3.44-4.33,5.17-6.48c0.34-0.43,0.79-0.95,1.36-0.42c0.43,0.4,0.06,0.88-0.22,1.29c-0.43,0.62-0.85,1.25-1.28,1.87
		c3.43-0.31,6.49-1.84,9.53-3.22c7.69-3.48,15.8-5.07,24.11-5.88c1.38-0.13,2.75-0.09,4.08,0.34c-0.19-0.66-1.4-1.28-0.59-1.91
		c0.86-0.66,1.13,0.62,1.63,1.09c0.3,0.28,0.5,0.66,0.74,1c3.05,4.3,5.46,8.99,7.81,13.67c3.19,6.34,7.69,10.84,14.44,13.47
		c9.4,3.66,18.85,7.16,28.37,10.47c4.89,1.71,9.79,3.43,13.88,6.81c5.79,4.78,10.69,10.38,15.1,16.43
		c3.18-5.22,8.12-7.97,13.73-9.79c2.66-0.86,5.42-1.86,7.84,0.15c2.48,2.06,4.78,4.36,6.7,6.98c0.3,0.41,0.35,0.72-0.09,1.03
		c0.3,0.15,0.59,0.35,0.92,0.43c9.51,2.35,18.99,4.88,28.97,3.31c3.27-0.52,3.26-0.29,2.26-3.43c-2-6.34-4.98-12.27-7.49-18.4
		c-3.61-8.82-5.49-18.07-5.92-27.58c-0.22-4.87-2.01-8.67-6.54-10.91c-0.74-0.37-1.43-0.84-2.14-1.27
		c-3.53-2.16-6.11-5.07-7.56-9.02c-4.08-11.07-7.81-22.27-11.62-33.43c-2.67-7.82-4.57-15.89-7.8-23.52c-0.45,3-1.92,5.62-3.38,8.15
		C487.15,418.83,484.74,425.07,482.71,431.47z"/>
	<path class="st4" d="M476.84,449.71c-2.9,10.33-5,20.85-7.03,31.37c-0.32,1.67-1.19,2.36-2.84,2.74c-2.32,0.54-4.71,0.63-6.97,0.63
		c-9.99,0.03-20,0.84-29.94-1.08c-6.43-1.24-12.05-3.47-16.11-9.04c-3.52-4.83-7.54-9.3-11.35-13.91c-1.11-1.35-2.33-1.94-4.15-1.04
		c-4.02,1.98-8.11,3.84-12.21,5.65c-5.07,2.24-10.55,3.08-15.86,4.5c-3.19,0.85-3.33,0.89-5.36-1.8c-2.95-3.9-5.69-4.62-9.95-2.36
		c-7.85,4.17-14.58,9.89-21.11,15.82c-3.93,3.57-7.61,7.43-11.1,11.46c-3.7,4.27-7.4,8.54-11.08,12.82
		c-4.76,5.53-9.49,11.09-14.24,16.63c-4.25,4.97-8.52,9.93-12.74,14.92c-4.62,5.46-9.2,10.95-13.8,16.42
		c1.66-0.23,2.22-1.74,3.11-2.79c7.78-9.27,15.52-18.57,23.43-27.72c9.36-10.82,18.53-21.8,28.1-32.44
		c8.15-9.05,17.18-17.02,27.54-23.44c6.1-3.78,7.28-3.55,12.06,1.9c1.25,1.42,2.66,1.89,4.44,1.31c1.45-0.47,2.94-0.76,4.43-1.1
		c5.41-1.22,10.7-2.72,15.72-5.18c2.79-1.37,5.57-2.78,8.44-3.98c1.77-0.74,2.98-0.3,4.16,1.12c3.99,4.78,7.93,9.59,11.83,14.44
		c2.64,3.28,5.86,5.65,9.89,6.88c5.18,1.59,10.51,2.48,15.91,2.63c6.08,0.16,12.17,0.06,18.26,0.03c2.49-0.01,4.97-0.31,7.43-0.58
		c3.53-0.4,4.16-1.1,4.86-4.58c0.71-3.52,1.32-7.07,2.07-10.59c2.7-12.8,6.07-25.42,10.02-37.89c2.03-6.4,4.44-12.64,7.81-18.5
		c1.46-2.54,2.93-5.16,3.38-8.15c-2.01,3.77-3.75,7.68-5.72,11.49C482.75,426.86,480.02,438.38,476.84,449.71z"/>
	<path class="st2" d="M367.26,277.28c10.67,13.4,24.06,23.98,36.9,35.12c-0.03-2.89-0.24-5.81,0.97-8.54
		c2.32-5.2,6.4-8.09,11.99-8.96c2.8-0.44,5.58-0.75,8.34,0.24c0.3,0.11,0.53-0.02,0.72-0.25c-1.62-2.89-3.23-5.79-4.88-8.67
		c-7.85-13.77-15.04-27.85-19.7-43.07c-0.49-1.61-1.23-2.24-2.81-2.69c-5.49-1.58-10.01-4.61-12.95-9.65
		c-0.31-0.54-1.08-1.31-0.3-1.8c0.99-0.64,1.22,0.53,1.56,1.11c2.72,4.58,6.87,7.25,11.8,8.9c1.14,0.38,1.65,0.39,1.3-1.14
		c-3.87-16.6-4.83-33.34-2.25-50.22c2.32-15.21,6.36-29.85,14.99-42.86c0.14-0.21,0.21-0.46,0.39-0.88
		c-0.85-0.04-1.51-0.09-2.17-0.11c-12.18-0.36-23.05,3.63-33.3,9.85c-12.76,7.74-21.94,18.32-26.9,32.54
		c-4.98,14.27-6.19,28.84-4.12,43.72C349.3,247.56,356.17,263.36,367.26,277.28z"/>
	<path class="st4" d="M228.2,385.98c7.08,1.18,13.13,4.96,19.21,8.53c7.41,4.35,14.96,8.41,23.4,10.37
		c10.48,2.43,21.08,2.68,31.7,1.18c3.79-0.54,7.66-1.04,11.16-2.83c-5.14,1.28-10.22,0.2-15.11-1.03
		c-12.24-3.08-22.52-9.25-29.46-20.21c-2.07-3.27-4.56-6.24-6.89-9.32c-2.32-3.07-5.4-5.12-9-6.37c-9.1-3.17-17.51-7.82-26.17-11.95
		c-0.57-0.27-1.1-0.6-1.15-1.34c0.01-0.03,0.03-0.04,0.03-0.06c-3.48,0.65-6.92,1.41-10.44,1.85c-4.25,0.52-7.99-0.57-11.32-2.93
		c-10.53-7.47-17.53-17.43-20.61-30.03c-0.17-0.69-0.18-1.41-0.21-2.13c-0.82,1.08-1.12,0.98-2.56-0.17
		c-5.16-4.16-9.59-8.96-12.64-14.9c-2.08-4.06-4.07-8.16-5.92-12.34c-3.24-7.3-8.64-12.74-15.21-17.13
		c-2.93-1.96-5.89-3.86-9.01-5.52c1.63,1.27,3.28,2.52,4.89,3.81c6.22,5.01,11.09,11.15,15.08,18.03c0.27,0.47,0.72,0.98,0.28,1.51
		c-0.59,0.71-1.1-0.01-1.62-0.25c-2.07-0.95-4.13-1.93-6.22-2.84c-4.71-2.06-9.51-3.84-14.95-5.35c3.4,2.87,6.41,5.39,9.4,7.95
		c0.55,0.47,1.51,0.87,1.28,1.71c-0.29,1.03-1.37,0.71-2.15,0.72c-4.45,0.03-8.9,0.01-13.35,0.01c-0.02,0.24-0.04,0.48-0.06,0.72
		c4.71,3.72,9.54,7.25,14.89,10.03c0.64,0.33,1.7,0.49,1.59,1.4c-0.12,1.01-1.22,0.93-1.99,1.11c-3.48,0.82-6.95,1.62-10.82,2.52
		c2.68,1.69,5.02,3.15,7.34,4.63c0.57,0.36,1.37,0.68,1.34,1.45c-0.03,0.91-0.98,1.03-1.62,1.41c-0.74,0.43-1.74,0.39-2.38,1.34
		c1.27,0.73,2.47,1.39,3.64,2.09c0.56,0.33,1.46,0.52,1.26,1.4c-0.18,0.79-1.02,0.78-1.69,0.94c-3.97,0.91-7.96,0.56-11.95,0.17
		c-3.17-0.31-6.33-0.68-9.49-1.02c7.39,4,15.19,6.72,23.46,7.77c2.17,0.27,2.89,1.37,3.64,3.01c6.95,15.12,16.43,28.45,28.35,40.06
		c2.58,2.51,5.52,4.32,8.93,5.46c8,2.66,16.34,3.3,24.62,4.3C215.87,384.46,222.08,384.96,228.2,385.98z"/>
	<path class="st4" d="M162.22,292.29c1.85,4.18,3.84,8.28,5.92,12.34c3.05,5.94,7.48,10.74,12.64,14.9
		c1.43,1.16,1.74,1.25,2.56,0.17c-0.01-0.25-0.01-0.5-0.03-0.74c-0.44,0.83-0.66,1.44-1.86,0.5c-3.21-2.54-5.97-5.48-8.6-8.58
		c-3.85-4.54-6.29-9.94-8.56-15.31c-3.48-8.24-8.44-15.12-15.92-20.07c-3.32-2.2-6.4-4.8-10.37-5.86c3.11,1.66,6.07,3.56,9.01,5.52
		C153.58,279.54,158.98,284.98,162.22,292.29z"/>
	<path class="st4" d="M274.68,388.39c-4-3.78-6.51-8.84-9.81-13.24c-2.87-3.81-5.89-7.37-10.47-8.98
		c-9.01-3.17-17.44-7.57-25.95-11.81c-0.83-0.41-1.96-0.37-2.4-1.45c-0.04,0.01-0.08,0.02-0.12,0.02c-0.01,0.02-0.03,0.03-0.03,0.06
		c0.05,0.73,0.57,1.06,1.15,1.34c8.66,4.13,17.08,8.78,26.17,11.95c3.59,1.25,6.68,3.31,9,6.37c2.33,3.08,4.83,6.05,6.89,9.32
		c6.94,10.96,17.21,17.13,29.46,20.21c4.89,1.23,9.96,2.31,15.11,1.03c-3.59,0.12-7.12-0.34-10.68-0.76
		C291.85,401.15,282.65,395.92,274.68,388.39z"/>
	<path class="st5" d="M140.72,322.51c-0.87-0.92-1.99-1.31-2.99-1.9c-0.59-0.35-1.29-0.68-1.23-1.51c0.05-0.77,0.77-0.86,1.35-1.08
		c0.96-0.38,1.89-0.8,3.13-1.33c-2.7-1.69-5.21-3.24-7.69-4.83c-0.6-0.39-1.54-0.63-1.33-1.62c0.18-0.87,1.04-0.75,1.69-0.9
		c3.45-0.81,6.91-1.61,10.73-2.51c-0.64-0.38-0.92-0.56-1.21-0.73c-5.16-2.85-9.82-6.41-14.45-10.02c-0.47-0.37-1.11-0.77-0.94-1.49
		c0.2-0.85,1-0.51,1.57-0.58c3.57-0.49,7.17-0.34,10.76-0.37c1.04-0.01,2.07,0,3.61,0c-2.67-2.76-5.25-4.62-7.68-6.64
		c-1.17-0.97-2.36-1.91-3.52-2.89c-0.37-0.31-0.74-0.69-0.54-1.24c0.22-0.61,0.79-0.46,1.24-0.43c0.41,0.03,0.81,0.13,1.21,0.25
		c5.18,1.47,10.26,3.23,15.25,5.27c1.84,0.76,3.55,1.94,5.83,2.26c-0.38-0.64-0.62-1.06-0.87-1.47
		c-7.16-11.29-17.53-18.78-29.25-24.65c-10.7-5.36-22.19-8.25-33.81-10.68c-6.54-1.37-13.18-2.15-19.81-2.85
		c-5.55-0.59-11.12-0.86-16.69-1.27c1.51,5.6,3.54,11.02,6.29,16.12c2.75,5.08,5.49,10.18,8.67,15.02c2.3,3.51,4.94,6.77,7.47,10.11
		c0.31,0.42,1.22,0.72,0.4,1.46c0,0,0,0,0,0c0,0,0,0,0,0c0.22,0.26,0.42,0.56,0.67,0.78c7.84,6.87,15.56,13.88,24.12,19.87
		c3.84,2.69,7.49,5.75,12.02,7.24c7.61,2.5,15.52,3.02,23.46,3.21C139.03,323.13,139.88,322.98,140.72,322.51z"/>
	<path class="st3" d="M660.36,339.17c0.54,9.4-0.32,18.74-3.77,27.54c-5.92,15.06-16.53,24.92-32.81,27.96
		c-9.38,1.75-18.68,1.86-27.81-1.42c-11.73-4.22-17.81-12.99-18.38-25.26c-0.21-4.48,1.04-8.76,3.15-12.75
		c0.75-1.42,1.73-2.67,3.18-3.46c-3.61,0.95-6.89,2.63-9.55,5.19c-11.16,10.73-15.98,23.52-11.59,38.84
		c3.44,12,10.67,21.01,22.49,25.71c9.1,3.62,18.66,3.56,28.18,2.3c11.63-1.55,22.36-5.72,32.57-11.52
		c16.12-9.16,23.77-23.15,24.14-41.31c0.24-11.5-2.03-22.64-6.39-33.31c-1.87-4.59-3.74-9.22-7.15-12.98
		C659.58,329.07,660.07,334.15,660.36,339.17z"/>
	<path class="st3" d="M580.74,355.25c-2.11,3.99-3.36,8.27-3.15,12.75c0.56,12.26,6.64,21.04,18.38,25.26
		c9.13,3.28,18.43,3.17,27.81,1.42c16.28-3.05,26.9-12.9,32.81-27.96c3.46-8.8,4.32-18.15,3.77-27.54
		c-0.29-5.01-0.78-10.09-3.74-14.48c0,0,0,0,0,0c-0.12,0.52,0.15,0.94,0.37,1.37c2.03,4.1,2.52,8.58,2.82,13.02
		c0.49,7.38-0.26,14.71-2.01,21.91c-3.23,13.28-10.7,23.59-22.97,29.48c-11.62,5.57-24.07,6.47-36.63,2.88
		c-12.16-3.48-18.96-11.61-19.99-24.17c-0.52-6.43,1.36-12.4,5.71-17.39C582.47,352.58,581.49,353.82,580.74,355.25z"/>
	<path class="st2" d="M328.68,244.66c-0.49,4.48-0.73,8.85,0.75,13.25c1.08,3.2,1.16,6.65,1.34,10.04c0.5,9.47,0.62,18.93-0.04,28.4
		c-0.09,1.28,0.27,2.21,1.15,3.14c2.48,2.64,5.28,4.86,8.34,6.79c6.16,3.88,12.78,6.86,19.41,9.8c11.93,5.29,24.36,9.42,35.84,15.73
		c0.74-0.68,0.44-1.58,0.36-2.34c-0.7-6.49,0.98-12.07,6.08-16.4c0.1-0.08,0.13-0.24,0.2-0.36c-5.39-5.38-11.57-9.86-17.18-14.99
		c-7.68-7.01-15.21-14.22-21.25-22.67c-15.46-21.65-21.98-45.72-18.24-72.28c0.2-1.4-0.17-1.66-1.43-1.63
		c-3.94,0.1-7.64,1.14-11.17,2.8c-1.73,0.81-2.6,2.13-2.57,4.27C330.46,220.39,329.99,232.55,328.68,244.66z"/>
	<path class="st6" d="M213.43,603.77c1.78-6.09,6.44-8.95,12.08-10.76c3.27-1.05,6.52-2.2,9.71-3.48c2.6-1.04,4.42-3.25,6.48-5.03
		c5.68-4.9,11.39-9.76,16.57-15.21c3.9-4.1,7.16-8.69,10.44-13.27c0.59-0.83,0.5-1.68,0.58-2.55c-0.45-3.91-1.28-7.77-1.39-12.25
		c-1.21,1.66-2.05,2.83-2.91,3.99c-0.35,0.47-0.51,1.29-1.31,1.09c-0.68-0.16-0.81-0.9-1-1.48c-0.51-1.5-1.08-2.99-1.44-4.53
		c-0.39-1.7-1.11-1.65-2.41-0.86c-2.06,1.25-2.41,1.01-2.42-1.43c-0.01-2.73,0-5.46,0-8.77c-2.62,3.43-5.38,5.88-8.57,7.82
		c-1.69,1.03-2.17,0.8-2.22-1.14c-0.05-2.07-0.06-4.15-0.08-6.22c-0.01-0.72-0.16-1.4-1.04-0.73c-2.63,1.98-5.67,3.44-7.77,6.12
		c-7.22,9.18-14.42,18.38-22.77,26.58c-3.58,3.51-7.75,5.96-12.89,6.45c-3.57,0.34-7.15,0.61-10.67,1.24
		c-5.07,0.9-7.88,4.27-8.94,9.17c-0.89,4.12,1.43,6.89,4.17,9.8c0.18-1.04,0.37-1.76,0.42-2.48c0.3-4.55,2.98-6.71,7.24-7.38
		c1.77-0.27,3.52-0.67,5.27-1.03c0.64-0.13,1.55-0.63,1.7,0.37c0.13,0.85-0.88,0.86-1.53,1.02c-2.48,0.57-4.98,1.07-7.44,1.73
		c-1.51,0.4-2.83,1.19-3.2,2.9c-0.35,1.62-0.7,3.24-0.94,4.87c-0.28,1.83,0.33,3.33,1.68,4.66c2.03,1.99,4.52,3.14,7.03,4.3
		c1.17,0.54,1.67,0.45,1.62-1.08c-0.1-3.08,0.54-3.82,3.45-4.78c4.39-1.44,8.78-2.91,13.17-4.36c0.62-0.21,1.49-0.81,1.82-0.02
		c0.36,0.87-0.75,1.02-1.32,1.22c-4.49,1.59-9,3.12-13.5,4.66c-2.07,0.71-2.6,1.62-2.2,3.76c1.24,6.62,4.24,9.04,11.39,9.17
		C211.94,606.07,212.95,605.43,213.43,603.77z"/>
	<path class="st3" d="M566.22,360.57c-11.11-5.71-23.03-6.21-35.14-5.4c-4.7,0.32-9.3,1.31-13.9,2.22c-2.4,0.48-4.82,0.5-7.22,0.26
		c-4.3-0.44-6.18-2.64-5.85-6.93c0.24-3.06,1.03-5.99,3.04-8.44c-0.32,0.26-0.67,0.49-0.94,0.78c-5.67,6.06-11.34,12.11-17.67,17.49
		c-5,4.24-9.91,8.63-15.91,11.48c-1.33,0.63-0.4,1.03,0.05,1.39c6.15,5.03,11.35,10.9,15.71,17.52c0.5,0.75,0.97,0.99,1.85,0.68
		c7.5-2.59,15.36-2.46,23.12-2.84c6.27-0.31,12.57-0.21,18.84,0.36c5.15,0.47,10.28,1.02,15.38,1.89c4.5,0.77,8.74,2.41,13.28,3.86
		c-0.17-0.84-0.29-1.5-0.43-2.15c-0.54-2.57-1.06-5.17-0.85-7.79c0.72-8.85,3.34-17.02,8.96-24.06
		C567.69,361.43,566.94,360.94,566.22,360.57z"/>
	<path class="st3" d="M544.83,354.57c-6.64-0.58-13.18-0.28-19.75,0.75c-4.6,0.73-9.12,2.2-13.88,1.84
		c-5.19-0.39-7.03-1.61-6.28-7.83c0.31-2.51,1.41-4.73,2.23-7.06c-2,2.46-2.8,5.38-3.04,8.44c-0.33,4.28,1.55,6.49,5.85,6.93
		c2.4,0.24,4.82,0.21,7.22-0.26c4.6-0.91,9.2-1.9,13.9-2.22c12.11-0.81,24.03-0.31,35.14,5.4c0.72,0.37,1.47,0.86,2.33,0.32
		c-3.34-1.29-6.45-3.13-9.9-4.15C554.14,355.42,549.5,354.98,544.83,354.57z"/>
	<path class="st3" d="M531.57,315.82c0.59-3.86,0.57-7.75-0.22-11.53c-1.28-6.18-4.87-10.14-11.41-10.11
		c-11.74,0.04-21.55,4.63-30.1,12.35c-0.71,0.65-1.3,1.46-2.17,1.9c-0.64,0.32-1.33,0.5-0.92-0.68c-0.27,0.63-0.56,1.24-0.79,1.88
		c-3.34,9.43-5.9,19.14-10.03,28.27c-3.23,7.13-6.89,14.03-12.82,19.4c-1.73,1.57-3.54,3.06-5.41,4.68
		c2.88,2.07,5.72,4.02,8.47,6.08c4.89,3.67,4.9,3.76,10.02,0.28c8.79-5.97,16.49-13.2,23.82-20.85
		c5.45-5.69,10.82-11.45,16.63-16.78c4.89-4.49,10.09-8.56,15.38-12.55C531.35,317.48,531.45,316.63,531.57,315.82z"/>
	<path class="st3" d="M532.02,304.58c-0.74-4.38-3.67-9.88-8.77-10.6c-7.67-1.08-14.93,0.47-21.78,3.89
		c-5.07,2.53-9.79,5.65-13.68,9.86c-0.23,0.25-0.68,1.29-1.03,0.01c-0.41,1.19,0.28,1.01,0.92,0.68c0.87-0.44,1.46-1.26,2.17-1.9
		c8.55-7.72,18.35-12.31,30.1-12.35c6.54-0.02,10.13,3.93,11.41,10.11c0.79,3.78,0.81,7.68,0.22,11.53
		c-0.12,0.81-0.23,1.66,0.45,2.34C532.39,313.63,532.79,309.11,532.02,304.58z"/>
	<path class="st7" d="M237.93,430.28c-5.47-6.44-11.4-12.42-18.9-16.54c-7.97-4.38-15.71-1.66-19.37,6.7
		c-0.86,1.96-1.72,3.92-2.09,6.05c-0.08,0.46-0.12,0.98-0.64,1.23c0.34,1.48,0.63,2.97,1.02,4.44c0.7,2.57,0.45,3.18-1.95,4.44
		c-0.9,0.47-1.8,0.92-2.92,1.49c0.72,0.51,1.25,0.91,1.81,1.27c2.88,1.83,5.48,3.98,7.84,6.43c0.38,0.4,0.87,0.81,0.51,1.42
		c-0.38,0.65-0.94,0.33-1.46,0.14c-0.27-0.1-0.61-0.34-0.99,0.22c5.99,4.32,9.4,10.71,13.25,16.77c3.12,4.91,6.53,9.59,10.73,13.66
		c0.89-0.68,0.06-1.25-0.18-1.78c-1.31-2.81-2.39-5.71-3.41-8.63c-0.45-1.29-0.46-1.92,1.3-1.46c6.26,1.63,12.47,3.36,18.36,6.1
		c0.24,0.11,0.48,0.3,0.92-0.04c-0.34-1.6-1.73-2.97-1.8-5.07c2.56,1.41,5.01,2.61,7.28,4.07c1.12,0.73,1.91,0.65,3,0.11
		c4.36-2.19,8.62-4.62,13.5-5.58c1.04-0.2,2.05-0.18,3.07-0.22c0.66-2.36,1.32-4.72,1.98-7.08c0,0,0,0,0-0.01
		c-1.83-0.67-3.24-2.01-4.79-3.11C254.06,448.27,245.77,439.52,237.93,430.28z"/>
	<path class="st7" d="M266.97,456.79c-10.92-7.34-20.02-16.61-28.47-26.62c-5.76-6.82-12.04-13.1-20.04-17.38
		c-5.59-2.99-10.52-2.48-15.16,1.84c-3.79,3.53-5.7,8.02-6.36,13.1c0.51-0.25,0.56-0.77,0.64-1.23c0.37-2.13,1.23-4.09,2.09-6.05
		c3.66-8.36,11.4-11.08,19.37-6.7c7.5,4.12,13.43,10.09,18.9,16.54c7.84,9.24,16.13,17.99,26.06,25.03c1.55,1.1,2.96,2.44,4.79,3.11
		C268.34,457.7,267.65,457.26,266.97,456.79z"/>
	<path class="st4" d="M435.77,502.19c-4.43-1.73-8.87-3.47-13.22-5.39c-1.41-0.62-2.71-0.8-4.16-0.52
		c-2.85,0.53-5.65,1.23-8.43,2.04c-13.47,3.94-26.27,9.71-39.59,14.08c-0.77,0.25-1.09,0.67-1.11,1.49
		c-0.06,2.83-0.19,5.65-0.29,8.48c1.85-0.21,3.38,0.88,5.09,1.25c2.81,0.6,5.68,0.93,8.45,1.78c2.84,0.88,4.41,2.65,4.63,5.59
		c0.36,4.87,0.19,9.74-0.01,14.6c-0.01,0.3-0.28,0.6-0.43,0.89c1.18,1.43,2.27,2.95,3.55,4.28c5.22,5.42,10.88,10.21,18.29,12.43
		c3.46,1.04,2.89,1.19,3.94-1.95c6.59-19.65,13.5-39.17,24.06-57.14C437.18,503,436.86,502.62,435.77,502.19z"/>
	<path class="st2" d="M206.5,167.24c1.54-1.33,3.3-0.69,4.88,0.02c3.78,1.7,6.83,4.37,9.52,7.47c0.41,0.47,0.75,0.99,1.2,1.42
		c0.73,0.68,1.21,0.55,1.42-0.43c0.24-1.15,0.58-2.28,1.06-3.35c0.9-1.97,2.17-2.48,4.2-1.64c1.6,0.66,3.05,1.59,4.51,2.52
		c1.47,0.93,2.53,2.3,3.83,3.56c0.78-0.75,0.57-1.73,0.85-2.53c0.57-1.65,1.38-2.19,2.95-1.57c1.38,0.54,2.7,0.84,4.21,0.67
		c1.49-0.17,2.6,0.72,3.39,1.97c-1.34-7.33-3.58-14.31-7.81-20.56c-6.51-9.62-14.93-16.85-26.17-20.3c-6.21-1.91-12.62-2-19.1-1.56
		c-9.96,0.69-18.9,3.87-26.66,10.17c-5.43,4.41-9.21,10.01-11.64,16.73c0.52,0,0.85,0.04,1.17-0.01c8.9-1.24,17.78-1.17,26.6,0.66
		c8.12,1.69,15.03,5.76,21.2,11.2C205.77,170.15,205.05,168.49,206.5,167.24z"/>
	<path class="st2" d="M206.18,169.97c-0.18-2.41,0.86-3.42,3.21-2.86c1.68,0.4,3.21,1.18,4.66,2.17c3.11,2.12,5.69,4.78,8.08,7.66
		c0.99,1.2,1.66,0.8,1.82-0.53c0.18-1.47,0.7-2.81,1.23-4.15c0.55-1.41,1.61-1.87,3-1.25c2.47,1.1,4.77,2.45,6.81,4.27
		c0.9,0.8,1.24,2.7,2.6,2.34c1.21-0.32,0.54-2.07,0.81-3.15c0.45-1.81,1.3-1.88,2.69-1.2c0.74,0.36,1.5,1.09,2.29,0.79
		c2.07-0.8,3.56,0.33,5.13,1.27c-0.79-1.24-1.9-2.13-3.39-1.97c-1.51,0.17-2.83-0.13-4.21-0.67c-1.58-0.62-2.38-0.08-2.95,1.57
		c-0.28,0.8-0.07,1.77-0.85,2.53c-1.3-1.25-2.36-2.62-3.83-3.56c-1.46-0.92-2.91-1.86-4.51-2.52c-2.02-0.83-3.3-0.33-4.2,1.64
		c-0.48,1.07-0.82,2.2-1.06,3.35c-0.21,0.98-0.69,1.12-1.42,0.43c-0.45-0.43-0.79-0.95-1.2-1.42c-2.69-3.11-5.74-5.77-9.52-7.47
		c-1.58-0.71-3.34-1.35-4.88-0.02c-1.45,1.26-0.74,2.92-0.39,4.44C206.85,171.15,206.22,170.53,206.18,169.97z"/>
	<path class="st8" d="M371.67,475.95c-1.83,0.8-3.7,1.53-5.62,2.09c-0.84,0.25-1.72,0.64-2.55-0.06c-0.25,0.23-0.54,0.44-0.75,0.7
		c-9.59,12.15-19.16,24.31-28.74,36.47c-0.32,0.4-0.84,0.75-0.67,1.48c0.39,0.02,0.79,0.07,1.19,0.07
		c12.69,0.04,25.01-2.27,37.01-6.23c11.07-3.65,21.77-8.36,32.87-11.95c4.47-1.45,8.96-2.81,13.89-3.75
		c-2.29-1.61-4.05-3.28-5.34-5.34c-1.46-2.34-2.75-4.79-4.19-7.15c-2.63-4.29-4.13-9.22-7.55-13.05c-2.77,0.36-5.58,0.42-8.36,0.72
		C385.46,470.75,378.47,472.98,371.67,475.95z"/>
	<path class="st8" d="M397.15,468.88c-8.32,0.81-16.42,2.41-24.11,5.88c-3.04,1.37-6.1,2.9-9.53,3.22c0.83,0.7,1.7,0.31,2.55,0.06
		c1.92-0.56,3.79-1.29,5.62-2.09c6.79-2.96,13.78-5.19,21.2-6c2.79-0.3,5.59-0.36,8.36-0.72
		C399.9,468.79,398.53,468.75,397.15,468.88z"/>
	<path class="st2" d="M260.24,211.42c-2.75,1.45-4.3,3.23-5.06,6.21c-1.88,7.29-7.8,10.56-14.04,13.35
		c-4.36,1.95-8.89,3.47-13.43,4.94c-0.7,0.23-1.51,0.26-2.13,1.16c3.1,2.41,6.22,4.77,9.91,6.22c5.6,2.2,11.41,3.82,16.95,6.18
		c4.01,1.7,8.01,3.41,12.03,5.09c3.39,1.42,6.04,3.7,8.19,6.63c-0.57-4.89-2.85-9.04-5.7-13c1.68,0.85,2.72,2.27,3.87,3.59
		c0.96,0.2,1.51,1,2.01,1.67c3.51,4.74,5.98,9.82,4.85,15.98c-0.13,0.72-0.37,1.49,0.23,2.15c3.54-4.42,6.41-9.22,7.43-14.85
		c1.31-7.26,0.66-14.48-1.5-21.5c-3.05-9.92-8.09-18.33-18.28-22.48c-0.34-0.14-0.6-0.33-0.53-0.79c0.87-0.48,1.58,0.12,2.31,0.41
		c7.54,3,12.15,8.9,15.49,15.95c2.05,4.33,5.41,7.75,7.86,11.86c0.28-1.34,0.46-2.63,0.43-3.9c-0.11-4.28-0.17-8.58-1.15-12.77
		c-3.11-13.28-10.46-21.35-24.81-23.31C266.66,204.72,265.09,208.86,260.24,211.42z"/>
	<path class="st2" d="M265.06,201.15c0.51,3.63-0.47,6.6-3.57,8.86c-1.3,0.95-2.68,1.68-4.09,2.39c-1.04,0.53-1.6,1.18-1.91,2.43
		c-0.92,3.69-2.12,7.31-5.14,9.95c-3.96,3.47-8.66,5.6-13.53,7.39c-3.62,1.33-7.29,2.52-10.94,3.79c-0.5,0.17-1.19,0.21-1.26,0.88
		c-0.05,0.56,0.58,0.7,0.95,0.97c3.16,2.34,6.3,4.73,10.05,6.08c7.91,2.86,15.88,5.53,23.56,8.98c4.89,2.19,10.17,3.76,13.11,8.84
		c0.12,0.21,0.23-0.33,0.36-0.51c-2.15-2.93-4.8-5.21-8.19-6.63c-4.02-1.68-8.02-3.39-12.03-5.09c-5.55-2.35-11.35-3.98-16.95-6.18
		c-3.69-1.45-6.81-3.8-9.91-6.22c0.61-0.89,1.43-0.93,2.13-1.16c4.54-1.47,9.07-2.99,13.43-4.94c6.24-2.78,12.16-6.06,14.04-13.35
		c0.77-2.98,2.31-4.76,5.06-6.21c4.86-2.56,6.42-6.7,4.93-11.22C264.84,200.49,265.02,200.81,265.06,201.15z"/>
	<path class="st5" d="M525.66,533.65c-4.1-0.9-8.21-1.7-12.32-2.55c5.01,10.18,8.1,20.99,10.37,32.07
		c0.72,3.49,1.49,6.99,1.25,10.59c-0.34,5.07-1.02,10.1-2.45,14.98c-0.89,3.04-2.74,5.09-6.18,5.54c-2.92,0.38-5.79,1.24-8.74,0.29
		c0.19,2.29,1.62,3.57,3.63,4.33c4.89,1.86,9.97,1,14.98,0.97c0.54-0.01,1.27-0.17,0.85-1.16c-2.3-5.52-0.96-10.97,0.46-16.4
		c0.14-0.52,0.17-1.45,1.06-1.15c0.71,0.23,0.29,0.92,0.18,1.44c-0.75,3.64-1.51,7.27-1.33,11.05c0.22,4.54,0.81,5.35,5.16,6.18
		c6.18,1.18,11.95-1.52,14.22-6.68c1.57-3.57,2.25-7.37,2.64-11.22c0.68-6.82,0.4-13.67,0.47-20.51c0.09-9.38-2.4-18.26-5.2-27.08
		c-0.33-1.03-0.74-1.06-1.78-0.9C537.19,534.3,531.44,534.92,525.66,533.65z"/>
	<path class="st6" d="M107.27,476.75c7.05,3.62,14.25,6.92,21.76,9.5c4.19,1.44,8.47,0.62,12.67,0.2c5.52-0.56,11-1.5,16.5-2.28
		c3.94-0.56,7.87-1.12,11.81-1.68c0.27-1.18,0.84-2.3,0.74-3.7c-0.52,0.16-0.89,0.33-1.29,0.38c-0.81,0.12-1.62,1.32-2.41,0.34
		c-0.68-0.84,0.23-1.68,0.56-2.47c1.57-3.72,3.2-7.42,4.92-11.37c-0.6,0.14-0.93,0.19-1.24,0.29c-2.88,0.95-5.76,1.91-8.64,2.87
		c-0.51,0.17-1.06,0.51-1.52-0.06c-0.36-0.45-0.08-0.9,0.06-1.37c0.33-1.06,0.63-2.12,0.9-3.18c0.8-3.09,0.8-3.04-2.35-2.54
		c-0.75,0.12-1.67,0.82-2.33-0.01c-0.65-0.82-0.06-1.71,0.25-2.54c1.06-2.86,2.82-5.35,4.6-8.27c-3.27,0.87-6.23,1.19-8.96,2.74
		c-5.58,3.17-11.22,6.25-17.51,7.89c-2.94,0.77-5.4,0.53-7.82-1.65c-3.51-3.17-7.58-5.51-12.13-6.97c-3.39-1.09-6.69-0.87-9.96,0.34
		c3.09,0.31,5.77,1.41,7.95,3.62c0.46,0.46,1.27,1.18,0.77,1.71c-0.75,0.79-1.11-0.37-1.51-0.77c-3.43-3.42-10.2-3.97-14.44-1.15
		c-2.83,1.89-4.66,9.47-3.15,13.03c1.16-1.95,1.66-2.53,2.78-3.24c4.29-2.73,13.42-0.78,16.21,3.46c0.27,0.42,0.62,0.88,0.13,1.27
		c-0.4,0.32-0.76-0.1-1.04-0.39c-1.46-1.53-3.22-2.69-5.22-3.27c-7.17-2.11-11.8-0.58-12.24,6.68c0.17,0.11,0.39,0.36,0.49,0.32
		C100.7,472.81,103.9,475.02,107.27,476.75z"/>
	<path class="st6" d="M522.5,586.7c2.07-8.75,2.43-17.44,0.12-26.26c-2.35-8.97-4.53-17.98-8.58-26.39
		c-0.43-0.91-1.02-1.84-0.7-2.95c-2.36-0.98-4.84-1.77-7.35-1.98c-3.17-0.27-6.55-0.88-9.26,1.68c-2.59,2.44-4.67,5.25-6.18,8.49
		c-0.62,1.32-0.49,2.38,0.23,3.68c3.35,5.98,6.05,12.23,8.12,18.78c1.91,6.04,1.49,11.64-2.17,16.96c-1.52,2.21-2.8,4.6-4.03,6.99
		c-1.03,2.01-1.42,4.17-0.45,6.37c4.02,2.1,8.25,2.68,12.67,1.65c0.33-0.08,0.63-0.25,0.95-0.38c-0.27-2.96,0.76-5.68,1.53-8.45
		c0.33-1.19,0.77-2.35,1.19-3.52c0.16-0.44,0.37-1.02,0.98-0.85c0.79,0.21,0.47,0.88,0.35,1.38c-0.12,0.53-0.36,1.04-0.54,1.56
		c-1.28,3.59-2.25,7.24-1.8,11.11c2.37-0.47,4.78-0.08,7.17-0.54C519.66,593.09,521.33,591.6,522.5,586.7z"/>
	<path class="st6" d="M516.33,594.28c3.44-0.45,5.29-2.5,6.18-5.54c1.43-4.88,2.1-9.91,2.45-14.98c0.25-3.6-0.53-7.1-1.25-10.59
		c-2.26-11.07-5.35-21.88-10.37-32.07c-0.32,1.11,0.26,2.04,0.7,2.95c4.05,8.41,6.23,17.42,8.58,26.39
		c2.31,8.82,1.95,17.51-0.12,26.26c-1.16,4.9-2.84,6.39-7.73,7.33c-2.39,0.46-4.81,0.07-7.17,0.54
		C510.54,595.52,513.41,594.66,516.33,594.28z"/>
	<path class="st3" d="M490.86,289.03c-3.91-7.2-7.95-6.89-14.04-6.17c-5.23,0.61-9.39,3.46-13.09,7.04c-0.8,0.77-1.5,1.64-2.44,2.24
		c-0.43,0.27-0.78,0.36-1,0.2c-0.05,0.04-0.08,0.07-0.13,0.11c0-0.09,0-0.17,0-0.25c-0.09-0.15-0.15-0.37-0.14-0.71
		c0.09-4.28-0.18-8.56,0.14-12.83c-0.59,4.47-0.33,8.96-0.22,13.44c0.32,13.95,0.75,27.9-2.21,41.68
		c-1.49,6.93-3.23,13.73-8.16,19.2c-0.81,0.9-2.48,1.72-2.2,2.73c0.24,0.87,1.91,1.42,3.03,1.94c2.12,1.01,3.96,3.66,6.18,3.02
		c2.12-0.61,3.83-2.84,5.58-4.5c7.39-6.99,11.66-15.9,15-25.26c4.9-13.71,9.26-27.62,14.97-41.04
		C491.42,290.01,491.13,289.51,490.86,289.03z"/>
	<path class="st3" d="M460.01,291.48c-0.01,0.35,0.05,0.56,0.14,0.71c0-4.78,0-9.16,0-13.54
		C459.83,282.92,460.11,287.2,460.01,291.48z"/>
	<path class="st3" d="M491.09,288.18c-1.57-3.12-3.98-5.6-7.41-6.03c-6.35-0.79-12.29,0.6-17.42,4.77c-1.97,1.6-3.65,3.53-5.97,5.4
		c0.23,0.16,0.58,0.07,1-0.2c0.94-0.6,1.65-1.47,2.44-2.24c3.71-3.58,7.86-6.43,13.09-7.04c6.09-0.71,10.13-1.03,14.04,6.17
		c0.26,0.49,0.55,0.99,1.26,0.85C491.31,289.59,491.38,288.77,491.09,288.18z"/>
	<path class="st3" d="M672.92,320.26c6.73-11.18,9.49-23.47,9.65-36.35c0.15-12.04-2.2-23.74-6.22-35.05
		c-2.6-7.31-6.56-13.96-11.46-20.03c2.89,4.52,3.63,9.7,4.13,14.84c1.18,12.03,1.04,24.03-2.33,35.77
		c-3.53,12.25-10.95,21.39-22.26,27.31c-1.29,0.67-2.63,1.23-4.15,1.09c9.31,5.6,16.79,12.97,21.85,22.65
		c0.68,1.3,1.25,0.88,2.02,0.18C667.54,327.6,670.55,324.19,672.92,320.26z"/>
	<path class="st3" d="M666.69,279.45c3.38-11.74,3.52-23.74,2.33-35.77c-0.51-5.14-1.24-10.32-4.13-14.84
		c2.42,6.13,3.73,12.54,4.02,19.06c0.36,8.18,0.44,16.4-1.15,24.51c-1.23,6.25-2.85,12.35-6.3,17.8
		c-5.17,8.14-11.92,14.4-21.17,17.65c1.51,0.14,2.86-0.42,4.15-1.09C655.75,300.84,663.17,291.7,666.69,279.45z"/>
	<path class="st4" d="M210.96,462.23c-2.1-3.55-4.14-7.19-7.27-10.01c0.38,4.78,0.75,9.57,1.77,14.27c0.74,3.43,0.28,4.5-2.85,6.17
		c-4.58,2.44-9.5,4.01-14.48,5.38c-5.1,1.4-10.22,2.69-15.34,4.01c-0.33,0.09-0.69,0.02-1.03,0.03c-0.38,0.6-0.75,1.34-0.23,1.89
		c0.49,0.52,1.14-0.17,1.73-0.26c0.73-0.11,1.46-0.68,2.16-0.07c0.78,0.68,0.1,1.44-0.11,2.09c-1.97,6.1-2.75,12.36-2.75,18.76
		c0,1.4,0.38,1.82,1.8,1.54c3.31-0.66,6.66-1.13,9.97-1.8c12.57-2.55,25.11-5.21,37.69-7.69c6.03-1.19,12.13-2.08,18.29-3.12
		c-2.11-1.49-4.26-2.76-6.13-4.35C225.04,481.34,217.08,472.58,210.96,462.23z"/>
	<path class="st2" d="M145.31,179.25c10.57-2.4,21.12-2.27,31.44,1.54c6.42,2.36,12.29,5.68,17.6,9.98c2.57,2.09,5.47,3.5,8.61,4.42
		c3.5,1.03,5.56-0.5,5.56-4.08c-0.01-6.32-1.88-12.1-5.01-17.53c-0.42-0.73-1.27-1.38-0.64-2.41c-2.88-2.87-6.27-5.04-10.01-6.49
		c-14.82-5.75-29.96-6.21-44.69-0.4c-14.01,5.53-22.18,16.4-24.62,31.39C127.7,186.08,135.69,181.44,145.31,179.25z"/>
	<path class="st2" d="M124.34,195.3c2-4.27,4.8-7.87,8.83-10.42c5.21-3.3,10.91-5.09,17.02-5.93c6.68-0.92,13.3-0.98,19.89,0.5
		c9.04,2.03,17.07,6.15,24.22,12.01c2.71,2.22,5.88,3.61,9.23,4.5c3.26,0.87,5.52-1,5.58-4.36c0.06-3.9-0.68-7.64-1.89-11.34
		c-1.06-3.23-2.8-6.11-4.34-9.09c-0.63,1.03,0.22,1.68,0.64,2.41c3.13,5.43,5.01,11.22,5.01,17.53c0,3.58-2.06,5.11-5.56,4.08
		c-3.15-0.92-6.04-2.33-8.61-4.42c-5.31-4.3-11.18-7.61-17.6-9.98c-10.33-3.81-20.87-3.94-31.44-1.54
		c-9.62,2.19-17.61,6.83-21.76,16.41C124.13,195.75,124.13,195.75,124.34,195.3z"/>
	<path class="st5" d="M172.65,485.44c-0.91,0.15-1.86,1.16-2.68,0.38c-0.86-0.81-0.23-1.94,0.03-2.92c0.03-0.13,0.01-0.27,0.01-0.41
		c-0.64,0.65-1.51,0.66-2.31,0.79c-8.87,1.42-17.78,2.59-26.66,3.95c-8.01,1.23-15.16-0.98-22.18-4.36
		c-4.61-2.22-9.36-4.12-13.82-6.66c-2.29-1.31-4.76-2.25-7.53-1.42c-0.5,0.15-1.29,0.41-1.36-0.62c-0.76,1.44-0.23,2.98-0.37,4.47
		c-0.33,3.51,1.33,6.03,3.94,8.17c9.23,7.59,19.58,13.35,30.13,18.84c5.41,2.82,10.91,4.15,17.08,3.54
		c7.6-0.75,15.19-1.5,22.76-2.52c1.48-0.2,1.58-0.81,1.6-1.98c0.05-2.82-0.1-5.64,0.3-8.47c0.52-3.65,1.14-7.28,2.3-11.04
		C173.29,485.31,172.97,485.39,172.65,485.44z"/>
	<path class="st5" d="M97.5,474.79c2.77-0.83,5.24,0.11,7.53,1.42c4.46,2.54,9.21,4.44,13.82,6.66c7.02,3.38,14.17,5.59,22.18,4.36
		c8.88-1.36,17.79-2.53,26.66-3.95c0.81-0.13,1.68-0.13,2.31-0.79c-3.94,0.56-7.87,1.13-11.81,1.68c-5.5,0.78-10.98,1.72-16.5,2.28
		c-4.2,0.42-8.48,1.24-12.67-0.2c-7.51-2.58-14.71-5.88-21.76-9.5c-3.37-1.73-6.58-3.94-10.65-2.26c-0.1,0.04-0.32-0.21-0.49-0.32
		C96.21,475.2,96.99,474.94,97.5,474.79z"/>
	<path class="st1" d="M199.05,473.71c1.34-0.56,2.64-1.21,3.9-1.92c1.79-1.02,2.53-2.5,2.1-4.51c-0.9-4.13-1.42-8.31-1.73-12.51
		c-0.06-0.88-0.37-1.79,0.37-2.55c-2.14-2.47-4.8-4.35-7.32-6.39c-0.56-0.45-1.61-0.86-1.14-1.7c0.39-0.68,1.24-0.05,1.88,0.16
		c0.8,0.26,1.61,0.49,2.42,0.74c-0.04-0.47-0.3-0.59-0.5-0.78c-2.05-1.88-4.44-3.28-6.71-4.86c-1.71-1.18-1.63-1.85,0.12-2.7
		c1.12-0.54,2.25-1.06,3.36-1.62c2.06-1.04,0.78-2.58,0.34-3.74c-0.51-1.34-1.42-0.07-1.99,0.18c-10.18,4.52-19.89,9.92-29.38,15.75
		c-1.16,0.71-2.35,1.39-4,2.36c1.12-0.21,1.67-0.29,2.2-0.41c0.53-0.12,1.11-0.41,1.5,0.2c0.37,0.6-0.14,1.05-0.41,1.49
		c-0.77,1.23-1.59,2.43-2.35,3.66c-1.1,1.77-2.26,3.51-2.74,5.78c1.26-0.26,2.27-0.45,3.28-0.68c2.53-0.56,2.62-0.45,1.98,2.15
		c-0.42,1.71-1.13,3.36-1.16,5.34c3.23-1.06,6.31-2.06,9.37-3.07c0.6-0.2,1.23-0.43,1.71,0.17c0.4,0.5,0.14,1.06-0.08,1.57
		c-0.51,1.21-1.05,2.4-1.57,3.61c-1.13,2.61-2.26,5.23-3.57,8.24c0.8-0.27,1.1-0.4,1.42-0.47c0.64-0.14,1.29-0.72,1.93-0.1
		c0.59,0.58,0.27,1.29,0.14,1.95c-0.21,1.01-0.44,2.01-0.65,3.02c0.81-0.75,1.88-0.84,2.87-1.09
		C182.88,478.92,191.17,477,199.05,473.71z"/>
	<path class="st1" d="M172.79,482.05c5.12-1.32,10.24-2.61,15.34-4.01c4.98-1.37,9.9-2.95,14.48-5.38c3.13-1.67,3.59-2.73,2.85-6.17
		c-1.02-4.71-1.39-9.49-1.77-14.27c-0.74,0.76-0.43,1.66-0.37,2.55c0.31,4.21,0.83,8.38,1.73,12.51c0.44,2.01-0.3,3.49-2.1,4.51
		c-1.27,0.72-2.56,1.36-3.9,1.92c-7.88,3.3-16.17,5.22-24.42,7.29c-1,0.25-2.06,0.33-2.87,1.09
		C172.1,482.08,172.46,482.14,172.79,482.05z"/>
	<path class="st5" d="M305.45,215.67c0.74-0.77,1.12-1.16,1.49-1.56c2.87-3.08,5.74-6.17,8.62-9.24c0.37-0.39,0.73-0.98,1.36-0.77
		c0.8,0.27,0.58,1.07,0.48,1.62c-0.43,2.37-0.96,4.72-1.43,7.08c-0.51,2.59-1.81,4.92-2.71,7.64c1.43-0.6,2.42-1.74,3.73-0.65
		c2.24-7.41,4.98-14.62,8.68-21.43c0.88-1.61,1.55-3.37,2.9-4.7c0.13-5.04-0.42-10.06-0.77-15.07c-0.4-5.84-0.75-11.69-1.34-17.52
		c-0.78-7.8-1.86-15.57-3.25-23.29c-0.81-4.5-1.7-8.98-3.67-13.61C306.56,153.52,305.01,184.21,305.45,215.67z"/>
	<path class="st6" d="M361.29,590.76c5.52-1.48,10.52-4.03,14.56-8.27c2.03-2.14,2.94-4.8,3.88-7.45c2.89-8.1,5.61-16.26,6.68-24.85
		c0.04-0.33,0.29-0.62,0.43-0.94v0v0c-2.04-2.69-4.17-5.32-6.1-8.09c-2.76-3.96-6.1-4.94-10.57-2.91c-1.83,0.84-3.35,1.93-3.68,4.11
		c-0.58,3.82-1.69,7.53-2.58,11.28c-1.64,6.9-5.49,11.75-12.39,14.05c-2.28,0.76-4.47,1.81-6.54,3.09c-1.9,1.17-3.03,2.88-3.85,5.28
		c2.87-1,5.35-2.21,8.02-2.81c0.7-0.16,1.7-0.76,1.93,0.25c0.21,0.93-0.97,0.96-1.65,1.14c-2.54,0.69-4.97,1.66-7.38,2.72
		c-1.8,0.79-2.93,2.07-3.2,4.21c-0.32,2.52,0.09,4.96,0.39,7.4c0.17,1.35,0.6,2.91,2.34,3.87c-0.74-4.57,1.61-6.83,5.32-8.15
		c2.81-1,5.45-2.36,8.1-3.7c0.55-0.27,1.32-1.05,1.77-0.15c0.41,0.83-0.62,1.09-1.17,1.41c-2.52,1.44-5.16,2.64-7.86,3.72
		c-1.57,0.63-3.34,1.06-4.17,2.82C349.09,592.98,355.2,592.4,361.29,590.76z"/>
	<path class="st5" d="M409.42,565.01c-2.74-0.91-5.51-1.77-8.04-3.26c-5.59-3.31-10.29-7.63-14.55-12.49
		c0.24,1.12-0.02,2.2-0.2,3.29c-1.29,8.03-4.02,15.65-6.56,23.34c-1.86,5.61-5.58,9.41-10.62,12.17c-4.88,2.67-10.1,4.22-15.62,4.47
		c-2.61,0.12-5.25-0.37-7.67-1.51c-1.04-0.49-2.18-0.97-2.57-2.24c-0.87,1.11-0.55,2.44-0.38,3.58c0.96,6.47,1.48,8.56,8.83,9.36
		c5.21,0.56,10.31,0.13,15.46-0.45c9.27-1.04,18.19-3.25,26.33-7.95c4.8-2.77,9.63-5.66,11.91-11.1c2.11-5.03,3.23-10.4,4.95-15.56
		C411.08,565.49,410.28,565.29,409.42,565.01z"/>
	<path class="st5" d="M346.16,591.02c2.42,1.13,5.06,1.62,7.67,1.51c5.53-0.25,10.75-1.8,15.62-4.47
		c5.04-2.76,8.77-6.56,10.62-12.17c2.54-7.69,5.27-15.31,6.56-23.34c0.17-1.09,0.43-2.17,0.2-3.29v0c-0.15,0.31-0.39,0.61-0.43,0.94
		c-1.07,8.6-3.78,16.75-6.68,24.85c-0.94,2.65-1.85,5.31-3.88,7.45c-4.03,4.24-9.04,6.79-14.56,8.27c-6.09,1.64-12.2,2.22-17.7-1.98
		C343.98,590.05,345.12,590.53,346.16,591.02z"/>
	<path class="st5" d="M279.83,573.83c-3.18-2.67-5.2-6.18-7.05-9.85c-1.69-3.36-2.51-6.95-3.48-10.52c0.45,1.36,0.09,2.53-0.71,3.68
		c-5.13,7.42-11.02,14.16-17.84,20.1c-3.64,3.17-7.31,6.33-10.91,9.56c-2.19,1.97-4.58,3.5-7.42,4.39c-3.3,1.03-6.52,2.28-9.75,3.51
		c-3.95,1.51-6.84,4.1-8.28,8.15c-0.14,0.39-0.39,0.74-0.5,1.14c-0.54,1.93-1.79,2.44-3.61,1.85c0.73,0.56,1.6,0.37,2.4,0.36
		c4.07-0.08,8.13-0.1,12.2-0.27c8.17-0.35,16.11-1.79,23.97-3.91c5.23-1.41,9.82-3.73,13.62-7.77c5.68-6.03,11.71-11.72,17.35-17.79
		C280.77,575.43,280.99,574.81,279.83,573.83z"/>
	<path class="st5" d="M213.89,603.98c0.11-0.4,0.36-0.75,0.5-1.14c1.45-4.06,4.33-6.64,8.28-8.15c3.23-1.23,6.45-2.48,9.75-3.51
		c2.83-0.88,5.22-2.42,7.42-4.39c3.6-3.23,7.26-6.38,10.91-9.56c6.82-5.94,12.7-12.67,17.84-20.1c0.8-1.15,1.16-2.32,0.71-3.68
		c-0.08,0.87,0.01,1.71-0.58,2.55c-3.27,4.59-6.54,9.17-10.44,13.27c-5.18,5.45-10.9,10.31-16.57,15.21
		c-2.06,1.78-3.87,3.99-6.48,5.03c-3.19,1.28-6.44,2.43-9.71,3.48c-5.64,1.81-10.3,4.67-12.08,10.76c-0.49,1.66-1.5,2.3-3.15,2.06
		C212.11,606.42,213.35,605.91,213.89,603.98z"/>
	<path class="st3" d="M456.95,289.48c-6.69-3.85-12.45-2.01-17.37,2.54c-2.9,2.68-5.48,5.63-6.97,9.38
		c-0.17,0.42-0.29,0.97-0.95,0.9c1.43,3.21,2.95,6.39,4.28,9.65c4.53,11.12,6.09,22.59,3.98,34.49c-0.28,1.6-1.64,3.45-0.83,4.68
		c0.83,1.28,2.85,1.8,4.36,2.64c0.3,0.17,0.62,0.3,0.91,0.5c0.81,0.56,1.44,0.48,2.17-0.25c3.15-3.1,5.71-6.6,7.16-10.79
		c2.31-6.68,3.71-13.59,4.37-20.6c1.02-10.89,0.46-21.83,0.45-32.75C457.89,290.1,457.42,289.75,456.95,289.48z"/>
	<path class="st3" d="M441.62,289.7c-4.44,3.29-8,7.32-9.96,12.59c0.66,0.07,0.78-0.48,0.95-0.9c1.49-3.75,4.07-6.69,6.97-9.38
		c4.91-4.54,10.68-6.39,17.37-2.54c0.46,0.27,0.94,0.62,1.54,0.39C452.7,285.9,446.89,285.81,441.62,289.7z"/>
	<path class="st3" d="M424.61,295.45c-3.13-0.83-6.19-0.3-9.22,0.45c-6.58,1.62-10.56,6.75-10.65,13.53
		c-0.01,1.01,0.26,2.1-0.56,2.96c0.37,0.4,0.71,0.83,1.12,1.19c9.5,8.23,17.44,17.52,20.47,30.14c0.21,0.86,0.83,1.19,1.53,1.54
		c2.9,1.45,5.83,2.86,8.67,4.43c1.25,0.69,1.53,0.34,1.88-0.87c1.95-6.69,1.93-13.48,1.08-20.3c-1.53-12.23-7.14-22.93-12.73-33.63
		C426.03,296.08,425.14,295.59,424.61,295.45z"/>
	<path class="st3" d="M425.47,295.13c-2.75-0.99-5.53-0.68-8.34-0.24c-5.59,0.88-9.67,3.77-11.99,8.96
		c-1.22,2.73-1.01,5.65-0.97,8.54c0.82-0.87,0.55-1.95,0.56-2.96c0.09-6.79,4.07-11.92,10.65-13.53c3.03-0.75,6.09-1.28,9.22-0.45
		c0.53,0.14,1.43,0.63,1.58-0.57C426,295.11,425.77,295.24,425.47,295.13z"/>
	<path class="st4" d="M197.09,395.77c7.56,3.33,15.62,4.57,23.71,5.57c5.76,0.71,11.53,1.28,17.23,2.39
		c11.12,2.16,22.24,4.33,33.35,6.51c5.25,1.03,10.43,1.24,15.51-0.65c2.77-1.03,5.64-1.16,8.53-1.32c-1.17-0.01-2.35-0.04-3.52-0.01
		c-9.8,0.21-19.43-0.65-28.7-4.2c-6.88-2.63-13.15-6.4-19.52-10.02c-5.11-2.89-10.22-5.88-16.18-6.65
		c-10.39-1.36-20.81-2.55-31.21-3.87c-1.18-0.15-1.22,0.46-1.33,1.28c-0.48,3.64-0.51,7.3-0.41,10.96
		C195.4,395.07,196.25,395.4,197.09,395.77z"/>
	<path class="st4" d="M197.12,396.42c1.96,1.05,4.07,1.68,6.21,2.25c8.59,2.32,17.43,2.98,26.19,4.29
		c11.94,1.78,23.74,4.45,35.62,6.69c5.25,0.99,10.46,2.39,15.9,1.89c4.95-0.45,9.4-3.06,14.39-3.27c-2.89,0.16-5.76,0.29-8.53,1.32
		c-5.09,1.88-10.26,1.67-15.51,0.65c-11.12-2.18-22.23-4.36-33.35-6.51c-5.7-1.11-11.47-1.68-17.23-2.39
		c-8.09-0.99-16.15-2.23-23.71-5.57c-0.83-0.37-1.68-0.7-2.53-0.01C195.5,395.64,196.31,395.99,197.12,396.42z"/>
	<path class="st8" d="M251.62,471.22c-2.06,1.12-3.77,1.2-5.73-0.16c-1.49-1.04-3.1-2-4.91-2.66c-0.1,0.96,0.48,1.54,0.72,2.23
		c0.22,0.63,0.73,1.3,0.12,1.92c-0.53,0.53-1.17,0.12-1.74-0.07c-0.52-0.17-1.04-0.37-1.54-0.61c-4.84-2.29-10.01-3.53-15.14-4.92
		c-0.5-0.14-1.13-0.54-1.55-0.05c-0.4,0.47,0.04,1.05,0.21,1.55c0.88,2.55,1.91,5.03,2.98,7.5c0.28,0.65,1.17,1.55-0.26,2.05
		c8.7,10.37,19.56,17.31,32.64,20.83c1.28,0.34,1.56-0.13,1.84-1.11c3.13-10.6,4.97-21.49,7.56-32.22c-0.22,0.17-0.43,0.37-0.72,0.4
		C260.83,466.46,256.18,468.75,251.62,471.22z"/>
	<path class="st8" d="M250.24,471.3c-1.09,0.55-1.88,0.62-3-0.11c-2.27-1.47-4.72-2.66-7.28-4.07c0.07,2.1,1.46,3.46,1.8,5.07
		c-0.44,0.34-0.68,0.15-0.92,0.04c-5.89-2.74-12.1-4.48-18.36-6.1c-1.76-0.46-1.75,0.17-1.3,1.46c1.02,2.92,2.11,5.82,3.41,8.63
		c0.24,0.53,1.07,1.09,0.18,1.78c1.44-0.5,0.55-1.4,0.26-2.05c-1.08-2.47-2.11-4.95-2.98-7.5c-0.17-0.5-0.61-1.08-0.21-1.55
		c0.43-0.5,1.05-0.09,1.55,0.05c5.13,1.39,10.3,2.64,15.14,4.92c0.5,0.24,1.02,0.43,1.54,0.61c0.57,0.19,1.21,0.6,1.74,0.07
		c0.61-0.62,0.1-1.28-0.12-1.92c-0.24-0.69-0.81-1.27-0.72-2.23c1.81,0.67,3.42,1.62,4.91,2.66c1.96,1.36,3.67,1.28,5.73,0.16
		c4.55-2.47,9.21-4.75,14.48-5.31c0.28-0.03,0.5-0.23,0.72-0.4c-1.03,0.04-2.04,0.02-3.07,0.22
		C258.86,466.69,254.6,469.12,250.24,471.3z"/>
	<path class="st2" d="M249.17,164.39c0.62-2.02,1.72-2.87,3.79-2.61c1.88,0.24,3.61,0.87,5.15,2.01c2.28,1.68,4.58,3.32,6.7,5.2
		c1.25,1.11,1.79,0.91,2.37-0.66c1.07-2.94,0.57-6.01,0.71-9.03c0.05-1.06-0.33-2.23,0.62-3.12c-9.93-22.26-32.02-29.39-50.48-22.44
		c0.02,0.07,0.01,0.17,0.05,0.19c0.48,0.26,0.96,0.52,1.46,0.75c5.8,2.73,11.03,6.28,15.55,10.85c6.91,6.99,11.53,15.26,13.91,24.8
		C249.02,168.34,248.56,166.37,249.17,164.39z"/>
	<path class="st2" d="M252.56,162.24c2.22,0.27,4.18,1.13,5.98,2.53c2.16,1.69,4.44,3.23,6.42,5.16c1.13,1.1,2.09,0.92,2.56-0.67
		c0.46-1.58,0.97-3.14,0.95-4.83c-0.04-2.75,0.03-5.51,0.05-8.27c-0.95,0.89-0.57,2.06-0.62,3.12c-0.14,3.02,0.36,6.09-0.71,9.03
		c-0.57,1.57-1.12,1.77-2.37,0.66c-2.12-1.89-4.42-3.53-6.7-5.2c-1.54-1.13-3.27-1.77-5.15-2.01c-2.07-0.26-3.17,0.59-3.79,2.61
		c-0.61,1.98-0.15,3.95-0.17,5.92c0.78-1.95,0.11-4.07,0.73-6.07C250.2,162.72,251.06,162.06,252.56,162.24z"/>
	<path class="st3" d="M609.52,264.03c5.5,2.34,8.53,9.61,6.99,16.03c-0.68,2.83-1.68,5.58-3.11,8.11c-2.54,4.47,0.56,7.9,4.41,8.56
		c3.45,0.59,6.6,0.01,9.48-1.96c0.97-0.67,1.97-1.23,3.11-1.53c-1.28-0.14-0.92-1-0.65-1.68c1.24-3.1,1.98-6.31,2.13-9.64
		c0.35-7.73-1.87-14.56-7.96-19.53c-9.13-7.44-23.91-6.12-32.93,2.63C597,261.7,603.27,261.37,609.52,264.03z"/>
	<path class="st3" d="M615.94,279.9c-0.61,2.98-1.9,5.73-3.22,8.47c-0.62,1.29-1.19,2.55-0.78,4.14c1.14,4.31,5.3,5.2,9.48,5
		c3.52-0.17,6.32-2.14,8.97-4.27c-1.14,0.3-2.14,0.87-3.11,1.53c-2.88,1.98-6.03,2.56-9.48,1.96c-3.85-0.66-6.95-4.09-4.41-8.56
		c1.43-2.53,2.43-5.28,3.11-8.11c1.54-6.42-1.49-13.7-6.99-16.03c-6.25-2.65-12.51-2.32-18.53,0.99c3.83-1.45,7.79-2.22,11.89-2.08
		C613.18,263.31,617.63,271.61,615.94,279.9z"/>
	<path class="st3" d="M401.16,314.65c-4.06,3.83-5.15,8.63-4.82,13.98c0.07,1.09,0.68,2.48-0.86,3.19
		c4.18,2.66,8.63,4.94,11.94,8.78c0.52,0.61,1.29,0.35,1.97,0.35c2.62,0.01,5.26-0.22,7.82,0.54c2.26,0.68,4.49,1.44,6.93,2.23
		c-0.84-4-2.45-7.42-4.16-10.79c-4.21-8.28-11.23-14.06-17.85-20.21C402.33,313.63,401.69,314.15,401.16,314.65z"/>
	<path class="st3" d="M395.84,329.48c0.08,0.76,0.37,1.66-0.36,2.34c1.54-0.71,0.93-2.1,0.86-3.19c-0.33-5.35,0.75-10.16,4.82-13.98
		c0.53-0.5,1.17-1.02,0.97-1.93c-0.07,0.12-0.1,0.27-0.2,0.36C396.82,317.41,395.15,322.99,395.84,329.48z"/>
	<path class="st6" d="M318.24,217.77c-0.21,0.78-0.33,1.66-1.26,2.01c-0.19,3.19-0.96,6.26-2.18,9.2c-0.42,1.01-0.47,1.65,0.38,2.52
		c2.91,2.97,5.41,6.27,7.5,9.86c1.37,2.35,2.61,4.77,4.15,7.6c1.92-18.72,2.66-36.99,1.73-55.31c-1.81,4.33-4.38,8.29-6.15,12.65
		C320.89,210.07,319.33,213.83,318.24,217.77z"/>
	<path class="st6" d="M316.99,219.78c0.93-0.35,1.04-1.23,1.26-2.01c1.09-3.94,2.65-7.7,4.18-11.48c1.76-4.36,4.34-8.32,6.15-12.65
		c-1.35,1.33-2.02,3.09-2.9,4.7C321.96,205.16,319.23,212.37,316.99,219.78z"/>
	<path class="st6" d="M55.28,252.04c-0.28-0.88-0.91-1.78-0.21-2.75c-5.6-0.25-11.2-0.78-17.12-0.27c0.67,0.82,1.1,1.35,1.54,1.87
		c4.53,5.3,8.99,10.66,13.61,15.87c7.83,8.84,15.95,17.4,24.79,25.25c-2.18-3.26-4.92-6.11-7.05-9.41
		C64.6,272.94,58.8,263.07,55.28,252.04z"/>
	<path class="st6" d="M77.49,290.54c-2.53-3.34-5.17-6.59-7.47-10.11c-3.18-4.85-5.92-9.94-8.67-15.02
		c-2.76-5.09-4.78-10.52-6.29-16.12c-0.7,0.97-0.07,1.87,0.21,2.75c3.53,11.03,9.32,20.9,15.56,30.55c2.13,3.3,4.87,6.15,7.05,9.41
		c0,0,0,0,0,0C78.71,291.26,77.81,290.95,77.49,290.54z"/>
	<path class="st3" d="M538.47,181.74c0.16-0.99,0.56-1.84,0.98-2.71c-1.76,1.62-2.97,3.64-4.02,5.74
		c-3.46,6.93-4.02,14.27-2.74,21.79c0.66,3.9,1.98,7.62,4.33,10.87c0.39,0.53,0.76,1.57,1.73,0.71c3.9-3.44,8.38-6.05,12.77-8.77
		c-2.19-0.28-3.87-1.61-5.24-3.1C539.91,199.33,536.95,191.24,538.47,181.74z"/>
	<path class="st3" d="M539.69,193.9c-1.55-4.91-1.2-9.9-0.23-14.87c-0.42,0.87-0.83,1.72-0.98,2.71c-1.53,9.5,1.44,17.59,7.82,24.53
		c1.37,1.49,3.05,2.82,5.24,3.1C545.32,205.95,541.76,200.47,539.69,193.9z"/>
	<path class="st3" d="M464.1,204.51c-7.86,1.22-15.23-0.04-21.88-4.54c-2.7-1.82-4.59-4.31-5.21-7.61c0.24,4.36,1.63,8.39,3.8,12.13
		c4.47,7.72,11.26,11.95,20.03,13.07c0.86,0.11,2,0.49,2.28-1.01c0.81-4.33,1.65-8.65,2.48-12.98
		C465.3,204.19,464.75,204.41,464.1,204.51z"/>
	<path class="st3" d="M454.21,203.99c-7.49-1.28-13.99-4.03-17.2-11.63c0.62,3.3,2.52,5.78,5.21,7.61
		c6.65,4.5,14.02,5.76,21.88,4.54c0.65-0.1,1.19-0.32,1.5-0.94C461.84,204.61,458.04,204.65,454.21,203.99z"/>
	<path class="st9" d="M386.81,539.26c0.21-3.22-0.11-6.46-0.63-9.65c-0.27-1.64-1.46-2.62-2.92-3.24c-1.66-0.7-3.41-1.08-5.18-1.41
		c-3.12-0.56-6.27-1.04-9.11-2.59c-0.53,5.15-1.06,10.31-1.61,15.62c1.04-0.49,1.82-0.94,2.66-1.24c4.29-1.52,9.26-1.31,11.9,3.52
		c1.24,2.27,3.17,4.16,4.78,6.22C386.53,544.07,386.65,541.68,386.81,539.26z"/>
	<path class="st9" d="M387.13,530.99c-0.22-2.94-1.79-4.71-4.63-5.59c-2.77-0.86-5.64-1.19-8.45-1.78
		c-1.71-0.37-3.24-1.46-5.09-1.25c2.84,1.55,5.99,2.03,9.11,2.59c1.77,0.32,3.52,0.7,5.18,1.41c1.46,0.62,2.65,1.6,2.92,3.24
		c0.52,3.19,0.84,6.43,0.63,9.65c-0.16,2.42-0.28,4.81-0.12,7.22c0.15-0.3,0.42-0.59,0.43-0.89
		C387.32,540.73,387.49,535.86,387.13,530.99z"/>
	<path class="st9" d="M504,521.16c-1.28-1.17-2.97-1.4-4.69-0.98c-6.21,1.48-11.71,4.16-15.72,9.34c-0.25,0.33-0.52,0.65-0.97,0.74
		c2.02,3,4.04,6,6.2,9.21c1.61-3.48,3.57-6.36,6.02-8.93c2.09-2.19,4.6-3.17,7.6-3.17c2.86,0.01,5.61,0.62,8.37,1.27
		C509.1,525.63,506.49,523.43,504,521.16z"/>
	<path class="st9" d="M510.9,527.6c-1.93-2.62-4.23-4.93-6.7-6.98c-2.42-2.02-5.19-1.02-7.84-0.15c-5.61,1.82-10.55,4.57-13.73,9.79
		c0.44-0.09,0.71-0.41,0.97-0.74c4.01-5.19,9.51-7.86,15.72-9.34c1.73-0.41,3.42-0.18,4.69,0.98c2.49,2.27,5.1,4.47,6.81,7.47
		C511.25,528.32,511.2,528.01,510.9,527.6z"/>
	<path class="st10" d="M277.14,269.8c1.19-7.17-1.92-12.81-6.32-18.01c3.91,7.03,4.63,14.63,4.05,22.78
		c1.13-1.09,2.33-1.76,3.04-2.98C276.81,271.36,277.04,270.44,277.14,269.8z"/>
	<path class="st10" d="M277.69,269.44c1.13-6.17-1.34-11.25-4.85-15.98c-0.5-0.68-1.05-1.47-2.01-1.67
		c4.39,5.2,7.51,10.84,6.32,18.01c-0.11,0.65-0.33,1.57,0.78,1.79C277.32,270.93,277.56,270.16,277.69,269.44z"/>
	<path class="st11" d="M504.01,594.49c-4.18,0.48-8.31,0.65-11.76-2.42c3.59,5.11,9.13,5.2,14.63,5.97c-0.38-1.77-0.7-3.23-1-4.7
		C505.48,594.1,504.77,594.41,504.01,594.49z"/>
	<path class="st11" d="M492.25,592.07c3.45,3.07,7.58,2.91,11.76,2.42c0.76-0.09,1.47-0.39,1.86-1.15c-0.32,0.13-0.62,0.3-0.95,0.38
		C500.49,594.75,496.27,594.17,492.25,592.07z"/>
	<path class="st12" d="M293.85,376.85c4.01,1.89,8.25,3.12,13.45,3.27c2.42,0.43,4.78-0.91,6.78-3.16c2.56-2.88,4.46-6.14,5.56-9.82
		c1.57-5.23-1.87-9.28-7.33-8.66c-1.51,0.17-3.01,0.42-4.48,0.78c-5.81,1.43-11.42,3.4-15.78,7.7
		C288.31,370.65,289.04,374.58,293.85,376.85z M293.5,368.44c1.09-1.69,2.78-2.67,4.59-3.34c1.76-0.65,2.65,0.17,2.43,2.03
		c-0.35,2.93-2.24,4.57-5.42,4.58c-0.81-0.14-2.03,0.42-2.53-0.65C292.15,370.1,292.99,369.23,293.5,368.44z"/>
	<path class="st13" d="M228.24,351.54c3.82-1.27,7.52-2.76,10.93-4.95c1.42-0.91,1.93-2.04,1.72-3.65
		c-1.38-10.59-4.67-20.52-10.81-29.3c-5.54-7.93-13.53-10.39-22.79-8.86c-8.07,1.34-14.97,5.15-20.85,10.83
		c-1.06,1.02-1.92,2.17-2.62,3.46c-0.11,0.15-0.2,0.28-0.29,0.41c0.76,1.72,0.85,3.64,1.4,5.43c2.23,7.29,6.08,13.61,11.23,19.15
		c2.07,2.22,4.25,4.34,6.66,6.22c4.53,3.54,9.5,4.89,15.16,3.69c1.89-0.4,3.82-0.65,5.7-1.1c0.76-0.18,1.55-0.49,2.3,0.02
		C226.38,351.88,227.4,351.82,228.24,351.54z M217.78,306.86c3.94-0.33,6.92,2.01,9.59,4.82c2.79,2.94,4.92,6.43,6.24,10.18
		c1.19,3.39,0.42,6.96-1.38,10.16c-0.52,0.92-1.49,1.12-2.53,1.1c-2.56-0.04-4.88-0.98-7.08-2.11c-6.05-3.09-10.8-7.45-12.88-14.14
		C207.55,309.83,210.14,306.55,217.78,306.86z M214.21,353.42c-3.16,0.26-6.01-0.7-8.61-2.38c-5.09-3.3-9.36-7.46-12.75-12.51
		c-3.9-5.24-6.62-11.01-7.9-17.44c-0.86-1.56,0.16-2.72,1.04-3.68c5.74-6.26,12.92-10,21.19-11.7c2.1-0.43,4.23-0.57,6.52-0.25
		c-4.68,0.78-6.09,4.01-6.3,8.13c1.7,10.45,11.11,19.56,21.67,20.98c2.51,0.34,3.87-0.56,5.34-3.54c0.32-1.53,1.08-2.97,1.04-4.66
		c1.66,3.78,3.16,7.56,3.49,11.7c0.38,1.79,0.85,3.55,1.03,5.4c0.1,1.09-0.21,1.66-1.04,2.19c-2.61,1.65-5.31,3.14-8.3,3.98
		C225.38,351.84,219.87,352.96,214.21,353.42z"/>
	<path class="st13" d="M183.81,319.05c0.7-1.28,1.56-2.44,2.62-3.46c5.88-5.68,12.78-9.49,20.85-10.83
		c9.26-1.53,17.24,0.94,22.79,8.86c6.14,8.78,9.43,18.71,10.81,29.3c0.21,1.61-0.3,2.74-1.72,3.65c-3.41,2.19-7.11,3.69-10.93,4.95
		c-0.83,0.27-1.85,0.34-2.27,1.34c0.03,0.02,0.06,0.02,0.08,0.04c4.71-1.73,9.52-3.23,13.77-6.06c1.34-0.89,1.83-1.82,1.65-3.4
		c-1.32-11.33-4.97-21.8-11.63-31.08c-4.48-6.24-11.07-8.76-18.42-8.58c-9.57,0.24-17.68,4.47-24.79,10.71
		c-1.41,1.24-2.59,2.69-3.33,4.45c0.09,0.17,0.13,0.34,0.21,0.51C183.61,319.33,183.71,319.21,183.81,319.05z"/>
	<path class="st13" d="M223.67,352.85c-1.89,0.45-3.81,0.71-5.7,1.1c-5.66,1.2-10.63-0.16-15.16-3.69c-2.42-1.88-4.59-4-6.66-6.22
		c-5.15-5.54-9-11.86-11.23-19.15c-0.55-1.79-0.64-3.71-1.4-5.43c-0.06,0.08-0.12,0.16-0.18,0.24c0.03,0.72,0.04,1.44,0.21,2.13
		c3.08,12.6,10.08,22.56,20.61,30.03c3.34,2.37,7.08,3.46,11.32,2.93c3.53-0.43,6.97-1.2,10.44-1.85c0.01-0.03,0.03-0.04,0.04-0.07
		C225.22,352.36,224.43,352.67,223.67,352.85z"/>
	<path class="st13" d="M225.97,352.88c-0.01,0.02-0.03,0.04-0.04,0.07c0.04-0.01,0.08-0.02,0.12-0.02
		C226.03,352.9,226,352.9,225.97,352.88z"/>
	<path class="st13" d="M183.31,318.96c0.02,0.25,0.03,0.49,0.03,0.74c0.05-0.07,0.12-0.15,0.18-0.24
		C183.44,319.3,183.4,319.12,183.31,318.96z"/>
	<path class="st13" d="M313.87,308.84c2.35,2.22,3.05,2.1,4.98-0.38c5.14-6.59,7.5-14.2,8.08-22.86c-0.33-3.18-1.04-6.7-2.12-10.11
		c-2.19-6.92-5.67-13.03-11.62-17.47c-2.17-1.62-3.18-1.68-5.43-0.16c-3.11,2.1-5.41,4.91-6.95,8.32c-2,4.41-2.29,9.05-1.71,13.79
		C300.5,291.4,305.53,300.99,313.87,308.84z M305.17,263.76c0.61-2.2,2.04-4.38,4.46-4.77c2.45-0.4,4.2,1.47,5.64,3.25
		c2.54,3.15,3.13,4.9,3.03,8.9c-0.12,2.59-0.74,5.91-2.13,9.02c-2.05,4.58-5.46,4.96-8.43,0.92
		C303.84,275.8,303.49,269.86,305.17,263.76z M302.08,266.84c0.25-0.54,0.32-1.21,1.03-1.54c-0.56,4.32-0.22,8.51,0.95,12.65
		c1.16,1.86,2.05,3.89,3.71,5.43c3.12,2.89,6.42,2.68,8.72-0.88c2.66-4.11,3.12-8.87,3.66-14.05c2.94,6.08,5.25,11.96,5.11,18.55
		c-0.45,7.58-2.94,14.4-7.47,20.5c-0.91,1.22-1.79,1.54-2.95,0.3c-0.79-0.86-1.79-1.51-2.41-2.54c-3.55-3.78-6.49-7.95-8.31-12.85
		c-2.22-4.12-3.23-8.62-3.65-13.21C300.09,275.02,300.24,270.79,302.08,266.84z"/>
	<path class="st14" d="M295.11,371.71c3.18-0.01,5.07-1.64,5.42-4.58c0.22-1.86-0.67-2.68-2.43-2.03c-1.81,0.67-3.5,1.65-4.59,3.34
		c-0.51,0.79-1.36,1.66-0.92,2.61C293.08,372.12,294.31,371.57,295.11,371.71z"/>
	<path class="st15" d="M201.77,332.7c7.25-0.71,13.99,0.8,19.77,5.39c3.92,3.11,7.27,6.74,9.09,11.54c3-0.85,5.69-2.33,8.3-3.98
		c0.82-0.52,1.14-1.09,1.04-2.19c-0.18-1.85-0.65-3.61-1.03-5.4c-0.9-1.67-1.76-3.36-2.71-5.01c-0.46-0.79-0.7-1.82-1.82-2.04
		c-1.47,2.98-2.83,3.88-5.34,3.54c-10.56-1.42-19.97-10.53-21.67-20.98c-7.18-1.4-13.53,1.13-19.68,4.32
		c-1.21,0.62-2.4,1.65-2.78,3.18c1.28,6.43,4,12.2,7.9,17.44C194.73,334.9,197.86,333.08,201.77,332.7z"/>
	<path class="st16" d="M229.12,347.77c-4.33-7.83-10.87-12.69-19.64-14.38c-2.7-0.52-5.5-0.36-8.24-0.02
		c-2.69,0.32-4.99,1.49-6.73,3.65c-0.46,0.58-0.83,1.3-1.64,1.51c3.39,5.05,7.65,9.21,12.75,12.51c2.6,1.69,5.45,2.64,8.61,2.38
		c5.66-0.47,11.17-1.58,16.43-3.78C229.75,349.33,229.51,348.49,229.12,347.77z"/>
	<path class="st16" d="M194.49,337.02c1.74-2.17,4.05-3.33,6.73-3.65c2.74-0.33,5.55-0.49,8.24,0.02
		c8.77,1.69,15.31,6.56,19.64,14.38c0.39,0.71,0.64,1.55,1.53,1.86c-1.82-4.8-5.18-8.43-9.09-11.54
		c-5.79-4.59-12.53-6.11-19.77-5.39c-3.91,0.38-7.05,2.2-8.92,5.82C193.66,338.31,194.03,337.59,194.49,337.02z"/>
	<path class="st14" d="M209.73,316.87c2.08,6.69,6.84,11.05,12.88,14.14c2.21,1.12,4.52,2.06,7.08,2.11
		c1.04,0.02,2.01-0.18,2.53-1.1c1.8-3.19,2.56-6.76,1.38-10.16c-1.31-3.75-3.45-7.24-6.24-10.18c-2.67-2.81-5.64-5.14-9.59-4.82
		C210.14,306.55,207.55,309.83,209.73,316.87z"/>
	<path class="st17" d="M187.49,317.44c5.22-2.95,10.77-4.9,16.87-4.84c1.11,0.01,2.22,0.1,3.05,0.98c0.21-4.12,1.62-7.35,6.3-8.13
		c-2.29-0.32-4.42-0.18-6.52,0.25c-8.28,1.7-15.45,5.44-21.19,11.7c-0.88,0.96-1.9,2.12-1.04,3.68
		C184.78,319.17,186.18,318.18,187.49,317.44z"/>
	<path class="st17" d="M187.73,317.9c6.15-3.19,12.5-5.72,19.68-4.32c-0.84-0.88-1.94-0.97-3.05-0.98
		c-6.1-0.06-11.65,1.89-16.87,4.84c-1.3,0.74-2.71,1.73-2.53,3.64C185.33,319.55,186.52,318.53,187.73,317.9z"/>
	<path class="st18" d="M236.26,332.1c1.21,1.84,2.11,3.83,2.69,5.96c-0.33-4.14-1.84-7.93-3.49-11.7c0.05,1.69-0.72,3.13-1.04,4.66
		C235.55,330.49,235.86,331.49,236.26,332.1z"/>
	<path class="st18" d="M236.24,333.06c0.95,1.64,1.81,3.34,2.71,5.01c-0.58-2.13-1.48-4.12-2.69-5.96c-0.4-0.61-0.71-1.61-1.84-1.09
		C235.54,331.24,235.78,332.27,236.24,333.06z"/>
	<path class="st14" d="M316.17,280.17c1.39-3.11,2.01-6.43,2.13-9.02c0.1-4-0.49-5.75-3.03-8.9c-1.44-1.78-3.19-3.65-5.64-3.25
		c-2.42,0.39-3.85,2.57-4.46,4.77c-1.68,6.1-1.33,12.04,2.57,17.33C310.71,285.14,314.12,284.75,316.17,280.17z"/>
	<path class="st19" d="M303.9,290.16c0.14,0.75,0.25,1.49,0.23,2.25c1.82,4.9,4.76,9.08,8.31,12.85c-0.35-3.69-0.31-7.35,0.84-10.93
		c0.93-2.91,2.18-5.63,4.4-7.81c2.38-2.34,5.53-2.14,7.59,0.48c0.14-6.59-2.17-12.47-5.11-18.55c-0.54,5.18-1,9.94-3.66,14.05
		c-2.3,3.55-5.6,3.77-8.72,0.88c-1.66-1.54-2.55-3.57-3.71-5.43C302.85,282,303.15,286.09,303.9,290.16z"/>
	<path class="st16" d="M324.87,286.99c-4.14-2.35-6-1.95-8.56,2.1c-2.63,4.15-3.76,8.71-3.4,13.63c0.07,0.88,0.26,1.81-0.47,2.55
		c0.62,1.02,1.62,1.68,2.41,2.54c1.15,1.25,2.04,0.93,2.95-0.3c4.53-6.1,7.02-12.92,7.47-20.5
		C325.13,287.03,324.98,287.06,324.87,286.99z"/>
	<path class="st16" d="M317.68,286.53c-2.22,2.18-3.47,4.9-4.4,7.81c-1.14,3.58-1.19,7.24-0.84,10.93c0.72-0.75,0.53-1.67,0.47-2.55
		c-0.37-4.92,0.77-9.48,3.4-13.63c2.56-4.04,4.42-4.45,8.56-2.1c0.11,0.06,0.26,0.04,0.4,0.01
		C323.21,284.38,320.05,284.19,317.68,286.53z"/>
	<path class="st20" d="M304.13,292.41c-1.39-4.08-1.89-8.25-1.14-12.51c0.13-0.73-0.03-1.72,1.08-1.95
		c-1.17-4.13-1.51-8.33-0.95-12.65c-0.71,0.33-0.78,1-1.03,1.54c-1.83,3.95-1.99,8.18-1.6,12.36
		C300.89,283.79,301.91,288.29,304.13,292.41z"/>
	<path class="st20" d="M302.98,279.9c-0.75,4.27-0.25,8.43,1.14,12.51c0.02-0.76-0.09-1.49-0.23-2.25
		c-0.75-4.07-1.05-8.16,0.16-12.22C302.95,278.18,303.11,279.17,302.98,279.9z"/>
</g>
</svg>
