<?xml version="1.0" encoding="utf-8"?>
<!-- Generator: Adobe Illustrator 24.3.0, SVG Export Plug-In . SVG Version: 6.00 Build 0)  -->
<svg version="1.1" id="Layer_1" xmlns="http://www.w3.org/2000/svg" xmlns:xlink="http://www.w3.org/1999/xlink" x="0px" y="0px"
	 viewBox="0 0 720 720" style="enable-background:new 0 0 720 720;" xml:space="preserve">
<style type="text/css">
	.st0{fill-rule:evenodd;clip-rule:evenodd;fill:#211714;}
	.st1{fill-rule:evenodd;clip-rule:evenodd;fill:#F5ACC1;}
	.st2{fill-rule:evenodd;clip-rule:evenodd;fill:#EFECEC;}
	.st3{fill-rule:evenodd;clip-rule:evenodd;fill:#D5D2E9;}
	.st4{fill-rule:evenodd;clip-rule:evenodd;fill:#DA93C0;}
	.st5{fill-rule:evenodd;clip-rule:evenodd;fill:#3C1E1C;}
	.st6{fill-rule:evenodd;clip-rule:evenodd;fill:#231815;}
	.st7{fill-rule:evenodd;clip-rule:evenodd;fill:#FFFEFE;}
	.st8{fill-rule:evenodd;clip-rule:evenodd;fill:#DD7F80;}
	.st9{fill-rule:evenodd;clip-rule:evenodd;fill:#55292F;}
	.st10{fill-rule:evenodd;clip-rule:evenodd;fill:#211815;}
	.st11{fill-rule:evenodd;clip-rule:evenodd;fill:#529F8E;}
	.st12{fill-rule:evenodd;clip-rule:evenodd;fill:#8CC4B9;}
</style>
<g>
	<path class="st0" d="M529.31,313.02c3.46-2.63,6.57-5.15,9.85-7.43c7.19-5.01,14.51-9.82,23.4-11.32c3.31-0.55,6.66-0.69,9.93-0.08
		c6.15,1.15,10.62,6.81,11.55,14c1.6,12.24-0.82,23.77-5.44,35.08c-7.97,19.5-19.65,36.61-33.25,52.53
		c-0.99,1.16-1.29,2.11-0.93,3.69c5.44,23.96,12.54,47.46,18.85,71.18c5.7,21.43,7.76,43.18,5.91,65.27
		c-2.92,34.83-19.6,62.21-46.09,84.09c-15.74,13-32.99,23.56-52.15,30.87c-3.35,1.28-6.74,2.43-10.23,3.24
		c-1.7,0.39-2.67,1.23-3.53,2.71c-6.71,11.5-19.88,17.91-32.65,15.96c-3.85-0.59-7.39-2.17-10.72-4.1
		c-1.66-0.95-3.07-1.09-4.87-0.62c-9.78,2.59-19.82,3.37-29.85,4.06c-14.85,1.03-29.73,1.27-44.62,0.66
		c-23.25-0.96-45.71-5.86-67.68-13.34c-13.62-4.63-26.84-10.05-38.75-18.28c-0.49-0.34-1.02-0.62-1.79-1.09
		c-0.33,2.78,0.06,5.35-0.28,7.9c-1.7,13-12.27,19.32-25.26,15.51c-6.13-1.8-11.56-5.1-16.26-9.34
		c-29.83-26.92-64.93-45.05-101.32-61.07c-2.39-1.05-4.93-1.76-7.41-2.62c-5.28-1.83-10.09-4.55-14.07-8.44
		c-10.33-10.11-18.77-21.52-22.09-35.9c-1.52-6.57-2.23-13.36-0.74-20.06c3.24-14.57,15.97-21.81,30.68-17.48
		c6.82,2.01,13.16,5.16,19.26,8.81c22.97,13.75,43.34,30.77,62.33,49.53c0.61,0.61,1.07,1.36,1.66,2.12
		c0.69-0.99,0.18-1.37-0.06-1.79c-12.68-23.03-20.11-47.76-23.73-73.69c-4.89-35.03-1.9-69.64,6.1-103.93
		c0.48-2.05,0.34-3.66-0.8-5.59c-10.93-18.45-19.67-37.81-23.88-58.99c-0.93-4.65-1.36-9.32-0.94-14.08
		c0.78-8.92,6.76-13.68,15.64-12.14c4.43,0.77,8.62,2.23,12.45,4.64c7.57,4.77,14.69,10.11,21.14,16.79
		c5.85-12.73,11.67-25.26,18.1-37.7c-5.68-2.62-11.06-5.68-16.21-9.16c-18.59-12.56-33.86-28.51-46.75-46.71
		c-20.17-28.49-36.87-59.02-50.93-90.92c-10.04-22.77-19.4-45.86-25.47-70.11c-0.47-1.86-0.95-3.73-1.31-5.61
		c-0.18-0.92-0.3-1.95,0.67-2.63c1.02-0.71,1.87-0.07,2.64,0.44c9.86,6.51,20.4,11.86,30.64,17.72
		c42.99,24.6,80.14,56.22,112.15,93.9c10.9,12.83,19.92,27.02,27.92,41.84c2.12,3.92,3.79,8.03,5.17,12.49
		c4.09-4.86,7.99-9.55,11.97-14.18c0.88-1.02,0.17-1.53-0.38-2.18c-8.65-10.2-13.65-22.14-16.25-35.08
		c-2.49-12.42-0.95-24.75,1.94-36.94c5.53-23.26,16.94-42.85,36.58-57.01c17.79-12.83,37.59-17.86,59.32-13.98
		c14.33,2.56,26.72,14.46,29.38,27.8c1.15,5.76,0.52,11.51-0.67,17.2c-0.35,1.67-0.55,2.74,1.79,3.09
		c10.67,1.6,18.14,8.1,24.34,16.41c7.38,9.89,10.58,21.18,10.92,33.35c0.06,2.18,0.54,2.85,2.85,3.07
		c22.66,2.12,44.74,6.7,65.64,16.09c5.05,2.27,9.78,5.06,14.39,8.08c0.86,0.56,1.45,1.1,2.23-0.19
		c9.33-15.42,23.56-25.68,37.93-35.72c17.23-12.04,35.66-22.12,53.96-32.39c30.19-16.94,60.91-32.9,91.3-49.48
		c11.99-6.55,23.42-14,34.2-22.41c1.38-1.08,2.77-2.15,4.42-2.8c2.19-0.86,3.01-0.32,2.76,2.05c-0.4,3.83-1.39,7.57-2.55,11.23
		c-11.58,36.4-29,69.84-51.42,100.68c-12.4,17.05-24.49,34.4-39.07,49.72c-18.69,19.64-40.25,35.19-65.93,44.55
		c-2.19,0.8-4.45,1.4-6.85,2.14C528.07,274.36,528.12,293.66,529.31,313.02z"/>
	<path class="st1" d="M445.91,586.11c-0.15-0.34-0.31-0.69-0.46-1.03c1.58-2.94,3.8-5.45,5.47-8.33
		c8.24-14.22,12.94-29.59,15.29-45.78c1.23-8.45,1.36-16.96,0.91-25.41c-1.04-19.27-4.67-38.03-12.71-55.73
		c-9-19.8-20.26-38.16-34.9-54.36c-12.79-14.15-26.93-26.67-42.7-37.5c-13.14-9.02-26.79-16.9-41.83-22.25
		c-10.84-3.86-21.91-6.63-33.46-7.46c-6.98-0.5-13.95-1.17-20.95-0.96c-23.62,0.69-44.83,7.93-62.97,23.38
		c-21.17,18.02-37.62,39.7-49.63,64.73c-4.44,9.25-7.56,19.03-10.71,28.78c-4.29,13.31-6.85,26.97-8.39,40.83
		c-0.65,5.81-1.09,11.65-1.32,17.51c-0.2,5.15-0.63,10.31-0.42,15.47c0.58,13.9,1.35,27.79,5.15,41.3c0.25,0.91,0.69,1.85-0.13,2.72
		c-4.97-8.68-8.49-18-11.65-27.44c-9.67-28.88-13.25-58.54-11.61-88.95c2.37-43.9,13.89-85.42,31.89-125.32
		c9.13-20.24,18.66-40.28,30.4-59.17c8.34-13.42,17.91-25.98,27.64-38.41c2.91-3.72,6.05-7.26,9.01-10.95
		c1.02-1.27,1.62-1.46,3.01-0.22c14,12.33,30.39,19.57,48.89,21.52c15.21,1.6,30.55,1.47,45.35-2.7
		c27.26-7.68,43.53-25.77,48.62-53.71c0.48-2.65,0.54-5.4,0.65-8.1c0.05-1.24,0.36-1.68,1.67-1.54
		c22.83,2.27,45.12,6.75,66.18,16.22c4.8,2.16,9.28,4.89,13.73,7.67c1.44,0.9,1.55,1.62,0.75,3.1c-3.23,6.02-5.71,12.37-7.85,18.85
		c-0.26,0.79-0.95,1.85,0.2,2.24c1.18,0.41,1.27-0.91,1.53-1.67c3.5-10.31,7.71-20.26,14.4-29c5.2-6.79,11.34-12.6,18.02-17.91
		c18.42-14.66,38.68-26.45,59.1-38c17.67-9.99,35.48-19.69,53.34-29.32c0.54-0.29,1.11-0.5,1.66-0.75c2.43,4.2,4.61,8.55,7.62,12.4
		c1.71,2.2,3.25,4.53,5.68,6.04c0.12,0.9-0.59,1.21-1.18,1.54c-8.99,5.09-17.99,10.15-27.42,14.41
		c-19.17,8.66-38.11,17.74-54.83,30.77c-5.66,4.41-10.95,9.24-16.25,14.1c-10.17,9.35-19.13,19.68-26.77,31.19
		c-1.55,2.33-2.92,4.78-4.36,7.18c-0.35,0.58-0.96,1.26-0.52,1.91c0.51,0.75,1.3,0.15,1.9-0.07c1.67-0.59,3.41-0.8,5.14-1.06
		c0.7-0.11,1.46-0.14,1.87,0.59c0.42,0.74-0.07,1.35-0.49,1.9c-0.95,1.26-1.99,2.45-2.97,3.68c-1.25,1.57-0.91,2.37,1.08,2.48
		c2.7,0.15,5.42,0,8.14,0.07c1.09,0.03,2.57-0.41,3.04,0.88c0.42,1.14-0.69,2.09-1.44,2.91c-1.77,1.94-3.71,3.72-5.52,5.62
		c-0.58,0.61-1.65,1.23-1.21,2.13c0.46,0.94,1.58,0.39,2.4,0.24c12.49-2.16,24.49-6,36.09-11.02c18.44-7.98,35.38-18.4,50.49-31.71
		c11.39-10.04,21.52-21.27,31.2-32.93c5.93-7.15,11.59-14.49,16.74-22.23c0.53-0.8,1.04-1.64,2.08-1.9c0.74-0.12,1.4,0.14,1.96,0.55
		c2.99,2.23,6.5,3.69,9.25,6.26c-4.91,8.08-10.61,15.62-16.24,23.19c-10.49,14.11-20.65,28.5-32.82,41.26
		c-17.9,18.78-38.51,33.69-62.77,43.31c-10.37,4.12-21.29,4.59-32.21,5.08c-4.98,0.22-9.98,0.21-14.96,0.33
		c-0.72,0.02-1.85-0.26-1.83,0.88c0.02,1.09,1.12,0.87,1.87,0.88c11.56,0.14,23.1-0.3,34.56-1.86c1.59-0.22,2.16,0.27,2.81,1.48
		c4.75,8.83,7.29,18.34,8.37,28.23c0.91,8.35,1.7,16.71,1.81,25.12c0.02,1.72-0.42,2.86-1.81,3.97
		c-9.33,7.41-18.08,15.47-26.7,23.69c-0.31,0.3-0.63,0.6-0.93,0.92c-0.35,0.37-0.91,0.82-0.49,1.32c0.59,0.68,1.11,0,1.53-0.37
		c4.17-3.74,8.23-7.6,12.49-11.23c12.11-10.33,23.9-21.07,37.7-29.22c4.79-2.83,9.89-4.75,15.44-5.53
		c10.61-1.5,17.06,3.9,17.93,14.64c0.98,12.12-1.65,23.45-6.6,34.38c-0.97,2.15-2,4.27-3,6.4c-1.44-0.39-1.06-1.63-1.08-2.56
		c-0.02-1.94-0.13-3.85-0.63-5.73c-0.71-2.67-2.63-3.65-5.22-2.61c-2.73,1.1-4.86,3.09-6.95,5.09
		c-7.84,7.52-14.81,15.84-21.82,24.12c-5.44,6.43-10.56,13.06-14.92,20.28c-3.04,5.04-4.9,10.42-5.57,16.26
		c-0.15,1.34-0.05,2.62,0.26,3.9c0.89,3.67,2.4,4.56,6.09,3.64c1.17-0.29,2.49-1.18,3.27,0.63c1.18,0.23,1.71-0.7,2.37-1.36
		c4.44-4.45,8.86-8.92,13.52-13.63c1.03,1.98,1.13,3.88,1.56,5.67c5.42,22.4,11.95,44.51,17.84,66.79
		c3.94,14.93,6.29,30.08,6.16,45.56c-0.89,0.21-1-0.52-1.21-1.05c-3.37-8.15-12.34-10.54-18.87-9.7
		c-7.85,1.02-13.36,5.58-18.16,11.42c-2.9,3.53-5.27,7.39-7.75,11.2c-6.06,9.3-12.19,18.53-20.36,26.25
		c-8.2,7.75-17.44,13.98-27.18,19.54c-7.38,4.21-14.95,8.03-23.03,10.7C449.55,586.21,447.81,587.71,445.91,586.11z"/>
	<path class="st2" d="M152.14,562c-1.05-5.11-2.47-10.12-3.29-15.29c-0.83-5.25-1.57-10.52-1.83-15.8
		c-0.35-7.15-0.86-14.3-0.63-21.48c0.87-27.81,5.53-54.84,15.38-81c6.78-18.01,16.25-34.39,27.9-49.56
		c10.42-13.56,22.24-25.82,36.42-35.5c12.82-8.75,27.06-13.88,42.5-15.81c10.98-1.37,21.89-0.92,32.88-0.03
		c11.57,0.93,22.66,3.63,33.55,7.46c15.96,5.61,30.29,14.14,44.16,23.74c14.31,9.91,27.2,21.37,39,34.06
		c14.75,15.86,26.17,34.01,35.46,53.5c6.16,12.9,9.97,26.54,12.25,40.66c1.9,11.7,2.53,23.46,1.9,35.22
		c-0.83,15.53-4.73,30.42-10.98,44.69c-2.57,5.88-5.74,11.37-9.55,16.51c-0.5,0.68-0.76,1.63-1.83,1.7
		c-5.67-14.84-11.17-29.75-17.08-44.49c-3.87-9.65-8.06-19.26-15.28-27.01c-14.5-15.56-32.27-25.16-53.33-28.35
		c-10.52-1.59-21.09-1.74-31.57,0.48c-15.53,3.28-27.36,15.43-29.34,31.12c-2.62,20.78,2.41,39.31,17.44,54.65
		c7.34,7.49,15.93,13.36,24.1,19.79c4.39,3.46,8.7,7.03,13.04,10.55c-0.06,1.45-1.31,1.19-2.13,1.37c-3,0.64-6.08,0.77-9.12,0.94
		c-9.6,0.55-19.19,0.68-28.83,0.19c-11.74-0.59-23.38-1.69-34.9-3.93c-17.1-3.33-33.45-8.99-49.28-16.2
		c-9.32-4.25-18.49-8.81-27.55-13.56c-6.65-3.49-13.69-5.42-21.12-5.62c-4.69-0.12-9.27,0.8-12.68,4.59
		c-2.22,2.47-3.03,5.45-3.33,8.66c-0.09,0.96,0.24,2.19-1.17,2.58C159.16,574.8,155.28,568.62,152.14,562z"/>
	<path class="st1" d="M224.1,200.51c-7.07-10.6-11.91-22.21-12.33-34.92c-1.12-33.49,9.51-62.3,36.17-83.87
		c14.86-12.02,32.17-17.41,51.25-16.66c13.5,0.53,24.71,5.78,32.61,17.16c4.44,6.4,5.37,13.54,4.56,21.05
		c-0.63,5.79-1.83,11.3-5.68,16.06c-7.12,8.81-20.98,8.39-28.15,3.17c-3.85-2.8-5.22-6.7-4.27-11.34c0.95-4.59,2.96-8.42,7.86-9.92
		c0.61-0.19,1.69-0.04,1.48-1.01c-0.21-0.96-1.14-0.38-1.78-0.32c-2.39,0.23-4.28,1.37-5.85,3.15c-7.11,8.09-4.39,19.38,5.61,23.22
		c12.34,4.74,23.88,0.53,29.8-10.99c0.68-1.32,1.28-1.39,2.61-1.17c12.39,2,20.26,9.95,26.56,19.98c6.8,10.83,8.21,22.87,7.89,35.3
		c-0.29,11-3.49,21.12-9.08,30.54c-1.41-0.18-1.14-1.36-1.21-2.22c-0.15-1.57-0.16-3.16-0.04-4.73c0.62-7.77-5.19-15.49-13.67-17.57
		c-6.13-1.5-12.26-1.41-18.48-0.8c-8.45,0.82-16.81,2.85-25.28,2.82c-11.1-0.04-22.16-0.92-32.94-4.23
		c-6.15-1.89-12.4-3.66-19.01-3.57c-12.42,0.17-22.08,7.28-25.59,19.15c-0.92,3.11-1.69,6.24-1.79,9.52
		C225.33,199.19,225.55,200.4,224.1,200.51z"/>
	<path class="st3" d="M163.29,580.83c0.99-1.66,0.49-3.56,0.8-5.34c1.12-6.54,6.99-10.39,12.36-10.96
		c9.93-1.04,18.82,1.92,27.47,6.43c9.05,4.71,18.12,9.39,27.49,13.44c8.16,3.52,16.36,6.98,24.89,9.54
		c10.84,3.25,21.77,5.99,33.02,7.47c8.29,1.09,16.58,1.68,24.92,2.16c6.2,0.36,12.4,0.51,18.57,0.3c6.59-0.22,13.2-0.56,19.74-1.54
		c0.31-0.04,0.57-0.34,0.86-0.52c5.51,4.2,10.3,9.16,14.91,14.3c7.8,8.69,13.97,18.59,20.87,27.95c5.67,7.7,12.04,14.77,19.27,21.06
		c0.25,0.22,0.44,0.49,0.87,0.97c-5.33,1.47-10.54,2.35-15.79,2.93c-18.56,2.06-37.18,2.71-55.82,2.07
		c-34.21-1.17-66.95-9.04-97.25-24.81c-20.37-10.61-39.68-23.3-56.11-39.77C176.5,598.63,169.31,590.21,163.29,580.83z"/>
	<path class="st4" d="M445.91,586.11c3.96,0.09,7.42-1.74,10.87-3.2c12.33-5.24,23.94-11.81,34.65-19.88
		c8.91-6.71,16.45-14.7,22.9-23.85c4.97-7.05,9.04-14.69,14.51-21.41c5.67-6.98,12.3-12.16,21.77-12.01
		c8.12,0.13,14.15,3.66,17.17,11.54c0.64,6.91,0.03,13.79-0.67,20.65c-1.88,18.21-7.42,35.18-17.69,50.44
		c-8.76,13.02-19.41,24.27-31.91,33.81c-14.33,10.93-29.63,20.12-46.45,26.69c-3.89,1.52-7.81,2.88-12.25,3.75
		c0.88-6.16,0.54-12.06-0.38-17.95c-2.57-16.35-5.94-32.48-12.39-47.81C445.93,586.65,445.95,586.37,445.91,586.11z"/>
	<path class="st1" d="M301.45,539.84c-1.58-9.09-2.39-18.18,0.12-27.26c3.81-13.82,15.91-23.94,30.65-25.78
		c26.62-3.33,50.44,3.21,71.36,20.11c7.54,6.1,13.27,13.59,17.59,22.25c6.77,13.57,11.52,27.93,16.89,42.05
		c4.94,12.97,10.47,25.74,13.75,39.29c2.38,9.78,4.14,19.67,5.42,29.64c0.56,4.35,0.55,8.82-0.49,13.06
		c-1.04,4.27-4.14,7.44-7.38,10.3c-4.48,3.94-9.63,6.5-15.61,7.25c-0.29-0.55-0.02-1.03,0.26-1.46c4.28-6.45,4.49-13.51,3.6-20.93
		c-2.13-17.92-9.54-33.73-18.87-48.82c-5.81-9.39-12-18.54-19.4-26.76c-7.96-8.86-16.26-17.39-26.27-24.04
		c-6.64-4.41-13.24-8.86-20.21-12.74c-10.54-5.87-21.78-9.23-33.91-8.52c-7.05,0.42-12.82,3.37-15.78,10.35
		C302.86,538.67,302.74,539.79,301.45,539.84z"/>
	<path class="st4" d="M301.45,539.84c1.57-2.68,2.41-5.71,4.89-7.94c3.49-3.13,7.57-4.85,12.06-5.1c12.82-0.7,24.62,2.76,35.7,9.15
		c7.8,4.5,15.32,9.38,22.65,14.59c8.75,6.21,16.05,13.97,23.17,21.91c5.48,6.11,10.3,12.73,14.82,19.57
		c8.06,12.19,15.33,24.81,19.8,38.82c2.23,6.98,3.29,14.17,4.08,21.48c0.61,5.59-0.65,10.51-2.88,15.38
		c-0.5,1.09-1.32,2.04-1.99,3.05c-8.64,1.93-16.01-1.17-22.77-6.06c-5.71-4.12-10.21-9.55-14.84-14.79
		c-3.83-4.34-7.23-9.01-10.37-13.85c-11.64-17.99-26.31-33.03-43.51-45.76c-7.23-5.34-14.64-10.48-21.21-16.72
		c-9.14-8.67-16.06-18.62-19.38-30.91C301.41,541.7,301.38,540.8,301.45,539.84z"/>
	<path class="st1" d="M53.04,569.27c-8.31-10.77-13.33-22.66-12.98-36.55c0.15-5.98,1.45-11.49,5.28-16.11
		c6.16-7.45,14.24-8.65,23.09-6.36c6.12,1.59,11.83,4.31,17.26,7.52c26.11,15.41,49.14,34.64,69.93,56.63
		c5.92,6.27,10.09,13.82,15.54,20.43c14.1,17.09,31.1,30.66,49.95,42.05c2.22,1.34,3.16,2.75,3.19,5.34
		c0.05,4.26-0.15,8.43-2.16,12.26c-3.67,6.99-11.07,9.8-19.86,7.59c-1.17-0.29-2.4-0.49-3.41-1.25c-1.15-3.46-1.75-7.09-3.61-10.34
		c-3.67-6.42-7.94-12.39-12.98-17.76c-15.27-16.27-32.25-30.58-50.82-42.92c-15.76-10.48-32.06-20.04-49.6-27.29
		c-5.28-2.19-10.74-3.75-16.57-3.15c-5.13,0.53-8.4,3.49-10.45,8.07C54.5,568.19,54.74,569.75,53.04,569.27z"/>
	<path class="st4" d="M224.1,200.51c1.11-2.94,0.73-6.1,1.5-9.14c3.12-12.26,10.35-20.18,23.11-22.21
		c3.41-0.54,6.94-0.47,10.42,0.17c7.88,1.44,15.4,4.4,23.32,5.64c3.94,0.62,7.92,1.11,11.9,1.27c2.53,0.11,5.02,0.52,7.54,0.59
		c5.95,0.17,11.76-1.03,17.63-1.75c3.79-0.46,7.57-1.02,11.37-1.36c5.99-0.54,11.92-0.52,17.84,0.97
		c8.24,2.07,14.72,9.88,14.17,18.09c-0.16,2.36-0.66,4.86,0.45,7.18c-5.5,9.58-13.34,16.74-22.83,22.22
		c-9.58,5.53-20.02,8.08-30.95,9c-12.94,1.09-25.91,1.69-38.64-1.33c-13.75-3.27-26.48-8.94-37.35-18.24
		C229.87,208.42,226.64,204.75,224.1,200.51z"/>
	<path class="st5" d="M84.96,118.95c5.56,4.06,10.84,7.71,15.9,11.66c11.29,8.81,22.07,18.2,31.88,28.67
		c5.9,6.3,11.34,12.98,16.63,19.79c6.63,8.53,13.16,17.14,18.93,26.28c9.53,15.08,17.92,30.76,24.46,47.4
		c0.48,1.22,0.37,2.24-0.33,3.2c-4.29,5.85-1.87,5.8-9.31,3.42c-11.38-3.64-21.26-9.97-30.37-17.57
		c-10.81-9.02-19.23-20.13-27.33-31.51c-6.7-9.4-12.45-19.38-17.57-29.7c-6.01-12.12-10.94-24.72-15.56-37.44
		c-2.71-7.46-5.02-15.04-7.19-22.67C85.02,120.16,85.04,119.82,84.96,118.95z"/>
	<path class="st1" d="M127.52,117.97c7.72,6.04,14.8,12.82,21.94,19.51c22.09,20.69,41.67,43.4,56.49,69.96
		c2.9,5.19,5.6,10.47,7.38,16.19c0.46,1.46,0.45,2.54-0.55,3.84c-5.82,7.56-11.55,15.18-16.88,23.08c-0.35,0.52-0.51,1.47-1.45,1.21
		c-0.67-0.19-0.57-0.95-0.81-1.47c-3.94-8.71-7.67-17.49-12.32-25.88c-4.66-8.4-9.38-16.72-14.77-24.67
		c-5.61-8.27-11.59-16.26-17.82-24.08c-5.15-6.48-10.68-12.62-16.07-18.89c-5.24-6.1-11.72-10.79-17.25-16.52
		c-0.45-0.46-1.35-0.39-1.6-1.18c-0.29-0.63,0.17-0.98,0.54-1.32c5.43-5.08,9.59-11,12.08-18.05
		C126.66,119.06,126.88,118.37,127.52,117.97z"/>
	<path class="st2" d="M127.52,117.97c-2.25,8.54-7.23,15.31-13.72,21.1c-7.51-6.28-15.2-12.33-23.18-18.02
		c-7.27-5.19-14.66-10.23-21.23-16.34c-0.59-0.55-1.7-1.3-2.2-0.76c-0.9,0.97,0.29,1.7,0.98,2.26c4.18,3.37,8.37,6.73,12.64,9.99
		c0.81,0.62,1.29,1.17,1.59,2.17c3.53,12.02,7.21,23.99,11.93,35.61c0.09,0.23,0.03,0.52,0.05,0.78c-0.46,1.61-1.94,2.19-3.17,2.88
		c-4.23,2.38-8.56,4.51-13.59,4.49c-7.44-14.34-14.45-28.89-20.19-44c-6.47-17.05-13.73-33.83-17.91-51.67
		c-0.54-2.28-1.07-4.56-1.75-7.45c5.11,3.51,10,6.28,14.92,8.97c19.27,10.53,38.15,21.67,55.77,34.83
		C114.96,107.67,121.45,112.56,127.52,117.97z"/>
	<path class="st4" d="M53.04,569.27c0.61-0.11,0.77-0.52,0.91-1.09c1.36-5.45,7.21-10.31,15.09-9.57
		c7.62,0.72,14.36,3.62,21.03,6.76c15.27,7.19,29.78,15.76,43.76,25.21c9.75,6.59,18.86,14.01,27.91,21.54
		c7.55,6.29,14.4,13.28,21.15,20.35c5.9,6.18,10.99,13.08,14.48,20.99c1.03,2.32,1.77,4.74,1.5,7.35c-4.73-1.75-9.03-4.3-12.73-7.65
		c-29.98-27.13-65.26-45.47-101.88-61.6c-4.79-2.11-10-3.12-14.55-5.88C62.84,581.52,57.46,575.89,53.04,569.27z"/>
	<path class="st2" d="M610.2,116.97c-1.45,0.16-2.24-0.89-2.96-1.81c-3.67-4.61-7.25-9.28-9.67-14.71c-0.27-0.62-0.34-1.32-0.5-1.99
		c13.92-7.5,27.84-15.01,41.76-22.51c13.58-7.32,26.62-15.47,38.82-24.93c1.35-1.05,2.63-2.26,4.54-2.72
		c-1.21,7.58-3.59,14.68-6.13,21.75c-9.34,25.95-21.7,50.38-36.63,73.54c-0.19,0.29-0.44,0.53-0.66,0.8
		c-3.06-1.11-5.54-3.19-8.27-4.86c-0.95-0.58-1.72-1.49-2.93-1.6c-0.67-1.55,0.59-2.45,1.28-3.46
		c8.44-12.51,15.65-25.67,21.24-39.69c0.49-1.22,0.96-2.44,1.26-3.72c0.08-0.34,0.09-0.7-0.19-0.98c-0.49-0.12-0.85,0.15-1.15,0.46
		c-9.38,9.67-20.98,16.21-32.39,23.02c-1.58,0.94-3.2,1.8-4.78,2.74C612.06,116.78,611.26,117.49,610.2,116.97z"/>
	<path class="st1" d="M77.61,162.13c5.96-1.62,11.85-3.37,16.77-7.37c2.38,5.54,4.72,11.1,7.15,16.62
		c7.42,16.89,16.52,32.81,27.73,47.48c5.77,7.55,11.68,15.02,18.79,21.4c11.59,10.4,24.46,18.59,39.82,22.54
		c-3.23,5.75-6.46,11.44-9.63,17.16c-0.7,1.25-1.45,0.52-2.17,0.19c-4.94-2.26-9.6-5.03-14.11-8.05
		c-19.76-13.27-35.6-30.44-49.06-49.86c-13.07-18.85-24.41-38.76-34.9-59.15C77.84,162.79,77.74,162.46,77.61,162.13z"/>
	<path class="st1" d="M136.22,383.75c-6.12-9.8-10.93-19.98-15.26-30.4c-4.44-10.69-7.83-21.7-9.48-33.19
		c-0.54-3.74-0.57-7.51,0.16-11.23c1.17-5.94,5.92-9.29,11.9-8.43c4.64,0.66,9.02,2.06,13.02,4.56c6.7,4.19,12.95,8.94,18.72,14.35
		c1.97,1.84,2.44,3.36,1.24,6.07c-8.1,18.34-14.73,37.21-19.66,56.65C136.75,382.61,136.5,383.05,136.22,383.75z"/>
	<path class="st4" d="M526.33,414.26c-1.22-1.39-2.54-0.21-3.54,0.16c-3.88,1.44-5.71-0.67-6.48-4.24
		c-1.16-5.41,0.46-10.59,2.68-15.38c4.11-8.91,10.01-16.69,16.42-24.1c4.94-5.73,9.62-11.69,14.79-17.21
		c4.57-4.88,8.82-10.21,14.86-13.47c3.67-1.98,5.92-0.55,6.99,3.52c0.68,2.58-0.28,5.24,0.86,7.7c-1.83,4.55-4.22,8.82-6.79,12.97
		c-8.88,14.31-18.77,27.83-30.88,39.64c-2.63,2.57-5.09,5.29-7.59,7.99C527.03,412.51,526.12,413.11,526.33,414.26z"/>
	<path class="st5" d="M610.2,116.97c12.4-7,24.86-13.92,35.7-23.31c1.45-1.25,2.75-2.69,4.12-4.03c0.5-0.49,1-1.08,1.8-0.68
		c0.98,0.49,0.67,1.34,0.4,2.06c-0.73,1.96-1.5,3.91-2.29,5.85c-5.72,14.06-13.2,27.16-21.68,39.71c-0.29,0.42-0.46,0.91-0.69,1.37
		c-7.08,9.98-14.38,19.79-22.37,29.09c-13.73,15.99-28.43,30.95-46.1,42.64c-20.91,13.83-43.4,24.01-68.26,28.39
		c-0.52,0.09-1.04,0.23-1.55,0.22c-0.76-0.01-1.69,0.14-2.02-0.8c-0.28-0.8,0.43-1.26,0.92-1.74c2.45-2.37,5.02-4.62,7.09-7.37
		c0.41-0.55,0.81-1.11,1.69-2.31c-4.13,0-7.73,0.03-11.34-0.02c-1.01-0.01-2.33,0.39-2.88-0.7c-0.57-1.12,0.61-1.88,1.23-2.68
		c1.27-1.65,2.6-3.24,4.19-5.21c-2.97,0.11-5.38,0.55-7.75,1.34c-0.76,0.25-1.65,1.11-2.4,0.21c-0.79-0.95,0.11-1.82,0.57-2.6
		c6.47-10.96,13.98-21.1,22.71-30.42c20.56-21.93,44.98-38.13,72.4-50.13C586.25,130.35,598.45,124.09,610.2,116.97z"/>
	<path class="st6" d="M391.05,226.7c28.35-0.14,51.46,22.83,51.59,51.26c0.12,28.21-22.92,51.14-51.56,51.29
		c-28.17,0.15-51.52-22.86-51.5-50.74C339.61,249.49,362.11,226.84,391.05,226.7z"/>
	<path class="st6" d="M265.22,269.31c-1.01,19.86-8.22,36.81-23.74,49.75c-4.97,4.15-10.67,7.1-17.14,8.02
		c-12.3,1.75-22.22-3.7-27.49-15.01c-4.77-10.25-5.01-20.96-2.65-31.82c3.32-15.26,10.45-28.31,22.9-38.07
		c6.57-5.15,14.01-8.46,22.52-7.9c10.56,0.7,17.52,6.73,21.81,16.09C264.18,256.36,265.22,262.71,265.22,269.31z"/>
	<path class="st6" d="M287.41,340.73c12.75,0.01,22.63,0.18,32.43,1.66c4.3,0.64,5.15,2.19,2.53,5.38
		c-13.74,16.71-33.42,25.15-53.52,21.62c-11.48-2.01-18.76-9.83-24.07-19.71c-0.67-1.23-0.99-2.73-2.95-1.71
		c-0.52,0.27-1.13-0.1-1.22-0.66c-0.11-0.73,0.55-1.04,1.14-1.21c2.6-0.75,5.18-1.6,7.82-2.18
		C262.99,340.98,276.65,341.05,287.41,340.73z"/>
	<path class="st7" d="M440.7,277.96c0.18,27.21-21.98,49.31-49.63,49.51c-27.14,0.2-49.45-21.9-49.7-49.22
		c-0.25-27.34,21.96-49.6,49.67-49.77C418.32,228.31,440.52,250.43,440.7,277.96z"/>
	<path class="st7" d="M263.36,271.2c-1.06,17.79-8.22,34.56-23.92,47.09c-4.85,3.87-10.4,6.5-16.64,7.16
		c-11.17,1.16-20.31-4.51-24.81-15.34c-4.15-9.99-4.14-20.25-1.71-30.62c3.18-13.56,9.51-25.29,20.2-34.43
		c5.34-4.57,11.38-7.87,18.45-8.75c10.95-1.36,20.2,4.25,24.88,14.83C262.35,256.92,263.28,263.01,263.36,271.2z"/>
	<path class="st8" d="M290.64,342.44c9.6,0.46,19.24,0.14,28.76,1.8c2.8,0.49,3.01,0.83,1.17,2.91
		c-9.33,10.59-20.44,18.26-34.72,20.39c-7.22,1.08-14.43,1.37-21.47-1.31c-4.53-1.72-8.15-4.67-11.49-8.06
		c-0.86-0.87-0.93-1.76-0.73-2.86c0.56-2.98,1.83-5.63,3.61-8.06c1.57-2.14,3.46-3.24,6.33-3.47
		C271.59,343.02,281.11,342.75,290.64,342.44z"/>
	<path class="st9" d="M254.93,344.99c-2.08,3.16-3.63,6.22-4.7,9.62c-1.86-1.81-2.88-4.01-4.07-6.11c-0.71-1.24-0.43-1.81,1.05-2.08
		C249.7,345.98,252.07,344.86,254.93,344.99z"/>
	<path class="st10" d="M390.55,313.94c-20,0.06-36.29-16.15-36.48-36.32c-0.19-20.45,16.12-36.85,36.67-36.87
		c19.87-0.01,36.06,16.43,36.11,36.67C426.9,297.41,410.53,313.87,390.55,313.94z"/>
	<path class="st10" d="M204.92,288.02c0.9-11.64,4.64-22.17,12.25-31.18c3.14-3.72,6.83-6.77,11.39-8.63
		c8.46-3.43,16.44-0.54,20.61,7.58c3.54,6.89,3.95,14.25,2.85,21.75c-1.63,11.11-6.01,20.95-13.94,29.05
		c-2.72,2.78-5.84,5-9.49,6.43c-8.31,3.24-16.03,0.4-20.24-7.45C205.77,300.75,204.43,293.86,204.92,288.02z"/>
	<path class="st11" d="M368.67,250.41c9.66-7.76,20.43-9.63,32.36-5.99c-4.52,1.26-8.34,3.45-10.6,7.65
		c-2.3,4.29-2.44,8.7-0.26,13.09c3.15,6.36,10.37,9.37,17.06,7.16c7.03-2.32,10.7-9.07,9.34-17.18c9.85,9.61,12.62,31.23-0.7,45.62
		c-15.68,4.19-32.7-0.56-41.99-14.28c-5.97-8.81-8.01-18.49-7.49-28.88C366.52,255.03,367.44,252.66,368.67,250.41z"/>
	<path class="st12" d="M368.67,250.41c0.11,0.22,0.35,0.48,0.3,0.65c-4.91,15.74-0.52,29.22,10.47,40.74
		c6.08,6.37,14.03,9.32,22.83,9.51c4.24,0.09,8.57,0.74,12.71-0.91c0.22-0.09,0.6,0.23,0.9,0.35c-13.57,15.11-36.78,15.1-50.96-0.04
		C351.61,286.54,353.4,262.61,368.67,250.41z"/>
	<path class="st7" d="M390.61,258.82c0.01-6.95,5.34-12.21,12.33-12.17c6.72,0.04,12.11,5.45,12.15,12.18
		c0.03,6.8-5.5,12.38-12.28,12.38C395.99,271.21,390.6,265.73,390.61,258.82z"/>
	<path class="st11" d="M216.79,260.36c2.74-4,6.22-7.16,10.63-9.36c-4.15,5.67-5.02,11.5-0.8,17.36c3,4.16,8.19,5.7,12.84,4.29
		c5.63-1.71,8.46-5.92,9.16-13.29c3.79,12.09,1.84,23.57-3.84,34.66c-1.86,1.95-4.2,2.79-6.83,2.81c-2.27,0.02-4.55,0.21-6.81-0.21
		c-6.92-1.26-11.13-5.74-13.38-12.02C214.94,276.69,214.71,268.54,216.79,260.36z"/>
	<path class="st12" d="M216.79,260.36c0.74,1.78-0.13,3.49-0.27,5.23c-0.66,8.18-0.37,16.19,4.31,23.35
		c3.06,4.69,7.45,7.03,13.12,7.24c3.84,0.14,7.44-0.38,10.84-2.16c-3.49,7.05-8.24,12.97-15.37,16.61
		c-8.02,4.1-15.82,1.47-19.77-6.59c-3.19-6.52-3.48-13.44-2.39-20.46C208.59,275.08,211.51,267.23,216.79,260.36z"/>
	<path class="st7" d="M225.78,260.38c0.03-5.91,4.66-10.78,10.28-10.8c5.73-0.02,10.51,4.99,10.45,10.94
		c-0.06,5.89-4.72,10.77-10.32,10.8C230.45,271.35,225.75,266.41,225.78,260.38z"/>
</g>
</svg>
