<?xml version="1.0" encoding="utf-8"?>
<!-- Generator: Adobe Illustrator 24.3.0, SVG Export Plug-In . SVG Version: 6.00 Build 0)  -->
<svg version="1.1" id="Layer_1" xmlns="http://www.w3.org/2000/svg" xmlns:xlink="http://www.w3.org/1999/xlink" x="0px" y="0px"
	 viewBox="0 0 720 720" style="enable-background:new 0 0 720 720;" xml:space="preserve">
<style type="text/css">
	.st0{fill-rule:evenodd;clip-rule:evenodd;fill:#261F20;}
	.st1{fill-rule:evenodd;clip-rule:evenodd;fill:#B37FB8;}
	.st2{fill-rule:evenodd;clip-rule:evenodd;fill:#38A0D2;}
	.st3{fill-rule:evenodd;clip-rule:evenodd;fill:#8B5191;}
	.st4{fill-rule:evenodd;clip-rule:evenodd;fill:#0273AA;}
	.st5{fill-rule:evenodd;clip-rule:evenodd;fill:#0575AB;}
	.st6{fill-rule:evenodd;clip-rule:evenodd;fill:#201614;}
	.st7{fill-rule:evenodd;clip-rule:evenodd;fill:#271E20;}
	.st8{fill-rule:evenodd;clip-rule:evenodd;fill:#261D1F;}
	.st9{fill-rule:evenodd;clip-rule:evenodd;fill:#363A3C;}
	.st10{fill-rule:evenodd;clip-rule:evenodd;fill:#FBFCFC;}
	.st11{fill-rule:evenodd;clip-rule:evenodd;fill:#F9F9FA;}
	.st12{fill-rule:evenodd;clip-rule:evenodd;fill:#634894;}
	.st13{fill-rule:evenodd;clip-rule:evenodd;fill:#563D5E;}
</style>
<g id="_x38_apbPY_1_">
	<g>
		<path class="st0" d="M683.93,378.85c-0.39,63.89-9.18,115.73-27.31,165.94c-1.67,4.62-3.76,9.09-5.73,13.61
			c-0.57,1.31-1.28,2.6-2.13,3.75c-1.46,2.01-3.39,4.02-5.99,2.81c-2.5-1.16-1.61-3.88-0.93-5.8c0.94-2.68,0.58-5.14-0.06-7.73
			c-4.06-16.51-11.5-31.12-22.87-43.95c-15.25-17.22-34.5-22.53-56.53-20.6c-2.51,0.22-4.98,0.79-7.47,1.15
			c-3.65,0.52-7.02,1.47-8.97,5.06c-0.38,0.69-1.18,1.19-1.84,1.7c-0.68,0.52-1.49,0.92-2.33,0.46c-0.93-0.51-0.86-1.56-0.49-2.24
			c1.85-3.36,0.19-6.3-1.04-9.23c-11.41-27.22-27.91-51.11-49.42-71.09c-19.52-18.13-43.47-25.87-70.15-24.91
			c-1.47,0.05-2.42,0.56-3.34,1.66c-4.33,5.21-9.32,9.71-15.13,13.21c-1.54,0.93-2.34,2.31-3.16,3.8
			c-6.52,11.92-8.75,25.15-11.3,38.2c-8.1,41.51-14.42,83.31-19.57,125.29c-3.44,28.02-6.78,56.04-10.15,84.06
			c-0.28,2.32-0.97,4.45-2.67,6.16c-1.24,1.26-2.61,2.25-4.46,1.56c-1.93-0.72-2.17-2.41-2.04-4.18c0.53-6.82,0.9-13.67,1.67-20.47
			c5.99-52.87,12.27-105.7,17.99-158.6c2.07-19.12,2.54-38.37-1.06-57.46c-0.18-0.94-0.42-1.87-0.62-2.81
			c-0.89-4.19-2.8-6.75-7.62-7.64c-10.17-1.88-20.16-4.69-28.5-11.34c-1.64-1.3-2.35,0.01-3.28,0.83
			c-8.6,7.58-16.06,16.19-22.97,25.31c-17.59,23.2-32.72,48.05-48.32,72.57c-18.77,29.49-37.65,58.91-56.67,88.23
			c-1.9,2.93-3.95,5.74-6.63,8.03c-1.03,0.88-2.18,1.69-3.58,1.12c-1.63-0.66-1.62-2.28-1.65-3.7c-0.04-2.26,1.11-4.17,2.21-6.01
			c8.67-14.41,17.39-28.79,26.09-43.18c26.36-43.59,51.74-87.74,76.6-132.19c6.34-11.33,11.5-23.24,15.63-35.58
			c0.83-2.49,0.89-4.73,0.06-7.31c-2.71-8.43-3.95-17.1-2.53-25.94c0.35-2.19-0.28-3.6-1.71-5.1
			c-17.91-18.87-39.62-31.42-64.53-38.4c-22.48-6.3-45.15-5.32-67.78-0.65c-4.08,0.84-8.25,1.71-10.88,5.61
			c-0.62,0.92-1.72,1.89-3.08,1.26c-1.21-0.56-0.86-1.82-0.98-2.87c-0.11-0.93-0.21-1.96-0.64-2.75
			c-9.54-17.44-22.86-31.45-42.49-35.87c-20.66-4.66-41.41-2.7-60.14,8.92c-4.38,2.72-8.6,5.75-11.13,10.52
			c-0.38,0.71-1.02,1.37-1.7,1.8c-1.1,0.7-2.39,1.56-3.68,0.86c-1.61-0.87-0.61-2.35-0.35-3.55c2.75-12.58,8.31-24.03,14.39-35.24
			c38.15-70.33,93.36-123.14,165.13-158.09c34.9-16.99,72.17-26.91,111.11-29.69c0.72-0.05,1.44-0.1,2.16-0.1
			c1.57,0.01,3.28-0.07,4.21,1.47c1.06,1.77-0.42,3.01-1.42,4.07c-25.87,27.13-32.24,60.87-32.33,96.54
			c-0.09,33.64,5.47,66.24,19.39,97.14c2.93,6.49,6.15,12.75,10.65,18.32c1.62,2.01,2.64,2.66,4.18-0.29
			c4.58-8.8,8.3-17.84,9.7-27.74c0.38-2.67-0.23-4.76-1.97-6.92c-10.64-13.25-18.59-28.02-20.51-45.01
			c-2.15-19.09-0.35-38.11,8.2-55.62c6.61-13.55,12.31-13.78,23.64-6.61c8.52,5.39,15.32,12.71,21.28,20.8
			c11.2,15.18,19.65,31.61,22.48,50.5c0.35,2.32,1.29,2.74,3.45,2.96c19.06,1.94,36.19,8.37,49.88,22.29
			c1.73,1.76,2.76,0.58,4.01-0.09c11.72-6.3,23.93-11.21,37.17-13.16c15.04-2.21,30.13-3.04,45.22-0.51
			c5.61,0.94,10.92,2.78,15.71,5.99c2.22,1.49,3.14,3.24,2.83,6.04c-1.05,9.25-3.84,17.9-9.11,25.54
			c-21.13,30.65-50.05,45.33-87.5,42.09c-2.2-0.19-3.58,0.27-4.72,2.2c-1.41,2.37-2.9,4.75-4.72,6.8c-5.83,6.55-5.98,15-7.88,22.85
			c-0.6,2.48,1.5,1.67,2.53,1.62c8.51-0.45,17.04-0.77,25.53-1.57c37.93-3.57,70.41-19.86,99.49-43.54
			c21.16-17.24,37.82-38.18,49.16-63.13c3.24-7.12,5.7-14.53,7.44-22.17c0.46-2,0.78-4.24,3.19-4.77c2.57-0.56,4.72,0.55,6.36,2.53
			c3.77,4.55,6.85,9.57,9.51,14.83c11.41,22.52,19.15,46.37,25.55,70.69C679.16,317.31,684.68,352.95,683.93,378.85z"/>
		<path class="st1" d="M265.13,160.06c-8.45,7.28-16.95,14.5-25.34,21.85c-19.32,16.96-35.31,36.91-50.97,57.15
			c-13.12,16.95-23.29,35.48-30.55,55.63c-0.16,0.44-0.41,0.84-0.7,1.43c-1.58-0.66-1.84-2.21-2.56-3.31
			c-9.52-14.59-21.84-25.85-38.53-31.55c-11.19-3.82-22.78-2.43-34.27-1.42c-12.36,1.09-23.55,5.31-33.65,12.76
			c-0.53-1.77,0.53-2.79,1.09-3.87c13.71-26.58,30.68-50.99,49.86-73.87c14.68-17.52,30.36-34.05,48.87-47.66
			c1.83-1.35,3.8-2.51,5.7-3.76c11.5-6.86,24.03-11.39,36.54-15.91c17.61-6.36,35.4-12.14,54.14-14.28c4.78-0.54,9.54-0.7,14.3,0.42
			c3.36,0.79,5.32,2.71,6.55,5.94c3.61,9.47,4.34,19.12,2.31,28.99C267.12,152.46,267.33,156.56,265.13,160.06z"/>
		<path class="st1" d="M671.02,418.89c-1.48,45.7-9.24,90.14-27.18,133.09c-0.65-2.31-1.2-4.28-1.75-6.25
			c-5.08-18.17-14.59-33.68-28.71-46.14c-16.9-14.91-36.97-16.92-58.22-13.45c-1.17,0.19-2.3,0.7-3.49,0.37
			c-0.6-0.81,0.03-1.39,0.36-1.95c16.45-28.23,25.37-58.95,30.26-91.03c3.02-19.82,5.03-39.75,6.61-59.73
			c2.04-6.93,6.43-12.57,10.54-18.27c4.61-6.41,9.63-12.57,16.06-17.36c1.83-1.37,3.7-2.65,5.76-3.66
			c6.53-3.22,11.97-2.08,16.67,3.49c5.48,6.49,9.32,13.92,12.46,21.75c7.72,19.25,12.37,39.31,15.73,59.71
			c1.54,9.35,3.52,18.62,4.52,28.05C671.03,411.26,671.78,415.06,671.02,418.89z"/>
		<path class="st2" d="M310.45,326.62c2.74-12.06,7.31-23.32,14.37-33.55c8.06-11.69,15.63-23.67,19.14-37.69
			c0.09-0.35,0.17-0.7,0.29-1.04c2.26-6.85,1.02-12.35-3.65-18.45c-11.7-15.27-19.08-32.54-18.29-52.31
			c0.54-13.46,1.8-26.84,7.1-39.48c1.78-4.25,3.91-8.21,7.4-11.37c2.06-1.86,4.17-2.48,6.91-1.74c6.87,1.86,12.31,6.09,17.18,10.87
			c17.55,17.27,29.65,37.66,33.93,62.17c0.68,3.89,2.03,5.2,6.04,5.54c15.92,1.36,30.34,6.9,42.98,16.8
			c1.69,1.33,3.44,2.72,4.69,4.43c1.87,2.55,3.63,2.35,6.1,0.94c25.02-14.26,52.02-17.42,80.13-14.01
			c5.51,0.67,10.74,2.42,15.58,5.31c2.5,1.49,3.21,3.24,2.84,6.2c-1.89,15.06-9.62,26.98-19.84,37.53
			c-20.48,21.13-45.56,29.97-74.73,27.28c-3.05-0.28-4.51,0.89-6.5,3.02c-10.33,11.1-11.83,25.41-14.69,39.19
			c-2.37,11.44-5.28,22.68-10.21,33.32c-0.7,1.52-1.52,2.99-2.28,4.49c-3.35,3.42-7.81,4.62-12.19,5.8
			c-15.84,4.3-31.97,5.9-48.02,2.01c-16.15-3.91-29.62-12.66-40.57-25.3c-4.67-5.4-8.57-11.2-11.81-17.55
			C310.29,334.99,309.44,331.01,310.45,326.62z"/>
		<path class="st2" d="M619.78,254.59c-5.69,6.82-11.6,13.45-16.9,20.6c-5.09,6.87-9.76,13.97-13.79,21.52
			c-0.88,1.65-1.29,3.27-1.26,5.13c0.42,27.57-2.36,54.91-6.04,82.18c-2.72,20.14-6.6,40.03-13.1,59.35
			c-4.73,14.06-11.01,27.41-18.27,40.31c-1.82,3.23-3.95,6.27-6.66,8.97c-0.56-1.22,0.2-2.01,0.59-2.82
			c19.06-39.42,29.48-81.12,32.72-124.68c1.49-20.06-0.86-39.8-5.46-59.32c-0.6-2.56-1.49-2.85-3.64-1.37
			c-28.71,19.71-61.03,29.34-95.17,33.64c-10.13,1.28-20.33,1.88-30.55,0.91c-1.15-0.11-3.66,0.79-3.11-1.54
			c0.54-2.28-0.75-6.17,3.54-6.34c5.88-0.24,11.75-0.52,17.63-0.79c42.46-2,78.62-19.24,110.85-45.81
			c18.28-15.07,32.94-33.21,44.21-54.07c5.17-9.57,8.76-19.74,11.51-30.23c0.41-1.55,0.15-3.67,2.17-4.2
			c2.31-0.6,3.85,0.98,5.13,2.63c7.04,9.13,11.88,19.47,16.17,30.06c15.29,37.73,25.66,76.83,29.65,117.31
			c3.72,37.76,2.78,75.52-3.56,113.1c-4.76,28.25-10.79,56.11-20.72,83.04c-2.08,5.64-4.28,11.22-7.02,16.58
			c-0.28,0.53-0.49,1.12-0.87,1.57c-1.11,1.3-2.05,3.74-4.02,2.74c-1.75-0.9-0.48-3.13,0.02-4.59c3.91-11.48,7.93-22.93,11.95-34.37
			c7.86-22.35,11.5-45.58,14.41-68.97c2.2-17.78,3.2-35.66,3.33-53.55c0.28-36.91-3.39-73.38-14.08-108.9
			c-2.22-7.37-5.3-14.41-7.96-21.62c-1.41-6.51-1.63-13.27-4.23-19.53c-2.07-4.99-4.19-9.93-8.3-13.67
			c-3.46-3.15-7.54-2.62-10.42,1.13C624.85,243.78,622.45,249.25,619.78,254.59z"/>
		<path class="st2" d="M259.28,87.97c-3.52,1.15-7.04,2.31-10.57,3.44c-30.15,9.74-58.4,23.22-84.11,41.93
			c-12.63,9.19-25.51,18-36.89,28.79c-19.42,18.41-36.52,38.79-51.97,60.62c-12.59,17.78-23.67,36.45-33.5,55.87
			c-1.32,2.6-1.46,2.53-3.74,4.02c-0.23-2.94,0.84-5.44,1.63-7.94c4.28-13.61,11.08-26.06,18.22-38.31
			c37.39-64.16,89.59-112.74,155.9-145.73c34.33-17.08,71.1-26.9,109.38-30.58c1.19-0.12,2.41-0.23,3.6-0.16
			c1.48,0.09,3.54-0.9,4.27,0.71c0.61,1.32-1.17,2.5-2.12,3.46c-18.42,18.74-26.38,42.3-29.51,67.45
			c-5.52,44.25,0.08,87.17,18.39,128.13c3,6.73,6.56,13.11,11.58,18.56c0.94,1.02,1.39,1.94,0.46,3.14
			c-1.23,1.58-1.67,3.89-3.67,4.69c-0.79,0.32-1.48-1.04-2.07-1.78c-8.79-10.83-15.08-23.08-20.47-35.85
			c-8.77-20.77-12.87-42.69-15.91-64.87c-0.47-3.45-0.92-6.9-1.53-10.33c-0.68-3.8-2.02-4.63-5.8-3.67c-4,1.01-7.6,2.93-11.15,4.98
			c-35.94,20.78-64.14,49.34-85.63,84.74c-7.36,12.12-14.65,24.26-20.76,37.07c-1.02,2.15-2.2,4.2-4.66,5.52
			c-0.34-2.66,0.67-4.73,1.41-6.84c8.18-23.01,20.99-43.27,35.94-62.47c21.53-27.66,45.83-52.38,73.88-73.41
			c0.67-0.5,1.3-1.17,2.06-1.44c6.77-2.44,8.22-7.95,9.06-14.33c1.75-13.24,5.94-25.95,9.31-38.83c0.89-2.18,1.99-4.26,3.16-6.31
			c2.24-3.95,4.07-8.05,3.9-12.75c-0.04-0.96,0.18-1.89,0.96-2.58c0.49-0.59,1.84-0.66,1.5-1.66c-0.33-0.99-1.45-0.18-2.17-0.39
			c-11.61-2.09-22.26,1.77-32.95,5.32C262.9,86.78,261.03,87.18,259.28,87.97z"/>
		<path class="st1" d="M549.17,473.66c-1.28,4.38-3.32,8.44-5.17,12.54c-1.35-0.09-1.24-1.12-1.53-1.81
			c-11.54-28.06-28.53-52.54-50.56-73.18c-16.4-15.37-36.55-23.51-59.18-24.94c-3.35-0.21-6.71-0.31-10.06-0.38
			c-1.75-0.04-2.19-0.57-1.15-2.1c3.45-5.08,5.98-10.66,8.68-16.14c0.72-1.33,1.97-1.63,3.34-1.75c28.58-2.59,56.87-7.18,85-12.79
			c12.46-2.49,24.35,3.73,29.25,16.93c2.95,7.95,4.47,16.15,5.29,24.54c1.62,16.55,0.25,33.04-0.6,49.55
			c-0.36,6.95-0.94,13.87-1.47,20.79C550.78,467.96,549.63,470.72,549.17,473.66z"/>
		<path class="st1" d="M311.27,316.47c-1.66,6.34-3.32,12.69-5.01,19.14c-39.7-39.18-86.45-52.07-141.12-38.8
			c4.36-9.04,8.77-17.67,14.2-25.75c8.16-10.59,18.81-18.47,29.11-26.72c9.02-7.23,18.69-13.49,29.11-18.57
			c6.43-3.14,13.2-4.24,20.29-3.89c2.31,0.11,4.09,1.19,5.71,2.72c3.58,3.36,5.82,7.63,7.98,11.91
			c8.13,16.07,16.04,32.26,23.37,48.72c3.97,8.91,9.1,17.2,14.99,24.98C311.38,312.15,312.19,314.07,311.27,316.47z"/>
		<path class="st3" d="M549.17,473.66c0.63-7.13,1.22-14.26,1.91-21.38c0.41-4.17,0.61-8.37,0.75-12.52
			c0.42-12.69,1.62-25.4,0.8-38.09c-0.77-11.8-2.14-23.52-7.25-34.51c-4.21-9.05-14.74-15.47-26.81-13.04
			c-18.95,3.81-37.96,7.34-57.13,9.82c-9.47,1.22-18.99,2-28.48,3.02c-0.93,0.1-1.84,0.46-2.75,0.7c2.95-7.98,6.13-15.89,7.48-24.36
			c0.35-2.23,1.67-2.44,3.58-2.39c9.12,0.24,18.22,0.31,27.34-0.52c25.07-2.28,49.05-8.68,72.12-18.64
			c9.16-3.96,18.05-8.45,26.18-14.28c2.11-1.51,3.01-1.32,3.54,1.29c2.01,9.87,3.8,19.77,4.64,29.82
			c2.25,26.74-2.55,52.78-7.55,78.83C563.8,436.95,557.17,455.52,549.17,473.66z"/>
		<path class="st3" d="M311.27,316.47c0.19-2-0.49-3.55-1.75-5.21c-8.1-10.64-13.94-22.52-19.51-34.65
			c-7.09-15.46-14.24-30.94-22.7-45.74c-4.4-7.7-8.89-9.4-17.69-7.92c-8.38,1.41-15.57,5.35-22.66,9.62
			c-12.14,7.32-23.01,16.3-33.74,25.52c-4.83,4.14-8.94,9.01-13.9,12.99c5.3-10.11,11.86-19.44,18.37-28.76
			c19.22-27.52,43.93-49.04,72.71-66.06c3.2-1.89,6.58-3.43,10.09-4.73c3.44-1.28,4.24,0.48,4.65,3.24
			c1.22,8.3,2.44,16.59,3.72,24.88c4.31,28.08,13.18,54.5,28.76,78.46c1.97,3.02,4.05,5.97,6.59,8.53c1.06,1.07,1.59,2.03,0.55,3.4
			C318.68,298.01,314.57,307.03,311.27,316.47z"/>
		<path class="st4" d="M310.45,326.62c-0.55,8.94,4.28,15.9,9.04,22.57c11.84,16.57,27.61,27.77,47.65,32.33
			c8.83,2.01,17.82,1.55,26.8,0.79c8.4-0.71,16.55-2.34,24.43-5.32c2.23-0.85,4.38-1.93,6.57-2.9
			c-7.66,16.58-20.71,27.46-37.35,34.62c3.55,0.49,5.95-1.9,9.52-2.43c-6.7,12.48-8.2,26.14-11.63,39.25
			c-4.69,0.73-9.25,0.09-13.71-1.42c-0.77-8.57-1-17.2-2.9-25.67c-0.44-1.97-2.78-4.15-1.17-5.69c0.86-0.82,3.77,0.56,5.77,0.87
			c0.75,0.12,1.65,0.51,2.37-0.72c-2.95-1.75-6.28-2.01-9.47-2.6c-8.5-1.57-16.87-3.49-24.89-6.83c-4.26-1.78-8.07-4.15-11.53-7.18
			c-1.11-0.97-2.04-2.3-4.49-2.66c3.34,3.5,0.73,5.09-1.28,6.92c-6.83,6.23-12.88,13.18-18.67,20.36c-4.96-2.5-8.92-5.9-10.28-11.59
			c5.45-11.32,10.9-22.64,14.89-34.92c2.07,2.27,2.05,5.52,4.85,7.16c-3.26-8.83-6.65-17.59-7.74-26.99
			C306.13,344.97,308.18,335.79,310.45,326.62z"/>
		<path class="st3" d="M671.02,418.89c-1.61-17.73-5.13-35.15-8.35-52.62c-2.95-16.02-7.35-31.64-13.4-46.78
			c-3.13-7.82-7.13-15.14-12.56-21.63c-3.44-4.12-8.98-5.37-13.93-3.08c-8.2,3.79-13.87,10.46-19.48,17.18
			c-5.62,6.73-9.77,14.44-14.39,21.83c0.71-10.89,0.89-21.8,0.66-32.71c-0.03-1.54,0.71-2.77,1.39-4.02
			c9.59-17.5,21.85-32.95,36.23-46.72c4.94-4.72,5.99-4.5,10.26,0.81c9.66,12.01,15.09,26.13,19.69,40.54
			c7.61,23.86,11.37,48.43,13.31,73.37c1.34,17.14,1.26,34.26,1.05,51.41C671.49,417.3,671.59,418.16,671.02,418.89z"/>
		<path class="st3" d="M265.13,160.06c0.77-5.31,1.35-10.66,2.34-15.93c1.7-9.08-0.2-17.65-3.55-25.95c-1.69-4.2-6.05-3.92-9.61-4.2
			c-8.81-0.68-17.4,1.22-25.89,3.2c-23.87,5.57-46.79,13.93-68.98,24.3c-1.73,0.81-3.43,1.7-5.36,1.96
			c9.37-7.48,19.14-14.47,29.4-20.6C211.36,106.19,241,93.69,272.9,87c5.15-1.08,10.42-1.53,15.62-2.42
			c2.91-0.49,2.61,1.43,2.39,3.05c-0.72,5.22-1.33,10.48-2.46,15.61c-3.46,15.67-8.64,30.95-10.46,46.98
			c-0.14,1.18-0.77,1.99-1.72,2.6C272.56,155.24,268.85,157.65,265.13,160.06z"/>
		<path class="st2" d="M295.24,409.29c2.4,4.78,6.26,8.26,10.28,11.59c-23.01,30.38-42.43,63.14-63.02,95.12
			c-15.2,23.62-30.46,47.2-45.67,70.81c-1.38,2.14-3.06,4-4.91,5.72c-0.53,0.49-1.11,1.05-1.89,0.65c-0.78-0.4-0.59-1.24-0.57-1.92
			c0.07-1.88,1.08-3.44,1.99-4.96c8.6-14.3,17.25-28.56,25.88-42.84c26.7-44.17,52.41-88.92,77.63-133.95
			C295.02,409.42,295.14,409.36,295.24,409.29z"/>
		<path class="st2" d="M371.77,444.09c4.62-0.02,9.2,0.32,13.71,1.42c-5.27,28.19-9.64,56.52-13.92,84.86
			c-3.6,23.84-6.21,47.82-9.15,71.75c-2.12,17.26-4.2,34.53-6.27,51.8c-0.22,1.84-0.66,3.54-2.03,4.87
			c-0.67,0.66-1.32,1.55-2.44,1.13c-1.15-0.43-1.03-1.54-0.97-2.48c0.34-5.51,0.52-11.04,1.14-16.52
			c4-35.28,8.11-70.55,12.14-105.83c2.3-20.14,4.64-40.28,6.72-60.44C371.77,464.51,371.64,454.29,371.77,444.09z"/>
		<path class="st4" d="M619.78,254.59c1.3-7.05,5.05-12.84,9.75-17.96c2.8-3.04,6.81-2.66,9.83,0.28
			c6.71,6.55,9.53,14.97,11.4,23.84c0.72,3.4,0.94,6.85,0.72,10.32c-4.64-12.48-14.23-21.74-21.4-32.55
			c-0.04,0.28-0.29,0.84-0.11,1.15c2.58,4.51-0.12,6.71-3.53,9C623.99,250.3,621.98,252.59,619.78,254.59z"/>
		<path class="st5" d="M259.28,87.97c11.59-5.14,23.16-10.38,36.39-7.89c0.69,0.13,1.33,0.52,1.99,0.78
			c-5.72,1.92-11.75,2.02-17.62,3.06C273.1,85.15,266.2,86.61,259.28,87.97z"/>
		<path class="st4" d="M298.34,82.91c0.72,8.47-3.03,15.29-8.02,21.64c0.69-6.26,2.16-12.4,2.4-18.74
			C292.85,82.37,296.39,83.78,298.34,82.91z"/>
		<path class="st6" d="M441.74,245.09c5.05,6.67,6.81,14.58,7.56,22.58c1.09,11.57,0.64,23.1-5.31,33.64
			c-3.05,5.4-6.72,10.32-12.34,13.28c-8.59,4.52-17.25,4.44-24.45-2.28c-11.97-11.17-25.83-16.22-42.1-16.67
			c-11.74-0.32-16.66-6.59-17.95-18.35c-4.3-38.97,30-56.39,56.55-53.49c13.7,1.49,25.55,7.04,35.07,17.18
			c0.71,0.8,0.24,1.23-0.5,1.57c-0.24,0.03-0.47,0-0.7-0.03c-1.46-0.2-2.2-2.5-3.6-1.83c-1.5,0.72-1.63,2.8-2.19,4.33
			c-1.22,3.31-2.4,6.65-2.98,10.82c4.49-3.03,8.41-5.8,11.32-9.8C440.52,245.49,440.85,244.81,441.74,245.09z"/>
		<path class="st7" d="M523.09,224.23c7.25,0.15,12.79,0.05,18.17,1.52c5.66,1.55,6.62,3.13,5.41,8.8
			c-2.33,10.97-8.66,19.7-15.98,27.75c-14.42,15.86-33.15,22.76-53.85,25.33c-5.01,0.62-10.03,0.83-15.09,0.17
			c-2.2-0.29-2.85-1.05-2.33-3.29c2.87-12.49,2.26-25.04,0.1-37.54c-0.42-2.44,0.24-3.72,2.14-5.06
			c14.97-10.51,31.86-15.36,49.85-16.98C515.94,224.53,520.37,224.08,523.09,224.23z"/>
		<path class="st8" d="M384.79,209.26c0.33,1.76-0.56,2.58-2.09,3.26c-11.9,5.3-22.13,12.98-31.12,22.32
			c-2.09,2.17-3.45,2.35-5.44,0.06c-9.7-11.15-15.83-23.97-18.31-38.53c-3.23-18.92,0.27-36.78,8.52-53.88
			c1.92-3.98,2.31-4.02,6.19-1.84c17.21,9.68,27.28,25.24,34.96,42.7C381.14,191.62,383.48,200.31,384.79,209.26z"/>
		<path class="st9" d="M441.74,245.09c-0.25,0.49-0.5,0.98-0.74,1.47c-2.35-0.46-2.93-2.18-3.03-4.25c0.56-0.27,0.82-0.72,0.82-1.33
			C440.19,242.04,441.34,243.29,441.74,245.09z"/>
		<path class="st10" d="M428.58,296.31c0.8,5.72-0.55,10.19-2.67,14.5c-0.26,0.52-0.7,0.97-1.13,1.37
			c-2.41,2.24-6.97,2.77-8.54,1.02c-1.54-1.71-0.98-5.99,1.45-8.15C420.97,302.13,424.53,299.52,428.58,296.31z"/>
		<path class="st11" d="M437.96,242.31c1.01,1.42,2.02,2.83,3.03,4.25c-3.65,4.43-8.03,7.94-13.55,11.11
			c1.05-6.66,3.27-12.18,5.37-17.74c0.64-1.69,1.37-1.21,2.29-0.29C436.03,240.55,437,241.42,437.96,242.31z"/>
		<path class="st10" d="M362.22,271.7c2.2,4.92,2.63,9.46,1.55,14.15c-0.61,2.67-2.26,4.49-5.02,4.07
			c-2.79-0.42-2.72-3.06-2.56-5.17C356.55,279.81,358.65,275.62,362.22,271.7z"/>
		<path class="st11" d="M387.47,241.66c0-5.29,0.04-9.55-0.02-13.8c-0.03-2.03,1.49-1.89,2.71-2.02c2.1-0.22,4.89-1.42,6.14,0.08
			c1.09,1.31-0.69,3.77-1.5,5.58C393.27,234.97,391.72,238.49,387.47,241.66z"/>
		<path class="st1" d="M538.38,227c0.21,0.11,0.41,0.28,0.63,0.32c8.73,1.7,6.94,3.21,5.04,9.81c-3.2,11.13-10.33,19.9-18.56,27.79
			c-13.42,12.87-30.04,18.26-48.32,20.5c7.79-7.83,12.3-16.76,10.57-27.98c-1.01-3.36,0.51-4.93,3.64-6.05
			c11.27-4.05,22.33-8.58,32.28-15.42c3.25-2.24,6.52-4.46,9.26-7.33C534.43,227.07,536.16,226.2,538.38,227z"/>
		<path class="st3" d="M538.38,227c-1.41,0.14-2.75,0.17-3.92,1.35c-10.42,10.53-23.6,16.43-37.06,21.83
			c-1.88,0.75-3.74,1.66-5.7,2.09c-2.91,0.64-4.41,2.09-3.95,5.17c-1.06-3.16-1.23-6.52-2.64-9.63c-2.07-4.58-4.97-8.42-9.43-11.72
			c5.3-2.83,10.71-4.49,16.14-6c14.84-4.15,30.04-4.16,45.27-3.63C537.52,226.49,537.95,226.82,538.38,227z"/>
		<path class="st12" d="M485.01,254.44c3.89,13.12-1.73,23.92-12,30.99c-3.11,2.14-7.23,0.76-10.88,0.49
			c-1.22-0.09-0.78-1.47-0.61-2.4c0.41-2.23,0.78-4.47,1.17-6.7c0.86-3.34-0.21-6.79,0.59-10.14c0-0.69,0-1.39,0-2.08
			c-0.56-1.39-0.15-2.85-0.28-4.27c-0.11-1.27,0.46-2.16,1.64-2.44c6.42-1.52,12.85-2.96,19.39-3.87
			C484.38,253.98,484.7,254.26,485.01,254.44z"/>
		<path class="st13" d="M485.01,254.44c-5.3,1.17-10.58,2.37-15.89,3.5c-5.6,1.19-5.6,1.15-5.84,6.66
			c-1.45-4.62,0.29-9.58-1.38-14.13c-1.98-5.4,1.22-7.61,5.24-9.89c7.11-4.04,8.68-3.81,13.48,3.01
			C482.94,246.87,484.38,250.49,485.01,254.44z"/>
		<path class="st13" d="M463.28,266.68c-0.12,3.38,0.73,6.82-0.59,10.14C462.84,273.44,462.12,270.01,463.28,266.68z"/>
		<path class="st1" d="M356.66,194.54c-9.59,4.83-12.91,13.32-13.53,23.32c-0.18,2.93-0.03,5.88-0.03,9.57
			c-2.19-1.86-3.03-3.72-3.98-5.41c-14.65-26.1-13.57-52.42-1.08-78.91c0.92-1.95,2.01-2.06,3.61-0.93c1.36,0.97,2.78,1.87,4.17,2.8
			c1.53,1.97,1.03,4.37,1.3,6.57c1.58,12.88,4.92,25.28,9.84,37.28C357.69,190.66,359.25,192.77,356.66,194.54z"/>
		<path class="st3" d="M356.66,194.54c1.4-1.65,0.33-3.23-0.3-4.67c-5.43-12.42-8.64-25.42-10.38-38.81c-0.26-2-0.12-4.05-0.17-6.08
			c9.97,6.13,16.91,15.07,22.84,24.88c4.84,8.02,8.67,16.53,11.21,25.58c0.22,0.78,0.77,1.53,0.1,2.68
			C372.86,192.69,365.04,191.63,356.66,194.54z"/>
		<path class="st12" d="M371.75,216.2c-7.66,4.93-14.82,10.48-21.32,16.89c-1.75,1.73-4.83,0.26-5.06-2.77
			c-0.55-7.26-1.17-14.62,1.28-21.68c2-5.75,5.64-10.19,11.42-12.6c1.77-0.29,2.24,1.15,2.79,2.27c2.66,5.41,5.96,10.38,10.05,14.82
			C371.67,213.94,372.81,214.82,371.75,216.2z"/>
		<path class="st13" d="M371.75,216.2c-0.35-2.52-2.78-3.44-4.06-5.27c-2.8-4-5.71-7.92-7.67-12.44c-0.42-0.97-0.83-2.01-1.94-2.46
			c8.51-2.87,15.88-0.98,22.25,5.26c2.3,2.25,2.34,5.09,2.28,7.98c-0.03,1.32-1.04,1.85-2.07,2.18
			C377.31,212.5,374.59,214.45,371.75,216.2z"/>
	</g>
</g>
</svg>
